  0
SECTION
  2
HEADER
  9
$ANGBASE
  50
0.0
  9
$ANGDIR
  70
1
  9
$MEASUREMENT
  70
1
  0
ENDSEC
  0
SECTION
  2
TABLES
  0
TABLE
  2
LTYPE
  70
4
  0
LTYPE
  5
40F
  2
CONTINUOUS
  70
0
  3
Solid line
  72
65
  73
0
  40
0.0
  0
LTYPE
  5
410
  2
DASHDOT
 70
0
  3
Dash Dot ____ _ ____ _
 72
65
 73
4
 40
2.0
 49
1.25
 49
-0.25
 49
0.25
 49
-0.25
  0
LTYPE
  5
411
  2
DASHED
 70
0
  3
Dashed __ __ __ __ __
 72
65
 73
2
 40
0.75
 49
0.5
 49
-0.25
  0
LTYPE
  5
43B
  2
DOTTED
 70
0
  3
Dotted .  .  .  .
 72
65
 73
2
 40
0.2
 49
0.0
 49
-0.2
  0
ENDTAB
  0
TABLE
  2
STYLE
  70
4
  0
STYLE
  2
KICAD
  70
0
  40
0
  41
1
  42
1
  50
0
  71
0
  3
isocp.shx
  0
STYLE
  2
KICADB
  70
0
  40
0
  41
1
  42
1
  50
0
  71
0
  3
isocp.shx
  0
STYLE
  2
KICADI
  70
0
  40
0
  41
1
  42
1
  50
15
  71
0
  3
isocp.shx
  0
STYLE
  2
KICADBI
  70
0
  40
0
  41
1
  42
1
  50
15
  71
0
  3
isocp.shx
  0
ENDTAB
  0
TABLE
  2
LAYER
  70
1
  0
LAYER
  2
BLACK
  70
0
  62
7
  6
CONTINUOUS
  0
ENDTAB
  0
ENDSEC
  0
SECTION
  2
ENTITIES
0
ARC
8
BLACK
10
312.8558999999999628
20
-212.8689999999999998
40
0.5001000000009997
50
-89.98854247
51
-0.00011457
0
ARC
8
BLACK
10
180.1936000000000035
20
-212.8689999999999998
40
0.5000010099999799
50
-179.99988542
51
-90.01145913
0
ARC
8
BLACK
10
216.7372000000000014
20
-261.8063999999999965
40
0.4999500102020201
50
-270.00572982
51
-179.98842510
0
ARC
8
BLACK
10
-26.1502489999999987
20
-280.8565019999999777
40
0.500001000001
50
90.00011459
51
179.99988541
0
ARC
8
BLACK
10
193.7934999999999945
20
-223.6814999999999998
40
0.499999
50
-0.00011460
51
90.00000000
0
CIRCLE
8
BLACK
10
115.5560100000000006
20
-268.2815009999999916
40
1.
0
CIRCLE
8
BLACK
10
48.8810099999999963
20
-287.3315010000000029
40
1.
0
LINE
8
BLACK
6
CONTINUOUS
10
218.6434999999999889
20
-223.7065010000000029
11
218.6434999999999889
21
-235.4245009999999922
0
ARC
8
BLACK
10
175.4310999999999865
20
-274.7814999999999941
40
0.5000010099999799
50
-179.99988542
51
-90.01145913
0
LINE
8
BLACK
6
CONTINUOUS
10
216.2372499999999889
20
-273.5245009999999866
11
219.2372499999999889
21
-275.2565010000000143
0
ARC
8
BLACK
10
280.2059999999999604
20
-299.88149999999996
40
0.500000000001
50
-270.00000000
51
-179.99988541
0
LINE
8
BLACK
6
CONTINUOUS
10
214.4747500000000002
20
-294.3065009999999688
11
240.4747500000000002
21
-294.3065009999999688
0
ARC
8
BLACK
10
-29.1250009999999975
20
-318.000001999999995
40
1.5000009999999999
50
0.00000000
51
90.00000000
0
LINE
8
BLACK
6
CONTINUOUS
10
4.8497499999999993
20
-280.3565009999999802
11
-26.1502499999999998
21
-280.3565009999999802
0
LINE
8
BLACK
6
CONTINUOUS
10
60.6310000000000002
20
-261.7815009999999916
11
60.6310000000000002
21
-274.7815009999999916
0
ARC
8
BLACK
10
304.625
20
-195.
40
1.5000000000003333
50
-90.00000000
51
-0.00003820
0
ARC
8
BLACK
10
280.2060999999999922
20
-312.88149999999996
40
0.5000010099999799
50
-179.99988542
51
-90.01145913
0
LINE
8
BLACK
6
CONTINUOUS
10
275.2559999999999718
20
-312.8815009999999575
11
275.2559999999999718
21
-299.8815010000000143
0
LINE
8
BLACK
6
CONTINUOUS
10
184.4559999999999889
20
-299.8815010000000143
11
184.4559999999999889
21
-312.8815009999999575
0
LINE
8
BLACK
6
CONTINUOUS
10
131.8810000000000002
20
-261.2815009999999916
11
118.2809999999999917
21
-261.2815009999999916
0
LINE
8
BLACK
6
CONTINUOUS
10
-1.2814999999999999
20
-242.7315009999999802
11
-1.2814999999999999
21
-255.7315009999999802
0
LINE
8
BLACK
6
CONTINUOUS
10
286.125
20
-196.5000009999999975
11
304.625
21
-196.5000009999999975
0
ARC
8
BLACK
10
170.6684999999999945
20
-242.7314999999999827
40
0.500000000001
50
-270.00000000
51
-179.99988541
0
ARC
8
BLACK
10
86.9749999999999943
20
-196.25
40
0.250000000002
50
-90.00000000
51
-0.00022918
0
LINE
8
BLACK
6
CONTINUOUS
10
248.2372499999999889
20
-273.5245009999999866
11
248.2372499999999889
21
-261.8065009999999688
0
LINE
8
BLACK
6
CONTINUOUS
10
-24.5939999999999976
20
-313.3815009999999575
11
-10.9939999999999998
21
-313.3815009999999575
0
LINE
8
BLACK
6
CONTINUOUS
10
-25.0939999999999976
20
-299.8815010000000143
11
-25.0939999999999976
21
-312.8815009999999575
0
LINE
8
BLACK
6
CONTINUOUS
10
232.3934999999999889
20
-212.8690009999999972
11
232.3934999999999889
21
-199.8690009999999972
0
ARC
8
BLACK
10
180.1936000000000035
20
-236.6814999999999998
40
0.5000010099999799
50
-179.99988542
51
-90.01145913
0
ARC
8
BLACK
10
304.875
20
-318.
40
1.4999989999999999
50
-0.00003820
51
90.00000000
0
LINE
8
BLACK
6
CONTINUOUS
10
189.7184999999999775
20
-256.2315009999999802
11
203.3185000000000002
21
-256.2315009999999802
0
ARC
8
BLACK
10
98.5433999999999912
20
-236.6814999999999998
40
0.5001000000009997
50
-89.98854247
51
-0.00011457
0
LINE
8
BLACK
6
CONTINUOUS
10
60.9435000000000002
20
-212.8690009999999972
11
60.9435000000000002
21
-199.8690009999999972
0
LINE
8
BLACK
6
CONTINUOUS
10
-29.6250009999999975
20
-316.5000009999999975
11
-30.1250009999999975
21
-316.5000009999999975
0
LINE
8
BLACK
6
CONTINUOUS
10
-29.625
20
-196.5000009999999975
11
-29.1250009999999975
21
-196.5000009999999975
0
LINE
8
BLACK
6
CONTINUOUS
10
-1.2814999999999999
20
-299.8815010000000143
11
-1.2814999999999999
21
-312.8815009999999575
0
ARC
8
BLACK
10
27.7934999999999981
20
-223.6814999999999998
40
0.500000000001
50
-270.00000000
51
-179.99988541
0
ARC
8
BLACK
10
261.1560999999999808
20
-236.6814999999999998
40
0.5000010099999799
50
-179.99988542
51
-90.01145913
0
ARC
8
BLACK
10
-24.5939990000000002
20
-312.88149999999996
40
0.500001000001
50
-179.99988541
51
-90.00011459
0
ARC
8
BLACK
10
137.3310999999999922
20
-274.7814999999999941
40
0.5000010099999799
50
-179.99988542
51
-90.01145913
0
LINE
8
BLACK
6
CONTINUOUS
10
315.875
20
-198.5000009999999975
11
315.875
21
-314.5000009999999975
0
ARC
8
BLACK
10
146.1684999999999945
20
-199.8689999999999998
40
0.499999
50
-0.00011460
51
90.00000000
0
LINE
8
BLACK
6
CONTINUOUS
10
146.1684999999999945
20
-242.2315009999999802
11
132.5685000000000002
21
-242.2315009999999802
0
LINE
8
BLACK
6
CONTINUOUS
10
146.6684999999999945
20
-255.7315009999999802
11
146.6684999999999945
21
-242.7315009999999802
0
ARC
8
BLACK
10
123.0435999999999979
20
-236.6814999999999998
40
0.5000010099999799
50
-179.99988542
51
-90.01145913
0
LINE
8
BLACK
6
CONTINUOUS
10
-23.6502499999999998
20
-294.3065009999999688
11
2.3497499999999998
21
-294.3065009999999688
0
LINE
8
BLACK
6
CONTINUOUS
10
-8.6127500000000001
20
-261.2814999999999941
11
-22.2127499999999998
21
-261.2814999999999941
0
CIRCLE
8
BLACK
10
163.1810099999999863
20
-287.3315010000000029
40
1.
0
ARC
8
BLACK
10
286.125
20
-316.75
40
0.250000000002
50
-270.00000000
51
-179.99977082
0
LINE
8
BLACK
6
CONTINUOUS
10
-16.125
20
-195.0000009999999975
11
-2.375
21
-195.0000009999999975
0
LINE
8
BLACK
6
CONTINUOUS
10
32.0559999999999974
20
-280.8315010000000029
11
32.0559999999999974
21
-293.8315010000000029
0
ARC
8
BLACK
10
37.3185999999999964
20
-255.7314999999999827
40
0.5000010099999799
50
-179.99988542
51
-90.01145913
0
ARC
8
BLACK
10
250.9433999999999969
20
-212.8689999999999998
40
0.5001000000009997
50
-89.98854247
51
-0.00011457
0
LINE
8
BLACK
6
CONTINUOUS
10
275.875
20
-317.7500009999999975
11
275.875
21
-316.7500009999999975
0
ARC
8
BLACK
10
242.9746999999999844
20
-280.8566000000000145
40
0.5000990024995051
50
0.01134298
51
89.99427156
0
ARC
8
BLACK
10
112.0749999999999886
20
-319.
40
0.999999
50
-0.00005730
51
90.00000000
0
ARC
8
BLACK
10
151.6184999999999832
20
-242.7314999999999827
40
0.500000000001
50
-270.00000000
51
-179.99988541
0
ARC
8
BLACK
10
208.0809999999999889
20
-261.7814999999999941
40
0.499999
50
-0.00011460
51
90.00000000
0
ARC
8
BLACK
10
-24.5939990000000002
20
-299.8815020000000118
40
0.500001000001
50
90.00011459
51
179.99988541
0
LINE
8
BLACK
6
CONTINUOUS
10
22.3434999999999988
20
-199.3690009999999972
11
8.7434999999999992
21
-199.3690009999999972
0
LINE
8
BLACK
6
CONTINUOUS
10
246.6809999999999832
20
-312.8815009999999575
11
246.6809999999999832
21
-299.8815010000000143
0
LINE
8
BLACK
6
CONTINUOUS
10
236.8434999999999775
20
-199.8690009999999972
11
236.8434999999999775
21
-212.8690009999999972
0
LINE
8
BLACK
6
CONTINUOUS
10
171.6749999999999829
20
-195.0000009999999975
11
186.2750000000000057
21
-195.0000009999999975
0
LINE
8
BLACK
6
CONTINUOUS
10
44.375
20
-318.0000009999999975
11
44.375
21
-320.5000009999999975
0
LINE
8
BLACK
6
CONTINUOUS
10
141.9060000000000059
20
-293.8315010000000029
11
141.9060000000000059
21
-280.8315010000000029
0
LINE
8
BLACK
6
CONTINUOUS
10
193.9809999999999945
20
-261.7815009999999916
11
193.9809999999999945
21
-274.7815009999999916
0
LINE
8
BLACK
6
CONTINUOUS
10
261.875
20
-195.0000009999999975
11
275.625
21
-195.0000009999999975
0
LINE
8
BLACK
6
CONTINUOUS
10
-10.4939999999999998
20
-312.8815009999999575
11
-10.4939999999999998
21
-299.8815010000000143
0
LINE
8
BLACK
6
CONTINUOUS
10
108.2560000000000002
20
-280.8315010000000029
11
108.2560000000000002
21
-293.8315010000000029
0
CIRCLE
8
BLACK
10
86.9810099999999977
20
-206.3690210000000036
40
1.
0
LINE
8
BLACK
6
CONTINUOUS
10
160.4559999999999889
20
-280.3315010000000029
11
146.8559999999999945
21
-280.3315010000000029
0
LINE
8
BLACK
6
CONTINUOUS
10
46.3434999999999988
20
-199.8690009999999972
11
46.3434999999999988
21
-212.8690009999999972
0
ARC
8
BLACK
10
274.7558999999999969
20
-312.88149999999996
40
0.5001000000009997
50
-89.98854247
51
-0.00011457
0
LINE
8
BLACK
6
CONTINUOUS
10
165.7185000000000059
20
-212.8690009999999972
11
165.7185000000000059
21
-199.8690009999999972
0
ARC
8
BLACK
10
86.9749999999999943
20
-195.25
40
0.249999
50
-0.00022918
51
90.00000000
0
LINE
8
BLACK
6
CONTINUOUS
10
261.875
20
-321.5000009999999975
11
299.875
21
-321.5000009999999975
0
ARC
8
BLACK
10
32.5561000000000007
20
-293.8315000000000055
40
0.5000010099999799
50
-179.99988542
51
-90.01145913
0
ARC
8
BLACK
10
97.4749999999999943
20
-316.75
40
0.250000000002
50
-270.00000000
51
-179.99977082
0
CIRCLE
8
BLACK
10
72.6934909999999945
20
-249.2315009999999802
40
1.
0
ARC
8
BLACK
10
280.2060999999999922
20
-255.7314999999999827
40
0.5000010099999799
50
-179.99988542
51
-90.01145913
0
LINE
8
BLACK
6
CONTINUOUS
10
-15.7564999999999991
20
-223.1815009999999972
11
-29.3564989999999995
21
-223.1815009999999972
0
ARC
8
BLACK
10
293.8059000000000083
20
-212.8689999999999998
40
0.5001000000009997
50
-89.98854247
51
-0.00011457
0
ARC
8
BLACK
10
113.5185999999999922
20
-212.8689999999999998
40
0.5000010099999799
50
-179.99988542
51
-90.01145913
0
CIRCLE
8
BLACK
10
129.7653799999999933
20
-306.3815010000000143
40
1.
0
LINE
8
BLACK
6
CONTINUOUS
10
136.8309999999999889
20
-261.7815009999999916
11
136.8309999999999889
21
-274.7815009999999916
0
ARC
8
BLACK
10
21.875
20
-192.5
40
0.999999
50
-0.00005730
51
90.00000000
0
ARC
8
BLACK
10
196.7749999999999773
20
-316.75
40
0.250000000002
50
-270.00000000
51
-179.99977082
0
LINE
8
BLACK
6
CONTINUOUS
10
-15.2564999999999991
20
-212.8690009999999972
11
-15.2564999999999991
21
-199.8690009999999972
0
ARC
8
BLACK
10
12.8185000000000002
20
-242.7314999999999827
40
0.499999
50
-0.00011460
51
90.00000000
0
ARC
8
BLACK
10
299.875
20
-194.
40
1.0000000000005
50
-90.00000000
51
-0.00005730
0
LINE
8
BLACK
6
CONTINUOUS
10
279.7059999999999604
20
-223.6815009999999972
11
279.7059999999999604
21
-236.6815009999999972
0
ARC
8
BLACK
10
47.3369999999999962
20
-312.8315000000000055
40
0.5000010099999799
50
-179.99988542
51
-90.01145913
0
ARC
8
BLACK
10
112.8308999999999997
20
-274.7814999999999941
40
0.5001000000009997
50
-89.98854247
51
-0.00011457
0
LINE
8
BLACK
6
CONTINUOUS
10
222.3684999999999832
20
-242.2315009999999802
11
208.7684999999999889
21
-242.2315009999999802
0
ARC
8
BLACK
10
280.2060999999999922
20
-236.6814999999999998
40
0.5000010099999799
50
-179.99988542
51
-90.01145913
0
LINE
8
BLACK
6
CONTINUOUS
10
117.5934999999999917
20
-299.3815010000000143
11
103.9934999999999974
21
-299.3815010000000143
0
LINE
8
BLACK
6
CONTINUOUS
10
27.2934999999999981
20
-223.6815009999999972
11
27.2934999999999981
21
-236.6815009999999972
0
LINE
8
BLACK
6
CONTINUOUS
10
27.6059999999999981
20
-293.8315010000000029
11
27.6059999999999981
21
-280.8315010000000029
0
LINE
8
BLACK
6
CONTINUOUS
10
87.2249999999999943
20
-196.2500009999999975
11
87.2249999999999943
21
-195.2500009999999975
0
LINE
8
BLACK
6
CONTINUOUS
10
242.9747500000000002
20
-280.3565009999999802
11
211.9747500000000002
21
-280.3565009999999802
0
ARC
8
BLACK
10
193.7934999999999945
20
-199.8689999999999998
40
0.499999
50
-0.00011460
51
90.00000000
0
ARC
8
BLACK
10
246.1808999999999799
20
-255.7314999999999827
40
0.5001000000009997
50
-89.98854247
51
-0.00011457
0
LINE
8
BLACK
6
CONTINUOUS
10
208.2684999999999889
20
-242.7315009999999802
11
208.2684999999999889
21
-255.7315009999999802
0
LINE
8
BLACK
6
CONTINUOUS
10
208.7684999999999889
20
-313.3815009999999575
11
222.3684999999999832
21
-313.3815009999999575
0
ARC
8
BLACK
10
312.8559999999999945
20
-299.88149999999996
40
0.499999
50
-0.00011460
51
90.00000000
0
ARC
8
BLACK
10
-10.3064939999999989
20
-223.6815069999999821
40
0.5000060000359996
50
90.00068754
51
179.99931246
0
LINE
8
BLACK
6
CONTINUOUS
10
280.2059999999999604
20
-256.2315009999999802
11
293.8059999999999832
21
-256.2315009999999802
0
ARC
8
BLACK
10
286.125
20
-195.25
40
0.250000000002
50
-270.00000000
51
-179.99977082
0
ARC
8
BLACK
10
27.1058999999999983
20
-293.8315000000000055
40
0.5001000000009997
50
-89.98854247
51
-0.00011457
0
LINE
8
BLACK
6
CONTINUOUS
10
198.7434999999999832
20
-199.8690009999999972
11
198.7434999999999832
21
-212.8690009999999972
0
ARC
8
BLACK
10
23.0309999999999988
20
-299.88149999999996
40
0.500000000001
50
-270.00000000
51
-179.99988541
0
CIRCLE
8
BLACK
10
308.875
20
-320.5000009999999975
40
1.25
0
ARC
8
BLACK
10
-25.125
20
-192.5000009999999975
40
2.5
50
0.00000000
51
180.00000000
0
ARC
8
BLACK
10
156.3811000000000035
20
-274.7814999999999941
40
0.5000010099999799
50
-179.99988542
51
-90.01145913
0
ARC
8
BLACK
10
312.8559999999999945
20
-223.6814999999999998
40
0.499999
50
-0.00011460
51
90.00000000
0
LINE
8
BLACK
6
CONTINUOUS
10
99.0434999999999945
20
-236.6815009999999972
11
99.0434999999999945
21
-223.6815009999999972
0
ARC
8
BLACK
10
61.1310999999999964
20
-274.7814999999999941
40
0.5000010099999799
50
-179.99988542
51
-90.01145913
0
LINE
8
BLACK
6
CONTINUOUS
10
136.6434999999999889
20
-223.1815009999999972
11
123.0434999999999945
21
-223.1815009999999972
0
ARC
8
BLACK
10
309.8861999999999739
20
-275.7346000000000004
40
1.2003962786151079
50
-109.24250195
51
-20.28436356
0
LINE
8
BLACK
6
CONTINUOUS
10
98.5434999999999945
20
-223.1815009999999972
11
84.9435000000000002
21
-223.1815009999999972
0
ARC
8
BLACK
10
84.2560000000000002
20
-280.8315000000000055
40
0.499999
50
-0.00011460
51
90.00000000
0
LINE
8
BLACK
6
CONTINUOUS
10
51.1059999999999945
20
-280.8315010000000029
11
51.1059999999999945
21
-293.8315010000000029
0
ARC
8
BLACK
10
46.1559999999999988
20
-280.8315000000000055
40
0.499999
50
-0.00011460
51
90.00000000
0
ARC
8
BLACK
10
299.2561000000000035
20
-255.7314999999999827
40
0.5000010099999799
50
-179.99988542
51
-90.01145913
0
LINE
8
BLACK
6
CONTINUOUS
10
280.2059999999999604
20
-237.1815009999999972
11
293.8059999999999832
21
-237.1815009999999972
0
ARC
8
BLACK
10
293.8059999999999832
20
-242.7314999999999827
40
0.499999
50
-0.00011460
51
90.00000000
0
ARC
8
BLACK
10
308.875
20
-192.5000009999999975
40
2.75
50
0.00000000
51
180.00000000
0
ARC
8
BLACK
10
132.5686000000000035
20
-255.7314999999999827
40
0.5000010099999799
50
-179.99988542
51
-90.01145913
0
ARC
8
BLACK
10
113.5184999999999889
20
-199.8689999999999998
40
0.500000000001
50
-270.00000000
51
-179.99988541
0
ARC
8
BLACK
10
84.9435000000000002
20
-223.6814999999999998
40
0.500000000001
50
-270.00000000
51
-179.99988541
0
LINE
8
BLACK
6
CONTINUOUS
10
97.4749999999999943
20
-316.5000009999999975
11
159.875
21
-316.5000009999999975
0
ARC
8
BLACK
10
161.6435999999999922
20
-312.8315000000000055
40
0.5000010099999799
50
-179.99988542
51
-90.01145913
0
ARC
8
BLACK
10
274.7558999999999969
20
-236.6814999999999998
40
0.5001000000009997
50
-89.98854247
51
-0.00011457
0
ARC
8
BLACK
10
280.2059999999999604
20
-280.8315000000000055
40
0.500000000001
50
-270.00000000
51
-179.99988541
0
ARC
8
BLACK
10
196.7749999999999773
20
-317.75
40
0.250001
50
-179.99977082
51
-90.00000000
0
ARC
8
BLACK
10
287.0058500000000095
20
-341.2134599999999978
40
68.1605458898433767
50
70.73867169
51
109.26110580
0
LINE
8
BLACK
6
CONTINUOUS
10
103.4934999999999974
20
-299.8815010000000143
11
103.4934999999999974
21
-312.8815009999999575
0
ARC
8
BLACK
10
127.1183999999999941
20
-255.7314999999999827
40
0.5001000000009997
50
-89.98854247
51
-0.00011457
0
ARC
8
BLACK
10
86.9749999999999943
20
-317.75
40
0.250000000002
50
-90.00000000
51
-0.00022918
0
LINE
8
BLACK
6
CONTINUOUS
10
122.5434999999999945
20
-223.6815009999999972
11
122.5434999999999945
21
-236.6815009999999972
0
ARC
8
BLACK
10
293.8059000000000083
20
-255.7314999999999827
40
0.5001000000009997
50
-89.98854247
51
-0.00011457
0
LINE
8
BLACK
6
CONTINUOUS
10
46.8434999999999988
20
-213.3690009999999972
11
60.4435000000000002
21
-213.3690009999999972
0
LINE
8
BLACK
6
CONTINUOUS
10
298.7559999999999718
20
-299.8815010000000143
11
298.7559999999999718
21
-312.8815009999999575
0
LINE
8
BLACK
6
CONTINUOUS
10
165.4060000000000059
20
-280.8315010000000029
11
165.4060000000000059
21
-293.8315010000000029
0
LINE
8
BLACK
6
CONTINUOUS
10
218.6434999999999889
20
-235.4245009999999922
11
221.6434999999999889
21
-237.1565009999999916
0
LINE
8
BLACK
6
CONTINUOUS
10
208.0809999999999889
20
-261.2815009999999916
11
194.4809999999999945
21
-261.2815009999999916
0
LINE
8
BLACK
6
CONTINUOUS
10
36.6310000000000002
20
-261.2815009999999916
11
23.0309999999999988
21
-261.2815009999999916
0
ARC
8
BLACK
10
103.9936000000000007
20
-236.6814999999999998
40
0.5000010099999799
50
-179.99988542
51
-90.01145913
0
LINE
8
BLACK
6
CONTINUOUS
10
196.7749999999999773
20
-318.0000009999999975
11
211.375
21
-318.0000009999999975
0
LINE
8
BLACK
6
CONTINUOUS
10
79.4934999999999974
20
-199.3690009999999972
11
65.8935000000000031
21
-199.3690009999999972
0
ARC
8
BLACK
10
-0.7814939999999999
20
-242.7315069999999935
40
0.5000060000359996
50
90.00068754
51
179.99931246
0
ARC
8
BLACK
10
184.9559999999999889
20
-299.88149999999996
40
0.500000000001
50
-270.00000000
51
-179.99988541
0
LINE
8
BLACK
6
CONTINUOUS
10
74.9184999999999945
20
-242.7315009999999802
11
74.9184999999999945
21
-255.7315009999999802
0
CIRCLE
8
BLACK
10
306.0560099999999579
20
-287.3315010000000029
40
1.
0
LINE
8
BLACK
6
CONTINUOUS
10
41.893499999999996
20
-212.8690009999999972
11
41.893499999999996
21
-199.8690009999999972
0
ARC
8
BLACK
10
21.875
20
-320.5
40
1.0000000000005
50
-90.00000000
51
-0.00005730
0
LINE
8
BLACK
6
CONTINUOUS
10
84.2560000000000002
20
-280.3315010000000029
11
70.6559999999999917
21
-280.3315010000000029
0
ARC
8
BLACK
10
59.9368999999999943
20
-299.9314999999999714
40
0.499999
50
-0.00011460
51
90.00000000
0
LINE
8
BLACK
6
CONTINUOUS
10
117.7809999999999917
20
-261.7815009999999916
11
117.7809999999999917
21
-274.7815009999999916
0
ARC
8
BLACK
10
261.875
20
-319.
40
1.0000000000005
50
-270.00000000
51
-179.99994270
0
LINE
8
BLACK
6
CONTINUOUS
10
18.2684999999999995
20
-256.2315009999999802
11
31.8684999999999974
21
-256.2315009999999802
0
LINE
8
BLACK
6
CONTINUOUS
10
170.4809999999999945
20
-274.7815009999999916
11
170.4809999999999945
21
-261.7815009999999916
0
ARC
8
BLACK
10
8.7434899999999995
20
-223.6814599999999871
40
0.4999900016810336
50
-270.00114594
51
-179.99530165
0
LINE
8
BLACK
6
CONTINUOUS
10
22.5309999999999988
20
-299.8815010000000143
11
22.5309999999999988
21
-312.8815009999999575
0
ARC
8
BLACK
10
299.2561000000000035
20
-212.8689999999999998
40
0.5000010099999799
50
-179.99988542
51
-90.01145913
0
ARC
8
BLACK
10
250.9435000000000002
20
-199.8689999999999998
40
0.499999
50
-0.00011460
51
90.00000000
0
ARC
8
BLACK
10
189.7184999999999775
20
-242.7314999999999827
40
0.500000000001
50
-270.00000000
51
-179.99988541
0
ARC
8
BLACK
10
136.6434999999999889
20
-223.6814999999999998
40
0.499999
50
-0.00011460
51
90.00000000
0
ARC
8
BLACK
10
75.4184999999999945
20
-242.7314999999999827
40
0.500000000001
50
-270.00000000
51
-179.99988541
0
LINE
8
BLACK
6
CONTINUOUS
10
37.1310000000000002
20
-274.7815009999999916
11
37.1310000000000002
21
-261.7815009999999916
0
ARC
8
BLACK
10
275.625
20
-196.25
40
0.250000000002
50
-90.00000000
51
-0.00022918
0
LINE
8
BLACK
6
CONTINUOUS
10
127.6184999999999974
20
-212.8690009999999972
11
127.6184999999999974
21
-199.8690009999999972
0
ARC
8
BLACK
10
37.875
20
-318.
40
1.4999989999999999
50
-0.00003820
51
90.00000000
0
ARC
8
BLACK
10
261.1560000000000059
20
-199.8689999999999998
40
0.500000000001
50
-270.00000000
51
-179.99988541
0
LINE
8
BLACK
6
CONTINUOUS
10
175.4309999999999832
20
-275.2815009999999916
11
189.0309999999999775
21
-275.2815009999999916
0
ARC
8
BLACK
10
132.5686000000000035
20
-212.8689999999999998
40
0.5000010099999799
50
-179.99988542
51
-90.01145913
0
LINE
8
BLACK
6
CONTINUOUS
10
8.125
20
-196.5000009999999975
11
37.625
21
-196.5000009999999975
0
LINE
8
BLACK
6
CONTINUOUS
10
222.3684999999999832
20
-299.3815010000000143
11
208.7684999999999889
21
-299.3815010000000143
0
ARC
8
BLACK
10
261.1560000000000059
20
-223.6814999999999998
40
0.500000000001
50
-270.00000000
51
-179.99988541
0
LINE
8
BLACK
6
CONTINUOUS
10
169.9809999999999945
20
-261.2815009999999916
11
156.3810000000000002
21
-261.2815009999999916
0
ARC
8
BLACK
10
-0.781516
20
-312.8815169999999739
40
0.4999840002560081
50
-180.00183352
51
-89.99816648
0
LINE
8
BLACK
6
CONTINUOUS
10
-0.7815
20
-256.2315009999999802
11
12.8185000000000002
21
-256.2315009999999802
0
ARC
8
BLACK
10
299.2559999999999718
20
-199.8689999999999998
40
0.500000000001
50
-270.00000000
51
-179.99988541
0
ARC
8
BLACK
10
165.9060000000000059
20
-280.8315000000000055
40
0.500000000001
50
-270.00000000
51
-179.99988541
0
ARC
8
BLACK
10
146.8560999999999979
20
-293.8315000000000055
40
0.5000010099999799
50
-179.99988542
51
-90.01145913
0
ARC
8
BLACK
10
46.843599999999995
20
-236.6814999999999998
40
0.5000010099999799
50
-179.99988542
51
-90.01145913
0
LINE
8
BLACK
6
CONTINUOUS
10
161.1434999999999889
20
-299.9315009999999688
11
161.1434999999999889
21
-312.8315010000000029
0
LINE
8
BLACK
6
CONTINUOUS
10
196.5249999999999773
20
-195.2500009999999975
11
196.5249999999999773
21
-196.2500009999999975
0
ARC
8
BLACK
10
98.5434999999999945
20
-223.6814999999999998
40
0.499999
50
-0.00011460
51
90.00000000
0
ARC
8
BLACK
10
312.8559999999999945
20
-242.7314999999999827
40
0.499999
50
-0.00011460
51
90.00000000
0
ARC
8
BLACK
10
194.4809999999999945
20
-261.7814999999999941
40
0.500000000001
50
-270.00000000
51
-179.99988541
0
CIRCLE
8
BLACK
10
41.875
20
-192.5000009999999975
40
1.25
0
ARC
8
BLACK
10
137.3309999999999889
20
-261.7814999999999941
40
0.500000000001
50
-270.00000000
51
-179.99988541
0
ARC
8
BLACK
10
274.7558999999999969
20
-255.7314999999999827
40
0.5001000000009997
50
-89.98854247
51
-0.00011457
0
ARC
8
BLACK
10
171.6749999999999829
20
-194.
40
1.0000009999999999
50
-179.99994270
51
-90.00000000
0
LINE
8
BLACK
6
CONTINUOUS
10
189.2184999999999775
20
-242.7315009999999802
11
189.2184999999999775
21
-255.7315009999999802
0
CIRCLE
8
BLACK
10
172.706009999999992
20
-206.3690210000000036
40
1.
0
ARC
8
BLACK
10
31.8684999999999974
20
-242.7314999999999827
40
0.499999
50
-0.00011460
51
90.00000000
0
ARC
8
BLACK
10
293.8059999999999832
20
-223.6814999999999998
40
0.499999
50
-0.00011460
51
90.00000000
0
ARC
8
BLACK
10
122.3559999999999945
20
-280.8315000000000055
40
0.499999
50
-0.00011460
51
90.00000000
0
ARC
8
BLACK
10
155.6935000000000002
20
-223.6814999999999998
40
0.499999
50
-0.00011460
51
90.00000000
0
ARC
8
BLACK
10
103.3059999999999974
20
-280.8315000000000055
40
0.499999
50
-0.00011460
51
90.00000000
0
LINE
8
BLACK
6
CONTINUOUS
10
246.6809999999999832
20
-255.7315009999999802
11
246.6809999999999832
21
-242.7315009999999802
0
LINE
8
BLACK
6
CONTINUOUS
10
69.9684999999999917
20
-242.2315009999999802
11
56.3684999999999974
21
-242.2315009999999802
0
ARC
8
BLACK
10
293.8059999999999832
20
-199.8689999999999998
40
0.499999
50
-0.00011460
51
90.00000000
0
ARC
8
BLACK
10
103.9934999999999974
20
-299.88149999999996
40
0.500000000001
50
-270.00000000
51
-179.99988541
0
LINE
8
BLACK
6
CONTINUOUS
10
22.875
20
-320.5000009999999975
11
22.875
21
-319.0000009999999975
0
ARC
8
BLACK
10
127.1184999999999974
20
-242.7314999999999827
40
0.499999
50
-0.00011460
51
90.00000000
0
LINE
8
BLACK
6
CONTINUOUS
10
-17.125
20
-319.0000009999999975
11
-17.125
21
-320.5000009999999975
0
LINE
8
BLACK
6
CONTINUOUS
10
198.5559999999999832
20
-280.3315010000000029
11
184.9559999999999889
21
-280.3315010000000029
0
ARC
8
BLACK
10
274.7558999999999969
20
-212.8689999999999998
40
0.5001000000009997
50
-89.98854247
51
-0.00011457
0
ARC
8
BLACK
10
194.4810999999999979
20
-274.7814999999999941
40
0.5000010099999799
50
-179.99988542
51
-90.01145913
0
ARC
8
BLACK
10
-2.3749989999999999
20
-195.25
40
0.249999000002
50
-0.00022918
51
90.00022918
0
ARC
8
BLACK
10
151.6185999999999865
20
-255.7314999999999827
40
0.5000010099999799
50
-179.99988542
51
-90.01145913
0
LINE
8
BLACK
6
CONTINUOUS
10
-10.9939999999999998
20
-242.2315009999999802
11
-24.5939999999999976
21
-242.2315009999999802
0
ARC
8
BLACK
10
-10.9941119999999994
20
-255.731459000000001
40
0.5001120017636049
50
-89.98716862
51
-0.00481177
0
LINE
8
BLACK
6
CONTINUOUS
10
-24.5939999999999976
20
-256.2315009999999802
11
-10.9939999999999998
21
-256.2315009999999802
0
ARC
8
BLACK
10
-24.5940159999999999
20
-255.7315169999999966
40
0.4999840002560081
50
-180.00183352
51
-89.99816648
0
LINE
8
BLACK
6
CONTINUOUS
10
212.8434999999999775
20
-223.1815009999999972
11
199.2434999999999832
21
-223.1815009999999972
0
ARC
8
BLACK
10
-24.5939939999999986
20
-242.7315069999999935
40
0.5000060000359996
50
90.00068754
51
179.99931246
0
ARC
8
BLACK
10
65.8935000000000031
20
-199.8689999999999998
40
0.500000000001
50
-270.00000000
51
-179.99988541
0
LINE
8
BLACK
6
CONTINUOUS
10
-10.4939999999999998
20
-255.7315009999999802
11
-10.4939999999999998
21
-242.7315009999999802
0
ARC
8
BLACK
10
51.6059999999999945
20
-280.8315000000000055
40
0.500000000001
50
-270.00000000
51
-179.99988541
0
ARC
8
BLACK
10
-10.9939939999999989
20
-242.7314649999999858
40
0.4999640000360026
50
-0.00412559
51
90.00068760
0
ARC
8
BLACK
10
159.875
20
-195.
40
1.5000000000003333
50
-90.00000000
51
-0.00003820
0
LINE
8
BLACK
6
CONTINUOUS
10
94.4684999999999917
20
-213.3690009999999972
11
108.0685000000000002
21
-213.3690009999999972
0
LINE
8
BLACK
6
CONTINUOUS
10
86.9749999999999943
20
-318.0000009999999975
11
72.375
21
-318.0000009999999975
0
LINE
8
BLACK
6
CONTINUOUS
10
113.5184999999999889
20
-213.3690009999999972
11
127.1184999999999974
21
-213.3690009999999972
0
LINE
8
BLACK
6
CONTINUOUS
10
50.9184999999999945
20
-242.2315009999999802
11
37.3185000000000002
21
-242.2315009999999802
0
ARC
8
BLACK
10
-8.6127089999999988
20
-274.7815420000000017
40
0.4999590017641446
50
-90.00469864
51
0.00481324
0
LINE
8
BLACK
6
CONTINUOUS
10
180.1935000000000002
20
-213.3690009999999972
11
193.7934999999999945
21
-213.3690009999999972
0
ARC
8
BLACK
10
46.843599999999995
20
-212.8689999999999998
40
0.5000010099999799
50
-179.99988542
51
-90.01145913
0
ARC
8
BLACK
10
89.0183999999999997
20
-255.7314999999999827
40
0.5001000000009997
50
-89.98854247
51
-0.00011457
0
LINE
8
BLACK
6
CONTINUOUS
10
184.7684999999999889
20
-255.7315009999999802
11
184.7684999999999889
21
-242.7315009999999802
0
LINE
8
BLACK
6
CONTINUOUS
10
7.875
20
-316.7500009999999975
11
7.875
21
-317.7500009999999975
0
LINE
8
BLACK
6
CONTINUOUS
10
79.6809999999999974
20
-261.7815009999999916
11
79.6809999999999974
21
-274.7815009999999916
0
LINE
8
BLACK
6
CONTINUOUS
10
-27.625
20
-195.
11
-27.625
21
-192.5000009999999975
0
LINE
8
BLACK
6
CONTINUOUS
10
42.080999999999996
20
-275.2815009999999916
11
55.6809999999999974
21
-275.2815009999999916
0
ARC
8
BLACK
10
246.1809999999999832
20
-299.88149999999996
40
0.499999
50
-0.00011460
51
90.00000000
0
LINE
8
BLACK
6
CONTINUOUS
10
294.3059999999999832
20
-312.8815009999999575
11
294.3059999999999832
21
-299.8815010000000143
0
ARC
8
BLACK
10
146.1683999999999912
20
-212.8689999999999998
40
0.5001000000009997
50
-89.98854247
51
-0.00011457
0
ARC
8
BLACK
10
70.6559999999999917
20
-280.8315000000000055
40
0.500000000001
50
-270.00000000
51
-179.99988541
0
ARC
8
BLACK
10
72.375
20
-194.
40
1.0000009999999999
50
-179.99994270
51
-90.00000000
0
ARC
8
BLACK
10
108.7560000000000002
20
-280.8315000000000055
40
0.500000000001
50
-270.00000000
51
-179.99988541
0
LINE
8
BLACK
6
CONTINUOUS
10
203.8185000000000002
20
-255.7315009999999802
11
203.8185000000000002
21
-242.7315009999999802
0
LINE
8
BLACK
6
CONTINUOUS
10
312.8559999999999945
20
-242.2315009999999802
11
299.2559999999999718
21
-242.2315009999999802
0
ARC
8
BLACK
10
287.0060100000000034
20
-341.213799999999992
40
81.58611800543909
50
70.60291138
51
109.39708862
0
LINE
8
BLACK
6
CONTINUOUS
10
161.6434999999999889
20
-313.3315010000000029
11
174.2434999999999832
21
-313.3315010000000029
0
LINE
8
BLACK
6
CONTINUOUS
10
21.875
20
-191.5000009999999975
11
-16.125
21
-191.5000009999999975
0
ARC
8
BLACK
10
136.6433999999999855
20
-236.6814999999999998
40
0.5001000000009997
50
-89.98854247
51
-0.00011457
0
ARC
8
BLACK
10
199.2435999999999865
20
-212.8689999999999998
40
0.5000010099999799
50
-179.99988542
51
-90.01145913
0
CIRCLE
8
BLACK
10
234.6184909999999775
20
-206.3690210000000036
40
1.
0
LINE
8
BLACK
6
CONTINUOUS
10
70.4684999999999917
20
-255.7315009999999802
11
70.4684999999999917
21
-242.7315009999999802
0
LINE
8
BLACK
6
CONTINUOUS
10
247.6434999999999889
20
-237.1565009999999916
11
250.6434999999999889
21
-235.4245009999999922
0
ARC
8
BLACK
10
160.4558999999999855
20
-293.8315000000000055
40
0.5001000000009997
50
-89.98854247
51
-0.00011457
0
LINE
8
BLACK
6
CONTINUOUS
10
196.7749999999999773
20
-195.0000009999999975
11
211.375
21
-195.0000009999999975
0
LINE
8
BLACK
6
CONTINUOUS
10
171.6749999999999829
20
-318.0000009999999975
11
186.2750000000000057
21
-318.0000009999999975
0
LINE
8
BLACK
6
CONTINUOUS
10
312.8559999999999945
20
-199.3690009999999972
11
299.2559999999999718
21
-199.3690009999999972
0
ARC
8
BLACK
10
208.7684999999999889
20
-242.7314999999999827
40
0.500000000001
50
-270.00000000
51
-179.99988541
0
LINE
8
BLACK
6
CONTINUOUS
10
299.2559999999999718
20
-256.2315009999999802
11
312.8559999999999945
21
-256.2315009999999802
0
LINE
8
BLACK
6
CONTINUOUS
10
89.7059999999999889
20
-294.3315010000000029
11
103.3059999999999974
21
-294.3315010000000029
0
LINE
8
BLACK
6
CONTINUOUS
10
212.8434999999999775
20
-199.3690009999999972
11
199.2434999999999832
21
-199.3690009999999972
0
ARC
8
BLACK
10
293.8059000000000083
20
-236.6814999999999998
40
0.5001000000009997
50
-89.98854247
51
-0.00011457
0
LINE
8
BLACK
6
CONTINUOUS
10
94.4684999999999917
20
-256.2315009999999802
11
108.0685000000000002
21
-256.2315009999999802
0
LINE
8
BLACK
6
CONTINUOUS
10
186.5250000000000057
20
-196.2500009999999975
11
186.5250000000000057
21
-195.2500009999999975
0
CIRCLE
8
BLACK
10
-5.8282419999999995
20
-249.233114999999998
40
1.
0
LINE
8
BLACK
6
CONTINUOUS
10
8.7434999999999992
20
-237.1815009999999972
11
22.3434999999999988
21
-237.1815009999999972
0
ARC
8
BLACK
10
-25.125
20
-320.5000009999999975
40
2.5
50
-180.00000000
51
-0.00000000
0
ARC
8
BLACK
10
261.875
20
-194.
40
1.0000009999999999
50
-179.99994270
51
-90.00000000
0
ARC
8
BLACK
10
55.6809999999999974
20
-261.7814999999999941
40
0.499999
50
-0.00011460
51
90.00000000
0
LINE
8
BLACK
6
CONTINUOUS
10
275.2559999999999718
20
-236.6815009999999972
11
275.2559999999999718
21
-223.6815009999999972
0
ARC
8
BLACK
10
50.9183999999999983
20
-255.7314999999999827
40
0.5001000000009997
50
-89.98854247
51
-0.00011457
0
LINE
8
BLACK
6
CONTINUOUS
10
294.3059999999999832
20
-255.7315009999999802
11
294.3059999999999832
21
-242.7315009999999802
0
LINE
8
BLACK
6
CONTINUOUS
10
27.1059999999999981
20
-280.3315010000000029
11
13.5060000000000002
21
-280.3315010000000029
0
ARC
8
BLACK
10
47.3369
20
-299.9314999999999714
40
0.500000000001
50
-270.00000000
51
-179.99988541
0
LINE
8
BLACK
6
CONTINUOUS
10
-8.1127500000000001
20
-274.7814999999999941
11
-8.1127500000000001
21
-261.7814999999999941
0
LINE
8
BLACK
6
CONTINUOUS
10
87.2249999999999943
20
-317.7500009999999975
11
87.2249999999999943
21
-316.7500009999999975
0
LINE
8
BLACK
6
CONTINUOUS
10
161.375
20
-320.5000009999999975
11
161.375
21
-318.0000009999999975
0
LINE
8
BLACK
6
CONTINUOUS
10
184.9559999999999889
20
-313.3815009999999575
11
198.5559999999999832
21
-313.3815009999999575
0
LINE
8
BLACK
6
CONTINUOUS
10
39.375
20
-320.5000009999999975
11
39.375
21
-318.0000009999999975
0
CIRCLE
8
BLACK
10
247.7153799999999819
20
-287.3315010000000029
40
1.
0
ARC
8
BLACK
10
313.875
20
-198.5
40
1.9999989999999999
50
-0.00002865
51
90.00000000
0
ARC
8
BLACK
10
112.0749999999999886
20
-192.5
40
0.999999
50
-0.00005730
51
90.00000000
0
ARC
8
BLACK
10
75.4185999999999979
20
-255.7314999999999827
40
0.5000010099999799
50
-179.99988542
51
-90.01145913
0
ARC
8
BLACK
10
89.7060999999999922
20
-293.8315000000000055
40
0.5000010099999799
50
-179.99988542
51
-90.01145913
0
LINE
8
BLACK
6
CONTINUOUS
10
211.375
20
-321.5000009999999975
11
171.6749999999999829
21
-321.5000009999999975
0
ARC
8
BLACK
10
94.4684999999999917
20
-199.8689999999999998
40
0.500000000001
50
-270.00000000
51
-179.99988541
0
LINE
8
BLACK
6
CONTINUOUS
10
3.9809999999999999
20
-275.2815009999999916
11
17.5809999999999995
21
-275.2815009999999916
0
LINE
8
BLACK
6
CONTINUOUS
10
232.0809999999999889
20
-242.7315009999999802
11
232.0809999999999889
21
-255.7315009999999802
0
ARC
8
BLACK
10
237.3434999999999775
20
-199.8689999999999998
40
0.500000000001
50
-270.00000000
51
-179.99988541
0
ARC
8
BLACK
10
94.4684999999999917
20
-242.7314999999999827
40
0.500000000001
50
-270.00000000
51
-179.99988541
0
LINE
8
BLACK
6
CONTINUOUS
10
79.9934999999999974
20
-236.6815009999999972
11
79.9934999999999974
21
-223.6815009999999972
0
ARC
8
BLACK
10
70.656099999999995
20
-293.8315000000000055
40
0.5000010099999799
50
-179.99988542
51
-90.01145913
0
LINE
8
BLACK
6
CONTINUOUS
10
194.2934999999999945
20
-236.6815009999999972
11
194.2934999999999945
21
-223.6815009999999972
0
LINE
8
BLACK
6
CONTINUOUS
10
211.375
20
-191.5000009999999975
11
171.6749999999999829
21
-191.5000009999999975
0
ARC
8
BLACK
10
180.1935000000000002
20
-223.6814999999999998
40
0.500000000001
50
-270.00000000
51
-179.99988541
0
LINE
8
BLACK
6
CONTINUOUS
10
280.2059999999999604
20
-294.3315010000000029
11
293.8059999999999832
21
-294.3315010000000029
0
ARC
8
BLACK
10
89.0185000000000031
20
-242.7314999999999827
40
0.499999
50
-0.00011460
51
90.00000000
0
LINE
8
BLACK
6
CONTINUOUS
10
160.6434999999999889
20
-223.6815009999999972
11
160.6434999999999889
21
-236.6815009999999972
0
ARC
8
BLACK
10
198.5559999999999832
20
-299.88149999999996
40
0.499999
50
-0.00011460
51
90.00000000
0
LINE
8
BLACK
6
CONTINUOUS
10
89.0185000000000031
20
-242.2315009999999802
11
75.4184999999999945
21
-242.2315009999999802
0
LINE
8
BLACK
6
CONTINUOUS
10
260.6560000000000059
20
-223.6815009999999972
11
260.6560000000000059
21
-236.6815009999999972
0
ARC
8
BLACK
10
293.8059999999999832
20
-280.8315000000000055
40
0.499999
50
-0.00011460
51
90.00000000
0
LINE
8
BLACK
6
CONTINUOUS
10
103.9934999999999974
20
-237.1815009999999972
11
117.5934999999999917
21
-237.1815009999999972
0
ARC
8
BLACK
10
65.2058999999999997
20
-293.8315000000000055
40
0.5001000000009997
50
-89.98854247
51
-0.00011457
0
LINE
8
BLACK
6
CONTINUOUS
10
261.1560000000000059
20
-237.1815009999999972
11
274.7559999999999718
21
-237.1815009999999972
0
LINE
8
BLACK
6
CONTINUOUS
10
211.4747500000000002
20
-292.5745009999999979
11
214.4747500000000002
21
-294.3065009999999688
0
ARC
8
BLACK
10
18.2685999999999993
20
-255.7314999999999827
40
0.5000010099999799
50
-179.99988542
51
-90.01145913
0
LINE
8
BLACK
6
CONTINUOUS
10
32.3684999999999974
20
-255.7315009999999802
11
32.3684999999999974
21
-242.7315009999999802
0
ARC
8
BLACK
10
308.875
20
-320.5000009999999975
40
2.5
50
-180.00000000
51
-0.00000000
0
ARC
8
BLACK
10
-29.3564989999999995
20
-236.6814999999999998
40
0.500001
50
-179.99988541
51
-90.00000000
0
LINE
8
BLACK
6
CONTINUOUS
10
304.875
20
-316.5000009999999975
11
286.125
21
-316.5000009999999975
0
LINE
8
BLACK
6
CONTINUOUS
10
184.9559999999999889
20
-294.3315010000000029
11
198.5559999999999832
21
-294.3315010000000029
0
LINE
8
BLACK
6
CONTINUOUS
10
-10.8064999999999998
20
-223.6815009999999972
11
-10.8064999999999998
21
-236.6815009999999972
0
ARC
8
BLACK
10
72.375
20
-192.5
40
1.0000000000005
50
-270.00000000
51
-179.99994270
0
ARC
8
BLACK
10
165.2185000000000059
20
-199.8689999999999998
40
0.499999
50
-0.00011460
51
90.00000000
0
LINE
8
BLACK
6
CONTINUOUS
10
-10.3064999999999998
20
-237.1815009999999972
11
3.2934999999999999
21
-237.1815009999999972
0
LINE
8
BLACK
6
CONTINUOUS
10
208.7684999999999889
20
-256.2315009999999802
11
222.3684999999999832
21
-256.2315009999999802
0
ARC
8
BLACK
10
196.7749999999999773
20
-195.25
40
0.250000000002
50
-270.00000000
51
-179.99977082
0
LINE
8
BLACK
6
CONTINUOUS
10
199.0559999999999832
20
-312.8815009999999575
11
199.0559999999999832
21
-299.8815010000000143
0
ARC
8
BLACK
10
61.1310000000000002
20
-261.7814999999999941
40
0.500000000001
50
-270.00000000
51
-179.99988541
0
LINE
8
BLACK
6
CONTINUOUS
10
89.5184999999999889
20
-255.7315009999999802
11
89.5184999999999889
21
-242.7315009999999802
0
ARC
8
BLACK
10
286.125
20
-317.75
40
0.250001
50
-179.99977082
51
-90.00000000
0
CIRCLE
8
BLACK
10
277.4810099999999693
20
-230.1815009999999972
40
1.
0
ARC
8
BLACK
10
231.8934999999999889
20
-199.8689999999999998
40
0.499999
50
-0.00011460
51
90.00000000
0
ARC
8
BLACK
10
261.1560999999999808
20
-255.7314999999999827
40
0.5000010099999799
50
-179.99988542
51
-90.01145913
0
ARC
8
BLACK
10
41.3933999999999997
20
-236.6814999999999998
40
0.5001000000009997
50
-89.98854247
51
-0.00011457
0
LINE
8
BLACK
6
CONTINUOUS
10
300.875
20
-320.5000009999999975
11
300.875
21
-319.0000009999999975
0
LINE
8
BLACK
6
CONTINUOUS
10
313.3559999999999945
20
-312.8815009999999575
11
313.3559999999999945
21
-299.8815010000000143
0
LINE
8
BLACK
6
CONTINUOUS
10
274.7559999999999718
20
-223.1815009999999972
11
261.1560000000000059
21
-223.1815009999999972
0
ARC
8
BLACK
10
27.1059999999999981
20
-280.8315000000000055
40
0.499999
50
-0.00011460
51
90.00000000
0
ARC
8
BLACK
10
203.3183999999999969
20
-255.7314999999999827
40
0.5001000000009997
50
-89.98854247
51
-0.00011457
0
LINE
8
BLACK
6
CONTINUOUS
10
285.875
20
-316.7500009999999975
11
285.875
21
-317.7500009999999975
0
ARC
8
BLACK
10
131.8810000000000002
20
-261.7814999999999941
40
0.499999
50
-0.00011460
51
90.00000000
0
LINE
8
BLACK
6
CONTINUOUS
10
213.3434999999999775
20
-236.6815009999999972
11
213.3434999999999775
21
-223.6815009999999972
0
LINE
8
BLACK
6
CONTINUOUS
10
122.3559999999999945
20
-280.3315010000000029
11
108.7560000000000002
21
-280.3315010000000029
0
LINE
8
BLACK
6
CONTINUOUS
10
-22.625
20
-318.0000009999999975
11
-22.625
21
-320.5000009999999975
0
ARC
8
BLACK
10
184.9560999999999922
20
-312.88149999999996
40
0.5000010099999799
50
-179.99988542
51
-90.01145913
0
ARC
8
BLACK
10
170.6685999999999979
20
-255.7314999999999827
40
0.5000010099999799
50
-179.99988542
51
-90.01145913
0
ARC
8
BLACK
10
79.4933999999999941
20
-212.8689999999999998
40
0.5001000000009997
50
-89.98854247
51
-0.00011457
0
LINE
8
BLACK
6
CONTINUOUS
10
298.7559999999999718
20
-199.8690009999999972
11
298.7559999999999718
21
-212.8690009999999972
0
LINE
8
BLACK
6
CONTINUOUS
10
294.3059999999999832
20
-236.6815009999999972
11
294.3059999999999832
21
-223.6815009999999972
0
ARC
8
BLACK
10
-21.124998999999999
20
-195.
40
1.5000010000003334
50
-179.99996180
51
-90.00003820
0
LINE
8
BLACK
6
CONTINUOUS
10
75.2309999999999945
20
-274.7815009999999916
11
75.2309999999999945
21
-261.7815009999999916
0
LINE
8
BLACK
6
CONTINUOUS
10
65.8935000000000031
20
-213.3690009999999972
11
79.4934999999999974
21
-213.3690009999999972
0
LINE
8
BLACK
6
CONTINUOUS
10
56.1809999999999974
20
-274.7815009999999916
11
56.1809999999999974
21
-261.7815009999999916
0
ARC
8
BLACK
10
3.2934999999999999
20
-223.6814999999999998
40
0.499999
50
-0.00011459
51
90.00000000
0
LINE
8
BLACK
6
CONTINUOUS
10
-29.3564989999999995
20
-213.3690009999999972
11
-15.7564999999999991
21
-213.3690009999999972
0
LINE
8
BLACK
6
CONTINUOUS
10
37.3185000000000002
20
-256.2315009999999802
11
50.9184999999999945
21
-256.2315009999999802
0
ARC
8
BLACK
10
299.875
20
-192.5
40
0.999999
50
-0.00005730
51
90.00000000
0
ARC
8
BLACK
10
161.6434999999999889
20
-299.9314999999999714
40
0.500000000001
50
-270.00000000
51
-179.99988541
0
ARC
8
BLACK
10
123.0434999999999945
20
-223.6814999999999998
40
0.500000000001
50
-270.00000000
51
-179.99988541
0
ARC
8
BLACK
10
59.9367999999999981
20
-312.8315000000000055
40
0.5001000000009997
50
-89.98854247
51
-0.00011457
0
LINE
8
BLACK
6
CONTINUOUS
10
-25.0939999999999976
20
-242.7315009999999802
11
-25.0939999999999976
21
-255.7315009999999802
0
ARC
8
BLACK
10
-0.781516
20
-255.7315169999999966
40
0.4999840002560081
50
-180.00183352
51
-89.99816648
0
LINE
8
BLACK
6
CONTINUOUS
10
2.3497499999999998
20
-294.3065009999999688
11
5.3497499999999993
21
-292.5745009999999979
0
ARC
8
BLACK
10
150.9309999999999832
20
-261.7814999999999941
40
0.499999
50
-0.00011460
51
90.00000000
0
ARC
8
BLACK
10
65.2060000000000031
20
-280.8315000000000055
40
0.499999
50
-0.00011460
51
90.00000000
0
ARC
8
BLACK
10
-16.125001000000001
20
-320.500001999999995
40
0.9999990000004999
50
-180.00005730
51
-89.99994270
0
LINE
8
BLACK
6
CONTINUOUS
10
27.7934999999999981
20
-237.1815009999999972
11
41.393499999999996
21
-237.1815009999999972
0
ARC
8
BLACK
10
117.5934999999999917
20
-299.88149999999996
40
0.499999
50
-0.00011460
51
90.00000000
0
ARC
8
BLACK
10
247.7372000000000014
20
-261.8066000000000031
40
0.5000990024995051
50
0.01134298
51
89.99427156
0
LINE
8
BLACK
6
CONTINUOUS
10
123.0434999999999945
20
-237.1815009999999972
11
136.6434999999999889
21
-237.1815009999999972
0
LINE
8
BLACK
6
CONTINUOUS
10
208.5809999999999889
20
-274.7815009999999916
11
208.5809999999999889
21
-261.7815009999999916
0
LINE
8
BLACK
6
CONTINUOUS
10
293.8059999999999832
20
-223.1815009999999972
11
280.2059999999999604
21
-223.1815009999999972
0
LINE
8
BLACK
6
CONTINUOUS
10
113.0184999999999889
20
-242.7315009999999802
11
113.0184999999999889
21
-255.7315009999999802
0
LINE
8
BLACK
6
CONTINUOUS
10
313.3559999999999945
20
-255.7315009999999802
11
313.3559999999999945
21
-242.7315009999999802
0
ARC
8
BLACK
10
-2.6249989999999999
20
-317.750001999999995
40
0.249999000002
50
-90.00022918
51
0.00022918
0
LINE
8
BLACK
6
CONTINUOUS
10
36.6310000000000002
20
-299.3815010000000143
11
23.0309999999999988
21
-299.3815010000000143
0
LINE
8
BLACK
6
CONTINUOUS
10
108.0685000000000002
20
-199.3690009999999972
11
94.4684999999999917
21
-199.3690009999999972
0
ARC
8
BLACK
10
275.625
20
-316.75
40
0.249999
50
-0.00022918
51
90.00000000
0
ARC
8
BLACK
10
156.3810000000000002
20
-261.7814999999999941
40
0.500000000001
50
-270.00000000
51
-179.99988541
0
ARC
8
BLACK
10
274.7559999999999718
20
-223.6814999999999998
40
0.499999
50
-0.00011460
51
90.00000000
0
ARC
8
BLACK
10
21.875
20
-194.
40
1.0000000000005
50
-90.00000000
51
-0.00005730
0
ARC
8
BLACK
10
169.9808999999999912
20
-274.7814999999999941
40
0.5001000000009997
50
-89.98854247
51
-0.00011457
0
ARC
8
BLACK
10
55.6808999999999941
20
-274.7814999999999941
40
0.5001000000009997
50
-89.98854247
51
-0.00011457
0
ARC
8
BLACK
10
65.8935999999999922
20
-212.8689999999999998
40
0.5000010099999799
50
-179.99988542
51
-90.01145913
0
LINE
8
BLACK
6
CONTINUOUS
10
39.125
20
-195.0000009999999975
11
39.125
21
-192.5000009999999975
0
ARC
8
BLACK
10
60.4435000000000002
20
-223.6814999999999998
40
0.499999
50
-0.00011460
51
90.00000000
0
LINE
8
BLACK
6
CONTINUOUS
10
17.5809999999999995
20
-261.2815009999999916
11
3.9809999999999999
21
-261.2815009999999916
0
LINE
8
BLACK
6
CONTINUOUS
10
186.5250000000000057
20
-316.7500009999999975
11
186.5250000000000057
21
-317.7500009999999975
0
LINE
8
BLACK
6
CONTINUOUS
10
118.0934999999999917
20
-236.6815009999999972
11
118.0934999999999917
21
-223.6815009999999972
0
ARC
8
BLACK
10
313.125
20
-195.
40
1.5000009999999999
50
-179.99996180
51
-90.00000000
0
LINE
8
BLACK
6
CONTINUOUS
10
293.8059999999999832
20
-242.2315009999999802
11
280.2059999999999604
21
-242.2315009999999802
0
LINE
8
BLACK
6
CONTINUOUS
10
245.2372499999999889
20
-275.2565010000000143
11
248.2372499999999889
21
-273.5245009999999866
0
LINE
8
BLACK
6
CONTINUOUS
10
180.1935000000000002
20
-237.1815009999999972
11
193.7934999999999945
21
-237.1815009999999972
0
LINE
8
BLACK
6
CONTINUOUS
10
279.7059999999999604
20
-280.8315010000000029
11
279.7059999999999604
21
-293.8315010000000029
0
ARC
8
BLACK
10
84.9435999999999893
20
-236.6814999999999998
40
0.5000010099999799
50
-179.99988542
51
-90.01145913
0
CIRCLE
8
BLACK
10
308.875
20
-192.5000009999999975
40
1.25
0
LINE
8
BLACK
6
CONTINUOUS
10
216.2372499999999889
20
-261.8065009999999688
11
216.2372499999999889
21
-273.5245009999999866
0
ARC
8
BLACK
10
22.343399999999999
20
-236.6814999999999998
40
0.5001000000009997
50
-89.98854247
51
-0.00011457
0
LINE
8
BLACK
6
CONTINUOUS
10
251.4435000000000002
20
-212.8690009999999972
11
251.4435000000000002
21
-199.8690009999999972
0
ARC
8
BLACK
10
65.8935999999999922
20
-236.6814999999999998
40
0.5000010099999799
50
-179.99988542
51
-90.01145913
0
ARC
8
BLACK
10
189.7185999999999808
20
-255.7314999999999827
40
0.5000010099999799
50
-179.99988542
51
-90.01145913
0
ARC
8
BLACK
10
286.125
20
-196.25
40
0.250001
50
-179.99977082
51
-90.00000000
0
LINE
8
BLACK
6
CONTINUOUS
10
217.7934999999999945
20
-199.8690009999999972
11
217.7934999999999945
21
-212.8690009999999972
0
LINE
8
BLACK
6
CONTINUOUS
10
218.2934999999999945
20
-213.3690009999999972
11
231.8934999999999889
21
-213.3690009999999972
0
ARC
8
BLACK
10
108.0683999999999969
20
-212.8689999999999998
40
0.5001000000009997
50
-89.98854247
51
-0.00011457
0
ARC
8
BLACK
10
46.125
20
-195.
40
1.5000009999999999
50
-179.99996180
51
-90.00000000
0
CIRCLE
8
BLACK
10
120.3184909999999945
20
-230.1815009999999972
40
1.
0
LINE
8
BLACK
6
CONTINUOUS
10
75.4184999999999945
20
-256.2315009999999802
11
89.0185000000000031
21
-256.2315009999999802
0
LINE
8
BLACK
6
CONTINUOUS
10
12.8185000000000002
20
-299.3815010000000143
11
-0.7815
21
-299.3815010000000143
0
LINE
8
BLACK
6
CONTINUOUS
10
41.393499999999996
20
-199.3690009999999972
11
27.7934999999999981
21
-199.3690009999999972
0
LINE
8
BLACK
6
CONTINUOUS
10
113.3309999999999889
20
-274.7815009999999916
11
113.3309999999999889
21
-261.7815009999999916
0
LINE
8
BLACK
6
CONTINUOUS
10
196.7749999999999773
20
-196.5000009999999975
11
275.625
21
-196.5000009999999975
0
CIRCLE
8
BLACK
10
227.4747500000000002
20
-249.2315009999999802
40
1.
0
CIRCLE
8
BLACK
10
296.5310099999999807
20
-249.2315009999999802
40
1.
0
LINE
8
BLACK
6
CONTINUOUS
10
194.4809999999999945
20
-275.2815009999999916
11
208.0809999999999889
21
-275.2815009999999916
0
LINE
8
BLACK
6
CONTINUOUS
10
175.2434999999999832
20
-236.6815009999999972
11
175.2434999999999832
21
-223.6815009999999972
0
LINE
8
BLACK
6
CONTINUOUS
10
193.7934999999999945
20
-199.3690009999999972
11
180.1935000000000002
21
-199.3690009999999972
0
LINE
8
BLACK
6
CONTINUOUS
10
165.2185000000000059
20
-242.2315009999999802
11
151.6184999999999832
21
-242.2315009999999802
0
LINE
8
BLACK
6
CONTINUOUS
10
-10.9939999999999998
20
-299.3815010000000143
11
-24.5939999999999976
21
-299.3815010000000143
0
ARC
8
BLACK
10
97.4749999999999943
20
-317.75
40
0.250001
50
-179.99977082
51
-90.00000000
0
LINE
8
BLACK
6
CONTINUOUS
10
61.1310000000000002
20
-275.2815009999999916
11
74.7309999999999945
21
-275.2815009999999916
0
LINE
8
BLACK
6
CONTINUOUS
10
294.3059999999999832
20
-212.8690009999999972
11
294.3059999999999832
21
-199.8690009999999972
0
LINE
8
BLACK
6
CONTINUOUS
10
32.5559999999999974
20
-294.3315010000000029
11
46.1559999999999988
21
-294.3315010000000029
0
CIRCLE
8
BLACK
10
39.3560099999999977
20
-306.3815010000000143
40
1.
0
ARC
8
BLACK
10
41.393499999999996
20
-199.8689999999999998
40
0.499999
50
-0.00011460
51
90.00000000
0
ARC
8
BLACK
10
-21.124998999999999
20
-318.000001999999995
40
1.5000010000003334
50
90.00003820
51
179.99996180
0
ARC
8
BLACK
10
280.2060999999999922
20
-212.8689999999999998
40
0.5000010099999799
50
-179.99988542
51
-90.01145913
0
ARC
8
BLACK
10
127.1184999999999974
20
-199.8689999999999998
40
0.499999
50
-0.00011460
51
90.00000000
0
ARC
8
BLACK
10
299.2559999999999718
20
-242.7314999999999827
40
0.500000000001
50
-270.00000000
51
-179.99988541
0
ARC
8
BLACK
10
-10.3065160000000002
20
-236.6815169999999853
40
0.4999840002560081
50
-180.00183352
51
-89.99816648
0
LINE
8
BLACK
6
CONTINUOUS
10
-2.625
20
-318.0000009999999975
11
-16.125
21
-318.0000009999999975
0
ARC
8
BLACK
10
113.5185999999999922
20
-255.7314999999999827
40
0.5000010099999799
50
-179.99988542
51
-90.01145913
0
ARC
8
BLACK
10
280.2059999999999604
20
-242.7314999999999827
40
0.500000000001
50
-270.00000000
51
-179.99988541
0
LINE
8
BLACK
6
CONTINUOUS
10
22.8434999999999988
20
-212.8690009999999972
11
22.8434999999999988
21
-199.8690009999999972
0
ARC
8
BLACK
10
299.2559999999999718
20
-223.6814999999999998
40
0.500000000001
50
-270.00000000
51
-179.99988541
0
ARC
8
BLACK
10
261.1560000000000059
20
-299.88149999999996
40
0.500000000001
50
-270.00000000
51
-179.99988541
0
ARC
8
BLACK
10
171.6749999999999829
20
-192.5
40
1.0000000000005
50
-270.00000000
51
-179.99994270
0
CIRCLE
8
BLACK
10
196.5184909999999832
20
-230.1815009999999972
40
1.
0
LINE
8
BLACK
6
CONTINUOUS
10
250.9435000000000002
20
-199.3690009999999972
11
237.3434999999999775
21
-199.3690009999999972
0
CIRCLE
8
BLACK
10
-3.5065089999999999
20
-206.3690210000000036
40
1.
0
LINE
8
BLACK
6
CONTINUOUS
10
27.7934999999999981
20
-213.3690009999999972
11
41.393499999999996
21
-213.3690009999999972
0
LINE
8
BLACK
6
CONTINUOUS
10
279.7059999999999604
20
-242.7315009999999802
11
279.7059999999999604
21
-255.7315009999999802
0
LINE
8
BLACK
6
CONTINUOUS
10
13.5060000000000002
20
-294.3315010000000029
11
27.1059999999999981
21
-294.3315010000000029
0
ARC
8
BLACK
10
261.1560000000000059
20
-242.7314999999999827
40
0.500000000001
50
-270.00000000
51
-179.99988541
0
LINE
8
BLACK
6
CONTINUOUS
10
261.1560000000000059
20
-213.3690009999999972
11
274.7559999999999718
21
-213.3690009999999972
0
LINE
8
BLACK
6
CONTINUOUS
10
46.125
20
-196.5000009999999975
11
86.9749999999999943
21
-196.5000009999999975
0
ARC
8
BLACK
10
41.875
20
-320.5000009999999975
40
2.5
50
-180.00000000
51
-0.00000000
0
LINE
8
BLACK
6
CONTINUOUS
10
299.2559999999999718
20
-213.3690009999999972
11
312.8559999999999945
21
-213.3690009999999972
0
LINE
8
BLACK
6
CONTINUOUS
10
99.2309999999999945
20
-275.2815009999999916
11
112.8309999999999889
21
-275.2815009999999916
0
LINE
8
BLACK
6
CONTINUOUS
10
137.1434999999999889
20
-236.6815009999999972
11
137.1434999999999889
21
-223.6815009999999972
0
LINE
8
BLACK
6
CONTINUOUS
10
23.0309999999999988
20
-313.3815009999999575
11
36.6310000000000002
21
-313.3815009999999575
0
CIRCLE
8
BLACK
10
89.3622309999999942
20
-306.3815010000000143
40
1.
0
ARC
8
BLACK
10
13.5059899999999988
20
-280.8314599999999928
40
0.4999900016810336
50
-270.00114594
51
-179.99530165
0
ARC
8
BLACK
10
127.1183999999999941
20
-212.8689999999999998
40
0.5001000000009997
50
-89.98854247
51
-0.00011457
0
ARC
8
BLACK
10
60.4435000000000002
20
-199.8689999999999998
40
0.499999
50
-0.00011460
51
90.00000000
0
LINE
8
BLACK
6
CONTINUOUS
10
12.8185000000000002
20
-242.2315009999999802
11
-0.7815
21
-242.2315009999999802
0
ARC
8
BLACK
10
231.8933999999999855
20
-212.8689999999999998
40
0.5001000000009997
50
-89.98854247
51
-0.00011457
0
LINE
8
BLACK
6
CONTINUOUS
10
151.4309999999999832
20
-274.7815009999999916
11
151.4309999999999832
21
-261.7815009999999916
0
LINE
8
BLACK
6
CONTINUOUS
10
313.375
20
-316.5000009999999975
11
313.875
21
-316.5000009999999975
0
LINE
8
BLACK
6
CONTINUOUS
10
108.0685000000000002
20
-242.2315009999999802
11
94.4684999999999917
21
-242.2315009999999802
0
LINE
8
BLACK
6
CONTINUOUS
10
51.4184999999999945
20
-255.7315009999999802
11
51.4184999999999945
21
-242.7315009999999802
0
LINE
8
BLACK
6
CONTINUOUS
10
166.375
20
-192.5000009999999975
11
166.375
21
-195.0000009999999975
0
LINE
8
BLACK
6
CONTINUOUS
10
167.875
20
-316.5000009999999975
11
186.2750000000000057
21
-316.5000009999999975
0
ARC
8
BLACK
10
169.9809999999999945
20
-261.7814999999999941
40
0.499999
50
-0.00011460
51
90.00000000
0
LINE
8
BLACK
6
CONTINUOUS
10
21.875
20
-318.0000009999999975
11
8.125
21
-318.0000009999999975
0
LINE
8
BLACK
6
CONTINUOUS
10
294.3059999999999832
20
-293.8315010000000029
11
294.3059999999999832
21
-280.8315010000000029
0
LINE
8
BLACK
6
CONTINUOUS
10
70.6559999999999917
20
-294.3315010000000029
11
84.2560000000000002
21
-294.3315010000000029
0
LINE
8
BLACK
6
CONTINUOUS
10
118.0934999999999917
20
-312.8815009999999575
11
118.0934999999999917
21
-299.8815010000000143
0
LINE
8
BLACK
6
CONTINUOUS
10
41.580999999999996
20
-261.7815009999999916
11
41.580999999999996
21
-274.7815009999999916
0
ARC
8
BLACK
10
184.2683999999999855
20
-255.7314999999999827
40
0.5001000000009997
50
-89.98854247
51
-0.00011457
0
ARC
8
BLACK
10
211.375
20
-319.
40
0.999999
50
-0.00005730
51
90.00000000
0
ARC
8
BLACK
10
17.5809999999999995
20
-261.7814999999999941
40
0.499999
50
-0.00011460
51
90.00000000
0
ARC
8
BLACK
10
80.1809999999999974
20
-261.7814999999999941
40
0.500000000001
50
-270.00000000
51
-179.99988541
0
CIRCLE
8
BLACK
10
296.5310099999999807
20
-206.3690210000000036
40
1.
0
ARC
8
BLACK
10
180.1935000000000002
20
-199.8689999999999998
40
0.500000000001
50
-270.00000000
51
-179.99988541
0
LINE
8
BLACK
6
CONTINUOUS
10
151.6184999999999832
20
-213.3690009999999972
11
165.2185000000000059
21
-213.3690009999999972
0
ARC
8
BLACK
10
41.393499999999996
20
-223.6814999999999998
40
0.499999
50
-0.00011460
51
90.00000000
0
ARC
8
BLACK
10
13.5061
20
-293.8315000000000055
40
0.5000010099999799
50
-179.99988542
51
-90.01145913
0
ARC
8
BLACK
10
198.5558999999999799
20
-312.88149999999996
40
0.5001000000009997
50
-89.98854247
51
-0.00011457
0
ARC
8
BLACK
10
8.125
20
-196.25
40
0.250001
50
-179.99977082
51
-90.00000000
0
LINE
8
BLACK
6
CONTINUOUS
10
65.3935000000000031
20
-199.8690009999999972
11
65.3935000000000031
21
-212.8690009999999972
0
CIRCLE
8
BLACK
10
129.8434910000000002
20
-206.3690210000000036
40
1.
0
LINE
8
BLACK
6
CONTINUOUS
10
194.2934999999999945
20
-212.8690009999999972
11
194.2934999999999945
21
-199.8690009999999972
0
ARC
8
BLACK
10
163.875
20
-192.5000009999999975
40
2.5
50
0.00000000
51
180.00000000
0
ARC
8
BLACK
10
42.0810999999999993
20
-274.7814999999999941
40
0.5000010099999799
50
-179.99988542
51
-90.01145913
0
LINE
8
BLACK
6
CONTINUOUS
10
199.2434999999999832
20
-213.3690009999999972
11
212.8434999999999775
21
-213.3690009999999972
0
ARC
8
BLACK
10
222.3683999999999799
20
-255.7314999999999827
40
0.5001000000009997
50
-89.98854247
51
-0.00011457
0
LINE
8
BLACK
6
CONTINUOUS
10
274.7559999999999718
20
-199.3690009999999972
11
261.1560000000000059
21
-199.3690009999999972
0
LINE
8
BLACK
6
CONTINUOUS
10
8.125
20
-316.5000009999999975
11
37.875
21
-316.5000009999999975
0
LINE
8
BLACK
6
CONTINUOUS
10
103.3059999999999974
20
-280.3315010000000029
11
89.7059999999999889
21
-280.3315010000000029
0
ARC
8
BLACK
10
222.3684999999999832
20
-299.88149999999996
40
0.499999
50
-0.00011460
51
90.00000000
0
ARC
8
BLACK
10
93.7809999999999917
20
-261.7814999999999941
40
0.499999
50
-0.00011460
51
90.00000000
0
ARC
8
BLACK
10
60.4433999999999969
20
-236.6814999999999998
40
0.5001000000009997
50
-89.98854247
51
-0.00011457
0
ARC
8
BLACK
10
261.875
20
-192.5
40
1.0000000000005
50
-270.00000000
51
-179.99994270
0
CIRCLE
8
BLACK
10
20.3060100000000006
20
-268.2815009999999916
40
1.
0
ARC
8
BLACK
10
12.8183899999999991
20
-312.8814600000000041
40
0.5001100016806302
50
-89.98739773
51
-0.00469722
0
LINE
8
BLACK
6
CONTINUOUS
10
184.2684999999999889
20
-242.2315009999999802
11
170.6684999999999945
21
-242.2315009999999802
0
LINE
8
BLACK
6
CONTINUOUS
10
-16.125
20
-321.5000009999999975
11
21.875
21
-321.5000009999999975
0
LINE
8
BLACK
6
CONTINUOUS
10
306.375
20
-320.5000009999999975
11
306.375
21
-318.0000009999999975
0
LINE
8
BLACK
6
CONTINUOUS
10
146.6684999999999945
20
-212.8690009999999972
11
146.6684999999999945
21
-199.8690009999999972
0
LINE
8
BLACK
6
CONTINUOUS
10
196.5249999999999773
20
-317.7500009999999975
11
196.5249999999999773
21
-316.7500009999999975
0
ARC
8
BLACK
10
122.3558999999999912
20
-293.8315000000000055
40
0.5001000000009997
50
-89.98854247
51
-0.00011457
0
LINE
8
BLACK
6
CONTINUOUS
10
189.0309999999999775
20
-261.2815009999999916
11
175.4309999999999832
21
-261.2815009999999916
0
CIRCLE
8
BLACK
10
41.875
20
-320.5000009999999975
40
1.25
0
ARC
8
BLACK
10
112.0749999999999886
20
-194.
40
1.0000000000005
50
-90.00000000
51
-0.00005730
0
LINE
8
BLACK
6
CONTINUOUS
10
108.7560000000000002
20
-294.3315010000000029
11
122.3559999999999945
21
-294.3315010000000029
0
LINE
8
BLACK
6
CONTINUOUS
10
299.2559999999999718
20
-237.1815009999999972
11
312.8559999999999945
21
-237.1815009999999972
0
ARC
8
BLACK
10
261.875
20
-320.5
40
1.0000009999999999
50
-179.99994270
51
-90.00000000
0
LINE
8
BLACK
6
CONTINUOUS
10
93.9684999999999917
20
-242.7315009999999802
11
93.9684999999999917
21
-255.7315009999999802
0
ARC
8
BLACK
10
118.281099999999995
20
-274.7814999999999941
40
0.5000010099999799
50
-179.99988542
51
-90.01145913
0
ARC
8
BLACK
10
117.5934999999999917
20
-223.6814999999999998
40
0.499999
50
-0.00011460
51
90.00000000
0
LINE
8
BLACK
6
CONTINUOUS
10
-2.625
20
-316.5000009999999975
11
-21.125
21
-316.5000009999999975
0
LINE
8
BLACK
6
CONTINUOUS
10
286.125
20
-195.0000009999999975
11
299.875
21
-195.0000009999999975
0
ARC
8
BLACK
10
261.1560999999999808
20
-312.88149999999996
40
0.5000010099999799
50
-179.99988542
51
-90.01145913
0
ARC
8
BLACK
10
-16.125001000000001
20
-194.000001999999995
40
0.9999990000004999
50
-180.00005730
51
-89.99994270
0
LINE
8
BLACK
6
CONTINUOUS
10
184.4559999999999889
20
-280.8315010000000029
11
184.4559999999999889
21
-293.8315010000000029
0
ARC
8
BLACK
10
142.0935999999999808
20
-236.6814999999999998
40
0.5000010099999799
50
-179.99988542
51
-90.01145913
0
ARC
8
BLACK
10
36.6308999999999969
20
-274.7814999999999941
40
0.5001000000009997
50
-89.98854247
51
-0.00011457
0
LINE
8
BLACK
6
CONTINUOUS
10
103.8059999999999974
20
-293.8315010000000029
11
103.8059999999999974
21
-280.8315010000000029
0
ARC
8
BLACK
10
261.1560999999999808
20
-212.8689999999999998
40
0.5000010099999799
50
-179.99988542
51
-90.01145913
0
LINE
8
BLACK
6
CONTINUOUS
10
98.7309999999999945
20
-261.7815009999999916
11
98.7309999999999945
21
-274.7815009999999916
0
ARC
8
BLACK
10
17.5808999999999997
20
-274.7814999999999941
40
0.5001000000009997
50
-89.98854247
51
-0.00011457
0
LINE
8
BLACK
6
CONTINUOUS
10
222.8684999999999832
20
-255.7315009999999802
11
222.8684999999999832
21
-242.7315009999999802
0
ARC
8
BLACK
10
280.2059999999999604
20
-223.6814999999999998
40
0.500000000001
50
-270.00000000
51
-179.99988541
0
LINE
8
BLACK
6
CONTINUOUS
10
44.625
20
-192.5000009999999975
11
44.625
21
-195.0000009999999975
0
ARC
8
BLACK
10
189.0309000000000026
20
-274.7814999999999941
40
0.5001000000009997
50
-89.98854247
51
-0.00011457
0
ARC
8
BLACK
10
189.0309999999999775
20
-261.7814999999999941
40
0.499999
50
-0.00011460
51
90.00000000
0
ARC
8
BLACK
10
171.6749999999999829
20
-320.5
40
1.0000009999999999
50
-179.99994270
51
-90.00000000
0
ARC
8
BLACK
10
8.7434899999999995
20
-199.8689599999999871
40
0.4999900016810336
50
-270.00114594
51
-179.99530165
0
LINE
8
BLACK
6
CONTINUOUS
10
22.875
20
-194.0000009999999975
11
22.875
21
-192.5000009999999975
0
LINE
8
BLACK
6
CONTINUOUS
10
208.2684999999999889
20
-299.8815010000000143
11
208.2684999999999889
21
-312.8815009999999575
0
LINE
8
BLACK
6
CONTINUOUS
10
70.1559999999999917
20
-280.8315010000000029
11
70.1559999999999917
21
-293.8315010000000029
0
LINE
8
BLACK
6
CONTINUOUS
10
84.7560000000000002
20
-293.8315010000000029
11
84.7560000000000002
21
-280.8315010000000029
0
LINE
8
BLACK
6
CONTINUOUS
10
170.1684999999999945
20
-242.7315009999999802
11
170.1684999999999945
21
-255.7315009999999802
0
LINE
8
BLACK
6
CONTINUOUS
10
260.6560000000000059
20
-242.7315009999999802
11
260.6560000000000059
21
-255.7315009999999802
0
LINE
8
BLACK
6
CONTINUOUS
10
18.0809999999999995
20
-274.7815009999999916
11
18.0809999999999995
21
-261.7815009999999916
0
LINE
8
BLACK
6
CONTINUOUS
10
3.4809999999999999
20
-261.7815009999999916
11
3.4809999999999999
21
-274.7815009999999916
0
ARC
8
BLACK
10
293.8059999999999832
20
-299.88149999999996
40
0.499999
50
-0.00011460
51
90.00000000
0
LINE
8
BLACK
6
CONTINUOUS
10
219.2372499999999889
20
-275.2565010000000143
11
245.2372499999999889
21
-275.2565010000000143
0
LINE
8
BLACK
6
CONTINUOUS
10
113.0749999999999886
20
-194.0000009999999975
11
113.0749999999999886
21
-192.5000009999999975
0
LINE
8
BLACK
6
CONTINUOUS
10
199.0559999999999832
20
-293.8315010000000029
11
199.0559999999999832
21
-280.8315010000000029
0
LINE
8
BLACK
6
CONTINUOUS
10
127.8059999999999974
20
-294.3315010000000029
11
141.4060000000000059
21
-294.3315010000000029
0
ARC
8
BLACK
10
-29.1250009999999975
20
-195.
40
1.5000009999999999
50
-90.00000000
51
-0.00000000
0
LINE
8
BLACK
6
CONTINUOUS
10
165.2185000000000059
20
-199.3690009999999972
11
151.6184999999999832
21
-199.3690009999999972
0
LINE
8
BLACK
6
CONTINUOUS
10
167.875
20
-196.5000009999999975
11
186.2750000000000057
21
-196.5000009999999975
0
ARC
8
BLACK
10
174.7433999999999799
20
-236.6814999999999998
40
0.5001000000009997
50
-89.98854247
51
-0.00011457
0
ARC
8
BLACK
10
8.7435999999999989
20
-236.6814999999999998
40
0.5000010099999799
50
-179.99988542
51
-90.01145913
0
LINE
8
BLACK
6
CONTINUOUS
10
113.0184999999999889
20
-199.8690009999999972
11
113.0184999999999889
21
-212.8690009999999972
0
ARC
8
BLACK
10
175.4309999999999832
20
-261.7814999999999941
40
0.500000000001
50
-270.00000000
51
-179.99988541
0
LINE
8
BLACK
6
CONTINUOUS
10
299.875
20
-191.5000009999999975
11
261.875
21
-191.5000009999999975
0
CIRCLE
8
BLACK
10
-22.5565089999999984
20
-218.2752799999999809
40
1.
0
LINE
8
BLACK
6
CONTINUOUS
10
274.7559999999999718
20
-242.2315009999999802
11
261.1560000000000059
21
-242.2315009999999802
0
LINE
8
BLACK
6
CONTINUOUS
10
174.7434999999999832
20
-312.8315010000000029
11
174.7434999999999832
21
-299.9315009999999688
0
LINE
8
BLACK
6
CONTINUOUS
10
156.1935000000000002
20
-236.6815009999999972
11
156.1935000000000002
21
-223.6815009999999972
0
LINE
8
BLACK
6
CONTINUOUS
10
166.375
20
-320.5000009999999975
11
166.375
21
-318.0000009999999975
0
ARC
8
BLACK
10
246.1808999999999799
20
-312.88149999999996
40
0.5001000000009997
50
-89.98854247
51
-0.00011457
0
LINE
8
BLACK
6
CONTINUOUS
10
-29.6250009999999975
20
-316.5000009999999975
11
-29.1250009999999975
21
-316.5000009999999975
0
LINE
8
BLACK
6
CONTINUOUS
10
-22.7127499999999998
20
-261.7815009999999916
11
-22.7127499999999998
21
-274.7814999999999941
0
CIRCLE
8
BLACK
10
163.875
20
-192.5000009999999975
40
1.25
0
LINE
8
BLACK
6
CONTINUOUS
10
46.6559999999999988
20
-293.8315010000000029
11
46.6559999999999988
21
-280.8315010000000029
0
ARC
8
BLACK
10
-2.3749989999999999
20
-196.250001999999995
40
0.249999000002
50
-90.00022918
51
0.00022918
0
ARC
8
BLACK
10
42.080999999999996
20
-261.7814999999999941
40
0.500000000001
50
-270.00000000
51
-179.99988541
0
LINE
8
BLACK
6
CONTINUOUS
10
247.7372499999999889
20
-261.3065009999999688
11
216.7372499999999889
21
-261.3065009999999688
0
LINE
8
BLACK
6
CONTINUOUS
10
237.3434999999999775
20
-213.3690009999999972
11
250.9435000000000002
21
-213.3690009999999972
0
ARC
8
BLACK
10
46.1558999999999955
20
-293.8315000000000055
40
0.5001000000009997
50
-89.98854247
51
-0.00011457
0
ARC
8
BLACK
10
312.8558999999999628
20
-312.88149999999996
40
0.5001000000009997
50
-89.98854247
51
-0.00011457
0
LINE
8
BLACK
6
CONTINUOUS
10
179.5060000000000002
20
-280.3315010000000029
11
165.9060000000000059
21
-280.3315010000000029
0
ARC
8
BLACK
10
117.5933999999999884
20
-312.88149999999996
40
0.5001000000009997
50
-89.98854247
51
-0.00011457
0
ARC
8
BLACK
10
50.9184999999999945
20
-242.7314999999999827
40
0.499999
50
-0.00011460
51
90.00000000
0
LINE
8
BLACK
6
CONTINUOUS
10
65.2060000000000031
20
-280.3315010000000029
11
51.6059999999999945
21
-280.3315010000000029
0
LINE
8
BLACK
6
CONTINUOUS
10
132.0685000000000002
20
-199.8690009999999972
11
132.0685000000000002
21
-212.8690009999999972
0
ARC
8
BLACK
10
222.3683999999999799
20
-312.88149999999996
40
0.5001000000009997
50
-89.98854247
51
-0.00011457
0
ARC
8
BLACK
10
84.2558999999999969
20
-293.8315000000000055
40
0.5001000000009997
50
-89.98854247
51
-0.00011457
0
ARC
8
BLACK
10
3.9809999999999999
20
-274.7814999999999941
40
0.500001
50
-179.99988541
51
-90.00000000
0
LINE
8
BLACK
6
CONTINUOUS
10
246.1809999999999832
20
-299.3815010000000143
11
232.5809999999999889
21
-299.3815010000000143
0
ARC
8
BLACK
10
299.2559999999999718
20
-299.88149999999996
40
0.500000000001
50
-270.00000000
51
-179.99988541
0
LINE
8
BLACK
6
CONTINUOUS
10
51.6059999999999945
20
-294.3315010000000029
11
65.2060000000000031
21
-294.3315010000000029
0
ARC
8
BLACK
10
80.1811000000000007
20
-274.7814999999999941
40
0.5000010099999799
50
-179.99988542
51
-90.01145913
0
LINE
8
BLACK
6
CONTINUOUS
10
298.7559999999999718
20
-242.7315009999999802
11
298.7559999999999718
21
-255.7315009999999802
0
ARC
8
BLACK
10
97.4749999999999943
20
-196.25
40
0.250001
50
-179.99977082
51
-90.00000000
0
LINE
8
BLACK
6
CONTINUOUS
10
8.2434999999999992
20
-199.8690009999999972
11
8.2434999999999992
21
-212.8690009999999972
0
ARC
8
BLACK
10
312.8558999999999628
20
-236.6814999999999998
40
0.5001000000009997
50
-89.98854247
51
-0.00011457
0
ARC
8
BLACK
10
186.2750000000000057
20
-316.75
40
0.249999
50
-0.00022918
51
90.00000000
0
ARC
8
BLACK
10
293.8059000000000083
20
-312.88149999999996
40
0.5001000000009997
50
-89.98854247
51
-0.00011457
0
LINE
8
BLACK
6
CONTINUOUS
10
3.2934999999999999
20
-223.1815009999999972
11
-10.3064999999999998
21
-223.1815009999999972
0
LINE
8
BLACK
6
CONTINUOUS
10
151.6184999999999832
20
-256.2315009999999802
11
165.2185000000000059
21
-256.2315009999999802
0
ARC
8
BLACK
10
237.3435999999999808
20
-212.8689999999999998
40
0.5000010099999799
50
-179.99988542
51
-90.01145913
0
LINE
8
BLACK
6
CONTINUOUS
10
170.6684999999999945
20
-256.2315009999999802
11
184.2684999999999889
21
-256.2315009999999802
0
ARC
8
BLACK
10
260.3075000000000045
20
-265.3922000000000025
40
1.1982556452710749
50
-250.68574755
51
-159.80629300
0
LINE
8
BLACK
6
CONTINUOUS
10
5.3497499999999993
20
-292.5745009999999979
11
5.3497499999999993
21
-280.8565009999999802
0
LINE
8
BLACK
6
CONTINUOUS
10
262.999828999999977
20
-276.1507530000000088
11
259.182899999999961
21
-265.8058320000000094
0
LINE
8
BLACK
6
CONTINUOUS
10
3.7934999999999999
20
-236.6815009999999972
11
3.7934999999999999
21
-223.6815009999999972
0
LINE
8
BLACK
6
CONTINUOUS
10
313.375
20
-196.5000009999999975
11
313.875
21
-196.5000009999999975
0
LINE
8
BLACK
6
CONTINUOUS
10
221.6434999999999889
20
-237.1565009999999916
11
247.6434999999999889
21
-237.1565009999999916
0
LINE
8
BLACK
6
CONTINUOUS
10
275.625
20
-318.0000009999999975
11
261.875
21
-318.0000009999999975
0
ARC
8
BLACK
10
232.5810999999999922
20
-255.7314999999999827
40
0.5000010099999799
50
-179.99988542
51
-90.01145913
0
ARC
8
BLACK
10
69.9684999999999917
20
-242.7314999999999827
40
0.499999
50
-0.00011460
51
90.00000000
0
LINE
8
BLACK
6
CONTINUOUS
10
198.7434999999999832
20
-223.6815009999999972
11
198.7434999999999832
21
-236.6815009999999972
0
LINE
8
BLACK
6
CONTINUOUS
10
260.875
20
-192.5000009999999975
11
260.875
21
-194.0000009999999975
0
LINE
8
BLACK
6
CONTINUOUS
10
231.8934999999999889
20
-199.3690009999999972
11
218.2934999999999945
21
-199.3690009999999972
0
ARC
8
BLACK
10
193.7933999999999912
20
-212.8689999999999998
40
0.5001000000009997
50
-89.98854247
51
-0.00011457
0
CIRCLE
8
BLACK
10
44.1184909999999988
20
-230.1815009999999972
40
1.
0
ARC
8
BLACK
10
232.5810999999999922
20
-312.88149999999996
40
0.5000010099999799
50
-179.99988542
51
-90.01145913
0
ARC
8
BLACK
10
-30.1250009999999975
20
-314.500001999999995
40
1.9999989999999999
50
-180.00002865
51
-90.00000000
0
LINE
8
BLACK
6
CONTINUOUS
10
240.4747500000000002
20
-294.3065009999999688
11
243.4747500000000002
21
-292.5745009999999979
0
LINE
8
BLACK
6
CONTINUOUS
10
-32.125
20
-314.5000009999999975
11
-32.125
21
-198.5
0
ARC
8
BLACK
10
22.3434999999999988
20
-223.6814999999999998
40
0.499999
50
-0.00011460
51
90.00000000
0
LINE
8
BLACK
6
CONTINUOUS
10
41.393499999999996
20
-223.1815009999999972
11
27.7934999999999981
21
-223.1815009999999972
0
LINE
8
BLACK
6
CONTINUOUS
10
155.6935000000000002
20
-223.1815009999999972
11
142.0935000000000059
21
-223.1815009999999972
0
LINE
8
BLACK
6
CONTINUOUS
10
13.0060000000000002
20
-280.8315010000000029
11
13.0060000000000002
21
-293.8315010000000029
0
CIRCLE
8
BLACK
10
163.875
20
-320.5000009999999975
40
1.25
0
ARC
8
BLACK
10
274.7559999999999718
20
-299.88149999999996
40
0.499999
50
-0.00011460
51
90.00000000
0
LINE
8
BLACK
6
CONTINUOUS
10
250.6434999999999889
20
-235.4245009999999922
11
250.6434999999999889
21
-223.7065010000000029
0
LINE
8
BLACK
6
CONTINUOUS
10
298.7559999999999718
20
-223.6815009999999972
11
298.7559999999999718
21
-236.6815009999999972
0
ARC
8
BLACK
10
280.2060999999999922
20
-293.8315000000000055
40
0.5000010099999799
50
-179.99988542
51
-90.01145913
0
LINE
8
BLACK
6
CONTINUOUS
10
113.0749999999999886
20
-320.5000009999999975
11
113.0749999999999886
21
-319.0000009999999975
0
ARC
8
BLACK
10
208.7684999999999889
20
-299.88149999999996
40
0.500000000001
50
-270.00000000
51
-179.99988541
0
LINE
8
BLACK
6
CONTINUOUS
10
60.4435000000000002
20
-199.3690009999999972
11
46.8434999999999988
21
-199.3690009999999972
0
LINE
8
BLACK
6
CONTINUOUS
10
122.8559999999999945
20
-293.8315010000000029
11
122.8559999999999945
21
-280.8315010000000029
0
ARC
8
BLACK
10
312.8559999999999945
20
-199.8689999999999998
40
0.499999
50
-0.00011460
51
90.00000000
0
LINE
8
BLACK
6
CONTINUOUS
10
156.3810000000000002
20
-275.2815009999999916
11
169.9809999999999945
21
-275.2815009999999916
0
LINE
8
BLACK
6
CONTINUOUS
10
41.893499999999996
20
-236.6815009999999972
11
41.893499999999996
21
-223.6815009999999972
0
LINE
8
BLACK
6
CONTINUOUS
10
72.375
20
-195.0000009999999975
11
86.9749999999999943
21
-195.0000009999999975
0
LINE
8
BLACK
6
CONTINUOUS
10
279.7059999999999604
20
-299.8815010000000143
11
279.7059999999999604
21
-312.8815009999999575
0
LINE
8
BLACK
6
CONTINUOUS
10
47.3369
20
-299.4315009999999688
11
59.9368999999999943
21
-299.4315009999999688
0
LINE
8
BLACK
6
CONTINUOUS
10
8.125
20
-195.0000009999999975
11
21.875
21
-195.0000009999999975
0
LINE
8
BLACK
6
CONTINUOUS
10
23.0309999999999988
20
-275.2815009999999916
11
36.6310000000000002
21
-275.2815009999999916
0
LINE
8
BLACK
6
CONTINUOUS
10
174.7434999999999832
20
-223.1815009999999972
11
161.1434999999999889
21
-223.1815009999999972
0
ARC
8
BLACK
10
159.875
20
-318.
40
1.4999989999999999
50
-0.00003820
51
90.00000000
0
LINE
8
BLACK
6
CONTINUOUS
10
213.3434999999999775
20
-212.8690009999999972
11
213.3434999999999775
21
-199.8690009999999972
0
ARC
8
BLACK
10
161.1434999999999889
20
-223.6814999999999998
40
0.500000000001
50
-270.00000000
51
-179.99988541
0
LINE
8
BLACK
6
CONTINUOUS
10
56.3684999999999974
20
-256.2315009999999802
11
69.9684999999999917
21
-256.2315009999999802
0
ARC
8
BLACK
10
74.7308999999999912
20
-274.7814999999999941
40
0.5001000000009997
50
-89.98854247
51
-0.00011457
0
LINE
8
BLACK
6
CONTINUOUS
10
300.875
20
-194.0000009999999975
11
300.875
21
-192.5000009999999975
0
LINE
8
BLACK
6
CONTINUOUS
10
8.2434999999999992
20
-223.6815009999999972
11
8.2434999999999992
21
-236.6815009999999972
0
ARC
8
BLACK
10
23.0310999999999986
20
-312.88149999999996
40
0.5000010099999799
50
-179.99988542
51
-90.01145913
0
LINE
8
BLACK
6
CONTINUOUS
10
94.2809999999999917
20
-274.7815009999999916
11
94.2809999999999917
21
-261.7815009999999916
0
ARC
8
BLACK
10
32.5559999999999974
20
-280.8315000000000055
40
0.500000000001
50
-270.00000000
51
-179.99988541
0
LINE
8
BLACK
6
CONTINUOUS
10
79.4934999999999974
20
-223.1815009999999972
11
65.8935000000000031
21
-223.1815009999999972
0
LINE
8
BLACK
6
CONTINUOUS
10
132.5685000000000002
20
-256.2315009999999802
11
146.1684999999999945
21
-256.2315009999999802
0
ARC
8
BLACK
10
103.3058999999999941
20
-293.8315000000000055
40
0.5001000000009997
50
-89.98854247
51
-0.00011457
0
LINE
8
BLACK
6
CONTINUOUS
10
60.4368999999999943
20
-299.9315009999999688
11
60.4368999999999943
21
-312.8315010000000029
0
ARC
8
BLACK
10
299.2561000000000035
20
-236.6814999999999998
40
0.5000010099999799
50
-179.99988542
51
-90.01145913
0
ARC
8
BLACK
10
-22.2127489999999987
20
-274.7814989999999966
40
0.500001
50
-179.99988541
51
-90.00000000
0
LINE
8
BLACK
6
CONTINUOUS
10
285.875
20
-195.2500009999999975
11
285.875
21
-196.2500009999999975
0
LINE
8
BLACK
6
CONTINUOUS
10
299.875
20
-318.0000009999999975
11
286.125
21
-318.0000009999999975
0
LINE
8
BLACK
6
CONTINUOUS
10
-26.6502499999999998
20
-292.5745009999999979
11
-23.6502499999999998
21
-294.3065009999999688
0
ARC
8
BLACK
10
108.7560999999999893
20
-293.8315000000000055
40
0.5000010099999799
50
-179.99988542
51
-90.01145913
0
ARC
8
BLACK
10
184.2684999999999889
20
-242.7314999999999827
40
0.499999
50
-0.00011460
51
90.00000000
0
LINE
8
BLACK
6
CONTINUOUS
10
212.375
20
-194.0000009999999975
11
212.375
21
-192.5000009999999975
0
ARC
8
BLACK
10
274.7559999999999718
20
-199.8689999999999998
40
0.499999
50
-0.00011460
51
90.00000000
0
LINE
8
BLACK
6
CONTINUOUS
10
313.3559999999999945
20
-212.8690009999999972
11
313.3559999999999945
21
-199.8690009999999972
0
LINE
8
BLACK
6
CONTINUOUS
10
-22.2127489999999987
20
-275.2814999999999941
11
-8.6127500000000001
21
-275.2814999999999941
0
ARC
8
BLACK
10
31.8683999999999976
20
-255.7314999999999827
40
0.5001000000009997
50
-89.98854247
51
-0.00011457
0
ARC
8
BLACK
10
184.9559999999999889
20
-280.8315000000000055
40
0.500000000001
50
-270.00000000
51
-179.99988541
0
ARC
8
BLACK
10
171.6749999999999829
20
-319.
40
1.0000000000005
50
-270.00000000
51
-179.99994270
0
ARC
8
BLACK
10
218.2935999999999979
20
-212.8689999999999998
40
0.5000010099999799
50
-179.99988542
51
-90.01145913
0
ARC
8
BLACK
10
-15.756492999999999
20
-236.6815079999999796
40
0.4999930000490007
50
-90.00080215
51
0.00080215
0
ARC
8
BLACK
10
99.2310999999999979
20
-274.7814999999999941
40
0.5000010099999799
50
-179.99988542
51
-90.01145913
0
ARC
8
BLACK
10
113.5184999999999889
20
-242.7314999999999827
40
0.500000000001
50
-270.00000000
51
-179.99988541
0
ARC
8
BLACK
10
299.875
20
-319.
40
0.999999
50
-0.00005730
51
90.00000000
0
LINE
8
BLACK
6
CONTINUOUS
10
108.5685000000000002
20
-255.7315009999999802
11
108.5685000000000002
21
-242.7315009999999802
0
ARC
8
BLACK
10
280.2059999999999604
20
-199.8689999999999998
40
0.500000000001
50
-270.00000000
51
-179.99988541
0
ARC
8
BLACK
10
89.7059999999999889
20
-280.8315000000000055
40
0.500000000001
50
-270.00000000
51
-179.99988541
0
ARC
8
BLACK
10
163.875
20
-320.5000009999999975
40
2.5
50
-180.00000000
51
-0.00000000
0
ARC
8
BLACK
10
174.2433999999999799
20
-312.8315000000000055
40
0.5001000000009997
50
-89.98854247
51
-0.00011457
0
ARC
8
BLACK
10
219.1434999999999889
20
-223.706499999999977
40
0.500000000001
50
-270.00000000
51
-179.99988541
0
CIRCLE
8
BLACK
10
44.1184909999999988
20
-206.3690210000000036
40
1.
0
LINE
8
BLACK
6
CONTINUOUS
10
165.9060000000000059
20
-294.3315010000000029
11
179.5060000000000002
21
-294.3315010000000029
0
LINE
8
BLACK
6
CONTINUOUS
10
55.8684999999999974
20
-242.7315009999999802
11
55.8684999999999974
21
-255.7315009999999802
0
LINE
8
BLACK
6
CONTINUOUS
10
17.7684999999999995
20
-242.7315009999999802
11
17.7684999999999995
21
-255.7315009999999802
0
ARC
8
BLACK
10
8.125
20
-316.75
40
0.250000000002
50
-270.00000000
51
-179.99977082
0
ARC
8
BLACK
10
112.0749999999999886
20
-320.5
40
1.0000000000005
50
-90.00000000
51
-0.00005730
0
LINE
8
BLACK
6
CONTINUOUS
10
108.5685000000000002
20
-212.8690009999999972
11
108.5685000000000002
21
-199.8690009999999972
0
LINE
8
BLACK
6
CONTINUOUS
10
246.1809999999999832
20
-242.2315009999999802
11
232.5809999999999889
21
-242.2315009999999802
0
ARC
8
BLACK
10
141.4059000000000026
20
-293.8315000000000055
40
0.5001000000009997
50
-89.98854247
51
-0.00011457
0
ARC
8
BLACK
10
160.4559999999999889
20
-280.8315000000000055
40
0.499999
50
-0.00011460
51
90.00000000
0
LINE
8
BLACK
6
CONTINUOUS
10
71.375
20
-319.0000009999999975
11
71.375
21
-320.5000009999999975
0
LINE
8
BLACK
6
CONTINUOUS
10
170.6749999999999829
20
-320.5000009999999975
11
170.6749999999999829
21
-319.0000009999999975
0
ARC
8
BLACK
10
127.8061000000000007
20
-293.8315000000000055
40
0.5000010099999799
50
-179.99988542
51
-90.01145913
0
LINE
8
BLACK
6
CONTINUOUS
10
-21.125
20
-196.5000009999999975
11
-2.375
21
-196.5000009999999975
0
ARC
8
BLACK
10
65.8935000000000031
20
-223.6814999999999998
40
0.500000000001
50
-270.00000000
51
-179.99988541
0
ARC
8
BLACK
10
275.625
20
-195.25
40
0.249999
50
-0.00022918
51
90.00000000
0
ARC
8
BLACK
10
222.3684999999999832
20
-242.7314999999999827
40
0.499999
50
-0.00011460
51
90.00000000
0
LINE
8
BLACK
6
CONTINUOUS
10
65.8935000000000031
20
-237.1815009999999972
11
79.4934999999999974
21
-237.1815009999999972
0
ARC
8
BLACK
10
208.7685999999999922
20
-255.7314999999999827
40
0.5000010099999799
50
-179.99988542
51
-90.01145913
0
LINE
8
BLACK
6
CONTINUOUS
10
306.125
20
-195.0000009999999975
11
306.125
21
-192.5000009999999975
0
ARC
8
BLACK
10
4.8496999999999995
20
-280.8566000000000145
40
0.5000990024995051
50
0.01134298
51
89.99427156
0
LINE
8
BLACK
6
CONTINUOUS
10
-15.7564999999999991
20
-199.3690009999999972
11
-29.3564989999999995
21
-199.3690009999999972
0
LINE
8
BLACK
6
CONTINUOUS
10
103.4934999999999974
20
-223.6815009999999972
11
103.4934999999999974
21
-236.6815009999999972
0
ARC
8
BLACK
10
274.7559999999999718
20
-242.7314999999999827
40
0.499999
50
-0.00011460
51
90.00000000
0
ARC
8
BLACK
10
193.7933999999999912
20
-236.6814999999999998
40
0.5001000000009997
50
-89.98854247
51
-0.00011457
0
ARC
8
BLACK
10
79.4934999999999974
20
-199.8689999999999998
40
0.499999
50
-0.00011460
51
90.00000000
0
LINE
8
BLACK
6
CONTINUOUS
10
-22.625
20
-192.5000009999999975
11
-22.625
21
-195.0000009999999975
0
LINE
8
BLACK
6
CONTINUOUS
10
45.875
20
-316.5000009999999975
11
86.9749999999999943
21
-316.5000009999999975
0
LINE
8
BLACK
6
CONTINUOUS
10
160.9559999999999889
20
-293.8315010000000029
11
160.9559999999999889
21
-280.8315010000000029
0
LINE
8
BLACK
6
CONTINUOUS
10
275.2559999999999718
20
-212.8690009999999972
11
275.2559999999999718
21
-199.8690009999999972
0
LINE
8
BLACK
6
CONTINUOUS
10
-29.625
20
-196.5000009999999975
11
-30.125
21
-196.500001999999995
0
LINE
8
BLACK
6
CONTINUOUS
10
60.9435000000000002
20
-236.6815009999999972
11
60.9435000000000002
21
-223.6815009999999972
0
LINE
8
BLACK
6
CONTINUOUS
10
151.1184999999999832
20
-199.8690009999999972
11
151.1184999999999832
21
-212.8690009999999972
0
LINE
8
BLACK
6
CONTINUOUS
10
132.5685000000000002
20
-213.3690009999999972
11
146.1684999999999945
21
-213.3690009999999972
0
LINE
8
BLACK
6
CONTINUOUS
10
-27.625
20
-320.5000009999999975
11
-27.625
21
-318.000001999999995
0
ARC
8
BLACK
10
8.125
20
-317.75
40
0.250001
50
-179.99977082
51
-90.00000000
0
LINE
8
BLACK
6
CONTINUOUS
10
198.5559999999999832
20
-299.3815010000000143
11
184.9559999999999889
21
-299.3815010000000143
0
LINE
8
BLACK
6
CONTINUOUS
10
-2.125
20
-196.2500009999999975
11
-2.125
21
-195.2500009999999975
0
ARC
8
BLACK
10
41.875
20
-192.5000009999999975
40
2.75
50
0.00000000
51
180.00000000
0
LINE
8
BLACK
6
CONTINUOUS
10
117.5934999999999917
20
-223.1815009999999972
11
103.9934999999999974
21
-223.1815009999999972
0
ARC
8
BLACK
10
36.6308999999999969
20
-312.88149999999996
40
0.5001000000009997
50
-89.98854247
51
-0.00011457
0
ARC
8
BLACK
10
146.1683999999999912
20
-255.7314999999999827
40
0.5001000000009997
50
-89.98854247
51
-0.00011457
0
ARC
8
BLACK
10
299.2561000000000035
20
-312.88149999999996
40
0.5000010099999799
50
-179.99988542
51
-90.01145913
0
ARC
8
BLACK
10
293.8059000000000083
20
-293.8315000000000055
40
0.5001000000009997
50
-89.98854247
51
-0.00011457
0
ARC
8
BLACK
10
250.1434999999999889
20
-223.706499999999977
40
0.499999
50
-0.00011460
51
90.00000000
0
LINE
8
BLACK
6
CONTINUOUS
10
8.7434999999999992
20
-213.3690009999999972
11
22.3434999999999988
21
-213.3690009999999972
0
ARC
8
BLACK
10
22.3434999999999988
20
-199.8689999999999998
40
0.499999
50
-0.00011460
51
90.00000000
0
ARC
8
BLACK
10
167.875
20
-195.
40
1.5000009999999999
50
-179.99996180
51
-90.00000000
0
ARC
8
BLACK
10
313.7051999999999907
20
-265.3920999999999708
40
1.200941733171514
50
-20.21007906
51
70.71473603
0
ARC
8
BLACK
10
-15.7565149999999985
20
-223.6815159999999878
40
0.5000150002249932
50
0.00171882
51
89.99828118
0
ARC
8
BLACK
10
108.0685000000000002
20
-199.8689999999999998
40
0.499999
50
-0.00011460
51
90.00000000
0
LINE
8
BLACK
6
CONTINUOUS
10
203.3185000000000002
20
-242.2315009999999802
11
189.7184999999999775
21
-242.2315009999999802
0
ARC
8
BLACK
10
22.343399999999999
20
-212.8689999999999998
40
0.5001000000009997
50
-89.98854247
51
-0.00011457
0
ARC
8
BLACK
10
212.8434000000000026
20
-212.8689999999999998
40
0.5001000000009997
50
-89.98854247
51
-0.00011457
0
LINE
8
BLACK
6
CONTINUOUS
10
312.875
20
-316.5000009999999975
11
313.375
21
-316.5000009999999975
0
LINE
8
BLACK
6
CONTINUOUS
10
112.0749999999999886
20
-191.5000009999999975
11
72.375
21
-191.5000009999999975
0
ARC
8
BLACK
10
51.6060999999999979
20
-293.8315000000000055
40
0.5000010099999799
50
-179.99988542
51
-90.01145913
0
LINE
8
BLACK
6
CONTINUOUS
10
170.6749999999999829
20
-192.5000009999999975
11
170.6749999999999829
21
-194.0000009999999975
0
LINE
8
BLACK
6
CONTINUOUS
10
260.6560000000000059
20
-299.8815010000000143
11
260.6560000000000059
21
-312.8815009999999575
0
ARC
8
BLACK
10
132.5685000000000002
20
-199.8689999999999998
40
0.500000000001
50
-270.00000000
51
-179.99988541
0
ARC
8
BLACK
10
46.8434999999999988
20
-199.8689999999999998
40
0.500000000001
50
-270.00000000
51
-179.99988541
0
CIRCLE
8
BLACK
10
9.5903799999999997
20
-287.3315010000000029
40
1.
0
ARC
8
BLACK
10
246.1809999999999832
20
-242.7314999999999827
40
0.499999
50
-0.00011460
51
90.00000000
0
LINE
8
BLACK
6
CONTINUOUS
10
141.4060000000000059
20
-280.3315010000000029
11
127.8059999999999974
21
-280.3315010000000029
0
LINE
8
BLACK
6
CONTINUOUS
10
311.625
20
-192.5000009999999975
11
311.625
21
-195.0000009999999975
0
LINE
8
BLACK
6
CONTINUOUS
10
180.0060000000000002
20
-293.8315010000000029
11
180.0060000000000002
21
-280.8315010000000029
0
LINE
8
BLACK
6
CONTINUOUS
10
93.9684999999999917
20
-199.8690009999999972
11
93.9684999999999917
21
-212.8690009999999972
0
LINE
8
BLACK
6
CONTINUOUS
10
97.2249999999999943
20
-316.7500009999999975
11
97.2249999999999943
21
-317.7500009999999975
0
ARC
8
BLACK
10
21.875
20
-319.
40
0.999999
50
-0.00005730
51
90.00000000
0
ARC
8
BLACK
10
86.9749999999999943
20
-316.75
40
0.249999
50
-0.00022918
51
90.00000000
0
ARC
8
BLACK
10
94.468599999999995
20
-255.7314999999999827
40
0.5000010099999799
50
-179.99988542
51
-90.01145913
0
ARC
8
BLACK
10
179.5058999999999969
20
-293.8315000000000055
40
0.5001000000009997
50
-89.98854247
51
-0.00011457
0
ARC
8
BLACK
10
-10.9940149999999992
20
-299.8815159999999764
40
0.5000150002249932
50
0.00171882
51
89.99828118
0
LINE
8
BLACK
6
CONTINUOUS
10
-29.3564989999999995
20
-237.1815009999999972
11
-15.7564999999999991
21
-237.1815009999999972
0
LINE
8
BLACK
6
CONTINUOUS
10
65.3935000000000031
20
-223.6815009999999972
11
65.3935000000000031
21
-236.6815009999999972
0
ARC
8
BLACK
10
211.375
20
-320.5
40
1.0000000000005
50
-90.00000000
51
-0.00005730
0
ARC
8
BLACK
10
275.625
20
-317.75
40
0.250000000002
50
-90.00000000
51
-0.00022918
0
LINE
8
BLACK
6
CONTINUOUS
10
279.7059999999999604
20
-199.8690009999999972
11
279.7059999999999604
21
-212.8690009999999972
0
ARC
8
BLACK
10
198.5558999999999799
20
-293.8315000000000055
40
0.5001000000009997
50
-89.98854247
51
-0.00011457
0
ARC
8
BLACK
10
3.9809999999999999
20
-261.7814999999999941
40
0.500000000001
50
-270.00000000
51
-179.99988541
0
LINE
8
BLACK
6
CONTINUOUS
10
261.1560000000000059
20
-313.3815009999999575
11
274.7559999999999718
21
-313.3815009999999575
0
CIRCLE
8
BLACK
10
296.5310099999999807
20
-306.3815010000000143
40
1.
0
ARC
8
BLACK
10
103.9934999999999974
20
-223.6814999999999998
40
0.500000000001
50
-270.00000000
51
-179.99988541
0
LINE
8
BLACK
6
CONTINUOUS
10
127.6184999999999974
20
-255.7315009999999802
11
127.6184999999999974
21
-242.7315009999999802
0
ARC
8
BLACK
10
312.875
20
-318.
40
1.5000000000003333
50
-270.00000000
51
-179.99996180
0
LINE
8
BLACK
6
CONTINUOUS
10
13.3185000000000002
20
-312.8815009999999575
11
13.3185000000000002
21
-299.8815010000000143
0
ARC
8
BLACK
10
93.7809000000000026
20
-274.7814999999999941
40
0.5001000000009997
50
-89.98854247
51
-0.00011457
0
LINE
8
BLACK
6
CONTINUOUS
10
127.3059999999999974
20
-280.8315010000000029
11
127.3059999999999974
21
-293.8315010000000029
0
LINE
8
BLACK
6
CONTINUOUS
10
84.9435000000000002
20
-237.1815009999999972
11
98.5434999999999945
21
-237.1815009999999972
0
LINE
8
BLACK
6
CONTINUOUS
10
293.8059999999999832
20
-280.3315010000000029
11
280.2059999999999604
21
-280.3315010000000029
0
LINE
8
BLACK
6
CONTINUOUS
10
313.125
20
-196.5000009999999975
11
313.375
21
-196.5000009999999975
0
LINE
8
BLACK
6
CONTINUOUS
10
299.2559999999999718
20
-313.3815009999999575
11
312.8559999999999945
21
-313.3815009999999575
0
LINE
8
BLACK
6
CONTINUOUS
10
-29.8564999999999969
20
-199.8690009999999972
11
-29.8564999999999969
21
-212.8690009999999972
0
LINE
8
BLACK
6
CONTINUOUS
10
55.6809999999999974
20
-261.2815009999999916
11
42.080999999999996
21
-261.2815009999999916
0
ARC
8
BLACK
10
150.9308999999999799
20
-274.7814999999999941
40
0.5001000000009997
50
-89.98854247
51
-0.00011457
0
ARC
8
BLACK
10
18.2684999999999995
20
-242.7314999999999827
40
0.500000000001
50
-270.00000000
51
-179.99988541
0
ARC
8
BLACK
10
108.0683999999999969
20
-255.7314999999999827
40
0.5001000000009997
50
-89.98854247
51
-0.00011457
0
ARC
8
BLACK
10
27.7935999999999979
20
-236.6814999999999998
40
0.5000010099999799
50
-179.99988542
51
-90.01145913
0
LINE
8
BLACK
6
CONTINUOUS
10
293.8059999999999832
20
-299.3815010000000143
11
280.2059999999999604
21
-299.3815010000000143
0
ARC
8
BLACK
10
3.2934999999999999
20
-236.6814999999999998
40
0.500000000001
50
-90.00000000
51
-0.00011459
0
ARC
8
BLACK
10
313.875
20
-314.5
40
2.00000000000025
50
-90.00000000
51
-0.00002865
0
ARC
8
BLACK
10
-30.1250009999999975
20
-198.5
40
1.9999989999999999
50
89.99997135
51
180.00000000
0
LINE
8
BLACK
6
CONTINUOUS
10
127.1184999999999974
20
-242.2315009999999802
11
113.5184999999999889
21
-242.2315009999999802
0
LINE
8
BLACK
6
CONTINUOUS
10
22.3434999999999988
20
-223.1815009999999972
11
8.7434999999999992
21
-223.1815009999999972
0
LINE
8
BLACK
6
CONTINUOUS
10
280.2059999999999604
20
-313.3815009999999575
11
293.8059999999999832
21
-313.3815009999999575
0
ARC
8
BLACK
10
36.6310000000000002
20
-299.88149999999996
40
0.499999
50
-0.00011460
51
90.00000000
0
ARC
8
BLACK
10
141.4060000000000059
20
-280.8315000000000055
40
0.499999
50
-0.00011460
51
90.00000000
0
ARC
8
BLACK
10
97.4749999999999943
20
-195.25
40
0.250000000002
50
-270.00000000
51
-179.99977082
0
ARC
8
BLACK
10
208.7685999999999922
20
-312.88149999999996
40
0.5000010099999799
50
-179.99988542
51
-90.01145913
0
ARC
8
BLACK
10
186.2750000000000057
20
-317.75
40
0.250000000002
50
-90.00000000
51
-0.00022918
0
ARC
8
BLACK
10
118.2809999999999917
20
-261.7814999999999941
40
0.500000000001
50
-270.00000000
51
-179.99988541
0
LINE
8
BLACK
6
CONTINUOUS
10
97.2249999999999943
20
-195.2500009999999975
11
97.2249999999999943
21
-196.2500009999999975
0
ARC
8
BLACK
10
131.8808999999999969
20
-274.7814999999999941
40
0.5001000000009997
50
-89.98854247
51
-0.00011457
0
LINE
8
BLACK
6
CONTINUOUS
10
261.1560000000000059
20
-256.2315009999999802
11
274.7559999999999718
21
-256.2315009999999802
0
ARC
8
BLACK
10
218.2934999999999945
20
-199.8689999999999998
40
0.500000000001
50
-270.00000000
51
-179.99988541
0
ARC
8
BLACK
10
-15.756492999999999
20
-212.8690079999999796
40
0.4999930000490007
50
-90.00080215
51
0.00080215
0
ARC
8
BLACK
10
37.625
20
-195.
40
1.5000000000003333
50
-90.00000000
51
-0.00003820
0
LINE
8
BLACK
6
CONTINUOUS
10
313.3559999999999945
20
-236.6815009999999972
11
313.3559999999999945
21
-223.6815009999999972
0
ARC
8
BLACK
10
12.8185000000000002
20
-299.88149999999996
40
0.499999
50
-0.00011460
51
90.00000000
0
LINE
8
BLACK
6
CONTINUOUS
10
312.8559999999999945
20
-299.3815010000000143
11
299.2559999999999718
21
-299.3815010000000143
0
ARC
8
BLACK
10
211.375
20
-194.
40
1.0000000000005
50
-90.00000000
51
-0.00005730
0
ARC
8
BLACK
10
27.7935999999999979
20
-212.8689999999999998
40
0.5000010099999799
50
-179.99988542
51
-90.01145913
0
ARC
8
BLACK
10
46.8434999999999988
20
-223.6814999999999998
40
0.500000000001
50
-270.00000000
51
-179.99988541
0
ARC
8
BLACK
10
37.3185000000000002
20
-242.7314999999999827
40
0.500000000001
50
-270.00000000
51
-179.99988541
0
ARC
8
BLACK
10
-2.6249989999999999
20
-316.75
40
0.249999000002
50
-0.00022918
51
90.00022918
0
LINE
8
BLACK
6
CONTINUOUS
10
103.9934999999999974
20
-313.3815009999999575
11
117.5934999999999917
21
-313.3815009999999575
0
ARC
8
BLACK
10
56.3686000000000007
20
-255.7314999999999827
40
0.5000010099999799
50
-179.99988542
51
-90.01145913
0
CIRCLE
8
BLACK
10
254.8591199999999901
20
-230.1815009999999972
40
1.
0
LINE
8
BLACK
6
CONTINUOUS
10
141.5935000000000059
20
-223.6815009999999972
11
141.5935000000000059
21
-236.6815009999999972
0
LINE
8
BLACK
6
CONTINUOUS
10
127.1184999999999974
20
-199.3690009999999972
11
113.5184999999999889
21
-199.3690009999999972
0
ARC
8
BLACK
10
184.9560999999999922
20
-293.8315000000000055
40
0.5000010099999799
50
-179.99988542
51
-90.01145913
0
LINE
8
BLACK
6
CONTINUOUS
10
211.4747500000000002
20
-280.8565009999999802
11
211.4747500000000002
21
-292.5745009999999979
0
LINE
8
BLACK
6
CONTINUOUS
10
31.8684999999999974
20
-242.2315009999999802
11
18.2684999999999995
21
-242.2315009999999802
0
ARC
8
BLACK
10
45.875
20
-318.
40
1.5000000000003333
50
-270.00000000
51
-179.99996180
0
CIRCLE
8
BLACK
10
211.9966399999999851
20
-268.2815009999999916
40
1.
0
LINE
8
BLACK
6
CONTINUOUS
10
293.8059999999999832
20
-199.3690009999999972
11
280.2059999999999604
21
-199.3690009999999972
0
ARC
8
BLACK
10
127.8059999999999974
20
-280.8315000000000055
40
0.500000000001
50
-270.00000000
51
-179.99988541
0
LINE
8
BLACK
6
CONTINUOUS
10
232.0809999999999889
20
-299.8815010000000143
11
232.0809999999999889
21
-312.8815009999999575
0
LINE
8
BLACK
6
CONTINUOUS
10
150.9309999999999832
20
-261.2815009999999916
11
137.3309999999999889
21
-261.2815009999999916
0
LINE
8
BLACK
6
CONTINUOUS
10
312.8559999999999945
20
-223.1815009999999972
11
299.2559999999999718
21
-223.1815009999999972
0
LINE
8
BLACK
6
CONTINUOUS
10
-2.375
20
-317.7500009999999975
11
-2.375
21
-316.7500009999999975
0
LINE
8
BLACK
6
CONTINUOUS
10
165.7185000000000059
20
-255.7315009999999802
11
165.7185000000000059
21
-242.7315009999999802
0
LINE
8
BLACK
6
CONTINUOUS
10
7.875
20
-195.2500009999999975
11
7.875
21
-196.2500009999999975
0
LINE
8
BLACK
6
CONTINUOUS
10
-0.7815
20
-313.3815009999999575
11
12.8185000000000002
21
-313.3815009999999575
0
LINE
8
BLACK
6
CONTINUOUS
10
22.8434999999999988
20
-236.6815009999999972
11
22.8434999999999988
21
-223.6815009999999972
0
ARC
8
BLACK
10
179.5060000000000002
20
-280.8315000000000055
40
0.499999
50
-0.00011460
51
90.00000000
0
LINE
8
BLACK
6
CONTINUOUS
10
212.375
20
-319.0000009999999975
11
212.375
21
-320.5000009999999975
0
ARC
8
BLACK
10
212.8434000000000026
20
-236.6814999999999998
40
0.5001000000009997
50
-89.98854247
51
-0.00011457
0
ARC
8
BLACK
10
167.875
20
-318.
40
1.5000000000003333
50
-270.00000000
51
-179.99996180
0
LINE
8
BLACK
6
CONTINUOUS
10
232.5809999999999889
20
-313.3815009999999575
11
246.1809999999999832
21
-313.3815009999999575
0
LINE
8
BLACK
6
CONTINUOUS
10
311.375
20
-318.0000009999999975
11
311.375
21
-320.5000009999999975
0
LINE
8
BLACK
6
CONTINUOUS
10
161.375
20
-195.0000009999999975
11
161.375
21
-192.5000009999999975
0
LINE
8
BLACK
6
CONTINUOUS
10
46.3434999999999988
20
-223.6815009999999972
11
46.3434999999999988
21
-236.6815009999999972
0
LINE
8
BLACK
6
CONTINUOUS
10
275.2559999999999718
20
-255.7315009999999802
11
275.2559999999999718
21
-242.7315009999999802
0
ARC
8
BLACK
10
165.2184000000000026
20
-212.8689999999999998
40
0.5001000000009997
50
-89.98854247
51
-0.00011457
0
LINE
8
BLACK
6
CONTINUOUS
10
65.7060000000000031
20
-293.8315010000000029
11
65.7060000000000031
21
-280.8315010000000029
0
LINE
8
BLACK
6
CONTINUOUS
10
22.5309999999999988
20
-261.7815009999999916
11
22.5309999999999988
21
-274.7815009999999916
0
CIRCLE
8
BLACK
10
-25.125
20
-320.5000009999999975
40
1.25
0
LINE
8
BLACK
6
CONTINUOUS
10
84.4435000000000002
20
-223.6815009999999972
11
84.4435000000000002
21
-236.6815009999999972
0
ARC
8
BLACK
10
-16.125001000000001
20
-319.
40
0.9999990000004999
50
-270.00005730
51
-179.99994270
0
LINE
8
BLACK
6
CONTINUOUS
10
71.375
20
-192.5000009999999975
11
71.375
21
-194.0000009999999975
0
ARC
8
BLACK
10
211.375
20
-192.5
40
0.999999
50
-0.00005730
51
90.00000000
0
LINE
8
BLACK
6
CONTINUOUS
10
161.1434999999999889
20
-237.1815009999999972
11
174.7434999999999832
21
-237.1815009999999972
0
ARC
8
BLACK
10
232.5809999999999889
20
-242.7314999999999827
40
0.500000000001
50
-270.00000000
51
-179.99988541
0
LINE
8
BLACK
6
CONTINUOUS
10
199.2434999999999832
20
-237.1815009999999972
11
212.8434999999999775
21
-237.1815009999999972
0
ARC
8
BLACK
10
79.4934999999999974
20
-223.6814999999999998
40
0.499999
50
-0.00011460
51
90.00000000
0
ARC
8
BLACK
10
72.375
20
-319.
40
1.0000000000005
50
-270.00000000
51
-179.99994270
0
ARC
8
BLACK
10
99.2309999999999945
20
-261.7814999999999941
40
0.500000000001
50
-270.00000000
51
-179.99988541
0
LINE
8
BLACK
6
CONTINUOUS
10
93.7809999999999917
20
-261.2815009999999916
11
80.1809999999999974
21
-261.2815009999999916
0
ARC
8
BLACK
10
-29.3564989999999995
20
-199.8690019999999947
40
0.500001000001
50
90.00000000
51
179.99988541
0
LINE
8
BLACK
6
CONTINUOUS
10
311.0121519999999578
20
-276.1507530000000088
11
314.8290809999999738
21
-265.8058320000000094
0
LINE
8
BLACK
6
CONTINUOUS
10
97.4749999999999943
20
-196.5000009999999975
11
159.875
21
-196.5000009999999975
0
ARC
8
BLACK
10
151.6185999999999865
20
-212.8689999999999998
40
0.5000010099999799
50
-179.99988542
51
-90.01145913
0
ARC
8
BLACK
10
94.468599999999995
20
-212.8689999999999998
40
0.5000010099999799
50
-179.99988542
51
-90.01145913
0
ARC
8
BLACK
10
199.2434999999999832
20
-199.8689999999999998
40
0.500000000001
50
-270.00000000
51
-179.99988541
0
LINE
8
BLACK
6
CONTINUOUS
10
179.6935000000000002
20
-223.6815009999999972
11
179.6935000000000002
21
-236.6815009999999972
0
LINE
8
BLACK
6
CONTINUOUS
10
97.4749999999999943
20
-195.0000009999999975
11
112.0749999999999886
21
-195.0000009999999975
0
ARC
8
BLACK
10
203.3185000000000002
20
-242.7314999999999827
40
0.499999
50
-0.00011460
51
90.00000000
0
ARC
8
BLACK
10
196.7749999999999773
20
-196.25
40
0.250001
50
-179.99977082
51
-90.00000000
0
LINE
8
BLACK
6
CONTINUOUS
10
46.8369
20
-312.8315010000000029
11
46.8369
21
-299.9315009999999688
0
LINE
8
BLACK
6
CONTINUOUS
10
250.1434999999999889
20
-223.2065010000000029
11
219.1434999999999889
21
-223.2065010000000029
0
ARC
8
BLACK
10
146.1684999999999945
20
-242.7314999999999827
40
0.499999
50
-0.00011460
51
90.00000000
0
LINE
8
BLACK
6
CONTINUOUS
10
174.9309999999999832
20
-261.7815009999999916
11
174.9309999999999832
21
-274.7815009999999916
0
LINE
8
BLACK
6
CONTINUOUS
10
-26.6502499999999998
20
-280.8565009999999802
11
-26.6502499999999998
21
-292.5745009999999979
0
LINE
8
BLACK
6
CONTINUOUS
10
112.0749999999999886
20
-318.0000009999999975
11
97.4749999999999943
21
-318.0000009999999975
0
ARC
8
BLACK
10
199.2435999999999865
20
-236.6814999999999998
40
0.5000010099999799
50
-179.99988542
51
-90.01145913
0
ARC
8
BLACK
10
165.2184000000000026
20
-255.7314999999999827
40
0.5001000000009997
50
-89.98854247
51
-0.00011457
0
ARC
8
BLACK
10
212.8434999999999775
20
-223.6814999999999998
40
0.499999
50
-0.00011460
51
90.00000000
0
ARC
8
BLACK
10
8.7435999999999989
20
-212.8689999999999998
40
0.5000010099999799
50
-179.99988542
51
-90.01145913
0
ARC
8
BLACK
10
36.6310000000000002
20
-261.7814999999999941
40
0.499999
50
-0.00011460
51
90.00000000
0
ARC
8
BLACK
10
155.6933999999999969
20
-236.6814999999999998
40
0.5001000000009997
50
-89.98854247
51
-0.00011457
0
ARC
8
BLACK
10
264.1263999999999896
20
-275.7344999999999686
40
1.20056347709107
50
-159.72133159
51
-70.78697585
0
LINE
8
BLACK
6
CONTINUOUS
10
113.5184999999999889
20
-256.2315009999999802
11
127.1184999999999974
21
-256.2315009999999802
0
CIRCLE
8
BLACK
10
-25.125
20
-192.5000009999999975
40
1.25
0
ARC
8
BLACK
10
165.2185000000000059
20
-242.7314999999999827
40
0.499999
50
-0.00011460
51
90.00000000
0
LINE
8
BLACK
6
CONTINUOUS
10
179.6935000000000002
20
-199.8690009999999972
11
179.6935000000000002
21
-212.8690009999999972
0
ARC
8
BLACK
10
312.8558999999999628
20
-255.7314999999999827
40
0.5001000000009997
50
-89.98854247
51
-0.00011457
0
LINE
8
BLACK
6
CONTINUOUS
10
146.1684999999999945
20
-199.3690009999999972
11
132.5685000000000002
21
-199.3690009999999972
0
ARC
8
BLACK
10
186.2750000000000057
20
-196.25
40
0.250000000002
50
-90.00000000
51
-0.00022918
0
CIRCLE
8
BLACK
10
-6.9283599999999996
20
-306.3815010000000143
40
1.
0
CIRCLE
8
BLACK
10
167.9434909999999945
20
-249.2315009999999802
40
1.
0
LINE
8
BLACK
6
CONTINUOUS
10
118.2809999999999917
20
-275.2815009999999916
11
131.8810000000000002
21
-275.2815009999999916
0
ARC
8
BLACK
10
27.7934999999999981
20
-199.8689999999999998
40
0.500000000001
50
-270.00000000
51
-179.99988541
0
ARC
8
BLACK
10
211.9746999999999844
20
-280.8564000000000078
40
0.4999500102020201
50
-270.00572982
51
-179.98842510
0
ARC
8
BLACK
10
161.1435999999999922
20
-236.6814999999999998
40
0.5000010099999799
50
-179.99988542
51
-90.01145913
0
LINE
8
BLACK
6
CONTINUOUS
10
78.3622309999999942
20
-303.3815010000000143
11
81.3622309999999942
21
-303.3815010000000143
0
LINE
8
BLACK
6
CONTINUOUS
10
81.3622309999999942
20
-303.3815010000000143
11
81.3622309999999942
21
-309.3815010000000143
0
LINE
8
BLACK
6
CONTINUOUS
10
81.3622309999999942
20
-309.3815010000000143
11
78.3622309999999942
21
-309.3815010000000143
0
LINE
8
BLACK
6
CONTINUOUS
10
78.3622309999999942
20
-309.3815010000000143
11
78.3622309999999942
21
-303.3815010000000143
0
ARC
8
BLACK
10
108.0685000000000002
20
-242.7314999999999827
40
0.499999
50
-0.00011460
51
90.00000000
0
LINE
8
BLACK
6
CONTINUOUS
10
13.3185000000000002
20
-255.7315009999999802
11
13.3185000000000002
21
-242.7315009999999802
0
LINE
8
BLACK
6
CONTINUOUS
10
60.4435000000000002
20
-223.1815009999999972
11
46.8434999999999988
21
-223.1815009999999972
0
LINE
8
BLACK
6
CONTINUOUS
10
155.8810000000000002
20
-261.7815009999999916
11
155.8810000000000002
21
-274.7815009999999916
0
ARC
8
BLACK
10
-22.2127470000000002
20
-261.7815029999999865
40
0.500003000004
50
90.00034377
51
179.99977082
0
ARC
8
BLACK
10
212.8434999999999775
20
-199.8689999999999998
40
0.499999
50
-0.00011460
51
90.00000000
0
LINE
8
BLACK
6
CONTINUOUS
10
142.0935000000000059
20
-237.1815009999999972
11
155.6935000000000002
21
-237.1815009999999972
0
ARC
8
BLACK
10
208.0808999999999855
20
-274.7814999999999941
40
0.5001000000009997
50
-89.98854247
51
-0.00011457
0
ARC
8
BLACK
10
-29.3564989999999995
20
-212.8689999999999998
40
0.500001
50
-179.99988541
51
-90.00000000
0
ARC
8
BLACK
10
174.7434999999999832
20
-223.6814999999999998
40
0.499999
50
-0.00011460
51
90.00000000
0
ARC
8
BLACK
10
146.8559999999999945
20
-280.8315000000000055
40
0.500000000001
50
-270.00000000
51
-179.99988541
0
ARC
8
BLACK
10
142.0935000000000059
20
-223.6814999999999998
40
0.500000000001
50
-270.00000000
51
-179.99988541
0
ARC
8
BLACK
10
174.2434999999999832
20
-299.9314999999999714
40
0.499999
50
-0.00011460
51
90.00000000
0
LINE
8
BLACK
6
CONTINUOUS
10
232.5809999999999889
20
-256.2315009999999802
11
246.1809999999999832
21
-256.2315009999999802
0
LINE
8
BLACK
6
CONTINUOUS
10
146.8559999999999945
20
-294.3315010000000029
11
160.4559999999999889
21
-294.3315010000000029
0
ARC
8
BLACK
10
56.3684999999999974
20
-242.7314999999999827
40
0.500000000001
50
-270.00000000
51
-179.99988541
0
ARC
8
BLACK
10
74.7309999999999945
20
-261.7814999999999941
40
0.499999
50
-0.00011460
51
90.00000000
0
ARC
8
BLACK
10
-29.3564989999999995
20
-223.6815019999999947
40
0.500001
50
90.00000000
51
180.00000000
0
LINE
8
BLACK
6
CONTINUOUS
10
132.3810000000000002
20
-274.7815009999999916
11
132.3810000000000002
21
-261.7815009999999916
0
LINE
8
BLACK
6
CONTINUOUS
10
-15.2564999999999991
20
-236.6815009999999972
11
-15.2564999999999991
21
-223.6815009999999972
0
LINE
8
BLACK
6
CONTINUOUS
10
280.2059999999999604
20
-213.3690009999999972
11
293.8059999999999832
21
-213.3690009999999972
0
LINE
8
BLACK
6
CONTINUOUS
10
151.1184999999999832
20
-242.7315009999999802
11
151.1184999999999832
21
-255.7315009999999802
0
LINE
8
BLACK
6
CONTINUOUS
10
27.2934999999999981
20
-199.8690009999999972
11
27.2934999999999981
21
-212.8690009999999972
0
ARC
8
BLACK
10
103.9936000000000007
20
-312.88149999999996
40
0.5000010099999799
50
-179.99988542
51
-90.01145913
0
ARC
8
BLACK
10
232.5809999999999889
20
-299.88149999999996
40
0.500000000001
50
-270.00000000
51
-179.99988541
0
LINE
8
BLACK
6
CONTINUOUS
10
74.7309999999999945
20
-261.2815009999999916
11
61.1310000000000002
21
-261.2815009999999916
0
CIRCLE
8
BLACK
10
-13.0315089999999998
20
-230.1815009999999972
40
1.
0
LINE
8
BLACK
6
CONTINUOUS
10
275.875
20
-196.2500009999999975
11
275.875
21
-195.2500009999999975
0
LINE
8
BLACK
6
CONTINUOUS
10
46.1559999999999988
20
-280.3315010000000029
11
32.5559999999999974
21
-280.3315010000000029
0
LINE
8
BLACK
6
CONTINUOUS
10
275.625
20
-316.5000009999999975
11
196.7749999999999773
21
-316.5000009999999975
0
CIRCLE
8
BLACK
10
181.040379999999999
20
-306.3815010000000143
40
1.
0
LINE
8
BLACK
6
CONTINUOUS
10
174.2434999999999832
20
-299.4315009999999688
11
161.6434999999999889
21
-299.4315009999999688
0
ARC
8
BLACK
10
-15.7565149999999985
20
-199.8690159999999878
40
0.5000150002249932
50
0.00171882
51
89.99828118
0
ARC
8
BLACK
10
12.8183899999999991
20
-255.7314599999999984
40
0.5001100016806302
50
-89.98739773
51
-0.00469722
0
LINE
8
BLACK
6
CONTINUOUS
10
146.3559999999999945
20
-280.8315010000000029
11
146.3559999999999945
21
-293.8315010000000029
0
LINE
8
BLACK
6
CONTINUOUS
10
-29.8564999999999969
20
-223.6815019999999947
11
-29.8564999999999969
21
-236.6815009999999972
0
LINE
8
BLACK
6
CONTINUOUS
10
37.1310000000000002
20
-312.8815009999999575
11
37.1310000000000002
21
-299.8815010000000143
0
ARC
8
BLACK
10
112.8309999999999889
20
-261.7814999999999941
40
0.499999
50
-0.00011460
51
90.00000000
0
LINE
8
BLACK
6
CONTINUOUS
10
80.1809999999999974
20
-275.2815009999999916
11
93.7809999999999917
21
-275.2815009999999916
0
ARC
8
BLACK
10
41.3933999999999997
20
-212.8689999999999998
40
0.5001000000009997
50
-89.98854247
51
-0.00011457
0
ARC
8
BLACK
10
-0.7814939999999999
20
-299.8815069999999992
40
0.5000060000359996
50
90.00068754
51
179.99931246
0
LINE
8
BLACK
6
CONTINUOUS
10
-17.125
20
-192.5000009999999975
11
-17.125
21
-194.0000009999999975
0
ARC
8
BLACK
10
-10.9939929999999997
20
-312.8815079999999966
40
0.4999930000490007
50
-90.00080215
51
0.00080215
0
LINE
8
BLACK
6
CONTINUOUS
10
260.875
20
-319.0000009999999975
11
260.875
21
-320.5000009999999975
0
LINE
8
BLACK
6
CONTINUOUS
10
193.7934999999999945
20
-223.1815009999999972
11
180.1935000000000002
21
-223.1815009999999972
0
ARC
8
BLACK
10
117.5933999999999884
20
-236.6814999999999998
40
0.5001000000009997
50
-89.98854247
51
-0.00011457
0
LINE
8
BLACK
6
CONTINUOUS
10
46.8434999999999988
20
-237.1815009999999972
11
60.4435000000000002
21
-237.1815009999999972
0
ARC
8
BLACK
10
60.4433999999999969
20
-212.8689999999999998
40
0.5001000000009997
50
-89.98854247
51
-0.00011457
0
ARC
8
BLACK
10
23.0310999999999986
20
-274.7814999999999941
40
0.5000010099999799
50
-179.99988542
51
-90.01145913
0
LINE
8
BLACK
6
CONTINUOUS
10
132.0685000000000002
20
-242.7315009999999802
11
132.0685000000000002
21
-255.7315009999999802
0
ARC
8
BLACK
10
198.5559999999999832
20
-280.8315000000000055
40
0.499999
50
-0.00011460
51
90.00000000
0
LINE
8
BLACK
6
CONTINUOUS
10
274.7559999999999718
20
-299.3815010000000143
11
261.1560000000000059
21
-299.3815010000000143
0
ARC
8
BLACK
10
79.4933999999999941
20
-236.6814999999999998
40
0.5001000000009997
50
-89.98854247
51
-0.00011457
0
LINE
8
BLACK
6
CONTINUOUS
10
222.8684999999999832
20
-312.8815009999999575
11
222.8684999999999832
21
-299.8815010000000143
0
ARC
8
BLACK
10
132.5685000000000002
20
-242.7314999999999827
40
0.500000000001
50
-270.00000000
51
-179.99988541
0
ARC
8
BLACK
10
8.125
20
-195.25
40
0.250000000002
50
-270.00000000
51
-179.99977082
0
ARC
8
BLACK
10
199.2434999999999832
20
-223.6814999999999998
40
0.500000000001
50
-270.00000000
51
-179.99988541
0
LINE
8
BLACK
6
CONTINUOUS
10
260.6560000000000059
20
-199.8690009999999972
11
260.6560000000000059
21
-212.8690009999999972
0
ARC
8
BLACK
10
72.375
20
-320.5
40
1.0000009999999999
50
-179.99994270
51
-90.00000000
0
LINE
8
BLACK
6
CONTINUOUS
10
243.4747500000000002
20
-292.5745009999999979
11
243.4747500000000002
21
-280.8565009999999802
0
CIRCLE
8
BLACK
10
-29.7002499999999969
20
-268.2815009999999916
40
1.
0
ARC
8
BLACK
10
69.9684000000000026
20
-255.7314999999999827
40
0.5001000000009997
50
-89.98854247
51
-0.00011457
0
LINE
8
BLACK
6
CONTINUOUS
10
137.3309999999999889
20
-275.2815009999999916
11
150.9309999999999832
21
-275.2815009999999916
0
ARC
8
BLACK
10
-16.125001000000001
20
-192.5
40
0.9999990000004999
50
-270.00005730
51
-179.99994270
0
ARC
8
BLACK
10
151.6184999999999832
20
-199.8689999999999998
40
0.500000000001
50
-270.00000000
51
-179.99988541
0
ARC
8
BLACK
10
299.875
20
-320.5
40
1.0000000000005
50
-90.00000000
51
-0.00005730
0
LINE
8
BLACK
6
CONTINUOUS
10
79.9934999999999974
20
-212.8690009999999972
11
79.9934999999999974
21
-199.8690009999999972
0
LINE
8
BLACK
6
CONTINUOUS
10
59.9368999999999943
20
-313.3315010000000029
11
47.3369
21
-313.3315010000000029
0
ARC
8
BLACK
10
23.0309999999999988
20
-261.7814999999999941
40
0.500000000001
50
-270.00000000
51
-179.99988541
0
LINE
8
BLACK
6
CONTINUOUS
10
36.8185000000000002
20
-242.7315009999999802
11
36.8185000000000002
21
-255.7315009999999802
0
LINE
8
BLACK
6
CONTINUOUS
10
112.8309999999999889
20
-261.2815009999999916
11
99.2309999999999945
21
-261.2815009999999916
0
LINE
8
BLACK
6
CONTINUOUS
10
72.375
20
-321.5000009999999975
11
112.0749999999999886
21
-321.5000009999999975
0
LINE
8
BLACK
6
CONTINUOUS
10
89.2059999999999889
20
-280.8315010000000029
11
89.2059999999999889
21
-293.8315010000000029
0
ARC
8
BLACK
10
186.2750000000000057
20
-195.25
40
0.249999
50
-0.00022918
51
90.00000000
0
LINE
8
BLACK
6
CONTINUOUS
10
189.5309999999999775
20
-274.7815009999999916
11
189.5309999999999775
21
-261.7815009999999916
0
ARC
8
BLACK
10
165.9060999999999808
20
-293.8315000000000055
40
0.5000010099999799
50
-179.99988542
51
-90.01145913
0
ARC
8
BLACK
10
-8.6127789999999997
20
-261.7815299999999752
40
0.5000300008409495
50
0.00343754
51
89.99667704
  0
ENDSEC
  0
EOF
