  0
SECTION
  2
HEADER
  9
$ANGBASE
  50
0.0
  9
$ANGDIR
  70
1
  9
$MEASUREMENT
  70
1
  0
ENDSEC
  0
SECTION
  2
TABLES
  0
TABLE
  2
LTYPE
  70
4
  0
LTYPE
  5
40F
  2
CONTINUOUS
  70
0
  3
Solid line
  72
65
  73
0
  40
0.0
  0
LTYPE
  5
410
  2
DASHDOT
 70
0
  3
Dash Dot ____ _ ____ _
 72
65
 73
4
 40
2.0
 49
1.25
 49
-0.25
 49
0.25
 49
-0.25
  0
LTYPE
  5
411
  2
DASHED
 70
0
  3
Dashed __ __ __ __ __
 72
65
 73
2
 40
0.75
 49
0.5
 49
-0.25
  0
LTYPE
  5
43B
  2
DOTTED
 70
0
  3
Dotted .  .  .  .
 72
65
 73
2
 40
0.2
 49
0.0
 49
-0.2
  0
ENDTAB
  0
TABLE
  2
STYLE
  70
4
  0
STYLE
  2
KICAD
  70
0
  40
0
  41
1
  42
1
  50
0
  71
0
  3
isocp.shx
  0
STYLE
  2
KICADB
  70
0
  40
0
  41
1
  42
1
  50
0
  71
0
  3
isocp.shx
  0
STYLE
  2
KICADI
  70
0
  40
0
  41
1
  42
1
  50
15
  71
0
  3
isocp.shx
  0
STYLE
  2
KICADBI
  70
0
  40
0
  41
1
  42
1
  50
15
  71
0
  3
isocp.shx
  0
ENDTAB
  0
TABLE
  2
LAYER
  70
1
  0
LAYER
  2
BLACK
  70
0
  62
7
  6
CONTINUOUS
  0
ENDTAB
  0
ENDSEC
  0
SECTION
  2
ENTITIES
0
LINE
8
BLACK
6
CONTINUOUS
10
51.6059999999999945
20
-139.3315000000000055
11
65.2060000000000031
21
-139.3315000000000055
0
ARC
8
BLACK
10
211.149799999999999
20
-157.8813999999999851
40
0.5001000024995
50
-179.98854382
51
-90.00572843
0
LINE
8
BLACK
6
CONTINUOUS
10
184.4559999999999889
20
-125.8314999999999912
11
184.4559999999999889
21
-138.8315000000000055
0
CIRCLE
8
BLACK
10
89.3622309999999942
20
-151.3814999999999884
40
1.
0
ARC
8
BLACK
10
151.6185999999999865
20
-57.8689999999999998
40
0.5000000099999998
50
-180.00000000
51
-90.01145916
0
LINE
8
BLACK
6
CONTINUOUS
10
222.8684999999999832
20
-100.7314999999999969
11
222.8684999999999832
21
-87.7314999999999969
0
LINE
8
BLACK
6
CONTINUOUS
10
169.9809999999999945
20
-106.2814999999999941
11
156.3810000000000002
21
-106.2814999999999941
0
LINE
8
BLACK
6
CONTINUOUS
10
65.8935000000000031
20
-58.3689999999999998
11
79.4934999999999974
21
-58.3689999999999998
0
LINE
8
BLACK
6
CONTINUOUS
10
42.0807499999999948
20
-157.8315000000000055
11
42.0807499999999948
21
-144.9314999999999998
0
LINE
8
BLACK
6
CONTINUOUS
10
194.2934999999999945
20
-81.6814999999999998
11
194.2934999999999945
21
-68.6814999999999998
0
CIRCLE
8
BLACK
10
234.6184909999999775
20
-51.369019999999999
40
1.
0
ARC
8
BLACK
10
200.93719999999999
20
-157.8814999999999884
40
0.50005
50
-89.99427065
51
-0.00000000
0
ARC
8
BLACK
10
250.1434999999999889
20
-68.7064999999999912
40
0.5
50
0.00000000
51
90.00000000
0
ARC
8
BLACK
10
274.7558999999999969
20
-100.7314999999999969
40
0.5001
50
-89.98854245
51
-0.00000000
0
ARC
8
BLACK
10
312.8558999999999628
20
-100.7314999999999969
40
0.5001
50
-89.98854245
51
-0.00000000
0
ARC
8
BLACK
10
261.1560000000000059
20
-157.8814999999999884
40
0.5
50
-180.00000000
51
-90.00000000
0
LINE
8
BLACK
6
CONTINUOUS
10
108.0685000000000002
20
-87.2314999999999969
11
94.4684999999999917
21
-87.2314999999999969
0
ARC
8
BLACK
10
146.8559999999999945
20
-125.8314999999999912
40
0.5
50
90.00000000
51
180.00000000
0
ARC
8
BLACK
10
-29.1250009999999975
20
-39.9999989999999954
40
1.5000009999999999
50
-90.00000000
51
-0.00000000
0
LINE
8
BLACK
6
CONTINUOUS
10
250.6434999999999889
20
-80.4244999999999948
11
250.6434999999999889
21
-68.7064999999999912
0
ARC
8
BLACK
10
261.1560999999999808
20
-57.8689999999999998
40
0.5000000099999998
50
-180.00000000
51
-90.01145916
0
ARC
8
BLACK
10
293.8059000000000083
20
-138.8315000000000055
40
0.5001
50
-89.98854245
51
-0.00000000
0
ARC
8
BLACK
10
165.2184000000000026
20
-100.7314999999999969
40
0.5001
50
-89.98854245
51
-0.00000000
0
ARC
8
BLACK
10
274.7559999999999718
20
-44.8689999999999998
40
0.5
50
0.00000000
51
90.00000000
0
LINE
8
BLACK
6
CONTINUOUS
10
171.6749999999999829
20
-40.
11
186.2750000000000057
21
-40.
0
ARC
8
BLACK
10
94.4684999999999917
20
-87.7314999999999969
40
0.5
50
90.00000000
51
180.00000000
0
ARC
8
BLACK
10
10.4371899999999993
20
-157.8814600000000041
40
0.500060001599808
50
-89.99312533
51
-0.00458311
0
ARC
8
BLACK
10
46.125
20
-40.
40
1.5
50
-180.00000000
51
-90.00000000
0
ARC
8
BLACK
10
92.0870999999999924
20
-144.8813999999999851
40
0.4998500100030008
50
-270.01719286
51
-179.98853741
0
ARC
8
BLACK
10
89.0183999999999997
20
-100.7314999999999969
40
0.5001
50
-89.98854245
51
-0.00000000
0
ARC
8
BLACK
10
97.4749999999999943
20
-161.75
40
0.25
50
90.00000000
51
180.00000000
0
ARC
8
BLACK
10
36.6310000000000002
20
-106.7814999999999941
40
0.5
50
0.00000000
51
90.00000000
0
LINE
8
BLACK
6
CONTINUOUS
10
211.1497499999999832
20
-158.3814999999999884
11
224.7497499999999775
21
-158.3814999999999884
0
LINE
8
BLACK
6
CONTINUOUS
10
8.125
20
-161.5
11
37.875
21
-161.5
0
ARC
8
BLACK
10
-13.375278999999999
20
-157.8814710000000048
40
0.5000290008409513
50
-89.99667704
51
-0.00332296
0
LINE
8
BLACK
6
CONTINUOUS
10
141.4060000000000059
20
-125.3314999999999912
11
127.8059999999999974
21
-125.3314999999999912
0
ARC
8
BLACK
10
312.875
20
-163.
40
1.5
50
90.00000000
51
180.00000000
0
LINE
8
BLACK
6
CONTINUOUS
10
298.7559999999999718
20
-144.8814999999999884
11
298.7559999999999718
21
-157.8814999999999884
0
ARC
8
BLACK
10
199.2434999999999832
20
-68.6814999999999998
40
0.5
50
90.00000000
51
180.00000000
0
LINE
8
BLACK
6
CONTINUOUS
10
27.6059999999999981
20
-138.8315000000000055
11
27.6059999999999981
21
-125.8314999999999912
0
ARC
8
BLACK
10
41.875
20
-165.5
40
2.5
50
-180.00000000
51
-0.00000000
0
ARC
8
BLACK
10
61.1310999999999964
20
-119.7814999999999941
40
0.5000000099999998
50
-180.00000000
51
-90.01145916
0
LINE
8
BLACK
6
CONTINUOUS
10
103.8059999999999974
20
-138.8315000000000055
11
103.8059999999999974
21
-125.8314999999999912
0
LINE
8
BLACK
6
CONTINUOUS
10
221.6434999999999889
20
-82.1564999999999941
11
247.6434999999999889
21
-82.1564999999999941
0
LINE
8
BLACK
6
CONTINUOUS
10
313.3559999999999945
20
-81.6814999999999998
11
313.3559999999999945
21
-68.6814999999999998
0
ARC
8
BLACK
10
260.3075999999999794
20
-110.3921999999999883
40
1.1983491536947819
50
-250.68122090
51
-159.80798832
0
ARC
8
BLACK
10
179.5058999999999969
20
-138.8315000000000055
40
0.5001
50
-89.98854245
51
-0.00000000
0
ARC
8
BLACK
10
108.0683999999999969
20
-100.7314999999999969
40
0.5001
50
-89.98854245
51
-0.00000000
0
ARC
8
BLACK
10
280.2060999999999922
20
-138.8315000000000055
40
0.5000000099999998
50
-180.00000000
51
-90.01145916
0
LINE
8
BLACK
6
CONTINUOUS
10
189.0309999999999775
20
-106.2814999999999941
11
175.4309999999999832
21
-106.2814999999999941
0
LINE
8
BLACK
6
CONTINUOUS
10
189.2184999999999775
20
-87.7314999999999969
11
189.2184999999999775
21
-100.7314999999999969
0
ARC
8
BLACK
10
299.2559999999999718
20
-157.8814999999999884
40
0.5
50
-180.00000000
51
-90.00000000
0
LINE
8
BLACK
6
CONTINUOUS
10
300.875
20
-39.
11
300.875
21
-37.5
0
ARC
8
BLACK
10
117.5934999999999917
20
-68.6814999999999998
40
0.5
50
0.00000000
51
90.00000000
0
ARC
8
BLACK
10
189.0309999999999775
20
-106.7814999999999941
40
0.5
50
0.00000000
51
90.00000000
0
LINE
8
BLACK
6
CONTINUOUS
10
246.6809999999999832
20
-100.7314999999999969
11
246.6809999999999832
21
-87.7314999999999969
0
ARC
8
BLACK
10
108.0685000000000002
20
-44.8689999999999998
40
0.5
50
0.00000000
51
90.00000000
0
LINE
8
BLACK
6
CONTINUOUS
10
60.9435000000000002
20
-81.6814999999999998
11
60.9435000000000002
21
-68.6814999999999998
0
ARC
8
BLACK
10
211.375
20
-165.5
40
1.
50
-90.00000000
51
-0.00000000
0
ARC
8
BLACK
10
232.5809999999999889
20
-87.7314999999999969
40
0.5
50
90.00000000
51
180.00000000
0
ARC
8
BLACK
10
160.4558999999999855
20
-138.8315000000000055
40
0.5001
50
-89.98854245
51
-0.00000000
0
ARC
8
BLACK
10
60.4435000000000002
20
-44.8689999999999998
40
0.5
50
0.00000000
51
90.00000000
0
ARC
8
BLACK
10
13.5059899999999988
20
-125.8314599999999928
40
0.4999900016000319
50
-270.00114594
51
-179.99541625
0
LINE
8
BLACK
6
CONTINUOUS
10
37.3185000000000002
20
-101.2314999999999969
11
50.9184999999999945
21
-101.2314999999999969
0
LINE
8
BLACK
6
CONTINUOUS
10
201.4372499999999775
20
-157.8814999999999884
11
201.4372499999999775
21
-144.8814999999999884
0
LINE
8
BLACK
6
CONTINUOUS
10
78.3622309999999942
20
-148.3814999999999884
11
81.3622309999999942
21
-148.3814999999999884
0
LINE
8
BLACK
6
CONTINUOUS
10
81.3622309999999942
20
-148.3814999999999884
11
81.3622309999999942
21
-154.3814999999999884
0
LINE
8
BLACK
6
CONTINUOUS
10
81.3622309999999942
20
-154.3814999999999884
11
78.3622309999999942
21
-154.3814999999999884
0
LINE
8
BLACK
6
CONTINUOUS
10
78.3622309999999942
20
-154.3814999999999884
11
78.3622309999999942
21
-148.3814999999999884
0
LINE
8
BLACK
6
CONTINUOUS
10
65.7060000000000031
20
-138.8315000000000055
11
65.7060000000000031
21
-125.8314999999999912
0
ARC
8
BLACK
10
8.7434899999999995
20
-44.8689600000000013
40
0.4999900016000319
50
-270.00114594
51
-179.99541625
0
ARC
8
BLACK
10
174.7434999999999832
20
-68.6814999999999998
40
0.5
50
0.00000000
51
90.00000000
0
LINE
8
BLACK
6
CONTINUOUS
10
122.5434999999999945
20
-68.6814999999999998
11
122.5434999999999945
21
-81.6814999999999998
0
LINE
8
BLACK
6
CONTINUOUS
10
161.375
20
-165.5
11
161.375
21
-163.
0
ARC
8
BLACK
10
36.6308999999999969
20
-119.7814999999999941
40
0.5001
50
-89.98854245
51
-0.00000000
0
LINE
8
BLACK
6
CONTINUOUS
10
113.3309999999999889
20
-119.7814999999999941
11
113.3309999999999889
21
-106.7814999999999941
0
ARC
8
BLACK
10
179.5060000000000002
20
-125.8314999999999912
40
0.5
50
0.00000000
51
90.00000000
0
ARC
8
BLACK
10
112.0749999999999886
20
-37.5
40
1.
50
0.00000000
51
90.00000000
0
LINE
8
BLACK
6
CONTINUOUS
10
-29.625
20
-41.5
11
-30.125
21
-41.5000009999999975
0
LINE
8
BLACK
6
CONTINUOUS
10
41.893499999999996
20
-57.8689999999999998
11
41.893499999999996
21
-44.8689999999999998
0
ARC
8
BLACK
10
-16.125001000000001
20
-37.4999989999999954
40
0.9999990000004999
50
-270.00005730
51
-179.99994270
0
LINE
8
BLACK
6
CONTINUOUS
10
184.9559999999999889
20
-139.3315000000000055
11
198.5559999999999832
21
-139.3315000000000055
0
LINE
8
BLACK
6
CONTINUOUS
10
127.1184999999999974
20
-44.3689999999999998
11
113.5184999999999889
21
-44.3689999999999998
0
LINE
8
BLACK
6
CONTINUOUS
10
72.375
20
-166.5
11
112.0749999999999886
21
-166.5
0
ARC
8
BLACK
10
46.8434999999999988
20
-68.6814999999999998
40
0.5
50
90.00000000
51
180.00000000
0
ARC
8
BLACK
10
146.1683999999999912
20
-100.7314999999999969
40
0.5001
50
-89.98854245
51
-0.00000000
0
ARC
8
BLACK
10
274.7559999999999718
20
-144.8814999999999884
40
0.5
50
0.00000000
51
90.00000000
0
LINE
8
BLACK
6
CONTINUOUS
10
274.7559999999999718
20
-144.3814999999999884
11
261.1560000000000059
21
-144.3814999999999884
0
CIRCLE
8
BLACK
10
9.5903799999999997
20
-132.3315000000000055
40
1.
0
LINE
8
BLACK
6
CONTINUOUS
10
99.0434999999999945
20
-81.6814999999999998
11
99.0434999999999945
21
-68.6814999999999998
0
ARC
8
BLACK
10
287.0058999999999969
20
-186.2138999999999953
40
68.1609786986640671
50
70.73883352
51
109.26102319
0
LINE
8
BLACK
6
CONTINUOUS
10
97.4749999999999943
20
-41.5
11
159.875
21
-41.5
0
LINE
8
BLACK
6
CONTINUOUS
10
177.1247500000000059
20
-144.3814999999999884
11
163.5247499999999832
21
-144.3814999999999884
0
ARC
8
BLACK
10
159.875
20
-40.
40
1.5
50
-90.00000000
51
-0.00000000
0
LINE
8
BLACK
6
CONTINUOUS
10
312.8559999999999945
20
-144.3814999999999884
11
299.2559999999999718
21
-144.3814999999999884
0
LINE
8
BLACK
6
CONTINUOUS
10
313.375
20
-41.5
11
313.875
21
-41.5
0
ARC
8
BLACK
10
131.8810000000000002
20
-106.7814999999999941
40
0.5
50
0.00000000
51
90.00000000
0
ARC
8
BLACK
10
261.1560000000000059
20
-68.6814999999999998
40
0.5
50
90.00000000
51
180.00000000
0
LINE
8
BLACK
6
CONTINUOUS
10
-27.625
20
-165.5
11
-27.625
21
-163.0000009999999975
0
ARC
8
BLACK
10
293.8059999999999832
20
-144.8814999999999884
40
0.5
50
0.00000000
51
90.00000000
0
ARC
8
BLACK
10
84.9435000000000002
20
-68.6814999999999998
40
0.5
50
90.00000000
51
180.00000000
0
CIRCLE
8
BLACK
10
20.3060100000000006
20
-113.2814999999999941
40
1.
0
ARC
8
BLACK
10
-13.3753379999999993
20
-144.8815879999999936
40
0.5000880077426372
50
0.01008228
51
89.98991772
0
LINE
8
BLACK
6
CONTINUOUS
10
146.3559999999999945
20
-125.8314999999999912
11
146.3559999999999945
21
-138.8315000000000055
0
ARC
8
BLACK
10
20.6495999999999995
20
-144.8813999999999851
40
0.4998500100030008
50
-270.01719286
51
-179.98853741
0
LINE
8
BLACK
6
CONTINUOUS
10
212.8434999999999775
20
-44.3689999999999998
11
199.2434999999999832
21
-44.3689999999999998
0
LINE
8
BLACK
6
CONTINUOUS
10
98.5434999999999945
20
-68.1814999999999998
11
84.9435000000000002
21
-68.1814999999999998
0
LINE
8
BLACK
6
CONTINUOUS
10
260.6560000000000059
20
-87.7314999999999969
11
260.6560000000000059
21
-100.7314999999999969
0
LINE
8
BLACK
6
CONTINUOUS
10
103.3059999999999974
20
-125.3314999999999912
11
89.7059999999999889
21
-125.3314999999999912
0
ARC
8
BLACK
10
211.375
20
-164.
40
1.
50
0.00000000
51
90.00000000
0
ARC
8
BLACK
10
21.875
20
-165.5
40
1.
50
-90.00000000
51
-0.00000000
0
LINE
8
BLACK
6
CONTINUOUS
10
-10.3064999999999998
20
-82.1814999999999998
11
3.2934999999999999
21
-82.1814999999999998
0
LINE
8
BLACK
6
CONTINUOUS
10
275.2559999999999718
20
-100.7314999999999969
11
275.2559999999999718
21
-87.7314999999999969
0
LINE
8
BLACK
6
CONTINUOUS
10
55.1807499999999962
20
-158.3315000000000055
11
42.5807499999999948
21
-158.3315000000000055
0
ARC
8
BLACK
10
27.7935999999999979
20
-57.8689999999999998
40
0.5000000099999998
50
-180.00000000
51
-90.01145916
0
LINE
8
BLACK
6
CONTINUOUS
10
236.8434999999999775
20
-44.8689999999999998
11
236.8434999999999775
21
-57.8689999999999998
0
LINE
8
BLACK
6
CONTINUOUS
10
285.875
20
-40.25
11
285.875
21
-41.25
0
LINE
8
BLACK
6
CONTINUOUS
10
92.0872499999999974
20
-158.3814999999999884
11
105.6872499999999917
21
-158.3814999999999884
0
ARC
8
BLACK
10
237.3435999999999808
20
-57.8689999999999998
40
0.5000000099999998
50
-180.00000000
51
-90.01145916
0
LINE
8
BLACK
6
CONTINUOUS
10
180.0060000000000002
20
-138.8315000000000055
11
180.0060000000000002
21
-125.8314999999999912
0
ARC
8
BLACK
10
308.875
20
-165.5
40
2.5
50
-180.00000000
51
-0.00000000
0
LINE
8
BLACK
6
CONTINUOUS
10
294.3059999999999832
20
-81.6814999999999998
11
294.3059999999999832
21
-68.6814999999999998
0
ARC
8
BLACK
10
17.5808999999999997
20
-119.7814999999999941
40
0.5001
50
-89.98854245
51
-0.00000000
0
CIRCLE
8
BLACK
10
163.1810099999999863
20
-132.3315000000000055
40
1.
0
ARC
8
BLACK
10
196.7749999999999773
20
-40.25
40
0.25
50
90.00000000
51
180.00000000
0
ARC
8
BLACK
10
312.8559999999999945
20
-144.8814999999999884
40
0.5
50
0.00000000
51
90.00000000
0
LINE
8
BLACK
6
CONTINUOUS
10
167.875
20
-41.5
11
186.2750000000000057
21
-41.5
0
LINE
8
BLACK
6
CONTINUOUS
10
189.5309999999999775
20
-119.7814999999999941
11
189.5309999999999775
21
-106.7814999999999941
0
LINE
8
BLACK
6
CONTINUOUS
10
37.1310000000000002
20
-119.7814999999999941
11
37.1310000000000002
21
-106.7814999999999941
0
LINE
8
BLACK
6
CONTINUOUS
10
-10.4939999999999998
20
-100.7314969999999903
11
-10.4939999999999998
21
-87.7314969999999903
0
LINE
8
BLACK
6
CONTINUOUS
10
261.1560000000000059
20
-82.1814999999999998
11
274.7559999999999718
21
-82.1814999999999998
0
LINE
8
BLACK
6
CONTINUOUS
10
8.7434999999999992
20
-58.3689999999999998
11
22.3434999999999988
21
-58.3689999999999998
0
ARC
8
BLACK
10
118.2809999999999917
20
-106.7814999999999941
40
0.5
50
90.00000000
51
180.00000000
0
ARC
8
BLACK
10
180.1936000000000035
20
-57.8689999999999998
40
0.5000000099999998
50
-180.00000000
51
-90.01145916
0
ARC
8
BLACK
10
108.0683999999999969
20
-57.8689999999999998
40
0.5001
50
-89.98854245
51
-0.00000000
0
ARC
8
BLACK
10
184.9559999999999889
20
-125.8314999999999912
40
0.5
50
90.00000000
51
180.00000000
0
LINE
8
BLACK
6
CONTINUOUS
10
294.3059999999999832
20
-157.8814999999999884
11
294.3059999999999832
21
-144.8814999999999884
0
ARC
8
BLACK
10
8.125
20
-41.25
40
0.25
50
-180.00000000
51
-90.00000000
0
LINE
8
BLACK
6
CONTINUOUS
10
231.8934999999999889
20
-44.3689999999999998
11
218.2934999999999945
21
-44.3689999999999998
0
ARC
8
BLACK
10
-30.1250009999999975
20
-43.4999989999999954
40
1.9999989999999999
50
89.99997135
51
180.00000000
0
LINE
8
BLACK
6
CONTINUOUS
10
32.0559999999999974
20
-125.8314999999999912
11
32.0559999999999974
21
-138.8315000000000055
0
LINE
8
BLACK
6
CONTINUOUS
10
275.2559999999999718
20
-81.6814999999999998
11
275.2559999999999718
21
-68.6814999999999998
0
LINE
8
BLACK
6
CONTINUOUS
10
137.1434999999999889
20
-81.6814999999999998
11
137.1434999999999889
21
-68.6814999999999998
0
LINE
8
BLACK
6
CONTINUOUS
10
13.3185000000000002
20
-100.7314999999999969
11
13.3185000000000002
21
-87.7314999999999969
0
LINE
8
BLACK
6
CONTINUOUS
10
46.125
20
-41.5
11
86.9749999999999943
21
-41.5
0
CIRCLE
8
BLACK
10
-5.8282419999999995
20
-94.2331140000000005
40
1.
0
ARC
8
BLACK
10
286.125
20
-41.25
40
0.25
50
-180.00000000
51
-90.00000000
0
LINE
8
BLACK
6
CONTINUOUS
10
-29.8564999999999969
20
-44.8689999999999998
11
-29.8564999999999969
21
-57.8689999999999998
0
LINE
8
BLACK
6
CONTINUOUS
10
155.6935000000000002
20
-68.1814999999999998
11
142.0935000000000059
21
-68.1814999999999998
0
ARC
8
BLACK
10
203.3183999999999969
20
-100.7314999999999969
40
0.5001
50
-89.98854245
51
-0.00000000
0
ARC
8
BLACK
10
-25.125
20
-37.5
40
2.5
50
0.00000000
51
180.00000000
0
LINE
8
BLACK
6
CONTINUOUS
10
13.0060000000000002
20
-125.8314999999999912
11
13.0060000000000002
21
-138.8315000000000055
0
ARC
8
BLACK
10
212.8434000000000026
20
-81.6814999999999998
40
0.5001
50
-89.98854245
51
-0.00000000
0
ARC
8
BLACK
10
112.0749999999999886
20
-164.
40
1.
50
0.00000000
51
90.00000000
0
LINE
8
BLACK
6
CONTINUOUS
10
46.8434999999999988
20
-58.3689999999999998
11
60.4435000000000002
21
-58.3689999999999998
0
ARC
8
BLACK
10
-2.6249989999999999
20
-162.7500009999999975
40
0.249999000002
50
-90.00022918
51
0.00022918
0
ARC
8
BLACK
10
299.2559999999999718
20
-87.7314999999999969
40
0.5
50
90.00000000
51
180.00000000
0
LINE
8
BLACK
6
CONTINUOUS
10
-2.375
20
-162.75
11
-2.375
21
-161.75
0
ARC
8
BLACK
10
159.875
20
-163.
40
1.5
50
0.00000000
51
90.00000000
0
ARC
8
BLACK
10
208.7684999999999889
20
-87.7314999999999969
40
0.5
50
90.00000000
51
180.00000000
0
ARC
8
BLACK
10
261.1558999999999742
20
-144.8814999999999884
40
0.4999
50
89.98853924
51
180.00000000
0
ARC
8
BLACK
10
194.4809999999999945
20
-106.7814999999999941
40
0.5
50
90.00000000
51
180.00000000
0
CIRCLE
8
BLACK
10
306.0560099999999579
20
-132.3315000000000055
40
1.
0
CIRCLE
8
BLACK
10
163.875
20
-37.5
40
1.25
0
LINE
8
BLACK
6
CONTINUOUS
10
132.5685000000000002
20
-58.3689999999999998
11
146.1684999999999945
21
-58.3689999999999998
0
ARC
8
BLACK
10
142.0935999999999808
20
-81.6814999999999998
40
0.5000000099999998
50
-180.00000000
51
-90.01145916
0
LINE
8
BLACK
6
CONTINUOUS
10
299.875
20
-163.
11
286.125
21
-163.
0
LINE
8
BLACK
6
CONTINUOUS
10
27.7934999999999981
20
-82.1814999999999998
11
41.393499999999996
21
-82.1814999999999998
0
LINE
8
BLACK
6
CONTINUOUS
10
112.0749999999999886
20
-36.5
11
72.375
21
-36.5
0
LINE
8
BLACK
6
CONTINUOUS
10
150.9309999999999832
20
-106.2814999999999941
11
137.3309999999999889
21
-106.2814999999999941
0
ARC
8
BLACK
10
60.4435000000000002
20
-68.6814999999999998
40
0.5
50
0.00000000
51
90.00000000
0
ARC
8
BLACK
10
56.3684999999999974
20
-87.7314999999999969
40
0.5
50
90.00000000
51
180.00000000
0
LINE
8
BLACK
6
CONTINUOUS
10
146.8559999999999945
20
-139.3315000000000055
11
160.4559999999999889
21
-139.3315000000000055
0
ARC
8
BLACK
10
198.5559999999999832
20
-125.8314999999999912
40
0.5
50
0.00000000
51
90.00000000
0
LINE
8
BLACK
6
CONTINUOUS
10
50.9184999999999945
20
-87.2314999999999969
11
37.3185000000000002
21
-87.2314999999999969
0
LINE
8
BLACK
6
CONTINUOUS
10
79.6809999999999974
20
-106.7814999999999941
11
79.6809999999999974
21
-119.7814999999999941
0
ARC
8
BLACK
10
211.375
20
-37.5
40
1.
50
0.00000000
51
90.00000000
0
LINE
8
BLACK
6
CONTINUOUS
10
299.2559999999999718
20
-82.1814999999999998
11
312.8559999999999945
21
-82.1814999999999998
0
ARC
8
BLACK
10
293.8059000000000083
20
-57.8689999999999998
40
0.5001
50
-89.98854245
51
-0.00000000
0
ARC
8
BLACK
10
-16.125001000000001
20
-39.0000009999999975
40
0.9999990000004999
50
-180.00005730
51
-89.99994270
0
LINE
8
BLACK
6
CONTINUOUS
10
45.875
20
-161.5
11
86.9749999999999943
21
-161.5
0
LINE
8
BLACK
6
CONTINUOUS
10
22.3434999999999988
20
-68.1814999999999998
11
8.7434999999999992
21
-68.1814999999999998
0
LINE
8
BLACK
6
CONTINUOUS
10
161.1434999999999889
20
-82.1814999999999998
11
174.7434999999999832
21
-82.1814999999999998
0
ARC
8
BLACK
10
308.875
20
-37.5
40
2.75
50
0.00000000
51
180.00000000
0
ARC
8
BLACK
10
113.5185999999999922
20
-100.7314999999999969
40
0.5000000099999998
50
-180.00000000
51
-90.01145916
0
ARC
8
BLACK
10
261.875
20
-39.
40
1.
50
-180.00000000
51
-90.00000000
0
ARC
8
BLACK
10
142.5937999999999874
20
-157.8314000000000021
40
0.5001000024995
50
-179.98854382
51
-90.00572843
0
ARC
8
BLACK
10
80.1811000000000007
20
-119.7814999999999941
40
0.5000000099999998
50
-180.00000000
51
-90.01145916
0
ARC
8
BLACK
10
103.3059999999999974
20
-125.8314999999999912
40
0.5
50
0.00000000
51
90.00000000
0
ARC
8
BLACK
10
127.8061000000000007
20
-138.8315000000000055
40
0.5000000099999998
50
-180.00000000
51
-90.01145916
0
LINE
8
BLACK
6
CONTINUOUS
10
156.1935000000000002
20
-81.6814999999999998
11
156.1935000000000002
21
-68.6814999999999998
0
ARC
8
BLACK
10
250.9433999999999969
20
-57.8689999999999998
40
0.5001
50
-89.98854245
51
-0.00000000
0
ARC
8
BLACK
10
34.2496999999999971
20
-144.8815999999999917
40
0.5001000024995
50
0.01145755
51
89.99427157
0
LINE
8
BLACK
6
CONTINUOUS
10
42.5807499999999948
20
-144.4314999999999998
11
55.1807499999999962
21
-144.4314999999999998
0
ARC
8
BLACK
10
60.4433999999999969
20
-57.8689999999999998
40
0.5001
50
-89.98854245
51
-0.00000000
0
LINE
8
BLACK
6
CONTINUOUS
10
-10.8064999999999998
20
-68.6814999999999998
11
-10.8064999999999998
21
-81.6814999999999998
0
ARC
8
BLACK
10
161.1434999999999889
20
-68.6814999999999998
40
0.5
50
90.00000000
51
180.00000000
0
LINE
8
BLACK
6
CONTINUOUS
10
234.9622499999999832
20
-158.3814999999999884
11
248.5622499999999775
21
-158.3814999999999884
0
LINE
8
BLACK
6
CONTINUOUS
10
280.2059999999999604
20
-101.2314999999999969
11
293.8059999999999832
21
-101.2314999999999969
0
LINE
8
BLACK
6
CONTINUOUS
10
94.4684999999999917
20
-101.2314999999999969
11
108.0685000000000002
21
-101.2314999999999969
0
ARC
8
BLACK
10
234.962299999999999
20
-157.8813999999999851
40
0.5001000024995
50
-179.98854382
51
-90.00572843
0
ARC
8
BLACK
10
86.9749999999999943
20
-40.25
40
0.25
50
0.00000000
51
90.00000000
0
LINE
8
BLACK
6
CONTINUOUS
10
61.1310000000000002
20
-120.2814999999999941
11
74.7309999999999945
21
-120.2814999999999941
0
LINE
8
BLACK
6
CONTINUOUS
10
155.6937499999999943
20
-157.8315000000000055
11
155.6937499999999943
21
-144.9314999999999998
0
LINE
8
BLACK
6
CONTINUOUS
10
-27.4752499999999991
20
-144.8814999999999884
11
-27.4752499999999991
21
-157.8814999999999884
0
ARC
8
BLACK
10
231.8933999999999855
20
-57.8689999999999998
40
0.5001
50
-89.98854245
51
-0.00000000
0
LINE
8
BLACK
6
CONTINUOUS
10
198.7434999999999832
20
-68.6814999999999998
11
198.7434999999999832
21
-81.6814999999999998
0
ARC
8
BLACK
10
198.5558999999999799
20
-138.8315000000000055
40
0.5001
50
-89.98854245
51
-0.00000000
0
CIRCLE
8
BLACK
10
196.5184909999999832
20
-75.1814999999999998
40
1.
0
LINE
8
BLACK
6
CONTINUOUS
10
136.8309999999999889
20
-106.7814999999999941
11
136.8309999999999889
21
-119.7814999999999941
0
ARC
8
BLACK
10
51.6059999999999945
20
-125.8314999999999912
40
0.5
50
90.00000000
51
180.00000000
0
LINE
8
BLACK
6
CONTINUOUS
10
108.7560000000000002
20
-139.3315000000000055
11
122.3559999999999945
21
-139.3315000000000055
0
ARC
8
BLACK
10
137.3310999999999922
20
-119.7814999999999941
40
0.5000000099999998
50
-180.00000000
51
-90.01145916
0
LINE
8
BLACK
6
CONTINUOUS
10
211.375
20
-166.5
11
171.6749999999999829
21
-166.5
0
LINE
8
BLACK
6
CONTINUOUS
10
56.1809999999999974
20
-119.7814999999999941
11
56.1809999999999974
21
-106.7814999999999941
0
LINE
8
BLACK
6
CONTINUOUS
10
193.9809999999999945
20
-106.7814999999999941
11
193.9809999999999945
21
-119.7814999999999941
0
ARC
8
BLACK
10
293.8059999999999832
20
-87.7314999999999969
40
0.5
50
0.00000000
51
90.00000000
0
ARC
8
BLACK
10
169.9808999999999912
20
-119.7814999999999941
40
0.5001
50
-89.98854245
51
-0.00000000
0
ARC
8
BLACK
10
113.5184999999999889
20
-44.8689999999999998
40
0.5
50
90.00000000
51
180.00000000
0
LINE
8
BLACK
6
CONTINUOUS
10
142.09375
20
-144.9314999999999998
11
142.09375
21
-157.8315000000000055
0
ARC
8
BLACK
10
165.2185000000000059
20
-87.7314999999999969
40
0.5
50
0.00000000
51
90.00000000
0
ARC
8
BLACK
10
37.3185000000000002
20
-87.7314999999999969
40
0.5
50
90.00000000
51
180.00000000
0
LINE
8
BLACK
6
CONTINUOUS
10
218.6434999999999889
20
-80.4244999999999948
11
221.6434999999999889
21
-82.1564999999999941
0
ARC
8
BLACK
10
261.1560999999999808
20
-81.6814999999999998
40
0.5000000099999998
50
-180.00000000
51
-90.01145916
0
ARC
8
BLACK
10
97.4749999999999943
20
-40.25
40
0.25
50
90.00000000
51
180.00000000
0
ARC
8
BLACK
10
312.8559999999999945
20
-68.6814999999999998
40
0.5
50
0.00000000
51
90.00000000
0
ARC
8
BLACK
10
69.9684000000000026
20
-100.7314999999999969
40
0.5001
50
-89.98854245
51
-0.00000000
0
LINE
8
BLACK
6
CONTINUOUS
10
-29.6250009999999975
20
-161.5
11
-30.1250009999999975
21
-161.5
0
ARC
8
BLACK
10
79.4934999999999974
20
-68.6814999999999998
40
0.5
50
0.00000000
51
90.00000000
0
LINE
8
BLACK
6
CONTINUOUS
10
136.6434999999999889
20
-68.1814999999999998
11
123.0434999999999945
21
-68.1814999999999998
0
LINE
8
BLACK
6
CONTINUOUS
10
118.2809999999999917
20
-120.2814999999999941
11
131.8810000000000002
21
-120.2814999999999941
0
LINE
8
BLACK
6
CONTINUOUS
10
312.8559999999999945
20
-68.1814999999999998
11
299.2559999999999718
21
-68.1814999999999998
0
ARC
8
BLACK
10
108.0685000000000002
20
-87.7314999999999969
40
0.5
50
0.00000000
51
90.00000000
0
ARC
8
BLACK
10
170.6685999999999979
20
-100.7314999999999969
40
0.5000000099999998
50
-180.00000000
51
-90.01145916
0
ARC
8
BLACK
10
151.6184999999999832
20
-44.8689999999999998
40
0.5
50
90.00000000
51
180.00000000
0
LINE
8
BLACK
6
CONTINUOUS
10
127.1184999999999974
20
-87.2314999999999969
11
113.5184999999999889
21
-87.2314999999999969
0
LINE
8
BLACK
6
CONTINUOUS
10
299.2559999999999718
20
-101.2314999999999969
11
312.8559999999999945
21
-101.2314999999999969
0
ARC
8
BLACK
10
-22.2127470000000002
20
-106.781501999999989
40
0.500003000004
50
90.00034377
51
179.99977082
0
CIRCLE
8
BLACK
10
129.7653799999999933
20
-151.3814999999999884
40
1.
0
ARC
8
BLACK
10
293.8059000000000083
20
-157.8814999999999884
40
0.5001
50
-89.98854245
51
-0.00000000
0
ARC
8
BLACK
10
167.875
20
-40.
40
1.5
50
-180.00000000
51
-90.00000000
0
LINE
8
BLACK
6
CONTINUOUS
10
41.393499999999996
20
-44.3689999999999998
11
27.7934999999999981
21
-44.3689999999999998
0
ARC
8
BLACK
10
146.1684999999999945
20
-44.8689999999999998
40
0.5
50
0.00000000
51
90.00000000
0
LINE
8
BLACK
6
CONTINUOUS
10
279.7059999999999604
20
-87.7314999999999969
11
279.7059999999999604
21
-100.7314999999999969
0
LINE
8
BLACK
6
CONTINUOUS
10
65.3935000000000031
20
-68.6814999999999998
11
65.3935000000000031
21
-81.6814999999999998
0
ARC
8
BLACK
10
105.68719999999999
20
-157.8814999999999884
40
0.50005
50
-89.99427065
51
-0.00000000
0
LINE
8
BLACK
6
CONTINUOUS
10
-2.125
20
-41.25
11
-2.125
21
-40.25
0
LINE
8
BLACK
6
CONTINUOUS
10
-22.2127489999999987
20
-120.2814989999999966
11
-8.6127500000000001
21
-120.2814989999999966
0
ARC
8
BLACK
10
165.2185000000000059
20
-44.8689999999999998
40
0.5
50
0.00000000
51
90.00000000
0
LINE
8
BLACK
6
CONTINUOUS
10
117.5934999999999917
20
-68.1814999999999998
11
103.9934999999999974
21
-68.1814999999999998
0
LINE
8
BLACK
6
CONTINUOUS
10
112.0749999999999886
20
-163.
11
97.4749999999999943
21
-163.
0
LINE
8
BLACK
6
CONTINUOUS
10
127.6184999999999974
20
-57.8689999999999998
11
127.6184999999999974
21
-44.8689999999999998
0
LINE
8
BLACK
6
CONTINUOUS
10
93.9684999999999917
20
-87.7314999999999969
11
93.9684999999999917
21
-100.7314999999999969
0
LINE
8
BLACK
6
CONTINUOUS
10
151.4309999999999832
20
-119.7814999999999941
11
151.4309999999999832
21
-106.7814999999999941
0
ARC
8
BLACK
10
132.5686000000000035
20
-57.8689999999999998
40
0.5000000099999998
50
-180.00000000
51
-90.01145916
0
ARC
8
BLACK
10
151.6185999999999865
20
-100.7314999999999969
40
0.5000000099999998
50
-180.00000000
51
-90.01145916
0
ARC
8
BLACK
10
237.3434999999999775
20
-44.8689999999999998
40
0.5
50
90.00000000
51
180.00000000
0
LINE
8
BLACK
6
CONTINUOUS
10
299.2559999999999718
20
-58.3689999999999998
11
312.8559999999999945
21
-58.3689999999999998
0
ARC
8
BLACK
10
312.8559999999999945
20
-87.7314999999999969
40
0.5
50
0.00000000
51
90.00000000
0
LINE
8
BLACK
6
CONTINUOUS
10
27.7934999999999981
20
-58.3689999999999998
11
41.393499999999996
21
-58.3689999999999998
0
LINE
8
BLACK
6
CONTINUOUS
10
211.4747500000000002
20
-137.5745000000000005
11
214.4747500000000002
21
-139.3064999999999998
0
LINE
8
BLACK
6
CONTINUOUS
10
313.375
20
-161.5
11
313.875
21
-161.5
0
LINE
8
BLACK
6
CONTINUOUS
10
311.375
20
-163.
11
311.375
21
-165.5
0
LINE
8
BLACK
6
CONTINUOUS
10
-29.625
20
-41.5
11
-29.1250009999999975
21
-41.5
0
ARC
8
BLACK
10
72.375
20
-37.5
40
1.
50
90.00000000
51
180.00000000
0
LINE
8
BLACK
6
CONTINUOUS
10
160.9559999999999889
20
-138.8315000000000055
11
160.9559999999999889
21
-125.8314999999999912
0
LINE
8
BLACK
6
CONTINUOUS
10
186.8372499999999832
20
-144.8814999999999884
11
186.8372499999999832
21
-157.8814999999999884
0
LINE
8
BLACK
6
CONTINUOUS
10
304.875
20
-161.5
11
286.125
21
-161.5
0
CIRCLE
8
BLACK
10
-22.5565089999999984
20
-63.2752789999999976
40
1.
0
ARC
8
BLACK
10
299.2558999999999969
20
-144.8814999999999884
40
0.4999
50
89.98853924
51
180.00000000
0
ARC
8
BLACK
10
-2.3749989999999999
20
-40.2499989999999954
40
0.249999000002
50
-0.00022918
51
90.00022918
0
ARC
8
BLACK
10
163.875
20
-165.5
40
2.5
50
-180.00000000
51
-0.00000000
0
ARC
8
BLACK
10
141.4060000000000059
20
-125.8314999999999912
40
0.5
50
0.00000000
51
90.00000000
0
ARC
8
BLACK
10
112.8308999999999997
20
-119.7814999999999941
40
0.5001
50
-89.98854245
51
-0.00000000
0
LINE
8
BLACK
6
CONTINUOUS
10
260.875
20
-164.
11
260.875
21
-165.5
0
LINE
8
BLACK
6
CONTINUOUS
10
113.0184999999999889
20
-44.8689999999999998
11
113.0184999999999889
21
-57.8689999999999998
0
LINE
8
BLACK
6
CONTINUOUS
10
87.2249999999999943
20
-162.75
11
87.2249999999999943
21
-161.75
0
ARC
8
BLACK
10
165.2184000000000026
20
-57.8689999999999998
40
0.5001
50
-89.98854245
51
-0.00000000
0
LINE
8
BLACK
6
CONTINUOUS
10
146.6684999999999945
20
-57.8689999999999998
11
146.6684999999999945
21
-44.8689999999999998
0
CIRCLE
8
BLACK
10
277.4810099999999693
20
-75.1814999999999998
40
1.
0
LINE
8
BLACK
6
CONTINUOUS
10
79.9934999999999974
20
-81.6814999999999998
11
79.9934999999999974
21
-68.6814999999999998
0
LINE
8
BLACK
6
CONTINUOUS
10
-2.625
20
-163.
11
-16.125
21
-163.
0
LINE
8
BLACK
6
CONTINUOUS
10
87.2249999999999943
20
-41.25
11
87.2249999999999943
21
-40.25
0
LINE
8
BLACK
6
CONTINUOUS
10
93.9684999999999917
20
-44.8689999999999998
11
93.9684999999999917
21
-57.8689999999999998
0
ARC
8
BLACK
10
94.468599999999995
20
-57.8689999999999998
40
0.5000000099999998
50
-180.00000000
51
-90.01145916
0
LINE
8
BLACK
6
CONTINUOUS
10
208.5809999999999889
20
-119.7814999999999941
11
208.5809999999999889
21
-106.7814999999999941
0
ARC
8
BLACK
10
80.1809999999999974
20
-106.7814999999999941
40
0.5
50
90.00000000
51
180.00000000
0
ARC
8
BLACK
10
313.125
20
-40.
40
1.5
50
-180.00000000
51
-90.00000000
0
LINE
8
BLACK
6
CONTINUOUS
10
280.2059999999999604
20
-82.1814999999999998
11
293.8059999999999832
21
-82.1814999999999998
0
ARC
8
BLACK
10
79.4933999999999941
20
-57.8689999999999998
40
0.5001
50
-89.98854245
51
-0.00000000
0
LINE
8
BLACK
6
CONTINUOUS
10
196.5249999999999773
20
-40.25
11
196.5249999999999773
21
-41.25
0
LINE
8
BLACK
6
CONTINUOUS
10
160.6434999999999889
20
-68.6814999999999998
11
160.6434999999999889
21
-81.6814999999999998
0
ARC
8
BLACK
10
155.1937000000000069
20
-157.8315000000000055
40
0.50005
50
-89.99427065
51
-0.00000000
0
CIRCLE
8
BLACK
10
120.3184909999999945
20
-75.1814999999999998
40
1.
0
ARC
8
BLACK
10
165.9060999999999808
20
-138.8315000000000055
40
0.5000000099999998
50
-180.00000000
51
-90.01145916
0
ARC
8
BLACK
10
261.1560000000000059
20
-44.8689999999999998
40
0.5
50
90.00000000
51
180.00000000
0
LINE
8
BLACK
6
CONTINUOUS
10
212.8434999999999775
20
-68.1814999999999998
11
199.2434999999999832
21
-68.1814999999999998
0
LINE
8
BLACK
6
CONTINUOUS
10
27.2934999999999981
20
-44.8689999999999998
11
27.2934999999999981
21
-57.8689999999999998
0
ARC
8
BLACK
10
117.5933999999999884
20
-81.6814999999999998
40
0.5001
50
-89.98854245
51
-0.00000000
0
LINE
8
BLACK
6
CONTINUOUS
10
146.1684999999999945
20
-87.2314999999999969
11
132.5685000000000002
21
-87.2314999999999969
0
ARC
8
BLACK
10
127.8059999999999974
20
-125.8314999999999912
40
0.5
50
90.00000000
51
180.00000000
0
LINE
8
BLACK
6
CONTINUOUS
10
211.4747500000000002
20
-125.8564999999999969
11
211.4747500000000002
21
-137.5745000000000005
0
ARC
8
BLACK
10
-8.6127089999999988
20
-119.78154099999999
40
0.4999590017641446
50
-90.00469864
51
0.00481324
0
ARC
8
BLACK
10
103.3058999999999941
20
-138.8315000000000055
40
0.5001
50
-89.98854245
51
-0.00000000
0
LINE
8
BLACK
6
CONTINUOUS
10
-8.1127500000000001
20
-119.7814989999999966
11
-8.1127500000000001
21
-106.7814989999999966
0
ARC
8
BLACK
10
118.281099999999995
20
-119.7814999999999941
40
0.5000000099999998
50
-180.00000000
51
-90.01145916
0
ARC
8
BLACK
10
-26.1502489999999987
20
-125.8565009999999944
40
0.500001000001
50
90.00011459
51
179.99988541
0
LINE
8
BLACK
6
CONTINUOUS
10
22.875
20
-165.5
11
22.875
21
-164.
0
CIRCLE
8
BLACK
10
-3.5065089999999999
20
-51.369019999999999
40
1.
0
ARC
8
BLACK
10
8.7435999999999989
20
-81.6814999999999998
40
0.5000000099999998
50
-180.00000000
51
-90.01145916
0
ARC
8
BLACK
10
293.8059999999999832
20
-44.8689999999999998
40
0.5
50
0.00000000
51
90.00000000
0
CIRCLE
8
BLACK
10
172.706009999999992
20
-51.369019999999999
40
1.
0
ARC
8
BLACK
10
222.3683999999999799
20
-100.7314999999999969
40
0.5001
50
-89.98854245
51
-0.00000000
0
LINE
8
BLACK
6
CONTINUOUS
10
180.1935000000000002
20
-58.3689999999999998
11
193.7934999999999945
21
-58.3689999999999998
0
LINE
8
BLACK
6
CONTINUOUS
10
208.2684999999999889
20
-87.7314999999999969
11
208.2684999999999889
21
-100.7314999999999969
0
LINE
8
BLACK
6
CONTINUOUS
10
280.2059999999999604
20
-158.3814999999999884
11
293.8059999999999832
21
-158.3814999999999884
0
ARC
8
BLACK
10
216.7372000000000014
20
-106.8064999999999998
40
0.4999499999999999
50
89.99427019
51
180.00000000
0
LINE
8
BLACK
6
CONTINUOUS
10
247.6434999999999889
20
-82.1564999999999941
11
250.6434999999999889
21
-80.4244999999999948
0
ARC
8
BLACK
10
280.2059999999999604
20
-125.8314999999999912
40
0.5
50
90.00000000
51
180.00000000
0
ARC
8
BLACK
10
194.4810999999999979
20
-119.7814999999999941
40
0.5000000099999998
50
-180.00000000
51
-90.01145916
0
LINE
8
BLACK
6
CONTINUOUS
10
194.4809999999999945
20
-120.2814999999999941
11
208.0809999999999889
21
-120.2814999999999941
0
LINE
8
BLACK
6
CONTINUOUS
10
315.875
20
-43.5
11
315.875
21
-159.5
0
ARC
8
BLACK
10
286.125
20
-40.25
40
0.25
50
90.00000000
51
180.00000000
0
LINE
8
BLACK
6
CONTINUOUS
10
105.6872499999999917
20
-144.3814999999999884
11
92.0872499999999974
21
-144.3814999999999884
0
LINE
8
BLACK
6
CONTINUOUS
10
313.3559999999999945
20
-157.8814999999999884
11
313.3559999999999945
21
-144.8814999999999884
0
LINE
8
BLACK
6
CONTINUOUS
10
106.1872499999999917
20
-157.8814999999999884
11
106.1872499999999917
21
-144.8814999999999884
0
LINE
8
BLACK
6
CONTINUOUS
10
51.1059999999999945
20
-125.8314999999999912
11
51.1059999999999945
21
-138.8315000000000055
0
CIRCLE
8
BLACK
10
296.5310099999999807
20
-151.3814999999999884
40
1.
0
LINE
8
BLACK
6
CONTINUOUS
10
311.625
20
-37.5
11
311.625
21
-40.
0
LINE
8
BLACK
6
CONTINUOUS
10
163.5247499999999832
20
-158.3814999999999884
11
177.1247500000000059
21
-158.3814999999999884
0
LINE
8
BLACK
6
CONTINUOUS
10
41.393499999999996
20
-68.1814999999999998
11
27.7934999999999981
21
-68.1814999999999998
0
LINE
8
BLACK
6
CONTINUOUS
10
170.4809999999999945
20
-119.7814999999999941
11
170.4809999999999945
21
-106.7814999999999941
0
LINE
8
BLACK
6
CONTINUOUS
10
293.8059999999999832
20
-68.1814999999999998
11
280.2059999999999604
21
-68.1814999999999998
0
LINE
8
BLACK
6
CONTINUOUS
10
199.2434999999999832
20
-58.3689999999999998
11
212.8434999999999775
21
-58.3689999999999998
0
LINE
8
BLACK
6
CONTINUOUS
10
189.7184999999999775
20
-101.2314999999999969
11
203.3185000000000002
21
-101.2314999999999969
0
CIRCLE
8
BLACK
10
296.5310099999999807
20
-94.2314999999999969
40
1.
0
ARC
8
BLACK
10
22.3434999999999988
20
-68.6814999999999998
40
0.5
50
0.00000000
51
90.00000000
0
LINE
8
BLACK
6
CONTINUOUS
10
113.0749999999999886
20
-39.
11
113.0749999999999886
21
-37.5
0
LINE
8
BLACK
6
CONTINUOUS
10
312.8559999999999945
20
-44.3689999999999998
11
299.2559999999999718
21
-44.3689999999999998
0
LINE
8
BLACK
6
CONTINUOUS
10
5.3497499999999993
20
-137.5745000000000005
11
5.3497499999999993
21
-125.8564999999999969
0
LINE
8
BLACK
6
CONTINUOUS
10
141.5935000000000059
20
-68.6814999999999998
11
141.5935000000000059
21
-81.6814999999999998
0
ARC
8
BLACK
10
219.1434999999999889
20
-68.7064999999999912
40
0.5
50
90.00000000
51
180.00000000
0
ARC
8
BLACK
10
105.68719999999999
20
-144.8815999999999917
40
0.5001000024995
50
0.01145755
51
89.99427157
0
ARC
8
BLACK
10
312.8558999999999628
20
-81.6814999999999998
40
0.5001
50
-89.98854245
51
-0.00000000
0
LINE
8
BLACK
6
CONTINUOUS
10
274.7559999999999718
20
-44.3689999999999998
11
261.1560000000000059
21
-44.3689999999999998
0
ARC
8
BLACK
10
163.875
20
-37.5
40
2.5
50
0.00000000
51
180.00000000
0
LINE
8
BLACK
6
CONTINUOUS
10
60.9435000000000002
20
-57.8689999999999998
11
60.9435000000000002
21
-44.8689999999999998
0
ARC
8
BLACK
10
22.343399999999999
20
-81.6814999999999998
40
0.5001
50
-89.98854245
51
-0.00000000
0
ARC
8
BLACK
10
99.2310999999999979
20
-119.7814999999999941
40
0.5000000099999998
50
-180.00000000
51
-90.01145916
0
ARC
8
BLACK
10
27.1058999999999983
20
-138.8315000000000055
40
0.5001
50
-89.98854245
51
-0.00000000
0
LINE
8
BLACK
6
CONTINUOUS
10
155.1937499999999943
20
-144.4314999999999998
11
142.59375
21
-144.4314999999999998
0
LINE
8
BLACK
6
CONTINUOUS
10
213.3434999999999775
20
-81.6814999999999998
11
213.3434999999999775
21
-68.6814999999999998
0
ARC
8
BLACK
10
189.7185999999999808
20
-100.7314999999999969
40
0.5000000099999998
50
-180.00000000
51
-90.01145916
0
ARC
8
BLACK
10
72.375
20
-39.
40
1.
50
-180.00000000
51
-90.00000000
0
LINE
8
BLACK
6
CONTINUOUS
10
-29.6250009999999975
20
-161.5
11
-29.1250009999999975
21
-161.5
0
LINE
8
BLACK
6
CONTINUOUS
10
79.4934999999999974
20
-68.1814999999999998
11
65.8935000000000031
21
-68.1814999999999998
0
LINE
8
BLACK
6
CONTINUOUS
10
31.8684999999999974
20
-87.2314999999999969
11
18.2684999999999995
21
-87.2314999999999969
0
CIRCLE
8
BLACK
10
-13.0315089999999998
20
-75.1814999999999998
40
1.
0
LINE
8
BLACK
6
CONTINUOUS
10
216.2372499999999889
20
-106.8064999999999998
11
216.2372499999999889
21
-118.5244999999999891
0
ARC
8
BLACK
10
8.7434899999999995
20
-68.6814600000000013
40
0.4999900016000319
50
-270.00114594
51
-179.99541625
0
LINE
8
BLACK
6
CONTINUOUS
10
248.5622499999999775
20
-144.3814999999999884
11
234.9622499999999832
21
-144.3814999999999884
0
ARC
8
BLACK
10
89.7060999999999922
20
-138.8315000000000055
40
0.5000000099999998
50
-180.00000000
51
-90.01145916
0
ARC
8
BLACK
10
199.2434999999999832
20
-44.8689999999999998
40
0.5
50
90.00000000
51
180.00000000
0
ARC
8
BLACK
10
123.0434999999999945
20
-68.6814999999999998
40
0.5
50
90.00000000
51
180.00000000
0
LINE
8
BLACK
6
CONTINUOUS
10
34.7497499999999988
20
-157.8814999999999884
11
34.7497499999999988
21
-144.8814999999999884
0
LINE
8
BLACK
6
CONTINUOUS
10
151.6184999999999832
20
-101.2314999999999969
11
165.2185000000000059
21
-101.2314999999999969
0
LINE
8
BLACK
6
CONTINUOUS
10
293.8059999999999832
20
-87.2314999999999969
11
280.2059999999999604
21
-87.2314999999999969
0
ARC
8
BLACK
10
4.8496999999999995
20
-125.8564999999999969
40
0.5000000025
50
0.00000000
51
89.99427042
0
ARC
8
BLACK
10
208.0808999999999855
20
-119.7814999999999941
40
0.5001
50
-89.98854245
51
-0.00000000
0
ARC
8
BLACK
10
275.625
20
-161.75
40
0.25
50
0.00000000
51
90.00000000
0
ARC
8
BLACK
10
112.0749999999999886
20
-165.5
40
1.
50
-90.00000000
51
-0.00000000
0
LINE
8
BLACK
6
CONTINUOUS
10
250.9435000000000002
20
-44.3689999999999998
11
237.3434999999999775
21
-44.3689999999999998
0
ARC
8
BLACK
10
167.875
20
-163.
40
1.5
50
90.00000000
51
180.00000000
0
ARC
8
BLACK
10
156.3810000000000002
20
-106.7814999999999941
40
0.5
50
90.00000000
51
180.00000000
0
ARC
8
BLACK
10
150.9308999999999799
20
-119.7814999999999941
40
0.5001
50
-89.98854245
51
-0.00000000
0
LINE
8
BLACK
6
CONTINUOUS
10
165.2185000000000059
20
-44.3689999999999998
11
151.6184999999999832
21
-44.3689999999999998
0
ARC
8
BLACK
10
200.93719999999999
20
-144.8815999999999917
40
0.5001000024995
50
0.01145755
51
89.99427157
0
LINE
8
BLACK
6
CONTINUOUS
10
103.4934999999999974
20
-68.6814999999999998
11
103.4934999999999974
21
-81.6814999999999998
0
ARC
8
BLACK
10
-15.756492999999999
20
-81.6815069999999963
40
0.4999930000490007
50
-90.00080215
51
0.00080215
0
LINE
8
BLACK
6
CONTINUOUS
10
286.125
20
-40.
11
299.875
21
-40.
0
LINE
8
BLACK
6
CONTINUOUS
10
132.0685000000000002
20
-87.7314999999999969
11
132.0685000000000002
21
-100.7314999999999969
0
ARC
8
BLACK
10
261.875
20
-165.5
40
1.
50
-180.00000000
51
-90.00000000
0
ARC
8
BLACK
10
41.875
20
-37.5
40
2.75
50
0.00000000
51
180.00000000
0
ARC
8
BLACK
10
280.2059999999999604
20
-87.7314999999999969
40
0.5
50
90.00000000
51
180.00000000
0
LINE
8
BLACK
6
CONTINUOUS
10
275.2559999999999718
20
-57.8689999999999998
11
275.2559999999999718
21
-44.8689999999999998
0
ARC
8
BLACK
10
211.1495999999999924
20
-144.8813999999999851
40
0.4998500100030008
50
-270.01719286
51
-179.98853741
0
ARC
8
BLACK
10
-29.3564989999999995
20
-68.6815009999999972
40
0.500001
50
90.00000000
51
180.00000000
0
LINE
8
BLACK
6
CONTINUOUS
10
-17.125
20
-37.5
11
-17.125
21
-39.
0
ARC
8
BLACK
10
247.7372000000000014
20
-106.8065999999999889
40
0.5001000024995
50
0.01145755
51
89.99427157
0
ARC
8
BLACK
10
299.2559999999999718
20
-44.8689999999999998
40
0.5
50
90.00000000
51
180.00000000
0
ARC
8
BLACK
10
180.1936000000000035
20
-81.6814999999999998
40
0.5000000099999998
50
-180.00000000
51
-90.01145916
0
ARC
8
BLACK
10
-2.6249989999999999
20
-161.7499990000000025
40
0.249999000002
50
-0.00022918
51
90.00022918
0
LINE
8
BLACK
6
CONTINUOUS
10
113.0184999999999889
20
-87.7314999999999969
11
113.0184999999999889
21
-100.7314999999999969
0
LINE
8
BLACK
6
CONTINUOUS
10
156.3810000000000002
20
-120.2814999999999941
11
169.9809999999999945
21
-120.2814999999999941
0
LINE
8
BLACK
6
CONTINUOUS
10
219.2372499999999889
20
-120.2564999999999884
11
245.2372499999999889
21
-120.2564999999999884
0
ARC
8
BLACK
10
86.9749999999999943
20
-162.75
40
0.25
50
-90.00000000
51
-0.00000000
0
ARC
8
BLACK
10
8.7435999999999989
20
-57.8689999999999998
40
0.5000000099999998
50
-180.00000000
51
-90.01145916
0
CIRCLE
8
BLACK
10
163.875
20
-165.5
40
1.25
0
ARC
8
BLACK
10
222.3684999999999832
20
-87.7314999999999969
40
0.5
50
0.00000000
51
90.00000000
0
LINE
8
BLACK
6
CONTINUOUS
10
179.6935000000000002
20
-68.6814999999999998
11
179.6935000000000002
21
-81.6814999999999998
0
ARC
8
BLACK
10
196.7749999999999773
20
-41.25
40
0.25
50
-180.00000000
51
-90.00000000
0
LINE
8
BLACK
6
CONTINUOUS
10
108.5685000000000002
20
-100.7314999999999969
11
108.5685000000000002
21
-87.7314999999999969
0
ARC
8
BLACK
10
248.56219999999999
20
-157.8814999999999884
40
0.50005
50
-89.99427065
51
-0.00000000
0
LINE
8
BLACK
6
CONTINUOUS
10
196.7749999999999773
20
-41.5
11
275.625
21
-41.5
0
LINE
8
BLACK
6
CONTINUOUS
10
-29.8564999999999969
20
-68.6815009999999972
11
-29.8564999999999969
21
-81.6814999999999998
0
ARC
8
BLACK
10
186.2750000000000057
20
-40.25
40
0.25
50
0.00000000
51
90.00000000
0
LINE
8
BLACK
6
CONTINUOUS
10
79.4934999999999974
20
-44.3689999999999998
11
65.8935000000000031
21
-44.3689999999999998
0
LINE
8
BLACK
6
CONTINUOUS
10
-27.625
20
-39.9999989999999954
11
-27.625
21
-37.5
0
LINE
8
BLACK
6
CONTINUOUS
10
261.875
20
-166.5
11
299.875
21
-166.5
0
ARC
8
BLACK
10
170.6684999999999945
20
-87.7314999999999969
40
0.5
50
90.00000000
51
180.00000000
0
ARC
8
BLACK
10
-29.1250009999999975
20
-163.0000009999999975
40
1.5000009999999999
50
0.00000000
51
90.00000000
0
LINE
8
BLACK
6
CONTINUOUS
10
60.4435000000000002
20
-68.1814999999999998
11
46.8434999999999988
21
-68.1814999999999998
0
LINE
8
BLACK
6
CONTINUOUS
10
89.2059999999999889
20
-125.8314999999999912
11
89.2059999999999889
21
-138.8315000000000055
0
LINE
8
BLACK
6
CONTINUOUS
10
32.3684999999999974
20
-100.7314999999999969
11
32.3684999999999974
21
-87.7314999999999969
0
LINE
8
BLACK
6
CONTINUOUS
10
293.8059999999999832
20
-125.3314999999999912
11
280.2059999999999604
21
-125.3314999999999912
0
ARC
8
BLACK
10
163.5245999999999924
20
-144.8813999999999851
40
0.4998500100030008
50
-270.01719286
51
-179.98853741
0
LINE
8
BLACK
6
CONTINUOUS
10
306.125
20
-40.
11
306.125
21
-37.5
0
ARC
8
BLACK
10
108.7560000000000002
20
-125.8314999999999912
40
0.5
50
90.00000000
51
180.00000000
0
LINE
8
BLACK
6
CONTINUOUS
10
306.375
20
-165.5
11
306.375
21
-163.
0
ARC
8
BLACK
10
12.8183899999999991
20
-100.7314599999999984
40
0.500110001599648
50
-89.98739770
51
-0.00458265
0
LINE
8
BLACK
6
CONTINUOUS
10
-8.6127500000000001
20
-106.2814989999999966
11
-22.2127499999999998
21
-106.2814989999999966
0
LINE
8
BLACK
6
CONTINUOUS
10
225.2497499999999775
20
-157.8814999999999884
11
225.2497499999999775
21
-144.8814999999999884
0
LINE
8
BLACK
6
CONTINUOUS
10
275.625
20
-163.
11
261.875
21
-163.
0
ARC
8
BLACK
10
55.1806999999999945
20
-144.9316000000000031
40
0.5001000024995
50
0.01145755
51
89.99427157
0
ARC
8
BLACK
10
293.8059000000000083
20
-81.6814999999999998
40
0.5001
50
-89.98854245
51
-0.00000000
0
ARC
8
BLACK
10
313.7051999999999907
20
-110.3920999999999992
40
1.2009426770574856
50
-20.21003429
51
70.71475179
0
LINE
8
BLACK
6
CONTINUOUS
10
-15.2564999999999991
20
-57.8689999999999998
11
-15.2564999999999991
21
-44.8689999999999998
0
ARC
8
BLACK
10
186.2750000000000057
20
-41.25
40
0.25
50
-90.00000000
51
-0.00000000
0
ARC
8
BLACK
10
299.875
20
-37.5
40
1.
50
0.00000000
51
90.00000000
0
LINE
8
BLACK
6
CONTINUOUS
10
93.7809999999999917
20
-106.2814999999999941
11
80.1809999999999974
21
-106.2814999999999941
0
LINE
8
BLACK
6
CONTINUOUS
10
274.7559999999999718
20
-68.1814999999999998
11
261.1560000000000059
21
-68.1814999999999998
0
ARC
8
BLACK
10
123.0435999999999979
20
-81.6814999999999998
40
0.5000000099999998
50
-180.00000000
51
-90.01145916
0
ARC
8
BLACK
10
234.9620999999999924
20
-144.8813999999999851
40
0.4998500100030008
50
-270.01719286
51
-179.98853741
0
LINE
8
BLACK
6
CONTINUOUS
10
-3.16275
20
-158.3814999999999884
11
10.4372499999999988
21
-158.3814999999999884
0
ARC
8
BLACK
10
21.875
20
-37.5
40
1.
50
0.00000000
51
90.00000000
0
ARC
8
BLACK
10
93.7809000000000026
20
-119.7814999999999941
40
0.5001
50
-89.98854245
51
-0.00000000
0
ARC
8
BLACK
10
98.5434999999999945
20
-68.6814999999999998
40
0.5
50
0.00000000
51
90.00000000
0
LINE
8
BLACK
6
CONTINUOUS
10
84.4435000000000002
20
-68.6814999999999998
11
84.4435000000000002
21
-81.6814999999999998
0
LINE
8
BLACK
6
CONTINUOUS
10
166.375
20
-165.5
11
166.375
21
-163.
0
LINE
8
BLACK
6
CONTINUOUS
10
18.2684999999999995
20
-101.2314999999999969
11
31.8684999999999974
21
-101.2314999999999969
0
ARC
8
BLACK
10
46.1559999999999988
20
-125.8314999999999912
40
0.5
50
0.00000000
51
90.00000000
0
LINE
8
BLACK
6
CONTINUOUS
10
70.4684999999999917
20
-100.7314999999999969
11
70.4684999999999917
21
-87.7314999999999969
0
LINE
8
BLACK
6
CONTINUOUS
10
-25.0939999999999976
20
-87.7314969999999903
11
-25.0939999999999976
21
-100.7314969999999903
0
ARC
8
BLACK
10
46.843599999999995
20
-57.8689999999999998
40
0.5000000099999998
50
-180.00000000
51
-90.01145916
0
ARC
8
BLACK
10
211.375
20
-39.
40
1.
50
-90.00000000
51
-0.00000000
0
LINE
8
BLACK
6
CONTINUOUS
10
165.2185000000000059
20
-87.2314999999999969
11
151.6184999999999832
21
-87.2314999999999969
0
ARC
8
BLACK
10
280.2059999999999604
20
-44.8689999999999998
40
0.5
50
90.00000000
51
180.00000000
0
LINE
8
BLACK
6
CONTINUOUS
10
261.1560000000000059
20
-158.3814999999999884
11
274.7559999999999718
21
-158.3814999999999884
0
LINE
8
BLACK
6
CONTINUOUS
10
34.2497499999999988
20
-144.3814999999999884
11
20.6497499999999974
21
-144.3814999999999884
0
ARC
8
BLACK
10
86.9749999999999943
20
-41.25
40
0.25
50
-90.00000000
51
-0.00000000
0
LINE
8
BLACK
6
CONTINUOUS
10
71.375
20
-37.5
11
71.375
21
-39.
0
ARC
8
BLACK
10
-3.1627519999999998
20
-157.8815050000000042
40
0.499995000004
50
-180.00057296
51
-89.99977081
0
ARC
8
BLACK
10
293.8059999999999832
20
-68.6814999999999998
40
0.5
50
0.00000000
51
90.00000000
0
ARC
8
BLACK
10
165.9060000000000059
20
-125.8314999999999912
40
0.5
50
90.00000000
51
180.00000000
0
ARC
8
BLACK
10
151.6184999999999832
20
-87.7314999999999969
40
0.5
50
90.00000000
51
180.00000000
0
LINE
8
BLACK
6
CONTINUOUS
10
300.875
20
-165.5
11
300.875
21
-164.
0
ARC
8
BLACK
10
27.7935999999999979
20
-81.6814999999999998
40
0.5000000099999998
50
-180.00000000
51
-90.01145916
0
LINE
8
BLACK
6
CONTINUOUS
10
-16.125
20
-40.
11
-2.375
21
-40.
0
ARC
8
BLACK
10
51.6060999999999979
20
-138.8315000000000055
40
0.5000000099999998
50
-180.00000000
51
-90.01145916
0
ARC
8
BLACK
10
312.8558999999999628
20
-57.8689999999999998
40
0.5001
50
-89.98854245
51
-0.00000000
0
LINE
8
BLACK
6
CONTINUOUS
10
155.8810000000000002
20
-106.7814999999999941
11
155.8810000000000002
21
-119.7814999999999941
0
LINE
8
BLACK
6
CONTINUOUS
10
91.5872499999999974
20
-144.8814999999999884
11
91.5872499999999974
21
-157.8814999999999884
0
ARC
8
BLACK
10
293.8059000000000083
20
-100.7314999999999969
40
0.5001
50
-89.98854245
51
-0.00000000
0
LINE
8
BLACK
6
CONTINUOUS
10
-23.6502499999999998
20
-139.3064999999999998
11
2.3497499999999998
21
-139.3064999999999998
0
ARC
8
BLACK
10
169.9809999999999945
20
-106.7814999999999941
40
0.5
50
0.00000000
51
90.00000000
0
LINE
8
BLACK
6
CONTINUOUS
10
298.7559999999999718
20
-44.8689999999999998
11
298.7559999999999718
21
-57.8689999999999998
0
LINE
8
BLACK
6
CONTINUOUS
10
70.6559999999999917
20
-139.3315000000000055
11
84.2560000000000002
21
-139.3315000000000055
0
LINE
8
BLACK
6
CONTINUOUS
10
165.9060000000000059
20
-139.3315000000000055
11
179.5060000000000002
21
-139.3315000000000055
0
LINE
8
BLACK
6
CONTINUOUS
10
-2.625
20
-161.5
11
-21.125
21
-161.5
0
ARC
8
BLACK
10
89.7059999999999889
20
-125.8314999999999912
40
0.5
50
90.00000000
51
180.00000000
0
LINE
8
BLACK
6
CONTINUOUS
10
298.7559999999999718
20
-68.6814999999999998
11
298.7559999999999718
21
-81.6814999999999998
0
ARC
8
BLACK
10
171.6749999999999829
20
-165.5
40
1.
50
-180.00000000
51
-90.00000000
0
ARC
8
BLACK
10
42.0810999999999993
20
-119.7814999999999941
40
0.5000000099999998
50
-180.00000000
51
-90.01145916
0
LINE
8
BLACK
6
CONTINUOUS
10
79.9934999999999974
20
-57.8689999999999998
11
79.9934999999999974
21
-44.8689999999999998
0
ARC
8
BLACK
10
212.8434999999999775
20
-68.6814999999999998
40
0.5
50
0.00000000
51
90.00000000
0
ARC
8
BLACK
10
155.6933999999999969
20
-81.6814999999999998
40
0.5001
50
-89.98854245
51
-0.00000000
0
LINE
8
BLACK
6
CONTINUOUS
10
193.7934999999999945
20
-44.3689999999999998
11
180.1935000000000002
21
-44.3689999999999998
0
ARC
8
BLACK
10
32.5559999999999974
20
-125.8314999999999912
40
0.5
50
90.00000000
51
180.00000000
0
ARC
8
BLACK
10
287.0060100000000034
20
-186.2137989999999945
40
81.58611800543909
50
70.60291138
51
109.39708862
0
LINE
8
BLACK
6
CONTINUOUS
10
127.6184999999999974
20
-100.7314999999999969
11
127.6184999999999974
21
-87.7314999999999969
0
ARC
8
BLACK
10
-10.9939939999999989
20
-87.7314609999999959
40
0.4999640000360026
50
-0.00412559
51
90.00068760
0
LINE
8
BLACK
6
CONTINUOUS
10
44.375
20
-163.
11
44.375
21
-165.5
0
ARC
8
BLACK
10
27.1059999999999981
20
-125.8314999999999912
40
0.5
50
0.00000000
51
90.00000000
0
ARC
8
BLACK
10
-29.3564989999999995
20
-57.8689989999999952
40
0.500001
50
-179.99988541
51
-90.00000000
0
LINE
8
BLACK
6
CONTINUOUS
10
23.0309999999999988
20
-120.2814999999999941
11
36.6310000000000002
21
-120.2814999999999941
0
LINE
8
BLACK
6
CONTINUOUS
10
294.3059999999999832
20
-100.7314999999999969
11
294.3059999999999832
21
-87.7314999999999969
0
LINE
8
BLACK
6
CONTINUOUS
10
74.9184999999999945
20
-87.7314999999999969
11
74.9184999999999945
21
-100.7314999999999969
0
LINE
8
BLACK
6
CONTINUOUS
10
280.2059999999999604
20
-58.3689999999999998
11
293.8059999999999832
21
-58.3689999999999998
0
LINE
8
BLACK
6
CONTINUOUS
10
313.3559999999999945
20
-100.7314999999999969
11
313.3559999999999945
21
-87.7314999999999969
0
ARC
8
BLACK
10
61.1310000000000002
20
-106.7814999999999941
40
0.5
50
90.00000000
51
180.00000000
0
LINE
8
BLACK
6
CONTINUOUS
10
260.6560000000000059
20
-44.8689999999999998
11
260.6560000000000059
21
-57.8689999999999998
0
LINE
8
BLACK
6
CONTINUOUS
10
118.0934999999999917
20
-81.6814999999999998
11
118.0934999999999917
21
-68.6814999999999998
0
LINE
8
BLACK
6
CONTINUOUS
10
20.1497499999999974
20
-144.8814999999999884
11
20.1497499999999974
21
-157.8814999999999884
0
ARC
8
BLACK
10
280.2059999999999604
20
-157.8814999999999884
40
0.5
50
-180.00000000
51
-90.00000000
0
LINE
8
BLACK
6
CONTINUOUS
10
248.2372499999999889
20
-118.5244999999999891
11
248.2372499999999889
21
-106.8064999999999998
0
LINE
8
BLACK
6
CONTINUOUS
10
279.7059999999999604
20
-68.6814999999999998
11
279.7059999999999604
21
-81.6814999999999998
0
ARC
8
BLACK
10
13.5061
20
-138.8315000000000055
40
0.5000000099999998
50
-180.00000000
51
-90.01145916
0
LINE
8
BLACK
6
CONTINUOUS
10
99.2309999999999945
20
-120.2814999999999941
11
112.8309999999999889
21
-120.2814999999999941
0
ARC
8
BLACK
10
231.8934999999999889
20
-44.8689999999999998
40
0.5
50
0.00000000
51
90.00000000
0
LINE
8
BLACK
6
CONTINUOUS
10
-0.7815
20
-101.2314999999999969
11
12.8185000000000002
21
-101.2314999999999969
0
ARC
8
BLACK
10
224.74969999999999
20
-144.8815999999999917
40
0.5001000024995
50
0.01145755
51
89.99427157
0
LINE
8
BLACK
6
CONTINUOUS
10
-24.5939999999999976
20
-101.2314969999999903
11
-10.9939999999999998
21
-101.2314969999999903
0
LINE
8
BLACK
6
CONTINUOUS
10
3.2934999999999999
20
-68.1814999999999998
11
-10.3064999999999998
21
-68.1814999999999998
0
ARC
8
BLACK
10
3.2934999999999999
20
-68.6814999999999998
40
0.5
50
0.00000000
51
90.00000000
0
LINE
8
BLACK
6
CONTINUOUS
10
4.8497499999999993
20
-125.3564999999999969
11
-26.1502499999999998
21
-125.3564999999999969
0
LINE
8
BLACK
6
CONTINUOUS
10
65.8935000000000031
20
-82.1814999999999998
11
79.4934999999999974
21
-82.1814999999999998
0
ARC
8
BLACK
10
108.7560999999999893
20
-138.8315000000000055
40
0.5000000099999998
50
-180.00000000
51
-90.01145916
0
LINE
8
BLACK
6
CONTINUOUS
10
94.4684999999999917
20
-58.3689999999999998
11
108.0685000000000002
21
-58.3689999999999998
0
LINE
8
BLACK
6
CONTINUOUS
10
-15.7564999999999991
20
-44.3689999999999998
11
-29.3564989999999995
21
-44.3689999999999998
0
ARC
8
BLACK
10
-2.3749989999999999
20
-41.2500009999999975
40
0.249999000002
50
-90.00022918
51
0.00022918
0
ARC
8
BLACK
10
155.6935000000000002
20
-68.6814999999999998
40
0.5
50
0.00000000
51
90.00000000
0
ARC
8
BLACK
10
155.1937000000000069
20
-144.9316000000000031
40
0.5001000024995
50
0.01145755
51
89.99427157
0
LINE
8
BLACK
6
CONTINUOUS
10
313.3559999999999945
20
-57.8689999999999998
11
313.3559999999999945
21
-44.8689999999999998
0
LINE
8
BLACK
6
CONTINUOUS
10
161.375
20
-40.
11
161.375
21
-37.5
0
ARC
8
BLACK
10
136.6434999999999889
20
-68.6814999999999998
40
0.5
50
0.00000000
51
90.00000000
0
ARC
8
BLACK
10
127.1183999999999941
20
-100.7314999999999969
40
0.5001
50
-89.98854245
51
-0.00000000
0
ARC
8
BLACK
10
184.9560999999999922
20
-138.8315000000000055
40
0.5000000099999998
50
-180.00000000
51
-90.01145916
0
ARC
8
BLACK
10
299.875
20
-39.
40
1.
50
-90.00000000
51
-0.00000000
0
LINE
8
BLACK
6
CONTINUOUS
10
196.7749999999999773
20
-40.
11
211.375
21
-40.
0
ARC
8
BLACK
10
74.7308999999999912
20
-119.7814999999999941
40
0.5001
50
-89.98854245
51
-0.00000000
0
CIRCLE
8
BLACK
10
39.3560099999999977
20
-151.3814999999999884
40
1.
0
LINE
8
BLACK
6
CONTINUOUS
10
-22.7127499999999998
20
-106.7814999999999941
11
-22.7127499999999998
21
-119.7814989999999966
0
ARC
8
BLACK
10
89.0185000000000031
20
-87.7314999999999969
40
0.5
50
0.00000000
51
90.00000000
0
ARC
8
BLACK
10
-3.162709
20
-144.8815409999999986
40
0.5000410016808622
50
90.00469787
51
179.99530213
0
LINE
8
BLACK
6
CONTINUOUS
10
165.7185000000000059
20
-100.7314999999999969
11
165.7185000000000059
21
-87.7314999999999969
0
LINE
8
BLACK
6
CONTINUOUS
10
250.1434999999999889
20
-68.2064999999999912
11
219.1434999999999889
21
-68.2064999999999912
0
ARC
8
BLACK
10
112.8309999999999889
20
-106.7814999999999941
40
0.5
50
0.00000000
51
90.00000000
0
LINE
8
BLACK
6
CONTINUOUS
10
-15.7564999999999991
20
-68.1814999999999998
11
-29.3564989999999995
21
-68.1814999999999998
0
LINE
8
BLACK
6
CONTINUOUS
10
246.1809999999999832
20
-87.2314999999999969
11
232.5809999999999889
21
-87.2314999999999969
0
LINE
8
BLACK
6
CONTINUOUS
10
-32.125
20
-159.5
11
-32.125
21
-43.4999989999999954
0
LINE
8
BLACK
6
CONTINUOUS
10
163.0247499999999832
20
-144.8814999999999884
11
163.0247499999999832
21
-157.8814999999999884
0
LINE
8
BLACK
6
CONTINUOUS
10
32.5559999999999974
20
-139.3315000000000055
11
46.1559999999999988
21
-139.3315000000000055
0
ARC
8
BLACK
10
27.7934999999999981
20
-44.8689999999999998
40
0.5
50
90.00000000
51
180.00000000
0
ARC
8
BLACK
10
136.6433999999999855
20
-81.6814999999999998
40
0.5001
50
-89.98854245
51
-0.00000000
0
LINE
8
BLACK
6
CONTINUOUS
10
74.7309999999999945
20
-106.2814999999999941
11
61.1310000000000002
21
-106.2814999999999941
0
CIRCLE
8
BLACK
10
115.5560100000000006
20
-113.2814999999999941
40
1.
0
ARC
8
BLACK
10
177.12469999999999
20
-157.8814999999999884
40
0.50005
50
-89.99427065
51
-0.00000000
0
ARC
8
BLACK
10
3.9809999999999999
20
-106.7814999999999941
40
0.5
50
90.00000000
51
180.00000000
0
ARC
8
BLACK
10
10.4371999999999989
20
-144.8815999999999917
40
0.5001000024995
50
0.01145755
51
89.99427157
0
LINE
8
BLACK
6
CONTINUOUS
10
-1.2814999999999999
20
-87.7314999999999969
11
-1.2814999999999999
21
-100.7314999999999969
0
ARC
8
BLACK
10
92.087299999999999
20
-157.8813999999999851
40
0.5001000024995
50
-179.98854382
51
-90.00572843
0
ARC
8
BLACK
10
280.2059999999999604
20
-68.6814999999999998
40
0.5
50
90.00000000
51
180.00000000
0
CIRCLE
8
BLACK
10
296.5310099999999807
20
-51.369019999999999
40
1.
0
LINE
8
BLACK
6
CONTINUOUS
10
-26.9752499999999991
20
-158.3814999999999884
11
-13.3752499999999994
21
-158.3814999999999884
0
ARC
8
BLACK
10
122.3558999999999912
20
-138.8315000000000055
40
0.5001
50
-89.98854245
51
-0.00000000
0
ARC
8
BLACK
10
-10.3065160000000002
20
-81.681516000000002
40
0.4999840002560081
50
-180.00183352
51
-89.99816648
0
LINE
8
BLACK
6
CONTINUOUS
10
27.2934999999999981
20
-68.6814999999999998
11
27.2934999999999981
21
-81.6814999999999998
0
ARC
8
BLACK
10
161.1435999999999922
20
-81.6814999999999998
40
0.5000000099999998
50
-180.00000000
51
-90.01145916
0
ARC
8
BLACK
10
312.8559999999999945
20
-44.8689999999999998
40
0.5
50
0.00000000
51
90.00000000
0
LINE
8
BLACK
6
CONTINUOUS
10
151.6184999999999832
20
-58.3689999999999998
11
165.2185000000000059
21
-58.3689999999999998
0
ARC
8
BLACK
10
203.3185000000000002
20
-87.7314999999999969
40
0.5
50
0.00000000
51
90.00000000
0
LINE
8
BLACK
6
CONTINUOUS
10
131.8810000000000002
20
-106.2814999999999941
11
118.2809999999999917
21
-106.2814999999999941
0
ARC
8
BLACK
10
-10.9941119999999994
20
-100.7314549999999969
40
0.5001120017636049
50
-89.98716862
51
-0.00481177
0
ARC
8
BLACK
10
86.9749999999999943
20
-161.75
40
0.25
50
0.00000000
51
90.00000000
0
LINE
8
BLACK
6
CONTINUOUS
10
39.375
20
-165.5
11
39.375
21
-163.
0
CIRCLE
8
BLACK
10
211.9966399999999851
20
-113.2814999999999941
40
1.
0
LINE
8
BLACK
6
CONTINUOUS
10
260.6560000000000059
20
-68.6814999999999998
11
260.6560000000000059
21
-81.6814999999999998
0
ARC
8
BLACK
10
171.6749999999999829
20
-39.
40
1.
50
-180.00000000
51
-90.00000000
0
LINE
8
BLACK
6
CONTINUOUS
10
97.4749999999999943
20
-40.
11
112.0749999999999886
21
-40.
0
ARC
8
BLACK
10
45.875
20
-163.
40
1.5
50
90.00000000
51
180.00000000
0
CIRCLE
8
BLACK
10
44.1184909999999988
20
-75.1814999999999998
40
1.
0
LINE
8
BLACK
6
CONTINUOUS
10
8.125
20
-40.
11
21.875
21
-40.
0
LINE
8
BLACK
6
CONTINUOUS
10
194.2934999999999945
20
-57.8689999999999998
11
194.2934999999999945
21
-44.8689999999999998
0
LINE
8
BLACK
6
CONTINUOUS
10
232.3934999999999889
20
-57.8689999999999998
11
232.3934999999999889
21
-44.8689999999999998
0
ARC
8
BLACK
10
23.0309999999999988
20
-106.7814999999999941
40
0.5
50
90.00000000
51
180.00000000
0
ARC
8
BLACK
10
232.5810999999999922
20
-100.7314999999999969
40
0.5000000099999998
50
-180.00000000
51
-90.01145916
0
LINE
8
BLACK
6
CONTINUOUS
10
203.8185000000000002
20
-100.7314999999999969
11
203.8185000000000002
21
-87.7314999999999969
0
LINE
8
BLACK
6
CONTINUOUS
10
7.875
20
-40.25
11
7.875
21
-41.25
0
LINE
8
BLACK
6
CONTINUOUS
10
279.7059999999999604
20
-144.8814999999999884
11
279.7059999999999604
21
-157.8814999999999884
0
ARC
8
BLACK
10
103.9936000000000007
20
-81.6814999999999998
40
0.5000000099999998
50
-180.00000000
51
-90.01145916
0
LINE
8
BLACK
6
CONTINUOUS
10
41.893499999999996
20
-81.6814999999999998
11
41.893499999999996
21
-68.6814999999999998
0
LINE
8
BLACK
6
CONTINUOUS
10
261.875
20
-40.
11
275.625
21
-40.
0
LINE
8
BLACK
6
CONTINUOUS
10
65.3935000000000031
20
-44.8689999999999998
11
65.3935000000000031
21
-57.8689999999999998
0
LINE
8
BLACK
6
CONTINUOUS
10
-15.2564999999999991
20
-81.6814999999999998
11
-15.2564999999999991
21
-68.6814999999999998
0
LINE
8
BLACK
6
CONTINUOUS
10
-17.125
20
-164.
11
-17.125
21
-165.5
0
LINE
8
BLACK
6
CONTINUOUS
10
46.1559999999999988
20
-125.3314999999999912
11
32.5559999999999974
21
-125.3314999999999912
0
LINE
8
BLACK
6
CONTINUOUS
10
10.4372499999999988
20
-144.3814999999999884
11
-3.16275
21
-144.3814999999999884
0
ARC
8
BLACK
10
175.4309999999999832
20
-106.7814999999999941
40
0.5
50
90.00000000
51
180.00000000
0
LINE
8
BLACK
6
CONTINUOUS
10
232.5809999999999889
20
-101.2314999999999969
11
246.1809999999999832
21
-101.2314999999999969
0
ARC
8
BLACK
10
250.9435000000000002
20
-44.8689999999999998
40
0.5
50
0.00000000
51
90.00000000
0
LINE
8
BLACK
6
CONTINUOUS
10
166.375
20
-37.5
11
166.375
21
-40.
0
LINE
8
BLACK
6
CONTINUOUS
10
299.2559999999999718
20
-158.3814999999999884
11
312.8559999999999945
21
-158.3814999999999884
0
LINE
8
BLACK
6
CONTINUOUS
10
274.7559999999999718
20
-87.2314999999999969
11
261.1560000000000059
21
-87.2314999999999969
0
ARC
8
BLACK
10
84.2558999999999969
20
-138.8315000000000055
40
0.5001
50
-89.98854245
51
-0.00000000
0
CIRCLE
8
BLACK
10
-6.9283599999999996
20
-151.3814999999999884
40
1.
0
ARC
8
BLACK
10
132.5685000000000002
20
-87.7314999999999969
40
0.5
50
90.00000000
51
180.00000000
0
LINE
8
BLACK
6
CONTINUOUS
10
174.7434999999999832
20
-68.1814999999999998
11
161.1434999999999889
21
-68.1814999999999998
0
ARC
8
BLACK
10
246.1808999999999799
20
-100.7314999999999969
40
0.5001
50
-89.98854245
51
-0.00000000
0
ARC
8
BLACK
10
22.343399999999999
20
-57.8689999999999998
40
0.5001
50
-89.98854245
51
-0.00000000
0
LINE
8
BLACK
6
CONTINUOUS
10
208.0809999999999889
20
-106.2814999999999941
11
194.4809999999999945
21
-106.2814999999999941
0
LINE
8
BLACK
6
CONTINUOUS
10
132.0685000000000002
20
-44.8689999999999998
11
132.0685000000000002
21
-57.8689999999999998
0
LINE
8
BLACK
6
CONTINUOUS
10
260.875
20
-37.5
11
260.875
21
-39.
0
LINE
8
BLACK
6
CONTINUOUS
10
196.5249999999999773
20
-162.75
11
196.5249999999999773
21
-161.75
0
LINE
8
BLACK
6
CONTINUOUS
10
275.625
20
-161.5
11
196.7749999999999773
21
-161.5
0
LINE
8
BLACK
6
CONTINUOUS
10
249.0622499999999775
20
-157.8814999999999884
11
249.0622499999999775
21
-144.8814999999999884
0
ARC
8
BLACK
10
37.875
20
-163.
40
1.5
50
0.00000000
51
90.00000000
0
ARC
8
BLACK
10
261.875
20
-164.
40
1.
50
90.00000000
51
180.00000000
0
ARC
8
BLACK
10
299.2559999999999718
20
-68.6814999999999998
40
0.5
50
90.00000000
51
180.00000000
0
LINE
8
BLACK
6
CONTINUOUS
10
294.3059999999999832
20
-138.8315000000000055
11
294.3059999999999832
21
-125.8314999999999912
0
LINE
8
BLACK
6
CONTINUOUS
10
212.375
20
-164.
11
212.375
21
-165.5
0
LINE
8
BLACK
6
CONTINUOUS
10
8.2434999999999992
20
-68.6814999999999998
11
8.2434999999999992
21
-81.6814999999999998
0
LINE
8
BLACK
6
CONTINUOUS
10
8.125
20
-41.5
11
37.625
21
-41.5
0
ARC
8
BLACK
10
-26.975248999999998
20
-157.8814989999999909
40
0.500001000001
50
-179.99988541
51
-90.00011459
0
LINE
8
BLACK
6
CONTINUOUS
10
113.0749999999999886
20
-165.5
11
113.0749999999999886
21
-164.
0
ARC
8
BLACK
10
-24.5940159999999999
20
-100.7315129999999925
40
0.4999840002560081
50
-180.00183352
51
-89.99816648
0
LINE
8
BLACK
6
CONTINUOUS
10
245.2372499999999889
20
-120.2564999999999884
11
248.2372499999999889
21
-118.5244999999999891
0
LINE
8
BLACK
6
CONTINUOUS
10
46.3434999999999988
20
-68.6814999999999998
11
46.3434999999999988
21
-81.6814999999999998
0
LINE
8
BLACK
6
CONTINUOUS
10
171.6749999999999829
20
-163.
11
186.2750000000000057
21
-163.
0
LINE
8
BLACK
6
CONTINUOUS
10
199.0559999999999832
20
-138.8315000000000055
11
199.0559999999999832
21
-125.8314999999999912
0
LINE
8
BLACK
6
CONTINUOUS
10
312.875
20
-161.5
11
313.375
21
-161.5
0
ARC
8
BLACK
10
189.7184999999999775
20
-87.7314999999999969
40
0.5
50
90.00000000
51
180.00000000
0
LINE
8
BLACK
6
CONTINUOUS
10
179.5060000000000002
20
-125.3314999999999912
11
165.9060000000000059
21
-125.3314999999999912
0
ARC
8
BLACK
10
261.1560999999999808
20
-100.7314999999999969
40
0.5000000099999998
50
-180.00000000
51
-90.01145916
0
LINE
8
BLACK
6
CONTINUOUS
10
122.3559999999999945
20
-125.3314999999999912
11
108.7560000000000002
21
-125.3314999999999912
0
CIRCLE
8
BLACK
10
308.875
20
-37.5
40
1.25
0
ARC
8
BLACK
10
56.3686000000000007
20
-100.7314999999999969
40
0.5000000099999998
50
-180.00000000
51
-90.01145916
0
LINE
8
BLACK
6
CONTINUOUS
10
97.2249999999999943
20
-161.75
11
97.2249999999999943
21
-162.75
0
LINE
8
BLACK
6
CONTINUOUS
10
112.8309999999999889
20
-106.2814999999999941
11
99.2309999999999945
21
-106.2814999999999941
0
ARC
8
BLACK
10
293.8059999999999832
20
-125.8314999999999912
40
0.5
50
0.00000000
51
90.00000000
0
LINE
8
BLACK
6
CONTINUOUS
10
-12.8752499999999994
20
-157.8814999999999884
11
-12.8752499999999994
21
-144.8814999999999884
0
ARC
8
BLACK
10
132.5685000000000002
20
-44.8689999999999998
40
0.5
50
90.00000000
51
180.00000000
0
CIRCLE
8
BLACK
10
-25.125
20
-37.5
40
1.25
0
ARC
8
BLACK
10
275.625
20
-41.25
40
0.25
50
-90.00000000
51
-0.00000000
0
LINE
8
BLACK
6
CONTINUOUS
10
184.7684999999999889
20
-100.7314999999999969
11
184.7684999999999889
21
-87.7314999999999969
0
CIRCLE
8
BLACK
10
44.1184909999999988
20
-51.369019999999999
40
1.
0
ARC
8
BLACK
10
97.4749999999999943
20
-41.25
40
0.25
50
-180.00000000
51
-90.00000000
0
LINE
8
BLACK
6
CONTINUOUS
10
89.7059999999999889
20
-139.3315000000000055
11
103.3059999999999974
21
-139.3315000000000055
0
LINE
8
BLACK
6
CONTINUOUS
10
261.1560000000000059
20
-58.3689999999999998
11
274.7559999999999718
21
-58.3689999999999998
0
CIRCLE
8
BLACK
10
86.9810099999999977
20
-51.369019999999999
40
1.
0
ARC
8
BLACK
10
141.4059000000000026
20
-138.8315000000000055
40
0.5001
50
-89.98854245
51
-0.00000000
0
LINE
8
BLACK
6
CONTINUOUS
10
275.875
20
-162.75
11
275.875
21
-161.75
0
LINE
8
BLACK
6
CONTINUOUS
10
170.6684999999999945
20
-101.2314999999999969
11
184.2684999999999889
21
-101.2314999999999969
0
ARC
8
BLACK
10
174.7433999999999799
20
-81.6814999999999998
40
0.5001
50
-89.98854245
51
-0.00000000
0
LINE
8
BLACK
6
CONTINUOUS
10
247.7372499999999889
20
-106.3064999999999998
11
216.7372499999999889
21
-106.3064999999999998
0
ARC
8
BLACK
10
309.886099999999999
20
-120.7346000000000004
40
1.200489730821551
50
-109.23801668
51
-20.28266420
0
LINE
8
BLACK
6
CONTINUOUS
10
213.3434999999999775
20
-57.8689999999999998
11
213.3434999999999775
21
-44.8689999999999998
0
CIRCLE
8
BLACK
10
181.040379999999999
20
-151.3814999999999884
40
1.
0
ARC
8
BLACK
10
72.375
20
-164.
40
1.
50
90.00000000
51
180.00000000
0
LINE
8
BLACK
6
CONTINUOUS
10
103.9934999999999974
20
-82.1814999999999998
11
117.5934999999999917
21
-82.1814999999999998
0
LINE
8
BLACK
6
CONTINUOUS
10
-3.66275
20
-144.8814999999999884
11
-3.66275
21
-157.8814999999999884
0
ARC
8
BLACK
10
142.5935999999999808
20
-144.9313999999999965
40
0.4998500100030008
50
-270.01719286
51
-179.98853741
0
ARC
8
BLACK
10
187.3370999999999924
20
-144.8813999999999851
40
0.4998500100030008
50
-270.01719286
51
-179.98853741
0
LINE
8
BLACK
6
CONTINUOUS
10
3.4809999999999999
20
-106.7814999999999941
11
3.4809999999999999
21
-119.7814999999999941
0
LINE
8
BLACK
6
CONTINUOUS
10
151.1184999999999832
20
-87.7314999999999969
11
151.1184999999999832
21
-100.7314999999999969
0
LINE
8
BLACK
6
CONTINUOUS
10
260.6560000000000059
20
-144.8814999999999884
11
260.6560000000000059
21
-157.8814999999999884
0
CIRCLE
8
BLACK
10
254.8591199999999901
20
-75.1814999999999998
40
1.
0
ARC
8
BLACK
10
84.2560000000000002
20
-125.8314999999999912
40
0.5
50
0.00000000
51
90.00000000
0
ARC
8
BLACK
10
41.3933999999999997
20
-81.6814999999999998
40
0.5001
50
-89.98854245
51
-0.00000000
0
ARC
8
BLACK
10
41.393499999999996
20
-68.6814999999999998
40
0.5
50
0.00000000
51
90.00000000
0
ARC
8
BLACK
10
122.3559999999999945
20
-125.8314999999999912
40
0.5
50
0.00000000
51
90.00000000
0
ARC
8
BLACK
10
313.875
20
-43.5
40
2.
50
0.00000000
51
90.00000000
0
ARC
8
BLACK
10
-22.2127489999999987
20
-119.7814979999999991
40
0.500001
50
-179.99988541
51
-90.00000000
0
ARC
8
BLACK
10
70.6559999999999917
20
-125.8314999999999912
40
0.5
50
90.00000000
51
180.00000000
0
LINE
8
BLACK
6
CONTINUOUS
10
217.7934999999999945
20
-44.8689999999999998
11
217.7934999999999945
21
-57.8689999999999998
0
ARC
8
BLACK
10
177.12469999999999
20
-144.8815999999999917
40
0.5001000024995
50
0.01145755
51
89.99427157
0
ARC
8
BLACK
10
31.8684999999999974
20
-87.7314999999999969
40
0.5
50
0.00000000
51
90.00000000
0
LINE
8
BLACK
6
CONTINUOUS
10
42.080999999999996
20
-120.2814999999999941
11
55.6809999999999974
21
-120.2814999999999941
0
ARC
8
BLACK
10
196.7749999999999773
20
-161.75
40
0.25
50
90.00000000
51
180.00000000
0
LINE
8
BLACK
6
CONTINUOUS
10
8.7434999999999992
20
-82.1814999999999998
11
22.3434999999999988
21
-82.1814999999999998
0
ARC
8
BLACK
10
193.7934999999999945
20
-44.8689999999999998
40
0.5
50
0.00000000
51
90.00000000
0
LINE
8
BLACK
6
CONTINUOUS
10
46.8434999999999988
20
-82.1814999999999998
11
60.4435000000000002
21
-82.1814999999999998
0
LINE
8
BLACK
6
CONTINUOUS
10
-13.3752499999999994
20
-144.3814999999999884
11
-26.9752499999999991
21
-144.3814999999999884
0
ARC
8
BLACK
10
93.7809999999999917
20
-106.7814999999999941
40
0.5
50
0.00000000
51
90.00000000
0
LINE
8
BLACK
6
CONTINUOUS
10
234.4622499999999832
20
-144.8814999999999884
11
234.4622499999999832
21
-157.8814999999999884
0
ARC
8
BLACK
10
8.125
20
-40.25
40
0.25
50
90.00000000
51
180.00000000
0
LINE
8
BLACK
6
CONTINUOUS
10
199.2434999999999832
20
-82.1814999999999998
11
212.8434999999999775
21
-82.1814999999999998
0
LINE
8
BLACK
6
CONTINUOUS
10
170.6749999999999829
20
-165.5
11
170.6749999999999829
21
-164.
0
CIRCLE
8
BLACK
10
41.875
20
-37.5
40
1.25
0
ARC
8
BLACK
10
208.7685999999999922
20
-100.7314999999999969
40
0.5000000099999998
50
-180.00000000
51
-90.01145916
0
ARC
8
BLACK
10
150.9309999999999832
20
-106.7814999999999941
40
0.5
50
0.00000000
51
90.00000000
0
LINE
8
BLACK
6
CONTINUOUS
10
86.9749999999999943
20
-163.
11
72.375
21
-163.
0
ARC
8
BLACK
10
275.625
20
-162.75
40
0.25
50
-90.00000000
51
-0.00000000
0
ARC
8
BLACK
10
42.5805999999999969
20
-144.9313999999999965
40
0.4998500100030008
50
-270.01719286
51
-179.98853741
0
LINE
8
BLACK
6
CONTINUOUS
10
214.4747500000000002
20
-139.3064999999999998
11
240.4747500000000002
21
-139.3064999999999998
0
ARC
8
BLACK
10
27.7934999999999981
20
-68.6814999999999998
40
0.5
50
90.00000000
51
180.00000000
0
ARC
8
BLACK
10
41.393499999999996
20
-44.8689999999999998
40
0.5
50
0.00000000
51
90.00000000
0
ARC
8
BLACK
10
-21.124998999999999
20
-163.0000009999999975
40
1.5000010000003334
50
90.00003820
51
179.99996180
0
ARC
8
BLACK
10
171.6749999999999829
20
-37.5
40
1.
50
90.00000000
51
180.00000000
0
LINE
8
BLACK
6
CONTINUOUS
10
7.875
20
-161.75
11
7.875
21
-162.75
0
ARC
8
BLACK
10
299.2561000000000035
20
-100.7314999999999969
40
0.5000000099999998
50
-180.00000000
51
-90.01145916
0
LINE
8
BLACK
6
CONTINUOUS
10
75.4184999999999945
20
-101.2314999999999969
11
89.0185000000000031
21
-101.2314999999999969
0
ARC
8
BLACK
10
55.6808999999999941
20
-119.7814999999999941
40
0.5001
50
-89.98854245
51
-0.00000000
0
ARC
8
BLACK
10
99.2309999999999945
20
-106.7814999999999941
40
0.5
50
90.00000000
51
180.00000000
0
LINE
8
BLACK
6
CONTINUOUS
10
211.375
20
-36.5
11
171.6749999999999829
21
-36.5
0
LINE
8
BLACK
6
CONTINUOUS
10
261.1560000000000059
20
-101.2314999999999969
11
274.7559999999999718
21
-101.2314999999999969
0
LINE
8
BLACK
6
CONTINUOUS
10
56.3684999999999974
20
-101.2314999999999969
11
69.9684999999999917
21
-101.2314999999999969
0
LINE
8
BLACK
6
CONTINUOUS
10
127.3059999999999974
20
-125.8314999999999912
11
127.3059999999999974
21
-138.8315000000000055
0
LINE
8
BLACK
6
CONTINUOUS
10
84.9435000000000002
20
-82.1814999999999998
11
98.5434999999999945
21
-82.1814999999999998
0
LINE
8
BLACK
6
CONTINUOUS
10
224.7497499999999775
20
-144.3814999999999884
11
211.1497499999999832
21
-144.3814999999999884
0
ARC
8
BLACK
10
-16.125001000000001
20
-163.9999990000000025
40
0.9999990000004999
50
-270.00005730
51
-179.99994270
0
LINE
8
BLACK
6
CONTINUOUS
10
132.3810000000000002
20
-119.7814999999999941
11
132.3810000000000002
21
-106.7814999999999941
0
LINE
8
BLACK
6
CONTINUOUS
10
20.6497499999999974
20
-158.3814999999999884
11
34.2497499999999988
21
-158.3814999999999884
0
LINE
8
BLACK
6
CONTINUOUS
10
187.3372499999999832
20
-158.3814999999999884
11
200.9372499999999775
21
-158.3814999999999884
0
LINE
8
BLACK
6
CONTINUOUS
10
-10.9939999999999998
20
-87.2314969999999903
11
-24.5939999999999976
21
-87.2314969999999903
0
LINE
8
BLACK
6
CONTINUOUS
10
113.5184999999999889
20
-101.2314999999999969
11
127.1184999999999974
21
-101.2314999999999969
0
LINE
8
BLACK
6
CONTINUOUS
10
165.4060000000000059
20
-125.8314999999999912
11
165.4060000000000059
21
-138.8315000000000055
0
LINE
8
BLACK
6
CONTINUOUS
10
275.875
20
-41.25
11
275.875
21
-40.25
0
LINE
8
BLACK
6
CONTINUOUS
10
98.7309999999999945
20
-106.7814999999999941
11
98.7309999999999945
21
-119.7814999999999941
0
LINE
8
BLACK
6
CONTINUOUS
10
17.7684999999999995
20
-87.7314999999999969
11
17.7684999999999995
21
-100.7314999999999969
0
ARC
8
BLACK
10
274.7558999999999969
20
-57.8689999999999998
40
0.5001
50
-89.98854245
51
-0.00000000
0
LINE
8
BLACK
6
CONTINUOUS
10
312.8559999999999945
20
-87.2314999999999969
11
299.2559999999999718
21
-87.2314999999999969
0
ARC
8
BLACK
10
-21.124998999999999
20
-39.9999989999999954
40
1.5000010000003334
50
-179.99996180
51
-90.00003820
0
LINE
8
BLACK
6
CONTINUOUS
10
51.4184999999999945
20
-100.7314999999999969
11
51.4184999999999945
21
-87.7314999999999969
0
ARC
8
BLACK
10
-15.7565149999999985
20
-44.8690149999999974
40
0.5000150002249932
50
0.00171882
51
89.99828118
0
LINE
8
BLACK
6
CONTINUOUS
10
237.3434999999999775
20
-58.3689999999999998
11
250.9435000000000002
21
-58.3689999999999998
0
LINE
8
BLACK
6
CONTINUOUS
10
84.2560000000000002
20
-125.3314999999999912
11
70.6559999999999917
21
-125.3314999999999912
0
LINE
8
BLACK
6
CONTINUOUS
10
39.125
20
-40.
11
39.125
21
-37.5
0
LINE
8
BLACK
6
CONTINUOUS
10
298.7559999999999718
20
-87.7314999999999969
11
298.7559999999999718
21
-100.7314999999999969
0
ARC
8
BLACK
10
286.125
20
-161.75
40
0.25
50
90.00000000
51
180.00000000
0
ARC
8
BLACK
10
79.4933999999999941
20
-81.6814999999999998
40
0.5001
50
-89.98854245
51
-0.00000000
0
LINE
8
BLACK
6
CONTINUOUS
10
285.875
20
-161.75
11
285.875
21
-162.75
0
ARC
8
BLACK
10
55.1806999999999945
20
-157.8315000000000055
40
0.50005
50
-89.99427065
51
-0.00000000
0
LINE
8
BLACK
6
CONTINUOUS
10
186.5250000000000057
20
-161.75
11
186.5250000000000057
21
-162.75
0
ARC
8
BLACK
10
160.4559999999999889
20
-125.8314999999999912
40
0.5
50
0.00000000
51
90.00000000
0
ARC
8
BLACK
10
-10.3064939999999989
20
-68.6815059999999988
40
0.5000060000359996
50
90.00068754
51
179.99931246
0
ARC
8
BLACK
10
193.7933999999999912
20
-81.6814999999999998
40
0.5001
50
-89.98854245
51
-0.00000000
0
ARC
8
BLACK
10
-8.6127789999999997
20
-106.7815289999999919
40
0.5000300008409495
50
0.00343754
51
89.99667704
0
LINE
8
BLACK
6
CONTINUOUS
10
200.9372499999999775
20
-144.3814999999999884
11
187.3372499999999832
21
-144.3814999999999884
0
ARC
8
BLACK
10
65.8935999999999922
20
-81.6814999999999998
40
0.5000000099999998
50
-180.00000000
51
-90.01145916
0
ARC
8
BLACK
10
42.5807999999999964
20
-157.8314000000000021
40
0.5001000024995
50
-179.98854382
51
-90.00572843
0
ARC
8
BLACK
10
37.625
20
-40.
40
1.5
50
-90.00000000
51
-0.00000000
0
ARC
8
BLACK
10
46.843599999999995
20
-81.6814999999999998
40
0.5000000099999998
50
-180.00000000
51
-90.01145916
0
ARC
8
BLACK
10
299.2561000000000035
20
-81.6814999999999998
40
0.5000000099999998
50
-180.00000000
51
-90.01145916
0
LINE
8
BLACK
6
CONTINUOUS
10
299.875
20
-36.5
11
261.875
21
-36.5
0
ARC
8
BLACK
10
94.468599999999995
20
-100.7314999999999969
40
0.5000000099999998
50
-180.00000000
51
-90.01145916
0
LINE
8
BLACK
6
CONTINUOUS
10
179.6935000000000002
20
-44.8689999999999998
11
179.6935000000000002
21
-57.8689999999999998
0
ARC
8
BLACK
10
127.1183999999999941
20
-57.8689999999999998
40
0.5001
50
-89.98854245
51
-0.00000000
0
LINE
8
BLACK
6
CONTINUOUS
10
3.9809999999999999
20
-120.2814999999999941
11
17.5809999999999995
21
-120.2814999999999941
0
ARC
8
BLACK
10
261.1560000000000059
20
-87.7314999999999969
40
0.5
50
90.00000000
51
180.00000000
0
LINE
8
BLACK
6
CONTINUOUS
10
-26.6502499999999998
20
-125.8564999999999969
11
-26.6502499999999998
21
-137.5745000000000005
0
ARC
8
BLACK
10
8.125
20
-162.75
40
0.25
50
-180.00000000
51
-90.00000000
0
LINE
8
BLACK
6
CONTINUOUS
10
72.375
20
-40.
11
86.9749999999999943
21
-40.
0
LINE
8
BLACK
6
CONTINUOUS
10
36.6310000000000002
20
-106.2814999999999941
11
23.0309999999999988
21
-106.2814999999999941
0
ARC
8
BLACK
10
199.2435999999999865
20
-81.6814999999999998
40
0.5000000099999998
50
-180.00000000
51
-90.01145916
0
ARC
8
BLACK
10
186.2750000000000057
20
-162.75
40
0.25
50
-90.00000000
51
-0.00000000
0
CIRCLE
8
BLACK
10
247.7153799999999819
20
-132.3315000000000055
40
1.
0
LINE
8
BLACK
6
CONTINUOUS
10
3.7934999999999999
20
-81.6814999999999998
11
3.7934999999999999
21
-68.6814999999999998
0
LINE
8
BLACK
6
CONTINUOUS
10
146.1684999999999945
20
-44.3689999999999998
11
132.5685000000000002
21
-44.3689999999999998
0
ARC
8
BLACK
10
-29.3564989999999995
20
-81.6814990000000023
40
0.500001
50
-179.99988541
51
-90.00000000
0
LINE
8
BLACK
6
CONTINUOUS
10
94.2809999999999917
20
-119.7814999999999941
11
94.2809999999999917
21
-106.7814999999999941
0
ARC
8
BLACK
10
-30.1250009999999975
20
-159.5000009999999975
40
1.9999989999999999
50
-180.00002865
51
-90.00000000
0
LINE
8
BLACK
6
CONTINUOUS
10
22.875
20
-39.
11
22.875
21
-37.5
0
ARC
8
BLACK
10
193.7933999999999912
20
-57.8689999999999998
40
0.5001
50
-89.98854245
51
-0.00000000
0
LINE
8
BLACK
6
CONTINUOUS
10
279.7059999999999604
20
-125.8314999999999912
11
279.7059999999999604
21
-138.8315000000000055
0
LINE
8
BLACK
6
CONTINUOUS
10
55.6807499999999962
20
-144.9314999999999998
11
55.6807499999999962
21
-157.8315000000000055
0
ARC
8
BLACK
10
189.0309000000000026
20
-119.7814999999999941
40
0.5001
50
-89.98854245
51
-0.00000000
0
LINE
8
BLACK
6
CONTINUOUS
10
123.0434999999999945
20
-82.1814999999999998
11
136.6434999999999889
21
-82.1814999999999998
0
ARC
8
BLACK
10
-29.3564989999999995
20
-44.8690009999999972
40
0.500001000001
50
90.00000000
51
179.99988541
0
LINE
8
BLACK
6
CONTINUOUS
10
196.7749999999999773
20
-163.
11
211.375
21
-163.
0
ARC
8
BLACK
10
50.9184999999999945
20
-87.7314999999999969
40
0.5
50
0.00000000
51
90.00000000
0
ARC
8
BLACK
10
246.1809999999999832
20
-87.7314999999999969
40
0.5
50
0.00000000
51
90.00000000
0
ARC
8
BLACK
10
72.375
20
-165.5
40
1.
50
-180.00000000
51
-90.00000000
0
LINE
8
BLACK
6
CONTINUOUS
10
46.6559999999999988
20
-138.8315000000000055
11
46.6559999999999988
21
-125.8314999999999912
0
ARC
8
BLACK
10
199.2435999999999865
20
-57.8689999999999998
40
0.5000000099999998
50
-180.00000000
51
-90.01145916
0
ARC
8
BLACK
10
60.4433999999999969
20
-81.6814999999999998
40
0.5001
50
-89.98854245
51
-0.00000000
0
ARC
8
BLACK
10
55.6809999999999974
20
-106.7814999999999941
40
0.5
50
0.00000000
51
90.00000000
0
LINE
8
BLACK
6
CONTINUOUS
10
203.3185000000000002
20
-87.2314999999999969
11
189.7184999999999775
21
-87.2314999999999969
0
ARC
8
BLACK
10
46.1558999999999955
20
-138.8315000000000055
40
0.5001
50
-89.98854245
51
-0.00000000
0
LINE
8
BLACK
6
CONTINUOUS
10
75.2309999999999945
20
-119.7814999999999941
11
75.2309999999999945
21
-106.7814999999999941
0
LINE
8
BLACK
6
CONTINUOUS
10
184.2684999999999889
20
-87.2314999999999969
11
170.6684999999999945
21
-87.2314999999999969
0
LINE
8
BLACK
6
CONTINUOUS
10
8.2434999999999992
20
-44.8689999999999998
11
8.2434999999999992
21
-57.8689999999999998
0
LINE
8
BLACK
6
CONTINUOUS
10
17.5809999999999995
20
-106.2814999999999941
11
3.9809999999999999
21
-106.2814999999999941
0
ARC
8
BLACK
10
18.2685999999999993
20
-100.7314999999999969
40
0.5000000099999998
50
-180.00000000
51
-90.01145916
0
ARC
8
BLACK
10
65.8935000000000031
20
-44.8689999999999998
40
0.5
50
90.00000000
51
180.00000000
0
LINE
8
BLACK
6
CONTINUOUS
10
286.125
20
-41.5
11
304.625
21
-41.5
0
LINE
8
BLACK
6
CONTINUOUS
10
22.8434999999999988
20
-57.8689999999999998
11
22.8434999999999988
21
-44.8689999999999998
0
ARC
8
BLACK
10
34.2496999999999971
20
-157.8814999999999884
40
0.50005
50
-89.99427065
51
-0.00000000
0
LINE
8
BLACK
6
CONTINUOUS
10
170.1684999999999945
20
-87.7314999999999969
11
170.1684999999999945
21
-100.7314999999999969
0
LINE
8
BLACK
6
CONTINUOUS
10
212.375
20
-39.
11
212.375
21
-37.5
0
LINE
8
BLACK
6
CONTINUOUS
10
46.3434999999999988
20
-44.8689999999999998
11
46.3434999999999988
21
-57.8689999999999998
0
LINE
8
BLACK
6
CONTINUOUS
10
89.5184999999999889
20
-100.7314999999999969
11
89.5184999999999889
21
-87.7314999999999969
0
LINE
8
BLACK
6
CONTINUOUS
10
280.2059999999999604
20
-139.3315000000000055
11
293.8059999999999832
21
-139.3315000000000055
0
LINE
8
BLACK
6
CONTINUOUS
10
55.8684999999999974
20
-87.7314999999999969
11
55.8684999999999974
21
-100.7314999999999969
0
LINE
8
BLACK
6
CONTINUOUS
10
113.5184999999999889
20
-58.3689999999999998
11
127.1184999999999974
21
-58.3689999999999998
0
ARC
8
BLACK
10
-15.7565149999999985
20
-68.6815149999999903
40
0.5000150002249932
50
0.00171882
51
89.99828118
0
ARC
8
BLACK
10
12.8185000000000002
20
-87.7314999999999969
40
0.5
50
0.00000000
51
90.00000000
0
LINE
8
BLACK
6
CONTINUOUS
10
165.7185000000000059
20
-57.8689999999999998
11
165.7185000000000059
21
-44.8689999999999998
0
LINE
8
BLACK
6
CONTINUOUS
10
27.1059999999999981
20
-125.3314999999999912
11
13.5060000000000002
21
-125.3314999999999912
0
ARC
8
BLACK
10
146.1684999999999945
20
-87.7314999999999969
40
0.5
50
0.00000000
51
90.00000000
0
LINE
8
BLACK
6
CONTINUOUS
10
293.8059999999999832
20
-144.3814999999999884
11
280.2059999999999604
21
-144.3814999999999884
0
ARC
8
BLACK
10
-16.125001000000001
20
-165.5000009999999975
40
0.9999990000004999
50
-180.00005730
51
-89.99994270
0
ARC
8
BLACK
10
98.5433999999999912
20
-81.6814999999999998
40
0.5001
50
-89.98854245
51
-0.00000000
0
LINE
8
BLACK
6
CONTINUOUS
10
137.3309999999999889
20
-120.2814999999999941
11
150.9309999999999832
21
-120.2814999999999941
0
LINE
8
BLACK
6
CONTINUOUS
10
10.9372499999999988
20
-157.8814999999999884
11
10.9372499999999988
21
-144.8814999999999884
0
CIRCLE
8
BLACK
10
72.6934909999999945
20
-94.2314999999999969
40
1.
0
LINE
8
BLACK
6
CONTINUOUS
10
175.4309999999999832
20
-120.2814999999999941
11
189.0309999999999775
21
-120.2814999999999941
0
LINE
8
BLACK
6
CONTINUOUS
10
65.2060000000000031
20
-125.3314999999999912
11
51.6059999999999945
21
-125.3314999999999912
0
ARC
8
BLACK
10
-15.756492999999999
20
-57.8690069999999963
40
0.4999930000490007
50
-90.00080215
51
0.00080215
0
LINE
8
BLACK
6
CONTINUOUS
10
69.9684999999999917
20
-87.2314999999999969
11
56.3684999999999974
21
-87.2314999999999969
0
LINE
8
BLACK
6
CONTINUOUS
10
21.875
20
-163.
11
8.125
21
-163.
0
ARC
8
BLACK
10
17.5809999999999995
20
-106.7814999999999941
40
0.5
50
0.00000000
51
90.00000000
0
LINE
8
BLACK
6
CONTINUOUS
10
142.59375
20
-158.3315000000000055
11
155.1937499999999943
21
-158.3315000000000055
0
ARC
8
BLACK
10
21.875
20
-39.
40
1.
50
-90.00000000
51
-0.00000000
0
ARC
8
BLACK
10
248.56219999999999
20
-144.8815999999999917
40
0.5001000024995
50
0.01145755
51
89.99427157
0
LINE
8
BLACK
6
CONTINUOUS
10
84.7560000000000002
20
-138.8315000000000055
11
84.7560000000000002
21
-125.8314999999999912
0
LINE
8
BLACK
6
CONTINUOUS
10
174.9309999999999832
20
-106.7814999999999941
11
174.9309999999999832
21
-119.7814999999999941
0
ARC
8
BLACK
10
127.1184999999999974
20
-44.8689999999999998
40
0.5
50
0.00000000
51
90.00000000
0
LINE
8
BLACK
6
CONTINUOUS
10
175.2434999999999832
20
-81.6814999999999998
11
175.2434999999999832
21
-68.6814999999999998
0
ARC
8
BLACK
10
103.9934999999999974
20
-68.6814999999999998
40
0.5
50
90.00000000
51
180.00000000
0
ARC
8
BLACK
10
97.4749999999999943
20
-162.75
40
0.25
50
-180.00000000
51
-90.00000000
0
LINE
8
BLACK
6
CONTINUOUS
10
198.5559999999999832
20
-125.3314999999999912
11
184.9559999999999889
21
-125.3314999999999912
0
ARC
8
BLACK
10
211.9746999999999844
20
-125.8564999999999969
40
0.4999499999999999
50
89.99427019
51
180.00000000
0
LINE
8
BLACK
6
CONTINUOUS
10
-21.125
20
-41.5
11
-2.375
21
-41.5
0
LINE
8
BLACK
6
CONTINUOUS
10
12.8185000000000002
20
-87.2314999999999969
11
-0.7815
21
-87.2314999999999969
0
ARC
8
BLACK
10
218.2934999999999945
20
-44.8689999999999998
40
0.5
50
90.00000000
51
180.00000000
0
LINE
8
BLACK
6
CONTINUOUS
10
186.5250000000000057
20
-41.25
11
186.5250000000000057
21
-40.25
0
ARC
8
BLACK
10
113.5185999999999922
20
-57.8689999999999998
40
0.5000000099999998
50
-180.00000000
51
-90.01145916
0
ARC
8
BLACK
10
304.625
20
-40.
40
1.5
50
-90.00000000
51
-0.00000000
0
ARC
8
BLACK
10
37.3185999999999964
20
-100.7314999999999969
40
0.5000000099999998
50
-180.00000000
51
-90.01145916
0
ARC
8
BLACK
10
180.1935000000000002
20
-44.8689999999999998
40
0.5
50
90.00000000
51
180.00000000
0
LINE
8
BLACK
6
CONTINUOUS
10
-29.3564989999999995
20
-82.1814999999999998
11
-15.7564999999999991
21
-82.1814999999999998
0
ARC
8
BLACK
10
313.875
20
-159.5
40
2.
50
-90.00000000
51
-0.00000000
0
ARC
8
BLACK
10
75.4184999999999945
20
-87.7314999999999969
40
0.5
50
90.00000000
51
180.00000000
0
LINE
8
BLACK
6
CONTINUOUS
10
2.3497499999999998
20
-139.3064999999999998
11
5.3497499999999993
21
-137.5745000000000005
0
ARC
8
BLACK
10
94.4684999999999917
20
-44.8689999999999998
40
0.5
50
90.00000000
51
180.00000000
0
LINE
8
BLACK
6
CONTINUOUS
10
262.999828999999977
20
-121.1507519999999971
11
259.182899999999961
21
-110.8058309999999977
0
LINE
8
BLACK
6
CONTINUOUS
10
275.2559999999999718
20
-157.8814999999999884
11
275.2559999999999718
21
-144.8814999999999884
0
ARC
8
BLACK
10
280.2060999999999922
20
-81.6814999999999998
40
0.5000000099999998
50
-180.00000000
51
-90.01145916
0
LINE
8
BLACK
6
CONTINUOUS
10
243.4747500000000002
20
-137.5745000000000005
11
243.4747500000000002
21
-125.8564999999999969
0
ARC
8
BLACK
10
20.649799999999999
20
-157.8813999999999851
40
0.5001000024995
50
-179.98854382
51
-90.00572843
0
ARC
8
BLACK
10
212.8434000000000026
20
-57.8689999999999998
40
0.5001
50
-89.98854245
51
-0.00000000
0
ARC
8
BLACK
10
65.2058999999999997
20
-138.8315000000000055
40
0.5001
50
-89.98854245
51
-0.00000000
0
ARC
8
BLACK
10
131.8808999999999969
20
-119.7814999999999941
40
0.5001
50
-89.98854245
51
-0.00000000
0
LINE
8
BLACK
6
CONTINUOUS
10
251.4435000000000002
20
-57.8689999999999998
11
251.4435000000000002
21
-44.8689999999999998
0
LINE
8
BLACK
6
CONTINUOUS
10
293.8059999999999832
20
-44.3689999999999998
11
280.2059999999999604
21
-44.3689999999999998
0
LINE
8
BLACK
6
CONTINUOUS
10
41.580999999999996
20
-106.7814999999999941
11
41.580999999999996
21
-119.7814999999999941
0
ARC
8
BLACK
10
146.1683999999999912
20
-57.8689999999999998
40
0.5001
50
-89.98854245
51
-0.00000000
0
LINE
8
BLACK
6
CONTINUOUS
10
177.6247500000000059
20
-157.8814999999999884
11
177.6247500000000059
21
-144.8814999999999884
0
ARC
8
BLACK
10
274.7559999999999718
20
-68.6814999999999998
40
0.5
50
0.00000000
51
90.00000000
0
ARC
8
BLACK
10
186.2750000000000057
20
-161.75
40
0.25
50
0.00000000
51
90.00000000
0
ARC
8
BLACK
10
113.5184999999999889
20
-87.7314999999999969
40
0.5
50
90.00000000
51
180.00000000
0
ARC
8
BLACK
10
171.6749999999999829
20
-164.
40
1.
50
90.00000000
51
180.00000000
0
LINE
8
BLACK
6
CONTINUOUS
10
141.9060000000000059
20
-138.8315000000000055
11
141.9060000000000059
21
-125.8314999999999912
0
ARC
8
BLACK
10
74.7309999999999945
20
-106.7814999999999941
40
0.5
50
0.00000000
51
90.00000000
0
LINE
8
BLACK
6
CONTINUOUS
10
36.8185000000000002
20
-87.7314999999999969
11
36.8185000000000002
21
-100.7314999999999969
0
ARC
8
BLACK
10
84.9435999999999893
20
-81.6814999999999998
40
0.5000000099999998
50
-180.00000000
51
-90.01145916
0
LINE
8
BLACK
6
CONTINUOUS
10
146.6684999999999945
20
-100.7314999999999969
11
146.6684999999999945
21
-87.7314999999999969
0
LINE
8
BLACK
6
CONTINUOUS
10
151.1184999999999832
20
-44.8689999999999998
11
151.1184999999999832
21
-57.8689999999999998
0
ARC
8
BLACK
10
22.3434999999999988
20
-44.8689999999999998
40
0.5
50
0.00000000
51
90.00000000
0
ARC
8
BLACK
10
46.8434999999999988
20
-44.8689999999999998
40
0.5
50
90.00000000
51
180.00000000
0
ARC
8
BLACK
10
180.1935000000000002
20
-68.6814999999999998
40
0.5
50
90.00000000
51
180.00000000
0
ARC
8
BLACK
10
187.337299999999999
20
-157.8813999999999851
40
0.5001000024995
50
-179.98854382
51
-90.00572843
0
ARC
8
BLACK
10
184.2684999999999889
20
-87.7314999999999969
40
0.5
50
0.00000000
51
90.00000000
0
ARC
8
BLACK
10
112.0749999999999886
20
-39.
40
1.
50
-90.00000000
51
-0.00000000
0
ARC
8
BLACK
10
69.9684999999999917
20
-87.7314999999999969
40
0.5
50
0.00000000
51
90.00000000
0
ARC
8
BLACK
10
208.0809999999999889
20
-106.7814999999999941
40
0.5
50
0.00000000
51
90.00000000
0
ARC
8
BLACK
10
312.8558999999999628
20
-157.8814999999999884
40
0.5001
50
-89.98854245
51
-0.00000000
0
LINE
8
BLACK
6
CONTINUOUS
10
97.4749999999999943
20
-161.5
11
159.875
21
-161.5
0
ARC
8
BLACK
10
299.2561000000000035
20
-57.8689999999999998
40
0.5000000099999998
50
-180.00000000
51
-90.01145916
0
CIRCLE
8
BLACK
10
308.875
20
-165.5
40
1.25
0
ARC
8
BLACK
10
163.524799999999999
20
-157.8813999999999851
40
0.5001000024995
50
-179.98854382
51
-90.00572843
0
ARC
8
BLACK
10
299.875
20
-164.
40
1.
50
0.00000000
51
90.00000000
0
ARC
8
BLACK
10
196.7749999999999773
20
-162.75
40
0.25
50
-180.00000000
51
-90.00000000
0
LINE
8
BLACK
6
CONTINUOUS
10
240.4747500000000002
20
-139.3064999999999998
11
243.4747500000000002
21
-137.5745000000000005
0
LINE
8
BLACK
6
CONTINUOUS
10
22.3434999999999988
20
-44.3689999999999998
11
8.7434999999999992
21
-44.3689999999999998
0
LINE
8
BLACK
6
CONTINUOUS
10
232.0809999999999889
20
-87.7314999999999969
11
232.0809999999999889
21
-100.7314999999999969
0
ARC
8
BLACK
10
193.7934999999999945
20
-68.6814999999999998
40
0.5
50
0.00000000
51
90.00000000
0
ARC
8
BLACK
10
280.2058999999999855
20
-144.8814999999999884
40
0.4999
50
89.98853924
51
180.00000000
0
LINE
8
BLACK
6
CONTINUOUS
10
80.1809999999999974
20
-120.2814999999999941
11
93.7809999999999917
21
-120.2814999999999941
0
LINE
8
BLACK
6
CONTINUOUS
10
170.6749999999999829
20
-37.5
11
170.6749999999999829
21
-39.
0
ARC
8
BLACK
10
65.8935000000000031
20
-68.6814999999999998
40
0.5
50
90.00000000
51
180.00000000
0
LINE
8
BLACK
6
CONTINUOUS
10
55.6809999999999974
20
-106.2814999999999941
11
42.080999999999996
21
-106.2814999999999941
0
ARC
8
BLACK
10
-26.975248999999998
20
-144.8815009999999859
40
0.500001000001
50
90.00011459
51
179.99988541
0
ARC
8
BLACK
10
23.0310999999999986
20
-119.7814999999999941
40
0.5000000099999998
50
-180.00000000
51
-90.01145916
0
ARC
8
BLACK
10
156.3811000000000035
20
-119.7814999999999941
40
0.5000000099999998
50
-180.00000000
51
-90.01145916
0
LINE
8
BLACK
6
CONTINUOUS
10
180.1935000000000002
20
-82.1814999999999998
11
193.7934999999999945
21
-82.1814999999999998
0
LINE
8
BLACK
6
CONTINUOUS
10
132.5685000000000002
20
-101.2314999999999969
11
146.1684999999999945
21
-101.2314999999999969
0
LINE
8
BLACK
6
CONTINUOUS
10
117.7809999999999917
20
-106.7814999999999941
11
117.7809999999999917
21
-119.7814999999999941
0
ARC
8
BLACK
10
-24.5939939999999986
20
-87.7315029999999894
40
0.5000060000359996
50
90.00068754
51
179.99931246
0
LINE
8
BLACK
6
CONTINUOUS
10
108.2560000000000002
20
-125.8314999999999912
11
108.2560000000000002
21
-138.8315000000000055
0
ARC
8
BLACK
10
65.2060000000000031
20
-125.8314999999999912
40
0.5
50
0.00000000
51
90.00000000
0
CIRCLE
8
BLACK
10
227.4747500000000002
20
-94.2314999999999969
40
1.
0
ARC
8
BLACK
10
218.2935999999999979
20
-57.8689999999999998
40
0.5000000099999998
50
-180.00000000
51
-90.01145916
0
ARC
8
BLACK
10
-25.125
20
-165.5
40
2.5
50
-180.00000000
51
-0.00000000
0
LINE
8
BLACK
6
CONTINUOUS
10
313.125
20
-41.5
11
313.375
21
-41.5
0
ARC
8
BLACK
10
280.2060999999999922
20
-100.7314999999999969
40
0.5000000099999998
50
-180.00000000
51
-90.01145916
0
LINE
8
BLACK
6
CONTINUOUS
10
60.6310000000000002
20
-106.7814999999999941
11
60.6310000000000002
21
-119.7814999999999941
0
LINE
8
BLACK
6
CONTINUOUS
10
142.0935000000000059
20
-82.1814999999999998
11
155.6935000000000002
21
-82.1814999999999998
0
LINE
8
BLACK
6
CONTINUOUS
10
294.3059999999999832
20
-57.8689999999999998
11
294.3059999999999832
21
-44.8689999999999998
0
LINE
8
BLACK
6
CONTINUOUS
10
60.4435000000000002
20
-44.3689999999999998
11
46.8434999999999988
21
-44.3689999999999998
0
ARC
8
BLACK
10
18.2684999999999995
20
-87.7314999999999969
40
0.5
50
90.00000000
51
180.00000000
0
CIRCLE
8
BLACK
10
41.875
20
-165.5
40
1.25
0
ARC
8
BLACK
10
275.625
20
-40.25
40
0.25
50
0.00000000
51
90.00000000
0
ARC
8
BLACK
10
175.4310999999999865
20
-119.7814999999999941
40
0.5000000099999998
50
-180.00000000
51
-90.01145916
0
LINE
8
BLACK
6
CONTINUOUS
10
18.0809999999999995
20
-119.7814999999999941
11
18.0809999999999995
21
-106.7814999999999941
0
LINE
8
BLACK
6
CONTINUOUS
10
-29.3564989999999995
20
-58.3689999999999998
11
-15.7564999999999991
21
-58.3689999999999998
0
LINE
8
BLACK
6
CONTINUOUS
10
44.625
20
-37.5
11
44.625
21
-40.
0
ARC
8
BLACK
10
31.8683999999999976
20
-100.7314999999999969
40
0.5001
50
-89.98854245
51
-0.00000000
0
ARC
8
BLACK
10
50.9183999999999983
20
-100.7314999999999969
40
0.5001
50
-89.98854245
51
-0.00000000
0
LINE
8
BLACK
6
CONTINUOUS
10
198.7434999999999832
20
-44.8689999999999998
11
198.7434999999999832
21
-57.8689999999999998
0
ARC
8
BLACK
10
280.2060999999999922
20
-57.8689999999999998
40
0.5000000099999998
50
-180.00000000
51
-90.01145916
0
ARC
8
BLACK
10
224.74969999999999
20
-157.8814999999999884
40
0.50005
50
-89.99427065
51
-0.00000000
0
ARC
8
BLACK
10
127.1184999999999974
20
-87.7314999999999969
40
0.5
50
0.00000000
51
90.00000000
0
LINE
8
BLACK
6
CONTINUOUS
10
71.375
20
-164.
11
71.375
21
-165.5
0
LINE
8
BLACK
6
CONTINUOUS
10
216.2372499999999889
20
-118.5244999999999891
11
219.2372499999999889
21
-120.2564999999999884
0
LINE
8
BLACK
6
CONTINUOUS
10
160.4559999999999889
20
-125.3314999999999912
11
146.8559999999999945
21
-125.3314999999999912
0
LINE
8
BLACK
6
CONTINUOUS
10
127.8059999999999974
20
-139.3315000000000055
11
141.4060000000000059
21
-139.3315000000000055
0
LINE
8
BLACK
6
CONTINUOUS
10
208.7684999999999889
20
-101.2314999999999969
11
222.3684999999999832
21
-101.2314999999999969
0
LINE
8
BLACK
6
CONTINUOUS
10
22.8434999999999988
20
-81.6814999999999998
11
22.8434999999999988
21
-68.6814999999999998
0
ARC
8
BLACK
10
137.3309999999999889
20
-106.7814999999999941
40
0.5
50
90.00000000
51
180.00000000
0
ARC
8
BLACK
10
274.7559999999999718
20
-87.7314999999999969
40
0.5
50
0.00000000
51
90.00000000
0
LINE
8
BLACK
6
CONTINUOUS
10
279.7059999999999604
20
-44.8689999999999998
11
279.7059999999999604
21
-57.8689999999999998
0
ARC
8
BLACK
10
3.2934999999999999
20
-81.6814999999999998
40
0.5
50
-90.00000000
51
-0.00000000
0
LINE
8
BLACK
6
CONTINUOUS
10
167.875
20
-161.5
11
186.2750000000000057
21
-161.5
0
ARC
8
BLACK
10
304.875
20
-163.
40
1.5
50
0.00000000
51
90.00000000
0
LINE
8
BLACK
6
CONTINUOUS
10
108.5685000000000002
20
-57.8689999999999998
11
108.5685000000000002
21
-44.8689999999999998
0
LINE
8
BLACK
6
CONTINUOUS
10
193.7934999999999945
20
-68.1814999999999998
11
180.1935000000000002
21
-68.1814999999999998
0
LINE
8
BLACK
6
CONTINUOUS
10
-22.625
20
-37.5
11
-22.625
21
-40.
0
ARC
8
BLACK
10
-0.7814939999999999
20
-87.731505999999996
40
0.5000060000359996
50
90.00068754
51
179.99931246
0
CIRCLE
8
BLACK
10
129.8434910000000002
20
-51.369019999999999
40
1.
0
LINE
8
BLACK
6
CONTINUOUS
10
21.875
20
-36.5
11
-16.125
21
-36.5
0
LINE
8
BLACK
6
CONTINUOUS
10
-22.625
20
-163.
11
-22.625
21
-165.5
0
ARC
8
BLACK
10
41.3933999999999997
20
-57.8689999999999998
40
0.5001
50
-89.98854245
51
-0.00000000
0
LINE
8
BLACK
6
CONTINUOUS
10
97.2249999999999943
20
-40.25
11
97.2249999999999943
21
-41.25
0
ARC
8
BLACK
10
132.5686000000000035
20
-100.7314999999999969
40
0.5000000099999998
50
-180.00000000
51
-90.01145916
0
CIRCLE
8
BLACK
10
167.9434909999999945
20
-94.2314999999999969
40
1.
0
LINE
8
BLACK
6
CONTINUOUS
10
218.2934999999999945
20
-58.3689999999999998
11
231.8934999999999889
21
-58.3689999999999998
0
ARC
8
BLACK
10
299.875
20
-165.5
40
1.
50
-90.00000000
51
-0.00000000
0
ARC
8
BLACK
10
274.7558999999999969
20
-81.6814999999999998
40
0.5001
50
-89.98854245
51
-0.00000000
0
LINE
8
BLACK
6
CONTINUOUS
10
-26.6502499999999998
20
-137.5745000000000005
11
-23.6502499999999998
21
-139.3064999999999998
0
LINE
8
BLACK
6
CONTINUOUS
10
13.5060000000000002
20
-139.3315000000000055
11
27.1059999999999981
21
-139.3315000000000055
0
LINE
8
BLACK
6
CONTINUOUS
10
22.5309999999999988
20
-106.7814999999999941
11
22.5309999999999988
21
-119.7814999999999941
0
ARC
8
BLACK
10
8.125
20
-161.75
40
0.25
50
90.00000000
51
180.00000000
0
ARC
8
BLACK
10
-0.781516
20
-100.7315159999999992
40
0.4999840002560081
50
-180.00183352
51
-89.99816648
0
CIRCLE
8
BLACK
10
48.8810099999999963
20
-132.3315000000000055
40
1.
0
ARC
8
BLACK
10
3.9809999999999999
20
-119.7814999999999941
40
0.5
50
-180.00000000
51
-90.00000000
0
ARC
8
BLACK
10
286.125
20
-162.75
40
0.25
50
-180.00000000
51
-90.00000000
0
ARC
8
BLACK
10
264.1264999999999645
20
-120.734499999999997
40
1.2005296283465894
50
-159.72303186
51
-70.79146686
0
LINE
8
BLACK
6
CONTINUOUS
10
-16.125
20
-166.5
11
21.875
21
-166.5
0
LINE
8
BLACK
6
CONTINUOUS
10
218.6434999999999889
20
-68.7064999999999912
11
218.6434999999999889
21
-80.4244999999999948
0
ARC
8
BLACK
10
32.5561000000000007
20
-138.8315000000000055
40
0.5000000099999998
50
-180.00000000
51
-90.01145916
0
CIRCLE
8
BLACK
10
-29.7002499999999969
20
-113.2814999999999941
40
1.
0
ARC
8
BLACK
10
212.8434999999999775
20
-44.8689999999999998
40
0.5
50
0.00000000
51
90.00000000
0
ARC
8
BLACK
10
21.875
20
-164.
40
1.
50
0.00000000
51
90.00000000
0
LINE
8
BLACK
6
CONTINUOUS
10
242.9747500000000002
20
-125.3564999999999969
11
211.9747500000000002
21
-125.3564999999999969
0
LINE
8
BLACK
6
CONTINUOUS
10
70.1559999999999917
20
-125.8314999999999912
11
70.1559999999999917
21
-138.8315000000000055
0
ARC
8
BLACK
10
242.9746999999999844
20
-125.8566000000000003
40
0.5001000024995
50
0.01145755
51
89.99427157
0
ARC
8
BLACK
10
142.0935000000000059
20
-68.6814999999999998
40
0.5
50
90.00000000
51
180.00000000
0
LINE
8
BLACK
6
CONTINUOUS
10
222.3684999999999832
20
-87.2314999999999969
11
208.7684999999999889
21
-87.2314999999999969
0
ARC
8
BLACK
10
42.080999999999996
20
-106.7814999999999941
40
0.5
50
90.00000000
51
180.00000000
0
LINE
8
BLACK
6
CONTINUOUS
10
311.0121519999999578
20
-121.1507519999999971
11
314.8290809999999738
21
-110.8058309999999977
0
ARC
8
BLACK
10
261.875
20
-37.5
40
1.
50
90.00000000
51
180.00000000
0
ARC
8
BLACK
10
65.8935999999999922
20
-57.8689999999999998
40
0.5000000099999998
50
-180.00000000
51
-90.01145916
0
ARC
8
BLACK
10
75.4185999999999979
20
-100.7314999999999969
40
0.5000000099999998
50
-180.00000000
51
-90.01145916
0
LINE
8
BLACK
6
CONTINUOUS
10
210.6497499999999832
20
-144.8814999999999884
11
210.6497499999999832
21
-157.8814999999999884
0
ARC
8
BLACK
10
184.2683999999999855
20
-100.7314999999999969
40
0.5001
50
-89.98854245
51
-0.00000000
0
ARC
8
BLACK
10
79.4934999999999974
20
-44.8689999999999998
40
0.5
50
0.00000000
51
90.00000000
0
CIRCLE
8
BLACK
10
-25.125
20
-165.5
40
1.25
0
LINE
8
BLACK
6
CONTINUOUS
10
122.8559999999999945
20
-138.8315000000000055
11
122.8559999999999945
21
-125.8314999999999912
0
ARC
8
BLACK
10
274.7558999999999969
20
-157.8814999999999884
40
0.5001
50
-89.98854245
51
-0.00000000
0
ARC
8
BLACK
10
70.656099999999995
20
-138.8315000000000055
40
0.5000000099999998
50
-180.00000000
51
-90.01145916
0
LINE
8
BLACK
6
CONTINUOUS
10
89.0185000000000031
20
-87.2314999999999969
11
75.4184999999999945
21
-87.2314999999999969
0
ARC
8
BLACK
10
146.8560999999999979
20
-138.8315000000000055
40
0.5000000099999998
50
-180.00000000
51
-90.01145916
0
LINE
8
BLACK
6
CONTINUOUS
10
108.0685000000000002
20
-44.3689999999999998
11
94.4684999999999917
21
-44.3689999999999998
  0
ENDSEC
  0
EOF
