  0
SECTION
  2
HEADER
  9
$ANGBASE
  50
0.0
  9
$ANGDIR
  70
1
  9
$MEASUREMENT
  70
1
  0
ENDSEC
  0
SECTION
  2
TABLES
  0
TABLE
  2
LTYPE
  70
4
  0
LTYPE
  5
40F
  2
CONTINUOUS
  70
0
  3
Solid line
  72
65
  73
0
  40
0.0
  0
LTYPE
  5
410
  2
DASHDOT
 70
0
  3
Dash Dot ____ _ ____ _
 72
65
 73
4
 40
2.0
 49
1.25
 49
-0.25
 49
0.25
 49
-0.25
  0
LTYPE
  5
411
  2
DASHED
 70
0
  3
Dashed __ __ __ __ __
 72
65
 73
2
 40
0.75
 49
0.5
 49
-0.25
  0
LTYPE
  5
43B
  2
DOTTED
 70
0
  3
Dotted .  .  .  .
 72
65
 73
2
 40
0.2
 49
0.0
 49
-0.2
  0
ENDTAB
  0
TABLE
  2
STYLE
  70
4
  0
STYLE
  2
KICAD
  70
0
  40
0
  41
1
  42
1
  50
0
  71
0
  3
isocp.shx
  0
STYLE
  2
KICADB
  70
0
  40
0
  41
1
  42
1
  50
0
  71
0
  3
isocp.shx
  0
STYLE
  2
KICADI
  70
0
  40
0
  41
1
  42
1
  50
15
  71
0
  3
isocp.shx
  0
STYLE
  2
KICADBI
  70
0
  40
0
  41
1
  42
1
  50
15
  71
0
  3
isocp.shx
  0
ENDTAB
  0
TABLE
  2
LAYER
  70
1
  0
LAYER
  2
BLACK
  70
0
  62
7
  6
CONTINUOUS
  0
ENDTAB
  0
ENDSEC
  0
SECTION
  2
ENTITIES
0
CIRCLE
8
BLACK
10
670.1560099999999238
20
-150.8814989999999909
40
1.
0
LINE
8
BLACK
6
CONTINUOUS
10
572.6809999999999263
20
-138.3314989999999796
11
572.6809999999999263
21
-125.3314989999999938
0
ARC
8
BLACK
10
381.7499990000000025
20
-40.75
40
0.249999000002
50
-180.00022918
51
-89.99977082
0
LINE
8
BLACK
6
CONTINUOUS
10
470.8499999999999659
20
-39.7499989999999954
11
470.8499999999999659
21
-40.7499989999999954
0
LINE
8
BLACK
6
CONTINUOUS
10
401.4184999999999945
20
-81.6814990000000023
11
415.0184999999999604
21
-81.6814990000000023
0
LINE
8
BLACK
6
CONTINUOUS
10
445.
20
-163.4999990000000025
11
445.
21
-164.9999990000000025
0
ARC
8
BLACK
10
357.8685069999999655
20
-57.3690059999999988
40
0.4999930000490007
50
-90.00080215
51
0.00080215
0
ARC
8
BLACK
10
420.4686049999999682
20
-57.3689639999999983
40
0.5000350110242282
50
-179.99598958
51
-90.01203127
0
ARC
8
BLACK
10
460.6000009999999634
20
-39.7499979999999979
40
0.249999000002
50
-0.00022918
51
90.00022918
0
ARC
8
BLACK
10
468.0936049999999682
20
-100.2314640000000026
40
0.5000350110242282
50
-179.99598958
51
-90.01203127
0
LINE
8
BLACK
6
CONTINUOUS
10
576.9434999999999718
20
-86.7314989999999995
11
563.3434999999999491
21
-86.7314989999999995
0
LINE
8
BLACK
6
CONTINUOUS
10
418.25
20
-36.9999989999999954
11
418.25
21
-39.4999989999999954
0
LINE
8
BLACK
6
CONTINUOUS
10
482.1934999999999718
20
-100.2314989999999995
11
482.1934999999999718
21
-87.2314989999999995
0
LINE
8
BLACK
6
CONTINUOUS
10
465.2122499999999832
20
-144.3814989999999909
11
465.2122499999999832
21
-157.3814989999999909
0
CIRCLE
8
BLACK
10
462.9872309999999516
20
-150.8814989999999909
40
1.
0
ARC
8
BLACK
10
678.4999990000000025
20
-162.5
40
1.5000010000003334
50
0.00003820
51
89.99996180
0
ARC
8
BLACK
10
396.6559859999999844
20
-106.281454999999994
40
0.4999860019360542
50
-270.00160433
51
-179.99495783
0
LINE
8
BLACK
6
CONTINUOUS
10
667.9309999999999263
20
-81.1814990000000023
11
667.9309999999999263
21
-68.1814990000000023
0
LINE
8
BLACK
6
CONTINUOUS
10
446.
20
-165.9999990000000025
11
485.6999999999999886
21
-165.9999990000000025
0
LINE
8
BLACK
6
CONTINUOUS
10
346.
20
-164.9999990000000025
11
346.
21
-162.5
0
ARC
8
BLACK
10
525.2436050000000023
20
-100.2314640000000026
40
0.5000350110242282
50
-179.99598958
51
-90.01203127
0
LINE
8
BLACK
6
CONTINUOUS
10
505.6934999999999718
20
-44.3689989999999952
11
505.6934999999999718
21
-57.3689989999999952
0
CIRCLE
8
BLACK
10
570.1434909999999263
20
-74.6814990000000023
40
1.
0
LINE
8
BLACK
6
CONTINUOUS
10
634.7809999999999491
20
-157.8814989999999909
11
648.3809999999999718
21
-157.8814989999999909
0
LINE
8
BLACK
6
CONTINUOUS
10
415.7057499999999663
20
-157.3314989999999796
11
415.7057499999999663
21
-144.4314990000000023
0
CIRCLE
8
BLACK
10
621.3403799999999819
20
-131.831499000000008
40
1.
0
LINE
8
BLACK
6
CONTINUOUS
10
415.2059999999999604
20
-106.2814989999999966
11
415.2059999999999604
21
-119.2814989999999966
0
ARC
8
BLACK
10
506.1934859999999503
20
-44.3689549999999997
40
0.4999860019360542
50
-270.00160433
51
-179.99495783
0
LINE
8
BLACK
6
CONTINUOUS
10
425.2309999999999945
20
-138.8314989999999796
11
438.8309999999999604
21
-138.8314989999999796
0
ARC
8
BLACK
10
428.805706999999984
20
-144.4315619999999853
40
0.5000630018487671
50
0.00721836
51
89.99507318
0
LINE
8
BLACK
6
CONTINUOUS
10
434.0684999999999718
20
-43.8689989999999952
11
420.4685000000000059
21
-43.8689989999999952
0
LINE
8
BLACK
6
CONTINUOUS
10
472.6684999999999945
20
-81.1814990000000023
11
472.6684999999999945
21
-68.1814990000000023
0
ARC
8
BLACK
10
371.0000009999999975
20
-162.25
40
0.249999000002
50
-90.00022918
51
0.00022918
0
ARC
8
BLACK
10
395.9683880000000045
20
-57.3689569999999947
40
0.5001120017636049
50
-89.98716862
51
-0.00481177
0
ARC
8
BLACK
10
406.1811050000000023
20
-138.3314639999999827
40
0.5000350110242282
50
-179.99598958
51
-90.01203127
0
LINE
8
BLACK
6
CONTINUOUS
10
544.2934999999999945
20
-100.7314989999999995
11
557.8935000000000173
21
-100.7314989999999995
0
ARC
8
BLACK
10
543.6058879999999363
20
-119.281456999999989
40
0.5001120017636049
50
-89.98716862
51
-0.00481177
0
ARC
8
BLACK
10
653.8309859999999389
20
-87.2314549999999969
40
0.4999860019360542
50
-270.00160433
51
-179.99495783
0
LINE
8
BLACK
6
CONTINUOUS
10
363.3184999999999718
20
-81.6814990000000023
11
376.9184999999999945
21
-81.6814990000000023
0
ARC
8
BLACK
10
672.8809860000000072
20
-44.3689549999999997
40
0.4999860019360542
50
-270.00160433
51
-179.99495783
0
ARC
8
BLACK
10
481.6933879999999704
20
-100.2314569999999918
40
0.5001120017636049
50
-89.98716862
51
-0.00481177
0
CIRCLE
8
BLACK
10
503.4684909999999718
20
-50.8690189999999944
40
1.
0
ARC
8
BLACK
10
525.2436050000000023
20
-57.3689639999999983
40
0.5000350110242282
50
-179.99598958
51
-90.01203127
0
ARC
8
BLACK
10
568.1059860000000299
20
-106.281454999999994
40
0.4999860019360542
50
-270.00160433
51
-179.99495783
0
LINE
8
BLACK
6
CONTINUOUS
10
486.9559999999999604
20
-119.2814989999999966
11
486.9559999999999604
21
-106.2814989999999966
0
ARC
8
BLACK
10
445.9999990000000025
20
-38.5
40
0.9999990000004999
50
-180.00005730
51
-89.99994270
0
ARC
8
BLACK
10
553.1308880000000272
20
-138.3314570000000003
40
0.5001120017636049
50
-89.98716862
51
-0.00481177
0
LINE
8
BLACK
6
CONTINUOUS
10
624.2685000000000173
20
-79.9244989999999973
11
624.2685000000000173
21
-68.2064989999999938
0
LINE
8
BLACK
6
CONTINUOUS
10
570.1499999999999773
20
-39.7499989999999954
11
570.1499999999999773
21
-40.7499989999999954
0
ARC
8
BLACK
10
667.4310060000000249
20
-68.1814629999999937
40
0.4999640000360026
50
-0.00412559
51
90.00068760
0
LINE
8
BLACK
6
CONTINUOUS
10
672.3809999999999718
20
-87.2314989999999995
11
672.3809999999999718
21
-100.2314989999999995
0
ARC
8
BLACK
10
553.1310059999999567
20
-125.3314629999999994
40
0.4999640000360026
50
-0.00412559
51
90.00068760
0
LINE
8
BLACK
6
CONTINUOUS
10
472.8559999999999945
20
-119.7814989999999966
11
486.4559999999999604
21
-119.7814989999999966
0
LINE
8
BLACK
6
CONTINUOUS
10
595.2685000000000173
20
-81.6564989999999966
11
621.2685000000000173
21
-81.6564989999999966
0
LINE
8
BLACK
6
CONTINUOUS
10
614.0997499999999718
20
-138.8064990000000023
11
617.0997499999999718
21
-137.074499000000003
0
LINE
8
BLACK
6
CONTINUOUS
10
405.9934999999999832
20
-100.2314989999999995
11
405.9934999999999832
21
-87.2314989999999995
0
ARC
8
BLACK
10
465.7120879999999943
20
-144.38135699999998
40
0.4998380201705348
50
-270.01856985
51
-179.98372273
0
LINE
8
BLACK
6
CONTINUOUS
10
519.7934999999999945
20
-43.8689989999999952
11
506.1934999999999718
21
-43.8689989999999952
0
LINE
8
BLACK
6
CONTINUOUS
10
382.3684999999999832
20
-57.8689989999999952
11
395.9685000000000059
21
-57.8689989999999952
0
LINE
8
BLACK
6
CONTINUOUS
10
510.7684999999999604
20
-81.1814990000000023
11
510.7684999999999604
21
-68.1814990000000023
0
ARC
8
BLACK
10
635.4999990000000025
20
-38.5
40
0.9999990000004999
50
-180.00005730
51
-89.99994270
0
LINE
8
BLACK
6
CONTINUOUS
10
515.2184999999999491
20
-68.1814990000000023
11
515.2184999999999491
21
-81.1814990000000023
0
LINE
8
BLACK
6
CONTINUOUS
10
415.0184999999999604
20
-67.6814990000000023
11
401.4184999999999945
21
-67.6814990000000023
0
LINE
8
BLACK
6
CONTINUOUS
10
539.0309999999999491
20
-125.3314989999999938
11
539.0309999999999491
21
-138.3314989999999796
0
LINE
8
BLACK
6
CONTINUOUS
10
458.0684999999999718
20
-68.1814990000000023
11
458.0684999999999718
21
-81.1814990000000023
0
ARC
8
BLACK
10
468.0934859999999844
20
-87.2314549999999969
40
0.4999860019360542
50
-270.00160433
51
-179.99495783
0
ARC
8
BLACK
10
419.7500009999999975
20
-39.4999979999999979
40
1.5000010000003334
50
-179.99996180
51
-90.00003820
0
LINE
8
BLACK
6
CONTINUOUS
10
378.9747499999999718
20
-137.074499000000003
11
378.9747499999999718
21
-125.3564989999999995
0
ARC
8
BLACK
10
420.4684859999999844
20
-68.1814549999999997
40
0.4999860019360542
50
-270.00160433
51
-179.99495783
0
LINE
8
BLACK
6
CONTINUOUS
10
400.9184999999999945
20
-68.1814990000000023
11
400.9184999999999945
21
-81.1814990000000023
0
LINE
8
BLACK
6
CONTINUOUS
10
356.5
20
-36.9999989999999954
11
356.5
21
-38.4999989999999954
0
LINE
8
BLACK
6
CONTINUOUS
10
635.5
20
-39.4999989999999954
11
649.25
21
-39.4999989999999954
0
ARC
8
BLACK
10
357.8684849999999642
20
-44.369014
40
0.5000150002249932
50
0.00171882
51
89.99828118
0
LINE
8
BLACK
6
CONTINUOUS
10
562.8434999999999491
20
-87.2314989999999995
11
562.8434999999999491
21
-100.2314989999999995
0
ARC
8
BLACK
10
584.7748060000000123
20
-157.3813629999999932
40
0.5001360031351472
50
-179.98441979
51
-90.00641538
0
LINE
8
BLACK
6
CONTINUOUS
10
674.5
20
-38.4999989999999954
11
674.5
21
-36.9999989999999954
0
ARC
8
BLACK
10
439.5186049999999796
20
-81.1814639999999912
40
0.5000350110242282
50
-179.99598958
51
-90.01203127
0
LINE
8
BLACK
6
CONTINUOUS
10
496.4809999999999945
20
-138.3314989999999796
11
496.4809999999999945
21
-125.3314989999999938
0
ARC
8
BLACK
10
686.75
20
-39.5
40
1.4999989999999999
50
-180.00003820
51
-90.00000000
0
ARC
8
BLACK
10
457.8808879999999704
20
-138.3314570000000003
40
0.5001120017636049
50
-89.98716862
51
-0.00481177
0
ARC
8
BLACK
10
570.3999989999999798
20
-40.75
40
0.249999000002
50
-180.00022918
51
-89.99977082
0
LINE
8
BLACK
6
CONTINUOUS
10
434.0684999999999718
20
-67.6814990000000023
11
420.4685000000000059
21
-67.6814990000000023
0
LINE
8
BLACK
6
CONTINUOUS
10
491.4060000000000059
20
-106.2814989999999966
11
491.4060000000000059
21
-119.2814989999999966
0
ARC
8
BLACK
10
686.4810099999999693
20
-68.1814600000000013
40
0.4999610001000078
50
-0.00446943
51
90.00114600
0
ARC
8
BLACK
10
400.7308879999999931
20
-138.3314570000000003
40
0.5001120017636049
50
-89.98716862
51
-0.00481177
0
LINE
8
BLACK
6
CONTINUOUS
10
434.5684999999999718
20
-81.1814990000000023
11
434.5684999999999718
21
-68.1814990000000023
0
LINE
8
BLACK
6
CONTINUOUS
10
458.3809999999999718
20
-138.3314989999999796
11
458.3809999999999718
21
-125.3314989999999938
0
ARC
8
BLACK
10
371.0000009999999975
20
-161.249998000000005
40
0.249999000002
50
-0.00022918
51
90.00022918
0
ARC
8
BLACK
10
538.8435059999999339
20
-44.3689630000000008
40
0.4999640000360026
50
-0.00412559
51
90.00068760
0
LINE
8
BLACK
6
CONTINUOUS
10
476.9309999999999832
20
-124.8314989999999938
11
463.3309999999999604
21
-124.8314989999999938
0
ARC
8
BLACK
10
659.7499990000000025
20
-162.25
40
0.249999000002
50
-180.00022918
51
-89.99977082
0
ARC
8
BLACK
10
634.7810049999999364
20
-157.381463999999994
40
0.5000350000249982
50
-179.99598958
51
-90.00057292
0
ARC
8
BLACK
10
567.4183879999999363
20
-57.3689569999999947
40
0.5001120017636049
50
-89.98716862
51
-0.00481177
0
LINE
8
BLACK
6
CONTINUOUS
10
686.9809999999999945
20
-81.1814990000000023
11
686.9809999999999945
21
-68.1814990000000023
0
ARC
8
BLACK
10
382.3684859999999617
20
-68.1814549999999997
40
0.4999860019360542
50
-270.00160433
51
-179.99495783
0
ARC
8
BLACK
10
653.8311049999999796
20
-138.3314639999999827
40
0.5000350110242282
50
-179.99598958
51
-90.01203127
0
LINE
8
BLACK
6
CONTINUOUS
10
391.7059999999999604
20
-119.2814989999999966
11
391.7059999999999604
21
-106.2814989999999966
0
CIRCLE
8
BLACK
10
415.5
20
-164.9999990000000025
40
1.25
0
LINE
8
BLACK
6
CONTINUOUS
10
558.0810000000000173
20
-125.3314989999999938
11
558.0810000000000173
21
-138.3314989999999796
0
ARC
8
BLACK
10
346.6497509999999806
20
-144.3814999999999884
40
0.500001000001
50
90.00011459
51
179.99988541
0
LINE
8
BLACK
6
CONTINUOUS
10
680.
20
-164.9999990000000025
11
680.
21
-162.4999990000000025
0
ARC
8
BLACK
10
439.5186049999999796
20
-57.3689639999999983
40
0.5000350110242282
50
-179.99598958
51
-90.01203127
0
LINE
8
BLACK
6
CONTINUOUS
10
438.8309999999999604
20
-124.8314989999999938
11
425.2309999999999945
21
-124.8314989999999938
0
LINE
8
BLACK
6
CONTINUOUS
10
460.8499999999999659
20
-40.7499989999999954
11
460.8499999999999659
21
-39.7499989999999954
0
LINE
8
BLACK
6
CONTINUOUS
10
634.2809999999999491
20
-144.3814989999999909
11
634.2809999999999491
21
-157.3814989999999909
0
ARC
8
BLACK
10
567.4185059999999794
20
-44.3689630000000008
40
0.4999640000360026
50
-0.00412559
51
90.00068760
0
ARC
8
BLACK
10
487.1436049999999796
20
-100.2314640000000026
40
0.5000350110242282
50
-179.99598958
51
-90.01203127
0
CIRCLE
8
BLACK
10
348.5
20
-36.9999989999999954
40
1.25
0
LINE
8
BLACK
6
CONTINUOUS
10
610.4684999999999491
20
-44.3689989999999952
11
610.4684999999999491
21
-57.3689989999999952
0
LINE
8
BLACK
6
CONTINUOUS
10
539.5309999999999491
20
-138.8314989999999796
11
553.1309999999999718
21
-138.8314989999999796
0
ARC
8
BLACK
10
415.5
20
-164.9999990000000025
40
2.5
50
-180.00000000
51
-0.00000000
0
ARC
8
BLACK
10
557.893387999999959
20
-100.2314569999999918
40
0.5001120017636049
50
-89.98716862
51
-0.00481177
0
LINE
8
BLACK
6
CONTINUOUS
10
387.1309999999999718
20
-138.8314989999999796
11
400.7309999999999945
21
-138.8314989999999796
0
ARC
8
BLACK
10
634.780887000000007
20
-144.3814559999999858
40
0.499887001849418
50
-270.01295177
51
-179.99507145
0
LINE
8
BLACK
6
CONTINUOUS
10
482.1934999999999718
20
-57.3689989999999952
11
482.1934999999999718
21
-44.3689989999999952
0
LINE
8
BLACK
6
CONTINUOUS
10
596.4934999999999263
20
-100.2314989999999995
11
596.4934999999999263
21
-87.2314989999999995
0
LINE
8
BLACK
6
CONTINUOUS
10
687.
20
-40.9999989999999954
11
687.5
21
-40.9999989999999954
0
LINE
8
BLACK
6
CONTINUOUS
10
424.5434999999999945
20
-86.7314989999999995
11
410.9434999999999718
21
-86.7314989999999995
0
LINE
8
BLACK
6
CONTINUOUS
10
468.0935000000000059
20
-100.7314989999999995
11
481.6934999999999718
21
-100.7314989999999995
0
CIRCLE
8
BLACK
10
608.2434909999999491
20
-50.8690189999999944
40
1.
0
LINE
8
BLACK
6
CONTINUOUS
10
479.8122500000000059
20
-157.3814989999999909
11
479.8122500000000059
21
-144.3814989999999909
0
LINE
8
BLACK
6
CONTINUOUS
10
672.8809999999999718
20
-57.8689989999999952
11
686.4809999999999945
21
-57.8689989999999952
0
LINE
8
BLACK
6
CONTINUOUS
10
585.0997499999999718
20
-137.074499000000003
11
588.0997499999999718
21
-138.8064990000000023
0
ARC
8
BLACK
10
649.2500009999999975
20
-161.249998000000005
40
0.249999000002
50
-0.00022918
51
90.00022918
0
ARC
8
BLACK
10
672.8809860000000072
20
-68.1814549999999997
40
0.4999860019360542
50
-270.00160433
51
-179.99495783
0
LINE
8
BLACK
6
CONTINUOUS
10
439.5184999999999604
20
-57.8689989999999952
11
453.1184999999999832
21
-57.8689989999999952
0
LINE
8
BLACK
6
CONTINUOUS
10
538.8434999999999491
20
-86.7314989999999995
11
525.2434999999999263
21
-86.7314989999999995
0
LINE
8
BLACK
6
CONTINUOUS
10
689.5
20
-42.9999989999999954
11
689.5
21
-158.9999990000000025
0
LINE
8
BLACK
6
CONTINUOUS
10
500.9309999999999832
20
-125.3314989999999938
11
500.9309999999999832
21
-138.3314989999999796
0
LINE
8
BLACK
6
CONTINUOUS
10
634.7809999999999491
20
-81.6814990000000023
11
648.3809999999999718
21
-81.6814990000000023
0
LINE
8
BLACK
6
CONTINUOUS
10
562.6559999999999491
20
-105.7814989999999966
11
549.0559999999999263
21
-105.7814989999999966
0
ARC
8
BLACK
10
516.2185879999999543
20
-144.4313569999999913
40
0.4998380201705348
50
-270.01856985
51
-179.98372273
0
ARC
8
BLACK
10
559.9000009999999747
20
-162.25
40
0.249999000002
50
-90.00022918
51
0.00022918
0
LINE
8
BLACK
6
CONTINUOUS
10
553.8184999999999718
20
-57.8689989999999952
11
567.4184999999999945
21
-57.8689989999999952
0
ARC
8
BLACK
10
481.6935059999999567
20
-87.2314629999999909
40
0.4999640000360026
50
-0.00412559
51
90.00068760
0
LINE
8
BLACK
6
CONTINUOUS
10
572.8684999999999263
20
-57.8689989999999952
11
586.4684999999999491
21
-57.8689989999999952
0
ARC
8
BLACK
10
520.4809860000000299
20
-125.3314549999999912
40
0.4999860019360542
50
-270.00160433
51
-179.99495783
0
ARC
8
BLACK
10
574.5621869999999944
20
-157.3814559999999858
40
0.5000630018487671
50
-89.99278164
51
-0.00492682
0
ARC
8
BLACK
10
519.7933879999999363
20
-100.2314569999999918
40
0.5001120017636049
50
-89.98716862
51
-0.00481177
0
ARC
8
BLACK
10
634.7809859999999844
20
-68.1814549999999997
40
0.4999860019360542
50
-270.00160433
51
-179.99495783
0
LINE
8
BLACK
6
CONTINUOUS
10
592.8622500000000173
20
-119.7564989999999909
11
618.8622500000000173
21
-119.7564989999999909
0
LINE
8
BLACK
6
CONTINUOUS
10
686.4809999999999945
20
-86.7314989999999995
11
672.8809999999999718
21
-86.7314989999999995
0
LINE
8
BLACK
6
CONTINUOUS
10
357.5
20
-39.4999989999999954
11
371.25
21
-39.4999989999999954
0
LINE
8
BLACK
6
CONTINUOUS
10
529.5059999999999718
20
-106.2814989999999966
11
529.5059999999999718
21
-119.2814989999999966
0
CIRCLE
8
BLACK
10
601.0997499999999718
20
-93.7314989999999995
40
1.
0
ARC
8
BLACK
10
550.7497069999999439
20
-144.3815620000000024
40
0.5000630018487671
50
0.00721836
51
89.99507318
0
ARC
8
BLACK
10
605.518387999999959
20
-57.3689569999999947
40
0.5001120017636049
50
-89.98716862
51
-0.00481177
0
LINE
8
BLACK
6
CONTINUOUS
10
485.6999999999999886
20
-162.4999990000000025
11
471.0999999999999659
21
-162.4999990000000025
0
ARC
8
BLACK
10
572.1810060000000249
20
-125.3314629999999994
40
0.4999640000360026
50
-0.00412559
51
90.00068760
0
CIRCLE
8
BLACK
10
348.5
20
-164.9999990000000025
40
1.25
0
ARC
8
BLACK
10
495.9810059999999794
20
-125.3314629999999994
40
0.4999640000360026
50
-0.00412559
51
90.00068760
0
LINE
8
BLACK
6
CONTINUOUS
10
486.6999999999999886
20
-164.9999990000000025
11
486.6999999999999886
21
-163.4999990000000025
0
ARC
8
BLACK
10
660.6310099999999466
20
-185.713797999999997
40
81.58611800543909
50
70.60291138
51
109.39708862
0
ARC
8
BLACK
10
485.7000009999999861
20
-163.499998000000005
40
0.9999990000004999
50
-0.00005730
51
90.00005730
0
ARC
8
BLACK
10
622.1871869999999944
20
-157.3814559999999858
40
0.5000630018487671
50
-89.99278164
51
-0.00492682
0
LINE
8
BLACK
6
CONTINUOUS
10
506.1934999999999718
20
-57.8689989999999952
11
519.7934999999999945
21
-57.8689989999999952
0
ARC
8
BLACK
10
429.3058879999999817
20
-119.281456999999989
40
0.5001120017636049
50
-89.98716862
51
-0.00481177
0
LINE
8
BLACK
6
CONTINUOUS
10
505.5059999999999718
20
-105.7814989999999966
11
491.9060000000000059
21
-105.7814989999999966
0
ARC
8
BLACK
10
567.4185059999999794
20
-68.1814629999999937
40
0.4999640000360026
50
-0.00412559
51
90.00068760
0
CIRCLE
8
BLACK
10
503.3903799999999933
20
-150.8814989999999909
40
1.
0
ARC
8
BLACK
10
653.8308869999999615
20
-144.3814559999999858
40
0.499887001849418
50
-270.01295177
51
-179.99507145
0
ARC
8
BLACK
10
581.705887999999959
20
-119.281456999999989
40
0.5001120017636049
50
-89.98716862
51
-0.00481177
0
ARC
8
BLACK
10
544.2936049999999568
20
-100.2314640000000026
40
0.5000350110242282
50
-179.99598958
51
-90.01203127
0
LINE
8
BLACK
6
CONTINUOUS
10
543.6059999999999945
20
-105.7814989999999966
11
530.0059999999999718
21
-105.7814989999999966
0
LINE
8
BLACK
6
CONTINUOUS
10
429.3057499999999891
20
-144.4314990000000023
11
429.3057499999999891
21
-157.3314989999999796
0
ARC
8
BLACK
10
635.4999990000000025
20
-163.499998000000005
40
0.9999990000004999
50
-270.00005730
51
-179.99994270
0
ARC
8
BLACK
10
391.205887999999959
20
-119.281456999999989
40
0.5001120017636049
50
-89.98716862
51
-0.00481177
0
LINE
8
BLACK
6
CONTINUOUS
10
572.3684999999999263
20
-44.3689989999999952
11
572.3684999999999263
21
-57.3689989999999952
0
LINE
8
BLACK
6
CONTINUOUS
10
415.0184999999999604
20
-43.8689989999999952
11
401.4184999999999945
21
-43.8689989999999952
0
ARC
8
BLACK
10
471.0999989999999684
20
-162.25
40
0.249999000002
50
-180.00022918
51
-89.99977082
0
LINE
8
BLACK
6
CONTINUOUS
10
672.3809999999999718
20
-44.3689989999999952
11
672.3809999999999718
21
-57.3689989999999952
0
LINE
8
BLACK
6
CONTINUOUS
10
408.3747500000000059
20
-157.3814989999999909
11
408.3747500000000059
21
-144.3814989999999909
0
LINE
8
BLACK
6
CONTINUOUS
10
506.1934999999999718
20
-100.7314989999999995
11
519.7934999999999945
21
-100.7314989999999995
0
LINE
8
BLACK
6
CONTINUOUS
10
371.5
20
-40.7499989999999954
11
371.5
21
-39.7499989999999954
0
LINE
8
BLACK
6
CONTINUOUS
10
649.5
20
-162.2499990000000025
11
649.5
21
-161.2499990000000025
0
ARC
8
BLACK
10
519.7933879999999363
20
-57.3689569999999947
40
0.5001120017636049
50
-89.98716862
51
-0.00481177
0
LINE
8
BLACK
6
CONTINUOUS
10
413.
20
-164.9999990000000025
11
413.
21
-162.4999990000000025
0
LINE
8
BLACK
6
CONTINUOUS
10
534.7685000000000173
20
-81.6814990000000023
11
548.3684999999999263
21
-81.6814990000000023
0
LINE
8
BLACK
6
CONTINUOUS
10
371.
20
-160.9999990000000025
11
352.5
21
-160.9999990000000025
0
LINE
8
BLACK
6
CONTINUOUS
10
553.3184999999999718
20
-68.1814990000000023
11
553.3184999999999718
21
-81.1814990000000023
0
ARC
8
BLACK
10
585.0000009999999975
20
-165.
40
0.9999990000004999
50
-90.00005730
51
0.00005730
0
ARC
8
BLACK
10
485.7000009999999861
20
-165.
40
0.9999990000004999
50
-90.00005730
51
0.00005730
0
ARC
8
BLACK
10
445.9999990000000025
20
-36.9999979999999979
40
0.9999990000004999
50
-270.00005730
51
-179.99994270
0
ARC
8
BLACK
10
549.0559859999999617
20
-106.281454999999994
40
0.4999860019360542
50
-270.00160433
51
-179.99495783
0
ARC
8
BLACK
10
400.7310059999999794
20
-125.3314629999999994
40
0.4999640000360026
50
-0.00412559
51
90.00068760
0
LINE
8
BLACK
6
CONTINUOUS
10
534.5810000000000173
20
-138.3314989999999796
11
534.5810000000000173
21
-125.3314989999999938
0
LINE
8
BLACK
6
CONTINUOUS
10
686.9809999999999945
20
-57.3689989999999952
11
686.9809999999999945
21
-44.3689989999999952
0
ARC
8
BLACK
10
500.743505999999968
20
-87.2314629999999909
40
0.4999640000360026
50
-0.00412559
51
90.00068760
0
ARC
8
BLACK
10
407.8746869999999944
20
-157.3814559999999858
40
0.5000630018487671
50
-89.99278164
51
-0.00492682
0
LINE
8
BLACK
6
CONTINUOUS
10
595.9934999999999263
20
-86.7314989999999995
11
582.3935000000000173
21
-86.7314989999999995
0
ARC
8
BLACK
10
560.9623060000000123
20
-157.3813629999999932
40
0.5001360031351472
50
-179.98441979
51
-90.00641538
0
ARC
8
BLACK
10
387.1311049999999909
20
-138.3314639999999827
40
0.5000350110242282
50
-179.99598958
51
-90.01203127
0
LINE
8
BLACK
6
CONTINUOUS
10
429.4934999999999832
20
-87.2314989999999995
11
429.4934999999999832
21
-100.2314989999999995
0
ARC
8
BLACK
10
472.1683879999999931
20
-81.1814569999999947
40
0.5001120017636049
50
-89.98716862
51
-0.00481177
0
ARC
8
BLACK
10
415.7061049999999796
20
-119.2814639999999997
40
0.5000350110242282
50
-179.99598958
51
-90.01203127
0
ARC
8
BLACK
10
471.0999989999999684
20
-161.249998000000005
40
0.249999000002
50
-270.00022918
51
-179.99977082
0
LINE
8
BLACK
6
CONTINUOUS
10
606.0185000000000173
20
-57.3689989999999952
11
606.0185000000000173
21
-44.3689989999999952
0
ARC
8
BLACK
10
572.8684859999999617
20
-44.3689549999999997
40
0.4999860019360542
50
-270.00160433
51
-179.99495783
0
ARC
8
BLACK
10
623.7685060000000021
20
-68.2064629999999994
40
0.4999640000360026
50
-0.00412559
51
90.00068760
0
LINE
8
BLACK
6
CONTINUOUS
10
376.9184999999999945
20
-67.6814990000000023
11
363.3184999999999718
21
-67.6814990000000023
0
ARC
8
BLACK
10
659.7499990000000025
20
-40.75
40
0.249999000002
50
-180.00022918
51
-89.99977082
0
ARC
8
BLACK
10
410.2560059999999567
20
-106.2814630000000022
40
0.4999640000360026
50
-0.00412559
51
90.00068760
0
LINE
8
BLACK
6
CONTINUOUS
10
386.9434999999999718
20
-100.2314989999999995
11
386.9434999999999718
21
-87.2314989999999995
0
LINE
8
BLACK
6
CONTINUOUS
10
529.3184999999999718
20
-67.6814990000000023
11
515.7184999999999491
21
-67.6814990000000023
0
LINE
8
BLACK
6
CONTINUOUS
10
358.3684999999999832
20
-57.3689989999999952
11
358.3684999999999832
21
-44.3689989999999952
0
LINE
8
BLACK
6
CONTINUOUS
10
572.8684999999999263
20
-81.6814990000000023
11
586.4684999999999491
21
-81.6814990000000023
0
LINE
8
BLACK
6
CONTINUOUS
10
558.5810000000000173
20
-138.8314989999999796
11
572.1809999999999263
21
-138.8314989999999796
0
ARC
8
BLACK
10
468.0934859999999844
20
-44.3689549999999997
40
0.4999860019360542
50
-270.00160433
51
-179.99495783
0
ARC
8
BLACK
10
362.6310059999999567
20
-87.2314599999999984
40
0.4999640000360026
50
-0.00412559
51
90.00068760
0
ARC
8
BLACK
10
465.7123059999999555
20
-157.3813629999999932
40
0.5001360031351472
50
-179.98441979
51
-90.00641538
0
LINE
8
BLACK
6
CONTINUOUS
10
344.2685009999999579
20
-57.8689989999999952
11
357.8684999999999832
21
-57.8689989999999952
0
ARC
8
BLACK
10
545.2999989999999571
20
-36.9999979999999979
40
0.9999990000004999
50
-270.00005730
51
-179.99994270
0
ARC
8
BLACK
10
634.7809859999999844
20
-44.3689549999999997
40
0.4999860019360542
50
-270.00160433
51
-179.99495783
0
ARC
8
BLACK
10
415.0185060000000021
20
-68.1814629999999937
40
0.4999640000360026
50
-0.00412559
51
90.00068760
0
LINE
8
BLACK
6
CONTINUOUS
10
419.75
20
-40.9999989999999954
11
460.5999999999999659
21
-40.9999989999999954
0
ARC
8
BLACK
10
621.3622070000000122
20
-106.3065619999999996
40
0.5000630018487671
50
0.00721836
51
89.99507318
0
ARC
8
BLACK
10
425.2311049999999568
20
-138.3314639999999827
40
0.5000350110242282
50
-179.99598958
51
-90.01203127
0
LINE
8
BLACK
6
CONTINUOUS
10
687.
20
-160.9999990000000025
11
687.5
21
-160.9999990000000025
0
ARC
8
BLACK
10
544.2934860000000299
20
-87.2314549999999969
40
0.4999860019360542
50
-270.00160433
51
-179.99495783
0
LINE
8
BLACK
6
CONTINUOUS
10
343.9999990000000025
20
-160.9999990000000025
11
343.4999990000000025
21
-160.9999990000000025
0
ARC
8
BLACK
10
686.4810099999999693
20
-144.3814600000000041
40
0.4999610001000078
50
-0.00446943
51
90.00114600
0
ARC
8
BLACK
10
472.8561049999999568
20
-119.2814639999999997
40
0.5000350110242282
50
-179.99598958
51
-90.01203127
0
ARC
8
BLACK
10
648.3808880000000272
20
-100.2314569999999918
40
0.5001120017636049
50
-89.98716862
51
-0.00481177
0
ARC
8
BLACK
10
491.2185059999999908
20
-68.1814629999999937
40
0.4999640000360026
50
-0.00412559
51
90.00068760
0
ARC
8
BLACK
10
348.5
20
-36.9999989999999954
40
2.5
50
0.00000000
51
180.00000000
0
ARC
8
BLACK
10
453.8059859999999617
20
-106.281454999999994
40
0.4999860019360542
50
-270.00160433
51
-179.99495783
0
ARC
8
BLACK
10
635.4999990000000025
20
-36.9999979999999979
40
0.9999990000004999
50
-270.00005730
51
-179.99994270
0
LINE
8
BLACK
6
CONTINUOUS
10
419.9685000000000059
20
-44.3689989999999952
11
419.9685000000000059
21
-57.3689989999999952
0
LINE
8
BLACK
6
CONTINUOUS
10
530.0059999999999718
20
-119.7814989999999966
11
543.6059999999999945
21
-119.7814989999999966
0
ARC
8
BLACK
10
585.5996860000000197
20
-125.3564549999999969
40
0.4999360019362478
50
-270.00733480
51
-179.99495733
0
ARC
8
BLACK
10
549.0561050000000023
20
-119.2814639999999997
40
0.5000350110242282
50
-179.99598958
51
-90.01203127
0
CIRCLE
8
BLACK
10
585.6216399999999567
20
-112.7814989999999966
40
1.
0
LINE
8
BLACK
6
CONTINUOUS
10
591.9184999999999945
20
-57.8689989999999952
11
605.5185000000000173
21
-57.8689989999999952
0
LINE
8
BLACK
6
CONTINUOUS
10
346.1497509999999806
20
-106.2814999999999941
11
346.1497509999999806
21
-119.2814989999999966
0
LINE
8
BLACK
6
CONTINUOUS
10
395.9685000000000059
20
-67.6814990000000023
11
382.3684999999999832
21
-67.6814990000000023
0
LINE
8
BLACK
6
CONTINUOUS
10
667.9309999999999263
20
-57.3689989999999952
11
667.9309999999999263
21
-44.3689989999999952
0
ARC
8
BLACK
10
485.7000009999999861
20
-38.5
40
0.9999990000004999
50
-90.00005730
51
0.00005730
0
ARC
8
BLACK
10
468.0936049999999682
20
-57.3689639999999983
40
0.5000350110242282
50
-179.99598958
51
-90.01203127
0
ARC
8
BLACK
10
562.6560059999999339
20
-106.2814630000000022
40
0.4999640000360026
50
-0.00412559
51
90.00068760
0
ARC
8
BLACK
10
343.4999990000000025
20
-42.9999979999999979
40
1.9999989999999999
50
89.99997135
51
180.00000000
0
ARC
8
BLACK
10
581.7060060000000021
20
-106.2814630000000022
40
0.4999640000360026
50
-0.00412559
51
90.00068760
0
LINE
8
BLACK
6
CONTINUOUS
10
567.9184999999999945
20
-81.1814990000000023
11
567.9184999999999945
21
-68.1814990000000023
0
LINE
8
BLACK
6
CONTINUOUS
10
341.5
20
-158.9999990000000025
11
341.5
21
-42.9999979999999979
0
ARC
8
BLACK
10
510.268387999999959
20
-81.1814569999999947
40
0.5001120017636049
50
-89.98716862
51
-0.00481177
0
ARC
8
BLACK
10
482.3809859999999503
20
-125.3314549999999912
40
0.4999860019360542
50
-270.00160433
51
-179.99495783
0
ARC
8
BLACK
10
395.5000009999999975
20
-165.
40
0.9999990000004999
50
-90.00005730
51
0.00005730
0
LINE
8
BLACK
6
CONTINUOUS
10
622.6872499999999491
20
-157.3814989999999909
11
622.6872499999999491
21
-144.3814989999999909
0
ARC
8
BLACK
10
500.7433879999999817
20
-57.3689569999999947
40
0.5001120017636049
50
-89.98716862
51
-0.00481177
0
ARC
8
BLACK
10
653.8310050000000047
20
-157.381463999999994
40
0.5000350000249982
50
-179.99598958
51
-90.00057292
0
ARC
8
BLACK
10
524.5560060000000249
20
-106.2814630000000022
40
0.4999640000360026
50
-0.00412559
51
90.00068760
0
ARC
8
BLACK
10
686.4808899999999312
20
-100.2314599999999984
40
0.5001100015206654
50
-89.98739768
51
-0.00446809
0
ARC
8
BLACK
10
524.5558879999999817
20
-119.281456999999989
40
0.5001120017636049
50
-89.98716862
51
-0.00481177
0
ARC
8
BLACK
10
559.9000009999999747
20
-161.249998000000005
40
0.249999000002
50
-0.00022918
51
90.00022918
0
LINE
8
BLACK
6
CONTINUOUS
10
686.4809999999999945
20
-143.8814989999999909
11
672.8809999999999718
21
-143.8814989999999909
0
ARC
8
BLACK
10
667.4308879999999817
20
-138.3314570000000003
40
0.5001120017636049
50
-89.98716862
51
-0.00481177
0
ARC
8
BLACK
10
391.8936049999999796
20
-100.2314640000000026
40
0.5000350110242282
50
-179.99598958
51
-90.01203127
0
LINE
8
BLACK
6
CONTINUOUS
10
515.71875
20
-144.4314990000000023
11
515.71875
21
-157.3314989999999796
0
LINE
8
BLACK
6
CONTINUOUS
10
608.5872499999999263
20
-157.8814989999999909
11
622.1872499999999491
21
-157.8814989999999909
0
LINE
8
BLACK
6
CONTINUOUS
10
520.2934999999999945
20
-57.3689989999999952
11
520.2934999999999945
21
-44.3689989999999952
0
ARC
8
BLACK
10
606.2061049999999796
20
-100.2314640000000026
40
0.5000350110242282
50
-179.99598958
51
-90.01203127
0
ARC
8
BLACK
10
376.9184849999999756
20
-68.1815139999999928
40
0.5000150002249932
50
0.00171882
51
89.99828118
0
ARC
8
BLACK
10
382.3686050000000023
20
-57.3689639999999983
40
0.5000350110242282
50
-179.99598958
51
-90.01203127
0
ARC
8
BLACK
10
401.4186049999999568
20
-81.1814639999999912
40
0.5000350110242282
50
-179.99598958
51
-90.01203127
0
LINE
8
BLACK
6
CONTINUOUS
10
500.7434999999999832
20
-86.7314989999999995
11
487.1434999999999604
21
-86.7314989999999995
0
CIRCLE
8
BLACK
10
493.9434909999999945
20
-74.6814990000000023
40
1.
0
LINE
8
BLACK
6
CONTINUOUS
10
501.2434999999999832
20
-100.2314989999999995
11
501.2434999999999832
21
-87.2314989999999995
0
ARC
8
BLACK
10
572.8684859999999617
20
-68.1814549999999997
40
0.4999860019360542
50
-270.00160433
51
-179.99495783
0
ARC
8
BLACK
10
582.3936049999999796
20
-100.2314640000000026
40
0.5000350110242282
50
-179.99598958
51
-90.01203127
0
ARC
8
BLACK
10
648.3808880000000272
20
-81.1814569999999947
40
0.5001120017636049
50
-89.98716862
51
-0.00481177
0
LINE
8
BLACK
6
CONTINUOUS
10
544.1059999999999945
20
-119.2814989999999966
11
544.1059999999999945
21
-106.2814989999999966
0
ARC
8
BLACK
10
687.5
20
-159.
40
2.00000000000025
50
-90.00000000
51
0.00002865
0
LINE
8
BLACK
6
CONTINUOUS
10
545.2999999999999545
20
-39.4999989999999954
11
559.8999999999999773
21
-39.4999989999999954
0
ARC
8
BLACK
10
667.4310060000000249
20
-144.3814629999999966
40
0.4999640000360026
50
-0.00412559
51
90.00068760
0
LINE
8
BLACK
6
CONTINUOUS
10
381.8684999999999832
20
-44.3689989999999952
11
381.8684999999999832
21
-57.3689989999999952
0
ARC
8
BLACK
10
576.9435059999999567
20
-87.2314629999999909
40
0.4999640000360026
50
-0.00412559
51
90.00068760
0
LINE
8
BLACK
6
CONTINUOUS
10
570.3999999999999773
20
-40.9999989999999954
11
649.25
21
-40.9999989999999954
0
ARC
8
BLACK
10
415.018387999999959
20
-81.1814569999999947
40
0.5001120017636049
50
-89.98716862
51
-0.00481177
0
CIRCLE
8
BLACK
10
367.7967580000000112
20
-93.7331129999999888
40
1.
0
CIRCLE
8
BLACK
10
670.1560099999999238
20
-50.8690189999999944
40
1.
0
ARC
8
BLACK
10
653.8309859999999389
20
-125.3314549999999912
40
0.4999860019360542
50
-270.00160433
51
-179.99495783
0
LINE
8
BLACK
6
CONTINUOUS
10
605.7060000000000173
20
-87.2314989999999995
11
605.7060000000000173
21
-100.2314989999999995
0
ARC
8
BLACK
10
515.0308880000000045
20
-138.3314570000000003
40
0.5001120017636049
50
-89.98716862
51
-0.00481177
0
LINE
8
BLACK
6
CONTINUOUS
10
467.9060000000000059
20
-119.2814989999999966
11
467.9060000000000059
21
-106.2814989999999966
0
ARC
8
BLACK
10
533.4999990000000025
20
-162.5
40
1.5000010000003334
50
0.00003820
51
89.99996180
0
LINE
8
BLACK
6
CONTINUOUS
10
377.6059999999999945
20
-119.7814989999999966
11
391.2059999999999604
21
-119.7814989999999966
0
ARC
8
BLACK
10
648.3810059999999567
20
-44.3689630000000008
40
0.4999640000360026
50
-0.00412559
51
90.00068760
0
LINE
8
BLACK
6
CONTINUOUS
10
634.2809999999999491
20
-68.1814990000000023
11
634.2809999999999491
21
-81.1814990000000023
0
ARC
8
BLACK
10
634.781105000000025
20
-57.3689639999999983
40
0.5000350110242282
50
-179.99598958
51
-90.01203127
0
LINE
8
BLACK
6
CONTINUOUS
10
520.4809999999999945
20
-138.8314989999999796
11
534.0810000000000173
21
-138.8314989999999796
0
ARC
8
BLACK
10
363.3184839999999554
20
-81.1815149999999903
40
0.4999840002560081
50
-180.00183352
51
-89.99816648
0
LINE
8
BLACK
6
CONTINUOUS
10
481.6934999999999718
20
-86.7314989999999995
11
468.0935000000000059
21
-86.7314989999999995
0
LINE
8
BLACK
6
CONTINUOUS
10
346.
20
-39.4999979999999979
11
346.
21
-36.9999989999999954
0
ARC
8
BLACK
10
678.2499990000000025
20
-39.4999979999999979
40
1.5000010000003334
50
-89.99996180
51
-0.00003820
0
ARC
8
BLACK
10
429.9934859999999617
20
-87.2314549999999969
40
0.4999860019360542
50
-270.00160433
51
-179.99495783
0
ARC
8
BLACK
10
496.668485999999973
20
-68.1814549999999997
40
0.4999860019360542
50
-270.00160433
51
-179.99495783
0
ARC
8
BLACK
10
538.8433880000000045
20
-57.3689569999999947
40
0.5001120017636049
50
-89.98716862
51
-0.00481177
0
LINE
8
BLACK
6
CONTINUOUS
10
420.2810000000000059
20
-138.3314989999999796
11
420.2810000000000059
21
-125.3314989999999938
0
LINE
8
BLACK
6
CONTINUOUS
10
515.0309999999999491
20
-124.8314989999999938
11
501.4309999999999832
21
-124.8314989999999938
0
LINE
8
BLACK
6
CONTINUOUS
10
486.6999999999999886
20
-38.4999989999999954
11
486.6999999999999886
21
-36.9999989999999954
0
LINE
8
BLACK
6
CONTINUOUS
10
589.8622500000000173
20
-118.0244989999999916
11
592.8622500000000173
21
-119.7564989999999909
0
ARC
8
BLACK
10
672.8810049999999592
20
-157.381463999999994
40
0.5000350000249982
50
-179.99598958
51
-90.00057292
0
ARC
8
BLACK
10
538.8433880000000045
20
-100.2314569999999918
40
0.5001120017636049
50
-89.98716862
51
-0.00481177
0
LINE
8
BLACK
6
CONTINUOUS
10
529.3187500000000227
20
-157.3314989999999796
11
529.3187500000000227
21
-144.4314990000000023
0
ARC
8
BLACK
10
360.2497209999999654
20
-157.3814699999999789
40
0.5000290008409513
50
-89.99667704
51
-0.00332296
0
ARC
8
BLACK
10
424.5435059999999794
20
-87.2314629999999909
40
0.4999640000360026
50
-0.00412559
51
90.00068760
0
LINE
8
BLACK
6
CONTINUOUS
10
356.5
20
-163.4999990000000025
11
356.5
21
-164.9999990000000025
0
LINE
8
BLACK
6
CONTINUOUS
10
591.4184999999999945
20
-44.3689989999999952
11
591.4184999999999945
21
-57.3689989999999952
0
ARC
8
BLACK
10
387.1309860000000072
20
-125.3314549999999912
40
0.4999860019360542
50
-270.00160433
51
-179.99495783
0
LINE
8
BLACK
6
CONTINUOUS
10
672.8809999999999718
20
-100.7314989999999995
11
686.4809999999999945
21
-100.7314989999999995
0
LINE
8
BLACK
6
CONTINUOUS
10
598.3747499999999491
20
-143.8814989999999909
11
584.7747499999999263
21
-143.8814989999999909
0
ARC
8
BLACK
10
384.0621869999999944
20
-157.3814559999999858
40
0.5000630018487671
50
-89.99278164
51
-0.00492682
0
LINE
8
BLACK
6
CONTINUOUS
10
396.6560000000000059
20
-119.7814989999999966
11
410.2559999999999718
21
-119.7814989999999966
0
ARC
8
BLACK
10
434.7561049999999909
20
-119.2814639999999997
40
0.5000350110242282
50
-179.99598958
51
-90.01203127
0
LINE
8
BLACK
6
CONTINUOUS
10
351.
20
-36.9999989999999954
11
351.
21
-39.4999989999999954
0
ARC
8
BLACK
10
406.1809859999999617
20
-125.3314549999999912
40
0.4999860019360542
50
-270.00160433
51
-179.99495783
0
LINE
8
BLACK
6
CONTINUOUS
10
496.1684999999999945
20
-68.1814990000000023
11
496.1684999999999945
21
-81.1814990000000023
0
ARC
8
BLACK
10
344.4999990000000025
20
-39.4999979999999979
40
1.5000009999999999
50
-90.00000000
51
-0.00000000
0
ARC
8
BLACK
10
445.9999990000000025
20
-163.499998000000005
40
0.9999990000004999
50
-270.00005730
51
-179.99994270
0
LINE
8
BLACK
6
CONTINUOUS
10
370.4622499999999832
20
-157.8814989999999909
11
384.0622500000000059
21
-157.8814989999999909
0
CIRCLE
8
BLACK
10
554.6653800000000274
20
-150.8814989999999909
40
1.
0
LINE
8
BLACK
6
CONTINUOUS
10
616.5997499999999718
20
-124.8564989999999995
11
585.5997499999999718
21
-124.8564989999999995
0
LINE
8
BLACK
6
CONTINUOUS
10
381.75
20
-160.9999990000000025
11
411.5
21
-160.9999990000000025
0
ARC
8
BLACK
10
394.2745879999999943
20
-144.38135699999998
40
0.4998380201705348
50
-270.01856985
51
-179.98372273
0
ARC
8
BLACK
10
487.1434859999999958
20
-87.2314549999999969
40
0.4999860019360542
50
-270.00160433
51
-179.99495783
0
LINE
8
BLACK
6
CONTINUOUS
10
667.9309999999999263
20
-157.3814989999999909
11
667.9309999999999263
21
-144.3814989999999909
0
LINE
8
BLACK
6
CONTINUOUS
10
439.3309999999999604
20
-138.3314989999999796
11
439.3309999999999604
21
-125.3314989999999938
0
LINE
8
BLACK
6
CONTINUOUS
10
377.4184999999999945
20
-81.1814990000000023
11
377.4184999999999945
21
-68.1814990000000023
0
LINE
8
BLACK
6
CONTINUOUS
10
584.7747499999999263
20
-157.8814989999999909
11
598.3747499999999491
21
-157.8814989999999909
0
ARC
8
BLACK
10
343.4999990000000025
20
-159.
40
1.9999989999999999
50
-180.00002865
51
-90.00000000
0
LINE
8
BLACK
6
CONTINUOUS
10
429.3059999999999832
20
-105.7814989999999966
11
415.7059999999999604
21
-105.7814989999999966
0
LINE
8
BLACK
6
CONTINUOUS
10
410.2559999999999718
20
-105.7814989999999966
11
396.6560000000000059
21
-105.7814989999999966
0
LINE
8
BLACK
6
CONTINUOUS
10
589.8622500000000173
20
-106.3064989999999881
11
589.8622500000000173
21
-118.0244989999999916
0
ARC
8
BLACK
10
411.4999990000000025
20
-162.5
40
1.5000010000003334
50
0.00003820
51
89.99996180
0
ARC
8
BLACK
10
610.968605000000025
20
-57.3689639999999983
40
0.5000350110242282
50
-179.99598958
51
-90.01203127
0
ARC
8
BLACK
10
591.9186049999999568
20
-57.3689639999999983
40
0.5000350110242282
50
-179.99598958
51
-90.01203127
0
LINE
8
BLACK
6
CONTINUOUS
10
470.8499999999999659
20
-161.2499990000000025
11
470.8499999999999659
21
-162.2499990000000025
0
ARC
8
BLACK
10
619.8058879999999817
20
-100.2314569999999918
40
0.5001120017636049
50
-89.98716862
51
-0.00481177
0
LINE
8
BLACK
6
CONTINUOUS
10
506.0059999999999718
20
-119.2814989999999966
11
506.0059999999999718
21
-106.2814989999999966
0
ARC
8
BLACK
10
519.7935059999999794
20
-87.2314629999999909
40
0.4999640000360026
50
-0.00412559
51
90.00068760
0
ARC
8
BLACK
10
485.7000009999999861
20
-36.9999979999999979
40
0.9999990000004999
50
-0.00005730
51
90.00005730
0
ARC
8
BLACK
10
515.718605000000025
20
-81.1814639999999912
40
0.5000350110242282
50
-179.99598958
51
-90.01203127
0
ARC
8
BLACK
10
616.5997069999999667
20
-125.3565619999999967
40
0.5000630018487671
50
0.00721836
51
89.99507318
0
ARC
8
BLACK
10
559.9000009999999747
20
-40.75
40
0.249999000002
50
-90.00022918
51
0.00022918
0
LINE
8
BLACK
6
CONTINUOUS
10
667.4309999999999263
20
-124.8314989999999938
11
653.8310000000000173
21
-124.8314989999999938
0
ARC
8
BLACK
10
686.5
20
-162.5
40
1.5000000000003333
50
90.00000000
51
179.99996180
0
ARC
8
BLACK
10
460.6000009999999634
20
-40.75
40
0.249999000002
50
-90.00022918
51
0.00022918
0
ARC
8
BLACK
10
352.5000009999999975
20
-162.5
40
1.5000010000003334
50
90.00003820
51
179.99996180
0
ARC
8
BLACK
10
548.3683879999999817
20
-81.1814569999999947
40
0.5001120017636049
50
-89.98716862
51
-0.00481177
0
LINE
8
BLACK
6
CONTINUOUS
10
448.8559999999999945
20
-119.2814989999999966
11
448.8559999999999945
21
-106.2814989999999966
0
LINE
8
BLACK
6
CONTINUOUS
10
396.5
20
-38.4999989999999954
11
396.5
21
-36.9999989999999954
0
CIRCLE
8
BLACK
10
489.1810099999999579
20
-112.7814989999999966
40
1.
0
LINE
8
BLACK
6
CONTINUOUS
10
620.3059999999999263
20
-100.2314989999999995
11
620.3059999999999263
21
-87.2314989999999995
0
LINE
8
BLACK
6
CONTINUOUS
10
524.7434999999999263
20
-44.3689989999999952
11
524.7434999999999263
21
-57.3689989999999952
0
ARC
8
BLACK
10
372.8435059999999908
20
-87.2315049999999985
40
0.5000060000359996
50
90.00068754
51
179.99931246
0
LINE
8
BLACK
6
CONTINUOUS
10
410.9434999999999718
20
-100.7314989999999995
11
424.5434999999999945
21
-100.7314989999999995
0
LINE
8
BLACK
6
CONTINUOUS
10
534.0810000000000173
20
-124.8314989999999938
11
520.4809999999999945
21
-124.8314989999999938
0
LINE
8
BLACK
6
CONTINUOUS
10
672.3809999999999718
20
-144.3814989999999909
11
672.3809999999999718
21
-157.3814989999999909
0
ARC
8
BLACK
10
448.3560059999999794
20
-106.2814630000000022
40
0.4999640000360026
50
-0.00412559
51
90.00068760
0
ARC
8
BLACK
10
530.0059860000000072
20
-106.281454999999994
40
0.4999860019360542
50
-270.00160433
51
-179.99495783
0
LINE
8
BLACK
6
CONTINUOUS
10
371.
20
-162.4999990000000025
11
357.5
21
-162.4999990000000025
0
LINE
8
BLACK
6
CONTINUOUS
10
648.8809999999999718
20
-157.3814989999999909
11
648.8809999999999718
21
-144.3814989999999909
0
LINE
8
BLACK
6
CONTINUOUS
10
401.2309999999999945
20
-138.3314989999999796
11
401.2309999999999945
21
-125.3314989999999938
0
LINE
8
BLACK
6
CONTINUOUS
10
463.1434999999999604
20
-100.2314989999999995
11
463.1434999999999604
21
-87.2314989999999995
0
ARC
8
BLACK
10
570.3999989999999798
20
-39.7499979999999979
40
0.249999000002
50
-270.00022918
51
-179.99977082
0
ARC
8
BLACK
10
633.9325999999999794
20
-109.892195000000001
40
1.1983505343700565
50
-250.68115763
51
-159.80780883
0
ARC
8
BLACK
10
682.5
20
-164.9999990000000025
40
2.5
50
-180.00000000
51
-0.00000000
0
LINE
8
BLACK
6
CONTINUOUS
10
386.4434999999999718
20
-86.7314989999999995
11
372.8435000000000059
21
-86.7314989999999995
0
LINE
8
BLACK
6
CONTINUOUS
10
477.4309999999999832
20
-138.3314989999999796
11
477.4309999999999832
21
-125.3314989999999938
0
LINE
8
BLACK
6
CONTINUOUS
10
381.5
20
-161.2499990000000025
11
381.5
21
-162.2499990000000025
0
LINE
8
BLACK
6
CONTINUOUS
10
396.5
20
-164.9999990000000025
11
396.5
21
-163.4999990000000025
0
LINE
8
BLACK
6
CONTINUOUS
10
395.5
20
-35.9999989999999954
11
357.5
21
-35.9999989999999954
0
ARC
8
BLACK
10
462.643387999999959
20
-100.2314569999999918
40
0.5001120017636049
50
-89.98716862
51
-0.00481177
0
ARC
8
BLACK
10
586.4683880000000045
20
-57.3689569999999947
40
0.5001120017636049
50
-89.98716862
51
-0.00481177
0
ARC
8
BLACK
10
411.2499990000000025
20
-39.4999979999999979
40
1.5000010000003334
50
-89.99996180
51
-0.00003820
0
CIRCLE
8
BLACK
10
460.6060099999999693
20
-50.8690189999999944
40
1.
0
LINE
8
BLACK
6
CONTINUOUS
10
352.5
20
-40.9999989999999954
11
371.25
21
-40.9999989999999954
0
ARC
8
BLACK
10
395.5000009999999975
20
-38.5
40
0.9999990000004999
50
-90.00005730
51
0.00005730
0
ARC
8
BLACK
10
506.1936049999999909
20
-100.2314640000000026
40
0.5000350110242282
50
-179.99598958
51
-90.01203127
0
ARC
8
BLACK
10
553.8186049999999341
20
-81.1814639999999912
40
0.5000350110242282
50
-179.99598958
51
-90.01203127
0
LINE
8
BLACK
6
CONTINUOUS
10
549.0559999999999263
20
-119.7814989999999966
11
562.6559999999999491
21
-119.7814989999999966
0
ARC
8
BLACK
10
391.8934859999999958
20
-87.2314549999999969
40
0.4999860019360542
50
-270.00160433
51
-179.99495783
0
LINE
8
BLACK
6
CONTINUOUS
10
586.9684999999999491
20
-57.3689989999999952
11
586.9684999999999491
21
-44.3689989999999952
0
ARC
8
BLACK
10
529.3183880000000272
20
-81.1814569999999947
40
0.5001120017636049
50
-89.98716862
51
-0.00481177
0
ARC
8
BLACK
10
346.6497509999999806
20
-157.3814979999999935
40
0.500001000001
50
-179.99988541
51
-90.00011459
0
LINE
8
BLACK
6
CONTINUOUS
10
572.3684999999999263
20
-68.1814990000000023
11
572.3684999999999263
21
-81.1814990000000023
0
LINE
8
BLACK
6
CONTINUOUS
10
634.2809999999999491
20
-44.3689989999999952
11
634.2809999999999491
21
-57.3689989999999952
0
ARC
8
BLACK
10
458.5684860000000072
20
-68.1814549999999997
40
0.4999860019360542
50
-270.00160433
51
-179.99495783
0
ARC
8
BLACK
10
648.3808880000000272
20
-157.3814569999999833
40
0.5001120017636049
50
-89.98716862
51
-0.00481177
0
ARC
8
BLACK
10
672.8809860000000072
20
-87.2314549999999969
40
0.4999860019360542
50
-270.00160433
51
-179.99495783
0
ARC
8
BLACK
10
394.2748059999999555
20
-157.3813629999999932
40
0.5001360031351472
50
-179.98441979
51
-90.00641538
0
ARC
8
BLACK
10
634.7809859999999844
20
-87.2314549999999969
40
0.4999860019360542
50
-270.00160433
51
-179.99495783
0
ARC
8
BLACK
10
534.080887999999959
20
-138.3314570000000003
40
0.5001120017636049
50
-89.98716862
51
-0.00481177
0
LINE
8
BLACK
6
CONTINUOUS
10
686.9809999999999945
20
-157.3814989999999909
11
686.9809999999999945
21
-144.3814989999999909
0
LINE
8
BLACK
6
CONTINUOUS
10
346.6497499999999832
20
-157.8814989999999909
11
360.2497500000000059
21
-157.8814989999999909
0
CIRCLE
8
BLACK
10
383.2153799999999819
20
-131.831499000000008
40
1.
0
ARC
8
BLACK
10
545.2999989999999571
20
-165.
40
0.9999990000004999
50
-180.00005730
51
-89.99994270
0
ARC
8
BLACK
10
481.6935059999999567
20
-44.3689630000000008
40
0.4999640000360026
50
-0.00412559
51
90.00068760
0
LINE
8
BLACK
6
CONTINUOUS
10
501.2434999999999832
20
-57.3689989999999952
11
501.2434999999999832
21
-44.3689989999999952
0
LINE
8
BLACK
6
CONTINUOUS
10
516.21875
20
-157.8314989999999796
11
528.8187500000000227
21
-157.8314989999999796
0
ARC
8
BLACK
10
434.0685059999999567
20
-44.3689630000000008
40
0.4999640000360026
50
-0.00412559
51
90.00068760
0
ARC
8
BLACK
10
357.8685069999999655
20
-81.1815059999999988
40
0.4999930000490007
50
-90.00080215
51
0.00080215
0
ARC
8
BLACK
10
686.4808899999999312
20
-57.3689599999999942
40
0.5001100015206654
50
-89.98739768
51
-0.00446809
0
ARC
8
BLACK
10
553.8184860000000072
20
-68.1814549999999997
40
0.4999860019360542
50
-270.00160433
51
-179.99495783
0
LINE
8
BLACK
6
CONTINUOUS
10
548.8684999999999263
20
-81.1814990000000023
11
548.8684999999999263
21
-68.1814990000000023
0
ARC
8
BLACK
10
501.4309859999999617
20
-125.3314549999999912
40
0.4999860019360542
50
-270.00160433
51
-179.99495783
0
LINE
8
BLACK
6
CONTINUOUS
10
360.7497510000000034
20
-119.2814989999999966
11
360.7497510000000034
21
-106.2814989999999966
0
LINE
8
BLACK
6
CONTINUOUS
10
673.5
20
-162.4999990000000025
11
659.75
21
-162.4999990000000025
0
ARC
8
BLACK
10
548.3685060000000249
20
-68.1814629999999937
40
0.4999640000360026
50
-0.00412559
51
90.00068760
0
ARC
8
BLACK
10
453.118505999999968
20
-44.3689630000000008
40
0.4999640000360026
50
-0.00412559
51
90.00068760
0
LINE
8
BLACK
6
CONTINUOUS
10
395.9685000000000059
20
-43.8689989999999952
11
382.3684999999999832
21
-43.8689989999999952
0
ARC
8
BLACK
10
667.4310060000000249
20
-125.3314629999999994
40
0.4999640000360026
50
-0.00412559
51
90.00068760
0
LINE
8
BLACK
6
CONTINUOUS
10
348.5310000000000059
20
-87.2314959999999928
11
348.5310000000000059
21
-100.2314959999999928
0
LINE
8
BLACK
6
CONTINUOUS
10
443.7810000000000059
20
-125.3314989999999938
11
443.7810000000000059
21
-138.3314989999999796
0
ARC
8
BLACK
10
550.7496869999999944
20
-157.3814559999999858
40
0.5000630018487671
50
-89.99278164
51
-0.00492682
0
LINE
8
BLACK
6
CONTINUOUS
10
377.1059999999999945
20
-106.2814989999999966
11
377.1059999999999945
21
-119.2814989999999966
0
ARC
8
BLACK
10
510.2685060000000021
20
-68.1814629999999937
40
0.4999640000360026
50
-0.00412559
51
90.00068760
0
ARC
8
BLACK
10
487.1436049999999796
20
-57.3689639999999983
40
0.5000350110242282
50
-179.99598958
51
-90.01203127
0
ARC
8
BLACK
10
659.7499990000000025
20
-39.7499979999999979
40
0.249999000002
50
-270.00022918
51
-179.99977082
0
LINE
8
BLACK
6
CONTINUOUS
10
467.5935000000000059
20
-87.2314989999999995
11
467.5935000000000059
21
-100.2314989999999995
0
ARC
8
BLACK
10
425.230985999999973
20
-125.3314549999999912
40
0.4999860019360542
50
-270.00160433
51
-179.99495783
0
ARC
8
BLACK
10
372.8434839999999895
20
-100.2315150000000017
40
0.4999840002560081
50
-180.00183352
51
-89.99816648
0
LINE
8
BLACK
6
CONTINUOUS
10
608.0872499999999263
20
-144.3814989999999909
11
608.0872499999999263
21
-157.3814989999999909
0
ARC
8
BLACK
10
467.4060059999999908
20
-106.2814630000000022
40
0.4999640000360026
50
-0.00412559
51
90.00068760
0
ARC
8
BLACK
10
634.781105000000025
20
-100.2314640000000026
40
0.5000350110242282
50
-179.99598958
51
-90.01203127
0
ARC
8
BLACK
10
515.0310059999999339
20
-125.3314629999999994
40
0.4999640000360026
50
-0.00412559
51
90.00068760
0
ARC
8
BLACK
10
515.7184859999999844
20
-68.1814549999999997
40
0.4999860019360542
50
-270.00160433
51
-179.99495783
0
LINE
8
BLACK
6
CONTINUOUS
10
570.3999999999999773
20
-162.4999990000000025
11
585.
21
-162.4999990000000025
0
LINE
8
BLACK
6
CONTINUOUS
10
384.5622500000000059
20
-157.3814989999999909
11
384.5622500000000059
21
-144.3814989999999909
0
CIRCLE
8
BLACK
10
682.5
20
-36.9999989999999954
40
1.25
0
LINE
8
BLACK
6
CONTINUOUS
10
592.2685000000000173
20
-68.2064989999999938
11
592.2685000000000173
21
-79.9244989999999973
0
LINE
8
BLACK
6
CONTINUOUS
10
349.9747499999999718
20
-138.8064990000000023
11
375.9747499999999718
21
-138.8064990000000023
0
ARC
8
BLACK
10
357.4999990000000025
20
-38.5
40
0.9999990000004999
50
-180.00005730
51
-89.99994270
0
ARC
8
BLACK
10
672.8811049999999341
20
-100.2314640000000026
40
0.5000350110242282
50
-179.99598958
51
-90.01203127
0
LINE
8
BLACK
6
CONTINUOUS
10
653.3310000000000173
20
-87.2314989999999995
11
653.3310000000000173
21
-100.2314989999999995
0
ARC
8
BLACK
10
606.2059859999999389
20
-87.2314549999999969
40
0.4999860019360542
50
-270.00160433
51
-179.99495783
0
LINE
8
BLACK
6
CONTINUOUS
10
586.4684999999999491
20
-67.6814990000000023
11
572.8684999999999263
21
-67.6814990000000023
0
LINE
8
BLACK
6
CONTINUOUS
10
453.6184999999999832
20
-57.3689989999999952
11
453.6184999999999832
21
-44.3689989999999952
0
LINE
8
BLACK
6
CONTINUOUS
10
429.8059999999999832
20
-119.2814989999999966
11
429.8059999999999832
21
-106.2814989999999966
0
LINE
8
BLACK
6
CONTINUOUS
10
434.7559999999999718
20
-119.7814989999999966
11
448.3559999999999945
21
-119.7814989999999966
0
ARC
8
BLACK
10
419.7808880000000045
20
-138.3314570000000003
40
0.5001120017636049
50
-89.98716862
51
-0.00481177
0
LINE
8
BLACK
6
CONTINUOUS
10
539.3434999999999491
20
-57.3689989999999952
11
539.3434999999999491
21
-44.3689989999999952
0
LINE
8
BLACK
6
CONTINUOUS
10
482.3809999999999718
20
-138.8314989999999796
11
495.9809999999999945
21
-138.8314989999999796
0
LINE
8
BLACK
6
CONTINUOUS
10
535.
20
-164.9999990000000025
11
535.
21
-162.4999990000000025
0
LINE
8
BLACK
6
CONTINUOUS
10
451.9872309999999516
20
-147.8814989999999909
11
454.9872309999999516
21
-147.8814989999999909
0
LINE
8
BLACK
6
CONTINUOUS
10
454.9872309999999516
20
-147.8814989999999909
11
454.9872309999999516
21
-153.8814989999999909
0
LINE
8
BLACK
6
CONTINUOUS
10
454.9872309999999516
20
-153.8814989999999909
11
451.9872309999999516
21
-153.8814989999999909
0
LINE
8
BLACK
6
CONTINUOUS
10
451.9872309999999516
20
-153.8814989999999909
11
451.9872309999999516
21
-147.8814989999999909
0
LINE
8
BLACK
6
CONTINUOUS
10
649.5
20
-40.7499989999999954
11
649.5
21
-39.7499989999999954
0
LINE
8
BLACK
6
CONTINUOUS
10
525.2434999999999263
20
-100.7314989999999995
11
538.8434999999999491
21
-100.7314989999999995
0
LINE
8
BLACK
6
CONTINUOUS
10
419.9685000000000059
20
-68.1814990000000023
11
419.9685000000000059
21
-81.1814990000000023
0
ARC
8
BLACK
10
582.3934859999999389
20
-87.2314549999999969
40
0.4999860019360542
50
-270.00160433
51
-179.99495783
0
LINE
8
BLACK
6
CONTINUOUS
10
372.3435000000000059
20
-87.2314989999999995
11
372.3435000000000059
21
-100.2314989999999995
0
LINE
8
BLACK
6
CONTINUOUS
10
487.1434999999999604
20
-57.8689989999999952
11
500.7434999999999832
21
-57.8689989999999952
0
LINE
8
BLACK
6
CONTINUOUS
10
524.5559999999999263
20
-105.7814989999999966
11
510.9559999999999604
21
-105.7814989999999966
0
ARC
8
BLACK
10
653.8311049999999796
20
-81.1814639999999912
40
0.5000350110242282
50
-179.99598958
51
-90.01203127
0
LINE
8
BLACK
6
CONTINUOUS
10
575.0622499999999491
20
-157.3814989999999909
11
575.0622499999999491
21
-144.3814989999999909
0
ARC
8
BLACK
10
576.9433880000000272
20
-100.2314569999999918
40
0.5001120017636049
50
-89.98716862
51
-0.00481177
0
ARC
8
BLACK
10
420.4686049999999682
20
-81.1814639999999912
40
0.5000350110242282
50
-179.99598958
51
-90.01203127
0
LINE
8
BLACK
6
CONTINUOUS
10
477.1184999999999832
20
-68.1814990000000023
11
477.1184999999999832
21
-81.1814990000000023
0
LINE
8
BLACK
6
CONTINUOUS
10
445.
20
-36.9999989999999954
11
445.
21
-38.4999989999999954
0
LINE
8
BLACK
6
CONTINUOUS
10
674.5
20
-164.9999990000000025
11
674.5
21
-163.4999990000000025
0
ARC
8
BLACK
10
667.4308879999999817
20
-100.2314569999999918
40
0.5001120017636049
50
-89.98716862
51
-0.00481177
0
LINE
8
BLACK
6
CONTINUOUS
10
349.0310000000000059
20
-100.7314959999999928
11
362.6309999999999718
21
-100.7314959999999928
0
LINE
8
BLACK
6
CONTINUOUS
10
598.8747499999999491
20
-157.3814989999999909
11
598.8747499999999491
21
-144.3814989999999909
0
LINE
8
BLACK
6
CONTINUOUS
10
519.9809999999999945
20
-125.3314989999999938
11
519.9809999999999945
21
-138.3314989999999796
0
ARC
8
BLACK
10
410.2558879999999704
20
-119.281456999999989
40
0.5001120017636049
50
-89.98716862
51
-0.00481177
0
LINE
8
BLACK
6
CONTINUOUS
10
346.9747499999999718
20
-137.074499000000003
11
349.9747499999999718
21
-138.8064990000000023
0
LINE
8
BLACK
6
CONTINUOUS
10
420.4685000000000059
20
-81.6814990000000023
11
434.0684999999999718
21
-81.6814990000000023
0
ARC
8
BLACK
10
382.3684859999999617
20
-44.3689549999999997
40
0.4999860019360542
50
-270.00160433
51
-179.99495783
0
LINE
8
BLACK
6
CONTINUOUS
10
462.6434999999999604
20
-86.7314989999999995
11
449.0434999999999945
21
-86.7314989999999995
0
ARC
8
BLACK
10
381.7499990000000025
20
-39.7499979999999979
40
0.249999000002
50
-270.00022918
51
-179.99977082
0
ARC
8
BLACK
10
572.8686050000000023
20
-81.1814639999999912
40
0.5000350110242282
50
-179.99598958
51
-90.01203127
0
LINE
8
BLACK
6
CONTINUOUS
10
344.
20
-40.9999989999999954
11
343.5
21
-41.
0
LINE
8
BLACK
6
CONTINUOUS
10
563.3434999999999491
20
-100.7314989999999995
11
576.9434999999999718
21
-100.7314989999999995
0
LINE
8
BLACK
6
CONTINUOUS
10
425.0434999999999945
20
-100.2314989999999995
11
425.0434999999999945
21
-87.2314989999999995
0
LINE
8
BLACK
6
CONTINUOUS
10
648.8809999999999718
20
-57.3689989999999952
11
648.8809999999999718
21
-44.3689989999999952
0
LINE
8
BLACK
6
CONTINUOUS
10
405.4934999999999832
20
-86.7314989999999995
11
391.8934999999999604
21
-86.7314989999999995
0
LINE
8
BLACK
6
CONTINUOUS
10
415.5184999999999604
20
-57.3689989999999952
11
415.5184999999999604
21
-44.3689989999999952
0
LINE
8
BLACK
6
CONTINUOUS
10
667.4309999999999263
20
-86.7314989999999995
11
653.8310000000000173
21
-86.7314989999999995
0
ARC
8
BLACK
10
360.2497510000000034
20
-106.2814989999999966
40
0.5
50
0.00000000
51
90.00000000
0
ARC
8
BLACK
10
346.6497519999999781
20
-106.2814999999999941
40
0.500001
50
90.00011459
51
180.00000000
0
LINE
8
BLACK
6
CONTINUOUS
10
443.5935000000000059
20
-86.7314989999999995
11
429.9934999999999832
21
-86.7314989999999995
0
ARC
8
BLACK
10
346.6497519999999781
20
-119.2814979999999991
40
0.500001
50
-179.99988541
51
-90.00000000
0
LINE
8
BLACK
6
CONTINUOUS
10
428.8057499999999891
20
-157.8314989999999796
11
416.2057499999999663
21
-157.8314989999999796
0
ARC
8
BLACK
10
471.0999989999999684
20
-40.75
40
0.249999000002
50
-180.00022918
51
-89.99977082
0
ARC
8
BLACK
10
410.9436049999999909
20
-100.2314640000000026
40
0.5000350110242282
50
-179.99598958
51
-90.01203127
0
LINE
8
BLACK
6
CONTINUOUS
10
540.
20
-164.9999990000000025
11
540.
21
-162.4999990000000025
0
LINE
8
BLACK
6
CONTINUOUS
10
360.2497510000000034
20
-105.7814989999999966
11
346.6497509999999806
21
-105.7814989999999966
0
ARC
8
BLACK
10
458.5686049999999909
20
-81.1814639999999912
40
0.5000350110242282
50
-179.99598958
51
-90.01203127
0
ARC
8
BLACK
10
360.2497510000000034
20
-119.2814989999999966
40
0.5
50
-90.00000000
51
-0.00000000
0
LINE
8
BLACK
6
CONTINUOUS
10
471.0999999999999659
20
-40.9999989999999954
11
533.5
21
-40.9999989999999954
0
LINE
8
BLACK
6
CONTINUOUS
10
346.6497519999999781
20
-119.7814989999999966
11
360.2497510000000034
21
-119.7814989999999966
0
ARC
8
BLACK
10
395.5000009999999975
20
-163.499998000000005
40
0.9999990000004999
50
-0.00005730
51
90.00005730
0
ARC
8
BLACK
10
519.7935059999999794
20
-44.3689630000000008
40
0.4999640000360026
50
-0.00412559
51
90.00068760
0
LINE
8
BLACK
6
CONTINUOUS
10
649.25
20
-162.4999990000000025
11
635.5
21
-162.4999990000000025
0
ARC
8
BLACK
10
357.4999990000000025
20
-165.
40
0.9999990000004999
50
-180.00005730
51
-89.99994270
0
ARC
8
BLACK
10
673.5000009999999975
20
-165.
40
0.9999990000004999
50
-90.00005730
51
0.00005730
0
LINE
8
BLACK
6
CONTINUOUS
10
372.8435000000000059
20
-100.7314989999999995
11
386.4434999999999718
21
-100.7314989999999995
0
LINE
8
BLACK
6
CONTINUOUS
10
407.8747500000000059
20
-143.8814989999999909
11
394.2747499999999832
21
-143.8814989999999909
0
ARC
8
BLACK
10
463.3309859999999958
20
-125.3314549999999912
40
0.4999860019360542
50
-270.00160433
51
-179.99495783
0
ARC
8
BLACK
10
605.5185060000000021
20
-44.3689630000000008
40
0.4999640000360026
50
-0.00412559
51
90.00068760
0
LINE
8
BLACK
6
CONTINUOUS
10
381.75
20
-39.4999989999999954
11
395.5
21
-39.4999989999999954
0
LINE
8
BLACK
6
CONTINUOUS
10
360.7497500000000059
20
-157.3814989999999909
11
360.7497500000000059
21
-144.3814989999999909
0
ARC
8
BLACK
10
416.2058059999999955
20
-157.3313629999999819
40
0.5001360031351472
50
-179.98441979
51
-90.00641538
0
LINE
8
BLACK
6
CONTINUOUS
10
653.8310000000000173
20
-57.8689989999999952
11
667.4309999999999263
21
-57.8689989999999952
0
LINE
8
BLACK
6
CONTINUOUS
10
686.9809999999999945
20
-100.2314989999999995
11
686.9809999999999945
21
-87.2314989999999995
0
ARC
8
BLACK
10
462.6435060000000021
20
-87.2314629999999909
40
0.4999640000360026
50
-0.00412559
51
90.00068760
0
ARC
8
BLACK
10
559.9000009999999747
20
-39.7499979999999979
40
0.249999000002
50
-0.00022918
51
90.00022918
0
ARC
8
BLACK
10
457.8810059999999567
20
-125.3314629999999994
40
0.4999640000360026
50
-0.00412559
51
90.00068760
0
LINE
8
BLACK
6
CONTINUOUS
10
460.5999999999999659
20
-162.4999990000000025
11
446.
21
-162.4999990000000025
0
ARC
8
BLACK
10
371.2500009999999975
20
-40.75
40
0.249999000002
50
-90.00022918
51
0.00022918
0
LINE
8
BLACK
6
CONTINUOUS
10
560.9622499999999263
20
-157.8814989999999909
11
574.5622499999999491
21
-157.8814989999999909
0
LINE
8
BLACK
6
CONTINUOUS
10
391.8934999999999604
20
-100.7314989999999995
11
405.4934999999999832
21
-100.7314989999999995
0
ARC
8
BLACK
10
686.4810099999999693
20
-44.3689600000000013
40
0.4999610001000078
50
-0.00446943
51
90.00114600
0
LINE
8
BLACK
6
CONTINUOUS
10
570.3999999999999773
20
-39.4999989999999954
11
585.
21
-39.4999989999999954
0
ARC
8
BLACK
10
667.4308879999999817
20
-81.1814569999999947
40
0.5001120017636049
50
-89.98716862
51
-0.00481177
0
LINE
8
BLACK
6
CONTINUOUS
10
672.3809999999999718
20
-68.1814990000000023
11
672.3809999999999718
21
-81.1814990000000023
0
ARC
8
BLACK
10
376.9185069999999769
20
-81.1815059999999988
40
0.4999930000490007
50
-90.00080215
51
0.00080215
0
CIRCLE
8
BLACK
10
679.6810100000000148
20
-131.831499000000008
40
1.
0
ARC
8
BLACK
10
610.9684859999999844
20
-44.3689549999999997
40
0.4999860019360542
50
-270.00160433
51
-179.99495783
0
ARC
8
BLACK
10
553.8184860000000072
20
-44.3689549999999997
40
0.4999860019360542
50
-270.00160433
51
-179.99495783
0
CIRCLE
8
BLACK
10
536.8060100000000148
20
-131.831499000000008
40
1.
0
LINE
8
BLACK
6
CONTINUOUS
10
467.4060000000000059
20
-105.7814989999999966
11
453.8059999999999832
21
-105.7814989999999966
0
ARC
8
BLACK
10
395.9685059999999908
20
-44.3689630000000008
40
0.4999640000360026
50
-0.00412559
51
90.00068760
0
ARC
8
BLACK
10
567.4183879999999363
20
-81.1814569999999947
40
0.5001120017636049
50
-89.98716862
51
-0.00481177
0
ARC
8
BLACK
10
415.7059859999999958
20
-106.281454999999994
40
0.4999860019360542
50
-270.00160433
51
-179.99495783
0
LINE
8
BLACK
6
CONTINUOUS
10
393.7747499999999832
20
-144.3814989999999909
11
393.7747499999999832
21
-157.3814989999999909
0
LINE
8
BLACK
6
CONTINUOUS
10
673.5
20
-35.9999989999999954
11
635.5
21
-35.9999989999999954
0
LINE
8
BLACK
6
CONTINUOUS
10
453.1184999999999832
20
-43.8689989999999952
11
439.5184999999999604
21
-43.8689989999999952
0
LINE
8
BLACK
6
CONTINUOUS
10
667.4309999999999263
20
-67.6814990000000023
11
653.8310000000000173
21
-67.6814990000000023
0
ARC
8
BLACK
10
482.3811049999999909
20
-138.3314639999999827
40
0.5000350110242282
50
-179.99598958
51
-90.01203127
0
ARC
8
BLACK
10
653.8311049999999796
20
-57.3689639999999983
40
0.5000350110242282
50
-179.99598958
51
-90.01203127
0
ARC
8
BLACK
10
672.8811049999999341
20
-81.1814639999999912
40
0.5000350110242282
50
-179.99598958
51
-90.01203127
0
ARC
8
BLACK
10
687.3301999999999907
20
-109.8920999999999992
40
1.2009436209435478
50
-20.20998951
51
70.71476754
0
ARC
8
BLACK
10
429.306005999999968
20
-106.2814630000000022
40
0.4999640000360026
50
-0.00412559
51
90.00068760
0
LINE
8
BLACK
6
CONTINUOUS
10
653.3310000000000173
20
-125.3314989999999938
11
653.3310000000000173
21
-138.3314989999999796
0
LINE
8
BLACK
6
CONTINUOUS
10
396.4685000000000059
20
-57.3689989999999952
11
396.4685000000000059
21
-44.3689989999999952
0
ARC
8
BLACK
10
344.4999990000000025
20
-162.5
40
1.5000009999999999
50
0.00000000
51
90.00000000
0
LINE
8
BLACK
6
CONTINUOUS
10
467.5935000000000059
20
-44.3689989999999952
11
467.5935000000000059
21
-57.3689989999999952
0
ARC
8
BLACK
10
585.0000009999999975
20
-38.5
40
0.9999990000004999
50
-90.00005730
51
0.00005730
0
ARC
8
BLACK
10
391.2060060000000021
20
-106.2814630000000022
40
0.4999640000360026
50
-0.00412559
51
90.00068760
0
LINE
8
BLACK
6
CONTINUOUS
10
567.4184999999999945
20
-43.8689989999999952
11
553.8184999999999718
21
-43.8689989999999952
0
ARC
8
BLACK
10
434.7559860000000072
20
-106.281454999999994
40
0.4999860019360542
50
-270.00160433
51
-179.99495783
0
LINE
8
BLACK
6
CONTINUOUS
10
439.5184999999999604
20
-81.6814990000000023
11
453.1184999999999832
21
-81.6814990000000023
0
LINE
8
BLACK
6
CONTINUOUS
10
410.4434999999999718
20
-87.2314989999999995
11
410.4434999999999718
21
-100.2314989999999995
0
ARC
8
BLACK
10
560.9620879999999943
20
-144.38135699999998
40
0.4998380201705348
50
-270.01856985
51
-179.98372273
0
LINE
8
BLACK
6
CONTINUOUS
10
648.3809999999999718
20
-86.7314989999999995
11
634.7809999999999491
21
-86.7314989999999995
0
ARC
8
BLACK
10
649.2500009999999975
20
-40.75
40
0.249999000002
50
-90.00022918
51
0.00022918
0
LINE
8
BLACK
6
CONTINUOUS
10
560.1499999999999773
20
-161.2499990000000025
11
560.1499999999999773
21
-162.2499990000000025
0
CIRCLE
8
BLACK
10
446.3184909999999945
20
-93.7314989999999995
40
1.
0
ARC
8
BLACK
10
534.7686049999999796
20
-81.1814639999999912
40
0.5000350110242282
50
-179.99598958
51
-90.01203127
0
LINE
8
BLACK
6
CONTINUOUS
10
634.5
20
-163.4999990000000025
11
634.5
21
-164.9999990000000025
0
CIRCLE
8
BLACK
10
366.6966400000000021
20
-150.8814989999999909
40
1.
0
LINE
8
BLACK
6
CONTINUOUS
10
622.1872499999999491
20
-143.8814989999999909
11
608.5872499999999263
21
-143.8814989999999909
0
ARC
8
BLACK
10
352.5000009999999975
20
-39.4999979999999979
40
1.5000010000003334
50
-179.99996180
51
-90.00003820
0
LINE
8
BLACK
6
CONTINUOUS
10
582.3935000000000173
20
-100.7314989999999995
11
595.9934999999999263
21
-100.7314989999999995
0
LINE
8
BLACK
6
CONTINUOUS
10
463.3309999999999604
20
-138.8314989999999796
11
476.9309999999999832
21
-138.8314989999999796
0
LINE
8
BLACK
6
CONTINUOUS
10
471.0999999999999659
20
-39.4999989999999954
11
485.6999999999999886
21
-39.4999989999999954
0
LINE
8
BLACK
6
CONTINUOUS
10
623.7685000000000173
20
-67.7064989999999938
11
592.7685000000000173
21
-67.7064989999999938
0
ARC
8
BLACK
10
486.4560060000000021
20
-106.2814630000000022
40
0.4999640000360026
50
-0.00412559
51
90.00068760
0
ARC
8
BLACK
10
362.6308879999999704
20
-100.2314539999999994
40
0.5001120017636049
50
-89.98716862
51
-0.00481177
0
LINE
8
BLACK
6
CONTINUOUS
10
491.9060000000000059
20
-119.7814989999999966
11
505.5059999999999718
21
-119.7814989999999966
0
ARC
8
BLACK
10
477.6186050000000023
20
-81.1814639999999912
40
0.5000350110242282
50
-179.99598958
51
-90.01203127
0
LINE
8
BLACK
6
CONTINUOUS
10
582.2060000000000173
20
-119.2814989999999966
11
582.2060000000000173
21
-106.2814989999999966
0
LINE
8
BLACK
6
CONTINUOUS
10
501.4309999999999832
20
-138.8314989999999796
11
515.0309999999999491
21
-138.8314989999999796
0
LINE
8
BLACK
6
CONTINUOUS
10
396.1560000000000059
20
-106.2814989999999966
11
396.1560000000000059
21
-119.2814989999999966
0
LINE
8
BLACK
6
CONTINUOUS
10
419.7810000000000059
20
-124.8314989999999938
11
406.1809999999999832
21
-124.8314989999999938
0
LINE
8
BLACK
6
CONTINUOUS
10
548.3684999999999263
20
-67.6814990000000023
11
534.7685000000000173
21
-67.6814990000000023
0
LINE
8
BLACK
6
CONTINUOUS
10
570.1499999999999773
20
-162.2499990000000025
11
570.1499999999999773
21
-161.2499990000000025
0
LINE
8
BLACK
6
CONTINUOUS
10
406.1809999999999832
20
-138.8314989999999796
11
419.7810000000000059
21
-138.8314989999999796
0
LINE
8
BLACK
6
CONTINUOUS
10
495.9809999999999945
20
-124.8314989999999938
11
482.3809999999999718
21
-124.8314989999999938
0
LINE
8
BLACK
6
CONTINUOUS
10
543.7934999999999945
20
-87.2314989999999995
11
543.7934999999999945
21
-100.2314989999999995
0
LINE
8
BLACK
6
CONTINUOUS
10
381.8684999999999832
20
-68.1814990000000023
11
381.8684999999999832
21
-81.1814990000000023
0
LINE
8
BLACK
6
CONTINUOUS
10
686.5
20
-160.9999990000000025
11
687.
21
-160.9999990000000025
0
LINE
8
BLACK
6
CONTINUOUS
10
535.
20
-39.4999989999999954
11
535.
21
-36.9999989999999954
0
LINE
8
BLACK
6
CONTINUOUS
10
453.8059999999999832
20
-119.7814989999999966
11
467.4060000000000059
21
-119.7814989999999966
0
ARC
8
BLACK
10
572.1808879999999817
20
-138.3314570000000003
40
0.5001120017636049
50
-89.98716862
51
-0.00481177
0
LINE
8
BLACK
6
CONTINUOUS
10
540.
20
-36.9999989999999954
11
540.
21
-39.4999989999999954
0
ARC
8
BLACK
10
557.8935060000000021
20
-87.2314629999999909
40
0.4999640000360026
50
-0.00412559
51
90.00068760
0
ARC
8
BLACK
10
648.3810059999999567
20
-87.2314629999999909
40
0.4999640000360026
50
-0.00412559
51
90.00068760
0
LINE
8
BLACK
6
CONTINUOUS
10
375.9747499999999718
20
-138.8064990000000023
11
378.9747499999999718
21
-137.074499000000003
0
ARC
8
BLACK
10
460.6000009999999634
20
-161.249998000000005
40
0.249999000002
50
-0.00022918
51
90.00022918
0
ARC
8
BLACK
10
558.5811049999999796
20
-138.3314639999999827
40
0.5000350110242282
50
-179.99598958
51
-90.01203127
0
ARC
8
BLACK
10
520.4811049999999568
20
-138.3314639999999827
40
0.5000350110242282
50
-179.99598958
51
-90.01203127
0
ARC
8
BLACK
10
624.5685059999999567
20
-44.3689630000000008
40
0.4999640000360026
50
-0.00412559
51
90.00068760
0
LINE
8
BLACK
6
CONTINUOUS
10
448.3559999999999945
20
-105.7814989999999966
11
434.7559999999999718
21
-105.7814989999999966
0
ARC
8
BLACK
10
429.9936050000000023
20
-100.2314640000000026
40
0.5000350110242282
50
-179.99598958
51
-90.01203127
0
LINE
8
BLACK
6
CONTINUOUS
10
384.0622500000000059
20
-143.8814989999999909
11
370.4622499999999832
21
-143.8814989999999909
0
LINE
8
BLACK
6
CONTINUOUS
10
486.4559999999999604
20
-105.7814989999999966
11
472.8559999999999945
21
-105.7814989999999966
0
ARC
8
BLACK
10
525.2434859999999617
20
-44.3689549999999997
40
0.4999860019360542
50
-270.00160433
51
-179.99495783
0
LINE
8
BLACK
6
CONTINUOUS
10
357.8684999999999832
20
-67.6814990000000023
11
344.2685009999999579
21
-67.6814990000000023
0
ARC
8
BLACK
10
370.4622909999999933
20
-144.3815400000000011
40
0.5000410016808622
50
90.00469787
51
179.99530213
0
ARC
8
BLACK
10
419.5000009999999975
20
-162.5
40
1.5000010000003334
50
90.00003820
51
179.99996180
0
CIRCLE
8
BLACK
10
417.7434910000000059
20
-74.6814990000000023
40
1.
0
ARC
8
BLACK
10
570.3999989999999798
20
-162.25
40
0.249999000002
50
-180.00022918
51
-89.99977082
0
ARC
8
BLACK
10
384.0622070000000008
20
-144.3815620000000024
40
0.5000630018487671
50
0.00721836
51
89.99507318
0
ARC
8
BLACK
10
453.1183879999999817
20
-81.1814569999999947
40
0.5001120017636049
50
-89.98716862
51
-0.00481177
0
LINE
8
BLACK
6
CONTINUOUS
10
524.7434999999999263
20
-87.2314989999999995
11
524.7434999999999263
21
-100.2314989999999995
0
ARC
8
BLACK
10
377.6060059999999794
20
-106.2815049999999957
40
0.5000060000359996
50
90.00068754
51
179.99931246
0
ARC
8
BLACK
10
506.1936049999999909
20
-57.3689639999999983
40
0.5000350110242282
50
-179.99598958
51
-90.01203127
0
ARC
8
BLACK
10
506.1934859999999503
20
-87.2314549999999969
40
0.4999860019360542
50
-270.00160433
51
-179.99495783
0
LINE
8
BLACK
6
CONTINUOUS
10
653.3310000000000173
20
-144.3814989999999909
11
653.3310000000000173
21
-157.3814989999999909
0
LINE
8
BLACK
6
CONTINUOUS
10
606.2060000000000173
20
-100.7314989999999995
11
619.8059999999999263
21
-100.7314989999999995
0
LINE
8
BLACK
6
CONTINUOUS
10
618.8622500000000173
20
-119.7564989999999909
11
621.8622500000000173
21
-118.0244989999999916
0
ARC
8
BLACK
10
347.4747509999999693
20
-125.3564999999999969
40
0.500001000001
50
90.00011459
51
179.99988541
0
LINE
8
BLACK
6
CONTINUOUS
10
553.1309999999999718
20
-124.8314989999999938
11
539.5309999999999491
21
-124.8314989999999938
0
LINE
8
BLACK
6
CONTINUOUS
10
634.7809999999999491
20
-57.8689989999999952
11
648.3809999999999718
21
-57.8689989999999952
0
LINE
8
BLACK
6
CONTINUOUS
10
400.7309999999999945
20
-124.8314989999999938
11
387.1309999999999718
21
-124.8314989999999938
0
ARC
8
BLACK
10
344.2685009999999579
20
-44.3689999999999998
40
0.500001000001
50
90.00000000
51
179.99988541
0
ARC
8
BLACK
10
570.3999989999999798
20
-161.249998000000005
40
0.249999000002
50
-270.00022918
51
-179.99977082
0
LINE
8
BLACK
6
CONTINUOUS
10
686.4809999999999945
20
-43.8689989999999952
11
672.8809999999999718
21
-43.8689989999999952
0
LINE
8
BLACK
6
CONTINUOUS
10
382.3684999999999832
20
-81.6814990000000023
11
395.9685000000000059
21
-81.6814990000000023
0
ARC
8
BLACK
10
648.3808880000000272
20
-57.3689569999999947
40
0.5001120017636049
50
-89.98716862
51
-0.00481177
0
ARC
8
BLACK
10
415.0185060000000021
20
-44.3689630000000008
40
0.4999640000360026
50
-0.00412559
51
90.00068760
0
LINE
8
BLACK
6
CONTINUOUS
10
585.
20
-35.9999989999999954
11
545.2999999999999545
21
-35.9999989999999954
0
ARC
8
BLACK
10
344.2685009999999579
20
-68.1814999999999998
40
0.500001
50
90.00000000
51
180.00000000
0
ARC
8
BLACK
10
444.2809859999999844
20
-125.3314549999999912
40
0.4999860019360542
50
-270.00160433
51
-179.99495783
0
LINE
8
BLACK
6
CONTINUOUS
10
610.9684999999999491
20
-57.8689989999999952
11
624.5684999999999718
21
-57.8689989999999952
0
LINE
8
BLACK
6
CONTINUOUS
10
346.9747499999999718
20
-125.3564989999999995
11
346.9747499999999718
21
-137.074499000000003
0
ARC
8
BLACK
10
438.830887999999959
20
-138.3314570000000003
40
0.5001120017636049
50
-89.98716862
51
-0.00481177
0
LINE
8
BLACK
6
CONTINUOUS
10
357.8684999999999832
20
-43.8689989999999952
11
344.2685009999999579
21
-43.8689989999999952
0
LINE
8
BLACK
6
CONTINUOUS
10
619.8059999999999263
20
-86.7314989999999995
11
606.2060000000000173
21
-86.7314989999999995
0
LINE
8
BLACK
6
CONTINUOUS
10
515.5309999999999491
20
-138.3314989999999796
11
515.5309999999999491
21
-125.3314989999999938
0
CIRCLE
8
BLACK
10
541.5684909999999945
20
-93.7314989999999995
40
1.
0
LINE
8
BLACK
6
CONTINUOUS
10
588.0997499999999718
20
-138.8064990000000023
11
614.0997499999999718
21
-138.8064990000000023
0
LINE
8
BLACK
6
CONTINUOUS
10
653.8310000000000173
20
-138.8314989999999796
11
667.4309999999999263
21
-138.8314989999999796
0
ARC
8
BLACK
10
619.8060060000000249
20
-87.2314629999999909
40
0.4999640000360026
50
-0.00412559
51
90.00068760
0
LINE
8
BLACK
6
CONTINUOUS
10
449.0434999999999945
20
-100.7314989999999995
11
462.6434999999999604
21
-100.7314989999999995
0
LINE
8
BLACK
6
CONTINUOUS
10
541.5
20
-160.9999990000000025
11
559.8999999999999773
21
-160.9999990000000025
0
ARC
8
BLACK
10
648.3810059999999567
20
-68.1814629999999937
40
0.4999640000360026
50
-0.00412559
51
90.00068760
0
LINE
8
BLACK
6
CONTINUOUS
10
553.3184999999999718
20
-44.3689989999999952
11
553.3184999999999718
21
-57.3689989999999952
0
LINE
8
BLACK
6
CONTINUOUS
10
369.9622499999999832
20
-144.3814989999999909
11
369.9622499999999832
21
-157.3814989999999909
0
ARC
8
BLACK
10
686.4808899999999312
20
-157.3814600000000041
40
0.5001100015206654
50
-89.98739768
51
-0.00446809
0
LINE
8
BLACK
6
CONTINUOUS
10
649.25
20
-160.9999990000000025
11
570.3999999999999773
21
-160.9999990000000025
0
LINE
8
BLACK
6
CONTINUOUS
10
505.6934999999999718
20
-87.2314989999999995
11
505.6934999999999718
21
-100.2314989999999995
0
LINE
8
BLACK
6
CONTINUOUS
10
659.75
20
-40.9999989999999954
11
678.25
21
-40.9999989999999954
0
LINE
8
BLACK
6
CONTINUOUS
10
574.5622499999999491
20
-143.8814989999999909
11
560.9622499999999263
21
-143.8814989999999909
0
ARC
8
BLACK
10
622.1872069999999439
20
-144.3815620000000024
40
0.5000630018487671
50
0.00721836
51
89.99507318
0
ARC
8
BLACK
10
481.6933879999999704
20
-57.3689569999999947
40
0.5001120017636049
50
-89.98716862
51
-0.00481177
0
CIRCLE
8
BLACK
10
628.4841199999999617
20
-74.6814990000000023
40
1.
0
ARC
8
BLACK
10
377.6059839999999781
20
-119.2815149999999988
40
0.4999840002560081
50
-180.00183352
51
-89.99816648
0
LINE
8
BLACK
6
CONTINUOUS
10
471.0999999999999659
20
-160.9999990000000025
11
533.5
21
-160.9999990000000025
0
ARC
8
BLACK
10
530.0061049999999341
20
-119.2814639999999997
40
0.5000350110242282
50
-179.99598958
51
-90.01203127
0
CIRCLE
8
BLACK
10
670.1560099999999238
20
-93.7314989999999995
40
1.
0
CIRCLE
8
BLACK
10
415.5
20
-36.9999989999999954
40
1.25
0
LINE
8
BLACK
6
CONTINUOUS
10
457.8809999999999718
20
-124.8314989999999938
11
444.2810000000000059
21
-124.8314989999999938
0
ARC
8
BLACK
10
428.8056869999999776
20
-157.3314560000000029
40
0.5000630018487671
50
-89.99278164
51
-0.00492682
0
LINE
8
BLACK
6
CONTINUOUS
10
386.6309999999999718
20
-125.3314989999999938
11
386.6309999999999718
21
-138.3314989999999796
0
LINE
8
BLACK
6
CONTINUOUS
10
405.6809999999999832
20
-125.3314989999999938
11
405.6809999999999832
21
-138.3314989999999796
0
ARC
8
BLACK
10
434.0685059999999567
20
-68.1814629999999937
40
0.4999640000360026
50
-0.00412559
51
90.00068760
0
LINE
8
BLACK
6
CONTINUOUS
10
446.
20
-39.4999989999999954
11
460.5999999999999659
21
-39.4999989999999954
0
ARC
8
BLACK
10
434.0683879999999704
20
-81.1814569999999947
40
0.5001120017636049
50
-89.98716862
51
-0.00481177
0
LINE
8
BLACK
6
CONTINUOUS
10
586.
20
-38.4999989999999954
11
586.
21
-36.9999989999999954
0
LINE
8
BLACK
6
CONTINUOUS
10
548.5559999999999263
20
-106.2814989999999966
11
548.5559999999999263
21
-119.2814989999999966
0
LINE
8
BLACK
6
CONTINUOUS
10
584.2747499999999263
20
-144.3814989999999909
11
584.2747499999999263
21
-157.3814989999999909
0
ARC
8
BLACK
10
477.6184859999999617
20
-68.1814549999999997
40
0.4999860019360542
50
-270.00160433
51
-179.99495783
0
LINE
8
BLACK
6
CONTINUOUS
10
560.1499999999999773
20
-40.7499989999999954
11
560.1499999999999773
21
-39.7499989999999954
0
LINE
8
BLACK
6
CONTINUOUS
10
396.4685000000000059
20
-81.1814990000000023
11
396.4685000000000059
21
-68.1814990000000023
0
ARC
8
BLACK
10
444.2811049999999682
20
-138.3314639999999827
40
0.5000350110242282
50
-179.99598958
51
-90.01203127
0
ARC
8
BLACK
10
537.1498060000000123
20
-157.3813629999999932
40
0.5001360031351472
50
-179.98441979
51
-90.00641538
0
LINE
8
BLACK
6
CONTINUOUS
10
520.2934999999999945
20
-100.2314989999999995
11
520.2934999999999945
21
-87.2314989999999995
0
ARC
8
BLACK
10
586.4685059999999339
20
-44.3689630000000008
40
0.4999640000360026
50
-0.00412559
51
90.00068760
0
LINE
8
BLACK
6
CONTINUOUS
10
667.4309999999999263
20
-43.8689989999999952
11
653.8310000000000173
21
-43.8689989999999952
0
CIRCLE
8
BLACK
10
682.5
20
-164.9999990000000025
40
1.25
0
ARC
8
BLACK
10
649.2500009999999975
20
-39.7499979999999979
40
0.249999000002
50
-0.00022918
51
90.00022918
0
ARC
8
BLACK
10
534.0810060000000021
20
-125.3314629999999994
40
0.4999640000360026
50
-0.00412559
51
90.00068760
0
LINE
8
BLACK
6
CONTINUOUS
10
544.2999999999999545
20
-36.9999989999999954
11
544.2999999999999545
21
-38.4999989999999954
0
LINE
8
BLACK
6
CONTINUOUS
10
653.3310000000000173
20
-44.3689989999999952
11
653.3310000000000173
21
-57.3689989999999952
0
LINE
8
BLACK
6
CONTINUOUS
10
351.
20
-162.4999990000000025
11
351.
21
-164.9999990000000025
0
LINE
8
BLACK
6
CONTINUOUS
10
515.7184999999999491
20
-81.6814990000000023
11
529.3184999999999718
21
-81.6814990000000023
0
LINE
8
BLACK
6
CONTINUOUS
10
481.8809999999999718
20
-125.3314989999999938
11
481.8809999999999718
21
-138.3314989999999796
0
ARC
8
BLACK
10
449.0436049999999568
20
-100.2314640000000026
40
0.5000350110242282
50
-179.99598958
51
-90.01203127
0
LINE
8
BLACK
6
CONTINUOUS
10
462.8309999999999604
20
-125.3314989999999938
11
462.8309999999999604
21
-138.3314989999999796
0
ARC
8
BLACK
10
405.4933879999999817
20
-100.2314569999999918
40
0.5001120017636049
50
-89.98716862
51
-0.00481177
0
ARC
8
BLACK
10
439.5184859999999958
20
-68.1814549999999997
40
0.4999860019360542
50
-270.00160433
51
-179.99495783
0
ARC
8
BLACK
10
381.7499990000000025
20
-161.249998000000005
40
0.249999000002
50
-270.00022918
51
-179.99977082
0
LINE
8
BLACK
6
CONTINUOUS
10
439.0184999999999604
20
-68.1814990000000023
11
439.0184999999999604
21
-81.1814990000000023
0
ARC
8
BLACK
10
424.5433879999999931
20
-100.2314569999999918
40
0.5001120017636049
50
-89.98716862
51
-0.00481177
0
LINE
8
BLACK
6
CONTINUOUS
10
625.0684999999999718
20
-57.3689989999999952
11
625.0684999999999718
21
-44.3689989999999952
0
ARC
8
BLACK
10
463.3311049999999796
20
-138.3314639999999827
40
0.5000350110242282
50
-179.99598958
51
-90.01203127
0
ARC
8
BLACK
10
585.0000009999999975
20
-36.9999979999999979
40
0.9999990000004999
50
-0.00005730
51
90.00005730
0
ARC
8
BLACK
10
407.8747070000000008
20
-144.3815620000000024
40
0.5000630018487671
50
0.00721836
51
89.99507318
0
ARC
8
BLACK
10
585.0000009999999975
20
-163.499998000000005
40
0.9999990000004999
50
-0.00005730
51
90.00005730
0
LINE
8
BLACK
6
CONTINUOUS
10
636.624828999999977
20
-120.6507509999999996
11
632.8079000000000178
21
-110.3058300000000003
0
LINE
8
BLACK
6
CONTINUOUS
10
667.9309999999999263
20
-100.2314989999999995
11
667.9309999999999263
21
-87.2314989999999995
0
LINE
8
BLACK
6
CONTINUOUS
10
491.2185000000000059
20
-67.6814990000000023
11
477.6184999999999832
21
-67.6814990000000023
0
ARC
8
BLACK
10
537.5
20
-164.9999990000000025
40
2.5
50
-180.00000000
51
-0.00000000
0
LINE
8
BLACK
6
CONTINUOUS
10
346.1497499999999832
20
-144.3814989999999909
11
346.1497499999999832
21
-157.3814989999999909
0
LINE
8
BLACK
6
CONTINUOUS
10
653.3310000000000173
20
-68.1814990000000023
11
653.3310000000000173
21
-81.1814990000000023
0
LINE
8
BLACK
6
CONTINUOUS
10
567.6059999999999945
20
-106.2814989999999966
11
567.6059999999999945
21
-119.2814989999999966
0
ARC
8
BLACK
10
360.2496620000000007
20
-144.3815869999999961
40
0.5000880077426372
50
0.01008228
51
89.98991772
0
LINE
8
BLACK
6
CONTINUOUS
10
381.75
20
-40.9999989999999954
11
411.25
21
-40.9999989999999954
0
ARC
8
BLACK
10
598.3746869999999944
20
-157.3814559999999858
40
0.5000630018487671
50
-89.99278164
51
-0.00492682
0
ARC
8
BLACK
10
528.8186869999999544
20
-157.3314560000000029
40
0.5000630018487671
50
-89.99278164
51
-0.00492682
0
LINE
8
BLACK
6
CONTINUOUS
10
500.7434999999999832
20
-43.8689989999999952
11
487.1434999999999604
21
-43.8689989999999952
0
LINE
8
BLACK
6
CONTINUOUS
10
648.8809999999999718
20
-81.1814990000000023
11
648.8809999999999718
21
-68.1814990000000023
0
ARC
8
BLACK
10
479.3121869999999944
20
-157.3814559999999858
40
0.5000630018487671
50
-89.99278164
51
-0.00492682
0
LINE
8
BLACK
6
CONTINUOUS
10
581.7060000000000173
20
-105.7814989999999966
11
568.1059999999999945
21
-105.7814989999999966
0
ARC
8
BLACK
10
586.4683880000000045
20
-81.1814569999999947
40
0.5001120017636049
50
-89.98716862
51
-0.00481177
0
LINE
8
BLACK
6
CONTINUOUS
10
648.3809999999999718
20
-67.6814990000000023
11
634.7809999999999491
21
-67.6814990000000023
0
ARC
8
BLACK
10
495.9808879999999931
20
-138.3314570000000003
40
0.5001120017636049
50
-89.98716862
51
-0.00481177
0
LINE
8
BLACK
6
CONTINUOUS
10
472.3559999999999945
20
-106.2814989999999966
11
472.3559999999999945
21
-119.2814989999999966
0
ARC
8
BLACK
10
591.9184860000000299
20
-44.3689549999999997
40
0.4999860019360542
50
-270.00160433
51
-179.99495783
0
LINE
8
BLACK
6
CONTINUOUS
10
672.8809999999999718
20
-157.8814989999999909
11
686.4809999999999945
21
-157.8814989999999909
0
ARC
8
BLACK
10
533.4999990000000025
20
-39.4999979999999979
40
1.5000010000003334
50
-89.99996180
51
-0.00003820
0
ARC
8
BLACK
10
505.5060059999999567
20
-106.2814630000000022
40
0.4999640000360026
50
-0.00412559
51
90.00068760
0
CIRCLE
8
BLACK
10
537.5
20
-164.9999990000000025
40
1.25
0
LINE
8
BLACK
6
CONTINUOUS
10
659.75
20
-39.4999989999999954
11
673.5
21
-39.4999989999999954
0
LINE
8
BLACK
6
CONTINUOUS
10
343.7684999999999604
20
-44.3689989999999952
11
343.7684999999999604
21
-57.3689989999999952
0
ARC
8
BLACK
10
357.4999990000000025
20
-36.9999979999999979
40
0.9999990000004999
50
-270.00005730
51
-179.99994270
0
ARC
8
BLACK
10
415.018387999999959
20
-57.3689569999999947
40
0.5001120017636049
50
-89.98716862
51
-0.00481177
0
LINE
8
BLACK
6
CONTINUOUS
10
525.2434999999999263
20
-57.8689989999999952
11
538.8434999999999491
21
-57.8689989999999952
0
LINE
8
BLACK
6
CONTINUOUS
10
586.4684999999999491
20
-43.8689989999999952
11
572.8684999999999263
21
-43.8689989999999952
0
LINE
8
BLACK
6
CONTINUOUS
10
472.1684999999999945
20
-67.6814990000000023
11
458.5684999999999718
21
-67.6814990000000023
0
LINE
8
BLACK
6
CONTINUOUS
10
684.6371520000000146
20
-120.6507509999999996
11
688.4540809999999738
21
-110.3058300000000003
0
ARC
8
BLACK
10
410.9434860000000072
20
-87.2314549999999969
40
0.4999860019360542
50
-270.00160433
51
-179.99495783
0
ARC
8
BLACK
10
667.4308879999999817
20
-157.3814569999999833
40
0.5001120017636049
50
-89.98716862
51
-0.00481177
0
ARC
8
BLACK
10
471.0999989999999684
20
-39.7499979999999979
40
0.249999000002
50
-270.00022918
51
-179.99977082
0
CIRCLE
8
BLACK
10
422.5060100000000034
20
-131.831499000000008
40
1.
0
LINE
8
BLACK
6
CONTINUOUS
10
634.2809999999999491
20
-87.2314989999999995
11
634.2809999999999491
21
-100.2314989999999995
0
LINE
8
BLACK
6
CONTINUOUS
10
550.7497499999999491
20
-143.8814989999999909
11
537.1497499999999263
21
-143.8814989999999909
0
LINE
8
BLACK
6
CONTINUOUS
10
357.5
20
-165.9999990000000025
11
395.5
21
-165.9999990000000025
0
ARC
8
BLACK
10
660.6308999999999969
20
-185.7138599999999826
40
68.1609418816679238
50
70.73882270
51
109.26103401
0
ARC
8
BLACK
10
574.5622069999999439
20
-144.3815620000000024
40
0.5000630018487671
50
0.00721836
51
89.99507318
0
ARC
8
BLACK
10
608.5870879999999943
20
-144.38135699999998
40
0.4998380201705348
50
-270.01856985
51
-179.98372273
0
ARC
8
BLACK
10
357.8684849999999642
20
-68.1815139999999928
40
0.5000150002249932
50
0.00171882
51
89.99828118
0
ARC
8
BLACK
10
653.8309859999999389
20
-44.3689549999999997
40
0.4999860019360542
50
-270.00160433
51
-179.99495783
0
ARC
8
BLACK
10
357.4999990000000025
20
-163.499998000000005
40
0.9999990000004999
50
-270.00005730
51
-179.99994270
0
ARC
8
BLACK
10
648.3810059999999567
20
-144.3814629999999966
40
0.4999640000360026
50
-0.00412559
51
90.00068760
0
LINE
8
BLACK
6
CONTINUOUS
10
586.
20
-163.4999990000000025
11
586.
21
-164.9999990000000025
0
ARC
8
BLACK
10
683.5111019999999371
20
-120.2346179999999976
40
1.2004812685706512
50
-109.23840560
51
-20.28184669
0
ARC
8
BLACK
10
378.4747209999999882
20
-125.3565279999999973
40
0.5000290008409513
50
0.00332296
51
89.99667704
0
LINE
8
BLACK
6
CONTINUOUS
10
621.8622500000000173
20
-118.0244989999999916
11
621.8622500000000173
21
-106.3064989999999881
0
ARC
8
BLACK
10
420.4684859999999844
20
-44.3689549999999997
40
0.4999860019360542
50
-270.00160433
51
-179.99495783
0
LINE
8
BLACK
6
CONTINUOUS
10
648.3809999999999718
20
-143.8814989999999909
11
634.7809999999999491
21
-143.8814989999999909
0
LINE
8
BLACK
6
CONTINUOUS
10
412.75
20
-39.4999989999999954
11
412.75
21
-36.9999989999999954
0
ARC
8
BLACK
10
386.4435059999999567
20
-87.2314629999999909
40
0.4999640000360026
50
-0.00412559
51
90.00068760
0
LINE
8
BLACK
6
CONTINUOUS
10
568.1059999999999945
20
-119.7814989999999966
11
581.7060000000000173
21
-119.7814989999999966
0
ARC
8
BLACK
10
415.5
20
-36.9999989999999954
40
2.75
50
0.00000000
51
180.00000000
0
CIRCLE
8
BLACK
10
393.9310099999999579
20
-112.7814989999999966
40
1.
0
CIRCLE
8
BLACK
10
651.1060099999999693
20
-74.6814990000000023
40
1.
0
ARC
8
BLACK
10
562.6558880000000045
20
-119.281456999999989
40
0.5001120017636049
50
-89.98716862
51
-0.00481177
0
LINE
8
BLACK
6
CONTINUOUS
10
617.0997499999999718
20
-137.074499000000003
11
617.0997499999999718
21
-125.3564989999999995
0
LINE
8
BLACK
6
CONTINUOUS
10
410.7559999999999718
20
-119.2814989999999966
11
410.7559999999999718
21
-106.2814989999999966
0
ARC
8
BLACK
10
467.4058880000000045
20
-119.281456999999989
40
0.5001120017636049
50
-89.98716862
51
-0.00481177
0
LINE
8
BLACK
6
CONTINUOUS
10
444.0935000000000059
20
-100.2314989999999995
11
444.0935000000000059
21
-87.2314989999999995
0
LINE
8
BLACK
6
CONTINUOUS
10
415.7059999999999604
20
-119.7814989999999966
11
429.3059999999999832
21
-119.7814989999999966
0
LINE
8
BLACK
6
CONTINUOUS
10
381.5
20
-39.7499989999999954
11
381.5
21
-40.7499989999999954
0
LINE
8
BLACK
6
CONTINUOUS
10
363.1309999999999718
20
-100.2314959999999928
11
363.1309999999999718
21
-87.2314959999999928
0
ARC
8
BLACK
10
537.1495879999999943
20
-144.38135699999998
40
0.4998380201705348
50
-270.01856985
51
-179.98372273
0
ARC
8
BLACK
10
401.4186049999999568
20
-57.3689639999999983
40
0.5000350110242282
50
-179.99598958
51
-90.01203127
0
ARC
8
BLACK
10
672.880886999999916
20
-144.3814559999999858
40
0.499887001849418
50
-270.01295177
51
-179.99507145
0
LINE
8
BLACK
6
CONTINUOUS
10
519.7934999999999945
20
-86.7314989999999995
11
506.1934999999999718
21
-86.7314989999999995
0
LINE
8
BLACK
6
CONTINUOUS
10
544.2999999999999545
20
-164.9999990000000025
11
544.2999999999999545
21
-163.4999990000000025
0
LINE
8
BLACK
6
CONTINUOUS
10
468.0935000000000059
20
-57.8689989999999952
11
481.6934999999999718
21
-57.8689989999999952
0
LINE
8
BLACK
6
CONTINUOUS
10
659.5
20
-39.7499989999999954
11
659.5
21
-40.7499989999999954
0
LINE
8
BLACK
6
CONTINUOUS
10
529.8184999999999718
20
-81.1814990000000023
11
529.8184999999999718
21
-68.1814990000000023
0
LINE
8
BLACK
6
CONTINUOUS
10
465.7122499999999832
20
-157.8814989999999909
11
479.3122500000000059
21
-157.8814989999999909
0
LINE
8
BLACK
6
CONTINUOUS
10
685.25
20
-36.9999989999999954
11
685.25
21
-39.4999989999999954
0
ARC
8
BLACK
10
363.3185059999999567
20
-68.1815050000000014
40
0.5000060000359996
50
90.00068754
51
179.99931246
0
LINE
8
BLACK
6
CONTINUOUS
10
592.2685000000000173
20
-79.9244989999999973
11
595.2685000000000173
21
-81.6564989999999966
0
ARC
8
BLACK
10
453.8061050000000023
20
-119.2814639999999997
40
0.5000350110242282
50
-179.99598958
51
-90.01203127
0
ARC
8
BLACK
10
563.343605000000025
20
-100.2314640000000026
40
0.5000350110242282
50
-179.99598958
51
-90.01203127
0
ARC
8
BLACK
10
401.418485999999973
20
-44.3689549999999997
40
0.4999860019360542
50
-270.00160433
51
-179.99495783
0
ARC
8
BLACK
10
659.7499990000000025
20
-161.249998000000005
40
0.249999000002
50
-270.00022918
51
-179.99977082
0
LINE
8
BLACK
6
CONTINUOUS
10
685.
20
-162.4999990000000025
11
685.
21
-164.9999990000000025
0
CIRCLE
8
BLACK
10
546.331009999999992
20
-50.8690189999999944
40
1.
0
LINE
8
BLACK
6
CONTINUOUS
10
541.5
20
-40.9999989999999954
11
559.8999999999999773
21
-40.9999989999999954
0
ARC
8
BLACK
10
386.4433879999999704
20
-100.2314569999999918
40
0.5001120017636049
50
-89.98716862
51
-0.00481177
0
ARC
8
BLACK
10
541.5000009999999975
20
-162.5
40
1.5000010000003334
50
90.00003820
51
179.99996180
0
LINE
8
BLACK
6
CONTINUOUS
10
648.8809999999999718
20
-100.2314989999999995
11
648.8809999999999718
21
-87.2314989999999995
0
ARC
8
BLACK
10
598.3747069999999439
20
-144.3815620000000024
40
0.5000630018487671
50
0.00721836
51
89.99507318
0
ARC
8
BLACK
10
635.4999990000000025
20
-165.
40
0.9999990000004999
50
-180.00005730
51
-89.99994270
0
ARC
8
BLACK
10
491.9059859999999844
20
-106.281454999999994
40
0.4999860019360542
50
-270.00160433
51
-179.99495783
0
ARC
8
BLACK
10
653.8309859999999389
20
-68.1814549999999997
40
0.4999860019360542
50
-270.00160433
51
-179.99495783
0
LINE
8
BLACK
6
CONTINUOUS
10
553.6309999999999718
20
-138.3314989999999796
11
553.6309999999999718
21
-125.3314989999999938
0
LINE
8
BLACK
6
CONTINUOUS
10
678.5
20
-160.9999990000000025
11
659.75
21
-160.9999990000000025
0
ARC
8
BLACK
10
543.6060059999999794
20
-106.2814630000000022
40
0.4999640000360026
50
-0.00412559
51
90.00068760
0
ARC
8
BLACK
10
395.9685059999999908
20
-68.1814629999999937
40
0.4999640000360026
50
-0.00412559
51
90.00068760
0
ARC
8
BLACK
10
539.531105000000025
20
-138.3314639999999827
40
0.5000350110242282
50
-179.99598958
51
-90.01203127
0
LINE
8
BLACK
6
CONTINUOUS
10
686.4809999999999945
20
-67.6814990000000023
11
672.8809999999999718
21
-67.6814990000000023
0
ARC
8
BLACK
10
541.5000009999999975
20
-39.4999979999999979
40
1.5000010000003334
50
-179.99996180
51
-90.00003820
0
CIRCLE
8
BLACK
10
351.0684909999999945
20
-62.7752780000000001
40
1.
0
ARC
8
BLACK
10
686.4810099999999693
20
-87.2314599999999984
40
0.4999610001000078
50
-0.00446943
51
90.00114600
0
LINE
8
BLACK
6
CONTINUOUS
10
563.1559999999999491
20
-119.2814989999999966
11
563.1559999999999491
21
-106.2814989999999966
0
LINE
8
BLACK
6
CONTINUOUS
10
648.3809999999999718
20
-43.8689989999999952
11
634.7809999999999491
21
-43.8689989999999952
0
ARC
8
BLACK
10
673.5000009999999975
20
-163.499998000000005
40
0.9999990000004999
50
-0.00005730
51
90.00005730
0
ARC
8
BLACK
10
472.1685059999999794
20
-68.1814629999999937
40
0.4999640000360026
50
-0.00412559
51
90.00068760
0
CIRCLE
8
BLACK
10
537.5
20
-36.9999989999999954
40
1.25
0
LINE
8
BLACK
6
CONTINUOUS
10
567.4184999999999945
20
-67.6814990000000023
11
553.8184999999999718
21
-67.6814990000000023
0
CIRCLE
8
BLACK
10
412.9810099999999693
20
-150.8814989999999909
40
1.
0
LINE
8
BLACK
6
CONTINUOUS
10
487.1434999999999604
20
-100.7314989999999995
11
500.7434999999999832
21
-100.7314989999999995
0
LINE
8
BLACK
6
CONTINUOUS
10
667.9309999999999263
20
-138.3314989999999796
11
667.9309999999999263
21
-125.3314989999999938
0
ARC
8
BLACK
10
396.6561049999999682
20
-119.2814639999999997
40
0.5000350110242282
50
-179.99598958
51
-90.01203127
0
LINE
8
BLACK
6
CONTINUOUS
10
344.
20
-40.9999989999999954
11
344.4999990000000025
21
-40.9999989999999954
0
LINE
8
BLACK
6
CONTINUOUS
10
458.5684999999999718
20
-81.6814990000000023
11
472.1684999999999945
21
-81.6814990000000023
0
LINE
8
BLACK
6
CONTINUOUS
10
605.5185000000000173
20
-43.8689989999999952
11
591.9184999999999945
21
-43.8689989999999952
0
ARC
8
BLACK
10
349.0309839999999895
20
-100.2315119999999951
40
0.4999840002560081
50
-180.00183352
51
-89.99816648
0
ARC
8
BLACK
10
510.9559859999999958
20
-106.281454999999994
40
0.4999860019360542
50
-270.00160433
51
-179.99495783
0
ARC
8
BLACK
10
401.418485999999973
20
-68.1814549999999997
40
0.4999860019360542
50
-270.00160433
51
-179.99495783
0
LINE
8
BLACK
6
CONTINUOUS
10
420.4685000000000059
20
-57.8689989999999952
11
434.0684999999999718
21
-57.8689989999999952
0
LINE
8
BLACK
6
CONTINUOUS
10
536.6497499999999263
20
-144.3814989999999909
11
536.6497499999999263
21
-157.3814989999999909
0
ARC
8
BLACK
10
592.7684859999999389
20
-68.2064549999999912
40
0.4999860019360542
50
-270.00160433
51
-179.99495783
0
LINE
8
BLACK
6
CONTINUOUS
10
453.3059999999999832
20
-106.2814989999999966
11
453.3059999999999832
21
-119.2814989999999966
0
LINE
8
BLACK
6
CONTINUOUS
10
419.5
20
-160.9999990000000025
11
460.5999999999999659
21
-160.9999990000000025
0
ARC
8
BLACK
10
624.5683880000000272
20
-57.3689569999999947
40
0.5001120017636049
50
-89.98716862
51
-0.00481177
0
ARC
8
BLACK
10
667.4310060000000249
20
-87.2314629999999909
40
0.4999640000360026
50
-0.00412559
51
90.00068760
0
LINE
8
BLACK
6
CONTINUOUS
10
539.3434999999999491
20
-100.2314989999999995
11
539.3434999999999491
21
-87.2314989999999995
0
ARC
8
BLACK
10
460.6000009999999634
20
-162.25
40
0.249999000002
50
-90.00022918
51
0.00022918
0
ARC
8
BLACK
10
553.8186049999999341
20
-57.3689639999999983
40
0.5000350110242282
50
-179.99598958
51
-90.01203127
0
ARC
8
BLACK
10
672.8811049999999341
20
-57.3689639999999983
40
0.5000350110242282
50
-179.99598958
51
-90.01203127
0
LINE
8
BLACK
6
CONTINUOUS
10
545.2999999999999545
20
-162.4999990000000025
11
559.8999999999999773
21
-162.4999990000000025
0
CIRCLE
8
BLACK
10
370.1184910000000059
20
-50.8690189999999944
40
1.
0
ARC
8
BLACK
10
558.5809859999999389
20
-125.3314549999999912
40
0.4999860019360542
50
-270.00160433
51
-179.99495783
0
LINE
8
BLACK
6
CONTINUOUS
10
477.6184999999999832
20
-81.6814990000000023
11
491.2185000000000059
21
-81.6814990000000023
0
LINE
8
BLACK
6
CONTINUOUS
10
416.2057499999999663
20
-143.9314990000000023
11
428.8057499999999891
21
-143.9314990000000023
0
LINE
8
BLACK
6
CONTINUOUS
10
537.1497499999999263
20
-157.8814989999999909
11
550.7497499999999491
21
-157.8814989999999909
0
ARC
8
BLACK
10
595.9933879999999817
20
-100.2314569999999918
40
0.5001120017636049
50
-89.98716862
51
-0.00481177
0
LINE
8
BLACK
6
CONTINUOUS
10
558.3935000000000173
20
-100.2314989999999995
11
558.3935000000000173
21
-87.2314989999999995
0
LINE
8
BLACK
6
CONTINUOUS
10
496.6684999999999945
20
-81.6814990000000023
11
510.2684999999999604
21
-81.6814990000000023
0
ARC
8
BLACK
10
608.5873060000000123
20
-157.3813629999999932
40
0.5001360031351472
50
-179.98441979
51
-90.00641538
0
ARC
8
BLACK
10
586.4685059999999339
20
-68.1814629999999937
40
0.4999640000360026
50
-0.00412559
51
90.00068760
0
ARC
8
BLACK
10
438.8310060000000021
20
-125.3314629999999994
40
0.4999640000360026
50
-0.00412559
51
90.00068760
0
LINE
8
BLACK
6
CONTINUOUS
10
371.25
20
-162.2499990000000025
11
371.25
21
-161.2499990000000025
0
LINE
8
BLACK
6
CONTINUOUS
10
510.2684999999999604
20
-67.6814990000000023
11
496.6684999999999945
21
-67.6814990000000023
0
LINE
8
BLACK
6
CONTINUOUS
10
621.2685000000000173
20
-81.6564989999999966
11
624.2685000000000173
21
-79.9244989999999973
0
LINE
8
BLACK
6
CONTINUOUS
10
553.8184999999999718
20
-81.6814990000000023
11
567.4184999999999945
21
-81.6814990000000023
0
LINE
8
BLACK
6
CONTINUOUS
10
424.7309999999999945
20
-125.3314989999999938
11
424.7309999999999945
21
-138.3314989999999796
0
ARC
8
BLACK
10
563.3434859999999844
20
-87.2314549999999969
40
0.4999860019360542
50
-270.00160433
51
-179.99495783
0
ARC
8
BLACK
10
349.0310059999999908
20
-87.2315019999999919
40
0.5000060000359996
50
90.00068754
51
179.99931246
0
ARC
8
BLACK
10
682.5
20
-36.9999989999999954
40
2.75
50
0.00000000
51
180.00000000
0
ARC
8
BLACK
10
439.5184859999999958
20
-44.3689549999999997
40
0.4999860019360542
50
-270.00160433
51
-179.99495783
0
LINE
8
BLACK
6
CONTINUOUS
10
485.6999999999999886
20
-35.9999989999999954
11
446.
21
-35.9999989999999954
0
ARC
8
BLACK
10
476.931005999999968
20
-125.3314629999999994
40
0.4999640000360026
50
-0.00412559
51
90.00068760
0
ARC
8
BLACK
10
529.3185059999999567
20
-68.1814629999999937
40
0.4999640000360026
50
-0.00412559
51
90.00068760
0
LINE
8
BLACK
6
CONTINUOUS
10
672.8809999999999718
20
-81.6814990000000023
11
686.4809999999999945
21
-81.6814990000000023
0
ARC
8
BLACK
10
344.2685009999999579
20
-81.1814979999999906
40
0.500001
50
-179.99988541
51
-90.00000000
0
ARC
8
BLACK
10
534.7684859999999389
20
-68.1814549999999997
40
0.4999860019360542
50
-270.00160433
51
-179.99495783
0
LINE
8
BLACK
6
CONTINUOUS
10
460.8499999999999659
20
-162.2499990000000025
11
460.8499999999999659
21
-161.2499990000000025
0
ARC
8
BLACK
10
449.043485999999973
20
-87.2314549999999969
40
0.4999860019360542
50
-270.00160433
51
-179.99495783
0
ARC
8
BLACK
10
500.7433879999999817
20
-100.2314569999999918
40
0.5001120017636049
50
-89.98716862
51
-0.00481177
0
ARC
8
BLACK
10
448.3558879999999931
20
-119.281456999999989
40
0.5001120017636049
50
-89.98716862
51
-0.00481177
0
LINE
8
BLACK
6
CONTINUOUS
10
686.75
20
-40.9999989999999954
11
687.
21
-40.9999989999999954
0
LINE
8
BLACK
6
CONTINUOUS
10
362.6309999999999718
20
-86.7314959999999928
11
349.0310000000000059
21
-86.7314959999999928
0
ARC
8
BLACK
10
653.8311049999999796
20
-100.2314640000000026
40
0.5000350110242282
50
-179.99598958
51
-90.01203127
0
ARC
8
BLACK
10
505.5058879999999704
20
-119.281456999999989
40
0.5001120017636049
50
-89.98716862
51
-0.00481177
0
ARC
8
BLACK
10
516.2188059999999723
20
-157.3313629999999819
40
0.5001360031351472
50
-179.98441979
51
-90.00641538
0
LINE
8
BLACK
6
CONTINUOUS
10
577.4434999999999718
20
-100.2314989999999995
11
577.4434999999999718
21
-87.2314989999999995
0
LINE
8
BLACK
6
CONTINUOUS
10
362.8184999999999718
20
-68.1814990000000023
11
362.8184999999999718
21
-81.1814990000000023
0
ARC
8
BLACK
10
667.4308879999999817
20
-57.3689569999999947
40
0.5001120017636049
50
-89.98716862
51
-0.00481177
0
LINE
8
BLACK
6
CONTINUOUS
10
481.6934999999999718
20
-43.8689989999999952
11
468.0935000000000059
21
-43.8689989999999952
0
LINE
8
BLACK
6
CONTINUOUS
10
634.5
20
-36.9999989999999954
11
634.5
21
-38.4999989999999954
0
ARC
8
BLACK
10
500.743505999999968
20
-44.3689630000000008
40
0.4999640000360026
50
-0.00412559
51
90.00068760
0
LINE
8
BLACK
6
CONTINUOUS
10
557.8935000000000173
20
-86.7314989999999995
11
544.2934999999999945
21
-86.7314989999999995
0
ARC
8
BLACK
10
382.3686050000000023
20
-81.1814639999999912
40
0.5000350110242282
50
-179.99598958
51
-90.01203127
0
LINE
8
BLACK
6
CONTINUOUS
10
621.3622500000000173
20
-105.8064990000000023
11
590.3622500000000173
21
-105.8064990000000023
0
LINE
8
BLACK
6
CONTINUOUS
10
429.9934999999999832
20
-100.7314989999999995
11
443.5935000000000059
21
-100.7314989999999995
0
ARC
8
BLACK
10
568.1061049999999568
20
-119.2814639999999997
40
0.5000350110242282
50
-179.99598958
51
-90.01203127
0
ARC
8
BLACK
10
496.6686049999999568
20
-81.1814639999999912
40
0.5000350110242282
50
-179.99598958
51
-90.01203127
0
LINE
8
BLACK
6
CONTINUOUS
10
560.4622499999999263
20
-144.3814989999999909
11
560.4622499999999263
21
-157.3814989999999909
0
ARC
8
BLACK
10
673.5000009999999975
20
-38.5
40
0.9999990000004999
50
-90.00005730
51
0.00005730
0
ARC
8
BLACK
10
501.4311050000000023
20
-138.3314639999999827
40
0.5000350110242282
50
-179.99598958
51
-90.01203127
0
LINE
8
BLACK
6
CONTINUOUS
10
378.4747499999999718
20
-124.8564989999999995
11
347.4747499999999718
21
-124.8564989999999995
0
ARC
8
BLACK
10
476.9308879999999817
20
-138.3314570000000003
40
0.5001120017636049
50
-89.98716862
51
-0.00481177
0
ARC
8
BLACK
10
434.0683879999999704
20
-57.3689569999999947
40
0.5001120017636049
50
-89.98716862
51
-0.00481177
0
LINE
8
BLACK
6
CONTINUOUS
10
653.8310000000000173
20
-100.7314989999999995
11
667.4309999999999263
21
-100.7314989999999995
0
ARC
8
BLACK
10
572.8686050000000023
20
-57.3689639999999983
40
0.5000350110242282
50
-179.99598958
51
-90.01203127
0
ARC
8
BLACK
10
443.5933880000000045
20
-100.2314569999999918
40
0.5001120017636049
50
-89.98716862
51
-0.00481177
0
LINE
8
BLACK
6
CONTINUOUS
10
343.7684999999999604
20
-68.1814999999999998
11
343.7684999999999604
21
-81.1814990000000023
0
ARC
8
BLACK
10
453.118505999999968
20
-68.1814629999999937
40
0.4999640000360026
50
-0.00412559
51
90.00068760
0
ARC
8
BLACK
10
348.5
20
-164.9999990000000025
40
2.5
50
-180.00000000
51
-0.00000000
0
ARC
8
BLACK
10
584.7745879999999943
20
-144.38135699999998
40
0.4998380201705348
50
-270.01856985
51
-179.98372273
0
LINE
8
BLACK
6
CONTINUOUS
10
395.5
20
-162.4999990000000025
11
381.75
21
-162.4999990000000025
0
ARC
8
BLACK
10
405.493505999999968
20
-87.2314629999999909
40
0.4999640000360026
50
-0.00412559
51
90.00068760
0
LINE
8
BLACK
6
CONTINUOUS
10
551.2497499999999491
20
-157.3814989999999909
11
551.2497499999999491
21
-144.3814989999999909
0
LINE
8
BLACK
6
CONTINUOUS
10
585.
20
-165.9999990000000025
11
545.2999999999999545
21
-165.9999990000000025
0
ARC
8
BLACK
10
510.9561049999999796
20
-119.2814639999999997
40
0.5000350110242282
50
-179.99598958
51
-90.01203127
0
LINE
8
BLACK
6
CONTINUOUS
10
659.5
20
-161.2499990000000025
11
659.5
21
-162.2499990000000025
0
ARC
8
BLACK
10
667.4310060000000249
20
-44.3689630000000008
40
0.4999640000360026
50
-0.00412559
51
90.00068760
0
ARC
8
BLACK
10
634.781105000000025
20
-81.1814639999999912
40
0.5000350110242282
50
-179.99598958
51
-90.01203127
0
LINE
8
BLACK
6
CONTINUOUS
10
394.2747499999999832
20
-157.8814989999999909
11
407.8747500000000059
21
-157.8814989999999909
0
LINE
8
BLACK
6
CONTINUOUS
10
391.3934999999999604
20
-87.2314989999999995
11
391.3934999999999604
21
-100.2314989999999995
0
LINE
8
BLACK
6
CONTINUOUS
10
400.9184999999999945
20
-44.3689989999999952
11
400.9184999999999945
21
-57.3689989999999952
0
LINE
8
BLACK
6
CONTINUOUS
10
572.1809999999999263
20
-124.8314989999999938
11
558.5810000000000173
21
-124.8314989999999938
0
LINE
8
BLACK
6
CONTINUOUS
10
486.6434999999999604
20
-87.2314989999999995
11
486.6434999999999604
21
-100.2314989999999995
0
LINE
8
BLACK
6
CONTINUOUS
10
486.6434999999999604
20
-44.3689989999999952
11
486.6434999999999604
21
-57.3689989999999952
0
ARC
8
BLACK
10
673.5000009999999975
20
-36.9999979999999979
40
0.9999990000004999
50
-0.00005730
51
90.00005730
0
ARC
8
BLACK
10
545.2999989999999571
20
-163.499998000000005
40
0.9999990000004999
50
-270.00005730
51
-179.99994270
0
ARC
8
BLACK
10
487.1434859999999958
20
-44.3689549999999997
40
0.4999860019360542
50
-270.00160433
51
-179.99495783
0
ARC
8
BLACK
10
649.2500009999999975
20
-162.25
40
0.249999000002
50
-90.00022918
51
0.00022918
0
ARC
8
BLACK
10
545.2999989999999571
20
-38.5
40
0.9999990000004999
50
-180.00005730
51
-89.99994270
0
LINE
8
BLACK
6
CONTINUOUS
10
510.4559999999999604
20
-106.2814989999999966
11
510.4559999999999604
21
-119.2814989999999966
0
ARC
8
BLACK
10
538.8435059999999339
20
-87.2314629999999909
40
0.4999640000360026
50
-0.00412559
51
90.00068760
0
ARC
8
BLACK
10
445.9999990000000025
20
-165.
40
0.9999990000004999
50
-180.00005730
51
-89.99994270
0
ARC
8
BLACK
10
443.5935059999999908
20
-87.2314629999999909
40
0.4999640000360026
50
-0.00412559
51
90.00068760
0
ARC
8
BLACK
10
687.5
20
-43.
40
2.0000009999999997
50
0.00002865
51
90.00000000
0
LINE
8
BLACK
6
CONTINUOUS
10
525.0559999999999263
20
-119.2814989999999966
11
525.0559999999999263
21
-106.2814989999999966
0
ARC
8
BLACK
10
479.3122070000000008
20
-144.3815620000000024
40
0.5000630018487671
50
0.00721836
51
89.99507318
0
ARC
8
BLACK
10
525.2434859999999617
20
-87.2314549999999969
40
0.4999860019360542
50
-270.00160433
51
-179.99495783
0
ARC
8
BLACK
10
590.3621859999999515
20
-106.3064549999999997
40
0.4999360019362478
50
-270.00733480
51
-179.99495733
0
ARC
8
BLACK
10
371.2500009999999975
20
-39.7499979999999979
40
0.249999000002
50
-0.00022918
51
90.00022918
0
ARC
8
BLACK
10
370.4622479999999882
20
-157.3815040000000067
40
0.499995000004
50
-180.00057296
51
-89.99977081
0
LINE
8
BLACK
6
CONTINUOUS
10
439.0184999999999604
20
-44.3689989999999952
11
439.0184999999999604
21
-57.3689989999999952
0
LINE
8
BLACK
6
CONTINUOUS
10
434.2559999999999718
20
-106.2814989999999966
11
434.2559999999999718
21
-119.2814989999999966
0
ARC
8
BLACK
10
472.855985999999973
20
-106.281454999999994
40
0.4999860019360542
50
-270.00160433
51
-179.99495783
0
ARC
8
BLACK
10
491.2183880000000045
20
-81.1814569999999947
40
0.5001120017636049
50
-89.98716862
51
-0.00481177
0
CIRCLE
8
BLACK
10
343.9247499999999604
20
-112.7814989999999966
40
1.
0
ARC
8
BLACK
10
491.9061049999999682
20
-119.2814639999999997
40
0.5000350110242282
50
-179.99598958
51
-90.01203127
0
LINE
8
BLACK
6
CONTINUOUS
10
567.9184999999999945
20
-57.3689989999999952
11
567.9184999999999945
21
-44.3689989999999952
0
LINE
8
BLACK
6
CONTINUOUS
10
653.8310000000000173
20
-81.6814990000000023
11
667.4309999999999263
21
-81.6814990000000023
0
LINE
8
BLACK
6
CONTINUOUS
10
343.9999990000000025
20
-160.9999990000000025
11
344.4999990000000025
21
-160.9999990000000025
0
LINE
8
BLACK
6
CONTINUOUS
10
434.5684999999999718
20
-57.3689989999999952
11
434.5684999999999718
21
-44.3689989999999952
0
LINE
8
BLACK
6
CONTINUOUS
10
401.4184999999999945
20
-57.8689989999999952
11
415.0184999999999604
21
-57.8689989999999952
0
ARC
8
BLACK
10
486.455887999999959
20
-119.281456999999989
40
0.5001120017636049
50
-89.98716862
51
-0.00481177
0
LINE
8
BLACK
6
CONTINUOUS
10
479.3122500000000059
20
-143.8814989999999909
11
465.7122499999999832
21
-143.8814989999999909
0
ARC
8
BLACK
10
528.8187070000000176
20
-144.4315619999999853
40
0.5000630018487671
50
0.00721836
51
89.99507318
0
LINE
8
BLACK
6
CONTINUOUS
10
635.5
20
-165.9999990000000025
11
673.5
21
-165.9999990000000025
0
LINE
8
BLACK
6
CONTINUOUS
10
534.2685000000000173
20
-68.1814990000000023
11
534.2685000000000173
21
-81.1814990000000023
0
ARC
8
BLACK
10
637.7514949999999772
20
-120.2345229999999958
40
1.2005086095922011
50
-159.72402360
51
-70.79086466
0
LINE
8
BLACK
6
CONTINUOUS
10
415.5184999999999604
20
-81.1814990000000023
11
415.5184999999999604
21
-68.1814990000000023
0
LINE
8
BLACK
6
CONTINUOUS
10
444.2810000000000059
20
-138.8314989999999796
11
457.8809999999999718
21
-138.8314989999999796
0
LINE
8
BLACK
6
CONTINUOUS
10
453.6184999999999832
20
-81.1814990000000023
11
453.6184999999999832
21
-68.1814990000000023
0
ARC
8
BLACK
10
453.1183879999999817
20
-57.3689569999999947
40
0.5001120017636049
50
-89.98716862
51
-0.00481177
0
ARC
8
BLACK
10
416.2055879999999775
20
-144.4313569999999913
40
0.4998380201705348
50
-270.01856985
51
-179.98372273
0
LINE
8
BLACK
6
CONTINUOUS
10
679.75
20
-39.4999989999999954
11
679.75
21
-36.9999989999999954
0
LINE
8
BLACK
6
CONTINUOUS
10
391.2059999999999604
20
-105.7814989999999966
11
377.6059999999999945
21
-105.7814989999999966
0
LINE
8
BLACK
6
CONTINUOUS
10
491.7185000000000059
20
-81.1814990000000023
11
491.7185000000000059
21
-68.1814990000000023
0
ARC
8
BLACK
10
537.5
20
-36.9999989999999954
40
2.5
50
0.00000000
51
180.00000000
0
LINE
8
BLACK
6
CONTINUOUS
10
585.0997499999999718
20
-125.3564989999999995
11
585.0997499999999718
21
-137.074499000000003
0
ARC
8
BLACK
10
395.5000009999999975
20
-36.9999979999999979
40
0.9999990000004999
50
-0.00005730
51
90.00005730
0
LINE
8
BLACK
6
CONTINUOUS
10
360.2497500000000059
20
-143.8814989999999909
11
346.6497499999999832
21
-143.8814989999999909
0
CIRCLE
8
BLACK
10
417.7434910000000059
20
-50.8690189999999944
40
1.
0
LINE
8
BLACK
6
CONTINUOUS
10
634.7809999999999491
20
-100.7314989999999995
11
648.3809999999999718
21
-100.7314989999999995
0
LINE
8
BLACK
6
CONTINUOUS
10
581.8935000000000173
20
-87.2314989999999995
11
581.8935000000000173
21
-100.2314989999999995
0
LINE
8
BLACK
6
CONTINUOUS
10
453.1184999999999832
20
-67.6814990000000023
11
439.5184999999999604
21
-67.6814990000000023
0
CIRCLE
8
BLACK
10
360.5934909999999718
20
-74.6814990000000023
40
1.
0
LINE
8
BLACK
6
CONTINUOUS
10
528.8187500000000227
20
-143.9314990000000023
11
516.21875
21
-143.9314990000000023
0
LINE
8
BLACK
6
CONTINUOUS
10
667.4309999999999263
20
-143.8814989999999909
11
653.8310000000000173
21
-143.8814989999999909
0
LINE
8
BLACK
6
CONTINUOUS
10
586.9684999999999491
20
-81.1814990000000023
11
586.9684999999999491
21
-68.1814990000000023
0
ARC
8
BLACK
10
539.5309859999999844
20
-125.3314549999999912
40
0.4999860019360542
50
-270.00160433
51
-179.99495783
0
LINE
8
BLACK
6
CONTINUOUS
10
358.3684999999999832
20
-81.1814990000000023
11
358.3684999999999832
21
-68.1814990000000023
0
LINE
8
BLACK
6
CONTINUOUS
10
624.5684999999999718
20
-43.8689989999999952
11
610.9684999999999491
21
-43.8689989999999952
0
ARC
8
BLACK
10
686.4808899999999312
20
-81.1814600000000013
40
0.5001100015206654
50
-89.98739768
51
-0.00446809
0
LINE
8
BLACK
6
CONTINUOUS
10
653.8310000000000173
20
-157.8814989999999909
11
667.4309999999999263
21
-157.8814989999999909
0
LINE
8
BLACK
6
CONTINUOUS
10
344.2685009999999579
20
-81.6814990000000023
11
357.8684999999999832
21
-81.6814990000000023
0
ARC
8
BLACK
10
344.2685009999999579
20
-57.3689979999999977
40
0.500001
50
-179.99988541
51
-90.00000000
0
LINE
8
BLACK
6
CONTINUOUS
10
418.
20
-162.4999990000000025
11
418.
21
-164.9999990000000025
0
LINE
8
BLACK
6
CONTINUOUS
10
448.5434999999999945
20
-87.2314989999999995
11
448.5434999999999945
21
-100.2314989999999995
0
ARC
8
BLACK
10
395.9683880000000045
20
-81.1814569999999947
40
0.5001120017636049
50
-89.98716862
51
-0.00481177
0
ARC
8
BLACK
10
381.7499990000000025
20
-162.25
40
0.249999000002
50
-180.00022918
51
-89.99977082
0
ARC
8
BLACK
10
595.9935060000000249
20
-87.2314629999999909
40
0.4999640000360026
50
-0.00412559
51
90.00068760
0
LINE
8
BLACK
6
CONTINUOUS
10
538.8434999999999491
20
-43.8689989999999952
11
525.2434999999999263
21
-43.8689989999999952
0
LINE
8
BLACK
6
CONTINUOUS
10
510.9559999999999604
20
-119.7814989999999966
11
524.5559999999999263
21
-119.7814989999999966
0
ARC
8
BLACK
10
419.7810059999999908
20
-125.3314629999999994
40
0.4999640000360026
50
-0.00412559
51
90.00068760
  0
ENDSEC
  0
EOF
