  0
SECTION
  2
HEADER
  9
$ANGBASE
  50
0.0
  9
$ANGDIR
  70
1
  9
$MEASUREMENT
  70
1
  0
ENDSEC
  0
SECTION
  2
TABLES
  0
TABLE
  2
LTYPE
  70
4
  0
LTYPE
  5
40F
  2
CONTINUOUS
  70
0
  3
Solid line
  72
65
  73
0
  40
0.0
  0
LTYPE
  5
410
  2
DASHDOT
 70
0
  3
Dash Dot ____ _ ____ _
 72
65
 73
4
 40
2.0
 49
1.25
 49
-0.25
 49
0.25
 49
-0.25
  0
LTYPE
  5
411
  2
DASHED
 70
0
  3
Dashed __ __ __ __ __
 72
65
 73
2
 40
0.75
 49
0.5
 49
-0.25
  0
LTYPE
  5
43B
  2
DOTTED
 70
0
  3
Dotted .  .  .  .
 72
65
 73
2
 40
0.2
 49
0.0
 49
-0.2
  0
ENDTAB
  0
TABLE
  2
STYLE
  70
4
  0
STYLE
  2
KICAD
  70
0
  40
0
  41
1
  42
1
  50
0
  71
0
  3
isocp.shx
  0
STYLE
  2
KICADB
  70
0
  40
0
  41
1
  42
1
  50
0
  71
0
  3
isocp.shx
  0
STYLE
  2
KICADI
  70
0
  40
0
  41
1
  42
1
  50
15
  71
0
  3
isocp.shx
  0
STYLE
  2
KICADBI
  70
0
  40
0
  41
1
  42
1
  50
15
  71
0
  3
isocp.shx
  0
ENDTAB
  0
TABLE
  2
LAYER
  70
1
  0
LAYER
  2
BLACK
  70
0
  62
7
  6
CONTINUOUS
  0
ENDTAB
  0
ENDSEC
  0
SECTION
  2
ENTITIES
0
LINE
8
BLACK
6
CONTINUOUS
10
686.9809999999999945
20
-212.3689999999999998
11
686.9809999999999945
21
-199.3689999999999998
0
ARC
8
BLACK
10
586.4683880000000045
20
-212.3689579999999921
40
0.5001120017636049
50
-89.98716862
51
-0.00481177
0
ARC
8
BLACK
10
481.6933879999999704
20
-255.2314579999999751
40
0.5001120017636049
50
-89.98716862
51
-0.00481177
0
ARC
8
BLACK
10
425.2311049999999568
20
-293.3314649999999801
40
0.5000350110242282
50
-179.99598958
51
-90.01203127
0
ARC
8
BLACK
10
539.531105000000025
20
-293.3314649999999801
40
0.5000350110242282
50
-179.99598958
51
-90.01203127
0
LINE
8
BLACK
6
CONTINUOUS
10
673.5
20
-317.5
11
659.75
21
-317.5
0
ARC
8
BLACK
10
533.4999990000000025
20
-317.5000009999999975
40
1.5000010000003334
50
0.00003820
51
89.99996180
0
ARC
8
BLACK
10
386.4435059999999567
20
-299.381463999999994
40
0.4999640000360026
50
-0.00412559
51
90.00068760
0
LINE
8
BLACK
6
CONTINUOUS
10
520.4809999999999945
20
-293.8315000000000055
11
534.0810000000000173
21
-293.8315000000000055
0
ARC
8
BLACK
10
460.6000009999999634
20
-316.2499990000000025
40
0.249999000002
50
-0.00022918
51
90.00022918
0
LINE
8
BLACK
6
CONTINUOUS
10
667.9309999999999263
20
-312.38149999999996
11
667.9309999999999263
21
-299.38149999999996
0
LINE
8
BLACK
6
CONTINUOUS
10
534.2685000000000173
20
-223.1814999999999998
11
534.2685000000000173
21
-236.1814999999999998
0
CIRCLE
8
BLACK
10
489.1810099999999579
20
-267.7814999999999941
40
1.
0
LINE
8
BLACK
6
CONTINUOUS
10
529.5059999999999718
20
-261.2814999999999941
11
529.5059999999999718
21
-274.2814999999999941
0
LINE
8
BLACK
6
CONTINUOUS
10
586.4684999999999491
20
-222.6814999999999998
11
572.8684999999999263
21
-222.6814999999999998
0
ARC
8
BLACK
10
653.8311049999999796
20
-312.3814649999999915
40
0.5000350110242282
50
-179.99598958
51
-90.01203127
0
CIRCLE
8
BLACK
10
367.7967580000000112
20
-248.7331140000000005
40
1.
0
LINE
8
BLACK
6
CONTINUOUS
10
453.6184999999999832
20
-236.1814999999999998
11
453.6184999999999832
21
-223.1814999999999998
0
ARC
8
BLACK
10
590.3621859999999515
20
-261.3063559999999939
40
0.4999360207386541
50
-270.00733480
51
-179.98349670
0
ARC
8
BLACK
10
553.8186049999999341
20
-212.3689650000000029
40
0.5000350110242282
50
-179.99598958
51
-90.01203127
0
ARC
8
BLACK
10
425.230985999999973
20
-280.3314560000000029
40
0.4999860019360542
50
-270.00160433
51
-179.99495783
0
LINE
8
BLACK
6
CONTINUOUS
10
570.3999999999999773
20
-194.5
11
585.
21
-194.5
0
ARC
8
BLACK
10
344.4999990000000025
20
-317.5000009999999975
40
1.5000009999999999
50
0.00000000
51
90.00000000
0
ARC
8
BLACK
10
678.2499990000000025
20
-194.4999990000000025
40
1.5000010000003334
50
-89.99996180
51
-0.00003820
0
ARC
8
BLACK
10
439.5186049999999796
20
-236.1814650000000029
40
0.5000350110242282
50
-179.99598958
51
-90.01203127
0
LINE
8
BLACK
6
CONTINUOUS
10
505.5059999999999718
20
-260.7814999999999941
11
491.9060000000000059
21
-260.7814999999999941
0
ARC
8
BLACK
10
549.0561050000000023
20
-274.2814649999999688
40
0.5000350110242282
50
-179.99598958
51
-90.01203127
0
CIRCLE
8
BLACK
10
348.5
20
-192.
40
1.25
0
ARC
8
BLACK
10
510.268387999999959
20
-236.1814579999999921
40
0.5001120017636049
50
-89.98716862
51
-0.00481177
0
LINE
8
BLACK
6
CONTINUOUS
10
653.8310000000000173
20
-293.8315000000000055
11
667.4309999999999263
21
-293.8315000000000055
0
ARC
8
BLACK
10
444.2809859999999844
20
-280.3314560000000029
40
0.4999860019360542
50
-270.00160433
51
-179.99495783
0
LINE
8
BLACK
6
CONTINUOUS
10
371.25
20
-317.25
11
371.25
21
-316.25
0
ARC
8
BLACK
10
553.8184860000000072
20
-223.1814559999999972
40
0.4999860019360542
50
-270.00160433
51
-179.99495783
0
ARC
8
BLACK
10
429.9936050000000023
20
-255.2314649999999858
40
0.5000350110242282
50
-179.99598958
51
-90.01203127
0
ARC
8
BLACK
10
591.9186049999999568
20
-212.3689650000000029
40
0.5000350110242282
50
-179.99598958
51
-90.01203127
0
CIRCLE
8
BLACK
10
537.5
20
-320.
40
1.25
0
ARC
8
BLACK
10
472.1683879999999931
20
-236.1814579999999921
40
0.5001120017636049
50
-89.98716862
51
-0.00481177
0
LINE
8
BLACK
6
CONTINUOUS
10
349.0310000000000059
20
-312.88149999999996
11
362.6309999999999718
21
-312.88149999999996
0
LINE
8
BLACK
6
CONTINUOUS
10
617.0997499999999718
20
-292.0745000000000005
11
617.0997499999999718
21
-280.3564999999999827
0
ARC
8
BLACK
10
481.6935059999999567
20
-199.368963999999977
40
0.4999640000360026
50
-0.00412559
51
90.00068760
0
LINE
8
BLACK
6
CONTINUOUS
10
510.2684999999999604
20
-222.6814999999999998
11
496.6684999999999945
21
-222.6814999999999998
0
ARC
8
BLACK
10
558.5811049999999796
20
-293.3314649999999801
40
0.5000350110242282
50
-179.99598958
51
-90.01203127
0
ARC
8
BLACK
10
401.418485999999973
20
-223.1814559999999972
40
0.4999860019360542
50
-270.00160433
51
-179.99495783
0
ARC
8
BLACK
10
525.2434859999999617
20
-242.2314559999999801
40
0.4999860019360542
50
-270.00160433
51
-179.99495783
0
LINE
8
BLACK
6
CONTINUOUS
10
434.5684999999999718
20
-212.3689999999999998
11
434.5684999999999718
21
-199.3689999999999998
0
ARC
8
BLACK
10
410.9436049999999909
20
-255.2314649999999858
40
0.5000350110242282
50
-179.99598958
51
-90.01203127
0
ARC
8
BLACK
10
667.4308879999999817
20
-236.1814579999999921
40
0.5001120017636049
50
-89.98716862
51
-0.00481177
0
LINE
8
BLACK
6
CONTINUOUS
10
586.
20
-318.5
11
586.
21
-320.
0
LINE
8
BLACK
6
CONTINUOUS
10
472.1684999999999945
20
-222.6814999999999998
11
458.5684999999999718
21
-222.6814999999999998
0
ARC
8
BLACK
10
485.7000009999999861
20
-318.4999990000000025
40
0.9999990000004999
50
-0.00005730
51
90.00005730
0
LINE
8
BLACK
6
CONTINUOUS
10
586.4684999999999491
20
-198.8689999999999998
11
572.8684999999999263
21
-198.8689999999999998
0
ARC
8
BLACK
10
678.4999990000000025
20
-317.5000009999999975
40
1.5000010000003334
50
0.00003820
51
89.99996180
0
LINE
8
BLACK
6
CONTINUOUS
10
357.5
20
-194.5
11
371.25
21
-194.5
0
ARC
8
BLACK
10
634.781105000000025
20
-236.1814650000000029
40
0.5000350110242282
50
-179.99598958
51
-90.01203127
0
ARC
8
BLACK
10
457.8810059999999567
20
-280.3314639999999827
40
0.4999640000360026
50
-0.00412559
51
90.00068760
0
LINE
8
BLACK
6
CONTINUOUS
10
520.2934999999999945
20
-255.2314999999999827
11
520.2934999999999945
21
-242.2314999999999827
0
ARC
8
BLACK
10
659.7499990000000025
20
-316.2499990000000025
40
0.249999000002
50
-270.00022918
51
-179.99977082
0
ARC
8
BLACK
10
515.0308880000000045
20
-293.3314579999999978
40
0.5001120017636049
50
-89.98716862
51
-0.00481177
0
ARC
8
BLACK
10
530.0061049999999341
20
-274.2814649999999688
40
0.5000350110242282
50
-179.99598958
51
-90.01203127
0
ARC
8
BLACK
10
686.4810099999999693
20
-299.3814600000000041
40
0.499960000100008
50
-0.00458403
51
90.00114601
0
ARC
8
BLACK
10
581.7060060000000021
20
-261.2814639999999713
40
0.4999640000360026
50
-0.00412559
51
90.00068760
0
ARC
8
BLACK
10
544.2934860000000299
20
-242.2314559999999801
40
0.4999860019360542
50
-270.00160433
51
-179.99495783
0
ARC
8
BLACK
10
610.9684859999999844
20
-199.3689559999999972
40
0.4999860019360542
50
-270.00160433
51
-179.99495783
0
LINE
8
BLACK
6
CONTINUOUS
10
395.9685000000000059
20
-198.8689999999999998
11
382.3684999999999832
21
-198.8689999999999998
0
ARC
8
BLACK
10
557.8935060000000021
20
-242.2314639999999883
40
0.4999640000360026
50
-0.00412559
51
90.00068760
0
ARC
8
BLACK
10
419.7810059999999908
20
-280.3314639999999827
40
0.4999640000360026
50
-0.00412559
51
90.00068760
0
LINE
8
BLACK
6
CONTINUOUS
10
405.6809999999999832
20
-280.3315000000000055
11
405.6809999999999832
21
-293.3315000000000055
0
LINE
8
BLACK
6
CONTINUOUS
10
515.5309999999999491
20
-293.3315000000000055
11
515.5309999999999491
21
-280.3315000000000055
0
LINE
8
BLACK
6
CONTINUOUS
10
620.3059999999999263
20
-312.38149999999996
11
620.3059999999999263
21
-299.38149999999996
0
LINE
8
BLACK
6
CONTINUOUS
10
363.1309999999999718
20
-312.38149999999996
11
363.1309999999999718
21
-299.38149999999996
0
LINE
8
BLACK
6
CONTINUOUS
10
539.3434999999999491
20
-212.3689999999999998
11
539.3434999999999491
21
-199.3689999999999998
0
CIRCLE
8
BLACK
10
541.5684909999999945
20
-248.7314999999999827
40
1.
0
LINE
8
BLACK
6
CONTINUOUS
10
534.0810000000000173
20
-279.8315000000000055
11
520.4809999999999945
21
-279.8315000000000055
0
LINE
8
BLACK
6
CONTINUOUS
10
686.4809999999999945
20
-222.6814999999999998
11
672.8809999999999718
21
-222.6814999999999998
0
ARC
8
BLACK
10
506.1934859999999503
20
-199.3689559999999972
40
0.4999860019360542
50
-270.00160433
51
-179.99495783
0
ARC
8
BLACK
10
606.2059859999999389
20
-299.3814560000000142
40
0.4999860019360542
50
-270.00160433
51
-179.99495783
0
LINE
8
BLACK
6
CONTINUOUS
10
686.4809999999999945
20
-241.7314999999999827
11
672.8809999999999718
21
-241.7314999999999827
0
ARC
8
BLACK
10
568.1061049999999568
20
-274.2814649999999688
40
0.5000350110242282
50
-179.99598958
51
-90.01203127
0
LINE
8
BLACK
6
CONTINUOUS
10
377.6059999999999945
20
-274.7814999999999941
11
391.2059999999999604
21
-274.7814999999999941
0
ARC
8
BLACK
10
460.6000009999999634
20
-194.7499990000000025
40
0.249999000002
50
-0.00022918
51
90.00022918
0
LINE
8
BLACK
6
CONTINUOUS
10
535.2685000000000173
20
-312.8315000000000055
11
547.8684999999999263
21
-312.8315000000000055
0
LINE
8
BLACK
6
CONTINUOUS
10
358.3684999999999832
20
-212.3689999999999998
11
358.3684999999999832
21
-199.3689999999999998
0
LINE
8
BLACK
6
CONTINUOUS
10
482.1934999999999718
20
-255.2314999999999827
11
482.1934999999999718
21
-242.2314999999999827
0
ARC
8
BLACK
10
635.4999990000000025
20
-193.5000009999999975
40
0.9999990000004999
50
-180.00005730
51
-89.99994270
0
LINE
8
BLACK
6
CONTINUOUS
10
634.7809999999999491
20
-255.7314999999999827
11
648.3809999999999718
21
-255.7314999999999827
0
ARC
8
BLACK
10
471.0999989999999684
20
-316.2499990000000025
40
0.249999000002
50
-270.00022918
51
-179.99977082
0
ARC
8
BLACK
10
420.4686049999999682
20
-236.1814650000000029
40
0.5000350110242282
50
-179.99598958
51
-90.01203127
0
ARC
8
BLACK
10
667.4310060000000249
20
-242.2314639999999883
40
0.4999640000360026
50
-0.00412559
51
90.00068760
0
LINE
8
BLACK
6
CONTINUOUS
10
510.9559999999999604
20
-274.7814999999999941
11
524.5559999999999263
21
-274.7814999999999941
0
LINE
8
BLACK
6
CONTINUOUS
10
572.1809999999999263
20
-279.8315000000000055
11
558.5810000000000173
21
-279.8315000000000055
0
LINE
8
BLACK
6
CONTINUOUS
10
524.5559999999999263
20
-260.7814999999999941
11
510.9559999999999604
21
-260.7814999999999941
0
ARC
8
BLACK
10
482.3809859999999503
20
-280.3314560000000029
40
0.4999860019360542
50
-270.00160433
51
-179.99495783
0
LINE
8
BLACK
6
CONTINUOUS
10
530.0059999999999718
20
-274.7814999999999941
11
543.6059999999999945
21
-274.7814999999999941
0
LINE
8
BLACK
6
CONTINUOUS
10
453.3059999999999832
20
-261.2814999999999941
11
453.3059999999999832
21
-274.2814999999999941
0
ARC
8
BLACK
10
653.8309859999999389
20
-280.3314560000000029
40
0.4999860019360542
50
-270.00160433
51
-179.99495783
0
ARC
8
BLACK
10
357.8684849999999642
20
-223.1815149999999903
40
0.5000150002249932
50
0.00171882
51
89.99828118
0
ARC
8
BLACK
10
539.5309859999999844
20
-280.3314560000000029
40
0.4999860019360542
50
-270.00160433
51
-179.99495783
0
LINE
8
BLACK
6
CONTINUOUS
10
577.4434999999999718
20
-255.2314999999999827
11
577.4434999999999718
21
-242.2314999999999827
0
ARC
8
BLACK
10
653.8309859999999389
20
-199.3689559999999972
40
0.4999860019360542
50
-270.00160433
51
-179.99495783
0
LINE
8
BLACK
6
CONTINUOUS
10
689.5
20
-198.
11
689.5
21
-314.
0
ARC
8
BLACK
10
510.9559859999999958
20
-261.2814559999999915
40
0.4999860019360542
50
-270.00160433
51
-179.99495783
0
ARC
8
BLACK
10
567.4183879999999363
20
-236.1814579999999921
40
0.5001120017636049
50
-89.98716862
51
-0.00481177
0
LINE
8
BLACK
6
CONTINUOUS
10
415.5184999999999604
20
-212.3689999999999998
11
415.5184999999999604
21
-199.3689999999999998
0
ARC
8
BLACK
10
477.6186050000000023
20
-312.3814649999999915
40
0.5000350110242282
50
-179.99598958
51
-90.01203127
0
ARC
8
BLACK
10
386.4433879999999704
20
-255.2314579999999751
40
0.5001120017636049
50
-89.98716862
51
-0.00481177
0
LINE
8
BLACK
6
CONTINUOUS
10
686.4809999999999945
20
-198.8689999999999998
11
672.8809999999999718
21
-198.8689999999999998
0
LINE
8
BLACK
6
CONTINUOUS
10
396.1560000000000059
20
-299.38149999999996
11
396.1560000000000059
21
-312.38149999999996
0
LINE
8
BLACK
6
CONTINUOUS
10
468.0935000000000059
20
-212.8689999999999998
11
481.6934999999999718
21
-212.8689999999999998
0
LINE
8
BLACK
6
CONTINUOUS
10
381.75
20
-196.
11
411.25
21
-196.
0
CIRCLE
8
BLACK
10
651.1060099999999693
20
-229.6814999999999998
40
1.
0
ARC
8
BLACK
10
653.8309859999999389
20
-299.3814560000000142
40
0.4999860019360542
50
-270.00160433
51
-179.99495783
0
ARC
8
BLACK
10
378.4747069999999667
20
-280.3565629999999942
40
0.5000630018487671
50
0.00721836
51
89.99507318
0
LINE
8
BLACK
6
CONTINUOUS
10
585.0997499999999718
20
-280.3564999999999827
11
585.0997499999999718
21
-292.0745000000000005
0
LINE
8
BLACK
6
CONTINUOUS
10
363.3184999999999718
20
-236.6814999999999998
11
376.9184999999999945
21
-236.6814999999999998
0
LINE
8
BLACK
6
CONTINUOUS
10
595.9934999999999263
20
-298.88149999999996
11
582.3935000000000173
21
-298.88149999999996
0
LINE
8
BLACK
6
CONTINUOUS
10
485.6999999999999886
20
-317.5
11
471.0999999999999659
21
-317.5
0
LINE
8
BLACK
6
CONTINUOUS
10
420.4618999999999573
20
-312.3315000000000055
11
420.4618999999999573
21
-299.4314999999999714
0
LINE
8
BLACK
6
CONTINUOUS
10
471.0999999999999659
20
-316.
11
533.5
21
-316.
0
ARC
8
BLACK
10
344.2685009999999579
20
-236.1814990000000023
40
0.500001
50
-179.99988541
51
-90.00000000
0
LINE
8
BLACK
6
CONTINUOUS
10
585.
20
-321.
11
545.2999999999999545
21
-321.
0
ARC
8
BLACK
10
558.5809859999999389
20
-299.3814560000000142
40
0.4999860019360542
50
-270.00160433
51
-179.99495783
0
LINE
8
BLACK
6
CONTINUOUS
10
581.7060000000000173
20
-260.7814999999999941
11
568.1059999999999945
21
-260.7814999999999941
0
LINE
8
BLACK
6
CONTINUOUS
10
445.
20
-318.5
11
445.
21
-320.
0
ARC
8
BLACK
10
634.7809859999999844
20
-223.1814559999999972
40
0.4999860019360542
50
-270.00160433
51
-179.99495783
0
LINE
8
BLACK
6
CONTINUOUS
10
482.1934999999999718
20
-212.3689999999999998
11
482.1934999999999718
21
-199.3689999999999998
0
LINE
8
BLACK
6
CONTINUOUS
10
444.0935000000000059
20
-255.2314999999999827
11
444.0935000000000059
21
-242.2314999999999827
0
LINE
8
BLACK
6
CONTINUOUS
10
672.3809999999999718
20
-299.38149999999996
11
672.3809999999999718
21
-312.38149999999996
0
LINE
8
BLACK
6
CONTINUOUS
10
343.7684999999999604
20
-199.3689999999999998
11
343.7684999999999604
21
-212.3689999999999998
0
CIRCLE
8
BLACK
10
446.3184909999999945
20
-248.7314999999999827
40
1.
0
ARC
8
BLACK
10
687.3301999999999907
20
-264.8920999999999708
40
1.2009426770574856
50
-20.21003429
51
70.71475179
0
ARC
8
BLACK
10
434.7559860000000072
20
-261.2814559999999915
40
0.4999860019360542
50
-270.00160433
51
-179.99495783
0
LINE
8
BLACK
6
CONTINUOUS
10
496.1684999999999945
20
-223.1814999999999998
11
496.1684999999999945
21
-236.1814999999999998
0
LINE
8
BLACK
6
CONTINUOUS
10
605.7060000000000173
20
-299.38149999999996
11
605.7060000000000173
21
-312.38149999999996
0
ARC
8
BLACK
10
659.7499990000000025
20
-317.2500009999999975
40
0.249999000002
50
-180.00022918
51
-89.99977082
0
LINE
8
BLACK
6
CONTINUOUS
10
418.
20
-317.5
11
418.
21
-320.
0
ARC
8
BLACK
10
449.043485999999973
20
-242.2314559999999801
40
0.4999860019360542
50
-270.00160433
51
-179.99495783
0
CIRCLE
8
BLACK
10
608.2434909999999491
20
-205.8690199999999777
40
1.
0
ARC
8
BLACK
10
510.2685060000000021
20
-223.181463999999977
40
0.4999640000360026
50
-0.00412559
51
90.00068760
0
LINE
8
BLACK
6
CONTINUOUS
10
434.2559999999999718
20
-261.2814999999999941
11
434.2559999999999718
21
-274.2814999999999941
0
LINE
8
BLACK
6
CONTINUOUS
10
501.2434999999999832
20
-212.3689999999999998
11
501.2434999999999832
21
-199.3689999999999998
0
LINE
8
BLACK
6
CONTINUOUS
10
453.1184999999999832
20
-198.8689999999999998
11
439.5184999999999604
21
-198.8689999999999998
0
ARC
8
BLACK
10
362.6310059999999567
20
-242.2314639999999883
40
0.4999640000360026
50
-0.00412559
51
90.00068760
0
ARC
8
BLACK
10
362.6308879999999704
20
-255.2314579999999751
40
0.5001120017636049
50
-89.98716862
51
-0.00481177
0
LINE
8
BLACK
6
CONTINUOUS
10
363.1309999999999718
20
-255.2314999999999827
11
363.1309999999999718
21
-242.2314999999999827
0
LINE
8
BLACK
6
CONTINUOUS
10
349.0310000000000059
20
-255.7314999999999827
11
362.6309999999999718
21
-255.7314999999999827
0
LINE
8
BLACK
6
CONTINUOUS
10
362.6309999999999718
20
-241.7314999999999827
11
349.0310000000000059
21
-241.7314999999999827
0
LINE
8
BLACK
6
CONTINUOUS
10
346.6497509999999806
20
-274.7814989999999966
11
360.2497500000000059
21
-274.7814989999999966
0
LINE
8
BLACK
6
CONTINUOUS
10
360.7497500000000059
20
-274.2814989999999966
11
360.7497500000000059
21
-261.2814989999999966
0
ARC
8
BLACK
10
346.6497509999999806
20
-261.2814999999999941
40
0.500001
50
90.00011459
51
180.00000000
0
LINE
8
BLACK
6
CONTINUOUS
10
360.2497500000000059
20
-260.7814989999999966
11
346.6497499999999832
21
-260.7814989999999966
0
LINE
8
BLACK
6
CONTINUOUS
10
678.5
20
-316.
11
659.75
21
-316.
0
ARC
8
BLACK
10
672.8811049999999341
20
-255.2314649999999858
40
0.5000350110242282
50
-179.99598958
51
-90.01203127
0
ARC
8
BLACK
10
360.2497999999999934
20
-261.2814490000000092
40
0.49995000250025
50
-0.00573015
51
90.00573015
0
ARC
8
BLACK
10
346.6497509999999806
20
-274.2814979999999991
40
0.500001
50
-179.99988541
51
-90.00000000
0
LINE
8
BLACK
6
CONTINUOUS
10
343.9999990000000025
20
-316.
11
344.4999990000000025
21
-316.
0
ARC
8
BLACK
10
458.5684860000000072
20
-223.1814559999999972
40
0.4999860019360542
50
-270.00160433
51
-179.99495783
0
ARC
8
BLACK
10
500.7433879999999817
20
-255.2314579999999751
40
0.5001120017636049
50
-89.98716862
51
-0.00481177
0
ARC
8
BLACK
10
343.4999990000000025
20
-314.0000009999999975
40
1.9999989999999999
50
-180.00002865
51
-90.00000000
0
LINE
8
BLACK
6
CONTINUOUS
10
585.0997499999999718
20
-292.0745000000000005
11
588.0997499999999718
21
-293.8064999999999714
0
ARC
8
BLACK
10
672.8811049999999341
20
-236.1814650000000029
40
0.5000350110242282
50
-179.99598958
51
-90.01203127
0
LINE
8
BLACK
6
CONTINUOUS
10
486.6434999999999604
20
-199.3689999999999998
11
486.6434999999999604
21
-212.3689999999999998
0
LINE
8
BLACK
6
CONTINUOUS
10
439.5184999999999604
20
-212.8689999999999998
11
453.1184999999999832
21
-212.8689999999999998
0
LINE
8
BLACK
6
CONTINUOUS
10
606.2060000000000173
20
-312.88149999999996
11
619.8059999999999263
21
-312.88149999999996
0
LINE
8
BLACK
6
CONTINUOUS
10
686.4809999999999945
20
-298.88149999999996
11
672.8809999999999718
21
-298.88149999999996
0
LINE
8
BLACK
6
CONTINUOUS
10
667.9309999999999263
20
-236.1814999999999998
11
667.9309999999999263
21
-223.1814999999999998
0
ARC
8
BLACK
10
395.9685059999999908
20
-199.368963999999977
40
0.4999640000360026
50
-0.00412559
51
90.00068760
0
LINE
8
BLACK
6
CONTINUOUS
10
687.
20
-196.
11
687.5
21
-196.
0
LINE
8
BLACK
6
CONTINUOUS
10
439.3309999999999604
20
-293.3315000000000055
11
439.3309999999999604
21
-280.3315000000000055
0
LINE
8
BLACK
6
CONTINUOUS
10
687.
20
-316.
11
687.5
21
-316.
0
CIRCLE
8
BLACK
10
417.7434910000000059
20
-229.6814999999999998
40
1.
0
LINE
8
BLACK
6
CONTINUOUS
10
515.2184999999999491
20
-223.1814999999999998
11
515.2184999999999491
21
-236.1814999999999998
0
ARC
8
BLACK
10
501.4311050000000023
20
-293.3314649999999801
40
0.5000350110242282
50
-179.99598958
51
-90.01203127
0
ARC
8
BLACK
10
667.4308879999999817
20
-255.2314579999999751
40
0.5001120017636049
50
-89.98716862
51
-0.00481177
0
LINE
8
BLACK
6
CONTINUOUS
10
635.5
20
-321.
11
673.5
21
-321.
0
LINE
8
BLACK
6
CONTINUOUS
10
378.9747499999999718
20
-292.0745000000000005
11
378.9747499999999718
21
-280.3564999999999827
0
LINE
8
BLACK
6
CONTINUOUS
10
659.5
20
-194.75
11
659.5
21
-195.75
0
LINE
8
BLACK
6
CONTINUOUS
10
381.8684999999999832
20
-223.1814999999999998
11
381.8684999999999832
21
-236.1814999999999998
0
CIRCLE
8
BLACK
10
343.9247499999999604
20
-267.7814999999999941
40
1.
0
LINE
8
BLACK
6
CONTINUOUS
10
457.8809999999999718
20
-279.8315000000000055
11
444.2810000000000059
21
-279.8315000000000055
0
LINE
8
BLACK
6
CONTINUOUS
10
649.25
20
-316.
11
570.3999999999999773
21
-316.
0
LINE
8
BLACK
6
CONTINUOUS
10
525.2434999999999263
20
-255.7314999999999827
11
538.8434999999999491
21
-255.7314999999999827
0
LINE
8
BLACK
6
CONTINUOUS
10
667.4309999999999263
20
-198.8689999999999998
11
653.8310000000000173
21
-198.8689999999999998
0
ARC
8
BLACK
10
673.5000009999999975
20
-193.5000009999999975
40
0.9999990000004999
50
-90.00005730
51
0.00005730
0
ARC
8
BLACK
10
348.5
20
-320.
40
2.5
50
-180.00000000
51
-0.00000000
0
CIRCLE
8
BLACK
10
460.6060099999999693
20
-205.8690199999999777
40
1.
0
ARC
8
BLACK
10
486.4560060000000021
20
-261.2814639999999713
40
0.4999640000360026
50
-0.00412559
51
90.00068760
0
LINE
8
BLACK
6
CONTINUOUS
10
344.2685009999999579
20
-236.6814999999999998
11
357.8684999999999832
21
-236.6814999999999998
0
LINE
8
BLACK
6
CONTINUOUS
10
519.7934999999999945
20
-241.7314999999999827
11
506.1934999999999718
21
-241.7314999999999827
0
ARC
8
BLACK
10
606.2061049999999796
20
-255.2314649999999858
40
0.5000350110242282
50
-179.99598958
51
-90.01203127
0
LINE
8
BLACK
6
CONTINUOUS
10
519.9809999999999945
20
-280.3315000000000055
11
519.9809999999999945
21
-293.3315000000000055
0
LINE
8
BLACK
6
CONTINUOUS
10
686.75
20
-196.
11
687.
21
-196.
0
ARC
8
BLACK
10
505.5058879999999704
20
-274.2814579999999864
40
0.5001120017636049
50
-89.98716862
51
-0.00481177
0
LINE
8
BLACK
6
CONTINUOUS
10
439.0184999999999604
20
-223.1814999999999998
11
439.0184999999999604
21
-236.1814999999999998
0
LINE
8
BLACK
6
CONTINUOUS
10
649.25
20
-317.5
11
635.5
21
-317.5
0
ARC
8
BLACK
10
553.1308880000000272
20
-293.3314579999999978
40
0.5001120017636049
50
-89.98716862
51
-0.00481177
0
LINE
8
BLACK
6
CONTINUOUS
10
605.5185000000000173
20
-198.8689999999999998
11
591.9184999999999945
21
-198.8689999999999998
0
ARC
8
BLACK
10
606.2061049999999796
20
-312.3814649999999915
40
0.5000350110242282
50
-179.99598958
51
-90.01203127
0
LINE
8
BLACK
6
CONTINUOUS
10
621.3622500000000173
20
-260.8064999999999714
11
590.3622500000000173
21
-260.8064999999999714
0
LINE
8
BLACK
6
CONTINUOUS
10
624.5684999999999718
20
-198.8689999999999998
11
610.9684999999999491
21
-198.8689999999999998
0
ARC
8
BLACK
10
572.8686050000000023
20
-212.3689650000000029
40
0.5000350110242282
50
-179.99598958
51
-90.01203127
0
ARC
8
BLACK
10
519.7933879999999363
20
-255.2314579999999751
40
0.5001120017636049
50
-89.98716862
51
-0.00481177
0
ARC
8
BLACK
10
377.6059839999999781
20
-274.2815160000000105
40
0.4999840002560081
50
-180.00183352
51
-89.99816648
0
LINE
8
BLACK
6
CONTINUOUS
10
410.7559999999999718
20
-274.2814999999999941
11
410.7559999999999718
21
-261.2814999999999941
0
ARC
8
BLACK
10
686.4810099999999693
20
-223.1814599999999871
40
0.499960000100008
50
-0.00458403
51
90.00114601
0
LINE
8
BLACK
6
CONTINUOUS
10
462.8309999999999604
20
-280.3315000000000055
11
462.8309999999999604
21
-293.3315000000000055
0
ARC
8
BLACK
10
405.4933879999999817
20
-255.2314579999999751
40
0.5001120017636049
50
-89.98716862
51
-0.00481177
0
LINE
8
BLACK
6
CONTINUOUS
10
401.2309999999999945
20
-293.3315000000000055
11
401.2309999999999945
21
-280.3315000000000055
0
LINE
8
BLACK
6
CONTINUOUS
10
524.7434999999999263
20
-199.3689999999999998
11
524.7434999999999263
21
-212.3689999999999998
0
LINE
8
BLACK
6
CONTINUOUS
10
356.5
20
-192.
11
356.5
21
-193.5
0
LINE
8
BLACK
6
CONTINUOUS
10
506.1934999999999718
20
-212.8689999999999998
11
519.7934999999999945
21
-212.8689999999999998
0
CIRCLE
8
BLACK
10
536.8060100000000148
20
-286.8315000000000055
40
1.
0
CIRCLE
8
BLACK
10
537.5
20
-192.
40
1.25
0
LINE
8
BLACK
6
CONTINUOUS
10
420.4685000000000059
20
-236.6814999999999998
11
434.0684999999999718
21
-236.6814999999999998
0
ARC
8
BLACK
10
553.1310059999999567
20
-280.3314639999999827
40
0.4999640000360026
50
-0.00412559
51
90.00068760
0
ARC
8
BLACK
10
548.3683879999999817
20
-236.1814579999999921
40
0.5001120017636049
50
-89.98716862
51
-0.00481177
0
LINE
8
BLACK
6
CONTINUOUS
10
572.3684999999999263
20
-199.3689999999999998
11
572.3684999999999263
21
-212.3689999999999998
0
ARC
8
BLACK
10
506.1934859999999503
20
-242.2314559999999801
40
0.4999860019360542
50
-270.00160433
51
-179.99495783
0
ARC
8
BLACK
10
667.4308879999999817
20
-212.3689579999999921
40
0.5001120017636049
50
-89.98716862
51
-0.00481177
0
LINE
8
BLACK
6
CONTINUOUS
10
460.8499999999999659
20
-195.75
11
460.8499999999999659
21
-194.75
0
ARC
8
BLACK
10
595.9933879999999817
20
-312.3814580000000092
40
0.5001120017636049
50
-89.98716862
51
-0.00481177
0
ARC
8
BLACK
10
673.5000009999999975
20
-318.4999990000000025
40
0.9999990000004999
50
-0.00005730
51
90.00005730
0
ARC
8
BLACK
10
572.1808879999999817
20
-293.3314579999999978
40
0.5001120017636049
50
-89.98716862
51
-0.00481177
0
LINE
8
BLACK
6
CONTINUOUS
10
648.3809999999999718
20
-298.88149999999996
11
634.7809999999999491
21
-298.88149999999996
0
ARC
8
BLACK
10
648.3810059999999567
20
-242.2314639999999883
40
0.4999640000360026
50
-0.00412559
51
90.00068760
0
ARC
8
BLACK
10
559.9000009999999747
20
-194.7499990000000025
40
0.249999000002
50
-0.00022918
51
90.00022918
0
LINE
8
BLACK
6
CONTINUOUS
10
438.8309999999999604
20
-279.8315000000000055
11
425.2309999999999945
21
-279.8315000000000055
0
ARC
8
BLACK
10
344.2685009999999579
20
-223.1815009999999972
40
0.500001
50
90.00000000
51
180.00000000
0
LINE
8
BLACK
6
CONTINUOUS
10
539.3434999999999491
20
-255.2314999999999827
11
539.3434999999999491
21
-242.2314999999999827
0
LINE
8
BLACK
6
CONTINUOUS
10
412.75
20
-194.5
11
412.75
21
-192.
0
LINE
8
BLACK
6
CONTINUOUS
10
352.5
20
-196.
11
371.25
21
-196.
0
ARC
8
BLACK
10
559.9000009999999747
20
-316.2499990000000025
40
0.249999000002
50
-0.00022918
51
90.00022918
0
LINE
8
BLACK
6
CONTINUOUS
10
543.6059999999999945
20
-260.7814999999999941
11
530.0059999999999718
21
-260.7814999999999941
0
LINE
8
BLACK
6
CONTINUOUS
10
685.25
20
-192.
11
685.25
21
-194.5
0
ARC
8
BLACK
10
381.7499990000000025
20
-194.7499990000000025
40
0.249999000002
50
-270.00022918
51
-179.99977082
0
LINE
8
BLACK
6
CONTINUOUS
10
610.9684999999999491
20
-212.8689999999999998
11
624.5684999999999718
21
-212.8689999999999998
0
LINE
8
BLACK
6
CONTINUOUS
10
443.5935000000000059
20
-241.7314999999999827
11
429.9934999999999832
21
-241.7314999999999827
0
LINE
8
BLACK
6
CONTINUOUS
10
567.4184999999999945
20
-222.6814999999999998
11
553.8184999999999718
21
-222.6814999999999998
0
ARC
8
BLACK
10
572.1810060000000249
20
-280.3314639999999827
40
0.4999640000360026
50
-0.00412559
51
90.00068760
0
ARC
8
BLACK
10
395.5000009999999975
20
-191.9999990000000025
40
0.9999990000004999
50
-0.00005730
51
90.00005730
0
ARC
8
BLACK
10
686.4808899999999312
20
-236.1814599999999871
40
0.500110001599648
50
-89.98739770
51
-0.00458265
0
ARC
8
BLACK
10
572.8686050000000023
20
-236.1814650000000029
40
0.5000350110242282
50
-179.99598958
51
-90.01203127
0
ARC
8
BLACK
10
453.1183879999999817
20
-236.1814579999999921
40
0.5001120017636049
50
-89.98716862
51
-0.00481177
0
LINE
8
BLACK
6
CONTINUOUS
10
505.6934999999999718
20
-242.2314999999999827
11
505.6934999999999718
21
-255.2314999999999827
0
ARC
8
BLACK
10
616.5997069999999667
20
-280.3565629999999942
40
0.5000630018487671
50
0.00721836
51
89.99507318
0
LINE
8
BLACK
6
CONTINUOUS
10
572.3684999999999263
20
-223.1814999999999998
11
572.3684999999999263
21
-236.1814999999999998
0
LINE
8
BLACK
6
CONTINUOUS
10
348.5310000000000059
20
-242.2314999999999827
11
348.5310000000000059
21
-255.2314999999999827
0
ARC
8
BLACK
10
362.631007000000011
20
-312.3815069999999992
40
0.4999930000490007
50
-90.00080215
51
0.00080215
0
LINE
8
BLACK
6
CONTINUOUS
10
358.3684999999999832
20
-236.1814999999999998
11
358.3684999999999832
21
-223.1814999999999998
0
LINE
8
BLACK
6
CONTINUOUS
10
344.
20
-196.
11
343.5
21
-196.0000009999999975
0
LINE
8
BLACK
6
CONTINUOUS
10
592.2685000000000173
20
-234.9244999999999948
11
595.2685000000000173
21
-236.6564999999999941
0
ARC
8
BLACK
10
405.493505999999968
20
-242.2314639999999883
40
0.4999640000360026
50
-0.00412559
51
90.00068760
0
ARC
8
BLACK
10
443.5933880000000045
20
-255.2314579999999751
40
0.5001120017636049
50
-89.98716862
51
-0.00481177
0
LINE
8
BLACK
6
CONTINUOUS
10
619.8059999999999263
20
-298.88149999999996
11
606.2060000000000173
21
-298.88149999999996
0
LINE
8
BLACK
6
CONTINUOUS
10
434.5684999999999718
20
-236.1814999999999998
11
434.5684999999999718
21
-223.1814999999999998
0
LINE
8
BLACK
6
CONTINUOUS
10
434.0618999999999801
20
-299.4314999999999714
11
434.0618999999999801
21
-312.3315000000000055
0
ARC
8
BLACK
10
673.5000009999999975
20
-320.0000009999999975
40
0.9999990000004999
50
-90.00005730
51
0.00005730
0
ARC
8
BLACK
10
525.2436050000000023
20
-255.2314649999999858
40
0.5000350110242282
50
-179.99598958
51
-90.01203127
0
LINE
8
BLACK
6
CONTINUOUS
10
563.3434999999999491
20
-255.7314999999999827
11
576.9434999999999718
21
-255.7314999999999827
0
LINE
8
BLACK
6
CONTINUOUS
10
433.5618999999999801
20
-312.8315000000000055
11
420.9618999999999573
21
-312.8315000000000055
0
ARC
8
BLACK
10
395.5000009999999975
20
-318.4999990000000025
40
0.9999990000004999
50
-0.00005730
51
90.00005730
0
LINE
8
BLACK
6
CONTINUOUS
10
486.4559999999999604
20
-260.7814999999999941
11
472.8559999999999945
21
-260.7814999999999941
0
ARC
8
BLACK
10
491.2183880000000045
20
-236.1814579999999921
40
0.5001120017636049
50
-89.98716862
51
-0.00481177
0
ARC
8
BLACK
10
667.4308879999999817
20
-312.3814580000000092
40
0.5001120017636049
50
-89.98716862
51
-0.00481177
0
LINE
8
BLACK
6
CONTINUOUS
10
686.9809999999999945
20
-236.1814999999999998
11
686.9809999999999945
21
-223.1814999999999998
0
LINE
8
BLACK
6
CONTINUOUS
10
548.3684999999999263
20
-312.3315000000000055
11
548.3684999999999263
21
-299.4314999999999714
0
ARC
8
BLACK
10
377.6060059999999794
20
-261.2815059999999789
40
0.5000060000359996
50
90.00068754
51
179.99931246
0
LINE
8
BLACK
6
CONTINUOUS
10
634.2809999999999491
20
-223.1814999999999998
11
634.2809999999999491
21
-236.1814999999999998
0
ARC
8
BLACK
10
347.4747509999999693
20
-280.3565009999999802
40
0.500001000001
50
90.00011459
51
179.99988541
0
LINE
8
BLACK
6
CONTINUOUS
10
420.2810000000000059
20
-293.3315000000000055
11
420.2810000000000059
21
-280.3315000000000055
0
ARC
8
BLACK
10
570.3999989999999798
20
-194.7499990000000025
40
0.249999000002
50
-270.00022918
51
-179.99977082
0
LINE
8
BLACK
6
CONTINUOUS
10
596.4934999999999263
20
-312.38149999999996
11
596.4934999999999263
21
-299.38149999999996
0
ARC
8
BLACK
10
371.2500009999999975
20
-195.7500009999999975
40
0.249999000002
50
-90.00022918
51
0.00022918
0
ARC
8
BLACK
10
525.2434859999999617
20
-199.3689559999999972
40
0.4999860019360542
50
-270.00160433
51
-179.99495783
0
LINE
8
BLACK
6
CONTINUOUS
10
540.
20
-320.
11
540.
21
-317.5
0
LINE
8
BLACK
6
CONTINUOUS
10
381.8684999999999832
20
-199.3689999999999998
11
381.8684999999999832
21
-212.3689999999999998
0
ARC
8
BLACK
10
396.6559859999999844
20
-261.2814559999999915
40
0.4999860019360542
50
-270.00160433
51
-179.99495783
0
LINE
8
BLACK
6
CONTINUOUS
10
348.5310000000000059
20
-299.38149999999996
11
348.5310000000000059
21
-312.38149999999996
0
ARC
8
BLACK
10
357.4999990000000025
20
-191.9999990000000025
40
0.9999990000004999
50
-270.00005730
51
-179.99994270
0
LINE
8
BLACK
6
CONTINUOUS
10
496.4809999999999945
20
-293.3315000000000055
11
496.4809999999999945
21
-280.3315000000000055
0
LINE
8
BLACK
6
CONTINUOUS
10
415.0184999999999604
20
-222.6814999999999998
11
401.4184999999999945
21
-222.6814999999999998
0
LINE
8
BLACK
6
CONTINUOUS
10
595.2685000000000173
20
-236.6564999999999941
11
621.2685000000000173
21
-236.6564999999999941
0
LINE
8
BLACK
6
CONTINUOUS
10
343.9999990000000025
20
-316.
11
343.4999990000000025
21
-316.
0
ARC
8
BLACK
10
476.9308879999999817
20
-293.3314579999999978
40
0.5001120017636049
50
-89.98716862
51
-0.00481177
0
ARC
8
BLACK
10
391.8936049999999796
20
-255.2314649999999858
40
0.5000350110242282
50
-179.99598958
51
-90.01203127
0
LINE
8
BLACK
6
CONTINUOUS
10
386.9434999999999718
20
-255.2314999999999827
11
386.9434999999999718
21
-242.2314999999999827
0
LINE
8
BLACK
6
CONTINUOUS
10
439.5184999999999604
20
-236.6814999999999998
11
453.1184999999999832
21
-236.6814999999999998
0
ARC
8
BLACK
10
548.3685060000000249
20
-223.181463999999977
40
0.4999640000360026
50
-0.00412559
51
90.00068760
0
LINE
8
BLACK
6
CONTINUOUS
10
460.8499999999999659
20
-317.25
11
460.8499999999999659
21
-316.25
0
ARC
8
BLACK
10
401.418485999999973
20
-199.3689559999999972
40
0.4999860019360542
50
-270.00160433
51
-179.99495783
0
ARC
8
BLACK
10
595.9935060000000249
20
-242.2314639999999883
40
0.4999640000360026
50
-0.00412559
51
90.00068760
0
LINE
8
BLACK
6
CONTINUOUS
10
529.3184999999999718
20
-222.6814999999999998
11
515.7184999999999491
21
-222.6814999999999998
0
ARC
8
BLACK
10
486.455887999999959
20
-274.2814579999999864
40
0.5001120017636049
50
-89.98716862
51
-0.00481177
0
LINE
8
BLACK
6
CONTINUOUS
10
341.5
20
-314.
11
341.5
21
-197.9999990000000025
0
LINE
8
BLACK
6
CONTINUOUS
10
396.5
20
-320.
11
396.5
21
-318.5
0
ARC
8
BLACK
10
534.0810060000000021
20
-280.3314639999999827
40
0.4999640000360026
50
-0.00412559
51
90.00068760
0
LINE
8
BLACK
6
CONTINUOUS
10
372.3435000000000059
20
-242.2314999999999827
11
372.3435000000000059
21
-255.2314999999999827
0
LINE
8
BLACK
6
CONTINUOUS
10
372.8435000000000059
20
-255.7314999999999827
11
386.4434999999999718
21
-255.7314999999999827
0
ARC
8
BLACK
10
515.718605000000025
20
-236.1814650000000029
40
0.5000350110242282
50
-179.99598958
51
-90.01203127
0
LINE
8
BLACK
6
CONTINUOUS
10
405.4934999999999832
20
-241.7314999999999827
11
391.8934999999999604
21
-241.7314999999999827
0
ARC
8
BLACK
10
463.3309859999999958
20
-280.3314560000000029
40
0.4999860019360542
50
-270.00160433
51
-179.99495783
0
LINE
8
BLACK
6
CONTINUOUS
10
672.3809999999999718
20
-242.2314999999999827
11
672.3809999999999718
21
-255.2314999999999827
0
ARC
8
BLACK
10
371.0000009999999975
20
-316.2499990000000025
40
0.249999000002
50
-0.00022918
51
90.00022918
0
ARC
8
BLACK
10
487.1436049999999796
20
-212.3689650000000029
40
0.5000350110242282
50
-179.99598958
51
-90.01203127
0
LINE
8
BLACK
6
CONTINUOUS
10
486.6999999999999886
20
-193.5
11
486.6999999999999886
21
-192.
0
LINE
8
BLACK
6
CONTINUOUS
10
653.3310000000000173
20
-199.3689999999999998
11
653.3310000000000173
21
-212.3689999999999998
0
LINE
8
BLACK
6
CONTINUOUS
10
448.5434999999999945
20
-242.2314999999999827
11
448.5434999999999945
21
-255.2314999999999827
0
LINE
8
BLACK
6
CONTINUOUS
10
481.8809999999999718
20
-280.3315000000000055
11
481.8809999999999718
21
-293.3315000000000055
0
LINE
8
BLACK
6
CONTINUOUS
10
400.9184999999999945
20
-199.3689999999999998
11
400.9184999999999945
21
-212.3689999999999998
0
ARC
8
BLACK
10
534.7686049999999796
20
-236.1814650000000029
40
0.5000350110242282
50
-179.99598958
51
-90.01203127
0
LINE
8
BLACK
6
CONTINUOUS
10
419.7810000000000059
20
-279.8315000000000055
11
406.1809999999999832
21
-279.8315000000000055
0
ARC
8
BLACK
10
653.8311049999999796
20
-236.1814650000000029
40
0.5000350110242282
50
-179.99598958
51
-90.01203127
0
LINE
8
BLACK
6
CONTINUOUS
10
505.6934999999999718
20
-199.3689999999999998
11
505.6934999999999718
21
-212.3689999999999998
0
ARC
8
BLACK
10
372.8434839999999895
20
-312.3815159999999764
40
0.4999840002560081
50
-180.00183352
51
-89.99816648
0
ARC
8
BLACK
10
371.0000009999999975
20
-317.2500009999999975
40
0.249999000002
50
-90.00022918
51
0.00022918
0
ARC
8
BLACK
10
453.8061050000000023
20
-274.2814649999999688
40
0.5000350110242282
50
-179.99598958
51
-90.01203127
0
LINE
8
BLACK
6
CONTINUOUS
10
572.6809999999999263
20
-312.38149999999996
11
572.6809999999999263
21
-299.38149999999996
0
ARC
8
BLACK
10
445.9999990000000025
20
-191.9999990000000025
40
0.9999990000004999
50
-270.00005730
51
-179.99994270
0
ARC
8
BLACK
10
491.9059859999999844
20
-261.2814559999999915
40
0.4999860019360542
50
-270.00160433
51
-179.99495783
0
ARC
8
BLACK
10
649.2500009999999975
20
-316.2499990000000025
40
0.249999000002
50
-0.00022918
51
90.00022918
0
LINE
8
BLACK
6
CONTINUOUS
10
443.7810000000000059
20
-280.3315000000000055
11
443.7810000000000059
21
-293.3315000000000055
0
LINE
8
BLACK
6
CONTINUOUS
10
375.9747499999999718
20
-293.8064999999999714
11
378.9747499999999718
21
-292.0745000000000005
0
LINE
8
BLACK
6
CONTINUOUS
10
686.5
20
-316.
11
687.
21
-316.
0
ARC
8
BLACK
10
487.1434859999999958
20
-242.2314559999999801
40
0.4999860019360542
50
-270.00160433
51
-179.99495783
0
ARC
8
BLACK
10
471.0999989999999684
20
-194.7499990000000025
40
0.249999000002
50
-270.00022918
51
-179.99977082
0
ARC
8
BLACK
10
570.3999989999999798
20
-316.2499990000000025
40
0.249999000002
50
-270.00022918
51
-179.99977082
0
ARC
8
BLACK
10
500.743505999999968
20
-199.368963999999977
40
0.4999640000360026
50
-0.00412559
51
90.00068760
0
ARC
8
BLACK
10
419.5000009999999975
20
-317.5000009999999975
40
1.5000010000003334
50
90.00003820
51
179.99996180
0
ARC
8
BLACK
10
376.9184849999999756
20
-223.1815149999999903
40
0.5000150002249932
50
0.00171882
51
89.99828118
0
LINE
8
BLACK
6
CONTINUOUS
10
567.6059999999999945
20
-261.2814999999999941
11
567.6059999999999945
21
-274.2814999999999941
0
LINE
8
BLACK
6
CONTINUOUS
10
486.9559999999999604
20
-274.2814999999999941
11
486.9559999999999604
21
-261.2814999999999941
0
LINE
8
BLACK
6
CONTINUOUS
10
362.6309999999999718
20
-298.88149999999996
11
349.0310000000000059
21
-298.88149999999996
0
ARC
8
BLACK
10
653.8309859999999389
20
-242.2314559999999801
40
0.4999860019360542
50
-270.00160433
51
-179.99495783
0
LINE
8
BLACK
6
CONTINUOUS
10
667.9309999999999263
20
-212.3689999999999998
11
667.9309999999999263
21
-199.3689999999999998
0
ARC
8
BLACK
10
439.5184859999999958
20
-199.3689559999999972
40
0.4999860019360542
50
-270.00160433
51
-179.99495783
0
ARC
8
BLACK
10
567.4185059999999794
20
-223.181463999999977
40
0.4999640000360026
50
-0.00412559
51
90.00068760
0
ARC
8
BLACK
10
429.9934859999999617
20
-242.2314559999999801
40
0.4999860019360542
50
-270.00160433
51
-179.99495783
0
ARC
8
BLACK
10
585.0000009999999975
20
-193.5000009999999975
40
0.9999990000004999
50
-90.00005730
51
0.00005730
0
LINE
8
BLACK
6
CONTINUOUS
10
371.5
20
-195.75
11
371.5
21
-194.75
0
LINE
8
BLACK
6
CONTINUOUS
10
470.8499999999999659
20
-316.25
11
470.8499999999999659
21
-317.25
0
LINE
8
BLACK
6
CONTINUOUS
10
558.5810000000000173
20
-312.88149999999996
11
572.1809999999999263
21
-312.88149999999996
0
ARC
8
BLACK
10
582.3934859999999389
20
-242.2314559999999801
40
0.4999860019360542
50
-270.00160433
51
-179.99495783
0
ARC
8
BLACK
10
673.5000009999999975
20
-191.9999990000000025
40
0.9999990000004999
50
-0.00005730
51
90.00005730
0
ARC
8
BLACK
10
515.0310059999999339
20
-280.3314639999999827
40
0.4999640000360026
50
-0.00412559
51
90.00068760
0
ARC
8
BLACK
10
672.8811049999999341
20
-212.3689650000000029
40
0.5000350110242282
50
-179.99598958
51
-90.01203127
0
LINE
8
BLACK
6
CONTINUOUS
10
547.8684999999999263
20
-298.9314999999999714
11
535.2685000000000173
21
-298.9314999999999714
0
LINE
8
BLACK
6
CONTINUOUS
10
595.9934999999999263
20
-241.7314999999999827
11
582.3935000000000173
21
-241.7314999999999827
0
ARC
8
BLACK
10
357.4999990000000025
20
-318.4999990000000025
40
0.9999990000004999
50
-270.00005730
51
-179.99994270
0
ARC
8
BLACK
10
487.1434859999999958
20
-199.3689559999999972
40
0.4999860019360542
50
-270.00160433
51
-179.99495783
0
LINE
8
BLACK
6
CONTINUOUS
10
446.
20
-321.
11
485.6999999999999886
21
-321.
0
ARC
8
BLACK
10
591.9184860000000299
20
-199.3689559999999972
40
0.4999860019360542
50
-270.00160433
51
-179.99495783
0
LINE
8
BLACK
6
CONTINUOUS
10
624.2685000000000173
20
-234.9244999999999948
11
624.2685000000000173
21
-223.206499999999977
0
LINE
8
BLACK
6
CONTINUOUS
10
562.8434999999999491
20
-242.2314999999999827
11
562.8434999999999491
21
-255.2314999999999827
0
ARC
8
BLACK
10
559.9000009999999747
20
-317.2500009999999975
40
0.249999000002
50
-90.00022918
51
0.00022918
0
ARC
8
BLACK
10
391.8934859999999958
20
-242.2314559999999801
40
0.4999860019360542
50
-270.00160433
51
-179.99495783
0
LINE
8
BLACK
6
CONTINUOUS
10
667.9309999999999263
20
-255.2314999999999827
11
667.9309999999999263
21
-242.2314999999999827
0
LINE
8
BLACK
6
CONTINUOUS
10
486.6999999999999886
20
-320.
11
486.6999999999999886
21
-318.5
0
ARC
8
BLACK
10
653.8311049999999796
20
-212.3689650000000029
40
0.5000350110242282
50
-179.99598958
51
-90.01203127
0
CIRCLE
8
BLACK
10
570.1434909999999263
20
-229.6814999999999998
40
1.
0
ARC
8
BLACK
10
395.9683880000000045
20
-212.3689579999999921
40
0.5001120017636049
50
-89.98716862
51
-0.00481177
0
LINE
8
BLACK
6
CONTINUOUS
10
415.0184999999999604
20
-198.8689999999999998
11
401.4184999999999945
21
-198.8689999999999998
0
ARC
8
BLACK
10
491.2183880000000045
20
-312.3814580000000092
40
0.5001120017636049
50
-89.98716862
51
-0.00481177
0
ARC
8
BLACK
10
460.6000009999999634
20
-317.2500009999999975
40
0.249999000002
50
-90.00022918
51
0.00022918
0
ARC
8
BLACK
10
448.3560059999999794
20
-261.2814639999999713
40
0.4999640000360026
50
-0.00412559
51
90.00068760
0
ARC
8
BLACK
10
495.9810059999999794
20
-280.3314639999999827
40
0.4999640000360026
50
-0.00412559
51
90.00068760
0
LINE
8
BLACK
6
CONTINUOUS
10
636.624828999999977
20
-275.6507520000000113
11
632.8079000000000178
21
-265.305831000000012
0
ARC
8
BLACK
10
362.6309850000000097
20
-299.381514999999979
40
0.5000150002249932
50
0.00171882
51
89.99828118
0
LINE
8
BLACK
6
CONTINUOUS
10
570.1499999999999773
20
-194.75
11
570.1499999999999773
21
-195.75
0
LINE
8
BLACK
6
CONTINUOUS
10
653.8310000000000173
20
-212.8689999999999998
11
667.4309999999999263
21
-212.8689999999999998
0
ARC
8
BLACK
10
453.118505999999968
20
-199.368963999999977
40
0.4999640000360026
50
-0.00412559
51
90.00068760
0
CIRCLE
8
BLACK
10
503.3903799999999933
20
-305.88149999999996
40
1.
0
ARC
8
BLACK
10
533.4999990000000025
20
-194.4999990000000025
40
1.5000010000003334
50
-89.99996180
51
-0.00003820
0
CIRCLE
8
BLACK
10
493.9434909999999945
20
-229.6814999999999998
40
1.
0
LINE
8
BLACK
6
CONTINUOUS
10
568.1059999999999945
20
-274.7814999999999941
11
581.7060000000000173
21
-274.7814999999999941
0
LINE
8
BLACK
6
CONTINUOUS
10
634.7809999999999491
20
-312.88149999999996
11
648.3809999999999718
21
-312.88149999999996
0
LINE
8
BLACK
6
CONTINUOUS
10
548.8684999999999263
20
-236.1814999999999998
11
548.8684999999999263
21
-223.1814999999999998
0
LINE
8
BLACK
6
CONTINUOUS
10
468.0935000000000059
20
-255.7314999999999827
11
481.6934999999999718
21
-255.7314999999999827
0
LINE
8
BLACK
6
CONTINUOUS
10
415.7059999999999604
20
-274.7814999999999941
11
429.3059999999999832
21
-274.7814999999999941
0
ARC
8
BLACK
10
458.5686049999999909
20
-236.1814650000000029
40
0.5000350110242282
50
-179.99598958
51
-90.01203127
0
ARC
8
BLACK
10
547.8683879999999817
20
-312.3314579999999978
40
0.5001120017636049
50
-89.98716862
51
-0.00481177
0
ARC
8
BLACK
10
363.3185059999999567
20
-223.1815059999999846
40
0.5000060000359996
50
90.00068754
51
179.99931246
0
CIRCLE
8
BLACK
10
585.6216399999999567
20
-267.7814999999999941
40
1.
0
ARC
8
BLACK
10
672.8809860000000072
20
-242.2314559999999801
40
0.4999860019360542
50
-270.00160433
51
-179.99495783
0
ARC
8
BLACK
10
496.6686049999999568
20
-236.1814650000000029
40
0.5000350110242282
50
-179.99598958
51
-90.01203127
0
LINE
8
BLACK
6
CONTINUOUS
10
463.3309999999999604
20
-293.8315000000000055
11
476.9309999999999832
21
-293.8315000000000055
0
ARC
8
BLACK
10
477.6186050000000023
20
-236.1814650000000029
40
0.5000350110242282
50
-179.99598958
51
-90.01203127
0
LINE
8
BLACK
6
CONTINUOUS
10
653.3310000000000173
20
-280.3315000000000055
11
653.3310000000000173
21
-293.3315000000000055
0
ARC
8
BLACK
10
659.7499990000000025
20
-194.7499990000000025
40
0.249999000002
50
-270.00022918
51
-179.99977082
0
ARC
8
BLACK
10
487.1436049999999796
20
-255.2314649999999858
40
0.5000350110242282
50
-179.99598958
51
-90.01203127
0
ARC
8
BLACK
10
445.9999990000000025
20
-318.4999990000000025
40
0.9999990000004999
50
-270.00005730
51
-179.99994270
0
LINE
8
BLACK
6
CONTINUOUS
10
519.7934999999999945
20
-198.8689999999999998
11
506.1934999999999718
21
-198.8689999999999998
0
ARC
8
BLACK
10
537.5
20
-320.
40
2.5
50
-180.00000000
51
-0.00000000
0
ARC
8
BLACK
10
592.7684859999999389
20
-223.2064560000000029
40
0.4999860019360542
50
-270.00160433
51
-179.99495783
0
ARC
8
BLACK
10
649.2500009999999975
20
-195.7500009999999975
40
0.249999000002
50
-90.00022918
51
0.00022918
0
LINE
8
BLACK
6
CONTINUOUS
10
545.2999999999999545
20
-194.5
11
559.8999999999999773
21
-194.5
0
ARC
8
BLACK
10
457.8808879999999704
20
-293.3314579999999978
40
0.5001120017636049
50
-89.98716862
51
-0.00481177
0
ARC
8
BLACK
10
481.6933879999999704
20
-212.3689579999999921
40
0.5001120017636049
50
-89.98716862
51
-0.00481177
0
LINE
8
BLACK
6
CONTINUOUS
10
591.4184999999999945
20
-199.3689999999999998
11
591.4184999999999945
21
-212.3689999999999998
0
LINE
8
BLACK
6
CONTINUOUS
10
610.4684999999999491
20
-199.3689999999999998
11
610.4684999999999491
21
-212.3689999999999998
0
ARC
8
BLACK
10
348.5
20
-192.
40
2.5
50
0.00000000
51
180.00000000
0
LINE
8
BLACK
6
CONTINUOUS
10
653.3310000000000173
20
-299.38149999999996
11
653.3310000000000173
21
-312.38149999999996
0
LINE
8
BLACK
6
CONTINUOUS
10
391.2059999999999604
20
-260.7814999999999941
11
377.6059999999999945
21
-260.7814999999999941
0
ARC
8
BLACK
10
559.9000009999999747
20
-195.7500009999999975
40
0.249999000002
50
-90.00022918
51
0.00022918
0
LINE
8
BLACK
6
CONTINUOUS
10
667.4309999999999263
20
-241.7314999999999827
11
653.8310000000000173
21
-241.7314999999999827
0
ARC
8
BLACK
10
538.8433880000000045
20
-212.3689579999999921
40
0.5001120017636049
50
-89.98716862
51
-0.00481177
0
ARC
8
BLACK
10
648.3810059999999567
20
-299.381463999999994
40
0.4999640000360026
50
-0.00412559
51
90.00068760
0
LINE
8
BLACK
6
CONTINUOUS
10
591.9184999999999945
20
-212.8689999999999998
11
605.5185000000000173
21
-212.8689999999999998
0
LINE
8
BLACK
6
CONTINUOUS
10
553.6309999999999718
20
-293.3315000000000055
11
553.6309999999999718
21
-280.3315000000000055
0
ARC
8
BLACK
10
396.6559859999999844
20
-299.3814560000000142
40
0.4999860019360542
50
-270.00160433
51
-179.99495783
0
ARC
8
BLACK
10
610.968605000000025
20
-212.3689650000000029
40
0.5000350110242282
50
-179.99598958
51
-90.01203127
0
ARC
8
BLACK
10
545.2999989999999571
20
-191.9999990000000025
40
0.9999990000004999
50
-270.00005730
51
-179.99994270
0
LINE
8
BLACK
6
CONTINUOUS
10
424.5434999999999945
20
-241.7314999999999827
11
410.9434999999999718
21
-241.7314999999999827
0
LINE
8
BLACK
6
CONTINUOUS
10
400.9184999999999945
20
-223.1814999999999998
11
400.9184999999999945
21
-236.1814999999999998
0
ARC
8
BLACK
10
443.5935059999999908
20
-242.2314639999999883
40
0.4999640000360026
50
-0.00412559
51
90.00068760
0
ARC
8
BLACK
10
682.5
20
-320.
40
2.5
50
-180.00000000
51
-0.00000000
0
LINE
8
BLACK
6
CONTINUOUS
10
534.7685000000000173
20
-299.4314999999999714
11
534.7685000000000173
21
-312.3315000000000055
0
LINE
8
BLACK
6
CONTINUOUS
10
419.9685000000000059
20
-223.1814999999999998
11
419.9685000000000059
21
-236.1814999999999998
0
LINE
8
BLACK
6
CONTINUOUS
10
553.3184999999999718
20
-199.3689999999999998
11
553.3184999999999718
21
-212.3689999999999998
0
LINE
8
BLACK
6
CONTINUOUS
10
653.8310000000000173
20
-312.88149999999996
11
667.4309999999999263
21
-312.88149999999996
0
ARC
8
BLACK
10
382.3684859999999617
20
-223.1814559999999972
40
0.4999860019360542
50
-270.00160433
51
-179.99495783
0
CIRCLE
8
BLACK
10
682.5
20
-192.
40
1.25
0
ARC
8
BLACK
10
659.7499990000000025
20
-195.7500009999999975
40
0.249999000002
50
-180.00022918
51
-89.99977082
0
LINE
8
BLACK
6
CONTINUOUS
10
386.9434999999999718
20
-312.38149999999996
11
386.9434999999999718
21
-299.38149999999996
0
ARC
8
BLACK
10
357.8685069999999655
20
-236.1815069999999821
40
0.4999930000490007
50
-90.00080215
51
0.00080215
0
ARC
8
BLACK
10
686.5
20
-317.5
40
1.5
50
90.00000000
51
180.00000000
0
LINE
8
BLACK
6
CONTINUOUS
10
396.4685000000000059
20
-212.3689999999999998
11
396.4685000000000059
21
-199.3689999999999998
0
LINE
8
BLACK
6
CONTINUOUS
10
515.0309999999999491
20
-279.8315000000000055
11
501.4309999999999832
21
-279.8315000000000055
0
LINE
8
BLACK
6
CONTINUOUS
10
544.2934999999999945
20
-255.7314999999999827
11
557.8935000000000173
21
-255.7314999999999827
0
LINE
8
BLACK
6
CONTINUOUS
10
449.0434999999999945
20
-255.7314999999999827
11
462.6434999999999604
21
-255.7314999999999827
0
LINE
8
BLACK
6
CONTINUOUS
10
506.0059999999999718
20
-274.2814999999999941
11
506.0059999999999718
21
-261.2814999999999941
0
ARC
8
BLACK
10
349.0309839999999895
20
-255.2315159999999992
40
0.4999840002560081
50
-180.00183352
51
-89.99816648
0
LINE
8
BLACK
6
CONTINUOUS
10
356.5
20
-318.5
11
356.5
21
-320.
0
ARC
8
BLACK
10
472.855985999999973
20
-261.2814559999999915
40
0.4999860019360542
50
-270.00160433
51
-179.99495783
0
ARC
8
BLACK
10
395.5000009999999975
20
-193.5000009999999975
40
0.9999990000004999
50
-90.00005730
51
0.00005730
0
LINE
8
BLACK
6
CONTINUOUS
10
377.4184999999999945
20
-236.1814999999999998
11
377.4184999999999945
21
-223.1814999999999998
0
LINE
8
BLACK
6
CONTINUOUS
10
500.7434999999999832
20
-198.8689999999999998
11
487.1434999999999604
21
-198.8689999999999998
0
LINE
8
BLACK
6
CONTINUOUS
10
481.6934999999999718
20
-241.7314999999999827
11
468.0935000000000059
21
-241.7314999999999827
0
ARC
8
BLACK
10
648.3810059999999567
20
-223.181463999999977
40
0.4999640000360026
50
-0.00412559
51
90.00068760
0
LINE
8
BLACK
6
CONTINUOUS
10
439.0184999999999604
20
-199.3689999999999998
11
439.0184999999999604
21
-212.3689999999999998
0
LINE
8
BLACK
6
CONTINUOUS
10
634.5
20
-192.
11
634.5
21
-193.5
0
LINE
8
BLACK
6
CONTINUOUS
10
386.4434999999999718
20
-298.88149999999996
11
372.8435000000000059
21
-298.88149999999996
0
ARC
8
BLACK
10
682.5
20
-192.
40
2.75
50
0.00000000
51
180.00000000
0
LINE
8
BLACK
6
CONTINUOUS
10
510.4559999999999604
20
-261.2814999999999941
11
510.4559999999999604
21
-274.2814999999999941
0
LINE
8
BLACK
6
CONTINUOUS
10
544.2999999999999545
20
-320.
11
544.2999999999999545
21
-318.5
0
ARC
8
BLACK
10
557.893387999999959
20
-255.2314579999999751
40
0.5001120017636049
50
-89.98716862
51
-0.00481177
0
LINE
8
BLACK
6
CONTINUOUS
10
674.5
20
-193.5
11
674.5
21
-192.
0
ARC
8
BLACK
10
541.5000009999999975
20
-194.4999990000000025
40
1.5000010000003334
50
-179.99996180
51
-90.00003820
0
ARC
8
BLACK
10
570.3999989999999798
20
-195.7500009999999975
40
0.249999000002
50
-180.00022918
51
-89.99977082
0
CIRCLE
8
BLACK
10
417.7434910000000059
20
-205.8690199999999777
40
1.
0
ARC
8
BLACK
10
529.3185059999999567
20
-223.181463999999977
40
0.4999640000360026
50
-0.00412559
51
90.00068760
0
LINE
8
BLACK
6
CONTINUOUS
10
415.2059999999999604
20
-261.2814999999999941
11
415.2059999999999604
21
-274.2814999999999941
0
LINE
8
BLACK
6
CONTINUOUS
10
477.1184999999999832
20
-299.38149999999996
11
477.1184999999999832
21
-312.38149999999996
0
LINE
8
BLACK
6
CONTINUOUS
10
460.5999999999999659
20
-317.5
11
446.
21
-317.5
0
ARC
8
BLACK
10
585.0000009999999975
20
-320.0000009999999975
40
0.9999990000004999
50
-90.00005730
51
0.00005730
0
ARC
8
BLACK
10
633.9324990000000071
20
-264.8921960000000126
40
1.198255742329658
50
-250.68574523
51
-159.80614186
0
LINE
8
BLACK
6
CONTINUOUS
10
672.8809999999999718
20
-255.7314999999999827
11
686.4809999999999945
21
-255.7314999999999827
0
ARC
8
BLACK
10
686.4810099999999693
20
-199.3689599999999871
40
0.499960000100008
50
-0.00458403
51
90.00114601
0
LINE
8
BLACK
6
CONTINUOUS
10
415.5184999999999604
20
-236.1814999999999998
11
415.5184999999999604
21
-223.1814999999999998
0
ARC
8
BLACK
10
381.7499990000000025
20
-195.7500009999999975
40
0.249999000002
50
-180.00022918
51
-89.99977082
0
ARC
8
BLACK
10
449.0436049999999568
20
-255.2314649999999858
40
0.5000350110242282
50
-179.99598958
51
-90.01203127
0
LINE
8
BLACK
6
CONTINUOUS
10
477.6184999999999832
20
-312.88149999999996
11
491.2185000000000059
21
-312.88149999999996
0
ARC
8
BLACK
10
391.2060060000000021
20
-261.2814639999999713
40
0.4999640000360026
50
-0.00412559
51
90.00068760
0
ARC
8
BLACK
10
672.8809860000000072
20
-199.3689559999999972
40
0.4999860019360542
50
-270.00160433
51
-179.99495783
0
ARC
8
BLACK
10
624.5683880000000272
20
-212.3689579999999921
40
0.5001120017636049
50
-89.98716862
51
-0.00481177
0
LINE
8
BLACK
6
CONTINUOUS
10
653.8310000000000173
20
-255.7314999999999827
11
667.4309999999999263
21
-255.7314999999999827
0
ARC
8
BLACK
10
545.2999989999999571
20
-193.5000009999999975
40
0.9999990000004999
50
-180.00005730
51
-89.99994270
0
LINE
8
BLACK
6
CONTINUOUS
10
623.7685000000000173
20
-222.706499999999977
11
592.7685000000000173
21
-222.706499999999977
0
LINE
8
BLACK
6
CONTINUOUS
10
477.6184999999999832
20
-236.6814999999999998
11
491.2185000000000059
21
-236.6814999999999998
0
ARC
8
BLACK
10
672.8811049999999341
20
-312.3814649999999915
40
0.5000350110242282
50
-179.99598958
51
-90.01203127
0
ARC
8
BLACK
10
349.0310059999999908
20
-242.231505999999996
40
0.5000060000359996
50
90.00068754
51
179.99931246
0
LINE
8
BLACK
6
CONTINUOUS
10
400.7309999999999945
20
-279.8315000000000055
11
387.1309999999999718
21
-279.8315000000000055
0
ARC
8
BLACK
10
648.3808880000000272
20
-212.3689579999999921
40
0.5001120017636049
50
-89.98716862
51
-0.00481177
0
LINE
8
BLACK
6
CONTINUOUS
10
491.7185000000000059
20
-236.1814999999999998
11
491.7185000000000059
21
-223.1814999999999998
0
ARC
8
BLACK
10
471.0999989999999684
20
-195.7500009999999975
40
0.249999000002
50
-180.00022918
51
-89.99977082
0
ARC
8
BLACK
10
482.3811049999999909
20
-293.3314649999999801
40
0.5000350110242282
50
-179.99598958
51
-90.01203127
0
LINE
8
BLACK
6
CONTINUOUS
10
544.1059999999999945
20
-274.2814999999999941
11
544.1059999999999945
21
-261.2814999999999941
0
ARC
8
BLACK
10
648.3810059999999567
20
-199.368963999999977
40
0.4999640000360026
50
-0.00412559
51
90.00068760
0
ARC
8
BLACK
10
420.4684859999999844
20
-199.3689559999999972
40
0.4999860019360542
50
-270.00160433
51
-179.99495783
0
LINE
8
BLACK
6
CONTINUOUS
10
560.1499999999999773
20
-316.25
11
560.1499999999999773
21
-317.25
0
LINE
8
BLACK
6
CONTINUOUS
10
410.2559999999999718
20
-260.7814999999999941
11
396.6560000000000059
21
-260.7814999999999941
0
CIRCLE
8
BLACK
10
682.5
20
-320.
40
1.25
0
LINE
8
BLACK
6
CONTINUOUS
10
618.8622500000000173
20
-274.75649999999996
11
621.8622500000000173
21
-273.0244999999999891
0
ARC
8
BLACK
10
411.2499990000000025
20
-194.4999990000000025
40
1.5000010000003334
50
-89.99996180
51
-0.00003820
0
ARC
8
BLACK
10
453.8059859999999617
20
-261.2814559999999915
40
0.4999860019360542
50
-270.00160433
51
-179.99495783
0
ARC
8
BLACK
10
382.3686050000000023
20
-236.1814650000000029
40
0.5000350110242282
50
-179.99598958
51
-90.01203127
0
ARC
8
BLACK
10
667.4310060000000249
20
-223.181463999999977
40
0.4999640000360026
50
-0.00412559
51
90.00068760
0
ARC
8
BLACK
10
401.4186049999999568
20
-212.3689650000000029
40
0.5000350110242282
50
-179.99598958
51
-90.01203127
0
LINE
8
BLACK
6
CONTINUOUS
10
553.1309999999999718
20
-279.8315000000000055
11
539.5309999999999491
21
-279.8315000000000055
0
ARC
8
BLACK
10
543.6060059999999794
20
-261.2814639999999713
40
0.4999640000360026
50
-0.00412559
51
90.00068760
0
LINE
8
BLACK
6
CONTINUOUS
10
485.6999999999999886
20
-191.
11
446.
21
-191.
0
LINE
8
BLACK
6
CONTINUOUS
10
472.6684999999999945
20
-236.1814999999999998
11
472.6684999999999945
21
-223.1814999999999998
0
LINE
8
BLACK
6
CONTINUOUS
10
351.
20
-192.
11
351.
21
-194.5
0
ARC
8
BLACK
10
410.2560059999999567
20
-299.381463999999994
40
0.4999640000360026
50
-0.00412559
51
90.00068760
0
ARC
8
BLACK
10
468.0936049999999682
20
-212.3689650000000029
40
0.5000350110242282
50
-179.99598958
51
-90.01203127
0
ARC
8
BLACK
10
429.306005999999968
20
-261.2814639999999713
40
0.4999640000360026
50
-0.00412559
51
90.00068760
0
ARC
8
BLACK
10
544.2936049999999568
20
-255.2314649999999858
40
0.5000350110242282
50
-179.99598958
51
-90.01203127
0
ARC
8
BLACK
10
371.2500009999999975
20
-194.7499990000000025
40
0.249999000002
50
-0.00022918
51
90.00022918
0
ARC
8
BLACK
10
438.8310060000000021
20
-280.3314639999999827
40
0.4999640000360026
50
-0.00412559
51
90.00068760
0
ARC
8
BLACK
10
686.4808899999999312
20
-312.3814600000000041
40
0.500110001599648
50
-89.98739770
51
-0.00458265
0
CIRCLE
8
BLACK
10
601.0997499999999718
20
-248.7314999999999827
40
1.
0
LINE
8
BLACK
6
CONTINUOUS
10
458.0684999999999718
20
-223.1814999999999998
11
458.0684999999999718
21
-236.1814999999999998
0
LINE
8
BLACK
6
CONTINUOUS
10
589.8622500000000173
20
-261.3064999999999714
11
589.8622500000000173
21
-273.0244999999999891
0
ARC
8
BLACK
10
585.0000009999999975
20
-318.4999990000000025
40
0.9999990000004999
50
-0.00005730
51
90.00005730
0
ARC
8
BLACK
10
543.6058879999999363
20
-274.2814579999999864
40
0.5001120017636049
50
-89.98716862
51
-0.00481177
0
ARC
8
BLACK
10
419.7808880000000045
20
-293.3314579999999978
40
0.5001120017636049
50
-89.98716862
51
-0.00481177
0
ARC
8
BLACK
10
468.0934859999999844
20
-199.3689559999999972
40
0.4999860019360542
50
-270.00160433
51
-179.99495783
0
LINE
8
BLACK
6
CONTINUOUS
10
649.5
20
-195.75
11
649.5
21
-194.75
0
ARC
8
BLACK
10
553.8184860000000072
20
-199.3689559999999972
40
0.4999860019360542
50
-270.00160433
51
-179.99495783
0
ARC
8
BLACK
10
649.2500009999999975
20
-194.7499990000000025
40
0.249999000002
50
-0.00022918
51
90.00022918
0
ARC
8
BLACK
10
634.7809859999999844
20
-199.3689559999999972
40
0.4999860019360542
50
-270.00160433
51
-179.99495783
0
LINE
8
BLACK
6
CONTINUOUS
10
467.9060000000000059
20
-274.2814999999999941
11
467.9060000000000059
21
-261.2814999999999941
0
ARC
8
BLACK
10
387.1311049999999909
20
-293.3314649999999801
40
0.5000350110242282
50
-179.99598958
51
-90.01203127
0
ARC
8
BLACK
10
501.4309859999999617
20
-280.3314560000000029
40
0.4999860019360542
50
-270.00160433
51
-179.99495783
0
LINE
8
BLACK
6
CONTINUOUS
10
445.
20
-192.
11
445.
21
-193.5
0
LINE
8
BLACK
6
CONTINUOUS
10
444.2810000000000059
20
-293.8315000000000055
11
457.8809999999999718
21
-293.8315000000000055
0
LINE
8
BLACK
6
CONTINUOUS
10
525.2434999999999263
20
-212.8689999999999998
11
538.8434999999999491
21
-212.8689999999999998
0
LINE
8
BLACK
6
CONTINUOUS
10
667.9309999999999263
20
-293.3315000000000055
11
667.9309999999999263
21
-280.3315000000000055
0
ARC
8
BLACK
10
525.2436050000000023
20
-212.3689650000000029
40
0.5000350110242282
50
-179.99598958
51
-90.01203127
0
LINE
8
BLACK
6
CONTINUOUS
10
541.5
20
-196.
11
559.8999999999999773
21
-196.
0
LINE
8
BLACK
6
CONTINUOUS
10
467.4060000000000059
20
-260.7814999999999941
11
453.8059999999999832
21
-260.7814999999999941
0
ARC
8
BLACK
10
387.1309860000000072
20
-280.3314560000000029
40
0.4999860019360542
50
-270.00160433
51
-179.99495783
0
ARC
8
BLACK
10
344.2685009999999579
20
-199.3690009999999972
40
0.500001000001
50
90.00000000
51
179.99988541
0
LINE
8
BLACK
6
CONTINUOUS
10
653.8310000000000173
20
-236.6814999999999998
11
667.4309999999999263
21
-236.6814999999999998
0
ARC
8
BLACK
10
653.8311049999999796
20
-255.2314649999999858
40
0.5000350110242282
50
-179.99598958
51
-90.01203127
0
LINE
8
BLACK
6
CONTINUOUS
10
510.7684999999999604
20
-236.1814999999999998
11
510.7684999999999604
21
-223.1814999999999998
0
ARC
8
BLACK
10
477.6184859999999617
20
-299.3814560000000142
40
0.4999860019360542
50
-270.00160433
51
-179.99495783
0
LINE
8
BLACK
6
CONTINUOUS
10
386.4434999999999718
20
-241.7314999999999827
11
372.8435000000000059
21
-241.7314999999999827
0
LINE
8
BLACK
6
CONTINUOUS
10
346.
20
-320.
11
346.
21
-317.5000009999999975
0
CIRCLE
8
BLACK
10
360.5934909999999718
20
-229.6814999999999998
40
1.
0
ARC
8
BLACK
10
535.2684859999999389
20
-299.4314559999999688
40
0.4999860019360542
50
-270.00160433
51
-179.99495783
0
LINE
8
BLACK
6
CONTINUOUS
10
634.5
20
-318.5
11
634.5
21
-320.
0
ARC
8
BLACK
10
635.4999990000000025
20
-318.4999990000000025
40
0.9999990000004999
50
-270.00005730
51
-179.99994270
0
LINE
8
BLACK
6
CONTINUOUS
10
567.4184999999999945
20
-198.8689999999999998
11
553.8184999999999718
21
-198.8689999999999998
0
LINE
8
BLACK
6
CONTINUOUS
10
625.0684999999999718
20
-212.3689999999999998
11
625.0684999999999718
21
-199.3689999999999998
0
LINE
8
BLACK
6
CONTINUOUS
10
605.7060000000000173
20
-242.2314999999999827
11
605.7060000000000173
21
-255.2314999999999827
0
ARC
8
BLACK
10
648.3808880000000272
20
-312.3814580000000092
40
0.5001120017636049
50
-89.98716862
51
-0.00481177
0
ARC
8
BLACK
10
410.2558879999999704
20
-312.3814580000000092
40
0.5001120017636049
50
-89.98716862
51
-0.00481177
0
ARC
8
BLACK
10
395.9683880000000045
20
-236.1814579999999921
40
0.5001120017636049
50
-89.98716862
51
-0.00481177
0
LINE
8
BLACK
6
CONTINUOUS
10
621.2685000000000173
20
-236.6564999999999941
11
624.2685000000000173
21
-234.9244999999999948
0
ARC
8
BLACK
10
634.7809859999999844
20
-242.2314559999999801
40
0.4999860019360542
50
-270.00160433
51
-179.99495783
0
LINE
8
BLACK
6
CONTINUOUS
10
419.75
20
-196.
11
460.5999999999999659
21
-196.
0
LINE
8
BLACK
6
CONTINUOUS
10
541.5
20
-316.
11
559.8999999999999773
21
-316.
0
LINE
8
BLACK
6
CONTINUOUS
10
434.0684999999999718
20
-198.8689999999999998
11
420.4685000000000059
21
-198.8689999999999998
0
LINE
8
BLACK
6
CONTINUOUS
10
491.4060000000000059
20
-261.2814999999999941
11
491.4060000000000059
21
-274.2814999999999941
0
ARC
8
BLACK
10
547.8685060000000249
20
-299.4314640000000054
40
0.4999640000360026
50
-0.00412559
51
90.00068760
0
ARC
8
BLACK
10
572.1808879999999817
20
-312.3814580000000092
40
0.5001120017636049
50
-89.98716862
51
-0.00481177
0
ARC
8
BLACK
10
538.8435059999999339
20
-242.2314639999999883
40
0.4999640000360026
50
-0.00412559
51
90.00068760
0
ARC
8
BLACK
10
672.8809860000000072
20
-299.3814560000000142
40
0.4999860019360542
50
-270.00160433
51
-179.99495783
0
LINE
8
BLACK
6
CONTINUOUS
10
357.8684999999999832
20
-222.6814999999999998
11
344.2685009999999579
21
-222.6814999999999998
0
ARC
8
BLACK
10
649.2500009999999975
20
-317.2500009999999975
40
0.249999000002
50
-90.00022918
51
0.00022918
0
ARC
8
BLACK
10
429.3058879999999817
20
-274.2814579999999864
40
0.5001120017636049
50
-89.98716862
51
-0.00481177
0
LINE
8
BLACK
6
CONTINUOUS
10
558.0810000000000173
20
-299.38149999999996
11
558.0810000000000173
21
-312.38149999999996
0
ARC
8
BLACK
10
683.5112030000000232
20
-275.2346190000000092
40
1.2003865312015125
50
-109.24295175
51
-20.28351778
0
ARC
8
BLACK
10
623.7685060000000021
20
-223.2064639999999827
40
0.4999640000360026
50
-0.00412559
51
90.00068760
0
ARC
8
BLACK
10
558.5809859999999389
20
-280.3314560000000029
40
0.4999860019360542
50
-270.00160433
51
-179.99495783
0
ARC
8
BLACK
10
520.4811049999999568
20
-293.3314649999999801
40
0.5000350110242282
50
-179.99598958
51
-90.01203127
0
LINE
8
BLACK
6
CONTINUOUS
10
672.8809999999999718
20
-312.88149999999996
11
686.4809999999999945
21
-312.88149999999996
0
LINE
8
BLACK
6
CONTINUOUS
10
382.3684999999999832
20
-212.8689999999999998
11
395.9685000000000059
21
-212.8689999999999998
0
ARC
8
BLACK
10
667.4308879999999817
20
-293.3314579999999978
40
0.5001120017636049
50
-89.98716862
51
-0.00481177
0
LINE
8
BLACK
6
CONTINUOUS
10
585.
20
-191.
11
545.2999999999999545
21
-191.
0
ARC
8
BLACK
10
396.6561049999999682
20
-312.3814649999999915
40
0.5000350110242282
50
-179.99598958
51
-90.01203127
0
LINE
8
BLACK
6
CONTINUOUS
10
634.2809999999999491
20
-299.38149999999996
11
634.2809999999999491
21
-312.38149999999996
0
LINE
8
BLACK
6
CONTINUOUS
10
472.8559999999999945
20
-274.7814999999999941
11
486.4559999999999604
21
-274.7814999999999941
0
CIRCLE
8
BLACK
10
415.5
20
-192.
40
1.25
0
LINE
8
BLACK
6
CONTINUOUS
10
434.7559999999999718
20
-274.7814999999999941
11
448.3559999999999945
21
-274.7814999999999941
0
ARC
8
BLACK
10
567.4183879999999363
20
-212.3689579999999921
40
0.5001120017636049
50
-89.98716862
51
-0.00481177
0
ARC
8
BLACK
10
582.3934859999999389
20
-299.3814560000000142
40
0.4999860019360542
50
-270.00160433
51
-179.99495783
0
LINE
8
BLACK
6
CONTINUOUS
10
453.6184999999999832
20
-212.3689999999999998
11
453.6184999999999832
21
-199.3689999999999998
0
ARC
8
BLACK
10
586.4683880000000045
20
-236.1814579999999921
40
0.5001120017636049
50
-89.98716862
51
-0.00481177
0
ARC
8
BLACK
10
415.0185060000000021
20
-223.181463999999977
40
0.4999640000360026
50
-0.00412559
51
90.00068760
0
ARC
8
BLACK
10
605.518387999999959
20
-212.3689579999999921
40
0.5001120017636049
50
-89.98716862
51
-0.00481177
0
LINE
8
BLACK
6
CONTINUOUS
10
413.
20
-320.
11
413.
21
-317.5
0
LINE
8
BLACK
6
CONTINUOUS
10
451.9872309999999516
20
-302.88149999999996
11
454.9872309999999516
21
-302.88149999999996
0
LINE
8
BLACK
6
CONTINUOUS
10
454.9872309999999516
20
-302.88149999999996
11
454.9872309999999516
21
-308.88149999999996
0
LINE
8
BLACK
6
CONTINUOUS
10
454.9872309999999516
20
-308.88149999999996
11
451.9872309999999516
21
-308.88149999999996
0
LINE
8
BLACK
6
CONTINUOUS
10
451.9872309999999516
20
-308.88149999999996
11
451.9872309999999516
21
-302.88149999999996
0
LINE
8
BLACK
6
CONTINUOUS
10
395.9685000000000059
20
-222.6814999999999998
11
382.3684999999999832
21
-222.6814999999999998
0
LINE
8
BLACK
6
CONTINUOUS
10
667.4309999999999263
20
-279.8315000000000055
11
653.8310000000000173
21
-279.8315000000000055
0
LINE
8
BLACK
6
CONTINUOUS
10
515.7184999999999491
20
-236.6814999999999998
11
529.3184999999999718
21
-236.6814999999999998
0
LINE
8
BLACK
6
CONTINUOUS
10
534.7685000000000173
20
-236.6814999999999998
11
548.3684999999999263
21
-236.6814999999999998
0
ARC
8
BLACK
10
572.8684859999999617
20
-223.1814559999999972
40
0.4999860019360542
50
-270.00160433
51
-179.99495783
0
ARC
8
BLACK
10
686.4808899999999312
20
-255.2314599999999984
40
0.500110001599648
50
-89.98739770
51
-0.00458265
0
ARC
8
BLACK
10
434.7561049999999909
20
-274.2814649999999688
40
0.5000350110242282
50
-179.99598958
51
-90.01203127
0
LINE
8
BLACK
6
CONTINUOUS
10
349.9747499999999718
20
-293.8064999999999714
11
375.9747499999999718
21
-293.8064999999999714
0
LINE
8
BLACK
6
CONTINUOUS
10
648.8809999999999718
20
-236.1814999999999998
11
648.8809999999999718
21
-223.1814999999999998
0
LINE
8
BLACK
6
CONTINUOUS
10
648.8809999999999718
20
-255.2314999999999827
11
648.8809999999999718
21
-242.2314999999999827
0
ARC
8
BLACK
10
357.4999990000000025
20
-320.0000009999999975
40
0.9999990000004999
50
-180.00005730
51
-89.99994270
0
LINE
8
BLACK
6
CONTINUOUS
10
401.4184999999999945
20
-212.8689999999999998
11
415.0184999999999604
21
-212.8689999999999998
0
LINE
8
BLACK
6
CONTINUOUS
10
396.4685000000000059
20
-236.1814999999999998
11
396.4685000000000059
21
-223.1814999999999998
0
ARC
8
BLACK
10
415.5
20
-192.
40
2.75
50
0.00000000
51
180.00000000
0
ARC
8
BLACK
10
415.5
20
-320.
40
2.5
50
-180.00000000
51
-0.00000000
0
ARC
8
BLACK
10
463.3311049999999796
20
-293.3314649999999801
40
0.5000350110242282
50
-179.99598958
51
-90.01203127
0
CIRCLE
8
BLACK
10
366.6966400000000021
20
-305.88149999999996
40
1.
0
LINE
8
BLACK
6
CONTINUOUS
10
396.6560000000000059
20
-312.88149999999996
11
410.2559999999999718
21
-312.88149999999996
0
ARC
8
BLACK
10
568.1059860000000299
20
-261.2814559999999915
40
0.4999860019360542
50
-270.00160433
51
-179.99495783
0
ARC
8
BLACK
10
468.0934859999999844
20
-242.2314559999999801
40
0.4999860019360542
50
-270.00160433
51
-179.99495783
0
LINE
8
BLACK
6
CONTINUOUS
10
544.2999999999999545
20
-192.
11
544.2999999999999545
21
-193.5
0
LINE
8
BLACK
6
CONTINUOUS
10
538.8434999999999491
20
-241.7314999999999827
11
525.2434999999999263
21
-241.7314999999999827
0
LINE
8
BLACK
6
CONTINUOUS
10
545.2999999999999545
20
-317.5
11
559.8999999999999773
21
-317.5
0
LINE
8
BLACK
6
CONTINUOUS
10
386.6309999999999718
20
-280.3315000000000055
11
386.6309999999999718
21
-293.3315000000000055
0
ARC
8
BLACK
10
563.3434859999999844
20
-242.2314559999999801
40
0.4999860019360542
50
-270.00160433
51
-179.99495783
0
LINE
8
BLACK
6
CONTINUOUS
10
448.8559999999999945
20
-274.2814999999999941
11
448.8559999999999945
21
-261.2814999999999941
0
LINE
8
BLACK
6
CONTINUOUS
10
553.8184999999999718
20
-212.8689999999999998
11
567.4184999999999945
21
-212.8689999999999998
0
LINE
8
BLACK
6
CONTINUOUS
10
606.2060000000000173
20
-255.7314999999999827
11
619.8059999999999263
21
-255.7314999999999827
0
LINE
8
BLACK
6
CONTINUOUS
10
648.8809999999999718
20
-312.38149999999996
11
648.8809999999999718
21
-299.38149999999996
0
ARC
8
BLACK
10
530.0059860000000072
20
-261.2814559999999915
40
0.4999860019360542
50
-270.00160433
51
-179.99495783
0
CIRCLE
8
BLACK
10
679.6810100000000148
20
-286.8315000000000055
40
1.
0
LINE
8
BLACK
6
CONTINUOUS
10
362.8184999999999718
20
-223.1814999999999998
11
362.8184999999999718
21
-236.1814999999999998
0
ARC
8
BLACK
10
515.7184859999999844
20
-223.1814559999999972
40
0.4999860019360542
50
-270.00160433
51
-179.99495783
0
LINE
8
BLACK
6
CONTINUOUS
10
525.0559999999999263
20
-274.2814999999999941
11
525.0559999999999263
21
-261.2814999999999941
0
ARC
8
BLACK
10
585.0000009999999975
20
-191.9999990000000025
40
0.9999990000004999
50
-0.00005730
51
90.00005730
0
ARC
8
BLACK
10
386.4435059999999567
20
-242.2314639999999883
40
0.4999640000360026
50
-0.00412559
51
90.00068760
0
LINE
8
BLACK
6
CONTINUOUS
10
635.5
20
-194.5
11
649.25
21
-194.5
0
LINE
8
BLACK
6
CONTINUOUS
10
395.5
20
-191.
11
357.5
21
-191.
0
LINE
8
BLACK
6
CONTINUOUS
10
572.8684999999999263
20
-236.6814999999999998
11
586.4684999999999491
21
-236.6814999999999998
0
LINE
8
BLACK
6
CONTINUOUS
10
535.
20
-320.
11
535.
21
-317.5
0
ARC
8
BLACK
10
453.118505999999968
20
-223.181463999999977
40
0.4999640000360026
50
-0.00412559
51
90.00068760
0
LINE
8
BLACK
6
CONTINUOUS
10
524.7434999999999263
20
-242.2314999999999827
11
524.7434999999999263
21
-255.2314999999999827
0
LINE
8
BLACK
6
CONTINUOUS
10
659.75
20
-196.
11
678.25
21
-196.
0
LINE
8
BLACK
6
CONTINUOUS
10
371.
20
-317.5
11
357.5
21
-317.5
0
LINE
8
BLACK
6
CONTINUOUS
10
487.1434999999999604
20
-212.8689999999999998
11
500.7434999999999832
21
-212.8689999999999998
0
LINE
8
BLACK
6
CONTINUOUS
10
346.
20
-194.4999990000000025
11
346.
21
-192.
0
LINE
8
BLACK
6
CONTINUOUS
10
491.9060000000000059
20
-274.7814999999999941
11
505.5059999999999718
21
-274.7814999999999941
0
ARC
8
BLACK
10
467.4060059999999908
20
-261.2814639999999713
40
0.4999640000360026
50
-0.00412559
51
90.00068760
0
ARC
8
BLACK
10
477.6184859999999617
20
-223.1814559999999972
40
0.4999860019360542
50
-270.00160433
51
-179.99495783
0
ARC
8
BLACK
10
419.7500009999999975
20
-194.4999990000000025
40
1.5000010000003334
50
-179.99996180
51
-90.00003820
0
LINE
8
BLACK
6
CONTINUOUS
10
462.6434999999999604
20
-241.7314999999999827
11
449.0434999999999945
21
-241.7314999999999827
0
LINE
8
BLACK
6
CONTINUOUS
10
553.8184999999999718
20
-236.6814999999999998
11
567.4184999999999945
21
-236.6814999999999998
0
LINE
8
BLACK
6
CONTINUOUS
10
482.3809999999999718
20
-293.8315000000000055
11
495.9809999999999945
21
-293.8315000000000055
0
CIRCLE
8
BLACK
10
393.9310099999999579
20
-267.7814999999999941
40
1.
0
LINE
8
BLACK
6
CONTINUOUS
10
501.2434999999999832
20
-255.2314999999999827
11
501.2434999999999832
21
-242.2314999999999827
0
LINE
8
BLACK
6
CONTINUOUS
10
429.4934999999999832
20
-242.2314999999999827
11
429.4934999999999832
21
-255.2314999999999827
0
LINE
8
BLACK
6
CONTINUOUS
10
576.9434999999999718
20
-241.7314999999999827
11
563.3434999999999491
21
-241.7314999999999827
0
LINE
8
BLACK
6
CONTINUOUS
10
453.1184999999999832
20
-222.6814999999999998
11
439.5184999999999604
21
-222.6814999999999998
0
ARC
8
BLACK
10
363.3184839999999554
20
-236.1815159999999878
40
0.4999840002560081
50
-180.00183352
51
-89.99816648
0
ARC
8
BLACK
10
472.8561049999999568
20
-274.2814649999999688
40
0.5000350110242282
50
-179.99598958
51
-90.01203127
0
LINE
8
BLACK
6
CONTINUOUS
10
372.8435000000000059
20
-312.88149999999996
11
386.4434999999999718
21
-312.88149999999996
0
ARC
8
BLACK
10
491.9061049999999682
20
-274.2814649999999688
40
0.5000350110242282
50
-179.99598958
51
-90.01203127
0
LINE
8
BLACK
6
CONTINUOUS
10
562.6559999999999491
20
-260.7814999999999941
11
549.0559999999999263
21
-260.7814999999999941
0
LINE
8
BLACK
6
CONTINUOUS
10
487.1434999999999604
20
-255.7314999999999827
11
500.7434999999999832
21
-255.7314999999999827
0
LINE
8
BLACK
6
CONTINUOUS
10
621.8622500000000173
20
-273.0244999999999891
11
621.8622500000000173
21
-261.3064999999999714
0
ARC
8
BLACK
10
553.8186049999999341
20
-236.1814650000000029
40
0.5000350110242282
50
-179.99598958
51
-90.01203127
0
ARC
8
BLACK
10
434.0685059999999567
20
-223.181463999999977
40
0.4999640000360026
50
-0.00412559
51
90.00068760
0
LINE
8
BLACK
6
CONTINUOUS
10
425.0434999999999945
20
-255.2314999999999827
11
425.0434999999999945
21
-242.2314999999999827
0
ARC
8
BLACK
10
462.643387999999959
20
-255.2314579999999751
40
0.5001120017636049
50
-89.98716862
51
-0.00481177
0
LINE
8
BLACK
6
CONTINUOUS
10
572.8684999999999263
20
-212.8689999999999998
11
586.4684999999999491
21
-212.8689999999999998
0
LINE
8
BLACK
6
CONTINUOUS
10
567.9184999999999945
20
-212.3689999999999998
11
567.9184999999999945
21
-199.3689999999999998
0
ARC
8
BLACK
10
686.4810099999999693
20
-242.2314599999999984
40
0.499960000100008
50
-0.00458403
51
90.00114601
0
LINE
8
BLACK
6
CONTINUOUS
10
614.0997499999999718
20
-293.8064999999999714
11
617.0997499999999718
21
-292.0745000000000005
0
ARC
8
BLACK
10
570.3999989999999798
20
-317.2500009999999975
40
0.249999000002
50
-180.00022918
51
-89.99977082
0
LINE
8
BLACK
6
CONTINUOUS
10
391.8934999999999604
20
-255.7314999999999827
11
405.4934999999999832
21
-255.7314999999999827
0
ARC
8
BLACK
10
585.5996860000000197
20
-280.3563560000000052
40
0.4999360207386541
50
-270.00733480
51
-179.98349670
0
LINE
8
BLACK
6
CONTINUOUS
10
357.5
20
-321.
11
395.5
21
-321.
0
LINE
8
BLACK
6
CONTINUOUS
10
680.
20
-320.
11
680.
21
-317.5
0
LINE
8
BLACK
6
CONTINUOUS
10
471.0999999999999659
20
-196.
11
533.5
21
-196.
0
LINE
8
BLACK
6
CONTINUOUS
10
672.8809999999999718
20
-212.8689999999999998
11
686.4809999999999945
21
-212.8689999999999998
0
ARC
8
BLACK
10
485.7000009999999861
20
-193.5000009999999975
40
0.9999990000004999
50
-90.00005730
51
0.00005730
0
LINE
8
BLACK
6
CONTINUOUS
10
429.3059999999999832
20
-260.7814999999999941
11
415.7059999999999604
21
-260.7814999999999941
0
ARC
8
BLACK
10
635.4999990000000025
20
-191.9999990000000025
40
0.9999990000004999
50
-270.00005730
51
-179.99994270
0
LINE
8
BLACK
6
CONTINUOUS
10
495.9809999999999945
20
-279.8315000000000055
11
482.3809999999999718
21
-279.8315000000000055
0
LINE
8
BLACK
6
CONTINUOUS
10
506.1934999999999718
20
-255.7314999999999827
11
519.7934999999999945
21
-255.7314999999999827
0
LINE
8
BLACK
6
CONTINUOUS
10
377.1059999999999945
20
-261.2814999999999941
11
377.1059999999999945
21
-274.2814999999999941
0
ARC
8
BLACK
10
349.0310010000000034
20
-299.3815010000000143
40
0.500001000001
50
90.00011459
51
179.99988541
0
LINE
8
BLACK
6
CONTINUOUS
10
558.0810000000000173
20
-280.3315000000000055
11
558.0810000000000173
21
-293.3315000000000055
0
LINE
8
BLACK
6
CONTINUOUS
10
381.75
20
-316.
11
411.5
21
-316.
0
LINE
8
BLACK
6
CONTINUOUS
10
476.9309999999999832
20
-279.8315000000000055
11
463.3309999999999604
21
-279.8315000000000055
0
LINE
8
BLACK
6
CONTINUOUS
10
634.2809999999999491
20
-199.3689999999999998
11
634.2809999999999491
21
-212.3689999999999998
0
ARC
8
BLACK
10
495.9808879999999931
20
-293.3314579999999978
40
0.5001120017636049
50
-89.98716862
51
-0.00481177
0
LINE
8
BLACK
6
CONTINUOUS
10
648.3809999999999718
20
-198.8689999999999998
11
634.7809999999999491
21
-198.8689999999999998
0
LINE
8
BLACK
6
CONTINUOUS
10
406.1809999999999832
20
-293.8315000000000055
11
419.7810000000000059
21
-293.8315000000000055
0
LINE
8
BLACK
6
CONTINUOUS
10
387.1309999999999718
20
-293.8315000000000055
11
400.7309999999999945
21
-293.8315000000000055
0
ARC
8
BLACK
10
420.9618859999999927
20
-299.4314559999999688
40
0.4999860019360542
50
-270.00160433
51
-179.99495783
0
ARC
8
BLACK
10
686.75
20
-194.5
40
1.5
50
-180.00000000
51
-90.00000000
0
ARC
8
BLACK
10
420.4686049999999682
20
-212.3689650000000029
40
0.5000350110242282
50
-179.99598958
51
-90.01203127
0
ARC
8
BLACK
10
595.9935060000000249
20
-299.381463999999994
40
0.4999640000360026
50
-0.00412559
51
90.00068760
0
ARC
8
BLACK
10
406.1809859999999617
20
-280.3314560000000029
40
0.4999860019360542
50
-270.00160433
51
-179.99495783
0
LINE
8
BLACK
6
CONTINUOUS
10
634.7809999999999491
20
-236.6814999999999998
11
648.3809999999999718
21
-236.6814999999999998
0
LINE
8
BLACK
6
CONTINUOUS
10
653.3310000000000173
20
-242.2314999999999827
11
653.3310000000000173
21
-255.2314999999999827
0
LINE
8
BLACK
6
CONTINUOUS
10
344.
20
-196.
11
344.4999990000000025
21
-196.
0
CIRCLE
8
BLACK
10
383.2153799999999819
20
-286.8315000000000055
40
1.
0
CIRCLE
8
BLACK
10
422.5060100000000034
20
-286.8315000000000055
40
1.
0
ARC
8
BLACK
10
635.4999990000000025
20
-320.0000009999999975
40
0.9999990000004999
50
-180.00005730
51
-89.99994270
0
ARC
8
BLACK
10
395.9685059999999908
20
-223.181463999999977
40
0.4999640000360026
50
-0.00412559
51
90.00068760
0
ARC
8
BLACK
10
415.7061049999999796
20
-274.2814649999999688
40
0.5000350110242282
50
-179.99598958
51
-90.01203127
0
LINE
8
BLACK
6
CONTINUOUS
10
558.3935000000000173
20
-255.2314999999999827
11
558.3935000000000173
21
-242.2314999999999827
0
LINE
8
BLACK
6
CONTINUOUS
10
419.5
20
-316.
11
460.5999999999999659
21
-316.
0
ARC
8
BLACK
10
357.8685069999999655
20
-212.3690069999999821
40
0.4999930000490007
50
-90.00080215
51
0.00080215
0
ARC
8
BLACK
10
520.4809860000000299
20
-280.3314560000000029
40
0.4999860019360542
50
-270.00160433
51
-179.99495783
0
LINE
8
BLACK
6
CONTINUOUS
10
382.3684999999999832
20
-236.6814999999999998
11
395.9685000000000059
21
-236.6814999999999998
0
ARC
8
BLACK
10
619.8058879999999817
20
-312.3814580000000092
40
0.5001120017636049
50
-89.98716862
51
-0.00481177
0
CIRCLE
8
BLACK
10
670.1560099999999238
20
-205.8690199999999777
40
1.
0
ARC
8
BLACK
10
537.5
20
-192.
40
2.5
50
0.00000000
51
180.00000000
0
LINE
8
BLACK
6
CONTINUOUS
10
520.2934999999999945
20
-212.3689999999999998
11
520.2934999999999945
21
-199.3689999999999998
0
ARC
8
BLACK
10
634.781105000000025
20
-312.3814649999999915
40
0.5000350110242282
50
-179.99598958
51
-90.01203127
0
LINE
8
BLACK
6
CONTINUOUS
10
395.5
20
-317.5
11
381.75
21
-317.5
0
ARC
8
BLACK
10
562.6560059999999339
20
-261.2814639999999713
40
0.4999640000360026
50
-0.00412559
51
90.00068760
0
ARC
8
BLACK
10
506.1936049999999909
20
-255.2314649999999858
40
0.5000350110242282
50
-179.99598958
51
-90.01203127
0
LINE
8
BLACK
6
CONTINUOUS
10
570.3999999999999773
20
-196.
11
649.25
21
-196.
0
CIRCLE
8
BLACK
10
628.4841199999999617
20
-229.6814999999999998
40
1.
0
ARC
8
BLACK
10
595.9933879999999817
20
-255.2314579999999751
40
0.5001120017636049
50
-89.98716862
51
-0.00481177
0
ARC
8
BLACK
10
686.4808899999999312
20
-212.3689599999999871
40
0.500110001599648
50
-89.98739770
51
-0.00458265
0
ARC
8
BLACK
10
424.5433879999999931
20
-255.2314579999999751
40
0.5001120017636049
50
-89.98716862
51
-0.00481177
0
ARC
8
BLACK
10
519.7935059999999794
20
-242.2314639999999883
40
0.4999640000360026
50
-0.00412559
51
90.00068760
0
ARC
8
BLACK
10
467.4058880000000045
20
-274.2814579999999864
40
0.5001120017636049
50
-89.98716862
51
-0.00481177
0
ARC
8
BLACK
10
445.9999990000000025
20
-320.0000009999999975
40
0.9999990000004999
50
-180.00005730
51
-89.99994270
0
ARC
8
BLACK
10
619.8058879999999817
20
-255.2314579999999751
40
0.5001120017636049
50
-89.98716862
51
-0.00481177
0
CIRCLE
8
BLACK
10
415.5
20
-320.
40
1.25
0
ARC
8
BLACK
10
453.1183879999999817
20
-212.3689579999999921
40
0.5001120017636049
50
-89.98716862
51
-0.00481177
0
LINE
8
BLACK
6
CONTINUOUS
10
429.9934999999999832
20
-255.7314999999999827
11
443.5935000000000059
21
-255.7314999999999827
0
LINE
8
BLACK
6
CONTINUOUS
10
582.2060000000000173
20
-274.2814999999999941
11
582.2060000000000173
21
-261.2814999999999941
0
ARC
8
BLACK
10
648.3808880000000272
20
-236.1814579999999921
40
0.5001120017636049
50
-89.98716862
51
-0.00481177
0
LINE
8
BLACK
6
CONTINUOUS
10
491.2185000000000059
20
-298.88149999999996
11
477.6184999999999832
21
-298.88149999999996
0
ARC
8
BLACK
10
567.4185059999999794
20
-199.368963999999977
40
0.4999640000360026
50
-0.00412559
51
90.00068760
0
LINE
8
BLACK
6
CONTINUOUS
10
684.6371520000000146
20
-275.6507520000000113
11
688.4540809999999738
21
-265.305831000000012
0
LINE
8
BLACK
6
CONTINUOUS
10
659.5
20
-316.25
11
659.5
21
-317.25
0
ARC
8
BLACK
10
434.0683879999999704
20
-236.1814579999999921
40
0.5001120017636049
50
-89.98716862
51
-0.00481177
0
LINE
8
BLACK
6
CONTINUOUS
10
592.8622500000000173
20
-274.75649999999996
11
618.8622500000000173
21
-274.75649999999996
0
ARC
8
BLACK
10
344.4999990000000025
20
-194.4999990000000025
40
1.5000009999999999
50
-90.00000000
51
-0.00000000
0
ARC
8
BLACK
10
687.5
20
-198.
40
2.
50
0.00000000
51
90.00000000
0
ARC
8
BLACK
10
505.5060059999999567
20
-261.2814639999999713
40
0.4999640000360026
50
-0.00412559
51
90.00068760
0
ARC
8
BLACK
10
619.8060060000000249
20
-242.2314639999999883
40
0.4999640000360026
50
-0.00412559
51
90.00068760
0
LINE
8
BLACK
6
CONTINUOUS
10
620.3059999999999263
20
-255.2314999999999827
11
620.3059999999999263
21
-242.2314999999999827
0
ARC
8
BLACK
10
687.5
20
-314.
40
2.
50
-90.00000000
51
-0.00000000
0
LINE
8
BLACK
6
CONTINUOUS
10
672.8809999999999718
20
-236.6814999999999998
11
686.4809999999999945
21
-236.6814999999999998
0
ARC
8
BLACK
10
382.3684859999999617
20
-199.3689559999999972
40
0.4999860019360542
50
-270.00160433
51
-179.99495783
0
ARC
8
BLACK
10
396.6561049999999682
20
-274.2814649999999688
40
0.5000350110242282
50
-179.99598958
51
-90.01203127
0
ARC
8
BLACK
10
382.3686050000000023
20
-212.3689650000000029
40
0.5000350110242282
50
-179.99598958
51
-90.01203127
0
ARC
8
BLACK
10
410.2558879999999704
20
-274.2814579999999864
40
0.5001120017636049
50
-89.98716862
51
-0.00481177
0
CIRCLE
8
BLACK
10
503.4684909999999718
20
-205.8690199999999777
40
1.
0
ARC
8
BLACK
10
572.8684859999999617
20
-199.3689559999999972
40
0.4999860019360542
50
-270.00160433
51
-179.99495783
0
ARC
8
BLACK
10
357.8684849999999642
20
-199.3690149999999903
40
0.5000150002249932
50
0.00171882
51
89.99828118
0
ARC
8
BLACK
10
519.7933879999999363
20
-212.3689579999999921
40
0.5001120017636049
50
-89.98716862
51
-0.00481177
0
ARC
8
BLACK
10
400.7310059999999794
20
-280.3314639999999827
40
0.4999640000360026
50
-0.00412559
51
90.00068760
0
LINE
8
BLACK
6
CONTINUOUS
10
586.9684999999999491
20
-212.3689999999999998
11
586.9684999999999491
21
-199.3689999999999998
0
ARC
8
BLACK
10
381.7499990000000025
20
-316.2499990000000025
40
0.249999000002
50
-270.00022918
51
-179.99977082
0
LINE
8
BLACK
6
CONTINUOUS
10
538.8434999999999491
20
-198.8689999999999998
11
525.2434999999999263
21
-198.8689999999999998
0
LINE
8
BLACK
6
CONTINUOUS
10
381.5
20
-194.75
11
381.5
21
-195.75
0
ARC
8
BLACK
10
415.7059859999999958
20
-261.2814559999999915
40
0.4999860019360542
50
-270.00160433
51
-179.99495783
0
CIRCLE
8
BLACK
10
546.331009999999992
20
-205.8690199999999777
40
1.
0
ARC
8
BLACK
10
468.0936049999999682
20
-255.2314649999999858
40
0.5000350110242282
50
-179.99598958
51
-90.01203127
0
LINE
8
BLACK
6
CONTINUOUS
10
418.25
20
-192.
11
418.25
21
-194.5
0
ARC
8
BLACK
10
605.5185060000000021
20
-199.368963999999977
40
0.4999640000360026
50
-0.00412559
51
90.00068760
0
CIRCLE
8
BLACK
10
348.5
20
-320.
40
1.25
0
LINE
8
BLACK
6
CONTINUOUS
10
557.8935000000000173
20
-241.7314999999999827
11
544.2934999999999945
21
-241.7314999999999827
0
ARC
8
BLACK
10
581.705887999999959
20
-274.2814579999999864
40
0.5001120017636049
50
-89.98716862
51
-0.00481177
0
ARC
8
BLACK
10
434.0683879999999704
20
-212.3689579999999921
40
0.5001120017636049
50
-89.98716862
51
-0.00481177
0
LINE
8
BLACK
6
CONTINUOUS
10
648.8809999999999718
20
-212.3689999999999998
11
648.8809999999999718
21
-199.3689999999999998
0
ARC
8
BLACK
10
637.7513950000000023
20
-275.2345229999999674
40
1.2005424593257832
50
-159.72232330
51
-70.78637359
0
LINE
8
BLACK
6
CONTINUOUS
10
391.7059999999999604
20
-274.2814999999999941
11
391.7059999999999604
21
-261.2814999999999941
0
ARC
8
BLACK
10
545.2999989999999571
20
-318.4999990000000025
40
0.9999990000004999
50
-270.00005730
51
-179.99994270
0
ARC
8
BLACK
10
538.8435059999999339
20
-199.368963999999977
40
0.4999640000360026
50
-0.00412559
51
90.00068760
0
ARC
8
BLACK
10
352.5000009999999975
20
-194.4999990000000025
40
1.5000010000003334
50
-179.99996180
51
-90.00003820
0
ARC
8
BLACK
10
391.205887999999959
20
-274.2814579999999864
40
0.5001120017636049
50
-89.98716862
51
-0.00481177
0
ARC
8
BLACK
10
667.4310060000000249
20
-299.381463999999994
40
0.4999640000360026
50
-0.00412559
51
90.00068760
0
LINE
8
BLACK
6
CONTINUOUS
10
560.1499999999999773
20
-195.75
11
560.1499999999999773
21
-194.75
0
LINE
8
BLACK
6
CONTINUOUS
10
420.4685000000000059
20
-212.8689999999999998
11
434.0684999999999718
21
-212.8689999999999998
0
LINE
8
BLACK
6
CONTINUOUS
10
659.75
20
-194.5
11
673.5
21
-194.5
0
LINE
8
BLACK
6
CONTINUOUS
10
543.7934999999999945
20
-242.2314999999999827
11
543.7934999999999945
21
-255.2314999999999827
0
LINE
8
BLACK
6
CONTINUOUS
10
477.4309999999999832
20
-293.3315000000000055
11
477.4309999999999832
21
-280.3315000000000055
0
LINE
8
BLACK
6
CONTINUOUS
10
491.7185000000000059
20
-312.38149999999996
11
491.7185000000000059
21
-299.38149999999996
0
ARC
8
BLACK
10
343.4999990000000025
20
-197.9999990000000025
40
1.9999989999999999
50
89.99997135
51
180.00000000
0
LINE
8
BLACK
6
CONTINUOUS
10
376.9184999999999945
20
-222.6814999999999998
11
363.3184999999999718
21
-222.6814999999999998
0
LINE
8
BLACK
6
CONTINUOUS
10
619.8059999999999263
20
-241.7314999999999827
11
606.2060000000000173
21
-241.7314999999999827
0
CIRCLE
8
BLACK
10
670.1560099999999238
20
-305.88149999999996
40
1.
0
ARC
8
BLACK
10
534.080887999999959
20
-293.3314579999999978
40
0.5001120017636049
50
-89.98716862
51
-0.00481177
0
LINE
8
BLACK
6
CONTINUOUS
10
396.6560000000000059
20
-274.7814999999999941
11
410.2559999999999718
21
-274.7814999999999941
0
ARC
8
BLACK
10
471.0999989999999684
20
-317.2500009999999975
40
0.249999000002
50
-180.00022918
51
-89.99977082
0
ARC
8
BLACK
10
448.3558879999999931
20
-274.2814579999999864
40
0.5001120017636049
50
-89.98716862
51
-0.00481177
0
LINE
8
BLACK
6
CONTINUOUS
10
596.4934999999999263
20
-255.2314999999999827
11
596.4934999999999263
21
-242.2314999999999827
0
CIRCLE
8
BLACK
10
621.3403799999999819
20
-286.8315000000000055
40
1.
0
ARC
8
BLACK
10
549.0559859999999617
20
-261.2814559999999915
40
0.4999860019360542
50
-270.00160433
51
-179.99495783
0
LINE
8
BLACK
6
CONTINUOUS
10
606.0185000000000173
20
-212.3689999999999998
11
606.0185000000000173
21
-199.3689999999999998
0
ARC
8
BLACK
10
606.2059859999999389
20
-242.2314559999999801
40
0.4999860019360542
50
-270.00160433
51
-179.99495783
0
LINE
8
BLACK
6
CONTINUOUS
10
357.8684999999999832
20
-198.8689999999999998
11
344.2685009999999579
21
-198.8689999999999998
0
ARC
8
BLACK
10
439.5184859999999958
20
-223.1814559999999972
40
0.4999860019360542
50
-270.00160433
51
-179.99495783
0
ARC
8
BLACK
10
653.8309859999999389
20
-223.1814559999999972
40
0.4999860019360542
50
-270.00160433
51
-179.99495783
0
ARC
8
BLACK
10
376.9185069999999769
20
-236.1815069999999821
40
0.4999930000490007
50
-90.00080215
51
0.00080215
0
ARC
8
BLACK
10
381.7499990000000025
20
-317.2500009999999975
40
0.249999000002
50
-180.00022918
51
-89.99977082
0
LINE
8
BLACK
6
CONTINUOUS
10
572.1809999999999263
20
-298.88149999999996
11
558.5810000000000173
21
-298.88149999999996
0
LINE
8
BLACK
6
CONTINUOUS
10
539.5309999999999491
20
-293.8315000000000055
11
553.1309999999999718
21
-293.8315000000000055
0
ARC
8
BLACK
10
672.8809860000000072
20
-223.1814559999999972
40
0.4999860019360542
50
-270.00160433
51
-179.99495783
0
LINE
8
BLACK
6
CONTINUOUS
10
467.5935000000000059
20
-242.2314999999999827
11
467.5935000000000059
21
-255.2314999999999827
0
CIRCLE
8
BLACK
10
351.0684909999999945
20
-217.7752789999999834
40
1.
0
LINE
8
BLACK
6
CONTINUOUS
10
381.75
20
-194.5
11
395.5
21
-194.5
0
CIRCLE
8
BLACK
10
370.1184910000000059
20
-205.8690199999999777
40
1.
0
LINE
8
BLACK
6
CONTINUOUS
10
470.8499999999999659
20
-194.75
11
470.8499999999999659
21
-195.75
0
LINE
8
BLACK
6
CONTINUOUS
10
589.8622500000000173
20
-273.0244999999999891
11
592.8622500000000173
21
-274.75649999999996
0
ARC
8
BLACK
10
541.5000009999999975
20
-317.5000009999999975
40
1.5000010000003334
50
90.00003820
51
179.99996180
0
LINE
8
BLACK
6
CONTINUOUS
10
616.5997499999999718
20
-279.8564999999999827
11
585.5997499999999718
21
-279.8564999999999827
0
LINE
8
BLACK
6
CONTINUOUS
10
672.3809999999999718
20
-199.3689999999999998
11
672.3809999999999718
21
-212.3689999999999998
0
ARC
8
BLACK
10
563.343605000000025
20
-255.2314649999999858
40
0.5000350110242282
50
-179.99598958
51
-90.01203127
0
ARC
8
BLACK
10
415.018387999999959
20
-212.3689579999999921
40
0.5001120017636049
50
-89.98716862
51
-0.00481177
0
LINE
8
BLACK
6
CONTINUOUS
10
410.9434999999999718
20
-255.7314999999999827
11
424.5434999999999945
21
-255.7314999999999827
0
LINE
8
BLACK
6
CONTINUOUS
10
429.8059999999999832
20
-274.2814999999999941
11
429.8059999999999832
21
-261.2814999999999941
0
LINE
8
BLACK
6
CONTINUOUS
10
581.8935000000000173
20
-299.38149999999996
11
581.8935000000000173
21
-312.38149999999996
0
LINE
8
BLACK
6
CONTINUOUS
10
396.5
20
-193.5
11
396.5
21
-192.
0
CIRCLE
8
BLACK
10
554.6653800000000274
20
-305.88149999999996
40
1.
0
ARC
8
BLACK
10
491.2185059999999908
20
-223.181463999999977
40
0.4999640000360026
50
-0.00412559
51
90.00068760
0
ARC
8
BLACK
10
667.4310060000000249
20
-199.368963999999977
40
0.4999640000360026
50
-0.00412559
51
90.00068760
0
ARC
8
BLACK
10
582.3936049999999796
20
-255.2314649999999858
40
0.5000350110242282
50
-179.99598958
51
-90.01203127
0
ARC
8
BLACK
10
352.5000009999999975
20
-317.5000009999999975
40
1.5000010000003334
50
90.00003820
51
179.99996180
0
LINE
8
BLACK
6
CONTINUOUS
10
420.9618999999999573
20
-298.9314999999999714
11
433.5618999999999801
21
-298.9314999999999714
0
LINE
8
BLACK
6
CONTINUOUS
10
378.4747499999999718
20
-279.8564999999999827
11
347.4747499999999718
21
-279.8564999999999827
0
ARC
8
BLACK
10
411.4999990000000025
20
-317.5000009999999975
40
1.5000010000003334
50
0.00003820
51
89.99996180
0
ARC
8
BLACK
10
534.7684859999999389
20
-223.1814559999999972
40
0.4999860019360542
50
-270.00160433
51
-179.99495783
0
LINE
8
BLACK
6
CONTINUOUS
10
649.5
20
-317.25
11
649.5
21
-316.25
0
LINE
8
BLACK
6
CONTINUOUS
10
673.5
20
-191.
11
635.5
21
-191.
0
ARC
8
BLACK
10
535.2686049999999796
20
-312.3314649999999801
40
0.5000350110242282
50
-179.99598958
51
-90.01203127
0
LINE
8
BLACK
6
CONTINUOUS
10
648.3809999999999718
20
-241.7314999999999827
11
634.7809999999999491
21
-241.7314999999999827
0
LINE
8
BLACK
6
CONTINUOUS
10
501.4309999999999832
20
-293.8315000000000055
11
515.0309999999999491
21
-293.8315000000000055
0
ARC
8
BLACK
10
433.5619059999999649
20
-299.4314640000000054
40
0.4999640000360026
50
-0.00412559
51
90.00068760
0
ARC
8
BLACK
10
529.3183880000000272
20
-236.1814579999999921
40
0.5001120017636049
50
-89.98716862
51
-0.00481177
0
ARC
8
BLACK
10
439.5186049999999796
20
-212.3689650000000029
40
0.5000350110242282
50
-179.99598958
51
-90.01203127
0
ARC
8
BLACK
10
634.781105000000025
20
-212.3689650000000029
40
0.5000350110242282
50
-179.99598958
51
-90.01203127
0
ARC
8
BLACK
10
619.8060060000000249
20
-299.381463999999994
40
0.4999640000360026
50
-0.00412559
51
90.00068760
0
LINE
8
BLACK
6
CONTINUOUS
10
634.2809999999999491
20
-242.2314999999999827
11
634.2809999999999491
21
-255.2314999999999827
0
LINE
8
BLACK
6
CONTINUOUS
10
535.
20
-194.5
11
535.
21
-192.
0
ARC
8
BLACK
10
485.7000009999999861
20
-191.9999990000000025
40
0.9999990000004999
50
-0.00005730
51
90.00005730
0
ARC
8
BLACK
10
438.830887999999959
20
-293.3314579999999978
40
0.5001120017636049
50
-89.98716862
51
-0.00481177
0
LINE
8
BLACK
6
CONTINUOUS
10
634.7809999999999491
20
-212.8689999999999998
11
648.3809999999999718
21
-212.8689999999999998
0
LINE
8
BLACK
6
CONTINUOUS
10
463.1434999999999604
20
-255.2314999999999827
11
463.1434999999999604
21
-242.2314999999999827
0
CIRCLE
8
BLACK
10
412.9810099999999693
20
-305.88149999999996
40
1.
0
ARC
8
BLACK
10
500.743505999999968
20
-242.2314639999999883
40
0.4999640000360026
50
-0.00412559
51
90.00068760
0
LINE
8
BLACK
6
CONTINUOUS
10
570.3999999999999773
20
-317.5
11
585.
21
-317.5
0
ARC
8
BLACK
10
667.4310060000000249
20
-280.3314639999999827
40
0.4999640000360026
50
-0.00412559
51
90.00068760
0
LINE
8
BLACK
6
CONTINUOUS
10
471.0999999999999659
20
-194.5
11
485.6999999999999886
21
-194.5
0
LINE
8
BLACK
6
CONTINUOUS
10
581.8935000000000173
20
-242.2314999999999827
11
581.8935000000000173
21
-255.2314999999999827
0
ARC
8
BLACK
10
424.5435059999999794
20
-242.2314639999999883
40
0.4999640000360026
50
-0.00412559
51
90.00068760
0
LINE
8
BLACK
6
CONTINUOUS
10
548.3684999999999263
20
-222.6814999999999998
11
534.7685000000000173
21
-222.6814999999999998
0
ARC
8
BLACK
10
510.9561049999999796
20
-274.2814649999999688
40
0.5000350110242282
50
-179.99598958
51
-90.01203127
0
LINE
8
BLACK
6
CONTINUOUS
10
491.2185000000000059
20
-222.6814999999999998
11
477.6184999999999832
21
-222.6814999999999998
0
ARC
8
BLACK
10
410.2560059999999567
20
-261.2814639999999713
40
0.4999640000360026
50
-0.00412559
51
90.00068760
0
LINE
8
BLACK
6
CONTINUOUS
10
674.5
20
-320.
11
674.5
21
-318.5
0
ARC
8
BLACK
10
538.8433880000000045
20
-255.2314579999999751
40
0.5001120017636049
50
-89.98716862
51
-0.00481177
0
ARC
8
BLACK
10
660.6308510000000069
20
-340.7134599999999978
40
68.160547163742109
50
70.73867276
51
109.26110632
0
LINE
8
BLACK
6
CONTINUOUS
10
472.3559999999999945
20
-261.2814999999999941
11
472.3559999999999945
21
-274.2814999999999941
0
ARC
8
BLACK
10
400.7308879999999931
20
-293.3314579999999978
40
0.5001120017636049
50
-89.98716862
51
-0.00481177
0
LINE
8
BLACK
6
CONTINUOUS
10
391.3934999999999604
20
-242.2314999999999827
11
391.3934999999999604
21
-255.2314999999999827
0
LINE
8
BLACK
6
CONTINUOUS
10
553.3184999999999718
20
-223.1814999999999998
11
553.3184999999999718
21
-236.1814999999999998
0
LINE
8
BLACK
6
CONTINUOUS
10
572.6809999999999263
20
-293.3315000000000055
11
572.6809999999999263
21
-280.3315000000000055
0
ARC
8
BLACK
10
634.781105000000025
20
-255.2314649999999858
40
0.5000350110242282
50
-179.99598958
51
-90.01203127
0
ARC
8
BLACK
10
357.4999990000000025
20
-193.5000009999999975
40
0.9999990000004999
50
-180.00005730
51
-89.99994270
0
LINE
8
BLACK
6
CONTINUOUS
10
567.9184999999999945
20
-236.1814999999999998
11
567.9184999999999945
21
-223.1814999999999998
0
LINE
8
BLACK
6
CONTINUOUS
10
410.7559999999999718
20
-312.38149999999996
11
410.7559999999999718
21
-299.38149999999996
0
LINE
8
BLACK
6
CONTINUOUS
10
686.9809999999999945
20
-255.2314999999999827
11
686.9809999999999945
21
-242.2314999999999827
0
LINE
8
BLACK
6
CONTINUOUS
10
424.7309999999999945
20
-280.3315000000000055
11
424.7309999999999945
21
-293.3315000000000055
0
ARC
8
BLACK
10
576.9435059999999567
20
-242.2314639999999883
40
0.4999640000360026
50
-0.00412559
51
90.00068760
0
LINE
8
BLACK
6
CONTINUOUS
10
371.
20
-316.
11
352.5
21
-316.
0
ARC
8
BLACK
10
572.1810060000000249
20
-299.381463999999994
40
0.4999640000360026
50
-0.00412559
51
90.00068760
0
ARC
8
BLACK
10
434.0685059999999567
20
-199.368963999999977
40
0.4999640000360026
50
-0.00412559
51
90.00068760
0
LINE
8
BLACK
6
CONTINUOUS
10
592.2685000000000173
20
-223.206499999999977
11
592.2685000000000173
21
-234.9244999999999948
0
LINE
8
BLACK
6
CONTINUOUS
10
486.6434999999999604
20
-242.2314999999999827
11
486.6434999999999604
21
-255.2314999999999827
0
LINE
8
BLACK
6
CONTINUOUS
10
558.5810000000000173
20
-293.8315000000000055
11
572.1809999999999263
21
-293.8315000000000055
0
LINE
8
BLACK
6
CONTINUOUS
10
481.6934999999999718
20
-198.8689999999999998
11
468.0935000000000059
21
-198.8689999999999998
0
LINE
8
BLACK
6
CONTINUOUS
10
529.8184999999999718
20
-236.1814999999999998
11
529.8184999999999718
21
-223.1814999999999998
0
LINE
8
BLACK
6
CONTINUOUS
10
372.3435000000000059
20
-299.38149999999996
11
372.3435000000000059
21
-312.38149999999996
0
ARC
8
BLACK
10
524.5560060000000249
20
-261.2814639999999713
40
0.4999640000360026
50
-0.00412559
51
90.00068760
0
ARC
8
BLACK
10
372.8435059999999908
20
-242.231505999999996
40
0.5000060000359996
50
90.00068754
51
179.99931246
0
ARC
8
BLACK
10
444.2811049999999682
20
-293.3314649999999801
40
0.5000350110242282
50
-179.99598958
51
-90.01203127
0
LINE
8
BLACK
6
CONTINUOUS
10
458.5684999999999718
20
-236.6814999999999998
11
472.1684999999999945
21
-236.6814999999999998
0
LINE
8
BLACK
6
CONTINUOUS
10
667.4309999999999263
20
-298.88149999999996
11
653.8310000000000173
21
-298.88149999999996
0
LINE
8
BLACK
6
CONTINUOUS
10
549.0559999999999263
20
-274.7814999999999941
11
562.6559999999999491
21
-274.7814999999999941
0
ARC
8
BLACK
10
496.668485999999973
20
-223.1814559999999972
40
0.4999860019360542
50
-270.00160433
51
-179.99495783
0
LINE
8
BLACK
6
CONTINUOUS
10
500.9309999999999832
20
-280.3315000000000055
11
500.9309999999999832
21
-293.3315000000000055
0
ARC
8
BLACK
10
420.4684859999999844
20
-223.1814559999999972
40
0.4999860019360542
50
-270.00160433
51
-179.99495783
0
LINE
8
BLACK
6
CONTINUOUS
10
570.1499999999999773
20
-317.25
11
570.1499999999999773
21
-316.25
0
LINE
8
BLACK
6
CONTINUOUS
10
534.5810000000000173
20
-293.3315000000000055
11
534.5810000000000173
21
-280.3315000000000055
0
LINE
8
BLACK
6
CONTINUOUS
10
419.9685000000000059
20
-199.3689999999999998
11
419.9685000000000059
21
-212.3689999999999998
0
LINE
8
BLACK
6
CONTINUOUS
10
539.0309999999999491
20
-280.3315000000000055
11
539.0309999999999491
21
-293.3315000000000055
0
LINE
8
BLACK
6
CONTINUOUS
10
346.1497499999999832
20
-261.2814999999999941
11
346.1497499999999832
21
-274.2814989999999966
0
ARC
8
BLACK
10
660.6310099999999466
20
-340.7137989999999945
40
81.58611800543909
50
70.60291138
51
109.39708862
0
ARC
8
BLACK
10
545.2999989999999571
20
-320.0000009999999975
40
0.9999990000004999
50
-180.00005730
51
-89.99994270
0
ARC
8
BLACK
10
586.4685059999999339
20
-223.181463999999977
40
0.4999640000360026
50
-0.00412559
51
90.00068760
0
LINE
8
BLACK
6
CONTINUOUS
10
496.6684999999999945
20
-236.6814999999999998
11
510.2684999999999604
21
-236.6814999999999998
0
LINE
8
BLACK
6
CONTINUOUS
10
351.
20
-317.5
11
351.
21
-320.
0
ARC
8
BLACK
10
406.1811050000000023
20
-293.3314649999999801
40
0.5000350110242282
50
-179.99598958
51
-90.01203127
0
LINE
8
BLACK
6
CONTINUOUS
10
548.5559999999999263
20
-261.2814999999999941
11
548.5559999999999263
21
-274.2814999999999941
0
ARC
8
BLACK
10
401.4186049999999568
20
-236.1814650000000029
40
0.5000350110242282
50
-179.99598958
51
-90.01203127
0
LINE
8
BLACK
6
CONTINUOUS
10
410.4434999999999718
20
-242.2314999999999827
11
410.4434999999999718
21
-255.2314999999999827
0
ARC
8
BLACK
10
344.2685009999999579
20
-212.3689990000000023
40
0.500001
50
-179.99988541
51
-90.00000000
0
LINE
8
BLACK
6
CONTINUOUS
10
410.2559999999999718
20
-298.88149999999996
11
396.6560000000000059
21
-298.88149999999996
0
LINE
8
BLACK
6
CONTINUOUS
10
648.3809999999999718
20
-222.6814999999999998
11
634.7809999999999491
21
-222.6814999999999998
0
LINE
8
BLACK
6
CONTINUOUS
10
582.3935000000000173
20
-312.88149999999996
11
595.9934999999999263
21
-312.88149999999996
0
ARC
8
BLACK
10
410.9434860000000072
20
-242.2314559999999801
40
0.4999860019360542
50
-270.00160433
51
-179.99495783
0
ARC
8
BLACK
10
462.6435060000000021
20
-242.2314639999999883
40
0.4999640000360026
50
-0.00412559
51
90.00068760
0
ARC
8
BLACK
10
372.8435059999999908
20
-299.3815060000000017
40
0.5000060000359996
50
90.00068754
51
179.99931246
0
LINE
8
BLACK
6
CONTINUOUS
10
679.75
20
-194.5
11
679.75
21
-192.
0
LINE
8
BLACK
6
CONTINUOUS
10
458.3809999999999718
20
-293.3315000000000055
11
458.3809999999999718
21
-280.3315000000000055
0
ARC
8
BLACK
10
582.3936049999999796
20
-312.3814649999999915
40
0.5000350110242282
50
-179.99598958
51
-90.01203127
0
ARC
8
BLACK
10
519.7935059999999794
20
-199.368963999999977
40
0.4999640000360026
50
-0.00412559
51
90.00068760
0
ARC
8
BLACK
10
372.8434839999999895
20
-255.2315159999999992
40
0.4999840002560081
50
-180.00183352
51
-89.99816648
0
LINE
8
BLACK
6
CONTINUOUS
10
344.2685009999999579
20
-212.8689999999999998
11
357.8684999999999832
21
-212.8689999999999998
0
ARC
8
BLACK
10
586.4685059999999339
20
-199.368963999999977
40
0.4999640000360026
50
-0.00412559
51
90.00068760
0
ARC
8
BLACK
10
415.0185060000000021
20
-199.368963999999977
40
0.4999640000360026
50
-0.00412559
51
90.00068760
0
ARC
8
BLACK
10
481.6935059999999567
20
-242.2314639999999883
40
0.4999640000360026
50
-0.00412559
51
90.00068760
0
LINE
8
BLACK
6
CONTINUOUS
10
586.
20
-193.5
11
586.
21
-192.
0
ARC
8
BLACK
10
485.7000009999999861
20
-320.0000009999999975
40
0.9999990000004999
50
-90.00005730
51
0.00005730
0
ARC
8
BLACK
10
634.7809859999999844
20
-299.3814560000000142
40
0.4999860019360542
50
-270.00160433
51
-179.99495783
0
LINE
8
BLACK
6
CONTINUOUS
10
346.9747499999999718
20
-292.0745000000000005
11
349.9747499999999718
21
-293.8064999999999714
0
ARC
8
BLACK
10
576.9433880000000272
20
-255.2314579999999751
40
0.5001120017636049
50
-89.98716862
51
-0.00481177
0
LINE
8
BLACK
6
CONTINUOUS
10
453.8059999999999832
20
-274.7814999999999941
11
467.4060000000000059
21
-274.7814999999999941
0
LINE
8
BLACK
6
CONTINUOUS
10
346.9747499999999718
20
-280.3564999999999827
11
346.9747499999999718
21
-292.0745000000000005
0
ARC
8
BLACK
10
653.8311049999999796
20
-293.3314649999999801
40
0.5000350110242282
50
-179.99598958
51
-90.01203127
0
ARC
8
BLACK
10
621.3622070000000122
20
-261.3065629999999828
40
0.5000630018487671
50
0.00721836
51
89.99507318
0
ARC
8
BLACK
10
558.5811049999999796
20
-312.3814649999999915
40
0.5000350110242282
50
-179.99598958
51
-90.01203127
0
LINE
8
BLACK
6
CONTINUOUS
10
653.3310000000000173
20
-223.1814999999999998
11
653.3310000000000173
21
-236.1814999999999998
0
LINE
8
BLACK
6
CONTINUOUS
10
586.9684999999999491
20
-236.1814999999999998
11
586.9684999999999491
21
-223.1814999999999998
0
ARC
8
BLACK
10
360.2497229999999604
20
-274.2814679999999612
40
0.5000270009609481
50
-89.99690619
51
-0.00355215
0
LINE
8
BLACK
6
CONTINUOUS
10
582.3935000000000173
20
-255.7314999999999827
11
595.9934999999999263
21
-255.7314999999999827
0
LINE
8
BLACK
6
CONTINUOUS
10
467.5935000000000059
20
-199.3689999999999998
11
467.5935000000000059
21
-212.3689999999999998
0
ARC
8
BLACK
10
648.3808880000000272
20
-255.2314579999999751
40
0.5001120017636049
50
-89.98716862
51
-0.00481177
0
ARC
8
BLACK
10
433.5617879999999786
20
-312.3314579999999978
40
0.5001120017636049
50
-89.98716862
51
-0.00481177
0
ARC
8
BLACK
10
460.6000009999999634
20
-195.7500009999999975
40
0.249999000002
50
-90.00022918
51
0.00022918
0
LINE
8
BLACK
6
CONTINUOUS
10
686.9809999999999945
20
-312.38149999999996
11
686.9809999999999945
21
-299.38149999999996
0
LINE
8
BLACK
6
CONTINUOUS
10
563.1559999999999491
20
-274.2814999999999941
11
563.1559999999999491
21
-261.2814999999999941
0
ARC
8
BLACK
10
445.9999990000000025
20
-193.5000009999999975
40
0.9999990000004999
50
-180.00005730
51
-89.99994270
0
LINE
8
BLACK
6
CONTINUOUS
10
381.5
20
-316.25
11
381.5
21
-317.25
0
LINE
8
BLACK
6
CONTINUOUS
10
500.7434999999999832
20
-241.7314999999999827
11
487.1434999999999604
21
-241.7314999999999827
0
LINE
8
BLACK
6
CONTINUOUS
10
667.4309999999999263
20
-222.6814999999999998
11
653.8310000000000173
21
-222.6814999999999998
0
ARC
8
BLACK
10
624.5685059999999567
20
-199.368963999999977
40
0.4999640000360026
50
-0.00412559
51
90.00068760
0
ARC
8
BLACK
10
415.018387999999959
20
-236.1814579999999921
40
0.5001120017636049
50
-89.98716862
51
-0.00481177
0
LINE
8
BLACK
6
CONTINUOUS
10
434.0684999999999718
20
-222.6814999999999998
11
420.4685000000000059
21
-222.6814999999999998
0
ARC
8
BLACK
10
491.2185059999999908
20
-299.381463999999994
40
0.4999640000360026
50
-0.00412559
51
90.00068760
0
ARC
8
BLACK
10
472.1685059999999794
20
-223.181463999999977
40
0.4999640000360026
50
-0.00412559
51
90.00068760
0
ARC
8
BLACK
10
349.0310010000000034
20
-312.3814989999999625
40
0.500001000001
50
-179.99988541
51
-90.00011459
0
ARC
8
BLACK
10
476.931005999999968
20
-280.3314639999999827
40
0.4999640000360026
50
-0.00412559
51
90.00068760
0
ARC
8
BLACK
10
562.6558880000000045
20
-274.2814579999999864
40
0.5001120017636049
50
-89.98716862
51
-0.00481177
0
LINE
8
BLACK
6
CONTINUOUS
10
477.1184999999999832
20
-223.1814999999999998
11
477.1184999999999832
21
-236.1814999999999998
0
LINE
8
BLACK
6
CONTINUOUS
10
343.7684999999999604
20
-223.1815009999999972
11
343.7684999999999604
21
-236.1814999999999998
0
CIRCLE
8
BLACK
10
462.9872309999999516
20
-305.88149999999996
40
1.
0
LINE
8
BLACK
6
CONTINUOUS
10
672.3809999999999718
20
-223.1814999999999998
11
672.3809999999999718
21
-236.1814999999999998
0
ARC
8
BLACK
10
420.9620049999999765
20
-312.3314649999999801
40
0.5000350110242282
50
-179.99598958
51
-90.01203127
0
ARC
8
BLACK
10
500.7433879999999817
20
-212.3689579999999921
40
0.5001120017636049
50
-89.98716862
51
-0.00481177
0
ARC
8
BLACK
10
506.1936049999999909
20
-212.3689650000000029
40
0.5000350110242282
50
-179.99598958
51
-90.01203127
0
ARC
8
BLACK
10
395.5000009999999975
20
-320.0000009999999975
40
0.9999990000004999
50
-90.00005730
51
0.00005730
0
LINE
8
BLACK
6
CONTINUOUS
10
446.
20
-194.5
11
460.5999999999999659
21
-194.5
0
LINE
8
BLACK
6
CONTINUOUS
10
396.1560000000000059
20
-261.2814999999999941
11
396.1560000000000059
21
-274.2814999999999941
0
LINE
8
BLACK
6
CONTINUOUS
10
540.
20
-192.
11
540.
21
-194.5
0
LINE
8
BLACK
6
CONTINUOUS
10
685.
20
-317.5
11
685.
21
-320.
0
LINE
8
BLACK
6
CONTINUOUS
10
588.0997499999999718
20
-293.8064999999999714
11
614.0997499999999718
21
-293.8064999999999714
0
LINE
8
BLACK
6
CONTINUOUS
10
425.2309999999999945
20
-293.8315000000000055
11
438.8309999999999604
21
-293.8315000000000055
0
ARC
8
BLACK
10
386.4433879999999704
20
-312.3814580000000092
40
0.5001120017636049
50
-89.98716862
51
-0.00481177
0
CIRCLE
8
BLACK
10
670.1560099999999238
20
-248.7314999999999827
40
1.
0
LINE
8
BLACK
6
CONTINUOUS
10
401.4184999999999945
20
-236.6814999999999998
11
415.0184999999999604
21
-236.6814999999999998
0
ARC
8
BLACK
10
524.5558879999999817
20
-274.2814579999999864
40
0.5001120017636049
50
-89.98716862
51
-0.00481177
0
LINE
8
BLACK
6
CONTINUOUS
10
405.9934999999999832
20
-255.2314999999999827
11
405.9934999999999832
21
-242.2314999999999827
0
LINE
8
BLACK
6
CONTINUOUS
10
448.3559999999999945
20
-260.7814999999999941
11
434.7559999999999718
21
-260.7814999999999941
  0
ENDSEC
  0
EOF
