  0
SECTION
  2
HEADER
  9
$ANGBASE
  50
0.0
  9
$ANGDIR
  70
1
  9
$MEASUREMENT
  70
1
  0
ENDSEC
  0
SECTION
  2
TABLES
  0
TABLE
  2
LTYPE
  70
4
  0
LTYPE
  5
40F
  2
CONTINUOUS
  70
0
  3
Solid line
  72
65
  73
0
  40
0.0
  0
LTYPE
  5
410
  2
DASHDOT
 70
0
  3
Dash Dot ____ _ ____ _
 72
65
 73
4
 40
2.0
 49
1.25
 49
-0.25
 49
0.25
 49
-0.25
  0
LTYPE
  5
411
  2
DASHED
 70
0
  3
Dashed __ __ __ __ __
 72
65
 73
2
 40
0.75
 49
0.5
 49
-0.25
  0
LTYPE
  5
43B
  2
DOTTED
 70
0
  3
Dotted .  .  .  .
 72
65
 73
2
 40
0.2
 49
0.0
 49
-0.2
  0
ENDTAB
  0
TABLE
  2
STYLE
  70
4
  0
STYLE
  2
KICAD
  70
0
  40
0
  41
1
  42
1
  50
0
  71
0
  3
isocp.shx
  0
STYLE
  2
KICADB
  70
0
  40
0
  41
1
  42
1
  50
0
  71
0
  3
isocp.shx
  0
STYLE
  2
KICADI
  70
0
  40
0
  41
1
  42
1
  50
15
  71
0
  3
isocp.shx
  0
STYLE
  2
KICADBI
  70
0
  40
0
  41
1
  42
1
  50
15
  71
0
  3
isocp.shx
  0
ENDTAB
  0
TABLE
  2
LAYER
  70
1
  0
LAYER
  2
BLACK
  70
0
  62
7
  6
CONTINUOUS
  0
ENDTAB
  0
ENDSEC
  0
SECTION
  2
ENTITIES
0
ARC
8
BLACK
10
71.6894999999999953
20
-138.25
40
2.0749940000195179
50
-0.00016568
51
90.00024851
0
ARC
8
BLACK
10
237.3519999999999754
20
-62.0499999999999972
40
2.0750090000086745
50
-269.99975149
51
-179.99983433
0
ARC
8
BLACK
10
81.214500000000001
20
-119.1999999999999886
40
2.0749940000195179
50
-0.00016568
51
90.00024851
0
ARC
8
BLACK
10
42.089500000000001
20
-100.1499999999999915
40
2.0750090000086745
50
-269.99975149
51
-179.99983433
0
ARC
8
BLACK
10
213.5395000000000039
20
-100.1499999999999915
40
2.0750090000086745
50
-269.99975149
51
-179.99983433
0
ARC
8
BLACK
10
51.6144999999999996
20
-119.1999999999999886
40
2.0750090000086745
50
-269.99975149
51
-179.99983433
0
LINE
8
BLACK
6
CONTINUOUS
10
201.9394910000000039
20
-119.2000059999999877
11
201.9394910000000039
21
-129.1500059999999905
0
LINE
8
BLACK
6
CONTINUOUS
10
95.5019909999999896
20
-74.0750060000000019
11
84.9519909999999925
21
-74.0750060000000019
0
ARC
8
BLACK
10
38.3519999999999968
20
-62.0499999999999972
40
2.0749940000195179
50
-0.00016568
51
90.00024851
0
LINE
8
BLACK
6
CONTINUOUS
10
200.2769909999999811
20
-93.1250059999999991
11
189.7269909999999982
21
-93.1250059999999991
0
LINE
8
BLACK
6
CONTINUOUS
10
233.6144909999999868
20
-136.1750059999999962
11
223.0644910000000039
21
-136.1750059999999962
0
LINE
8
BLACK
6
CONTINUOUS
10
202.3519909999999982
20
-81.1000059999999934
11
202.3519909999999982
21
-91.0500059999999962
0
LINE
8
BLACK
6
CONTINUOUS
10
59.0644909999999967
20
-100.1500059999999905
11
59.0644909999999967
21
-110.1000059999999934
0
ARC
8
BLACK
10
281.2394999999999641
20
-81.0999999999999943
40
2.0749940000195179
50
-0.00016568
51
90.00024851
0
LINE
8
BLACK
6
CONTINUOUS
10
11.4394919999999995
20
-81.1000049999999959
11
11.4394919999999995
21
-91.0500069999999937
0
ARC
8
BLACK
10
166.9394999999999811
20
-110.0999999999999943
40
2.0749910000086746
50
-90.00024851
51
-0.00016568
0
LINE
8
BLACK
6
CONTINUOUS
10
283.4709809999999948
20
-109.8004459999999938
11
283.0669409999999857
21
-109.8004459999999938
0
ARC
8
BLACK
10
57.4019999999999939
20
-62.0499999999999972
40
2.0749940000195179
50
-0.00016568
51
90.00024851
0
ARC
8
BLACK
10
208.7769999999999868
20
-91.0499999999999972
40
2.0750060000195178
50
-179.99983433
51
-90.00024851
0
ARC
8
BLACK
10
279.6961000000000013
20
-110.2620999999999896
40
1.8748547978435557
50
-90.00180305
51
-20.54300782
0
ARC
8
BLACK
10
127.8144999999999953
20
-119.1999999999999886
40
2.0750090000086745
50
-269.99975149
51
-179.99983433
0
ARC
8
BLACK
10
137.3394999999999868
20
-100.1499999999999915
40
2.0750090000086745
50
-269.99975149
51
-179.99983433
0
ARC
8
BLACK
10
195.5144999999999982
20
-129.1500000000000057
40
2.0749910000086746
50
-90.00024851
51
-0.00016568
0
ARC
8
BLACK
10
75.4269999999999925
20
-81.0999999999999943
40
2.0750090000086745
50
-269.99975149
51
-179.99983433
0
LINE
8
BLACK
6
CONTINUOUS
10
265.7124999999999773
20
-93.0750000000000028
11
264.7124999999999773
21
-93.0750000000000028
0
ARC
8
BLACK
10
270.6895000000000095
20
-91.0499999999999972
40
2.0750060000195178
50
-179.99980671
51
-90.00024851
0
LINE
8
BLACK
6
CONTINUOUS
10
8.0483039999999999
20
-106.5048599999999936
11
8.0483039999999999
21
-103.9048599999999993
0
ARC
8
BLACK
10
161.1519999999999868
20
-72.
40
2.0750060000195178
50
-179.99983433
51
-90.00024851
0
ARC
8
BLACK
10
227.8269999999999982
20
-81.0999999999999943
40
2.0750090000086745
50
-269.99975149
51
-179.99983433
0
LINE
8
BLACK
6
CONTINUOUS
10
47.8769909999999967
20
-93.1250059999999991
11
37.3269909999999996
21
-93.1250059999999991
0
LINE
8
BLACK
6
CONTINUOUS
10
35.2519890000000018
20
-138.2500100000000032
11
35.2519890000000018
21
-148.200004000000007
0
CIRCLE
8
BLACK
10
109.2749999999999915
20
-86.0750000000000028
40
1.
0
LINE
8
BLACK
6
CONTINUOUS
10
220.9894909999999868
20
-138.2500059999999849
11
220.9894909999999868
21
-148.2000060000000019
0
LINE
8
BLACK
6
CONTINUOUS
10
266.9519909999999641
20
-59.9750060000000005
11
256.4019900000000121
21
-59.9750060000000005
0
ARC
8
BLACK
10
232.5894999999999868
20
-100.1499999999999915
40
2.0750090000086745
50
-269.99975149
51
-179.99983433
0
LINE
8
BLACK
6
CONTINUOUS
10
71.6894910000000039
20
-112.1750059999999962
11
61.1394909999999996
21
-112.1750059999999962
0
ARC
8
BLACK
10
256.4019999999999868
20
-62.0499999999999972
40
2.0750090000086745
50
-269.99972387
51
-179.99983433
0
LINE
8
BLACK
6
CONTINUOUS
10
210.2519910000000039
20
-150.1750059999999962
11
198.8019909999999868
21
-150.1750059999999962
0
LINE
8
BLACK
6
CONTINUOUS
10
143.1269910000000039
20
-93.1250059999999991
11
132.5769909999999925
21
-93.1250059999999991
0
ARC
8
BLACK
10
151.6269999999999811
20
-81.0999999999999943
40
2.0750090000086745
50
-269.99975149
51
-179.99983433
0
ARC
8
BLACK
10
151.6269999999999811
20
-91.0499999999999972
40
2.0750060000195178
50
-179.99983433
51
-90.00024851
0
LINE
8
BLACK
6
CONTINUOUS
10
159.4894909999999868
20
-119.2000059999999877
11
159.4894909999999868
21
-129.1500059999999905
0
LINE
8
BLACK
6
CONTINUOUS
10
287.75
20
-58.
11
7.
21
-58.
0
CIRCLE
8
BLACK
10
133.0875000000000057
20
-105.125
40
1.
0
ARC
8
BLACK
10
76.4519999999999982
20
-72.
40
2.0749910000086746
50
-90.00024851
51
-0.00016568
0
LINE
8
BLACK
6
CONTINUOUS
10
57.4019909999999953
20
-74.0750060000000019
11
46.8519909999999982
21
-74.0750060000000019
0
ARC
8
BLACK
10
30.0373999999999981
20
-92.5750000000000028
40
0.5001
50
-89.98854194
51
-0.00000000
0
LINE
8
BLACK
6
CONTINUOUS
10
73.7644909999999925
20
-138.2500059999999849
11
73.7644909999999925
21
-148.2000060000000019
0
LINE
8
BLACK
6
CONTINUOUS
10
269.0269910000000095
20
-62.0500059999999962
11
269.0269910000000095
21
-72.0000059999999991
0
ARC
8
BLACK
10
200.2769999999999868
20
-91.0499999999999972
40
2.0749910000086746
50
-90.00024851
51
-0.00016568
0
ARC
8
BLACK
10
70.6645000000000039
20
-129.1500000000000057
40
2.0750060000195178
50
-179.99983433
51
-90.00024851
0
LINE
8
BLACK
6
CONTINUOUS
10
247.9019909999999811
20
-74.0750060000000019
11
237.3519909999999982
21
-74.0750060000000019
0
LINE
8
BLACK
6
CONTINUOUS
10
38.3519909999999982
20
-74.0750060000000019
11
27.8019909999999975
21
-74.0750060000000019
0
LINE
8
BLACK
6
CONTINUOUS
10
195.5144909999999925
20
-117.1250059999999991
11
184.9644909999999811
21
-117.1250059999999991
0
LINE
8
BLACK
6
CONTINUOUS
10
71.6894910000000039
20
-150.2750059999999905
11
61.1394909999999996
21
-150.2750059999999905
0
ARC
8
BLACK
10
223.0644999999999811
20
-119.1999999999999886
40
2.0750090000086745
50
-269.99975149
51
-179.99983433
0
LINE
8
BLACK
6
CONTINUOUS
10
224.0894909999999811
20
-98.0750060000000019
11
213.5394909999999982
21
-98.0750060000000019
0
LINE
8
BLACK
6
CONTINUOUS
10
71.6894910000000039
20
-98.0750060000000019
11
61.1394909999999996
21
-98.0750060000000019
0
ARC
8
BLACK
10
156.3894999999999982
20
-110.0999999999999943
40
2.0750060000195178
50
-179.99983433
51
-90.00024851
0
LINE
8
BLACK
6
CONTINUOUS
10
286.0019909999999754
20
-131.2250060000000076
11
275.4519909999999641
21
-131.2250060000000076
0
ARC
8
BLACK
10
47.8769999999999953
20
-148.1999999999999886
40
2.0749890000086748
50
-90.00030374
51
-0.00016568
0
ARC
8
BLACK
10
95.9519999999999982
20
-137.3499999999999943
40
1.0749940000376745
50
-0.00031979
51
90.00047969
0
ARC
8
BLACK
10
99.2394999999999925
20
-100.1499999999999915
40
2.0750090000086745
50
-269.99975149
51
-179.99983433
0
LINE
8
BLACK
6
CONTINUOUS
10
235.2769909999999811
20
-62.0500059999999962
11
235.2769909999999811
21
-72.0000059999999991
0
ARC
8
BLACK
10
71.6894999999999953
20
-148.1999999999999886
40
2.0749910000086746
50
-90.00024851
51
-0.00016568
0
LINE
8
BLACK
6
CONTINUOUS
10
216.2269909999999982
20
-62.0500059999999962
11
216.2269909999999982
21
-72.0000059999999991
0
LINE
8
BLACK
6
CONTINUOUS
10
59.0644909999999967
20
-138.2500059999999849
11
59.0644909999999967
21
-148.2000060000000019
0
LINE
8
BLACK
6
CONTINUOUS
10
216.6394909999999925
20
-119.2000059999999877
11
216.6394909999999925
21
-129.1500059999999905
0
LINE
8
BLACK
6
CONTINUOUS
10
57.4019909999999953
20
-59.9750060000000005
11
46.8519909999999982
21
-59.9750060000000005
0
ARC
8
BLACK
10
27.8019999999999996
20
-62.0499999999999972
40
2.0750090000086745
50
-269.99975149
51
-179.99983433
0
ARC
8
BLACK
10
108.7644999999999982
20
-129.1500000000000057
40
2.0750060000195178
50
-179.99983433
51
-90.00024851
0
ARC
8
BLACK
10
75.4269999999999925
20
-91.0499999999999972
40
2.0750060000195178
50
-179.99983433
51
-90.00024851
0
ARC
8
BLACK
10
286.0020000000000095
20
-129.1500000000000057
40
2.0749910000086746
50
-90.00024851
51
-0.00016568
0
LINE
8
BLACK
6
CONTINUOUS
10
68.5894909999999953
20
-119.2000059999999877
11
68.5894909999999953
21
-129.1500059999999905
0
LINE
8
BLACK
6
CONTINUOUS
10
39.7178709999999953
20
-118.399565999999993
11
40.583480999999999
21
-118.399565999999993
0
ARC
8
BLACK
10
165.9145000000000039
20
-119.1999999999999886
40
2.0750090000086745
50
-269.99975149
51
-179.99983433
0
ARC
8
BLACK
10
133.6020000000000039
20
-62.0499999999999972
40
2.0749940000195179
50
-0.00016568
51
90.00024851
0
LINE
8
BLACK
6
CONTINUOUS
10
116.6269909999999896
20
-62.0500059999999962
11
116.6269909999999896
21
-72.0000059999999991
0
ARC
8
BLACK
10
219.3269999999999982
20
-81.0999999999999943
40
2.0749940000195179
50
-0.00016568
51
90.00024851
0
ARC
8
BLACK
10
19.3019999999999996
20
-62.0499999999999972
40
2.0749940000195179
50
-0.00016568
51
90.00024851
0
LINE
8
BLACK
6
CONTINUOUS
10
62.1644909999999982
20
-117.1250059999999991
11
51.614491000000001
21
-117.1250059999999991
0
CIRCLE
8
BLACK
10
52.125
20
-86.0750000000000028
40
1.
0
ARC
8
BLACK
10
152.6519999999999868
20
-62.0499999999999972
40
2.0749940000195179
50
-0.00016568
51
90.00024851
0
LINE
8
BLACK
6
CONTINUOUS
10
152.6519909999999811
20
-59.9750060000000005
11
142.1019909999999982
21
-59.9750060000000005
0
LINE
8
BLACK
6
CONTINUOUS
10
185.9894909999999868
20
-98.0750060000000019
11
175.4394910000000039
21
-98.0750060000000019
0
LINE
8
BLACK
6
CONTINUOUS
10
264.2124999999999773
20
-92.5750000000000028
11
264.2124999999999773
21
-80.8070510000000013
0
LINE
8
BLACK
6
CONTINUOUS
10
40.426991000000001
20
-62.0500059999999962
11
40.426991000000001
21
-72.0000059999999991
0
LINE
8
BLACK
6
CONTINUOUS
10
120.9769909999999982
20
-62.0500059999999962
11
120.9769909999999982
21
-72.0000059999999991
0
ARC
8
BLACK
10
113.527000000000001
20
-81.0999999999999943
40
2.0750090000086745
50
-269.99975149
51
-179.99983433
0
LINE
8
BLACK
6
CONTINUOUS
10
109.7894909999999982
20
-98.0750060000000019
11
99.239491000000001
21
-98.0750060000000019
0
ARC
8
BLACK
10
47.8769999999999953
20
-81.0999999999999943
40
2.0749940000195179
50
-0.00016568
51
90.00024851
0
LINE
8
BLACK
6
CONTINUOUS
10
119.3144909999999896
20
-117.1250059999999991
11
108.7644909999999925
21
-117.1250059999999991
0
LINE
8
BLACK
6
CONTINUOUS
10
19.3019849999999984
20
-74.0750010000000003
11
19.3019849999999984
21
-74.0750000000000028
0
ARC
8
BLACK
10
257.4269999999999641
20
-91.0499999999999972
40
2.0749910000086746
50
-90.00024851
51
-0.00016568
0
ARC
8
BLACK
10
180.2019999999999982
20
-72.
40
2.0750060000195178
50
-179.99983433
51
-90.00024851
0
LINE
8
BLACK
6
CONTINUOUS
10
85.9769909999999982
20
-93.1250059999999991
11
75.426991000000001
21
-93.1250059999999991
0
LINE
8
BLACK
6
CONTINUOUS
10
190.7519910000000039
20
-59.9750060000000005
11
180.2019909999999925
21
-59.9750060000000005
0
LINE
8
BLACK
6
CONTINUOUS
10
154.3144910000000039
20
-100.1500059999999905
11
154.3144910000000039
21
-110.1000059999999934
0
LINE
8
BLACK
6
CONTINUOUS
10
286.0019909999999754
20
-59.9750060000000005
11
275.4519899999999666
21
-59.9750060000000005
0
ARC
8
BLACK
10
7.
20
-60.
40
2.
50
90.00000000
51
180.00000000
0
CIRCLE
8
BLACK
10
161.6624999999999943
20
-124.1749999999999972
40
1.
0
LINE
8
BLACK
6
CONTINUOUS
10
87.6394909999999925
20
-119.2000059999999877
11
87.6394909999999925
21
-129.1500059999999905
0
ARC
8
BLACK
10
7.
20
-131.0904999999999916
40
1.999989
50
-180.00031513
51
-90.00000000
0
LINE
8
BLACK
6
CONTINUOUS
10
36.8085409999999982
20
-131.1869159999999965
11
15.0575409999999987
21
-131.1869159999999965
0
ARC
8
BLACK
10
194.4894999999999925
20
-110.0999999999999943
40
2.0750060000195178
50
-179.99983433
51
-90.00024851
0
LINE
8
BLACK
6
CONTINUOUS
10
26.1394909999999996
20
-81.1000059999999934
11
26.1394919999999971
21
-81.1000059999999934
0
LINE
8
BLACK
6
CONTINUOUS
10
240.4519909999999925
20
-81.1000059999999934
11
240.4519909999999925
21
-91.0500059999999962
0
LINE
8
BLACK
6
CONTINUOUS
10
147.8894909999999925
20
-98.0750060000000019
11
137.3394909999999811
21
-98.0750060000000019
0
LINE
8
BLACK
6
CONTINUOUS
10
52.6394909999999996
20
-112.1750059999999962
11
42.0894909999999953
21
-112.1750059999999962
0
ARC
8
BLACK
10
46.8519999999999968
20
-72.
40
2.0750060000195178
50
-179.99983433
51
-90.00024851
0
ARC
8
BLACK
10
36.8084999999999951
20
-129.3119999999999834
40
1.8749835307002032
50
-89.99874710
51
-20.54479698
0
ARC
8
BLACK
10
46.8519999999999968
20
-62.0499999999999972
40
2.0750090000086745
50
-269.99975149
51
-179.99983433
0
LINE
8
BLACK
6
CONTINUOUS
10
266.9519909999999641
20
-74.0750060000000019
11
256.4019910000000095
21
-74.0750060000000019
0
ARC
8
BLACK
10
184.9644999999999868
20
-129.1500000000000057
40
2.0750060000195178
50
-179.99983433
51
-90.00024851
0
ARC
8
BLACK
10
89.714500000000001
20
-119.1999999999999886
40
2.0750090000086745
50
-269.99975149
51
-179.99983433
0
ARC
8
BLACK
10
38.3519999999999968
20
-72.
40
2.0749910000086746
50
-90.00024851
51
-0.00016568
0
ARC
8
BLACK
10
243.1394999999999982
20
-110.0999999999999943
40
2.0749910000086746
50
-90.00024851
51
-0.00016568
0
LINE
8
BLACK
6
CONTINUOUS
10
42.0084809999999962
20
-119.8245659999999901
11
42.0084809999999962
21
-127.4254459999999938
0
ARC
8
BLACK
10
247.9019999999999868
20
-62.0499999999999972
40
2.0749940000195179
50
-0.00016568
51
90.00024851
0
LINE
8
BLACK
6
CONTINUOUS
10
90.739491000000001
20
-112.1750059999999962
11
80.1894909999999896
21
-112.1750059999999962
0
LINE
8
BLACK
6
CONTINUOUS
10
114.551991000000001
20
-74.0750060000000019
11
104.0019909999999896
21
-74.0750060000000019
0
LINE
8
BLACK
6
CONTINUOUS
10
188.0644910000000039
20
-100.1500059999999905
11
188.0644910000000039
21
-110.1000059999999934
0
ARC
8
BLACK
10
210.2519999999999811
20
-149.0999999999999943
40
1.0749910000167442
50
-90.00047968
51
-0.00031979
0
LINE
8
BLACK
6
CONTINUOUS
10
63.8269909999999996
20
-62.0500059999999962
11
63.8269909999999996
21
-72.0000059999999991
0
ARC
8
BLACK
10
161.1519999999999868
20
-62.0499999999999972
40
2.0750090000086745
50
-269.99975149
51
-179.99983433
0
CIRCLE
8
BLACK
10
52.125
20
-143.2249999999999943
40
1.
0
ARC
8
BLACK
10
198.8019999999999925
20
-149.0999999999999943
40
1.075006000037674
50
-179.99968021
51
-90.00047968
0
LINE
8
BLACK
6
CONTINUOUS
10
106.6894909999999896
20
-119.2000059999999877
11
106.6894909999999896
21
-129.1500059999999905
0
ARC
8
BLACK
10
71.6894999999999953
20
-110.0999999999999943
40
2.0749910000086746
50
-90.00024851
51
-0.00016568
0
LINE
8
BLACK
6
CONTINUOUS
10
6.6769910000000001
20
-62.0500059999999962
11
6.6769910000000001
21
-72.0000059999999991
0
ARC
8
BLACK
10
37.8605000000000018
20
-118.2224999999999966
40
1.0750940120552248
50
22.02572652
51
89.99141971
0
ARC
8
BLACK
10
275.4519999999999982
20
-129.1500000000000057
40
2.0750060000195178
50
-179.99980671
51
-90.00024851
0
ARC
8
BLACK
10
246.8769999999999811
20
-91.0499999999999972
40
2.0750060000195178
50
-179.99983433
51
-90.00024851
0
LINE
8
BLACK
6
CONTINUOUS
10
198.8019909999999868
20
-136.2750059999999905
11
210.2519910000000039
21
-136.2750059999999905
0
LINE
8
BLACK
6
CONTINUOUS
10
119.3144909999999896
20
-131.2250060000000076
11
108.7644909999999925
21
-131.2250060000000076
0
ARC
8
BLACK
10
223.0644999999999811
20
-138.25
40
2.0750090000086745
50
-269.99975149
51
-179.99983433
0
ARC
8
BLACK
10
204.0144999999999982
20
-119.1999999999999886
40
2.0750090000086745
50
-269.99975149
51
-179.99983433
0
ARC
8
BLACK
10
270.6895000000000095
20
-81.0999999999999943
40
2.0750090000086745
50
-269.99972387
51
-179.99983433
0
ARC
8
BLACK
10
238.3769999999999811
20
-91.0499999999999972
40
2.0749910000086746
50
-90.00024851
51
-0.00016568
0
CIRCLE
8
BLACK
10
271.1999999999999886
20
-124.1749999999999972
40
1.
0
ARC
8
BLACK
10
166.9394999999999811
20
-100.1499999999999915
40
2.0749940000195179
50
-0.00016568
51
90.00024851
0
ARC
8
BLACK
10
37.3269999999999982
20
-91.0499999999999972
40
2.0750060000195178
50
-179.99983433
51
-90.00024851
0
ARC
8
BLACK
10
170.6769999999999925
20
-81.0999999999999943
40
2.0750090000086745
50
-269.99975149
51
-179.99983433
0
ARC
8
BLACK
10
11.1482200000000002
20
-106.5047699999999935
40
1.0000840040496597
50
-89.99518755
51
-0.00515619
0
LINE
8
BLACK
6
CONTINUOUS
10
245.2144909999999811
20
-100.1500059999999905
11
245.2144909999999811
21
-110.1000059999999934
0
ARC
8
BLACK
10
90.7394999999999925
20
-100.1499999999999915
40
2.0749940000195179
50
-0.00016568
51
90.00024851
0
ARC
8
BLACK
10
128.8394999999999868
20
-110.0999999999999943
40
2.0749910000086746
50
-90.00024851
51
-0.00016568
0
ARC
8
BLACK
10
133.6020000000000039
20
-72.
40
2.0749910000086746
50
-90.00024851
51
-0.00016568
0
ARC
8
BLACK
10
152.6519999999999868
20
-148.1999999999999886
40
2.0749910000086746
50
-90.00024851
51
-0.00016568
0
ARC
8
BLACK
10
37.3269999999999982
20
-81.0999999999999943
40
2.0750090000086745
50
-269.99975149
51
-179.99983433
0
CIRCLE
8
BLACK
10
80.7000000000000028
20
-67.0249999999999915
40
1.
0
ARC
8
BLACK
10
11.2825999999999986
20
-127.4253999999999962
40
1.4250460000003509
50
-179.99815045
51
-89.99995979
0
LINE
8
BLACK
6
CONTINUOUS
10
279.6960409999999797
20
-112.1369159999999994
11
257.9450410000000034
21
-112.1369159999999994
0
ARC
8
BLACK
10
147.8894999999999982
20
-100.1499999999999915
40
2.0749940000195179
50
-0.00016568
51
90.00024851
0
LINE
8
BLACK
6
CONTINUOUS
10
26.4457409999999982
20
-98.0750060000000019
11
15.89574
21
-98.0750060000000019
0
CIRCLE
8
BLACK
10
166.4249999999999829
20
-86.0750000000000028
40
1.
0
LINE
8
BLACK
6
CONTINUOUS
10
284.8959810000000061
20
-100.774565999999993
11
284.8959810000000061
21
-108.3754459999999966
0
LINE
8
BLACK
6
CONTINUOUS
10
47.8769889999999947
20
-150.2750059999999905
11
37.3269919999999971
21
-150.2750059999999905
0
ARC
8
BLACK
10
214.5644999999999811
20
-119.1999999999999886
40
2.0749940000195179
50
-0.00016568
51
90.00024851
0
LINE
8
BLACK
6
CONTINUOUS
10
33.6000009999999989
20
-135.0904889999999909
11
33.6000009999999989
21
-150.25
0
ARC
8
BLACK
10
223.0644999999999811
20
-148.1999999999999886
40
2.0750060000195178
50
-179.99983433
51
-90.00024851
0
ARC
8
BLACK
10
39.7177000000000007
20
-117.4711999999999961
40
0.9283660157486378
50
-157.97584901
51
-89.98944643
0
LINE
8
BLACK
6
CONTINUOUS
10
200.2769909999999811
20
-79.0250059999999905
11
189.7269909999999982
21
-79.0250059999999905
0
ARC
8
BLACK
10
35.6000000000000014
20
-150.25
40
2.00000000000025
50
-180.00000000
51
-89.99997135
0
LINE
8
BLACK
6
CONTINUOUS
10
281.2394909999999868
20
-93.1250059999999991
11
270.6894909999999754
21
-93.1250059999999991
0
ARC
8
BLACK
10
266.9519999999999982
20
-72.
40
2.0749910000086746
50
-90.00024851
51
-0.00016568
0
ARC
8
BLACK
10
190.7519999999999811
20
-72.
40
2.0749910000086746
50
-90.00024851
51
-0.00016568
0
ARC
8
BLACK
10
189.7270000000000039
20
-91.0499999999999972
40
2.0750060000195178
50
-179.99983433
51
-90.00024851
0
CIRCLE
8
BLACK
10
23.5500000000000007
20
-67.0249999999999915
40
1.
0
ARC
8
BLACK
10
257.4269999999999641
20
-148.1999999999999886
40
2.0749910000086746
50
-90.00024851
51
-0.00016568
0
ARC
8
BLACK
10
205.0395000000000039
20
-100.1499999999999915
40
2.0749940000195179
50
-0.00016568
51
90.00024851
0
ARC
8
BLACK
10
104.0019999999999953
20
-62.0499999999999972
40
2.0750090000086745
50
-269.99975149
51
-179.99983433
0
LINE
8
BLACK
6
CONTINUOUS
10
154.7269909999999982
20
-62.0500059999999962
11
154.7269909999999982
21
-72.0000059999999991
0
CIRCLE
8
BLACK
10
195.
20
-67.0249999999999915
40
1.
0
LINE
8
BLACK
6
CONTINUOUS
10
92.8144909999999896
20
-100.1500059999999905
11
92.8144909999999896
21
-110.1000059999999934
0
ARC
8
BLACK
10
132.5769999999999982
20
-91.0499999999999972
40
2.0750060000195178
50
-179.99983433
51
-90.00024851
0
LINE
8
BLACK
6
CONTINUOUS
10
133.6019909999999982
20
-59.9750060000000005
11
123.051991000000001
21
-59.9750060000000005
0
ARC
8
BLACK
10
266.9519999999999982
20
-62.0499999999999972
40
2.0749940000195179
50
-0.00016568
51
90.00024851
0
LINE
8
BLACK
6
CONTINUOUS
10
247.1832409999999811
20
-119.2000059999999877
11
247.1832409999999811
21
-129.150006999999988
0
LINE
8
BLACK
6
CONTINUOUS
10
259.5019909999999754
20
-138.2500059999999849
11
259.5019909999999754
21
-148.2000060000000019
0
ARC
8
BLACK
10
142.1020000000000039
20
-72.
40
2.0750060000195178
50
-179.99983433
51
-90.00024851
0
ARC
8
BLACK
10
287.75
20
-60.0000999999999962
40
2.0000999999999998
50
0.00286472
51
90.00000000
0
ARC
8
BLACK
10
12.1482099999999988
20
-117.4711599999999976
40
0.9284106215016068
50
-89.99993829
51
-22.02244996
0
LINE
8
BLACK
6
CONTINUOUS
10
182.8894909999999925
20
-119.2000059999999877
11
182.8894909999999925
21
-129.1500059999999905
0
ARC
8
BLACK
10
37.3269999999999982
20
-148.1999999999999886
40
2.0750060000154216
50
-179.99988955
51
-90.00022090
0
LINE
8
BLACK
6
CONTINUOUS
10
14.0054210000000001
20
-117.1474059999999895
11
37.8606610000000003
21
-117.1474059999999895
0
ARC
8
BLACK
10
218.3019999999999925
20
-72.
40
2.0750060000195178
50
-179.99983433
51
-90.00024851
0
LINE
8
BLACK
6
CONTINUOUS
10
197.7269909999999982
20
-149.1000059999999792
11
197.7269909999999982
21
-137.3500060000000076
0
LINE
8
BLACK
6
CONTINUOUS
10
44.7769909999999953
20
-62.0500059999999962
11
44.7769909999999953
21
-72.0000059999999991
0
ARC
8
BLACK
10
176.4644999999999868
20
-129.1500000000000057
40
2.0749910000086746
50
-90.00024851
51
-0.00016568
0
LINE
8
BLACK
6
CONTINUOUS
10
125.739491000000001
20
-119.2000059999999877
11
125.739491000000001
21
-129.1500059999999905
0
ARC
8
BLACK
10
24.0644999999999989
20
-91.0499999999999972
40
2.0749920000086748
50
-90.00024851
51
-0.00016568
0
ARC
8
BLACK
10
138.3644999999999925
20
-129.1500000000000057
40
2.0749910000086746
50
-90.00024851
51
-0.00016568
0
LINE
8
BLACK
6
CONTINUOUS
10
244.8019909999999868
20
-138.2500059999999849
11
244.8019909999999868
21
-148.2000060000000019
0
LINE
8
BLACK
6
CONTINUOUS
10
13.8207409999999999
20
-100.1500059999999905
11
13.8207409999999999
21
-110.1000069999999909
0
ARC
8
BLACK
10
104.0019999999999953
20
-72.
40
2.0750060000195178
50
-179.99983433
51
-90.00024851
0
ARC
8
BLACK
10
185.9894999999999925
20
-110.0999999999999943
40
2.0749910000086746
50
-90.00024851
51
-0.00016568
0
LINE
8
BLACK
6
CONTINUOUS
10
38.3519909999999982
20
-59.9750060000000005
11
27.8019909999999975
21
-59.9750060000000005
0
LINE
8
BLACK
6
CONTINUOUS
10
49.5394909999999982
20
-119.2000059999999877
11
49.5394909999999982
21
-129.1500059999999905
0
ARC
8
BLACK
10
205.0395000000000039
20
-110.0999999999999943
40
2.0749910000086746
50
-90.00024851
51
-0.00016568
0
LINE
8
BLACK
6
CONTINUOUS
10
130.5019910000000039
20
-81.1000059999999934
11
130.5019910000000039
21
-91.0500059999999962
0
ARC
8
BLACK
10
254.5741999999999905
20
-111.5251999999999981
40
1.7247540010091293
50
20.54108452
51
90.00195996
0
LINE
8
BLACK
6
CONTINUOUS
10
281.2394909999999868
20
-79.0250059999999905
11
270.689489999999978
21
-79.0250059999999905
0
LINE
8
BLACK
6
CONTINUOUS
10
126.1519909999999953
20
-81.1000059999999934
11
126.1519909999999953
21
-91.0500059999999962
0
ARC
8
BLACK
10
209.8019999999999925
20
-62.0499999999999972
40
2.0749940000195179
50
-0.00016568
51
90.00024851
0
LINE
8
BLACK
6
CONTINUOUS
10
140.4394910000000039
20
-119.2000059999999877
11
140.4394910000000039
21
-129.1500059999999905
0
ARC
8
BLACK
10
11.148299999999999
20
-103.9048999999999978
40
1.0000400000079996
50
0.00229184
51
89.99977083
0
LINE
8
BLACK
6
CONTINUOUS
10
25.7269909999999982
20
-62.0500059999999962
11
25.7269909999999982
21
-72.0000059999999991
0
ARC
8
BLACK
10
13.5145
20
-81.0999999999999943
40
2.075008000006024
50
-269.99975149
51
-179.99986194
0
LINE
8
BLACK
6
CONTINUOUS
10
73.7644909999999925
20
-100.1500059999999905
11
73.7644909999999925
21
-110.1000059999999934
0
ARC
8
BLACK
10
194.4894999999999925
20
-100.1499999999999915
40
2.0750090000086745
50
-269.99975149
51
-179.99983433
0
ARC
8
BLACK
10
94.4769999999999897
20
-81.0999999999999943
40
2.0750090000086745
50
-269.99975149
51
-179.99983433
0
ARC
8
BLACK
10
118.2894999999999897
20
-110.0999999999999943
40
2.0750060000195178
50
-179.99983433
51
-90.00024851
0
LINE
8
BLACK
6
CONTINUOUS
10
7.
20
-133.0904889999999909
11
31.6000009999999989
21
-133.0904889999999909
0
ARC
8
BLACK
10
176.4644999999999868
20
-119.1999999999999886
40
2.0749940000195179
50
-0.00016568
51
90.00024851
0
ARC
8
BLACK
10
76.4519999999999982
20
-62.0499999999999972
40
2.0749940000195179
50
-0.00016568
51
90.00024851
0
LINE
8
BLACK
6
CONTINUOUS
10
259.5019909999999754
20
-81.1000059999999934
11
259.5019909999999754
21
-91.0500059999999962
0
ARC
8
BLACK
10
29.5374999999999979
20
-79.0750000000000028
40
2.0000001666502429
50
-420.00000276
51
-119.99999724
0
ARC
8
BLACK
10
11.6866500000000002
20
-130.5753799999999956
40
1.724934000023479
50
20.54610057
51
90.00029895
0
LINE
8
BLACK
6
CONTINUOUS
10
243.1394909999999925
20
-112.1750059999999962
11
232.5894909999999811
21
-112.1750059999999962
0
LINE
8
BLACK
6
CONTINUOUS
10
257.4269909999999868
20
-93.1250059999999991
11
246.8769909999999754
21
-93.1250059999999991
0
ARC
8
BLACK
10
84.9519999999999982
20
-72.
40
2.0750060000195178
50
-179.99983433
51
-90.00024851
0
LINE
8
BLACK
6
CONTINUOUS
10
235.6894909999999754
20
-119.2000059999999877
11
235.6894909999999754
21
-129.1500059999999905
0
LINE
8
BLACK
6
CONTINUOUS
10
81.2144909999999953
20
-117.1250059999999991
11
70.6644909999999982
21
-117.1250059999999991
0
LINE
8
BLACK
6
CONTINUOUS
10
211.8769910000000039
20
-62.0500059999999962
11
211.8769910000000039
21
-72.0000059999999991
0
ARC
8
BLACK
10
132.5769999999999982
20
-81.0999999999999943
40
2.0750090000086745
50
-269.99975149
51
-179.99983433
0
ARC
8
BLACK
10
11.2825999999999986
20
-119.8245699999999943
40
1.4249990000056139
50
89.99995979
51
179.99983917
0
ARC
8
BLACK
10
204.0144999999999982
20
-129.1500000000000057
40
2.0750060000195178
50
-179.99983433
51
-90.00024851
0
LINE
8
BLACK
6
CONTINUOUS
10
73.3519909999999982
20
-81.1000059999999934
11
73.3519909999999982
21
-91.0500059999999962
0
ARC
8
BLACK
10
114.5519999999999925
20
-72.
40
2.0749910000086746
50
-90.00024851
51
-0.00016568
0
LINE
8
BLACK
6
CONTINUOUS
10
138.3644909999999868
20
-131.2250060000000076
11
127.8144909999999896
21
-131.2250060000000076
0
LINE
8
BLACK
6
CONTINUOUS
10
92.4019909999999953
20
-81.1000059999999934
11
92.4019909999999953
21
-91.0500059999999962
0
ARC
8
BLACK
10
113.527000000000001
20
-91.0499999999999972
40
2.0750060000195178
50
-179.99983433
51
-90.00024851
0
LINE
8
BLACK
6
CONTINUOUS
10
288.0769909999999641
20
-119.2000059999999877
11
288.0769909999999641
21
-129.1500059999999905
0
ARC
8
BLACK
10
70.6645000000000039
20
-119.1999999999999886
40
2.0750090000086745
50
-269.99975149
51
-179.99983433
0
ARC
8
BLACK
10
128.8394999999999868
20
-100.1499999999999915
40
2.0749940000195179
50
-0.00016568
51
90.00024851
0
LINE
8
BLACK
6
CONTINUOUS
10
135.2644909999999925
20
-100.1500059999999905
11
135.2644909999999925
21
-110.1000059999999934
0
LINE
8
BLACK
6
CONTINUOUS
10
124.0769909999999925
20
-79.0250059999999905
11
113.5269909999999953
21
-79.0250059999999905
0
LINE
8
BLACK
6
CONTINUOUS
10
154.7269909999999982
20
-138.2500059999999849
11
154.7269909999999982
21
-148.2000060000000019
0
LINE
8
BLACK
6
CONTINUOUS
10
249.9769909999999982
20
-62.0500059999999962
11
249.9769909999999982
21
-72.0000059999999991
0
LINE
8
BLACK
6
CONTINUOUS
10
76.4519909999999925
20
-59.9750060000000005
11
65.9019909999999953
21
-59.9750060000000005
0
ARC
8
BLACK
10
255.0357999999999947
20
-98.4213000000000022
40
0.9282746973590307
50
-90.00549338
51
-22.01652223
0
LINE
8
BLACK
6
CONTINUOUS
10
40.583480999999999
20
-128.8504460000000051
11
40.1794409999999971
21
-128.8504460000000051
0
ARC
8
BLACK
10
246.8769999999999811
20
-148.1999999999999886
40
2.0750060000195178
50
-179.99983433
51
-90.00024851
0
ARC
8
BLACK
10
52.6394999999999982
20
-100.1499999999999915
40
2.0749940000195179
50
-0.00016568
51
90.00024851
0
LINE
8
BLACK
6
CONTINUOUS
10
5.
20
-60.
11
5.
21
-131.0904889999999909
0
ARC
8
BLACK
10
280.7479999999999905
20
-99.1724999999999994
40
1.0750940120552248
50
22.02572652
51
89.99141971
0
LINE
8
BLACK
6
CONTINUOUS
10
288.0769909999999641
20
-62.0500059999999962
11
288.0769909999999641
21
-72.0000059999999991
0
LINE
8
BLACK
6
CONTINUOUS
10
164.2519910000000039
20
-81.1000059999999934
11
164.2519910000000039
21
-91.0500059999999962
0
ARC
8
BLACK
10
147.8894999999999982
20
-110.0999999999999943
40
2.0749910000086746
50
-90.00024851
51
-0.00016568
0
LINE
8
BLACK
6
CONTINUOUS
10
205.0394909999999982
20
-112.1750059999999962
11
194.4894909999999868
21
-112.1750059999999962
0
LINE
8
BLACK
6
CONTINUOUS
10
176.4644909999999811
20
-131.2250060000000076
11
165.9144909999999982
21
-131.2250060000000076
0
LINE
8
BLACK
6
CONTINUOUS
10
259.8082410000000095
20
-131.2250060000000076
11
249.2582409999999982
21
-131.2250060000000076
0
ARC
8
BLACK
10
246.8769999999999811
20
-81.0999999999999943
40
2.0750090000086745
50
-269.99975149
51
-179.99983433
0
ARC
8
BLACK
10
26.4457399999999971
20
-110.1000099999999975
40
2.0750010000038555
50
-89.99997239
51
0.00011045
0
LINE
8
BLACK
6
CONTINUOUS
10
71.6894910000000039
20
-136.1750059999999962
11
61.1394909999999996
21
-136.1750059999999962
0
LINE
8
BLACK
6
CONTINUOUS
10
102.3394909999999953
20
-119.2000059999999877
11
102.3394909999999953
21
-129.1500059999999905
0
LINE
8
BLACK
6
CONTINUOUS
10
209.8019909999999868
20
-74.0750060000000019
11
199.2519910000000039
21
-74.0750060000000019
0
ARC
8
BLACK
10
246.8769999999999811
20
-138.25
40
2.0750090000086745
50
-269.99975149
51
-179.99983433
0
ARC
8
BLACK
10
80.1894999999999953
20
-110.0999999999999943
40
2.0750060000195178
50
-179.99983433
51
-90.00024851
0
ARC
8
BLACK
10
146.8644999999999925
20
-119.1999999999999886
40
2.0750090000086745
50
-269.99975149
51
-179.99983433
0
CIRCLE
8
BLACK
10
285.4875000000000114
20
-86.0750000000000028
40
1.
0
ARC
8
BLACK
10
210.2519999999999811
20
-137.3499999999999943
40
1.0749940000376745
50
-0.00031979
51
90.00047969
0
LINE
8
BLACK
6
CONTINUOUS
10
178.5394909999999982
20
-119.2000059999999877
11
178.5394909999999982
21
-129.1500059999999905
0
ARC
8
BLACK
10
8.7519999999999989
20
-72.
40
2.0750060000195178
50
-179.99983433
51
-90.00024851
0
LINE
8
BLACK
6
CONTINUOUS
10
121.3894909999999925
20
-119.2000059999999877
11
121.3894909999999925
21
-129.1500059999999905
0
ARC
8
BLACK
10
282.605199999999968
20
-98.4211999999999989
40
0.9283660157486378
50
-157.97584901
51
-89.98944643
0
LINE
8
BLACK
6
CONTINUOUS
10
143.1269910000000039
20
-79.0250059999999905
11
132.5769909999999925
21
-79.0250059999999905
0
ARC
8
BLACK
10
65.902000000000001
20
-72.
40
2.0750060000195178
50
-179.99983433
51
-90.00024851
0
ARC
8
BLACK
10
224.0894999999999868
20
-110.0999999999999943
40
2.0749910000086746
50
-90.00024851
51
-0.00016568
0
ARC
8
BLACK
10
249.258199999999988
20
-119.1999999999999886
40
2.0749590000086746
50
-270.00110450
51
-179.99983432
0
ARC
8
BLACK
10
281.2394999999999641
20
-91.0499999999999972
40
2.0749910000086746
50
-90.00024851
51
-0.00016568
0
LINE
8
BLACK
6
CONTINUOUS
10
101.926991000000001
20
-62.0500059999999962
11
101.926991000000001
21
-72.0000059999999991
0
ARC
8
BLACK
10
233.6144999999999925
20
-148.1999999999999886
40
2.0749910000086746
50
-90.00024851
51
-0.00016568
0
ARC
8
BLACK
10
213.5395000000000039
20
-110.0999999999999943
40
2.0750060000195178
50
-179.99983433
51
-90.00024851
0
LINE
8
BLACK
6
CONTINUOUS
10
152.6519909999999811
20
-136.1750059999999962
11
142.1019909999999982
21
-136.1750059999999962
0
ARC
8
BLACK
10
109.7894999999999897
20
-100.1499999999999915
40
2.0749940000195179
50
-0.00016568
51
90.00024851
0
ARC
8
BLACK
10
118.2894999999999897
20
-100.1499999999999915
40
2.0750090000086745
50
-269.99975149
51
-179.99983433
0
LINE
8
BLACK
6
CONTINUOUS
10
66.926991000000001
20
-79.0250059999999905
11
56.3769909999999967
21
-79.0250059999999905
0
LINE
8
BLACK
6
CONTINUOUS
10
21.3769910000000003
20
-62.0500059999999962
11
21.3769910000000003
21
-72.0000059999999991
0
CIRCLE
8
BLACK
10
242.625
20
-143.2249999999999943
40
1.
0
ARC
8
BLACK
10
175.4394999999999811
20
-110.0999999999999943
40
2.0750060000195178
50
-179.99983433
51
-90.00024851
0
LINE
8
BLACK
6
CONTINUOUS
10
26.4457409999999982
20
-112.1750059999999962
11
15.8957409999999992
21
-112.1750059999999962
0
ARC
8
BLACK
10
40.5834800000000016
20
-127.4254399999999947
40
1.4250010000126314
50
-89.99995979
51
-0.00024125
0
LINE
8
BLACK
6
CONTINUOUS
10
12.1483039999999995
20
-103.9048599999999993
11
12.1483039999999995
21
-106.5048599999999936
0
LINE
8
BLACK
6
CONTINUOUS
10
11.6866409999999998
20
-128.8504460000000051
11
11.2826009999999997
21
-128.8504460000000051
0
ARC
8
BLACK
10
249.2582999999999913
20
-129.1499000000000024
40
2.0751060008387521
50
-179.99704555
51
-90.00162905
0
ARC
8
BLACK
10
123.0519999999999925
20
-62.0499999999999972
40
2.0750090000086745
50
-269.99975149
51
-179.99983433
0
ARC
8
BLACK
10
287.7498999999999683
20
-131.0903999999999883
40
2.0001000020701465
50
-89.99713528
51
-0.00260683
0
LINE
8
BLACK
6
CONTINUOUS
10
138.3644909999999868
20
-117.1250059999999991
11
127.8144909999999896
21
-117.1250059999999991
0
LINE
8
BLACK
6
CONTINUOUS
10
219.3269909999999925
20
-79.0250059999999905
11
208.7769909999999811
21
-79.0250059999999905
0
CIRCLE
8
BLACK
10
6.9249999999999998
20
-124.1749999999999972
40
1.
0
LINE
8
BLACK
6
CONTINUOUS
10
221.4019909999999811
20
-81.1000059999999934
11
221.4019909999999811
21
-91.0500059999999962
0
LINE
8
BLACK
6
CONTINUOUS
10
149.9644909999999811
20
-100.1500059999999905
11
149.9644909999999811
21
-110.1000059999999934
0
ARC
8
BLACK
10
56.3769999999999953
20
-91.0499999999999972
40
2.0750060000195178
50
-179.99983433
51
-90.00024851
0
ARC
8
BLACK
10
8.7519999999999989
20
-62.0499999999999972
40
2.0750090000086745
50
-269.99975149
51
-179.99983433
0
ARC
8
BLACK
10
66.9269999999999925
20
-81.0999999999999943
40
2.0749940000195179
50
-0.00016568
51
90.00024851
0
ARC
8
BLACK
10
100.2644999999999982
20
-129.1500000000000057
40
2.0749910000086746
50
-90.00024851
51
-0.00016568
0
ARC
8
BLACK
10
228.8519999999999754
20
-72.
40
2.0749910000086746
50
-90.00024851
51
-0.00016568
0
ARC
8
BLACK
10
209.8019999999999925
20
-72.
40
2.0749910000086746
50
-90.00024851
51
-0.00016568
0
LINE
8
BLACK
6
CONTINUOUS
10
144.7894909999999982
20
-119.2000059999999877
11
144.7894909999999982
21
-129.1500059999999905
0
ARC
8
BLACK
10
237.3519999999999754
20
-72.
40
2.0750060000195178
50
-179.99983433
51
-90.00024851
0
LINE
8
BLACK
6
CONTINUOUS
10
168.6019909999999982
20
-81.1000059999999934
11
168.6019909999999982
21
-91.0500059999999962
0
CIRCLE
8
BLACK
10
135.375
20
-148.2249999999999943
40
1.
0
LINE
8
BLACK
6
CONTINUOUS
10
100.2644909999999925
20
-117.1250059999999991
11
89.7144909999999953
21
-117.1250059999999991
0
LINE
8
BLACK
6
CONTINUOUS
10
128.8394909999999811
20
-112.1750059999999962
11
118.2894909999999982
21
-112.1750059999999962
0
ARC
8
BLACK
10
199.2519999999999811
20
-62.0499999999999972
40
2.0750090000086745
50
-269.99975149
51
-179.99983433
0
LINE
8
BLACK
6
CONTINUOUS
10
192.8269909999999925
20
-62.0500059999999962
11
192.8269909999999925
21
-72.0000059999999991
0
LINE
8
BLACK
6
CONTINUOUS
10
209.8019909999999868
20
-59.9750060000000005
11
199.2519910000000039
21
-59.9750060000000005
0
ARC
8
BLACK
10
57.4019999999999939
20
-72.
40
2.0749910000086746
50
-90.00024851
51
-0.00016568
0
CIRCLE
8
BLACK
10
159.375
20
-148.2249999999999943
40
1.
0
LINE
8
BLACK
6
CONTINUOUS
10
233.6144909999999868
20
-117.1250059999999991
11
223.0644910000000039
21
-117.1250059999999991
0
ARC
8
BLACK
10
56.3769999999999953
20
-81.0999999999999943
40
2.0750090000086745
50
-269.99975149
51
-179.99983433
0
LINE
8
BLACK
6
CONTINUOUS
10
256.8929210000000012
20
-98.0974059999999923
11
280.7481609999999819
21
-98.0974059999999923
0
LINE
8
BLACK
6
CONTINUOUS
10
85.9769909999999982
20
-79.0250059999999905
11
75.426991000000001
21
-79.0250059999999905
0
ARC
8
BLACK
10
114.5519999999999925
20
-62.0499999999999972
40
2.0749940000195179
50
-0.00016568
51
90.00024851
0
LINE
8
BLACK
6
CONTINUOUS
10
162.1769909999999868
20
-79.0250059999999905
11
151.6269910000000039
21
-79.0250059999999905
0
LINE
8
BLACK
6
CONTINUOUS
10
47.8769889999999947
20
-136.1750059999999962
11
37.3269930000000016
21
-136.1750059999999962
0
LINE
8
BLACK
6
CONTINUOUS
10
9.0483039999999999
20
-102.9048599999999993
11
11.1483039999999995
21
-102.9048599999999993
0
LINE
8
BLACK
6
CONTINUOUS
10
40.0144909999999996
20
-100.1500059999999905
11
40.0144909999999996
21
-110.1000059999999934
0
LINE
8
BLACK
6
CONTINUOUS
10
111.4519909999999925
20
-81.1000059999999934
11
111.4519909999999925
21
-91.0500059999999962
0
ARC
8
BLACK
10
219.3269999999999982
20
-91.0499999999999972
40
2.0749910000086746
50
-90.00024851
51
-0.00016568
0
ARC
8
BLACK
10
124.0769999999999982
20
-81.0999999999999943
40
2.0749940000195179
50
-0.00016568
51
90.00024851
0
CIRCLE
8
BLACK
10
218.8125
20
-143.2249999999999943
40
1.
0
LINE
8
BLACK
6
CONTINUOUS
10
173.3644909999999868
20
-100.1500059999999905
11
173.3644909999999868
21
-110.1000059999999934
0
ARC
8
BLACK
10
275.4519999999999982
20
-72.
40
2.0750060000195178
50
-179.99980671
51
-90.00024851
0
ARC
8
BLACK
10
180.2019999999999982
20
-62.0499999999999972
40
2.0750090000086745
50
-269.99975149
51
-179.99983433
0
LINE
8
BLACK
6
CONTINUOUS
10
225.7519910000000039
20
-81.1000059999999934
11
225.7519910000000039
21
-91.0500059999999962
0
LINE
8
BLACK
6
CONTINUOUS
10
84.5019909999999896
20
-136.2750059999999905
11
95.9519909999999925
21
-136.2750059999999905
0
ARC
8
BLACK
10
275.4519999999999982
20
-62.0499999999999972
40
2.0750090000086745
50
-269.99972387
51
-179.99983433
0
ARC
8
BLACK
10
152.6519999999999868
20
-72.
40
2.0749910000086746
50
-90.00024851
51
-0.00016568
0
LINE
8
BLACK
6
CONTINUOUS
10
173.7769909999999811
20
-62.0500059999999962
11
173.7769909999999811
21
-72.0000059999999991
0
LINE
8
BLACK
6
CONTINUOUS
10
116.2144909999999953
20
-100.1500059999999905
11
116.2144909999999953
21
-110.1000059999999934
0
ARC
8
BLACK
10
62.1644999999999968
20
-129.1500000000000057
40
2.0749910000086746
50
-90.00024851
51
-0.00016568
0
LINE
8
BLACK
6
CONTINUOUS
10
147.8894909999999925
20
-112.1750059999999962
11
137.3394909999999811
21
-112.1750059999999962
0
ARC
8
BLACK
10
61.1394999999999982
20
-138.25
40
2.0750090000086745
50
-269.99975149
51
-179.99983433
0
ARC
8
BLACK
10
256.8928999999999974
20
-99.1722999999999928
40
1.0749280913423931
50
89.99888063
51
157.98051887
0
LINE
8
BLACK
6
CONTINUOUS
10
166.9394910000000039
20
-112.1750059999999962
11
156.3894909999999925
21
-112.1750059999999962
0
ARC
8
BLACK
10
95.5019999999999953
20
-72.
40
2.0749910000086746
50
-90.00024851
51
-0.00016568
0
ARC
8
BLACK
10
40.5835000000000008
20
-119.8245999999999896
40
1.4250340001266635
50
0.00136708
51
90.00076393
0
LINE
8
BLACK
6
CONTINUOUS
10
88.051991000000001
20
-81.1000059999999934
11
88.051991000000001
21
-91.0500059999999962
0
ARC
8
BLACK
10
162.1769999999999925
20
-81.0999999999999943
40
2.0749940000195179
50
-0.00016568
51
90.00024851
0
ARC
8
BLACK
10
256.4019999999999868
20
-72.
40
2.0750060000195178
50
-179.99980671
51
-90.00024851
0
ARC
8
BLACK
10
233.6144999999999925
20
-129.1500000000000057
40
2.0749910000086746
50
-90.00024851
51
-0.00016568
0
ARC
8
BLACK
10
61.1394999999999982
20
-100.1499999999999915
40
2.0750090000086745
50
-269.99975149
51
-179.99983433
0
ARC
8
BLACK
10
105.027000000000001
20
-91.0499999999999972
40
2.0749910000086746
50
-90.00024851
51
-0.00016568
0
LINE
8
BLACK
6
CONTINUOUS
10
130.9144909999999982
20
-100.1500059999999905
11
130.9144909999999982
21
-110.1000059999999934
0
ARC
8
BLACK
10
283.4710000000000036
20
-108.3753999999999991
40
1.4249810007424659
50
-90.00076392
51
-0.00184957
0
LINE
8
BLACK
6
CONTINUOUS
10
230.5144909999999925
20
-100.1500059999999905
11
230.5144909999999925
21
-110.1000059999999934
0
LINE
8
BLACK
6
CONTINUOUS
10
83.426991000000001
20
-149.1000059999999792
11
83.426991000000001
21
-137.3500060000000076
0
LINE
8
BLACK
6
CONTINUOUS
10
207.1144909999999868
20
-100.1500059999999905
11
207.1144909999999868
21
-110.1000059999999934
0
LINE
8
BLACK
6
CONTINUOUS
10
97.1644909999999982
20
-100.1500059999999905
11
97.1644909999999982
21
-110.1000059999999934
0
LINE
8
BLACK
6
CONTINUOUS
10
283.3144909999999754
20
-81.1000059999999934
11
283.3144909999999754
21
-91.0500059999999962
0
CIRCLE
8
BLACK
10
75.9375
20
-105.125
40
1.
0
ARC
8
BLACK
10
26.4457399999999971
20
-100.1499999999999915
40
2.0749940000002409
50
-0.00016567
51
89.99997239
0
ARC
8
BLACK
10
263.1499000000000024
20
-135.0903999999999883
40
1.9999000020703535
50
-270.00286486
51
-179.99739291
0
LINE
8
BLACK
6
CONTINUOUS
10
169.0144909999999925
20
-100.1500059999999905
11
169.0144909999999925
21
-110.1000059999999934
0
ARC
8
BLACK
10
264.7124999999999773
20
-92.575099999999992
40
0.4999
50
-180.01146026
51
-90.00000000
0
ARC
8
BLACK
10
61.1394999999999982
20
-110.0999999999999943
40
2.0750060000195178
50
-179.99983433
51
-90.00024851
0
CIRCLE
8
BLACK
10
6.9249999999999998
20
-86.0750000000000028
40
1.
0
ARC
8
BLACK
10
286.0020000000000095
20
-62.0499999999999972
40
2.0749940000195179
50
-0.00016568
51
90.00024851
0
ARC
8
BLACK
10
181.2270000000000039
20
-91.0499999999999972
40
2.0749910000086746
50
-90.00024851
51
-0.00016568
0
ARC
8
BLACK
10
81.214500000000001
20
-129.1500000000000057
40
2.0749910000086746
50
-90.00024851
51
-0.00016568
0
LINE
8
BLACK
6
CONTINUOUS
10
26.1394919999999971
20
-81.1000059999999934
11
26.1394919999999971
21
-91.0500059999999962
0
ARC
8
BLACK
10
156.3894999999999982
20
-100.1499999999999915
40
2.0750090000086745
50
-269.99975149
51
-179.99983433
0
ARC
8
BLACK
10
84.9519999999999982
20
-62.0499999999999972
40
2.0750090000086745
50
-269.99975149
51
-179.99983433
0
LINE
8
BLACK
6
CONTINUOUS
10
49.9519909999999996
20
-81.1000059999999934
11
49.9519909999999996
21
-91.0500059999999962
0
LINE
8
BLACK
6
CONTINUOUS
10
228.8519909999999982
20
-74.0750060000000019
11
218.3019909999999868
21
-74.0750060000000019
0
ARC
8
BLACK
10
62.1644999999999968
20
-119.1999999999999886
40
2.0749940000195179
50
-0.00016568
51
90.00024851
0
LINE
8
BLACK
6
CONTINUOUS
10
178.1269910000000039
20
-62.0500059999999962
11
178.1269910000000039
21
-72.0000059999999991
0
LINE
8
BLACK
6
CONTINUOUS
10
81.2144909999999953
20
-131.2250060000000076
11
70.6644909999999982
21
-131.2250060000000076
0
LINE
8
BLACK
6
CONTINUOUS
10
181.2269909999999982
20
-79.0250059999999905
11
170.6769909999999868
21
-79.0250059999999905
0
LINE
8
BLACK
6
CONTINUOUS
10
257.4269909999999868
20
-136.1750059999999962
11
246.8769909999999754
21
-136.1750059999999962
0
CIRCLE
8
BLACK
10
223.5749999999999886
20
-86.0750000000000028
40
1.
0
LINE
8
BLACK
6
CONTINUOUS
10
219.3269909999999925
20
-93.1250059999999991
11
208.7769909999999811
21
-93.1250059999999991
0
LINE
8
BLACK
6
CONTINUOUS
10
166.9394910000000039
20
-98.0750060000000019
11
156.3894909999999925
21
-98.0750060000000019
0
LINE
8
BLACK
6
CONTINUOUS
10
111.864491000000001
20
-100.1500059999999905
11
111.864491000000001
21
-110.1000059999999934
0
LINE
8
BLACK
6
CONTINUOUS
10
282.605370999999991
20
-99.3495659999999958
11
283.4709809999999948
21
-99.3495659999999958
0
LINE
8
BLACK
6
CONTINUOUS
10
149.5519909999999868
20
-81.1000059999999934
11
149.5519909999999868
21
-91.0500059999999962
0
ARC
8
BLACK
10
214.5644999999999811
20
-129.1500000000000057
40
2.0749910000086746
50
-90.00024851
51
-0.00016568
0
ARC
8
BLACK
10
40.1794999999999973
20
-130.5755000000000052
40
1.7250266451266774
50
90.00195965
51
159.45116601
0
LINE
8
BLACK
6
CONTINUOUS
10
62.1644909999999982
20
-131.2250060000000076
11
51.614491000000001
21
-131.2250060000000076
0
LINE
8
BLACK
6
CONTINUOUS
10
128.8394909999999811
20
-98.0750060000000019
11
118.2894909999999982
21
-98.0750060000000019
0
LINE
8
BLACK
6
CONTINUOUS
10
238.3769909999999754
20
-79.0250059999999905
11
227.8269909999999925
21
-79.0250059999999905
0
ARC
8
BLACK
10
218.3019999999999925
20
-62.0499999999999972
40
2.0750090000086745
50
-269.99975149
51
-179.99983433
0
LINE
8
BLACK
6
CONTINUOUS
10
261.8832409999999982
20
-119.2000059999999877
11
261.8832409999999982
21
-129.1500059999999905
0
LINE
8
BLACK
6
CONTINUOUS
10
192.4144909999999982
20
-100.1500059999999905
11
192.4144909999999982
21
-110.1000059999999934
0
LINE
8
BLACK
6
CONTINUOUS
10
76.4519909999999925
20
-74.0750060000000019
11
65.9019909999999953
21
-74.0750060000000019
0
ARC
8
BLACK
10
51.6144999999999996
20
-129.1500000000000057
40
2.0750060000195178
50
-179.99983433
51
-90.00024851
0
LINE
8
BLACK
6
CONTINUOUS
10
286.0019909999999754
20
-74.0750060000000019
11
275.4519909999999641
21
-74.0750060000000019
0
LINE
8
BLACK
6
CONTINUOUS
10
54.301991000000001
20
-81.1000059999999934
11
54.301991000000001
21
-91.0500059999999962
0
ARC
8
BLACK
10
47.8769999999999953
20
-138.25
40
2.0749940000291565
50
-0.00016568
51
90.00030374
0
ARC
8
BLACK
10
84.5019999999999953
20
-149.0999999999999943
40
1.075006000037674
50
-179.99968021
51
-90.00047968
0
LINE
8
BLACK
6
CONTINUOUS
10
214.5644910000000039
20
-117.1250059999999991
11
204.0144909999999925
21
-117.1250059999999991
0
LINE
8
BLACK
6
CONTINUOUS
10
90.739491000000001
20
-98.0750060000000019
11
80.1894909999999896
21
-98.0750060000000019
0
ARC
8
BLACK
10
185.9894999999999925
20
-100.1499999999999915
40
2.0749940000195179
50
-0.00016568
51
90.00024851
0
LINE
8
BLACK
6
CONTINUOUS
10
190.7519910000000039
20
-74.0750060000000019
11
180.2019909999999925
21
-74.0750060000000019
0
LINE
8
BLACK
6
CONTINUOUS
10
133.6019909999999982
20
-74.0750060000000019
11
123.051991000000001
21
-74.0750060000000019
0
ARC
8
BLACK
10
142.1020000000000039
20
-148.1999999999999886
40
2.0750060000195178
50
-179.99983433
51
-90.00024851
0
LINE
8
BLACK
6
CONTINUOUS
10
247.9019909999999811
20
-59.9750060000000005
11
237.3519909999999982
21
-59.9750060000000005
0
LINE
8
BLACK
6
CONTINUOUS
10
181.2269909999999982
20
-93.1250059999999991
11
170.6769909999999868
21
-93.1250059999999991
0
LINE
8
BLACK
6
CONTINUOUS
10
206.7019909999999925
20
-81.1000059999999934
11
206.7019909999999925
21
-91.0500059999999962
0
LINE
8
BLACK
6
CONTINUOUS
10
185.9894909999999868
20
-112.1750059999999962
11
175.4394910000000039
21
-112.1750059999999962
0
LINE
8
BLACK
6
CONTINUOUS
10
66.926991000000001
20
-93.1250059999999991
11
56.3769909999999967
21
-93.1250059999999991
0
LINE
8
BLACK
6
CONTINUOUS
10
205.0394909999999982
20
-98.0750060000000019
11
194.4894909999999868
21
-98.0750060000000019
0
LINE
8
BLACK
6
CONTINUOUS
10
257.4269909999999868
20
-150.2750059999999905
11
246.8769909999999754
21
-150.2750059999999905
0
LINE
8
BLACK
6
CONTINUOUS
10
243.1394909999999925
20
-98.0750060000000019
11
232.5894909999999811
21
-98.0750060000000019
0
ARC
8
BLACK
10
89.714500000000001
20
-129.1500000000000057
40
2.0750060000195178
50
-179.99983433
51
-90.00024851
0
ARC
8
BLACK
10
228.8519999999999754
20
-62.0499999999999972
40
2.0749940000195179
50
-0.00016568
51
90.00024851
0
ARC
8
BLACK
10
90.7394999999999925
20
-110.0999999999999943
40
2.0749910000086746
50
-90.00024851
51
-0.00016568
0
ARC
8
BLACK
10
189.7270000000000039
20
-81.0999999999999943
40
2.0750090000086745
50
-269.99975149
51
-179.99983433
0
ARC
8
BLACK
10
171.7019999999999982
20
-72.
40
2.0749910000086746
50
-90.00024851
51
-0.00016568
0
ARC
8
BLACK
10
184.9644999999999868
20
-119.1999999999999886
40
2.0750090000086745
50
-269.99975149
51
-179.99983433
0
ARC
8
BLACK
10
171.7019999999999982
20
-62.0499999999999972
40
2.0749940000195179
50
-0.00016568
51
90.00024851
0
LINE
8
BLACK
6
CONTINUOUS
10
28.5207409999999975
20
-100.1500059999999905
11
28.5207409999999975
21
-110.1000059999999934
0
ARC
8
BLACK
10
254.1701999999999941
20
-100.7745999999999924
40
1.4250990004055859
50
90.00398045
51
179.99863304
0
LINE
8
BLACK
6
CONTINUOUS
10
49.9519889999999975
20
-138.2500059999999849
11
49.9519889999999975
21
-148.2000060000000019
0
ARC
8
BLACK
10
233.6144999999999925
20
-119.1999999999999886
40
2.0749940000195179
50
-0.00016568
51
90.00024851
0
ARC
8
BLACK
10
259.1499000000000024
20
-150.25
40
2.0000999999999998
50
-89.99713528
51
-0.00000000
0
ARC
8
BLACK
10
162.1769999999999925
20
-91.0499999999999972
40
2.0749910000086746
50
-90.00024851
51
-0.00016568
0
LINE
8
BLACK
6
CONTINUOUS
10
47.8769909999999967
20
-79.0250059999999905
11
37.3269909999999996
21
-79.0250059999999905
0
LINE
8
BLACK
6
CONTINUOUS
10
78.5269909999999953
20
-62.0500059999999962
11
78.5269909999999953
21
-72.0000059999999991
0
ARC
8
BLACK
10
119.3144999999999953
20
-129.1500000000000057
40
2.0749910000086746
50
-90.00024851
51
-0.00016568
0
LINE
8
BLACK
6
CONTINUOUS
10
163.8394909999999811
20
-119.2000059999999877
11
163.8394909999999811
21
-129.1500059999999905
0
LINE
8
BLACK
6
CONTINUOUS
10
24.0644910000000003
20
-79.0250059999999905
11
13.5144909999999996
21
-79.0250059999999905
0
ARC
8
BLACK
10
238.3769999999999811
20
-81.0999999999999943
40
2.0749940000195179
50
-0.00016568
51
90.00024851
0
ARC
8
BLACK
10
257.4269999999999641
20
-138.25
40
2.0749940000195179
50
-0.00016568
51
90.00024851
0
ARC
8
BLACK
10
109.7894999999999897
20
-110.0999999999999943
40
2.0749910000086746
50
-90.00024851
51
-0.00016568
0
LINE
8
BLACK
6
CONTINUOUS
10
286.0019909999999754
20
-117.1250059999999991
11
275.4519899999999666
21
-117.1250059999999991
0
CIRCLE
8
BLACK
10
218.8125
20
-124.1749999999999972
40
1.
0
LINE
8
BLACK
6
CONTINUOUS
10
233.6144909999999868
20
-131.2250060000000076
11
223.0644910000000039
21
-131.2250060000000076
0
ARC
8
BLACK
10
259.8081999999999994
20
-129.1500000000000057
40
2.0750410000086745
50
-89.99886789
51
-0.00016567
0
LINE
8
BLACK
6
CONTINUOUS
10
268.6144909999999868
20
-81.1000059999999934
11
268.6144909999999868
21
-91.0500069999999937
0
CIRCLE
8
BLACK
10
104.5124999999999886
20
-124.1749999999999972
40
1.
0
ARC
8
BLACK
10
137.3394999999999868
20
-110.0999999999999943
40
2.0750060000195178
50
-179.99983433
51
-90.00024851
0
LINE
8
BLACK
6
CONTINUOUS
10
135.6769909999999868
20
-62.0500059999999962
11
135.6769909999999868
21
-72.0000059999999991
0
ARC
8
BLACK
10
286.0020000000000095
20
-119.1999999999999886
40
2.0749940000195179
50
-0.00016568
51
90.00024851
0
CIRCLE
8
BLACK
10
47.3624999999999972
20
-124.1749999999999972
40
1.
0
LINE
8
BLACK
6
CONTINUOUS
10
157.4144909999999982
20
-117.1250059999999991
11
146.8644909999999868
21
-117.1250059999999991
0
LINE
8
BLACK
6
CONTINUOUS
10
64.239491000000001
20
-119.2000059999999877
11
64.239491000000001
21
-129.1500059999999905
0
LINE
8
BLACK
6
CONTINUOUS
10
266.2124999999999773
20
-80.8070510000000013
11
266.2124999999999773
21
-92.5750000000000028
0
LINE
8
BLACK
6
CONTINUOUS
10
35.2519909999999967
20
-81.1000059999999934
11
35.2519909999999967
21
-91.0500059999999962
0
LINE
8
BLACK
6
CONTINUOUS
10
233.6144909999999868
20
-150.2750059999999905
11
223.0644910000000039
21
-150.2750059999999905
0
LINE
8
BLACK
6
CONTINUOUS
10
171.7019909999999925
20
-74.0750060000000019
11
161.1519909999999811
21
-74.0750060000000019
0
ARC
8
BLACK
10
200.2769999999999868
20
-81.0999999999999943
40
2.0749940000195179
50
-0.00016568
51
90.00024851
0
LINE
8
BLACK
6
CONTINUOUS
10
140.0269909999999811
20
-62.0500059999999962
11
140.0269909999999811
21
-72.0000059999999991
0
LINE
8
BLACK
6
CONTINUOUS
10
238.3769909999999754
20
-93.1250059999999991
11
227.8269909999999925
21
-93.1250059999999991
0
ARC
8
BLACK
10
84.5019999999999953
20
-137.3499999999999943
40
1.075009000016744
50
-269.99952031
51
-179.99968021
0
LINE
8
BLACK
6
CONTINUOUS
10
252.7451009999999769
20
-108.3754459999999966
11
252.7451009999999769
21
-100.774565999999993
0
LINE
8
BLACK
6
CONTINUOUS
10
124.0769909999999925
20
-93.1250059999999991
11
113.5269909999999953
21
-93.1250059999999991
0
ARC
8
BLACK
10
29.0374999999999979
20
-92.575099999999992
40
0.4999
50
-180.01146026
51
-90.00000000
0
LINE
8
BLACK
6
CONTINUOUS
10
30.5374999999999979
20
-80.8070510000000013
11
30.5374999999999979
21
-92.5750000000000028
0
LINE
8
BLACK
6
CONTINUOUS
10
259.8082410000000095
20
-117.1250059999999991
11
249.2582400000000007
21
-117.1250059999999991
0
ARC
8
BLACK
10
85.9769999999999897
20
-91.0499999999999972
40
2.0749910000086746
50
-90.00024851
51
-0.00016568
0
ARC
8
BLACK
10
208.7769999999999868
20
-81.0999999999999943
40
2.0750090000086745
50
-269.99975149
51
-179.99983433
0
ARC
8
BLACK
10
124.0769999999999982
20
-91.0499999999999972
40
2.0749910000086746
50
-90.00024851
51
-0.00016568
0
ARC
8
BLACK
10
105.027000000000001
20
-81.0999999999999943
40
2.0749940000195179
50
-0.00016568
51
90.00024851
0
ARC
8
BLACK
10
19.3019999999999996
20
-72.
40
2.0749910000086746
50
-90.00024851
51
-0.00016568
0
ARC
8
BLACK
10
247.9019999999999868
20
-72.
40
2.0749910000086746
50
-90.00024851
51
-0.00016568
0
LINE
8
BLACK
6
CONTINUOUS
10
97.0269909999999953
20
-137.3500060000000076
11
97.0269909999999953
21
-149.1000059999999792
0
LINE
8
BLACK
6
CONTINUOUS
10
145.2019909999999925
20
-81.1000059999999934
11
145.2019909999999925
21
-91.0500059999999962
0
LINE
8
BLACK
6
CONTINUOUS
10
54.7144909999999953
20
-100.1500059999999905
11
54.7144909999999953
21
-110.1000059999999934
0
ARC
8
BLACK
10
99.2394999999999925
20
-110.0999999999999943
40
2.0750060000195178
50
-179.99983433
51
-90.00024851
0
LINE
8
BLACK
6
CONTINUOUS
10
224.0894909999999811
20
-112.1750059999999962
11
213.5394909999999982
21
-112.1750059999999962
0
LINE
8
BLACK
6
CONTINUOUS
10
105.0269909999999953
20
-79.0250059999999905
11
94.4769909999999982
21
-79.0250059999999905
0
LINE
8
BLACK
6
CONTINUOUS
10
19.3019909999999975
20
-59.9750060000000005
11
8.7519910000000003
21
-59.9750060000000005
0
LINE
8
BLACK
6
CONTINUOUS
10
263.1499999999999773
20
-133.0904909999999859
11
287.75
21
-133.0904909999999859
0
CIRCLE
8
BLACK
10
252.1499999999999773
20
-67.0249999999999915
40
1.
0
ARC
8
BLACK
10
142.1020000000000039
20
-62.0499999999999972
40
2.0750090000086745
50
-269.99975149
51
-179.99983433
0
ARC
8
BLACK
10
119.3144999999999953
20
-119.1999999999999886
40
2.0749940000195179
50
-0.00016568
51
90.00024851
0
ARC
8
BLACK
10
286.0020000000000095
20
-72.
40
2.0749910000086746
50
-90.00024851
51
-0.00016568
0
ARC
8
BLACK
10
254.1700999999999908
20
-108.3754999999999882
40
1.4249460000003509
50
-180.00217121
51
-89.99995979
0
LINE
8
BLACK
6
CONTINUOUS
10
107.1019909999999982
20
-81.1000059999999934
11
107.1019909999999982
21
-91.0500059999999962
0
ARC
8
BLACK
10
138.3644999999999925
20
-119.1999999999999886
40
2.0749940000195179
50
-0.00016568
51
90.00024851
0
ARC
8
BLACK
10
142.1020000000000039
20
-138.25
40
2.0750090000086745
50
-269.99975149
51
-179.99983433
0
LINE
8
BLACK
6
CONTINUOUS
10
11.1483039999999995
20
-107.5048599999999936
11
9.0483039999999999
21
-107.5048599999999936
0
LINE
8
BLACK
6
CONTINUOUS
10
157.4144909999999982
20
-131.2250060000000076
11
146.8644909999999868
21
-131.2250060000000076
0
ARC
8
BLACK
10
283.4710000000000036
20
-100.7744999999999891
40
1.4249340001266724
50
-0.00265373
51
90.00076398
0
ARC
8
BLACK
10
257.4269999999999641
20
-81.0999999999999943
40
2.0749940000195179
50
-0.00016568
51
90.00024851
0
LINE
8
BLACK
6
CONTINUOUS
10
11.2826009999999997
20
-118.399565999999993
11
12.1482109999999999
21
-118.399565999999993
0
LINE
8
BLACK
6
CONTINUOUS
10
220.9894909999999868
20
-119.2000059999999877
11
220.9894909999999868
21
-129.1500059999999905
0
ARC
8
BLACK
10
13.5145
20
-91.0499999999999972
40
2.0750060000195178
50
-179.99980671
51
-90.00024851
0
LINE
8
BLACK
6
CONTINUOUS
10
273.3769909999999754
20
-119.2000059999999877
11
273.3769909999999754
21
-129.150006999999988
0
ARC
8
BLACK
10
143.1269999999999811
20
-91.0499999999999972
40
2.0749910000086746
50
-90.00024851
51
-0.00016568
0
LINE
8
BLACK
6
CONTINUOUS
10
114.551991000000001
20
-59.9750060000000005
11
104.0019909999999896
21
-59.9750060000000005
0
LINE
8
BLACK
6
CONTINUOUS
10
52.6394909999999996
20
-98.0750060000000019
11
42.0894909999999953
21
-98.0750060000000019
0
CIRCLE
8
BLACK
10
137.8499999999999943
20
-67.0249999999999915
40
1.
0
LINE
8
BLACK
6
CONTINUOUS
10
97.5769909999999925
20
-62.0500059999999962
11
97.5769909999999925
21
-72.0000059999999991
0
ARC
8
BLACK
10
37.3269999999999982
20
-138.25
40
2.0750110000240962
50
-269.99980671
51
-179.99972388
0
ARC
8
BLACK
10
190.7519999999999811
20
-62.0499999999999972
40
2.0749940000195179
50
-0.00016568
51
90.00024851
0
LINE
8
BLACK
6
CONTINUOUS
10
257.4269909999999868
20
-79.0250059999999905
11
246.8769909999999754
21
-79.0250059999999905
0
LINE
8
BLACK
6
CONTINUOUS
10
211.3269909999999925
20
-137.3500060000000076
11
211.3269909999999925
21
-149.1000059999999792
0
ARC
8
BLACK
10
85.9769999999999897
20
-81.0999999999999943
40
2.0749940000195179
50
-0.00016568
51
90.00024851
0
ARC
8
BLACK
10
233.6144999999999925
20
-138.25
40
2.0749940000195179
50
-0.00016568
51
90.00024851
0
ARC
8
BLACK
10
165.9145000000000039
20
-129.1500000000000057
40
2.0750060000195178
50
-179.99983433
51
-90.00024851
0
CIRCLE
8
BLACK
10
75.9375
20
-143.2249999999999943
40
1.
0
LINE
8
BLACK
6
CONTINUOUS
10
197.5894909999999811
20
-119.2000059999999877
11
197.5894909999999811
21
-129.1500059999999905
0
ARC
8
BLACK
10
123.0519999999999925
20
-72.
40
2.0750060000195178
50
-179.99983433
51
-90.00024851
0
LINE
8
BLACK
6
CONTINUOUS
10
83.2894909999999982
20
-119.2000059999999877
11
83.2894909999999982
21
-129.1500059999999905
0
ARC
8
BLACK
10
283.0670000000000073
20
-111.5254999999999939
40
1.7250266451266774
50
90.00195965
51
159.45116601
0
LINE
8
BLACK
6
CONTINUOUS
10
230.9269909999999868
20
-62.0500059999999962
11
230.9269909999999868
21
-72.0000059999999991
0
LINE
8
BLACK
6
CONTINUOUS
10
105.0269909999999953
20
-93.1250059999999991
11
94.4769909999999982
21
-93.1250059999999991
0
LINE
8
BLACK
6
CONTINUOUS
10
24.0644910000000003
20
-93.1250059999999991
11
13.5144909999999996
21
-93.1250059999999991
0
LINE
8
BLACK
6
CONTINUOUS
10
159.0769909999999925
20
-62.0500059999999962
11
159.0769909999999925
21
-72.0000059999999991
0
LINE
8
BLACK
6
CONTINUOUS
10
69.0019910000000039
20
-81.1000059999999934
11
69.0019910000000039
21
-91.0500059999999962
0
LINE
8
BLACK
6
CONTINUOUS
10
171.7019909999999925
20
-59.9750060000000005
11
161.1519909999999811
21
-59.9750060000000005
0
ARC
8
BLACK
10
175.4394999999999811
20
-100.1499999999999915
40
2.0750090000086745
50
-269.99975149
51
-179.99983433
0
ARC
8
BLACK
10
265.2124999999999773
20
-79.0750000000000028
40
2.0000001666502429
50
-420.00000276
51
-119.99999724
0
CIRCLE
8
BLACK
10
287.8249999999999886
20
-105.125
40
1.
0
LINE
8
BLACK
6
CONTINUOUS
10
95.9519909999999925
20
-150.1750059999999962
11
84.5019909999999896
21
-150.1750059999999962
0
ARC
8
BLACK
10
95.5019999999999953
20
-62.0499999999999972
40
2.0749940000195179
50
-0.00016568
51
90.00024851
0
ARC
8
BLACK
10
100.2644999999999982
20
-119.1999999999999886
40
2.0749940000195179
50
-0.00016568
51
90.00024851
0
ARC
8
BLACK
10
42.089500000000001
20
-110.0999999999999943
40
2.0750060000195178
50
-179.99983433
51
-90.00024851
0
ARC
8
BLACK
10
52.6394999999999982
20
-110.0999999999999943
40
2.0749910000086746
50
-90.00024851
51
-0.00016568
0
LINE
8
BLACK
6
CONTINUOUS
10
19.3019909999999975
20
-74.0750060000000019
11
8.7519910000000003
21
-74.0750060000000019
0
ARC
8
BLACK
10
108.7644999999999982
20
-119.1999999999999886
40
2.0750090000086745
50
-269.99975149
51
-179.99983433
0
ARC
8
BLACK
10
227.8269999999999982
20
-91.0499999999999972
40
2.0750060000195178
50
-179.99983433
51
-90.00024851
0
LINE
8
BLACK
6
CONTINUOUS
10
152.6519909999999811
20
-150.2750059999999905
11
142.1019909999999982
21
-150.2750059999999905
0
ARC
8
BLACK
10
31.5999999999999979
20
-135.0904999999999916
40
2.0000110000002498
50
0.00031513
51
89.99997135
0
LINE
8
BLACK
6
CONTINUOUS
10
261.1499999999999773
20
-150.25
11
261.1499999999999773
21
-135.0904909999999859
0
LINE
8
BLACK
6
CONTINUOUS
10
254.1701009999999883
20
-99.3495659999999958
11
255.0357109999999921
21
-99.3495659999999958
0
LINE
8
BLACK
6
CONTINUOUS
10
100.2644909999999925
20
-131.2250060000000076
11
89.7144909999999953
21
-131.2250060000000076
0
ARC
8
BLACK
10
71.6894999999999953
20
-100.1499999999999915
40
2.0749940000195179
50
-0.00016568
51
90.00024851
0
ARC
8
BLACK
10
257.9450999999999681
20
-110.2617999999999938
40
1.8751160009282091
50
-159.44984870
51
-90.00180280
0
ARC
8
BLACK
10
127.8144999999999953
20
-129.1500000000000057
40
2.0750060000195178
50
-179.99983433
51
-90.00024851
0
ARC
8
BLACK
10
24.0644999999999989
20
-81.0999999999999943
40
2.0749940000195179
50
-0.00016568
51
90.00024851
0
LINE
8
BLACK
6
CONTINUOUS
10
109.7894909999999982
20
-112.1750059999999962
11
99.239491000000001
21
-112.1750059999999962
0
ARC
8
BLACK
10
15.89574
20
-100.1500099999999946
40
2.0749990000038552
50
90.00000000
51
179.99988955
0
ARC
8
BLACK
10
275.4519999999999982
20
-119.1999999999999886
40
2.0750090000086745
50
-269.99972387
51
-179.99983433
0
ARC
8
BLACK
10
9.0482199999999988
20
-103.9047699999999992
40
0.9999160040503402
50
-270.00481324
51
-179.99484295
0
LINE
8
BLACK
6
CONTINUOUS
10
140.0269909999999811
20
-138.2500059999999849
11
140.0269909999999811
21
-148.2000060000000019
0
LINE
8
BLACK
6
CONTINUOUS
10
82.8769909999999896
20
-62.0500059999999962
11
82.8769909999999896
21
-72.0000059999999991
0
ARC
8
BLACK
10
199.2519999999999811
20
-72.
40
2.0750060000195178
50
-179.99983433
51
-90.00024851
0
ARC
8
BLACK
10
9.0482999999999993
20
-106.5048999999999921
40
0.9999600000080002
50
-180.00229183
51
-89.99977081
0
ARC
8
BLACK
10
224.0894999999999868
20
-100.1499999999999915
40
2.0749940000195179
50
-0.00016568
51
90.00024851
0
LINE
8
BLACK
6
CONTINUOUS
10
211.4644909999999811
20
-100.1500059999999905
11
211.4644909999999811
21
-110.1000059999999934
0
ARC
8
BLACK
10
157.4145000000000039
20
-129.1500000000000057
40
2.0749910000086746
50
-90.00024851
51
-0.00016568
0
ARC
8
BLACK
10
146.8644999999999925
20
-129.1500000000000057
40
2.0750060000195178
50
-179.99983433
51
-90.00024851
0
ARC
8
BLACK
10
198.8019999999999925
20
-137.3499999999999943
40
1.075009000016744
50
-269.99952031
51
-179.99968021
0
ARC
8
BLACK
10
15.0575499999999991
20
-129.3119599999999991
40
1.8749560000216003
50
-159.45389059
51
-90.00027503
0
LINE
8
BLACK
6
CONTINUOUS
10
235.6894909999999754
20
-138.2500059999999849
11
235.6894909999999754
21
-148.2000060000000019
0
ARC
8
BLACK
10
14.0053999999999998
20
-118.2223999999999933
40
1.0749655875222237
50
89.99888073
51
157.97557765
0
ARC
8
BLACK
10
195.5144999999999982
20
-119.1999999999999886
40
2.0749940000195179
50
-0.00016568
51
90.00024851
0
ARC
8
BLACK
10
152.6519999999999868
20
-138.25
40
2.0749940000195179
50
-0.00016568
51
90.00024851
0
ARC
8
BLACK
10
265.7124000000000024
20
-92.5750000000000028
40
0.5001
50
-89.98854194
51
-0.00000000
0
ARC
8
BLACK
10
47.8769999999999953
20
-91.0499999999999972
40
2.0749910000086746
50
-90.00024851
51
-0.00016568
0
LINE
8
BLACK
6
CONTINUOUS
10
28.5374999999999979
20
-92.5750000000000028
11
28.5374999999999979
21
-80.8070510000000013
0
LINE
8
BLACK
6
CONTINUOUS
10
30.0374999999999979
20
-93.0750000000000028
11
29.0374999999999979
21
-93.0750000000000028
0
ARC
8
BLACK
10
243.1394999999999982
20
-100.1499999999999915
40
2.0749940000195179
50
-0.00016568
51
90.00024851
0
ARC
8
BLACK
10
15.89574
20
-110.0999999999999943
40
2.0750060000002408
50
-179.99980671
51
-89.99997239
0
ARC
8
BLACK
10
143.1269999999999811
20
-81.0999999999999943
40
2.0749940000195179
50
-0.00016568
51
90.00024851
0
LINE
8
BLACK
6
CONTINUOUS
10
254.5741409999999973
20
-109.8004459999999938
11
254.1701009999999883
21
-109.8004459999999938
0
LINE
8
BLACK
6
CONTINUOUS
10
214.5644910000000039
20
-131.2250060000000076
11
204.0144909999999925
21
-131.2250060000000076
0
ARC
8
BLACK
10
95.9519999999999982
20
-149.0999999999999943
40
1.0749910000167442
50
-90.00047968
51
-0.00031979
0
ARC
8
BLACK
10
232.5894999999999868
20
-110.0999999999999943
40
2.0750060000195178
50
-179.99983433
51
-90.00024851
0
LINE
8
BLACK
6
CONTINUOUS
10
78.114491000000001
20
-100.1500059999999905
11
78.114491000000001
21
-110.1000059999999934
0
LINE
8
BLACK
6
CONTINUOUS
10
289.75
20
-131.0904909999999859
11
289.75
21
-60.
0
ARC
8
BLACK
10
80.1894999999999953
20
-100.1499999999999915
40
2.0750090000086745
50
-269.99975149
51
-179.99983433
0
LINE
8
BLACK
6
CONTINUOUS
10
254.3269909999999925
20
-62.0500059999999962
11
254.3269909999999925
21
-72.0000069999999965
0
LINE
8
BLACK
6
CONTINUOUS
10
152.6519909999999811
20
-74.0750060000000019
11
142.1019909999999982
21
-74.0750060000000019
0
LINE
8
BLACK
6
CONTINUOUS
10
244.8019909999999868
20
-81.1000059999999934
11
244.8019909999999868
21
-91.0500059999999962
0
CIRCLE
8
BLACK
10
190.2374999999999829
20
-105.125
40
1.
0
LINE
8
BLACK
6
CONTINUOUS
10
226.1644909999999982
20
-100.1500059999999905
11
226.1644909999999982
21
-110.1000059999999934
0
LINE
8
BLACK
6
CONTINUOUS
10
9.8576009999999989
20
-127.4254459999999938
11
9.8576009999999989
21
-119.8245659999999901
0
ARC
8
BLACK
10
65.902000000000001
20
-62.0499999999999972
40
2.0750090000086745
50
-269.99975149
51
-179.99983433
0
LINE
8
BLACK
6
CONTINUOUS
10
162.1769909999999868
20
-93.1250059999999991
11
151.6269910000000039
21
-93.1250059999999991
0
LINE
8
BLACK
6
CONTINUOUS
10
195.5144909999999925
20
-131.2250060000000076
11
184.9644909999999811
21
-131.2250060000000076
0
ARC
8
BLACK
10
66.9269999999999925
20
-91.0499999999999972
40
2.0749910000086746
50
-90.00024851
51
-0.00016568
0
ARC
8
BLACK
10
181.2270000000000039
20
-81.0999999999999943
40
2.0749940000195179
50
-0.00016568
51
90.00024851
0
LINE
8
BLACK
6
CONTINUOUS
10
197.1769909999999868
20
-62.0500059999999962
11
197.1769909999999868
21
-72.0000059999999991
0
LINE
8
BLACK
6
CONTINUOUS
10
95.5019909999999896
20
-59.9750060000000005
11
84.9519909999999925
21
-59.9750060000000005
0
ARC
8
BLACK
10
27.8019999999999996
20
-72.
40
2.0750060000195178
50
-179.99983433
51
-90.00024851
0
ARC
8
BLACK
10
259.8082999999999743
20
-119.1998999999999995
40
2.0748940008388379
50
-0.00292700
51
90.00162922
0
ARC
8
BLACK
10
223.0644999999999811
20
-129.1500000000000057
40
2.0750060000195178
50
-179.99983433
51
-90.00024851
0
ARC
8
BLACK
10
157.4145000000000039
20
-119.1999999999999886
40
2.0749940000195179
50
-0.00016568
51
90.00024851
0
ARC
8
BLACK
10
61.1394999999999982
20
-148.1999999999999886
40
2.0750060000195178
50
-179.99983433
51
-90.00024851
0
LINE
8
BLACK
6
CONTINUOUS
10
176.4644909999999811
20
-117.1250059999999991
11
165.9144909999999982
21
-117.1250059999999991
0
LINE
8
BLACK
6
CONTINUOUS
10
187.6519909999999811
20
-81.1000059999999934
11
187.6519909999999811
21
-91.0500059999999962
0
LINE
8
BLACK
6
CONTINUOUS
10
59.4769909999999982
20
-62.0500059999999962
11
59.4769909999999982
21
-72.0000059999999991
0
LINE
8
BLACK
6
CONTINUOUS
10
228.8519909999999982
20
-59.9750060000000005
11
218.3019909999999868
21
-59.9750060000000005
0
ARC
8
BLACK
10
170.6769999999999925
20
-91.0499999999999972
40
2.0750060000195178
50
-179.99983433
51
-90.00024851
0
ARC
8
BLACK
10
94.4769999999999897
20
-91.0499999999999972
40
2.0750060000195178
50
-179.99983433
51
-90.00024851
0
LINE
8
BLACK
6
CONTINUOUS
10
183.3019909999999868
20
-81.1000059999999934
11
183.3019909999999868
21
-91.0500059999999962
0
LINE
8
BLACK
6
CONTINUOUS
10
273.3769909999999754
20
-62.0500059999999962
11
273.3769909999999754
21
-72.0000069999999965
0
LINE
8
BLACK
6
CONTINUOUS
10
35.6000009999999989
20
-152.25
11
259.1499999999999773
21
-152.25
  0
ENDSEC
  0
EOF
