  0
SECTION
  2
HEADER
  9
$ANGBASE
  50
0.0
  9
$ANGDIR
  70
1
  9
$MEASUREMENT
  70
1
  0
ENDSEC
  0
SECTION
  2
TABLES
  0
TABLE
  2
LTYPE
  70
4
  0
LTYPE
  5
40F
  2
CONTINUOUS
  70
0
  3
Solid line
  72
65
  73
0
  40
0.0
  0
LTYPE
  5
410
  2
DASHDOT
 70
0
  3
Dash Dot ____ _ ____ _
 72
65
 73
4
 40
2.0
 49
1.25
 49
-0.25
 49
0.25
 49
-0.25
  0
LTYPE
  5
411
  2
DASHED
 70
0
  3
Dashed __ __ __ __ __
 72
65
 73
2
 40
0.75
 49
0.5
 49
-0.25
  0
LTYPE
  5
43B
  2
DOTTED
 70
0
  3
Dotted .  .  .  .
 72
65
 73
2
 40
0.2
 49
0.0
 49
-0.2
  0
ENDTAB
  0
TABLE
  2
STYLE
  70
4
  0
STYLE
  2
KICAD
  70
0
  40
0
  41
1
  42
1
  50
0
  71
0
  3
isocp.shx
  0
STYLE
  2
KICADB
  70
0
  40
0
  41
1
  42
1
  50
0
  71
0
  3
isocp.shx
  0
STYLE
  2
KICADI
  70
0
  40
0
  41
1
  42
1
  50
15
  71
0
  3
isocp.shx
  0
STYLE
  2
KICADBI
  70
0
  40
0
  41
1
  42
1
  50
15
  71
0
  3
isocp.shx
  0
ENDTAB
  0
TABLE
  2
LAYER
  70
1
  0
LAYER
  2
BLACK
  70
0
  62
7
  6
CONTINUOUS
  0
ENDTAB
  0
ENDSEC
  0
SECTION
  2
ENTITIES
0
LINE
8
BLACK
6
CONTINUOUS
10
264.3125
20
-86.5
11
264.3125
21
-74.7320509999999985
0
ARC
8
BLACK
10
265.3125
20
-73.
40
2.0000001666502429
50
-420.00000276
51
-119.99999724
0
LINE
8
BLACK
6
CONTINUOUS
10
28.6374999999999993
20
-86.5
11
28.6374999999999993
21
-74.7320509999999985
0
ARC
8
BLACK
10
29.6374999999999993
20
-73.
40
2.0000001666502429
50
-420.00000276
51
-119.99999724
0
ARC
8
BLACK
10
93.2934999999999945
20
-128.6500130000000013
40
0.5000120000009999
50
0.00137510
51
89.99988541
0
LINE
8
BLACK
6
CONTINUOUS
10
87.293500999999992
20
-128.1500010000000032
11
93.293500999999992
21
-128.1500010000000032
0
ARC
8
BLACK
10
87.2934999999999945
20
-128.6500130000000013
40
0.4999990001440003
50
89.99988541
51
179.99862490
0
LINE
8
BLACK
6
CONTINUOUS
10
86.793500999999992
20
-142.6500000000000057
11
86.793500999999992
21
-128.6500010000000032
0
ARC
8
BLACK
10
87.2934999999999945
20
-142.6500130000000013
40
0.499987000001
50
-180.00148969
51
-89.99988541
0
LINE
8
BLACK
6
CONTINUOUS
10
93.293500999999992
20
-143.1500000000000057
11
87.293500999999992
21
-143.1500000000000057
0
ARC
8
BLACK
10
93.2934999999999945
20
-142.6500130000000013
40
0.5000010001689996
50
-89.99988541
51
0.00148969
0
LINE
8
BLACK
6
CONTINUOUS
10
93.793500999999992
20
-128.6500010000000032
11
93.793500999999992
21
-142.6500000000000057
0
ARC
8
BLACK
10
207.5934999999999775
20
-128.6500130000000013
40
0.5000120000009999
50
0.00137510
51
89.99988541
0
LINE
8
BLACK
6
CONTINUOUS
10
201.5935010000000034
20
-128.1500010000000032
11
207.5935010000000034
21
-128.1500010000000032
0
ARC
8
BLACK
10
201.5934999999999775
20
-128.6500130000000013
40
0.4999990001440003
50
89.99988541
51
179.99862490
0
LINE
8
BLACK
6
CONTINUOUS
10
201.0935010000000034
20
-142.6500000000000057
11
201.0935010000000034
21
-128.6500010000000032
0
ARC
8
BLACK
10
201.5934999999999775
20
-142.6500130000000013
40
0.499987000001
50
-180.00148969
51
-89.99988541
0
LINE
8
BLACK
6
CONTINUOUS
10
207.5935010000000034
20
-143.1500000000000057
11
201.5935010000000034
21
-143.1500000000000057
0
ARC
8
BLACK
10
207.5934999999999775
20
-142.6500130000000013
40
0.5000010001689996
50
-89.99988541
51
0.00148969
0
LINE
8
BLACK
6
CONTINUOUS
10
208.0935010000000034
20
-128.6500010000000032
11
208.0935010000000034
21
-142.6500000000000057
0
ARC
8
BLACK
10
157.7249999999999943
20
-130.6500130000000013
40
0.500000000169
50
90.00000000
51
179.99851031
0
LINE
8
BLACK
6
CONTINUOUS
10
157.2249999999999943
20
-143.6500000000000057
11
157.2249999999999943
21
-130.6500000000000057
0
ARC
8
BLACK
10
157.7249999999999943
20
-143.6500130000000013
40
0.499987
50
-180.00148969
51
-90.00000000
0
LINE
8
BLACK
6
CONTINUOUS
10
197.8434999999999775
20
-144.1500000000000057
11
157.7249999999999943
21
-144.1500000000000057
0
ARC
8
BLACK
10
197.8434999999999775
20
-143.6500130000000013
40
0.500000000169
50
-90.00000000
51
0.00148969
0
LINE
8
BLACK
6
CONTINUOUS
10
198.3434999999999775
20
-130.6500000000000057
11
198.3434999999999775
21
-143.6500000000000057
0
ARC
8
BLACK
10
197.8434999999999775
20
-130.6500130000000013
40
0.5000129999999999
50
0.00148969
51
90.00000000
0
LINE
8
BLACK
6
CONTINUOUS
10
157.7249999999999943
20
-130.1500000000000057
11
197.8434999999999775
21
-130.1500000000000057
0
ARC
8
BLACK
10
140.9749999999999943
20
-130.6500130000000013
40
0.500000000169
50
90.00000000
51
179.99851031
0
LINE
8
BLACK
6
CONTINUOUS
10
140.4749999999999943
20
-143.6500000000000057
11
140.4749999999999943
21
-130.6500000000000057
0
ARC
8
BLACK
10
140.9749999999999943
20
-143.6500130000000013
40
0.499987
50
-180.00148969
51
-90.00000000
0
LINE
8
BLACK
6
CONTINUOUS
10
153.9749999999999943
20
-144.1500000000000057
11
140.9749999999999943
21
-144.1500000000000057
0
ARC
8
BLACK
10
153.9749999999999943
20
-143.6500130000000013
40
0.500000000169
50
-90.00000000
51
0.00148969
0
LINE
8
BLACK
6
CONTINUOUS
10
154.4749999999999943
20
-130.6500000000000057
11
154.4749999999999943
21
-143.6500000000000057
0
ARC
8
BLACK
10
153.9749999999999943
20
-130.6500130000000013
40
0.5000129999999999
50
0.00148969
51
90.00000000
0
LINE
8
BLACK
6
CONTINUOUS
10
140.9749999999999943
20
-130.1500000000000057
11
153.9749999999999943
21
-130.1500000000000057
0
ARC
8
BLACK
10
137.2249999999999943
20
-143.6500130000000013
40
0.500000000169
50
-90.00000000
51
0.00148969
0
LINE
8
BLACK
6
CONTINUOUS
10
137.7249999999999943
20
-130.6500000000000057
11
137.7249999999999943
21
-143.6500000000000057
0
ARC
8
BLACK
10
137.2249999999999943
20
-130.6500130000000013
40
0.5000129999999999
50
0.00148969
51
90.00000000
0
LINE
8
BLACK
6
CONTINUOUS
10
97.0434959999999904
20
-130.1500000000000057
11
137.2249999999999943
21
-130.1500000000000057
0
ARC
8
BLACK
10
97.0434999999999945
20
-130.6500130000000013
40
0.5000040001689986
50
90.00045835
51
179.99851032
0
LINE
8
BLACK
6
CONTINUOUS
10
96.5434959999999904
20
-143.6500000000000057
11
96.5434959999999904
21
-130.6500000000000057
0
ARC
8
BLACK
10
97.0434999999999945
20
-143.6500130000000013
40
0.4999870000160004
50
-180.00148968
51
-90.00045838
0
LINE
8
BLACK
6
CONTINUOUS
10
137.2249999999999943
20
-144.1500000000000057
11
97.0434959999999904
21
-144.1500000000000057
0
ARC
8
BLACK
10
270.5749999999999886
20
-124.6000129999999899
40
0.5000190001689936
50
-89.99782270
51
0.00148963
0
LINE
8
BLACK
6
CONTINUOUS
10
271.0750189999999975
20
-111.6000019999999893
11
271.0750189999999975
21
-124.5999999999999943
0
ARC
8
BLACK
10
270.5749999999999886
20
-111.6000129999999899
40
0.500011000360992
50
0.00126046
51
89.99782281
0
LINE
8
BLACK
6
CONTINUOUS
10
264.8812499999999659
20
-111.1000019999999893
11
270.5750189999999975
21
-111.1000019999999893
0
ARC
8
BLACK
10
264.8813000000000102
20
-111.6000129999999899
40
0.5000500001209879
50
90.00572945
51
179.99873962
0
LINE
8
BLACK
6
CONTINUOUS
10
264.3812499999999659
20
-124.5999999999999943
11
264.3812499999999659
21
-111.6000019999999893
0
ARC
8
BLACK
10
264.8813000000000102
20
-124.6000129999999899
40
0.499987002500065
50
-180.00148954
51
-90.00572973
0
LINE
8
BLACK
6
CONTINUOUS
10
270.5750189999999975
20
-125.0999999999999943
11
264.8812499999999659
21
-125.0999999999999943
0
LINE
8
BLACK
6
CONTINUOUS
10
259.25
20
-146.1749999999999829
11
35.7000010000000003
21
-146.1749999999999829
0
ARC
8
BLACK
10
35.6999999999999957
20
-144.175013000000007
40
1.99998700000025
50
-180.00037242
51
-89.99997135
0
LINE
8
BLACK
6
CONTINUOUS
10
33.7000010000000003
20
-129.0154890000000023
11
33.7000010000000003
21
-144.1749999999999829
0
LINE
8
BLACK
6
CONTINUOUS
10
289.8499999999999659
20
-53.9249999999999972
11
289.8499999999999659
21
-125.0154919999999947
0
ARC
8
BLACK
10
287.8499999999999659
20
-125.0155129999999986
40
2.00000000011025
50
-90.00000000
51
0.00060161
0
LINE
8
BLACK
6
CONTINUOUS
10
263.25
20
-127.0154919999999947
11
287.8499999999999659
21
-127.0154919999999947
0
ARC
8
BLACK
10
263.25
20
-129.0155129999999986
40
2.00000000011025
50
90.00000000
51
179.99939839
0
LINE
8
BLACK
6
CONTINUOUS
10
261.25
20
-129.0154919999999947
11
261.25
21
-144.1749999999999829
0
ARC
8
BLACK
10
259.25
20
-144.175013000000007
40
2.0000000000422498
50
-90.00000000
51
0.00037242
0
ARC
8
BLACK
10
31.6999999999999993
20
-129.0154929999999922
40
2.0000040000002501
50
0.00011459
51
89.99997135
0
LINE
8
BLACK
6
CONTINUOUS
10
7.0999999999999996
20
-127.0154889999999881
11
31.7000010000000003
21
-127.0154889999999881
0
ARC
8
BLACK
10
7.0999989999999995
20
-125.0154899999999998
40
1.9999990000002499
50
-180.00002865
51
-89.99997135
0
LINE
8
BLACK
6
CONTINUOUS
10
5.0999999999999996
20
-125.0154889999999881
11
5.0999999999999996
21
-53.9249999999999972
0
ARC
8
BLACK
10
261.1311999999999784
20
-124.6000129999999899
40
0.5000500001689832
50
-89.99427027
51
0.00148954
0
LINE
8
BLACK
6
CONTINUOUS
10
261.6312499999999659
20
-111.5999999999999943
11
261.6312499999999659
21
-124.5999999999999943
0
ARC
8
BLACK
10
261.1313000000000102
20
-111.6000129999999899
40
0.500013002499935
50
0.00148984
51
90.00572943
0
LINE
8
BLACK
6
CONTINUOUS
10
248.1312499999999943
20
-111.0999999999999943
11
261.1312499999999659
21
-111.0999999999999943
0
LINE
8
BLACK
6
CONTINUOUS
10
261.1312499999999659
20
-125.0999999999999943
11
248.1312499999999943
21
-125.0999999999999943
0
ARC
8
BLACK
10
274.3249999999999886
20
-124.6000129999999899
40
0.499987
50
-180.00148969
51
-90.00000000
0
LINE
8
BLACK
6
CONTINUOUS
10
287.3249999999999886
20
-125.0999999999999943
11
274.3249999999999886
21
-125.0999999999999943
0
LINE
8
BLACK
6
CONTINUOUS
10
273.8249999999999886
20
-124.5999999999999943
11
273.8249999999999886
21
-111.5999999999999943
0
LINE
8
BLACK
6
CONTINUOUS
10
286.7379999999999995
20
-67.9500000000000028
11
286.7379999999999995
21
-69.4500000000000028
0
LINE
8
BLACK
6
CONTINUOUS
10
279.7379999999999995
20
-69.4500000000000028
11
279.7379999999999995
21
-67.9500000000000028
0
LINE
8
BLACK
6
CONTINUOUS
10
286.2379999999999995
20
-69.9500000000000028
11
280.2379999999999995
21
-69.9500000000000028
0
ARC
8
BLACK
10
286.2379999999999995
20
-69.4500129999999984
40
0.500000000169
50
-90.00000000
51
0.00148969
0
ARC
8
BLACK
10
280.2379999999999995
20
-69.4500129999999984
40
0.499987
50
-180.00148969
51
-90.00000000
0
LINE
8
BLACK
6
CONTINUOUS
10
279.7379999999999995
20
-67.9500000000000028
11
262.8619999999999663
21
-67.9500000000000028
0
LINE
8
BLACK
6
CONTINUOUS
10
287.3249999999999886
20
-67.9500000000000028
11
286.7379999999999995
21
-67.9500000000000028
0
LINE
8
BLACK
6
CONTINUOUS
10
262.8619999999999663
20
-67.9500000000000028
11
262.8619999999999663
21
-69.4500000000000028
0
LINE
8
BLACK
6
CONTINUOUS
10
255.8619999999999948
20
-69.4500000000000028
11
255.8619999999999948
21
-67.9500000000000028
0
ARC
8
BLACK
10
256.3619999999999663
20
-69.4500129999999984
40
0.499987
50
-180.00148969
51
-90.00000000
0
LINE
8
BLACK
6
CONTINUOUS
10
262.3619999999999663
20
-69.9500000000000028
11
256.3619999999999663
21
-69.9500000000000028
0
ARC
8
BLACK
10
262.3619999999999663
20
-69.4500129999999984
40
0.500000000169
50
-90.00000000
51
0.00148969
0
LINE
8
BLACK
6
CONTINUOUS
10
255.8619999999999948
20
-67.9500000000000028
11
255.2749999999999773
21
-67.9500000000000028
0
LINE
8
BLACK
6
CONTINUOUS
10
283.8567499999999768
20
-108.0499999999999972
11
277.8567499999999768
21
-108.0499999999999972
0
LINE
8
BLACK
6
CONTINUOUS
10
9.505749999999999
20
-92.5499999999999972
11
9.5187499999999989
21
-92.5499999999999972
0
LINE
8
BLACK
6
CONTINUOUS
10
9.5187499999999989
20
-105.5499999999999972
11
9.505749999999999
21
-105.5499999999999972
0
LINE
8
BLACK
6
CONTINUOUS
10
9.505749999999999
20
-105.5499999999999972
11
9.505749999999999
21
-92.5499999999999972
0
ARC
8
BLACK
10
34.9692000000000007
20
-109.6000129999999899
40
0.4999500001690169
50
89.99427057
51
179.99851016
0
ARC
8
BLACK
10
40.9692999999999969
20
-109.6000129999999899
40
0.500013002499935
50
0.00148984
51
90.00572943
0
LINE
8
BLACK
6
CONTINUOUS
10
34.9692499999999953
20
-109.0999999999999943
11
40.9692499999999953
21
-109.0999999999999943
0
ARC
8
BLACK
10
17.0932999999999993
20
-109.6000129999999899
40
0.500013002499935
50
0.00148984
51
90.00572943
0
LINE
8
BLACK
6
CONTINUOUS
10
11.0932499999999994
20
-109.0999999999999943
11
17.0932499999999976
21
-109.0999999999999943
0
ARC
8
BLACK
10
11.0932499999999994
20
-109.600003000000001
40
0.500000000009
50
90.00000000
51
179.99965623
0
ARC
8
BLACK
10
40.9692000000000007
20
-123.6000129999999899
40
0.5000500001959804
50
-89.99427026
51
0.00160412
0
LINE
8
BLACK
6
CONTINUOUS
10
34.9692499999999953
20
-124.0999989999999968
11
40.9692499999999953
21
-124.0999989999999968
0
ARC
8
BLACK
10
34.9692999999999969
20
-123.6000129999999899
40
0.49998600250007
50
-180.00160412
51
-90.00572974
0
ARC
8
BLACK
10
17.0931999999999995
20
-123.6000129999999899
40
0.5000500001959804
50
-89.99427026
51
0.00160412
0
LINE
8
BLACK
6
CONTINUOUS
10
11.0932499999999994
20
-124.0999989999999968
11
17.0932499999999976
21
-124.0999989999999968
0
ARC
8
BLACK
10
11.0932499999999994
20
-123.5999929999999978
40
0.500006
50
-179.99931245
51
-90.00000000
0
LINE
8
BLACK
6
CONTINUOUS
10
10.5932499999999994
20
-123.5999989999999968
11
10.5932499999999994
21
-109.5999999999999943
0
LINE
8
BLACK
6
CONTINUOUS
10
41.4692499999999953
20
-109.5999999999999943
11
41.4692499999999953
21
-123.5999989999999968
0
LINE
8
BLACK
6
CONTINUOUS
10
17.5932499999999976
20
-109.5999999999999943
11
17.5932499999999976
21
-123.5999989999999968
0
LINE
8
BLACK
6
CONTINUOUS
10
34.4692499999999953
20
-123.5999989999999968
11
34.4692499999999953
21
-109.5999999999999943
0
ARC
8
BLACK
10
287.8499999999999659
20
-53.9250129999999999
40
2.000013
50
0.00037242
51
90.00000000
0
LINE
8
BLACK
6
CONTINUOUS
10
7.0999999999999996
20
-51.9249999999999972
11
287.8499999999999659
21
-51.9249999999999972
0
ARC
8
BLACK
10
7.0999999999999996
20
-53.9250029999999967
40
2.0000000000022502
50
90.00000000
51
179.99991406
0
ARC
8
BLACK
10
217.1875
20
-143.6500130000000013
40
0.499987
50
-180.00148969
51
-90.00000000
0
LINE
8
BLACK
6
CONTINUOUS
10
216.6875
20
-130.6500000000000057
11
216.6875
21
-143.6500000000000057
0
ARC
8
BLACK
10
217.1875
20
-130.6500130000000013
40
0.500000000169
50
90.00000000
51
179.99851031
0
LINE
8
BLACK
6
CONTINUOUS
10
217.1875
20
-130.1500000000000057
11
218.1875
21
-130.1500000000000057
0
LINE
8
BLACK
6
CONTINUOUS
10
218.1875
20
-144.1500000000000057
11
217.1875
21
-144.1500000000000057
0
ARC
8
BLACK
10
218.1875
20
-130.6500130000000013
40
0.5000129999999999
50
0.00148969
51
90.00000000
0
LINE
8
BLACK
6
CONTINUOUS
10
218.6875
20
-143.6500000000000057
11
218.6875
21
-130.6500000000000057
0
ARC
8
BLACK
10
218.1875
20
-143.6500130000000013
40
0.500000000169
50
-90.00000000
51
0.00148969
0
ARC
8
BLACK
10
221.9375
20
-143.6500130000000013
40
0.499987
50
-180.00148969
51
-90.00000000
0
LINE
8
BLACK
6
CONTINUOUS
10
221.4375
20
-130.6500000000000057
11
221.4375
21
-143.6500000000000057
0
ARC
8
BLACK
10
221.9375
20
-130.6500130000000013
40
0.500000000169
50
90.00000000
51
179.99851031
0
LINE
8
BLACK
6
CONTINUOUS
10
221.9375
20
-130.1500000000000057
11
234.9375
21
-130.1500000000000057
0
LINE
8
BLACK
6
CONTINUOUS
10
234.9375
20
-144.1500000000000057
11
221.9375
21
-144.1500000000000057
0
ARC
8
BLACK
10
234.9375
20
-130.6500130000000013
40
0.5000129999999999
50
0.00148969
51
90.00000000
0
LINE
8
BLACK
6
CONTINUOUS
10
235.4375
20
-143.6500000000000057
11
235.4375
21
-130.6500000000000057
0
ARC
8
BLACK
10
234.9375
20
-143.6500130000000013
40
0.500000000169
50
-90.00000000
51
0.00148969
0
ARC
8
BLACK
10
238.6875
20
-143.6500130000000013
40
0.499987
50
-180.00148969
51
-90.00000000
0
LINE
8
BLACK
6
CONTINUOUS
10
238.1875
20
-130.6500000000000057
11
238.1875
21
-143.6500000000000057
0
ARC
8
BLACK
10
238.6875
20
-130.6500130000000013
40
0.500000000169
50
90.00000000
51
179.99851031
0
LINE
8
BLACK
6
CONTINUOUS
10
238.6875
20
-130.1500000000000057
11
239.6875
21
-130.1500000000000057
0
LINE
8
BLACK
6
CONTINUOUS
10
239.6875
20
-144.1500000000000057
11
238.6875
21
-144.1500000000000057
0
ARC
8
BLACK
10
239.6875
20
-130.6500130000000013
40
0.5000129999999999
50
0.00148969
51
90.00000000
0
LINE
8
BLACK
6
CONTINUOUS
10
240.1875
20
-143.6500000000000057
11
240.1875
21
-130.6500000000000057
0
ARC
8
BLACK
10
239.6875
20
-143.6500130000000013
40
0.500000000169
50
-90.00000000
51
0.00148969
0
ARC
8
BLACK
10
245.75
20
-143.6500130000000013
40
0.499987
50
-180.00148969
51
-90.00000000
0
LINE
8
BLACK
6
CONTINUOUS
10
245.25
20
-130.6500000000000057
11
245.25
21
-143.6500000000000057
0
ARC
8
BLACK
10
245.75
20
-130.6500130000000013
40
0.500000000169
50
90.00000000
51
179.99851031
0
LINE
8
BLACK
6
CONTINUOUS
10
245.75
20
-130.1500000000000057
11
258.75
21
-130.1500000000000057
0
LINE
8
BLACK
6
CONTINUOUS
10
258.75
20
-144.1500000000000057
11
245.75
21
-144.1500000000000057
0
ARC
8
BLACK
10
258.75
20
-130.6500130000000013
40
0.5000129999999999
50
0.00148969
51
90.00000000
0
LINE
8
BLACK
6
CONTINUOUS
10
259.25
20
-143.6500000000000057
11
259.25
21
-130.6500000000000057
0
ARC
8
BLACK
10
258.75
20
-143.6500130000000013
40
0.500000000169
50
-90.00000000
51
0.00148969
0
ARC
8
BLACK
10
76.7625000000000028
20
-130.6500130000000013
40
0.500000000169
50
90.00000000
51
179.99851031
0
LINE
8
BLACK
6
CONTINUOUS
10
76.2625000000000028
20
-143.6500000000000057
11
76.2625000000000028
21
-130.6500000000000057
0
ARC
8
BLACK
10
76.7625000000000028
20
-143.6500130000000013
40
0.499987
50
-180.00148969
51
-90.00000000
0
LINE
8
BLACK
6
CONTINUOUS
10
77.7625000000000028
20
-144.1500000000000057
11
76.7625000000000028
21
-144.1500000000000057
0
ARC
8
BLACK
10
77.7625000000000028
20
-143.6500130000000013
40
0.500000000169
50
-90.00000000
51
0.00148969
0
LINE
8
BLACK
6
CONTINUOUS
10
78.2625000000000028
20
-130.6500000000000057
11
78.2625000000000028
21
-143.6500000000000057
0
ARC
8
BLACK
10
77.7625000000000028
20
-130.6500130000000013
40
0.5000129999999999
50
0.00148969
51
90.00000000
0
LINE
8
BLACK
6
CONTINUOUS
10
76.7625000000000028
20
-130.1500000000000057
11
77.7625000000000028
21
-130.1500000000000057
0
ARC
8
BLACK
10
55.2624999999999957
20
-130.6500130000000013
40
0.500000000169
50
90.00000000
51
179.99851031
0
LINE
8
BLACK
6
CONTINUOUS
10
54.7624999999999957
20
-143.6500000000000057
11
54.7624999999999957
21
-130.6500000000000057
0
ARC
8
BLACK
10
55.2624999999999957
20
-143.6500130000000013
40
0.499987
50
-180.00148969
51
-90.00000000
0
LINE
8
BLACK
6
CONTINUOUS
10
56.2624999999999957
20
-144.1500000000000057
11
55.2624999999999957
21
-144.1500000000000057
0
ARC
8
BLACK
10
56.2624999999999957
20
-143.6500130000000013
40
0.500000000169
50
-90.00000000
51
0.00148969
0
LINE
8
BLACK
6
CONTINUOUS
10
56.7624999999999957
20
-130.6500000000000057
11
56.7624999999999957
21
-143.6500000000000057
0
ARC
8
BLACK
10
56.2624999999999957
20
-130.6500130000000013
40
0.5000129999999999
50
0.00148969
51
90.00000000
0
LINE
8
BLACK
6
CONTINUOUS
10
55.2624999999999957
20
-130.1500000000000057
11
56.2624999999999957
21
-130.1500000000000057
0
ARC
8
BLACK
10
60.0124999999999957
20
-130.6500130000000013
40
0.500000000169
50
90.00000000
51
179.99851031
0
LINE
8
BLACK
6
CONTINUOUS
10
59.5124999999999957
20
-143.6500000000000057
11
59.5124999999999957
21
-130.6500000000000057
0
ARC
8
BLACK
10
60.0124999999999957
20
-143.6500130000000013
40
0.499987
50
-180.00148969
51
-90.00000000
0
LINE
8
BLACK
6
CONTINUOUS
10
73.0125000000000028
20
-144.1500000000000057
11
60.0124999999999957
21
-144.1500000000000057
0
ARC
8
BLACK
10
73.0125000000000028
20
-143.6500130000000013
40
0.500000000169
50
-90.00000000
51
0.00148969
0
LINE
8
BLACK
6
CONTINUOUS
10
73.5125000000000028
20
-130.6500000000000057
11
73.5125000000000028
21
-143.6500000000000057
0
ARC
8
BLACK
10
73.0125000000000028
20
-130.6500130000000013
40
0.5000129999999999
50
0.00148969
51
90.00000000
0
LINE
8
BLACK
6
CONTINUOUS
10
60.0124999999999957
20
-130.1500000000000057
11
73.0125000000000028
21
-130.1500000000000057
0
ARC
8
BLACK
10
36.1999999999999957
20
-130.6500130000000013
40
0.500000000169
50
90.00000000
51
179.99851031
0
LINE
8
BLACK
6
CONTINUOUS
10
35.6999999999999957
20
-143.6500000000000057
11
35.6999999999999957
21
-130.6500000000000057
0
ARC
8
BLACK
10
36.1999999999999957
20
-143.6500130000000013
40
0.499987
50
-180.00148969
51
-90.00000000
0
LINE
8
BLACK
6
CONTINUOUS
10
49.1999999999999957
20
-144.1500000000000057
11
36.1999999999999957
21
-144.1500000000000057
0
ARC
8
BLACK
10
49.1999999999999957
20
-143.6500130000000013
40
0.500000000169
50
-90.00000000
51
0.00148969
0
LINE
8
BLACK
6
CONTINUOUS
10
49.6999999999999957
20
-130.6500000000000057
11
49.6999999999999957
21
-143.6500000000000057
0
ARC
8
BLACK
10
49.1999999999999957
20
-130.6500130000000013
40
0.5000129999999999
50
0.00148969
51
90.00000000
0
LINE
8
BLACK
6
CONTINUOUS
10
36.1999999999999957
20
-130.1500000000000057
11
49.1999999999999957
21
-130.1500000000000057
0
ARC
8
BLACK
10
274.3249999999999886
20
-111.6000129999999899
40
0.500000000169
50
90.00000000
51
179.99851031
0
ARC
8
BLACK
10
287.3249999999999886
20
-124.6000129999999899
40
0.500000000169
50
-90.00000000
51
0.00148969
0
LINE
8
BLACK
6
CONTINUOUS
10
287.8249999999999886
20
-111.5999999999999943
11
287.8249999999999886
21
-124.5999999999999943
0
ARC
8
BLACK
10
287.3249999999999886
20
-111.6000129999999899
40
0.5000129999999999
50
0.00148969
51
90.00000000
0
LINE
8
BLACK
6
CONTINUOUS
10
274.3249999999999886
20
-111.0999999999999943
11
287.3249999999999886
21
-111.0999999999999943
0
ARC
8
BLACK
10
243.3811999999999784
20
-111.6000129999999899
40
0.4999500001690169
50
89.99427057
51
179.99851016
0
LINE
8
BLACK
6
CONTINUOUS
10
242.8812499999999943
20
-124.5999999999999943
11
242.8812499999999943
21
-111.5999999999999943
0
ARC
8
BLACK
10
243.3812999999999818
20
-124.6000129999999899
40
0.499987002500065
50
-180.00148954
51
-90.00572973
0
LINE
8
BLACK
6
CONTINUOUS
10
244.3812499999999943
20
-125.0999999999999943
11
243.3812499999999943
21
-125.0999999999999943
0
ARC
8
BLACK
10
244.3811999999999784
20
-124.6000129999999899
40
0.5000500001689832
50
-89.99427027
51
0.00148954
0
LINE
8
BLACK
6
CONTINUOUS
10
244.8812499999999943
20
-111.5999999999999943
11
244.8812499999999943
21
-124.5999999999999943
0
ARC
8
BLACK
10
244.3812999999999818
20
-111.6000129999999899
40
0.500013002499935
50
0.00148984
51
90.00572943
0
LINE
8
BLACK
6
CONTINUOUS
10
243.3812499999999943
20
-111.0999999999999943
11
244.3812499999999943
21
-111.0999999999999943
0
ARC
8
BLACK
10
248.1311999999999784
20
-111.6000129999999899
40
0.4999500001690169
50
89.99427057
51
179.99851016
0
LINE
8
BLACK
6
CONTINUOUS
10
247.6312499999999943
20
-124.5999999999999943
11
247.6312499999999943
21
-111.5999999999999943
0
ARC
8
BLACK
10
248.1312999999999818
20
-124.6000129999999899
40
0.499987002500065
50
-180.00148954
51
-90.00572973
0
ARC
8
BLACK
10
221.9375
20
-111.6000129999999899
40
0.500000000169
50
90.00000000
51
179.99851031
0
LINE
8
BLACK
6
CONTINUOUS
10
221.4375
20
-124.5999999999999943
11
221.4375
21
-111.5999999999999943
0
ARC
8
BLACK
10
221.9375
20
-124.6000129999999899
40
0.499987
50
-180.00148969
51
-90.00000000
0
LINE
8
BLACK
6
CONTINUOUS
10
234.9375
20
-125.0999999999999943
11
221.9375
21
-125.0999999999999943
0
ARC
8
BLACK
10
234.9375
20
-124.6000129999999899
40
0.500000000169
50
-90.00000000
51
0.00148969
0
LINE
8
BLACK
6
CONTINUOUS
10
235.4375
20
-111.5999999999999943
11
235.4375
21
-124.5999999999999943
0
ARC
8
BLACK
10
234.9375
20
-111.6000129999999899
40
0.5000129999999999
50
0.00148969
51
90.00000000
0
LINE
8
BLACK
6
CONTINUOUS
10
221.9375
20
-111.0999999999999943
11
234.9375
21
-111.0999999999999943
0
ARC
8
BLACK
10
202.8874999999999886
20
-111.6000129999999899
40
0.500000000169
50
90.00000000
51
179.99851031
0
LINE
8
BLACK
6
CONTINUOUS
10
202.3874999999999886
20
-124.5999999999999943
11
202.3874999999999886
21
-111.5999999999999943
0
ARC
8
BLACK
10
202.8874999999999886
20
-124.6000129999999899
40
0.499987
50
-180.00148969
51
-90.00000000
0
LINE
8
BLACK
6
CONTINUOUS
10
215.8874999999999886
20
-125.0999999999999943
11
202.8874999999999886
21
-125.0999999999999943
0
ARC
8
BLACK
10
215.8874999999999886
20
-124.6000129999999899
40
0.500000000169
50
-90.00000000
51
0.00148969
0
LINE
8
BLACK
6
CONTINUOUS
10
216.3874999999999886
20
-111.5999999999999943
11
216.3874999999999886
21
-124.5999999999999943
0
ARC
8
BLACK
10
215.8874999999999886
20
-111.6000129999999899
40
0.5000129999999999
50
0.00148969
51
90.00000000
0
LINE
8
BLACK
6
CONTINUOUS
10
202.8874999999999886
20
-111.0999999999999943
11
215.8874999999999886
21
-111.0999999999999943
0
ARC
8
BLACK
10
183.8375000000000057
20
-111.6000129999999899
40
0.500000000169
50
90.00000000
51
179.99851031
0
LINE
8
BLACK
6
CONTINUOUS
10
183.3375000000000057
20
-124.5999999999999943
11
183.3375000000000057
21
-111.5999999999999943
0
ARC
8
BLACK
10
183.8375000000000057
20
-124.6000129999999899
40
0.499987
50
-180.00148969
51
-90.00000000
0
LINE
8
BLACK
6
CONTINUOUS
10
196.8374999999999773
20
-125.0999999999999943
11
183.8375000000000057
21
-125.0999999999999943
0
ARC
8
BLACK
10
196.8374999999999773
20
-124.6000129999999899
40
0.500000000169
50
-90.00000000
51
0.00148969
0
LINE
8
BLACK
6
CONTINUOUS
10
197.3374999999999773
20
-111.5999999999999943
11
197.3374999999999773
21
-124.5999999999999943
0
ARC
8
BLACK
10
196.8374999999999773
20
-111.6000129999999899
40
0.5000129999999999
50
0.00148969
51
90.00000000
0
LINE
8
BLACK
6
CONTINUOUS
10
183.8375000000000057
20
-111.0999999999999943
11
196.8374999999999773
21
-111.0999999999999943
0
ARC
8
BLACK
10
164.7874999999999943
20
-111.6000129999999899
40
0.500000000169
50
90.00000000
51
179.99851031
0
LINE
8
BLACK
6
CONTINUOUS
10
164.2874999999999943
20
-124.5999999999999943
11
164.2874999999999943
21
-111.5999999999999943
0
ARC
8
BLACK
10
164.7874999999999943
20
-124.6000129999999899
40
0.499987
50
-180.00148969
51
-90.00000000
0
LINE
8
BLACK
6
CONTINUOUS
10
177.7874999999999943
20
-125.0999999999999943
11
164.7874999999999943
21
-125.0999999999999943
0
ARC
8
BLACK
10
177.7874999999999943
20
-124.6000129999999899
40
0.500000000169
50
-90.00000000
51
0.00148969
0
LINE
8
BLACK
6
CONTINUOUS
10
178.2874999999999943
20
-111.5999999999999943
11
178.2874999999999943
21
-124.5999999999999943
0
ARC
8
BLACK
10
177.7874999999999943
20
-111.6000129999999899
40
0.5000129999999999
50
0.00148969
51
90.00000000
0
LINE
8
BLACK
6
CONTINUOUS
10
164.7874999999999943
20
-111.0999999999999943
11
177.7874999999999943
21
-111.0999999999999943
0
ARC
8
BLACK
10
145.7374999999999829
20
-111.6000129999999899
40
0.500000000169
50
90.00000000
51
179.99851031
0
LINE
8
BLACK
6
CONTINUOUS
10
145.2374999999999829
20
-124.5999999999999943
11
145.2374999999999829
21
-111.5999999999999943
0
ARC
8
BLACK
10
145.7374999999999829
20
-124.6000129999999899
40
0.499987
50
-180.00148969
51
-90.00000000
0
LINE
8
BLACK
6
CONTINUOUS
10
158.7374999999999829
20
-125.0999999999999943
11
145.7374999999999829
21
-125.0999999999999943
0
ARC
8
BLACK
10
158.7374999999999829
20
-124.6000129999999899
40
0.500000000169
50
-90.00000000
51
0.00148969
0
LINE
8
BLACK
6
CONTINUOUS
10
159.2374999999999829
20
-111.5999999999999943
11
159.2374999999999829
21
-124.5999999999999943
0
ARC
8
BLACK
10
158.7374999999999829
20
-111.6000129999999899
40
0.5000129999999999
50
0.00148969
51
90.00000000
0
LINE
8
BLACK
6
CONTINUOUS
10
145.7374999999999829
20
-111.0999999999999943
11
158.7374999999999829
21
-111.0999999999999943
0
ARC
8
BLACK
10
126.6875
20
-111.6000129999999899
40
0.500000000169
50
90.00000000
51
179.99851031
0
LINE
8
BLACK
6
CONTINUOUS
10
126.1875
20
-124.5999999999999943
11
126.1875
21
-111.5999999999999943
0
ARC
8
BLACK
10
126.6875
20
-124.6000129999999899
40
0.499987
50
-180.00148969
51
-90.00000000
0
LINE
8
BLACK
6
CONTINUOUS
10
139.6875
20
-125.0999999999999943
11
126.6875
21
-125.0999999999999943
0
ARC
8
BLACK
10
139.6875
20
-124.6000129999999899
40
0.500000000169
50
-90.00000000
51
0.00148969
0
LINE
8
BLACK
6
CONTINUOUS
10
140.1875
20
-111.5999999999999943
11
140.1875
21
-124.5999999999999943
0
ARC
8
BLACK
10
139.6875
20
-111.6000129999999899
40
0.5000129999999999
50
0.00148969
51
90.00000000
0
LINE
8
BLACK
6
CONTINUOUS
10
126.6875
20
-111.0999999999999943
11
139.6875
21
-111.0999999999999943
0
ARC
8
BLACK
10
107.6374999999999886
20
-111.6000129999999899
40
0.500000000169
50
90.00000000
51
179.99851031
0
LINE
8
BLACK
6
CONTINUOUS
10
107.1374999999999886
20
-124.5999999999999943
11
107.1374999999999886
21
-111.5999999999999943
0
ARC
8
BLACK
10
107.6374999999999886
20
-124.6000129999999899
40
0.499987
50
-180.00148969
51
-90.00000000
0
LINE
8
BLACK
6
CONTINUOUS
10
120.6374999999999886
20
-125.0999999999999943
11
107.6374999999999886
21
-125.0999999999999943
0
ARC
8
BLACK
10
120.6374999999999886
20
-124.6000129999999899
40
0.500000000169
50
-90.00000000
51
0.00148969
0
LINE
8
BLACK
6
CONTINUOUS
10
121.1374999999999886
20
-111.5999999999999943
11
121.1374999999999886
21
-124.5999999999999943
0
ARC
8
BLACK
10
120.6374999999999886
20
-111.6000129999999899
40
0.5000129999999999
50
0.00148969
51
90.00000000
0
LINE
8
BLACK
6
CONTINUOUS
10
107.6374999999999886
20
-111.0999999999999943
11
120.6374999999999886
21
-111.0999999999999943
0
ARC
8
BLACK
10
88.5874999999999915
20
-111.6000129999999899
40
0.500000000169
50
90.00000000
51
179.99851031
0
LINE
8
BLACK
6
CONTINUOUS
10
88.0874999999999915
20
-124.5999999999999943
11
88.0874999999999915
21
-111.5999999999999943
0
ARC
8
BLACK
10
88.5874999999999915
20
-124.6000129999999899
40
0.499987
50
-180.00148969
51
-90.00000000
0
LINE
8
BLACK
6
CONTINUOUS
10
101.5874999999999915
20
-125.0999999999999943
11
88.5874999999999915
21
-125.0999999999999943
0
ARC
8
BLACK
10
101.5874999999999915
20
-124.6000129999999899
40
0.500000000169
50
-90.00000000
51
0.00148969
0
LINE
8
BLACK
6
CONTINUOUS
10
102.0874999999999915
20
-111.5999999999999943
11
102.0874999999999915
21
-124.5999999999999943
0
ARC
8
BLACK
10
101.5874999999999915
20
-111.6000129999999899
40
0.5000129999999999
50
0.00148969
51
90.00000000
0
LINE
8
BLACK
6
CONTINUOUS
10
88.5874999999999915
20
-111.0999999999999943
11
101.5874999999999915
21
-111.0999999999999943
0
ARC
8
BLACK
10
69.5374999999999943
20
-111.6000129999999899
40
0.500000000169
50
90.00000000
51
179.99851031
0
LINE
8
BLACK
6
CONTINUOUS
10
69.0374999999999943
20
-124.5999999999999943
11
69.0374999999999943
21
-111.5999999999999943
0
ARC
8
BLACK
10
69.5374999999999943
20
-124.6000129999999899
40
0.499987
50
-180.00148969
51
-90.00000000
0
LINE
8
BLACK
6
CONTINUOUS
10
82.5374999999999943
20
-125.0999999999999943
11
69.5374999999999943
21
-125.0999999999999943
0
ARC
8
BLACK
10
82.5374999999999943
20
-124.6000129999999899
40
0.500000000169
50
-90.00000000
51
0.00148969
0
LINE
8
BLACK
6
CONTINUOUS
10
83.0374999999999943
20
-111.5999999999999943
11
83.0374999999999943
21
-124.5999999999999943
0
ARC
8
BLACK
10
82.5374999999999943
20
-111.6000129999999899
40
0.5000129999999999
50
0.00148969
51
90.00000000
0
LINE
8
BLACK
6
CONTINUOUS
10
69.5374999999999943
20
-111.0999999999999943
11
82.5374999999999943
21
-111.0999999999999943
0
ARC
8
BLACK
10
50.4874999999999972
20
-111.6000129999999899
40
0.500000000169
50
90.00000000
51
179.99851031
0
LINE
8
BLACK
6
CONTINUOUS
10
49.9874999999999972
20
-124.5999999999999943
11
49.9874999999999972
21
-111.5999999999999943
0
ARC
8
BLACK
10
50.4874999999999972
20
-124.6000129999999899
40
0.499987
50
-180.00148969
51
-90.00000000
0
LINE
8
BLACK
6
CONTINUOUS
10
63.4874999999999972
20
-125.0999999999999943
11
50.4874999999999972
21
-125.0999999999999943
0
ARC
8
BLACK
10
63.4874999999999972
20
-124.6000129999999899
40
0.500000000169
50
-90.00000000
51
0.00148969
0
LINE
8
BLACK
6
CONTINUOUS
10
63.9874999999999972
20
-111.5999999999999943
11
63.9874999999999972
21
-124.5999999999999943
0
ARC
8
BLACK
10
63.4874999999999972
20
-111.6000129999999899
40
0.5000129999999999
50
0.00148969
51
90.00000000
0
LINE
8
BLACK
6
CONTINUOUS
10
50.4874999999999972
20
-111.0999999999999943
11
63.4874999999999972
21
-111.0999999999999943
0
ARC
8
BLACK
10
43.7811999999999983
20
-111.6000129999999899
40
0.4999500001690169
50
89.99427057
51
179.99851016
0
LINE
8
BLACK
6
CONTINUOUS
10
43.28125
20
-124.5999999999999943
11
43.28125
21
-111.5999999999999943
0
ARC
8
BLACK
10
43.7812999999999946
20
-124.6000129999999899
40
0.499987002500065
50
-180.00148954
51
-90.00572973
0
LINE
8
BLACK
6
CONTINUOUS
10
44.78125
20
-125.0999999999999943
11
43.78125
21
-125.0999999999999943
0
ARC
8
BLACK
10
44.7811999999999983
20
-124.6000129999999899
40
0.5000500001689832
50
-89.99427027
51
0.00148954
0
LINE
8
BLACK
6
CONTINUOUS
10
45.28125
20
-111.5999999999999943
11
45.28125
21
-124.5999999999999943
0
ARC
8
BLACK
10
44.7812999999999946
20
-111.6000129999999899
40
0.500013002499935
50
0.00148984
51
90.00572943
0
LINE
8
BLACK
6
CONTINUOUS
10
43.78125
20
-111.0999999999999943
11
44.78125
21
-111.0999999999999943
0
ARC
8
BLACK
10
7.28125
20
-111.600003000000001
40
0.500000000009
50
90.00000000
51
179.99965623
0
LINE
8
BLACK
6
CONTINUOUS
10
6.78125
20
-124.5999999999999943
11
6.78125
21
-111.5999999999999943
0
ARC
8
BLACK
10
7.28125
20
-124.600003000000001
40
0.499997
50
-180.00034377
51
-90.00000000
0
LINE
8
BLACK
6
CONTINUOUS
10
8.28125
20
-125.0999999999999943
11
7.28125
21
-125.0999999999999943
0
ARC
8
BLACK
10
8.28125
20
-124.600003000000001
40
0.500000000009
50
-90.00000000
51
0.00034377
0
LINE
8
BLACK
6
CONTINUOUS
10
8.78125
20
-111.5999999999999943
11
8.78125
21
-124.5999999999999943
0
ARC
8
BLACK
10
8.28125
20
-111.600003000000001
40
0.500003
50
0.00034377
51
90.00000000
0
LINE
8
BLACK
6
CONTINUOUS
10
7.28125
20
-111.0999999999999943
11
8.28125
21
-111.0999999999999943
0
ARC
8
BLACK
10
19.5311999999999983
20
-111.6000129999999899
40
0.4999500001690169
50
89.99427057
51
179.99851016
0
LINE
8
BLACK
6
CONTINUOUS
10
19.03125
20
-124.5999999999999943
11
19.03125
21
-111.5999999999999943
0
ARC
8
BLACK
10
19.5312999999999981
20
-124.6000129999999899
40
0.499987002500065
50
-180.00148954
51
-90.00572973
0
LINE
8
BLACK
6
CONTINUOUS
10
32.53125
20
-125.0999999999999943
11
19.53125
21
-125.0999999999999943
0
ARC
8
BLACK
10
32.5311999999999983
20
-124.6000129999999899
40
0.5000500001689832
50
-89.99427027
51
0.00148954
0
LINE
8
BLACK
6
CONTINUOUS
10
33.03125
20
-111.5999999999999943
11
33.03125
21
-124.5999999999999943
0
ARC
8
BLACK
10
32.5313000000000017
20
-111.6000129999999899
40
0.500013002499935
50
0.00148984
51
90.00572943
0
LINE
8
BLACK
6
CONTINUOUS
10
19.53125
20
-111.0999999999999943
11
32.53125
21
-111.0999999999999943
0
ARC
8
BLACK
10
286.6687000000000012
20
-92.5500129999999928
40
0.4999500001690169
50
89.99427057
51
179.99851016
0
LINE
8
BLACK
6
CONTINUOUS
10
286.1687499999999886
20
-105.5499999999999972
11
286.1687499999999886
21
-92.5499999999999972
0
ARC
8
BLACK
10
286.6687999999999761
20
-105.5500129999999928
40
0.499987002500065
50
-180.00148954
51
-90.00572973
0
LINE
8
BLACK
6
CONTINUOUS
10
287.6687499999999886
20
-106.0499999999999972
11
286.6687499999999886
21
-106.0499999999999972
0
ARC
8
BLACK
10
287.6687000000000012
20
-105.5500129999999928
40
0.5000500001689832
50
-89.99427027
51
0.00148954
0
LINE
8
BLACK
6
CONTINUOUS
10
288.1687499999999886
20
-92.5499999999999972
11
288.1687499999999886
21
-105.5499999999999972
0
ARC
8
BLACK
10
287.6687999999999761
20
-92.5500129999999928
40
0.500013002499935
50
0.00148984
51
90.00572943
0
LINE
8
BLACK
6
CONTINUOUS
10
286.6687499999999886
20
-92.0499999999999972
11
287.6687499999999886
21
-92.0499999999999972
0
ARC
8
BLACK
10
250.1687000000000012
20
-92.5500129999999928
40
0.4999500001690169
50
89.99427057
51
179.99851016
0
LINE
8
BLACK
6
CONTINUOUS
10
249.6687499999999886
20
-105.5499999999999972
11
249.6687499999999886
21
-92.5499999999999972
0
ARC
8
BLACK
10
250.1687999999999761
20
-105.5500129999999928
40
0.499987002500065
50
-180.00148954
51
-90.00572973
0
LINE
8
BLACK
6
CONTINUOUS
10
251.1687499999999886
20
-106.0499999999999972
11
250.1687499999999886
21
-106.0499999999999972
0
ARC
8
BLACK
10
251.1687000000000012
20
-105.5500129999999928
40
0.5000500001689832
50
-89.99427027
51
0.00148954
0
LINE
8
BLACK
6
CONTINUOUS
10
251.6687499999999886
20
-92.5499999999999972
11
251.6687499999999886
21
-105.5499999999999972
0
ARC
8
BLACK
10
251.1687999999999761
20
-92.5500129999999928
40
0.500013002499935
50
0.00148984
51
90.00572943
0
LINE
8
BLACK
6
CONTINUOUS
10
250.1687499999999886
20
-92.0499999999999972
11
251.1687499999999886
21
-92.0499999999999972
0
ARC
8
BLACK
10
277.8566999999999894
20
-93.5500129999999928
40
0.4999500001690169
50
89.99427057
51
179.99851016
0
LINE
8
BLACK
6
CONTINUOUS
10
277.3567499999999768
20
-107.5499999999999972
11
277.3567499999999768
21
-93.5499999999999972
0
ARC
8
BLACK
10
277.8567999999999643
20
-107.5500129999999928
40
0.499987002500065
50
-180.00148954
51
-90.00572973
0
ARC
8
BLACK
10
283.8566999999999894
20
-107.5500129999999928
40
0.5000500001689832
50
-89.99427027
51
0.00148954
0
LINE
8
BLACK
6
CONTINUOUS
10
284.3567499999999768
20
-93.5499999999999972
11
284.3567499999999768
21
-107.5499999999999972
0
ARC
8
BLACK
10
283.8567999999999643
20
-93.5500129999999928
40
0.500013002499935
50
0.00148984
51
90.00572943
0
LINE
8
BLACK
6
CONTINUOUS
10
277.8567499999999768
20
-93.0499999999999972
11
283.8567499999999768
21
-93.0499999999999972
0
ARC
8
BLACK
10
253.9806999999999846
20
-93.5500129999999928
40
0.4999500001690169
50
89.99427057
51
179.99851016
0
LINE
8
BLACK
6
CONTINUOUS
10
253.4807500000000005
20
-107.5499999999999972
11
253.4807500000000005
21
-93.5499999999999972
0
ARC
8
BLACK
10
253.9807999999999879
20
-107.5500129999999928
40
0.499987002500065
50
-180.00148954
51
-90.00572973
0
LINE
8
BLACK
6
CONTINUOUS
10
259.9807500000000005
20
-108.0499999999999972
11
253.9807500000000005
21
-108.0499999999999972
0
ARC
8
BLACK
10
259.980700000000013
20
-107.5500129999999928
40
0.5000500001689832
50
-89.99427027
51
0.00148954
0
LINE
8
BLACK
6
CONTINUOUS
10
260.4807500000000005
20
-93.5499999999999972
11
260.4807500000000005
21
-107.5499999999999972
0
ARC
8
BLACK
10
259.9807999999999879
20
-93.5500129999999928
40
0.500013002499935
50
0.00148984
51
90.00572943
0
LINE
8
BLACK
6
CONTINUOUS
10
253.9807500000000005
20
-93.0499999999999972
11
259.9807500000000005
21
-93.0499999999999972
0
ARC
8
BLACK
10
262.4187000000000012
20
-92.5500129999999928
40
0.4999500001690169
50
89.99427057
51
179.99851016
0
LINE
8
BLACK
6
CONTINUOUS
10
261.9187499999999886
20
-105.5499999999999972
11
261.9187499999999886
21
-92.5499999999999972
0
ARC
8
BLACK
10
262.4187999999999761
20
-105.5500129999999928
40
0.499987002500065
50
-180.00148954
51
-90.00572973
0
LINE
8
BLACK
6
CONTINUOUS
10
275.4187499999999886
20
-106.0499999999999972
11
262.4187499999999886
21
-106.0499999999999972
0
ARC
8
BLACK
10
275.4187000000000012
20
-105.5500129999999928
40
0.5000500001689832
50
-89.99427027
51
0.00148954
0
LINE
8
BLACK
6
CONTINUOUS
10
275.9187499999999886
20
-92.5499999999999972
11
275.9187499999999886
21
-105.5499999999999972
0
ARC
8
BLACK
10
275.4187999999999761
20
-92.5500129999999928
40
0.500013002499935
50
0.00148984
51
90.00572943
0
LINE
8
BLACK
6
CONTINUOUS
10
262.4187499999999886
20
-92.0499999999999972
11
275.4187499999999886
21
-92.0499999999999972
0
ARC
8
BLACK
10
231.4624999999999773
20
-92.5500129999999928
40
0.500000000169
50
90.00000000
51
179.99851031
0
LINE
8
BLACK
6
CONTINUOUS
10
230.9624999999999773
20
-105.5499999999999972
11
230.9624999999999773
21
-92.5499999999999972
0
ARC
8
BLACK
10
231.4624999999999773
20
-105.5500129999999928
40
0.499987
50
-180.00148969
51
-90.00000000
0
LINE
8
BLACK
6
CONTINUOUS
10
244.4624999999999773
20
-106.0499999999999972
11
231.4624999999999773
21
-106.0499999999999972
0
ARC
8
BLACK
10
244.4624999999999773
20
-105.5500129999999928
40
0.500000000169
50
-90.00000000
51
0.00148969
0
LINE
8
BLACK
6
CONTINUOUS
10
244.9624999999999773
20
-92.5499999999999972
11
244.9624999999999773
21
-105.5499999999999972
0
ARC
8
BLACK
10
244.4624999999999773
20
-92.5500129999999928
40
0.5000129999999999
50
0.00148969
51
90.00000000
0
LINE
8
BLACK
6
CONTINUOUS
10
231.4624999999999773
20
-92.0499999999999972
11
244.4624999999999773
21
-92.0499999999999972
0
ARC
8
BLACK
10
212.4124999999999943
20
-92.5500129999999928
40
0.500000000169
50
90.00000000
51
179.99851031
0
LINE
8
BLACK
6
CONTINUOUS
10
211.9124999999999943
20
-105.5499999999999972
11
211.9124999999999943
21
-92.5499999999999972
0
ARC
8
BLACK
10
212.4124999999999943
20
-105.5500129999999928
40
0.499987
50
-180.00148969
51
-90.00000000
0
LINE
8
BLACK
6
CONTINUOUS
10
225.4124999999999943
20
-106.0499999999999972
11
212.4124999999999943
21
-106.0499999999999972
0
ARC
8
BLACK
10
225.4124999999999943
20
-105.5500129999999928
40
0.500000000169
50
-90.00000000
51
0.00148969
0
LINE
8
BLACK
6
CONTINUOUS
10
225.9124999999999943
20
-92.5499999999999972
11
225.9124999999999943
21
-105.5499999999999972
0
ARC
8
BLACK
10
225.4124999999999943
20
-92.5500129999999928
40
0.5000129999999999
50
0.00148969
51
90.00000000
0
LINE
8
BLACK
6
CONTINUOUS
10
212.4124999999999943
20
-92.0499999999999972
11
225.4124999999999943
21
-92.0499999999999972
0
ARC
8
BLACK
10
193.3624999999999829
20
-92.5500129999999928
40
0.500000000169
50
90.00000000
51
179.99851031
0
LINE
8
BLACK
6
CONTINUOUS
10
192.8624999999999829
20
-105.5499999999999972
11
192.8624999999999829
21
-92.5499999999999972
0
ARC
8
BLACK
10
193.3624999999999829
20
-105.5500129999999928
40
0.499987
50
-180.00148969
51
-90.00000000
0
LINE
8
BLACK
6
CONTINUOUS
10
206.3624999999999829
20
-106.0499999999999972
11
193.3624999999999829
21
-106.0499999999999972
0
ARC
8
BLACK
10
206.3624999999999829
20
-105.5500129999999928
40
0.500000000169
50
-90.00000000
51
0.00148969
0
LINE
8
BLACK
6
CONTINUOUS
10
206.8624999999999829
20
-92.5499999999999972
11
206.8624999999999829
21
-105.5499999999999972
0
ARC
8
BLACK
10
206.3624999999999829
20
-92.5500129999999928
40
0.5000129999999999
50
0.00148969
51
90.00000000
0
LINE
8
BLACK
6
CONTINUOUS
10
193.3624999999999829
20
-92.0499999999999972
11
206.3624999999999829
21
-92.0499999999999972
0
ARC
8
BLACK
10
174.3125
20
-92.5500129999999928
40
0.500000000169
50
90.00000000
51
179.99851031
0
LINE
8
BLACK
6
CONTINUOUS
10
173.8125
20
-105.5499999999999972
11
173.8125
21
-92.5499999999999972
0
ARC
8
BLACK
10
174.3125
20
-105.5500129999999928
40
0.499987
50
-180.00148969
51
-90.00000000
0
LINE
8
BLACK
6
CONTINUOUS
10
187.3125
20
-106.0499999999999972
11
174.3125
21
-106.0499999999999972
0
ARC
8
BLACK
10
187.3125
20
-105.5500129999999928
40
0.500000000169
50
-90.00000000
51
0.00148969
0
LINE
8
BLACK
6
CONTINUOUS
10
187.8125
20
-92.5499999999999972
11
187.8125
21
-105.5499999999999972
0
ARC
8
BLACK
10
187.3125
20
-92.5500129999999928
40
0.5000129999999999
50
0.00148969
51
90.00000000
0
LINE
8
BLACK
6
CONTINUOUS
10
174.3125
20
-92.0499999999999972
11
187.3125
21
-92.0499999999999972
0
ARC
8
BLACK
10
155.2624999999999886
20
-92.5500129999999928
40
0.500000000169
50
90.00000000
51
179.99851031
0
LINE
8
BLACK
6
CONTINUOUS
10
154.7624999999999886
20
-105.5499999999999972
11
154.7624999999999886
21
-92.5499999999999972
0
ARC
8
BLACK
10
155.2624999999999886
20
-105.5500129999999928
40
0.499987
50
-180.00148969
51
-90.00000000
0
LINE
8
BLACK
6
CONTINUOUS
10
168.2624999999999886
20
-106.0499999999999972
11
155.2624999999999886
21
-106.0499999999999972
0
ARC
8
BLACK
10
168.2624999999999886
20
-105.5500129999999928
40
0.500000000169
50
-90.00000000
51
0.00148969
0
LINE
8
BLACK
6
CONTINUOUS
10
168.7624999999999886
20
-92.5499999999999972
11
168.7624999999999886
21
-105.5499999999999972
0
ARC
8
BLACK
10
168.2624999999999886
20
-92.5500129999999928
40
0.5000129999999999
50
0.00148969
51
90.00000000
0
LINE
8
BLACK
6
CONTINUOUS
10
155.2624999999999886
20
-92.0499999999999972
11
168.2624999999999886
21
-92.0499999999999972
0
ARC
8
BLACK
10
136.2125000000000057
20
-92.5500129999999928
40
0.500000000169
50
90.00000000
51
179.99851031
0
LINE
8
BLACK
6
CONTINUOUS
10
135.7125000000000057
20
-105.5499999999999972
11
135.7125000000000057
21
-92.5499999999999972
0
ARC
8
BLACK
10
136.2125000000000057
20
-105.5500129999999928
40
0.499987
50
-180.00148969
51
-90.00000000
0
LINE
8
BLACK
6
CONTINUOUS
10
149.2125000000000057
20
-106.0499999999999972
11
136.2125000000000057
21
-106.0499999999999972
0
ARC
8
BLACK
10
149.2125000000000057
20
-105.5500129999999928
40
0.500000000169
50
-90.00000000
51
0.00148969
0
LINE
8
BLACK
6
CONTINUOUS
10
149.7125000000000057
20
-92.5499999999999972
11
149.7125000000000057
21
-105.5499999999999972
0
ARC
8
BLACK
10
149.2125000000000057
20
-92.5500129999999928
40
0.5000129999999999
50
0.00148969
51
90.00000000
0
LINE
8
BLACK
6
CONTINUOUS
10
136.2125000000000057
20
-92.0499999999999972
11
149.2125000000000057
21
-92.0499999999999972
0
ARC
8
BLACK
10
117.1624999999999943
20
-92.5500129999999928
40
0.500000000169
50
90.00000000
51
179.99851031
0
LINE
8
BLACK
6
CONTINUOUS
10
116.6624999999999943
20
-105.5499999999999972
11
116.6624999999999943
21
-92.5499999999999972
0
ARC
8
BLACK
10
117.1624999999999943
20
-105.5500129999999928
40
0.499987
50
-180.00148969
51
-90.00000000
0
LINE
8
BLACK
6
CONTINUOUS
10
130.1624999999999943
20
-106.0499999999999972
11
117.1624999999999943
21
-106.0499999999999972
0
ARC
8
BLACK
10
130.1624999999999943
20
-105.5500129999999928
40
0.500000000169
50
-90.00000000
51
0.00148969
0
LINE
8
BLACK
6
CONTINUOUS
10
130.6624999999999943
20
-92.5499999999999972
11
130.6624999999999943
21
-105.5499999999999972
0
ARC
8
BLACK
10
130.1624999999999943
20
-92.5500129999999928
40
0.5000129999999999
50
0.00148969
51
90.00000000
0
LINE
8
BLACK
6
CONTINUOUS
10
117.1624999999999943
20
-92.0499999999999972
11
130.1624999999999943
21
-92.0499999999999972
0
ARC
8
BLACK
10
98.1124999999999972
20
-92.5500129999999928
40
0.500000000169
50
90.00000000
51
179.99851031
0
LINE
8
BLACK
6
CONTINUOUS
10
97.6124999999999972
20
-105.5499999999999972
11
97.6124999999999972
21
-92.5499999999999972
0
ARC
8
BLACK
10
98.1124999999999972
20
-105.5500129999999928
40
0.499987
50
-180.00148969
51
-90.00000000
0
LINE
8
BLACK
6
CONTINUOUS
10
111.1124999999999972
20
-106.0499999999999972
11
98.1124999999999972
21
-106.0499999999999972
0
ARC
8
BLACK
10
111.1124999999999972
20
-105.5500129999999928
40
0.500000000169
50
-90.00000000
51
0.00148969
0
LINE
8
BLACK
6
CONTINUOUS
10
111.6124999999999972
20
-92.5499999999999972
11
111.6124999999999972
21
-105.5499999999999972
0
ARC
8
BLACK
10
111.1124999999999972
20
-92.5500129999999928
40
0.5000129999999999
50
0.00148969
51
90.00000000
0
LINE
8
BLACK
6
CONTINUOUS
10
98.1124999999999972
20
-92.0499999999999972
11
111.1124999999999972
21
-92.0499999999999972
0
ARC
8
BLACK
10
79.0625
20
-92.5500129999999928
40
0.500000000169
50
90.00000000
51
179.99851031
0
LINE
8
BLACK
6
CONTINUOUS
10
78.5625
20
-105.5499999999999972
11
78.5625
21
-92.5499999999999972
0
ARC
8
BLACK
10
79.0625
20
-105.5500129999999928
40
0.499987
50
-180.00148969
51
-90.00000000
0
LINE
8
BLACK
6
CONTINUOUS
10
92.0625
20
-106.0499999999999972
11
79.0625
21
-106.0499999999999972
0
ARC
8
BLACK
10
92.0625
20
-105.5500129999999928
40
0.500000000169
50
-90.00000000
51
0.00148969
0
LINE
8
BLACK
6
CONTINUOUS
10
92.5625
20
-92.5499999999999972
11
92.5625
21
-105.5499999999999972
0
ARC
8
BLACK
10
92.0625
20
-92.5500129999999928
40
0.5000129999999999
50
0.00148969
51
90.00000000
0
LINE
8
BLACK
6
CONTINUOUS
10
79.0625
20
-92.0499999999999972
11
92.0625
21
-92.0499999999999972
0
ARC
8
BLACK
10
60.0124999999999957
20
-92.5500129999999928
40
0.500000000169
50
90.00000000
51
179.99851031
0
LINE
8
BLACK
6
CONTINUOUS
10
59.5124999999999957
20
-105.5499999999999972
11
59.5124999999999957
21
-92.5499999999999972
0
ARC
8
BLACK
10
60.0124999999999957
20
-105.5500129999999928
40
0.499987
50
-180.00148969
51
-90.00000000
0
LINE
8
BLACK
6
CONTINUOUS
10
73.0125000000000028
20
-106.0499999999999972
11
60.0124999999999957
21
-106.0499999999999972
0
ARC
8
BLACK
10
73.0125000000000028
20
-105.5500129999999928
40
0.500000000169
50
-90.00000000
51
0.00148969
0
LINE
8
BLACK
6
CONTINUOUS
10
73.5125000000000028
20
-92.5499999999999972
11
73.5125000000000028
21
-105.5499999999999972
0
ARC
8
BLACK
10
73.0125000000000028
20
-92.5500129999999928
40
0.5000129999999999
50
0.00148969
51
90.00000000
0
LINE
8
BLACK
6
CONTINUOUS
10
60.0124999999999957
20
-92.0499999999999972
11
73.0125000000000028
21
-92.0499999999999972
0
ARC
8
BLACK
10
40.9624999999999986
20
-92.5500129999999928
40
0.500000000169
50
90.00000000
51
179.99851031
0
LINE
8
BLACK
6
CONTINUOUS
10
40.4624999999999986
20
-105.5499999999999972
11
40.4624999999999986
21
-92.5499999999999972
0
ARC
8
BLACK
10
40.9624999999999986
20
-105.5500129999999928
40
0.499987
50
-180.00148969
51
-90.00000000
0
LINE
8
BLACK
6
CONTINUOUS
10
53.9624999999999986
20
-106.0499999999999972
11
40.9624999999999986
21
-106.0499999999999972
0
ARC
8
BLACK
10
53.9624999999999986
20
-105.5500129999999928
40
0.500000000169
50
-90.00000000
51
0.00148969
0
LINE
8
BLACK
6
CONTINUOUS
10
54.4624999999999986
20
-92.5499999999999972
11
54.4624999999999986
21
-105.5499999999999972
0
ARC
8
BLACK
10
53.9624999999999986
20
-92.5500129999999928
40
0.5000129999999999
50
0.00148969
51
90.00000000
0
LINE
8
BLACK
6
CONTINUOUS
10
40.9624999999999986
20
-92.0499999999999972
11
53.9624999999999986
21
-92.0499999999999972
0
ARC
8
BLACK
10
31.5186999999999991
20
-92.5500129999999928
40
0.4999500001690169
50
89.99427057
51
179.99851016
0
LINE
8
BLACK
6
CONTINUOUS
10
31.0187499999999972
20
-105.5499999999999972
11
31.0187499999999972
21
-92.5499999999999972
0
ARC
8
BLACK
10
31.5187999999999988
20
-105.5500129999999928
40
0.499987002500065
50
-180.00148954
51
-90.00572973
0
LINE
8
BLACK
6
CONTINUOUS
10
32.5187499999999972
20
-106.0499999999999972
11
31.5187499999999972
21
-106.0499999999999972
0
ARC
8
BLACK
10
32.5186999999999955
20
-105.5500129999999928
40
0.5000500001689832
50
-89.99427027
51
0.00148954
0
LINE
8
BLACK
6
CONTINUOUS
10
33.0187499999999972
20
-92.5499999999999972
11
33.0187499999999972
21
-105.5499999999999972
0
ARC
8
BLACK
10
32.5187999999999988
20
-92.5500129999999928
40
0.500013002499935
50
0.00148984
51
90.00572943
0
LINE
8
BLACK
6
CONTINUOUS
10
31.5187499999999972
20
-92.0499999999999972
11
32.5187499999999972
21
-92.0499999999999972
0
ARC
8
BLACK
10
10.0187499999999989
20
-92.5500029999999896
40
0.500000000009
50
90.00000000
51
179.99965623
0
ARC
8
BLACK
10
10.0187499999999989
20
-105.5500029999999896
40
0.499997
50
-180.00034377
51
-90.00000000
0
LINE
8
BLACK
6
CONTINUOUS
10
27.7687499999999972
20
-106.0499999999999972
11
10.0187499999999989
21
-106.0499999999999972
0
LINE
8
BLACK
6
CONTINUOUS
10
10.0187499999999989
20
-92.0499999999999972
11
27.7687499999999972
21
-92.0499999999999972
0
ARC
8
BLACK
10
27.7686999999999991
20
-105.5500129999999928
40
0.5000500001689832
50
-89.99427027
51
0.00148954
0
LINE
8
BLACK
6
CONTINUOUS
10
28.2687499999999972
20
-92.5499999999999972
11
28.2687499999999972
21
-105.5499999999999972
0
ARC
8
BLACK
10
27.7687999999999988
20
-92.5500129999999928
40
0.500013002499935
50
0.00148984
51
90.00572943
0
ARC
8
BLACK
10
286.3125
20
-73.5000129999999956
40
0.500000000169
50
90.00000000
51
179.99851031
0
LINE
8
BLACK
6
CONTINUOUS
10
285.8125
20
-86.5
11
285.8125
21
-73.5
0
ARC
8
BLACK
10
286.3125
20
-86.5000129999999956
40
0.499987
50
-180.00148969
51
-90.00000000
0
LINE
8
BLACK
6
CONTINUOUS
10
287.3125
20
-87.
11
286.3125
21
-87.
0
ARC
8
BLACK
10
287.3125
20
-86.5000129999999956
40
0.500000000169
50
-90.00000000
51
0.00148969
0
LINE
8
BLACK
6
CONTINUOUS
10
287.8125
20
-73.5
11
287.8125
21
-86.5
0
ARC
8
BLACK
10
287.3125
20
-73.5000129999999956
40
0.5000129999999999
50
0.00148969
51
90.00000000
0
LINE
8
BLACK
6
CONTINUOUS
10
286.3125
20
-73.
11
287.3125
21
-73.
0
ARC
8
BLACK
10
264.8125
20
-86.5000129999999956
40
0.499987
50
-180.00148969
51
-90.00000000
0
LINE
8
BLACK
6
CONTINUOUS
10
265.8125
20
-87.
11
264.8125
21
-87.
0
ARC
8
BLACK
10
265.8125
20
-86.5000129999999956
40
0.500000000169
50
-90.00000000
51
0.00148969
0
LINE
8
BLACK
6
CONTINUOUS
10
266.3125
20
-74.7320509999999985
11
266.3125
21
-86.5
0
ARC
8
BLACK
10
269.5625
20
-73.5000129999999956
40
0.500000000169
50
90.00000000
51
179.99851031
0
LINE
8
BLACK
6
CONTINUOUS
10
269.0625
20
-86.5
11
269.0625
21
-73.5
0
ARC
8
BLACK
10
269.5625
20
-86.5000129999999956
40
0.499987
50
-180.00148969
51
-90.00000000
0
LINE
8
BLACK
6
CONTINUOUS
10
282.5625
20
-87.
11
269.5625
21
-87.
0
ARC
8
BLACK
10
282.5625
20
-86.5000129999999956
40
0.500000000169
50
-90.00000000
51
0.00148969
0
LINE
8
BLACK
6
CONTINUOUS
10
283.0625
20
-73.5
11
283.0625
21
-86.5
0
ARC
8
BLACK
10
282.5625
20
-73.5000129999999956
40
0.5000129999999999
50
0.00148969
51
90.00000000
0
LINE
8
BLACK
6
CONTINUOUS
10
269.5625
20
-73.
11
282.5625
21
-73.
0
ARC
8
BLACK
10
245.75
20
-73.5000129999999956
40
0.500000000169
50
90.00000000
51
179.99851031
0
LINE
8
BLACK
6
CONTINUOUS
10
245.25
20
-86.5
11
245.25
21
-73.5
0
ARC
8
BLACK
10
245.75
20
-86.5000129999999956
40
0.499987
50
-180.00148969
51
-90.00000000
0
LINE
8
BLACK
6
CONTINUOUS
10
258.75
20
-87.
11
245.75
21
-87.
0
ARC
8
BLACK
10
258.75
20
-86.5000129999999956
40
0.500000000169
50
-90.00000000
51
0.00148969
0
LINE
8
BLACK
6
CONTINUOUS
10
259.25
20
-73.5
11
259.25
21
-86.5
0
ARC
8
BLACK
10
258.75
20
-73.5000129999999956
40
0.5000129999999999
50
0.00148969
51
90.00000000
0
LINE
8
BLACK
6
CONTINUOUS
10
245.75
20
-73.
11
258.75
21
-73.
0
ARC
8
BLACK
10
226.6999999999999886
20
-73.5000129999999956
40
0.500000000169
50
90.00000000
51
179.99851031
0
LINE
8
BLACK
6
CONTINUOUS
10
226.1999999999999886
20
-86.5
11
226.1999999999999886
21
-73.5
0
ARC
8
BLACK
10
226.6999999999999886
20
-86.5000129999999956
40
0.499987
50
-180.00148969
51
-90.00000000
0
LINE
8
BLACK
6
CONTINUOUS
10
239.6999999999999886
20
-87.
11
226.6999999999999886
21
-87.
0
ARC
8
BLACK
10
239.6999999999999886
20
-86.5000129999999956
40
0.500000000169
50
-90.00000000
51
0.00148969
0
LINE
8
BLACK
6
CONTINUOUS
10
240.1999999999999886
20
-73.5
11
240.1999999999999886
21
-86.5
0
ARC
8
BLACK
10
239.6999999999999886
20
-73.5000129999999956
40
0.5000129999999999
50
0.00148969
51
90.00000000
0
LINE
8
BLACK
6
CONTINUOUS
10
226.6999999999999886
20
-73.
11
239.6999999999999886
21
-73.
0
ARC
8
BLACK
10
207.6499999999999773
20
-73.5000129999999956
40
0.500000000169
50
90.00000000
51
179.99851031
0
LINE
8
BLACK
6
CONTINUOUS
10
207.1499999999999773
20
-86.5
11
207.1499999999999773
21
-73.5
0
ARC
8
BLACK
10
207.6499999999999773
20
-86.5000129999999956
40
0.499987
50
-180.00148969
51
-90.00000000
0
LINE
8
BLACK
6
CONTINUOUS
10
220.6499999999999773
20
-87.
11
207.6499999999999773
21
-87.
0
ARC
8
BLACK
10
220.6499999999999773
20
-86.5000129999999956
40
0.500000000169
50
-90.00000000
51
0.00148969
0
LINE
8
BLACK
6
CONTINUOUS
10
221.1499999999999773
20
-73.5
11
221.1499999999999773
21
-86.5
0
ARC
8
BLACK
10
220.6499999999999773
20
-73.5000129999999956
40
0.5000129999999999
50
0.00148969
51
90.00000000
0
LINE
8
BLACK
6
CONTINUOUS
10
207.6499999999999773
20
-73.
11
220.6499999999999773
21
-73.
0
ARC
8
BLACK
10
188.5999999999999943
20
-73.5000129999999956
40
0.500000000169
50
90.00000000
51
179.99851031
0
LINE
8
BLACK
6
CONTINUOUS
10
188.0999999999999943
20
-86.5
11
188.0999999999999943
21
-73.5
0
ARC
8
BLACK
10
188.5999999999999943
20
-86.5000129999999956
40
0.499987
50
-180.00148969
51
-90.00000000
0
LINE
8
BLACK
6
CONTINUOUS
10
201.5999999999999943
20
-87.
11
188.5999999999999943
21
-87.
0
ARC
8
BLACK
10
201.5999999999999943
20
-86.5000129999999956
40
0.500000000169
50
-90.00000000
51
0.00148969
0
LINE
8
BLACK
6
CONTINUOUS
10
202.0999999999999943
20
-73.5
11
202.0999999999999943
21
-86.5
0
ARC
8
BLACK
10
201.5999999999999943
20
-73.5000129999999956
40
0.5000129999999999
50
0.00148969
51
90.00000000
0
LINE
8
BLACK
6
CONTINUOUS
10
188.5999999999999943
20
-73.
11
201.5999999999999943
21
-73.
0
ARC
8
BLACK
10
169.5499999999999829
20
-73.5000129999999956
40
0.500000000169
50
90.00000000
51
179.99851031
0
LINE
8
BLACK
6
CONTINUOUS
10
169.0499999999999829
20
-86.5
11
169.0499999999999829
21
-73.5
0
ARC
8
BLACK
10
169.5499999999999829
20
-86.5000129999999956
40
0.499987
50
-180.00148969
51
-90.00000000
0
LINE
8
BLACK
6
CONTINUOUS
10
182.5499999999999829
20
-87.
11
169.5499999999999829
21
-87.
0
ARC
8
BLACK
10
182.5499999999999829
20
-86.5000129999999956
40
0.500000000169
50
-90.00000000
51
0.00148969
0
LINE
8
BLACK
6
CONTINUOUS
10
183.0499999999999829
20
-73.5
11
183.0499999999999829
21
-86.5
0
ARC
8
BLACK
10
182.5499999999999829
20
-73.5000129999999956
40
0.5000129999999999
50
0.00148969
51
90.00000000
0
LINE
8
BLACK
6
CONTINUOUS
10
169.5499999999999829
20
-73.
11
182.5499999999999829
21
-73.
0
ARC
8
BLACK
10
150.5
20
-73.5000129999999956
40
0.500000000169
50
90.00000000
51
179.99851031
0
LINE
8
BLACK
6
CONTINUOUS
10
150.
20
-86.5
11
150.
21
-73.5
0
ARC
8
BLACK
10
150.5
20
-86.5000129999999956
40
0.499987
50
-180.00148969
51
-90.00000000
0
LINE
8
BLACK
6
CONTINUOUS
10
163.5
20
-87.
11
150.5
21
-87.
0
ARC
8
BLACK
10
163.5
20
-86.5000129999999956
40
0.500000000169
50
-90.00000000
51
0.00148969
0
LINE
8
BLACK
6
CONTINUOUS
10
164.
20
-73.5
11
164.
21
-86.5
0
ARC
8
BLACK
10
163.5
20
-73.5000129999999956
40
0.5000129999999999
50
0.00148969
51
90.00000000
0
LINE
8
BLACK
6
CONTINUOUS
10
150.5
20
-73.
11
163.5
21
-73.
0
ARC
8
BLACK
10
131.4499999999999886
20
-73.5000129999999956
40
0.500000000169
50
90.00000000
51
179.99851031
0
LINE
8
BLACK
6
CONTINUOUS
10
130.9499999999999886
20
-86.5
11
130.9499999999999886
21
-73.5
0
ARC
8
BLACK
10
131.4499999999999886
20
-86.5000129999999956
40
0.499987
50
-180.00148969
51
-90.00000000
0
LINE
8
BLACK
6
CONTINUOUS
10
144.4499999999999886
20
-87.
11
131.4499999999999886
21
-87.
0
ARC
8
BLACK
10
144.4499999999999886
20
-86.5000129999999956
40
0.500000000169
50
-90.00000000
51
0.00148969
0
LINE
8
BLACK
6
CONTINUOUS
10
144.9499999999999886
20
-73.5
11
144.9499999999999886
21
-86.5
0
ARC
8
BLACK
10
144.4499999999999886
20
-73.5000129999999956
40
0.5000129999999999
50
0.00148969
51
90.00000000
0
LINE
8
BLACK
6
CONTINUOUS
10
131.4499999999999886
20
-73.
11
144.4499999999999886
21
-73.
0
ARC
8
BLACK
10
112.3999999999999915
20
-73.5000129999999956
40
0.500000000169
50
90.00000000
51
179.99851031
0
LINE
8
BLACK
6
CONTINUOUS
10
111.8999999999999915
20
-86.5
11
111.8999999999999915
21
-73.5
0
ARC
8
BLACK
10
112.3999999999999915
20
-86.5000129999999956
40
0.499987
50
-180.00148969
51
-90.00000000
0
LINE
8
BLACK
6
CONTINUOUS
10
125.3999999999999915
20
-87.
11
112.3999999999999915
21
-87.
0
ARC
8
BLACK
10
125.3999999999999915
20
-86.5000129999999956
40
0.500000000169
50
-90.00000000
51
0.00148969
0
LINE
8
BLACK
6
CONTINUOUS
10
125.8999999999999915
20
-73.5
11
125.8999999999999915
21
-86.5
0
ARC
8
BLACK
10
125.3999999999999915
20
-73.5000129999999956
40
0.5000129999999999
50
0.00148969
51
90.00000000
0
LINE
8
BLACK
6
CONTINUOUS
10
112.3999999999999915
20
-73.
11
125.3999999999999915
21
-73.
0
ARC
8
BLACK
10
93.3499999999999943
20
-73.5000129999999956
40
0.500000000169
50
90.00000000
51
179.99851031
0
LINE
8
BLACK
6
CONTINUOUS
10
92.8499999999999943
20
-86.5
11
92.8499999999999943
21
-73.5
0
ARC
8
BLACK
10
93.3499999999999943
20
-86.5000129999999956
40
0.499987
50
-180.00148969
51
-90.00000000
0
LINE
8
BLACK
6
CONTINUOUS
10
106.3499999999999943
20
-87.
11
93.3499999999999943
21
-87.
0
ARC
8
BLACK
10
106.3499999999999943
20
-86.5000129999999956
40
0.500000000169
50
-90.00000000
51
0.00148969
0
LINE
8
BLACK
6
CONTINUOUS
10
106.8499999999999943
20
-73.5
11
106.8499999999999943
21
-86.5
0
ARC
8
BLACK
10
106.3499999999999943
20
-73.5000129999999956
40
0.5000129999999999
50
0.00148969
51
90.00000000
0
LINE
8
BLACK
6
CONTINUOUS
10
93.3499999999999943
20
-73.
11
106.3499999999999943
21
-73.
0
ARC
8
BLACK
10
74.2999999999999972
20
-73.5000129999999956
40
0.500000000169
50
90.00000000
51
179.99851031
0
LINE
8
BLACK
6
CONTINUOUS
10
73.7999999999999972
20
-86.5
11
73.7999999999999972
21
-73.5
0
ARC
8
BLACK
10
74.2999999999999972
20
-86.5000129999999956
40
0.499987
50
-180.00148969
51
-90.00000000
0
LINE
8
BLACK
6
CONTINUOUS
10
87.2999999999999972
20
-87.
11
74.2999999999999972
21
-87.
0
ARC
8
BLACK
10
87.2999999999999972
20
-86.5000129999999956
40
0.500000000169
50
-90.00000000
51
0.00148969
0
LINE
8
BLACK
6
CONTINUOUS
10
87.7999999999999972
20
-73.5
11
87.7999999999999972
21
-86.5
0
ARC
8
BLACK
10
87.2999999999999972
20
-73.5000129999999956
40
0.5000129999999999
50
0.00148969
51
90.00000000
0
LINE
8
BLACK
6
CONTINUOUS
10
74.2999999999999972
20
-73.
11
87.2999999999999972
21
-73.
0
ARC
8
BLACK
10
55.25
20
-73.5000129999999956
40
0.500000000169
50
90.00000000
51
179.99851031
0
LINE
8
BLACK
6
CONTINUOUS
10
54.75
20
-86.5
11
54.75
21
-73.5
0
ARC
8
BLACK
10
55.25
20
-86.5000129999999956
40
0.499987
50
-180.00148969
51
-90.00000000
0
LINE
8
BLACK
6
CONTINUOUS
10
68.25
20
-87.
11
55.25
21
-87.
0
ARC
8
BLACK
10
68.25
20
-86.5000129999999956
40
0.500000000169
50
-90.00000000
51
0.00148969
0
LINE
8
BLACK
6
CONTINUOUS
10
68.75
20
-73.5
11
68.75
21
-86.5
0
ARC
8
BLACK
10
68.25
20
-73.5000129999999956
40
0.5000129999999999
50
0.00148969
51
90.00000000
0
LINE
8
BLACK
6
CONTINUOUS
10
55.25
20
-73.
11
68.25
21
-73.
0
ARC
8
BLACK
10
36.1999999999999957
20
-73.5000129999999956
40
0.500000000169
50
90.00000000
51
179.99851031
0
LINE
8
BLACK
6
CONTINUOUS
10
35.6999999999999957
20
-86.5
11
35.6999999999999957
21
-73.5
0
ARC
8
BLACK
10
36.1999999999999957
20
-86.5000129999999956
40
0.499987
50
-180.00148969
51
-90.00000000
0
LINE
8
BLACK
6
CONTINUOUS
10
49.1999999999999957
20
-87.
11
36.1999999999999957
21
-87.
0
ARC
8
BLACK
10
49.1999999999999957
20
-86.5000129999999956
40
0.500000000169
50
-90.00000000
51
0.00148969
0
LINE
8
BLACK
6
CONTINUOUS
10
49.6999999999999957
20
-73.5
11
49.6999999999999957
21
-86.5
0
ARC
8
BLACK
10
49.1999999999999957
20
-73.5000129999999956
40
0.5000129999999999
50
0.00148969
51
90.00000000
0
LINE
8
BLACK
6
CONTINUOUS
10
36.1999999999999957
20
-73.
11
49.1999999999999957
21
-73.
0
ARC
8
BLACK
10
29.1374999999999993
20
-86.5000129999999956
40
0.499987
50
-180.00148969
51
-90.00000000
0
LINE
8
BLACK
6
CONTINUOUS
10
30.1374999999999993
20
-87.
11
29.1374999999999993
21
-87.
0
ARC
8
BLACK
10
30.1374999999999993
20
-86.5000129999999956
40
0.500000000169
50
-90.00000000
51
0.00148969
0
LINE
8
BLACK
6
CONTINUOUS
10
30.6374999999999993
20
-74.7320509999999985
11
30.6374999999999993
21
-86.5
0
ARC
8
BLACK
10
7.6374999999999993
20
-73.5000129999999956
40
0.500000000169
50
90.00000000
51
179.99851031
0
LINE
8
BLACK
6
CONTINUOUS
10
7.1374999999999993
20
-86.5
11
7.1374999999999993
21
-73.5
0
ARC
8
BLACK
10
7.6374999999999993
20
-86.5000029999999924
40
0.499997
50
-180.00034377
51
-90.00000000
0
LINE
8
BLACK
6
CONTINUOUS
10
8.6374999999999993
20
-87.
11
7.6374999999999993
21
-87.
0
ARC
8
BLACK
10
8.6374999999999993
20
-86.5000129999999956
40
0.500000000169
50
-90.00000000
51
0.00148969
0
LINE
8
BLACK
6
CONTINUOUS
10
9.1374999999999993
20
-73.5
11
9.1374999999999993
21
-86.5
0
ARC
8
BLACK
10
8.6374999999999993
20
-73.5000029999999924
40
0.500003
50
0.00034377
51
90.00000000
0
LINE
8
BLACK
6
CONTINUOUS
10
7.6374999999999993
20
-73.
11
8.6374999999999993
21
-73.
0
ARC
8
BLACK
10
12.3874999999999993
20
-73.5000129999999956
40
0.500000000169
50
90.00000000
51
179.99851031
0
LINE
8
BLACK
6
CONTINUOUS
10
11.8874999999999993
20
-86.5
11
11.8874999999999993
21
-73.5
0
ARC
8
BLACK
10
12.3874999999999993
20
-86.5000129999999956
40
0.499987
50
-180.00148969
51
-90.00000000
0
LINE
8
BLACK
6
CONTINUOUS
10
25.3874999999999993
20
-87.
11
12.3874999999999993
21
-87.
0
ARC
8
BLACK
10
25.3874999999999993
20
-86.5000129999999956
40
0.500000000169
50
-90.00000000
51
0.00148969
0
LINE
8
BLACK
6
CONTINUOUS
10
25.8874999999999993
20
-73.5
11
25.8874999999999993
21
-86.5
0
ARC
8
BLACK
10
25.3874999999999993
20
-73.5000129999999956
40
0.5000129999999999
50
0.00148969
51
90.00000000
0
LINE
8
BLACK
6
CONTINUOUS
10
12.3874999999999993
20
-73.
11
25.3874999999999993
21
-73.
0
ARC
8
BLACK
10
287.3249999999999886
20
-67.4500129999999984
40
0.500000000169
50
-90.00000000
51
0.00148969
0
LINE
8
BLACK
6
CONTINUOUS
10
287.8249999999999886
20
-54.4499999999999957
11
287.8249999999999886
21
-67.4500000000000028
0
ARC
8
BLACK
10
287.3249999999999886
20
-54.4500129999999984
40
0.5000129999999999
50
0.00148969
51
90.00000000
0
LINE
8
BLACK
6
CONTINUOUS
10
255.2749999999999773
20
-53.9499999999999957
11
287.3249999999999886
21
-53.9499999999999957
0
ARC
8
BLACK
10
255.2749999999999773
20
-54.4500129999999984
40
0.500000000169
50
90.00000000
51
179.99851031
0
LINE
8
BLACK
6
CONTINUOUS
10
254.7749999999999773
20
-67.4500000000000028
11
254.7749999999999773
21
-54.4499999999999957
0
ARC
8
BLACK
10
255.2749999999999773
20
-67.4500129999999984
40
0.499987
50
-180.00148969
51
-90.00000000
0
ARC
8
BLACK
10
236.2249999999999943
20
-54.4500129999999984
40
0.500000000169
50
90.00000000
51
179.99851031
0
LINE
8
BLACK
6
CONTINUOUS
10
235.7249999999999943
20
-67.4500000000000028
11
235.7249999999999943
21
-54.4499999999999957
0
ARC
8
BLACK
10
236.2249999999999943
20
-67.4500129999999984
40
0.499987
50
-180.00148969
51
-90.00000000
0
LINE
8
BLACK
6
CONTINUOUS
10
249.2249999999999943
20
-67.9500000000000028
11
236.2249999999999943
21
-67.9500000000000028
0
ARC
8
BLACK
10
249.2249999999999943
20
-67.4500129999999984
40
0.500000000169
50
-90.00000000
51
0.00148969
0
LINE
8
BLACK
6
CONTINUOUS
10
249.7249999999999943
20
-54.4499999999999957
11
249.7249999999999943
21
-67.4500000000000028
0
ARC
8
BLACK
10
249.2249999999999943
20
-54.4500129999999984
40
0.5000129999999999
50
0.00148969
51
90.00000000
0
LINE
8
BLACK
6
CONTINUOUS
10
236.2249999999999943
20
-53.9499999999999957
11
249.2249999999999943
21
-53.9499999999999957
0
ARC
8
BLACK
10
217.1749999999999829
20
-54.4500129999999984
40
0.500000000169
50
90.00000000
51
179.99851031
0
LINE
8
BLACK
6
CONTINUOUS
10
216.6749999999999829
20
-67.4500000000000028
11
216.6749999999999829
21
-54.4499999999999957
0
ARC
8
BLACK
10
217.1749999999999829
20
-67.4500129999999984
40
0.499987
50
-180.00148969
51
-90.00000000
0
LINE
8
BLACK
6
CONTINUOUS
10
230.1749999999999829
20
-67.9500000000000028
11
217.1749999999999829
21
-67.9500000000000028
0
ARC
8
BLACK
10
230.1749999999999829
20
-67.4500129999999984
40
0.500000000169
50
-90.00000000
51
0.00148969
0
LINE
8
BLACK
6
CONTINUOUS
10
230.6749999999999829
20
-54.4499999999999957
11
230.6749999999999829
21
-67.4500000000000028
0
ARC
8
BLACK
10
230.1749999999999829
20
-54.4500129999999984
40
0.5000129999999999
50
0.00148969
51
90.00000000
0
LINE
8
BLACK
6
CONTINUOUS
10
217.1749999999999829
20
-53.9499999999999957
11
230.1749999999999829
21
-53.9499999999999957
0
ARC
8
BLACK
10
198.125
20
-54.4500129999999984
40
0.500000000169
50
90.00000000
51
179.99851031
0
LINE
8
BLACK
6
CONTINUOUS
10
197.625
20
-67.4500000000000028
11
197.625
21
-54.4499999999999957
0
ARC
8
BLACK
10
198.125
20
-67.4500129999999984
40
0.499987
50
-180.00148969
51
-90.00000000
0
LINE
8
BLACK
6
CONTINUOUS
10
211.125
20
-67.9500000000000028
11
198.125
21
-67.9500000000000028
0
ARC
8
BLACK
10
211.125
20
-67.4500129999999984
40
0.500000000169
50
-90.00000000
51
0.00148969
0
LINE
8
BLACK
6
CONTINUOUS
10
211.625
20
-54.4499999999999957
11
211.625
21
-67.4500000000000028
0
ARC
8
BLACK
10
211.125
20
-54.4500129999999984
40
0.5000129999999999
50
0.00148969
51
90.00000000
0
LINE
8
BLACK
6
CONTINUOUS
10
198.125
20
-53.9499999999999957
11
211.125
21
-53.9499999999999957
0
ARC
8
BLACK
10
179.0749999999999886
20
-54.4500129999999984
40
0.500000000169
50
90.00000000
51
179.99851031
0
LINE
8
BLACK
6
CONTINUOUS
10
178.5749999999999886
20
-67.4500000000000028
11
178.5749999999999886
21
-54.4499999999999957
0
ARC
8
BLACK
10
179.0749999999999886
20
-67.4500129999999984
40
0.499987
50
-180.00148969
51
-90.00000000
0
LINE
8
BLACK
6
CONTINUOUS
10
192.0749999999999886
20
-67.9500000000000028
11
179.0749999999999886
21
-67.9500000000000028
0
ARC
8
BLACK
10
192.0749999999999886
20
-67.4500129999999984
40
0.500000000169
50
-90.00000000
51
0.00148969
0
LINE
8
BLACK
6
CONTINUOUS
10
192.5749999999999886
20
-54.4499999999999957
11
192.5749999999999886
21
-67.4500000000000028
0
ARC
8
BLACK
10
192.0749999999999886
20
-54.4500129999999984
40
0.5000129999999999
50
0.00148969
51
90.00000000
0
LINE
8
BLACK
6
CONTINUOUS
10
179.0749999999999886
20
-53.9499999999999957
11
192.0749999999999886
21
-53.9499999999999957
0
ARC
8
BLACK
10
160.0250000000000057
20
-54.4500129999999984
40
0.500000000169
50
90.00000000
51
179.99851031
0
LINE
8
BLACK
6
CONTINUOUS
10
159.5250000000000057
20
-67.4500000000000028
11
159.5250000000000057
21
-54.4499999999999957
0
ARC
8
BLACK
10
160.0250000000000057
20
-67.4500129999999984
40
0.499987
50
-180.00148969
51
-90.00000000
0
LINE
8
BLACK
6
CONTINUOUS
10
173.0250000000000057
20
-67.9500000000000028
11
160.0250000000000057
21
-67.9500000000000028
0
ARC
8
BLACK
10
173.0250000000000057
20
-67.4500129999999984
40
0.500000000169
50
-90.00000000
51
0.00148969
0
LINE
8
BLACK
6
CONTINUOUS
10
173.5250000000000057
20
-54.4499999999999957
11
173.5250000000000057
21
-67.4500000000000028
0
ARC
8
BLACK
10
173.0250000000000057
20
-54.4500129999999984
40
0.5000129999999999
50
0.00148969
51
90.00000000
0
LINE
8
BLACK
6
CONTINUOUS
10
160.0250000000000057
20
-53.9499999999999957
11
173.0250000000000057
21
-53.9499999999999957
0
ARC
8
BLACK
10
140.9749999999999943
20
-54.4500129999999984
40
0.500000000169
50
90.00000000
51
179.99851031
0
LINE
8
BLACK
6
CONTINUOUS
10
140.4749999999999943
20
-67.4500000000000028
11
140.4749999999999943
21
-54.4499999999999957
0
ARC
8
BLACK
10
140.9749999999999943
20
-67.4500129999999984
40
0.499987
50
-180.00148969
51
-90.00000000
0
LINE
8
BLACK
6
CONTINUOUS
10
153.9749999999999943
20
-67.9500000000000028
11
140.9749999999999943
21
-67.9500000000000028
0
ARC
8
BLACK
10
153.9749999999999943
20
-67.4500129999999984
40
0.500000000169
50
-90.00000000
51
0.00148969
0
LINE
8
BLACK
6
CONTINUOUS
10
154.4749999999999943
20
-54.4499999999999957
11
154.4749999999999943
21
-67.4500000000000028
0
ARC
8
BLACK
10
153.9749999999999943
20
-54.4500129999999984
40
0.5000129999999999
50
0.00148969
51
90.00000000
0
LINE
8
BLACK
6
CONTINUOUS
10
140.9749999999999943
20
-53.9499999999999957
11
153.9749999999999943
21
-53.9499999999999957
0
ARC
8
BLACK
10
121.9249999999999972
20
-54.4500129999999984
40
0.500000000169
50
90.00000000
51
179.99851031
0
LINE
8
BLACK
6
CONTINUOUS
10
121.4249999999999972
20
-67.4500000000000028
11
121.4249999999999972
21
-54.4499999999999957
0
ARC
8
BLACK
10
121.9249999999999972
20
-67.4500129999999984
40
0.499987
50
-180.00148969
51
-90.00000000
0
LINE
8
BLACK
6
CONTINUOUS
10
134.9249999999999829
20
-67.9500000000000028
11
121.9249999999999972
21
-67.9500000000000028
0
ARC
8
BLACK
10
134.9249999999999829
20
-67.4500129999999984
40
0.500000000169
50
-90.00000000
51
0.00148969
0
LINE
8
BLACK
6
CONTINUOUS
10
135.4249999999999829
20
-54.4499999999999957
11
135.4249999999999829
21
-67.4500000000000028
0
ARC
8
BLACK
10
134.9249999999999829
20
-54.4500129999999984
40
0.5000129999999999
50
0.00148969
51
90.00000000
0
LINE
8
BLACK
6
CONTINUOUS
10
121.9249999999999972
20
-53.9499999999999957
11
134.9249999999999829
21
-53.9499999999999957
0
ARC
8
BLACK
10
102.875
20
-54.4500129999999984
40
0.500000000169
50
90.00000000
51
179.99851031
0
LINE
8
BLACK
6
CONTINUOUS
10
102.375
20
-67.4500000000000028
11
102.375
21
-54.4499999999999957
0
ARC
8
BLACK
10
102.875
20
-67.4500129999999984
40
0.499987
50
-180.00148969
51
-90.00000000
0
LINE
8
BLACK
6
CONTINUOUS
10
115.875
20
-67.9500000000000028
11
102.875
21
-67.9500000000000028
0
ARC
8
BLACK
10
115.875
20
-67.4500129999999984
40
0.500000000169
50
-90.00000000
51
0.00148969
0
LINE
8
BLACK
6
CONTINUOUS
10
116.375
20
-54.4499999999999957
11
116.375
21
-67.4500000000000028
0
ARC
8
BLACK
10
115.875
20
-54.4500129999999984
40
0.5000129999999999
50
0.00148969
51
90.00000000
0
LINE
8
BLACK
6
CONTINUOUS
10
102.875
20
-53.9499999999999957
11
115.875
21
-53.9499999999999957
0
ARC
8
BLACK
10
83.8250000000000028
20
-54.4500129999999984
40
0.500000000169
50
90.00000000
51
179.99851031
0
LINE
8
BLACK
6
CONTINUOUS
10
83.3250000000000028
20
-67.4500000000000028
11
83.3250000000000028
21
-54.4499999999999957
0
ARC
8
BLACK
10
83.8250000000000028
20
-67.4500129999999984
40
0.499987
50
-180.00148969
51
-90.00000000
0
LINE
8
BLACK
6
CONTINUOUS
10
96.8249999999999886
20
-67.9500000000000028
11
83.8250000000000028
21
-67.9500000000000028
0
ARC
8
BLACK
10
96.8249999999999886
20
-67.4500129999999984
40
0.500000000169
50
-90.00000000
51
0.00148969
0
LINE
8
BLACK
6
CONTINUOUS
10
97.3249999999999886
20
-54.4499999999999957
11
97.3249999999999886
21
-67.4500000000000028
0
ARC
8
BLACK
10
96.8249999999999886
20
-54.4500129999999984
40
0.5000129999999999
50
0.00148969
51
90.00000000
0
LINE
8
BLACK
6
CONTINUOUS
10
83.8250000000000028
20
-53.9499999999999957
11
96.8249999999999886
21
-53.9499999999999957
0
ARC
8
BLACK
10
64.7749999999999915
20
-54.4500129999999984
40
0.500000000169
50
90.00000000
51
179.99851031
0
LINE
8
BLACK
6
CONTINUOUS
10
64.2749999999999915
20
-67.4500000000000028
11
64.2749999999999915
21
-54.4499999999999957
0
ARC
8
BLACK
10
64.7749999999999915
20
-67.4500129999999984
40
0.499987
50
-180.00148969
51
-90.00000000
0
LINE
8
BLACK
6
CONTINUOUS
10
77.7749999999999915
20
-67.9500000000000028
11
64.7749999999999915
21
-67.9500000000000028
0
ARC
8
BLACK
10
77.7749999999999915
20
-67.4500129999999984
40
0.500000000169
50
-90.00000000
51
0.00148969
0
LINE
8
BLACK
6
CONTINUOUS
10
78.2749999999999915
20
-54.4499999999999957
11
78.2749999999999915
21
-67.4500000000000028
0
ARC
8
BLACK
10
77.7749999999999915
20
-54.4500129999999984
40
0.5000129999999999
50
0.00148969
51
90.00000000
0
LINE
8
BLACK
6
CONTINUOUS
10
64.7749999999999915
20
-53.9499999999999957
11
77.7749999999999915
21
-53.9499999999999957
0
ARC
8
BLACK
10
45.7250000000000014
20
-54.4500129999999984
40
0.500000000169
50
90.00000000
51
179.99851031
0
LINE
8
BLACK
6
CONTINUOUS
10
45.2250000000000014
20
-67.4500000000000028
11
45.2250000000000014
21
-54.4499999999999957
0
ARC
8
BLACK
10
45.7250000000000014
20
-67.4500129999999984
40
0.499987
50
-180.00148969
51
-90.00000000
0
LINE
8
BLACK
6
CONTINUOUS
10
58.7249999999999943
20
-67.9500000000000028
11
45.7250000000000014
21
-67.9500000000000028
0
ARC
8
BLACK
10
58.7249999999999943
20
-67.4500129999999984
40
0.500000000169
50
-90.00000000
51
0.00148969
0
LINE
8
BLACK
6
CONTINUOUS
10
59.2249999999999943
20
-54.4499999999999957
11
59.2249999999999943
21
-67.4500000000000028
0
ARC
8
BLACK
10
58.7249999999999943
20
-54.4500129999999984
40
0.5000129999999999
50
0.00148969
51
90.00000000
0
LINE
8
BLACK
6
CONTINUOUS
10
45.7250000000000014
20
-53.9499999999999957
11
58.7249999999999943
21
-53.9499999999999957
0
ARC
8
BLACK
10
26.6749999999999972
20
-54.4500129999999984
40
0.500000000169
50
90.00000000
51
179.99851031
0
LINE
8
BLACK
6
CONTINUOUS
10
26.1749999999999972
20
-67.4500000000000028
11
26.1749999999999972
21
-54.4499999999999957
0
ARC
8
BLACK
10
26.6749999999999972
20
-67.4500129999999984
40
0.499987
50
-180.00148969
51
-90.00000000
0
LINE
8
BLACK
6
CONTINUOUS
10
39.6749999999999972
20
-67.9500000000000028
11
26.6749999999999972
21
-67.9500000000000028
0
ARC
8
BLACK
10
39.6749999999999972
20
-67.4500129999999984
40
0.500000000169
50
-90.00000000
51
0.00148969
0
LINE
8
BLACK
6
CONTINUOUS
10
40.1749999999999972
20
-54.4499999999999957
11
40.1749999999999972
21
-67.4500000000000028
0
ARC
8
BLACK
10
39.6749999999999972
20
-54.4500129999999984
40
0.5000129999999999
50
0.00148969
51
90.00000000
0
LINE
8
BLACK
6
CONTINUOUS
10
26.6749999999999972
20
-53.9499999999999957
11
39.6749999999999972
21
-53.9499999999999957
0
ARC
8
BLACK
10
7.625
20
-54.4500129999999984
40
0.500000000169
50
90.00000000
51
179.99851031
0
LINE
8
BLACK
6
CONTINUOUS
10
7.125
20
-67.4500000000000028
11
7.125
21
-54.4499999999999957
0
ARC
8
BLACK
10
7.625
20
-67.4500029999999953
40
0.499997
50
-180.00034377
51
-90.00000000
0
LINE
8
BLACK
6
CONTINUOUS
10
20.625
20
-67.9500000000000028
11
7.625
21
-67.9500000000000028
0
ARC
8
BLACK
10
20.625
20
-67.4500129999999984
40
0.500000000169
50
-90.00000000
51
0.00148969
0
LINE
8
BLACK
6
CONTINUOUS
10
21.125
20
-54.4499999999999957
11
21.125
21
-67.4500000000000028
0
ARC
8
BLACK
10
20.625
20
-54.4500129999999984
40
0.5000129999999999
50
0.00148969
51
90.00000000
0
LINE
8
BLACK
6
CONTINUOUS
10
7.625
20
-53.9499999999999957
11
20.625
21
-53.9499999999999957
  0
ENDSEC
  0
EOF
