  0
SECTION
  2
HEADER
  9
$ANGBASE
  50
0.0
  9
$ANGDIR
  70
1
  9
$MEASUREMENT
  70
1
  9
$INSUNITS
  70
4
  0
ENDSEC
  0
SECTION
  2
TABLES
  0
TABLE
  2
LTYPE
  70
4
  0
LTYPE
  5
40F
  2
CONTINUOUS
  70
0
  3
Solid line
  72
65
  73
0
  40
0.0
  0
LTYPE
  5
410
  2
DASHDOT
 70
0
  3
Dash Dot ____ _ ____ _
 72
65
 73
4
 40
2.0
 49
1.25
 49
-0.25
 49
0.25
 49
-0.25
  0
LTYPE
  5
411
  2
DASHED
 70
0
  3
Dashed __ __ __ __ __
 72
65
 73
2
 40
0.75
 49
0.5
 49
-0.25
  0
LTYPE
  5
43B
  2
DOTTED
 70
0
  3
Dotted .  .  .  .
 72
65
 73
2
 40
0.2
 49
0.0
 49
-0.2
  0
ENDTAB
  0
TABLE
  2
STYLE
  70
4
  0
STYLE
  2
KICAD
  70
0
  40
0
  41
1
  42
1
  50
0
  71
0
  3
isocp.shx
  0
STYLE
  2
KICADB
  70
0
  40
0
  41
1
  42
1
  50
0
  71
0
  3
isocp.shx
  0
STYLE
  2
KICADI
  70
0
  40
0
  41
1
  42
1
  50
15
  71
0
  3
isocp.shx
  0
STYLE
  2
KICADBI
  70
0
  40
0
  41
1
  42
1
  50
15
  71
0
  3
isocp.shx
  0
ENDTAB
  0
TABLE
  2
LAYER
  70
1
  0
LAYER
  2
BLACK
  70
0
  62
7
  6
CONTINUOUS
  0
ENDTAB
  0
ENDSEC
  0
SECTION
  2
ENTITIES
0
LINE
8
BLACK
6
CONTINUOUS
10
5.
20
-60.
11
5.
21
-131.0904889999999909
0
ARC
8
BLACK
10
7.
20
-60.
40
2.
50
90.00000000
51
180.00000000
0
LINE
8
BLACK
6
CONTINUOUS
10
6.7243629999999994
20
-60.5250009999999961
11
6.7243629999999994
21
-73.524998999999994
0
ARC
8
BLACK
10
7.2243399999999998
20
-60.5249699999999962
40
0.4999770009610442
50
-270.00275036
51
-179.99644750
0
CIRCLE
8
BLACK
10
6.9249999999999998
20
-86.0750000000000028
40
1.
0
CIRCLE
8
BLACK
10
6.9249999999999998
20
-124.1749999999999972
40
1.
0
ARC
8
BLACK
10
7.
20
-131.0904999999999916
40
1.999989
50
-180.00031513
51
-90.00000000
0
LINE
8
BLACK
6
CONTINUOUS
10
7.
20
-133.0904889999999909
11
31.6000009999999989
21
-133.0904889999999909
0
ARC
8
BLACK
10
7.2243999999999993
20
-73.5249000000000024
40
0.5001000012957408
50
-179.98865628
51
-90.00412447
0
LINE
8
BLACK
6
CONTINUOUS
10
7.2243639999999996
20
-74.0249999999999915
11
20.8243629999999982
21
-74.0249999999999915
0
ARC
8
BLACK
10
9.0482199999999988
20
-103.9047699999999992
40
0.9999160040503402
50
-270.00481324
51
-179.99484295
0
LINE
8
BLACK
6
CONTINUOUS
10
8.0483039999999999
20
-106.5048599999999936
11
8.0483039999999999
21
-103.9048599999999993
0
LINE
8
BLACK
6
CONTINUOUS
10
9.0483039999999999
20
-102.9048599999999993
11
11.1483039999999995
21
-102.9048599999999993
0
ARC
8
BLACK
10
9.0482999999999993
20
-106.5048999999999921
40
0.9999600000080002
50
-180.00229183
51
-89.99977081
0
LINE
8
BLACK
6
CONTINUOUS
10
9.9306129999999992
20
-117.6999999999999886
11
9.9306129999999992
21
-129.4180000000000064
0
ARC
8
BLACK
10
10.4306000000000001
20
-117.6999999999999886
40
0.499987
50
89.99851031
51
180.00000000
0
LINE
8
BLACK
6
CONTINUOUS
10
9.9306129999999992
20
-129.4180000000000064
11
12.9306129999999992
21
-131.1500000000000057
0
ARC
8
BLACK
10
11.148299999999999
20
-103.9048999999999978
40
1.0000400000079996
50
0.00229184
51
89.99977083
0
LINE
8
BLACK
6
CONTINUOUS
10
11.1483039999999995
20
-107.5048599999999936
11
9.0483039999999999
21
-107.5048599999999936
0
LINE
8
BLACK
6
CONTINUOUS
10
11.4868639999999989
20
-79.5750000000000028
11
11.4868639999999989
21
-92.5750000000000028
0
ARC
8
BLACK
10
11.9867999999999988
20
-79.5750000000000028
40
0.499936
50
89.99266614
51
180.00000000
0
ARC
8
BLACK
10
11.9869000000000003
20
-92.5748999999999995
40
0.5001000012957408
50
-179.98854167
51
-90.00412447
0
LINE
8
BLACK
6
CONTINUOUS
10
11.9868639999999989
20
-93.0750000000000028
11
25.5868639999999985
21
-93.0750000000000028
0
LINE
8
BLACK
6
CONTINUOUS
10
12.1483039999999995
20
-103.9048599999999993
11
12.1483039999999995
21
-106.5048599999999936
0
ARC
8
BLACK
10
11.1482200000000002
20
-106.5047699999999935
40
1.0000840040496597
50
-89.99518755
51
-0.00515619
0
LINE
8
BLACK
6
CONTINUOUS
10
12.9306129999999992
20
-131.1500000000000057
11
38.930613000000001
21
-131.1500000000000057
0
LINE
8
BLACK
6
CONTINUOUS
10
13.8681129999999992
20
-98.625
11
13.8681129999999992
21
-111.625
0
ARC
8
BLACK
10
14.3681000000000001
20
-98.625
40
0.499987
50
89.99839572
51
180.00000000
0
ARC
8
BLACK
10
14.3681000000000001
20
-111.625
40
0.500000000196
50
-180.00000000
51
-89.99839572
0
LINE
8
BLACK
6
CONTINUOUS
10
14.3681139999999985
20
-112.125
11
27.9681129999999989
21
-112.125
0
LINE
8
BLACK
6
CONTINUOUS
10
20.8243629999999982
20
-60.0249999999999986
11
7.2243639999999996
21
-60.0249999999999986
0
ARC
8
BLACK
10
20.8244000000000007
20
-60.5248999999999953
40
0.4999000013692739
50
-0.01146000
51
90.00424074
0
ARC
8
BLACK
10
20.8242999999999974
20
-73.5249999999999915
40
0.5000629999999999
50
-89.99278073
51
-0.00000000
0
LINE
8
BLACK
6
CONTINUOUS
10
21.3243629999999982
20
-73.5249999999999915
11
21.3243629999999982
21
-60.5249999999999986
0
CIRCLE
8
BLACK
10
23.5500000000000007
20
-67.0249999999999915
40
1.
0
LINE
8
BLACK
6
CONTINUOUS
10
25.5868639999999985
20
-79.0750000000000028
11
11.9868639999999989
21
-79.0750000000000028
0
ARC
8
BLACK
10
25.5869
20
-79.5748999999999995
40
0.4999000012962592
50
-0.01145998
51
90.00412612
0
LINE
8
BLACK
6
CONTINUOUS
10
25.7743629999999975
20
-60.5249999999999986
11
25.7743629999999975
21
-73.5249999999999915
0
ARC
8
BLACK
10
26.2743000000000002
20
-60.5249999999999986
40
0.499937
50
89.99278073
51
180.00000000
0
ARC
8
BLACK
10
25.5868000000000002
20
-92.5750000000000028
40
0.500064
50
-89.99266614
51
-0.00000000
0
LINE
8
BLACK
6
CONTINUOUS
10
26.0868639999999985
20
-92.5750000000000028
11
26.0868639999999985
21
-79.5750000000000028
0
ARC
8
BLACK
10
26.2744
20
-73.5249000000000024
40
0.5001000013687262
50
-179.98854169
51
-90.00423904
0
LINE
8
BLACK
6
CONTINUOUS
10
26.2743629999999975
20
-74.0249999999999915
11
39.8743629999999953
21
-74.0249999999999915
0
LINE
8
BLACK
6
CONTINUOUS
10
27.9681129999999989
20
-98.125
11
14.3681139999999985
21
-98.125
0
ARC
8
BLACK
10
27.9680999999999997
20
-98.6248999999999967
40
0.4999000001690338
50
-0.01146000
51
89.99851001
0
ARC
8
BLACK
10
27.968
20
-111.625
40
0.500113
50
-89.98705245
51
-0.00000000
0
LINE
8
BLACK
6
CONTINUOUS
10
28.4681129999999989
20
-111.625
11
28.4681129999999989
21
-98.625
0
ARC
8
BLACK
10
29.5374999999999979
20
-79.0750000000000028
40
2.0000001666502429
50
-420.00000276
51
-119.99999724
0
LINE
8
BLACK
6
CONTINUOUS
10
28.5374999999999979
20
-92.5750000000000028
11
28.5374999999999979
21
-80.8070510000000013
0
ARC
8
BLACK
10
29.0374999999999979
20
-92.575099999999992
40
0.4999
50
-180.01146026
51
-90.00000000
0
LINE
8
BLACK
6
CONTINUOUS
10
30.0374999999999979
20
-93.0750000000000028
11
29.0374999999999979
21
-93.0750000000000028
0
LINE
8
BLACK
6
CONTINUOUS
10
30.5374999999999979
20
-80.8070510000000013
11
30.5374999999999979
21
-92.5750000000000028
0
ARC
8
BLACK
10
30.0373999999999981
20
-92.5750000000000028
40
0.5001
50
-89.98854194
51
-0.00000000
0
ARC
8
BLACK
10
31.5999999999999979
20
-135.0904999999999916
40
2.0000110000002498
50
0.00031513
51
89.99997135
0
LINE
8
BLACK
6
CONTINUOUS
10
33.6000009999999989
20
-135.0904889999999909
11
33.6000009999999989
21
-150.25
0
LINE
8
BLACK
6
CONTINUOUS
10
35.2993629999999996
20
-79.5750000000000028
11
35.2993629999999996
21
-92.5750000000000028
0
ARC
8
BLACK
10
35.7992999999999952
20
-79.5750000000000028
40
0.499937
50
89.99278073
51
180.00000000
0
LINE
8
BLACK
6
CONTINUOUS
10
35.2993629999999996
20
-136.7224999999999966
11
35.2993629999999996
21
-149.7224999999999966
0
ARC
8
BLACK
10
35.7992999999999952
20
-136.7224999999999966
40
0.499937
50
89.99278073
51
180.00000000
0
ARC
8
BLACK
10
35.6000000000000014
20
-150.25
40
2.00000000000025
50
-180.00000000
51
-89.99997135
0
LINE
8
BLACK
6
CONTINUOUS
10
35.6000009999999989
20
-152.25
11
259.1499999999999773
21
-152.25
0
ARC
8
BLACK
10
35.7993999999999986
20
-92.5748999999999995
40
0.5001000013687262
50
-179.98854169
51
-90.00423904
0
LINE
8
BLACK
6
CONTINUOUS
10
35.7993629999999996
20
-93.0750000000000028
11
49.399363000000001
21
-93.0750000000000028
0
ARC
8
BLACK
10
35.7993999999999986
20
-149.7223999999999933
40
0.5001000013687262
50
-179.98854169
51
-90.00423904
0
LINE
8
BLACK
6
CONTINUOUS
10
35.7993629999999996
20
-150.2224999999999966
11
49.399363000000001
21
-150.2224999999999966
0
LINE
8
BLACK
6
CONTINUOUS
10
38.930613000000001
20
-131.1500000000000057
11
41.930613000000001
21
-129.4180000000000064
0
LINE
8
BLACK
6
CONTINUOUS
10
39.8743629999999953
20
-60.0249999999999986
11
26.2743629999999975
21
-60.0249999999999986
0
ARC
8
BLACK
10
39.8744000000000014
20
-60.5248999999999953
40
0.4999000013692739
50
-0.01146000
51
90.00424074
0
LINE
8
BLACK
6
CONTINUOUS
10
40.0618629999999953
20
-98.625
11
40.0618629999999953
21
-111.625
0
ARC
8
BLACK
10
40.5617999999999981
20
-98.625
40
0.499937
50
89.99278073
51
180.00000000
0
ARC
8
BLACK
10
39.8742999999999981
20
-73.5249999999999915
40
0.5000629999999999
50
-89.99278073
51
-0.00000000
0
LINE
8
BLACK
6
CONTINUOUS
10
40.3743629999999953
20
-73.5249999999999915
11
40.3743629999999953
21
-60.5249999999999986
0
ARC
8
BLACK
10
40.5619000000000014
20
-111.6248999999999967
40
0.5001000013687262
50
-179.98854169
51
-90.00423904
0
LINE
8
BLACK
6
CONTINUOUS
10
40.5618629999999953
20
-112.125
11
54.1618629999999968
21
-112.125
0
LINE
8
BLACK
6
CONTINUOUS
10
41.430613000000001
20
-117.1999999999999886
11
10.4306129999999992
21
-117.1999999999999886
0
ARC
8
BLACK
10
41.4305999999999983
20
-117.6998999999999995
40
0.4999000001690338
50
-0.01146000
51
89.99851001
0
LINE
8
BLACK
6
CONTINUOUS
10
41.930613000000001
20
-129.4180000000000064
11
41.930613000000001
21
-117.6999999999999886
0
LINE
8
BLACK
6
CONTINUOUS
10
44.8243629999999982
20
-60.5249999999999986
11
44.8243629999999982
21
-73.5249999999999915
0
ARC
8
BLACK
10
45.3243000000000009
20
-60.5249999999999986
40
0.499937
50
89.99278073
51
180.00000000
0
ARC
8
BLACK
10
45.3243999999999971
20
-73.5249000000000024
40
0.5001000013687262
50
-179.98854169
51
-90.00423904
0
LINE
8
BLACK
6
CONTINUOUS
10
45.3243629999999982
20
-74.0249999999999915
11
58.9243629999999996
21
-74.0249999999999915
0
CIRCLE
8
BLACK
10
47.3624999999999972
20
-124.1749999999999972
40
1.
0
LINE
8
BLACK
6
CONTINUOUS
10
49.399363000000001
20
-79.0750000000000028
11
35.7993629999999996
21
-79.0750000000000028
0
ARC
8
BLACK
10
49.3994
20
-79.5748999999999995
40
0.4999000013692739
50
-0.01146000
51
90.00424074
0
LINE
8
BLACK
6
CONTINUOUS
10
49.399363000000001
20
-136.2224999999999966
11
35.7993629999999996
21
-136.2224999999999966
0
ARC
8
BLACK
10
49.3994
20
-136.7223999999999933
40
0.4999000013692739
50
-0.01146000
51
90.00424074
0
LINE
8
BLACK
6
CONTINUOUS
10
49.586863000000001
20
-117.6749999999999972
11
49.586863000000001
21
-130.6749999999999829
0
ARC
8
BLACK
10
50.0867999999999967
20
-117.6749999999999972
40
0.499937
50
89.99278073
51
180.00000000
0
ARC
8
BLACK
10
49.3992999999999967
20
-92.5750000000000028
40
0.5000629999999999
50
-89.99278073
51
-0.00000000
0
LINE
8
BLACK
6
CONTINUOUS
10
49.899363000000001
20
-92.5750000000000028
11
49.899363000000001
21
-79.5750000000000028
0
ARC
8
BLACK
10
49.3992999999999967
20
-149.7224999999999966
40
0.5000629999999999
50
-89.99278073
51
-0.00000000
0
LINE
8
BLACK
6
CONTINUOUS
10
49.899363000000001
20
-149.7224999999999966
11
49.899363000000001
21
-136.7224999999999966
0
ARC
8
BLACK
10
50.0869
20
-130.674900000000008
40
0.5001000013687262
50
-179.98854169
51
-90.00423904
0
LINE
8
BLACK
6
CONTINUOUS
10
50.086863000000001
20
-131.1749999999999829
11
63.6868629999999953
21
-131.1749999999999829
0
CIRCLE
8
BLACK
10
52.125
20
-86.0750000000000028
40
1.
0
CIRCLE
8
BLACK
10
52.125
20
-143.2249999999999943
40
1.
0
LINE
8
BLACK
6
CONTINUOUS
10
54.1618629999999968
20
-98.125
11
40.5618629999999953
21
-98.125
0
ARC
8
BLACK
10
54.1618999999999957
20
-98.6248999999999967
40
0.4999000013692739
50
-0.01146000
51
90.00424074
0
LINE
8
BLACK
6
CONTINUOUS
10
54.3493629999999968
20
-79.5750000000000028
11
54.3493629999999968
21
-92.5750000000000028
0
ARC
8
BLACK
10
54.8492999999999995
20
-79.5750000000000028
40
0.499937
50
89.99278073
51
180.00000000
0
ARC
8
BLACK
10
54.1617999999999995
20
-111.625
40
0.5000629999999999
50
-89.99278073
51
-0.00000000
0
LINE
8
BLACK
6
CONTINUOUS
10
54.6618629999999968
20
-111.625
11
54.6618629999999968
21
-98.625
0
ARC
8
BLACK
10
54.8493999999999957
20
-92.5748999999999995
40
0.5001000013687262
50
-179.98854169
51
-90.00423904
0
LINE
8
BLACK
6
CONTINUOUS
10
54.8493629999999968
20
-93.0750000000000028
11
68.4493629999999911
21
-93.0750000000000028
0
LINE
8
BLACK
6
CONTINUOUS
10
58.9243629999999996
20
-60.0249999999999986
11
45.3243629999999982
21
-60.0249999999999986
0
ARC
8
BLACK
10
58.9243999999999986
20
-60.5248999999999953
40
0.4999000013692739
50
-0.01146000
51
90.00424074
0
LINE
8
BLACK
6
CONTINUOUS
10
59.1118629999999996
20
-98.625
11
59.1118629999999996
21
-111.625
0
ARC
8
BLACK
10
59.6117999999999952
20
-98.625
40
0.499937
50
89.99278073
51
180.00000000
0
LINE
8
BLACK
6
CONTINUOUS
10
59.1118629999999996
20
-136.7224999999999966
11
59.1118629999999996
21
-149.7224999999999966
0
ARC
8
BLACK
10
59.6117999999999952
20
-136.7224999999999966
40
0.499937
50
89.99278073
51
180.00000000
0
ARC
8
BLACK
10
58.9242999999999952
20
-73.5249999999999915
40
0.5000629999999999
50
-89.99278073
51
-0.00000000
0
LINE
8
BLACK
6
CONTINUOUS
10
59.4243629999999996
20
-73.5249999999999915
11
59.4243629999999996
21
-60.5249999999999986
0
ARC
8
BLACK
10
59.6118999999999986
20
-111.6248999999999967
40
0.5001000013687262
50
-179.98854169
51
-90.00423904
0
LINE
8
BLACK
6
CONTINUOUS
10
59.6118629999999996
20
-112.125
11
73.2118629999999939
21
-112.125
0
ARC
8
BLACK
10
59.6118999999999986
20
-149.7223999999999933
40
0.5001000013687262
50
-179.98854169
51
-90.00423904
0
LINE
8
BLACK
6
CONTINUOUS
10
59.6118629999999996
20
-150.2224999999999966
11
73.2118629999999939
21
-150.2224999999999966
0
LINE
8
BLACK
6
CONTINUOUS
10
63.6868629999999953
20
-117.1749999999999972
11
50.086863000000001
21
-117.1749999999999972
0
ARC
8
BLACK
10
63.6868999999999943
20
-117.6748999999999938
40
0.4999000013692739
50
-0.01146000
51
90.00424074
0
LINE
8
BLACK
6
CONTINUOUS
10
63.8743629999999953
20
-60.5249999999999986
11
63.8743629999999953
21
-73.5249999999999915
0
ARC
8
BLACK
10
64.374299999999991
20
-60.5249999999999986
40
0.499937
50
89.99278073
51
180.00000000
0
ARC
8
BLACK
10
63.6867999999999981
20
-130.6749999999999829
40
0.5000629999999999
50
-89.99278073
51
-0.00000000
0
LINE
8
BLACK
6
CONTINUOUS
10
64.1868630000000024
20
-130.6749999999999829
11
64.1868630000000024
21
-117.6749999999999972
0
ARC
8
BLACK
10
64.3743999999999943
20
-73.5249000000000024
40
0.5001000013687262
50
-179.98854169
51
-90.00423904
0
LINE
8
BLACK
6
CONTINUOUS
10
64.3743630000000024
20
-74.0249999999999915
11
77.9743629999999968
21
-74.0249999999999915
0
LINE
8
BLACK
6
CONTINUOUS
10
68.4493629999999911
20
-79.0750000000000028
11
54.8493629999999968
21
-79.0750000000000028
0
ARC
8
BLACK
10
68.4493999999999971
20
-79.5748999999999995
40
0.4999000013692739
50
-0.01146000
51
90.00424074
0
LINE
8
BLACK
6
CONTINUOUS
10
68.6368629999999911
20
-117.6749999999999972
11
68.6368629999999911
21
-130.6749999999999829
0
ARC
8
BLACK
10
69.1367999999999938
20
-117.6749999999999972
40
0.499937
50
89.99278073
51
180.00000000
0
ARC
8
BLACK
10
68.4492999999999938
20
-92.5750000000000028
40
0.5000629999999999
50
-89.99278073
51
-0.00000000
0
LINE
8
BLACK
6
CONTINUOUS
10
68.9493629999999911
20
-92.5750000000000028
11
68.9493629999999911
21
-79.5750000000000028
0
ARC
8
BLACK
10
69.1368999999999971
20
-130.674900000000008
40
0.5001000013687262
50
-179.98854169
51
-90.00423904
0
LINE
8
BLACK
6
CONTINUOUS
10
69.1368629999999911
20
-131.1749999999999829
11
82.7368629999999996
21
-131.1749999999999829
0
LINE
8
BLACK
6
CONTINUOUS
10
73.2118629999999939
20
-98.125
11
59.6118629999999996
21
-98.125
0
ARC
8
BLACK
10
73.2119
20
-98.6248999999999967
40
0.4999000013692739
50
-0.01146000
51
90.00424074
0
LINE
8
BLACK
6
CONTINUOUS
10
73.2118629999999939
20
-136.2224999999999966
11
59.6118629999999996
21
-136.2224999999999966
0
ARC
8
BLACK
10
73.2119
20
-136.7223999999999933
40
0.4999000013692739
50
-0.01146000
51
90.00424074
0
LINE
8
BLACK
6
CONTINUOUS
10
73.3993629999999939
20
-79.5750000000000028
11
73.3993629999999939
21
-92.5750000000000028
0
ARC
8
BLACK
10
73.8992999999999967
20
-79.5750000000000028
40
0.499937
50
89.99278073
51
180.00000000
0
ARC
8
BLACK
10
73.2117999999999967
20
-111.625
40
0.5000629999999999
50
-89.99278073
51
-0.00000000
0
LINE
8
BLACK
6
CONTINUOUS
10
73.7118629999999939
20
-111.625
11
73.7118629999999939
21
-98.625
0
ARC
8
BLACK
10
73.2117999999999967
20
-149.7224999999999966
40
0.5000629999999999
50
-89.99278073
51
-0.00000000
0
LINE
8
BLACK
6
CONTINUOUS
10
73.7118629999999939
20
-149.7224999999999966
11
73.7118629999999939
21
-136.7224999999999966
0
ARC
8
BLACK
10
73.8994
20
-92.5748999999999995
40
0.5001000013687262
50
-179.98854169
51
-90.00423904
0
LINE
8
BLACK
6
CONTINUOUS
10
73.8993629999999939
20
-93.0750000000000028
11
87.4993630000000024
21
-93.0750000000000028
0
CIRCLE
8
BLACK
10
75.9375
20
-105.125
40
1.
0
CIRCLE
8
BLACK
10
75.9375
20
-143.2249999999999943
40
1.
0
LINE
8
BLACK
6
CONTINUOUS
10
77.9743629999999968
20
-60.0249999999999986
11
64.3743630000000024
21
-60.0249999999999986
0
ARC
8
BLACK
10
77.9744000000000028
20
-60.5248999999999953
40
0.4999000013692739
50
-0.01146000
51
90.00424074
0
LINE
8
BLACK
6
CONTINUOUS
10
78.1618629999999968
20
-98.625
11
78.1618629999999968
21
-111.625
0
ARC
8
BLACK
10
78.6617999999999995
20
-98.625
40
0.499937
50
89.99278073
51
180.00000000
0
ARC
8
BLACK
10
77.9742999999999995
20
-73.5249999999999915
40
0.5000629999999999
50
-89.99278073
51
-0.00000000
0
LINE
8
BLACK
6
CONTINUOUS
10
78.4743629999999968
20
-73.5249999999999915
11
78.4743629999999968
21
-60.5249999999999986
0
ARC
8
BLACK
10
78.6619000000000028
20
-111.6248999999999967
40
0.5001000013687262
50
-179.98854169
51
-90.00423904
0
LINE
8
BLACK
6
CONTINUOUS
10
78.6618629999999968
20
-112.125
11
92.2618629999999911
21
-112.125
0
CIRCLE
8
BLACK
10
80.7000000000000028
20
-67.0249999999999915
40
1.
0
LINE
8
BLACK
6
CONTINUOUS
10
82.7368629999999996
20
-117.1749999999999972
11
69.1368629999999911
21
-117.1749999999999972
0
ARC
8
BLACK
10
82.7368999999999915
20
-117.6748999999999938
40
0.4999000013692739
50
-0.01146000
51
90.00424074
0
LINE
8
BLACK
6
CONTINUOUS
10
82.9243629999999996
20
-60.5249999999999986
11
82.9243629999999996
21
-73.5249999999999915
0
ARC
8
BLACK
10
83.4243000000000023
20
-60.5249999999999986
40
0.499937
50
89.99278073
51
180.00000000
0
ARC
8
BLACK
10
82.7368000000000023
20
-130.6749999999999829
40
0.5000629999999999
50
-89.99278073
51
-0.00000000
0
LINE
8
BLACK
6
CONTINUOUS
10
83.2368629999999996
20
-130.6749999999999829
11
83.2368629999999996
21
-117.6749999999999972
0
LINE
8
BLACK
6
CONTINUOUS
10
83.4177629999999937
20
-136.772500000000008
11
83.4177629999999937
21
-149.6724999999999852
0
ARC
8
BLACK
10
83.9176999999999964
20
-136.772500000000008
40
0.499937
50
89.99278073
51
180.00000000
0
ARC
8
BLACK
10
83.4243999999999915
20
-73.5249000000000024
40
0.5001000013687262
50
-179.98854169
51
-90.00423904
0
LINE
8
BLACK
6
CONTINUOUS
10
83.4243629999999996
20
-74.0249999999999915
11
97.0243629999999939
21
-74.0249999999999915
0
ARC
8
BLACK
10
83.9177999999999997
20
-149.6723999999999819
40
0.5001000013687262
50
-179.98854169
51
-90.00423904
0
LINE
8
BLACK
6
CONTINUOUS
10
83.9177629999999937
20
-150.1724999999999852
11
96.5177630000000022
21
-150.1724999999999852
0
LINE
8
BLACK
6
CONTINUOUS
10
87.4993630000000024
20
-79.0750000000000028
11
73.8993629999999939
21
-79.0750000000000028
0
ARC
8
BLACK
10
87.4993999999999943
20
-79.5748999999999995
40
0.4999000013692739
50
-0.01146000
51
90.00424074
0
LINE
8
BLACK
6
CONTINUOUS
10
87.6868630000000024
20
-117.6749999999999972
11
87.6868630000000024
21
-130.6749999999999829
0
ARC
8
BLACK
10
88.186799999999991
20
-117.6749999999999972
40
0.499937
50
89.99278073
51
180.00000000
0
ARC
8
BLACK
10
87.499299999999991
20
-92.5750000000000028
40
0.5000629999999999
50
-89.99278073
51
-0.00000000
0
LINE
8
BLACK
6
CONTINUOUS
10
87.9993630000000024
20
-92.5750000000000028
11
87.9993630000000024
21
-79.5750000000000028
0
ARC
8
BLACK
10
88.1868999999999943
20
-130.674900000000008
40
0.5001000013687262
50
-179.98854169
51
-90.00423904
0
LINE
8
BLACK
6
CONTINUOUS
10
88.1868630000000024
20
-131.1749999999999829
11
101.7868629999999968
21
-131.1749999999999829
0
LINE
8
BLACK
6
CONTINUOUS
10
92.2618629999999911
20
-98.125
11
78.6618629999999968
21
-98.125
0
ARC
8
BLACK
10
92.2618999999999971
20
-98.6248999999999967
40
0.4999000013692739
50
-0.01146000
51
90.00424074
0
LINE
8
BLACK
6
CONTINUOUS
10
92.4493629999999911
20
-79.5750000000000028
11
92.4493629999999911
21
-92.5750000000000028
0
ARC
8
BLACK
10
92.9492999999999938
20
-79.5750000000000028
40
0.499937
50
89.99278073
51
180.00000000
0
ARC
8
BLACK
10
92.2617999999999938
20
-111.625
40
0.5000629999999999
50
-89.99278073
51
-0.00000000
0
LINE
8
BLACK
6
CONTINUOUS
10
92.7618629999999911
20
-111.625
11
92.7618629999999911
21
-98.625
0
ARC
8
BLACK
10
92.9493999999999971
20
-92.5748999999999995
40
0.5001000013687262
50
-179.98854169
51
-90.00423904
0
LINE
8
BLACK
6
CONTINUOUS
10
92.9493629999999911
20
-93.0750000000000028
11
106.5493629999999996
21
-93.0750000000000028
0
LINE
8
BLACK
6
CONTINUOUS
10
96.5177630000000022
20
-136.272500000000008
11
83.9177629999999937
21
-136.272500000000008
0
ARC
8
BLACK
10
96.517799999999994
20
-136.7724000000000046
40
0.4999000013692739
50
-0.01146000
51
90.00424074
0
ARC
8
BLACK
10
96.5176999999999907
20
-149.6724999999999852
40
0.5000629999999999
50
-89.99278073
51
-0.00000000
0
LINE
8
BLACK
6
CONTINUOUS
10
97.0177630000000022
20
-149.6724999999999852
11
97.0177630000000022
21
-136.772500000000008
0
LINE
8
BLACK
6
CONTINUOUS
10
97.0243629999999939
20
-60.0249999999999986
11
83.4243629999999996
21
-60.0249999999999986
0
ARC
8
BLACK
10
97.0244
20
-60.5248999999999953
40
0.4999000013692739
50
-0.01146000
51
90.00424074
0
LINE
8
BLACK
6
CONTINUOUS
10
97.2118629999999939
20
-98.625
11
97.2118629999999939
21
-111.625
0
ARC
8
BLACK
10
97.7117999999999967
20
-98.625
40
0.499937
50
89.99278073
51
180.00000000
0
ARC
8
BLACK
10
97.0242999999999967
20
-73.5249999999999915
40
0.5000629999999999
50
-89.99278073
51
-0.00000000
0
LINE
8
BLACK
6
CONTINUOUS
10
97.5243629999999939
20
-73.5249999999999915
11
97.5243629999999939
21
-60.5249999999999986
0
ARC
8
BLACK
10
97.7119
20
-111.6248999999999967
40
0.5001000013687262
50
-179.98854169
51
-90.00423904
0
LINE
8
BLACK
6
CONTINUOUS
10
97.7118629999999939
20
-112.125
11
111.3118629999999882
21
-112.125
0
LINE
8
BLACK
6
CONTINUOUS
10
101.7868629999999968
20
-117.1749999999999972
11
88.1868630000000024
21
-117.1749999999999972
0
ARC
8
BLACK
10
101.7868999999999886
20
-117.6748999999999938
40
0.4999000013692739
50
-0.01146000
51
90.00424074
0
LINE
8
BLACK
6
CONTINUOUS
10
101.9743629999999968
20
-60.5249999999999986
11
101.9743629999999968
21
-73.5249999999999915
0
ARC
8
BLACK
10
102.4742999999999995
20
-60.5249999999999986
40
0.499937
50
89.99278073
51
180.00000000
0
ARC
8
BLACK
10
101.7867999999999995
20
-130.6749999999999829
40
0.5000629999999999
50
-89.99278073
51
-0.00000000
0
LINE
8
BLACK
6
CONTINUOUS
10
102.2868629999999968
20
-130.6749999999999829
11
102.2868629999999968
21
-117.6749999999999972
0
ARC
8
BLACK
10
102.4743999999999886
20
-73.5249000000000024
40
0.5001000013687262
50
-179.98854169
51
-90.00423904
0
LINE
8
BLACK
6
CONTINUOUS
10
102.4743629999999968
20
-74.0249999999999915
11
116.0743629999999911
21
-74.0249999999999915
0
CIRCLE
8
BLACK
10
104.5124999999999886
20
-124.1749999999999972
40
1.
0
LINE
8
BLACK
6
CONTINUOUS
10
106.5493629999999996
20
-79.0750000000000028
11
92.9493629999999911
21
-79.0750000000000028
0
ARC
8
BLACK
10
106.5493999999999915
20
-79.5748999999999995
40
0.4999000013692739
50
-0.01146000
51
90.00424074
0
LINE
8
BLACK
6
CONTINUOUS
10
106.7368629999999996
20
-117.6749999999999972
11
106.7368629999999996
21
-130.6749999999999829
0
ARC
8
BLACK
10
107.2367999999999881
20
-117.6749999999999972
40
0.499937
50
89.99278073
51
180.00000000
0
ARC
8
BLACK
10
106.5492999999999881
20
-92.5750000000000028
40
0.5000629999999999
50
-89.99278073
51
-0.00000000
0
LINE
8
BLACK
6
CONTINUOUS
10
107.0493629999999996
20
-92.5750000000000028
11
107.0493629999999996
21
-79.5750000000000028
0
ARC
8
BLACK
10
107.2368999999999915
20
-130.674900000000008
40
0.5001000013687262
50
-179.98854169
51
-90.00423904
0
LINE
8
BLACK
6
CONTINUOUS
10
107.2368629999999996
20
-131.1749999999999829
11
120.8368629999999939
21
-131.1749999999999829
0
CIRCLE
8
BLACK
10
109.2749999999999915
20
-86.0750000000000028
40
1.
0
LINE
8
BLACK
6
CONTINUOUS
10
111.3118629999999882
20
-98.125
11
97.7118629999999939
21
-98.125
0
ARC
8
BLACK
10
111.3118999999999943
20
-98.6248999999999967
40
0.4999000013692739
50
-0.01146000
51
90.00424074
0
LINE
8
BLACK
6
CONTINUOUS
10
111.4993629999999882
20
-79.5750000000000028
11
111.4993629999999882
21
-92.5750000000000028
0
ARC
8
BLACK
10
111.999299999999991
20
-79.5750000000000028
40
0.499937
50
89.99278073
51
180.00000000
0
ARC
8
BLACK
10
111.311799999999991
20
-111.625
40
0.5000629999999999
50
-89.99278073
51
-0.00000000
0
LINE
8
BLACK
6
CONTINUOUS
10
111.8118629999999882
20
-111.625
11
111.8118629999999882
21
-98.625
0
ARC
8
BLACK
10
111.9993999999999943
20
-92.5748999999999995
40
0.5001000013687262
50
-179.98854169
51
-90.00423904
0
LINE
8
BLACK
6
CONTINUOUS
10
111.9993629999999882
20
-93.0750000000000028
11
125.5993629999999968
21
-93.0750000000000028
0
LINE
8
BLACK
6
CONTINUOUS
10
116.0743629999999911
20
-60.0249999999999986
11
102.4743629999999968
21
-60.0249999999999986
0
ARC
8
BLACK
10
116.0743999999999971
20
-60.5248999999999953
40
0.4999000013692739
50
-0.01146000
51
90.00424074
0
LINE
8
BLACK
6
CONTINUOUS
10
116.2618629999999911
20
-98.625
11
116.2618629999999911
21
-111.625
0
ARC
8
BLACK
10
116.7617999999999938
20
-98.625
40
0.499937
50
89.99278073
51
180.00000000
0
ARC
8
BLACK
10
116.0742999999999938
20
-73.5249999999999915
40
0.5000629999999999
50
-89.99278073
51
-0.00000000
0
LINE
8
BLACK
6
CONTINUOUS
10
116.5743629999999911
20
-73.5249999999999915
11
116.5743629999999911
21
-60.5249999999999986
0
ARC
8
BLACK
10
116.7618999999999971
20
-111.6248999999999967
40
0.5001000013687262
50
-179.98854169
51
-90.00423904
0
LINE
8
BLACK
6
CONTINUOUS
10
116.7618629999999911
20
-112.125
11
130.3618629999999996
21
-112.125
0
LINE
8
BLACK
6
CONTINUOUS
10
120.8368629999999939
20
-117.1749999999999972
11
107.2368629999999996
21
-117.1749999999999972
0
ARC
8
BLACK
10
120.8369
20
-117.6748999999999938
40
0.4999000013692739
50
-0.01146000
51
90.00424074
0
LINE
8
BLACK
6
CONTINUOUS
10
121.0243629999999939
20
-60.5249999999999986
11
121.0243629999999939
21
-73.5249999999999915
0
ARC
8
BLACK
10
121.5242999999999967
20
-60.5249999999999986
40
0.499937
50
89.99278073
51
180.00000000
0
ARC
8
BLACK
10
120.8367999999999967
20
-130.6749999999999829
40
0.5000629999999999
50
-89.99278073
51
-0.00000000
0
LINE
8
BLACK
6
CONTINUOUS
10
121.3368629999999939
20
-130.6749999999999829
11
121.3368629999999939
21
-117.6749999999999972
0
ARC
8
BLACK
10
121.5244
20
-73.5249000000000024
40
0.5001000013687262
50
-179.98854169
51
-90.00423904
0
LINE
8
BLACK
6
CONTINUOUS
10
121.5243629999999939
20
-74.0249999999999915
11
135.1243629999999882
21
-74.0249999999999915
0
LINE
8
BLACK
6
CONTINUOUS
10
125.5993629999999968
20
-79.0750000000000028
11
111.9993629999999882
21
-79.0750000000000028
0
ARC
8
BLACK
10
125.5993999999999886
20
-79.5748999999999995
40
0.4999000013692739
50
-0.01146000
51
90.00424074
0
LINE
8
BLACK
6
CONTINUOUS
10
125.7868629999999968
20
-117.6749999999999972
11
125.7868629999999968
21
-130.6749999999999829
0
ARC
8
BLACK
10
126.2867999999999995
20
-117.6749999999999972
40
0.499937
50
89.99278073
51
180.00000000
0
ARC
8
BLACK
10
125.5992999999999995
20
-92.5750000000000028
40
0.5000629999999999
50
-89.99278073
51
-0.00000000
0
LINE
8
BLACK
6
CONTINUOUS
10
126.0993629999999968
20
-92.5750000000000028
11
126.0993629999999968
21
-79.5750000000000028
0
ARC
8
BLACK
10
126.2868999999999886
20
-130.674900000000008
40
0.5001000013687262
50
-179.98854169
51
-90.00423904
0
LINE
8
BLACK
6
CONTINUOUS
10
126.2868629999999968
20
-131.1749999999999829
11
139.8868630000000053
21
-131.1749999999999829
0
LINE
8
BLACK
6
CONTINUOUS
10
130.3618629999999996
20
-98.125
11
116.7618629999999911
21
-98.125
0
ARC
8
BLACK
10
130.3618999999999915
20
-98.6248999999999967
40
0.4999000013692739
50
-0.01146000
51
90.00424074
0
LINE
8
BLACK
6
CONTINUOUS
10
130.5493629999999996
20
-79.5750000000000028
11
130.5493629999999996
21
-92.5750000000000028
0
ARC
8
BLACK
10
131.0492999999999881
20
-79.5750000000000028
40
0.499937
50
89.99278073
51
180.00000000
0
ARC
8
BLACK
10
130.3617999999999881
20
-111.625
40
0.5000629999999999
50
-89.99278073
51
-0.00000000
0
LINE
8
BLACK
6
CONTINUOUS
10
130.8618629999999996
20
-111.625
11
130.8618629999999996
21
-98.625
0
ARC
8
BLACK
10
131.0493999999999915
20
-92.5748999999999995
40
0.5001000013687262
50
-179.98854169
51
-90.00423904
0
LINE
8
BLACK
6
CONTINUOUS
10
131.0493629999999996
20
-93.0750000000000028
11
144.6493629999999939
21
-93.0750000000000028
0
CIRCLE
8
BLACK
10
133.0875000000000057
20
-105.125
40
1.
0
LINE
8
BLACK
6
CONTINUOUS
10
135.1243629999999882
20
-60.0249999999999986
11
121.5243629999999939
21
-60.0249999999999986
0
ARC
8
BLACK
10
135.1243999999999801
20
-60.5248999999999953
40
0.4999000013692739
50
-0.01146000
51
90.00424074
0
LINE
8
BLACK
6
CONTINUOUS
10
135.3118629999999882
20
-98.625
11
135.3118629999999882
21
-111.625
0
ARC
8
BLACK
10
135.8118000000000052
20
-98.625
40
0.499937
50
89.99278073
51
180.00000000
0
CIRCLE
8
BLACK
10
135.375
20
-148.2249999999999943
40
1.
0
ARC
8
BLACK
10
135.1243000000000052
20
-73.5249999999999915
40
0.5000629999999999
50
-89.99278073
51
-0.00000000
0
LINE
8
BLACK
6
CONTINUOUS
10
135.6243629999999882
20
-73.5249999999999915
11
135.6243629999999882
21
-60.5249999999999986
0
ARC
8
BLACK
10
135.8118999999999801
20
-111.6248999999999967
40
0.5001000013687262
50
-179.98854169
51
-90.00423904
0
LINE
8
BLACK
6
CONTINUOUS
10
135.8118629999999882
20
-112.125
11
149.4118629999999825
21
-112.125
0
CIRCLE
8
BLACK
10
137.8499999999999943
20
-67.0249999999999915
40
1.
0
LINE
8
BLACK
6
CONTINUOUS
10
139.8868630000000053
20
-117.1749999999999972
11
126.2868629999999968
21
-117.1749999999999972
0
ARC
8
BLACK
10
139.8868999999999971
20
-117.6748999999999938
40
0.4999000013692739
50
-0.01146000
51
90.00424074
0
LINE
8
BLACK
6
CONTINUOUS
10
140.0743630000000053
20
-60.5249999999999986
11
140.0743630000000053
21
-73.5249999999999915
0
ARC
8
BLACK
10
140.5742999999999938
20
-60.5249999999999986
40
0.499937
50
89.99278073
51
180.00000000
0
LINE
8
BLACK
6
CONTINUOUS
10
140.0743630000000053
20
-136.7224999999999966
11
140.0743630000000053
21
-149.7224999999999966
0
ARC
8
BLACK
10
140.5742999999999938
20
-136.7224999999999966
40
0.499937
50
89.99278073
51
180.00000000
0
ARC
8
BLACK
10
139.8867999999999938
20
-130.6749999999999829
40
0.5000629999999999
50
-89.99278073
51
-0.00000000
0
LINE
8
BLACK
6
CONTINUOUS
10
140.3868630000000053
20
-130.6749999999999829
11
140.3868630000000053
21
-117.6749999999999972
0
ARC
8
BLACK
10
140.5743999999999971
20
-73.5249000000000024
40
0.5001000013687262
50
-179.98854169
51
-90.00423904
0
LINE
8
BLACK
6
CONTINUOUS
10
140.5743630000000053
20
-74.0249999999999915
11
154.1743629999999996
21
-74.0249999999999915
0
ARC
8
BLACK
10
140.5743999999999971
20
-149.7223999999999933
40
0.5001000013687262
50
-179.98854169
51
-90.00423904
0
LINE
8
BLACK
6
CONTINUOUS
10
140.5743630000000053
20
-150.2224999999999966
11
154.1743629999999996
21
-150.2224999999999966
0
LINE
8
BLACK
6
CONTINUOUS
10
144.6493629999999939
20
-79.0750000000000028
11
131.0493629999999996
21
-79.0750000000000028
0
ARC
8
BLACK
10
144.6493999999999858
20
-79.5748999999999995
40
0.4999000013692739
50
-0.01146000
51
90.00424074
0
LINE
8
BLACK
6
CONTINUOUS
10
144.8368629999999939
20
-117.6749999999999972
11
144.8368629999999939
21
-130.6749999999999829
0
ARC
8
BLACK
10
145.3367999999999824
20
-117.6749999999999972
40
0.499937
50
89.99278073
51
180.00000000
0
ARC
8
BLACK
10
144.6492999999999824
20
-92.5750000000000028
40
0.5000629999999999
50
-89.99278073
51
-0.00000000
0
LINE
8
BLACK
6
CONTINUOUS
10
145.1493629999999939
20
-92.5750000000000028
11
145.1493629999999939
21
-79.5750000000000028
0
ARC
8
BLACK
10
145.3368999999999858
20
-130.674900000000008
40
0.5001000013687262
50
-179.98854169
51
-90.00423904
0
LINE
8
BLACK
6
CONTINUOUS
10
145.3368629999999939
20
-131.1749999999999829
11
158.9368629999999882
21
-131.1749999999999829
0
LINE
8
BLACK
6
CONTINUOUS
10
149.4118629999999825
20
-98.125
11
135.8118629999999882
21
-98.125
0
ARC
8
BLACK
10
149.4119000000000028
20
-98.6248999999999967
40
0.4999000013692739
50
-0.01146000
51
90.00424074
0
LINE
8
BLACK
6
CONTINUOUS
10
149.5993629999999825
20
-79.5750000000000028
11
149.5993629999999825
21
-92.5750000000000028
0
ARC
8
BLACK
10
150.0992999999999995
20
-79.5750000000000028
40
0.499937
50
89.99278073
51
180.00000000
0
ARC
8
BLACK
10
149.4117999999999995
20
-111.625
40
0.5000629999999999
50
-89.99278073
51
-0.00000000
0
LINE
8
BLACK
6
CONTINUOUS
10
149.9118629999999825
20
-111.625
11
149.9118629999999825
21
-98.625
0
ARC
8
BLACK
10
150.0994000000000028
20
-92.5748999999999995
40
0.5001000013687262
50
-179.98854169
51
-90.00423904
0
LINE
8
BLACK
6
CONTINUOUS
10
150.0993629999999825
20
-93.0750000000000028
11
163.6993630000000053
21
-93.0750000000000028
0
LINE
8
BLACK
6
CONTINUOUS
10
154.1743629999999996
20
-60.0249999999999986
11
140.5743630000000053
21
-60.0249999999999986
0
ARC
8
BLACK
10
154.1743999999999915
20
-60.5248999999999953
40
0.4999000013692739
50
-0.01146000
51
90.00424074
0
LINE
8
BLACK
6
CONTINUOUS
10
154.1743629999999996
20
-136.2224999999999966
11
140.5743630000000053
21
-136.2224999999999966
0
ARC
8
BLACK
10
154.1743999999999915
20
-136.7223999999999933
40
0.4999000013692739
50
-0.01146000
51
90.00424074
0
LINE
8
BLACK
6
CONTINUOUS
10
154.3618629999999996
20
-98.625
11
154.3618629999999996
21
-111.625
0
ARC
8
BLACK
10
154.8617999999999881
20
-98.625
40
0.499937
50
89.99278073
51
180.00000000
0
ARC
8
BLACK
10
154.1742999999999881
20
-73.5249999999999915
40
0.5000629999999999
50
-89.99278073
51
-0.00000000
0
LINE
8
BLACK
6
CONTINUOUS
10
154.6743629999999996
20
-73.5249999999999915
11
154.6743629999999996
21
-60.5249999999999986
0
ARC
8
BLACK
10
154.1742999999999881
20
-149.7224999999999966
40
0.5000629999999999
50
-89.99278073
51
-0.00000000
0
LINE
8
BLACK
6
CONTINUOUS
10
154.6743629999999996
20
-149.7224999999999966
11
154.6743629999999996
21
-136.7224999999999966
0
ARC
8
BLACK
10
154.8618999999999915
20
-111.6248999999999967
40
0.5001000013687262
50
-179.98854169
51
-90.00423904
0
LINE
8
BLACK
6
CONTINUOUS
10
154.8618629999999996
20
-112.125
11
168.4618629999999939
21
-112.125
0
LINE
8
BLACK
6
CONTINUOUS
10
158.9368629999999882
20
-117.1749999999999972
11
145.3368629999999939
21
-117.1749999999999972
0
ARC
8
BLACK
10
158.9368999999999801
20
-117.6748999999999938
40
0.4999000013692739
50
-0.01146000
51
90.00424074
0
LINE
8
BLACK
6
CONTINUOUS
10
159.1243629999999882
20
-60.5249999999999986
11
159.1243629999999882
21
-73.5249999999999915
0
ARC
8
BLACK
10
159.6243000000000052
20
-60.5249999999999986
40
0.499937
50
89.99278073
51
180.00000000
0
CIRCLE
8
BLACK
10
159.375
20
-148.2249999999999943
40
1.
0
ARC
8
BLACK
10
158.9368000000000052
20
-130.6749999999999829
40
0.5000629999999999
50
-89.99278073
51
-0.00000000
0
LINE
8
BLACK
6
CONTINUOUS
10
159.4368629999999882
20
-130.6749999999999829
11
159.4368629999999882
21
-117.6749999999999972
0
ARC
8
BLACK
10
159.6243999999999801
20
-73.5249000000000024
40
0.5001000013687262
50
-179.98854169
51
-90.00423904
0
LINE
8
BLACK
6
CONTINUOUS
10
159.6243629999999882
20
-74.0249999999999915
11
173.2243629999999825
21
-74.0249999999999915
0
CIRCLE
8
BLACK
10
161.6624999999999943
20
-124.1749999999999972
40
1.
0
LINE
8
BLACK
6
CONTINUOUS
10
163.6993630000000053
20
-79.0750000000000028
11
150.0993629999999825
21
-79.0750000000000028
0
ARC
8
BLACK
10
163.6993999999999971
20
-79.5748999999999995
40
0.4999000013692739
50
-0.01146000
51
90.00424074
0
LINE
8
BLACK
6
CONTINUOUS
10
163.8868630000000053
20
-117.6749999999999972
11
163.8868630000000053
21
-130.6749999999999829
0
ARC
8
BLACK
10
164.3867999999999938
20
-117.6749999999999972
40
0.499937
50
89.99278073
51
180.00000000
0
ARC
8
BLACK
10
163.6992999999999938
20
-92.5750000000000028
40
0.5000629999999999
50
-89.99278073
51
-0.00000000
0
LINE
8
BLACK
6
CONTINUOUS
10
164.1993630000000053
20
-92.5750000000000028
11
164.1993630000000053
21
-79.5750000000000028
0
ARC
8
BLACK
10
164.3868999999999971
20
-130.674900000000008
40
0.5001000013687262
50
-179.98854169
51
-90.00423904
0
LINE
8
BLACK
6
CONTINUOUS
10
164.3868630000000053
20
-131.1749999999999829
11
177.9868629999999996
21
-131.1749999999999829
0
CIRCLE
8
BLACK
10
166.4249999999999829
20
-86.0750000000000028
40
1.
0
LINE
8
BLACK
6
CONTINUOUS
10
168.4618629999999939
20
-98.125
11
154.8618629999999996
21
-98.125
0
ARC
8
BLACK
10
168.4618999999999858
20
-98.6248999999999967
40
0.4999000013692739
50
-0.01146000
51
90.00424074
0
LINE
8
BLACK
6
CONTINUOUS
10
168.6493629999999939
20
-79.5750000000000028
11
168.6493629999999939
21
-92.5750000000000028
0
ARC
8
BLACK
10
169.1492999999999824
20
-79.5750000000000028
40
0.499937
50
89.99278073
51
180.00000000
0
ARC
8
BLACK
10
168.4617999999999824
20
-111.625
40
0.5000629999999999
50
-89.99278073
51
-0.00000000
0
LINE
8
BLACK
6
CONTINUOUS
10
168.9618629999999939
20
-111.625
11
168.9618629999999939
21
-98.625
0
ARC
8
BLACK
10
169.1493999999999858
20
-92.5748999999999995
40
0.5001000013687262
50
-179.98854169
51
-90.00423904
0
LINE
8
BLACK
6
CONTINUOUS
10
169.1493629999999939
20
-93.0750000000000028
11
182.7493629999999882
21
-93.0750000000000028
0
LINE
8
BLACK
6
CONTINUOUS
10
173.2243629999999825
20
-60.0249999999999986
11
159.6243629999999882
21
-60.0249999999999986
0
ARC
8
BLACK
10
173.2244000000000028
20
-60.5248999999999953
40
0.4999000013692739
50
-0.01146000
51
90.00424074
0
LINE
8
BLACK
6
CONTINUOUS
10
173.4118629999999825
20
-98.625
11
173.4118629999999825
21
-111.625
0
ARC
8
BLACK
10
173.9117999999999995
20
-98.625
40
0.499937
50
89.99278073
51
180.00000000
0
ARC
8
BLACK
10
173.2242999999999995
20
-73.5249999999999915
40
0.5000629999999999
50
-89.99278073
51
-0.00000000
0
LINE
8
BLACK
6
CONTINUOUS
10
173.7243629999999825
20
-73.5249999999999915
11
173.7243629999999825
21
-60.5249999999999986
0
ARC
8
BLACK
10
173.9119000000000028
20
-111.6248999999999967
40
0.5001000013687262
50
-179.98854169
51
-90.00423904
0
LINE
8
BLACK
6
CONTINUOUS
10
173.9118629999999825
20
-112.125
11
187.5118630000000053
21
-112.125
0
LINE
8
BLACK
6
CONTINUOUS
10
177.9868629999999996
20
-117.1749999999999972
11
164.3868630000000053
21
-117.1749999999999972
0
ARC
8
BLACK
10
177.9868999999999915
20
-117.6748999999999938
40
0.4999000013692739
50
-0.01146000
51
90.00424074
0
LINE
8
BLACK
6
CONTINUOUS
10
178.1743629999999996
20
-60.5249999999999986
11
178.1743629999999996
21
-73.5249999999999915
0
ARC
8
BLACK
10
178.6742999999999881
20
-60.5249999999999986
40
0.499937
50
89.99278073
51
180.00000000
0
ARC
8
BLACK
10
177.9867999999999881
20
-130.6749999999999829
40
0.5000629999999999
50
-89.99278073
51
-0.00000000
0
LINE
8
BLACK
6
CONTINUOUS
10
178.4868629999999996
20
-130.6749999999999829
11
178.4868629999999996
21
-117.6749999999999972
0
ARC
8
BLACK
10
178.6743999999999915
20
-73.5249000000000024
40
0.5001000013687262
50
-179.98854169
51
-90.00423904
0
LINE
8
BLACK
6
CONTINUOUS
10
178.6743629999999996
20
-74.0249999999999915
11
192.2743629999999939
21
-74.0249999999999915
0
LINE
8
BLACK
6
CONTINUOUS
10
182.7493629999999882
20
-79.0750000000000028
11
169.1493629999999939
21
-79.0750000000000028
0
ARC
8
BLACK
10
182.7493999999999801
20
-79.5748999999999995
40
0.4999000013692739
50
-0.01146000
51
90.00424074
0
LINE
8
BLACK
6
CONTINUOUS
10
182.9368629999999882
20
-117.6749999999999972
11
182.9368629999999882
21
-130.6749999999999829
0
ARC
8
BLACK
10
183.4368000000000052
20
-117.6749999999999972
40
0.499937
50
89.99278073
51
180.00000000
0
ARC
8
BLACK
10
182.7493000000000052
20
-92.5750000000000028
40
0.5000629999999999
50
-89.99278073
51
-0.00000000
0
LINE
8
BLACK
6
CONTINUOUS
10
183.2493629999999882
20
-92.5750000000000028
11
183.2493629999999882
21
-79.5750000000000028
0
ARC
8
BLACK
10
183.4368999999999801
20
-130.674900000000008
40
0.5001000013687262
50
-179.98854169
51
-90.00423904
0
LINE
8
BLACK
6
CONTINUOUS
10
183.4368629999999882
20
-131.1749999999999829
11
197.0368629999999825
21
-131.1749999999999829
0
LINE
8
BLACK
6
CONTINUOUS
10
187.5118630000000053
20
-98.125
11
173.9118629999999825
21
-98.125
0
ARC
8
BLACK
10
187.5118999999999971
20
-98.6248999999999967
40
0.4999000013692739
50
-0.01146000
51
90.00424074
0
LINE
8
BLACK
6
CONTINUOUS
10
187.6993630000000053
20
-79.5750000000000028
11
187.6993630000000053
21
-92.5750000000000028
0
ARC
8
BLACK
10
188.1992999999999938
20
-79.5750000000000028
40
0.499937
50
89.99278073
51
180.00000000
0
ARC
8
BLACK
10
187.5117999999999938
20
-111.625
40
0.5000629999999999
50
-89.99278073
51
-0.00000000
0
LINE
8
BLACK
6
CONTINUOUS
10
188.0118630000000053
20
-111.625
11
188.0118630000000053
21
-98.625
0
ARC
8
BLACK
10
188.1993999999999971
20
-92.5748999999999995
40
0.5001000013687262
50
-179.98854169
51
-90.00423904
0
LINE
8
BLACK
6
CONTINUOUS
10
188.1993630000000053
20
-93.0750000000000028
11
201.7993629999999996
21
-93.0750000000000028
0
CIRCLE
8
BLACK
10
190.2374999999999829
20
-105.125
40
1.
0
LINE
8
BLACK
6
CONTINUOUS
10
192.2743629999999939
20
-60.0249999999999986
11
178.6743629999999996
21
-60.0249999999999986
0
ARC
8
BLACK
10
192.2743999999999858
20
-60.5248999999999953
40
0.4999000013692739
50
-0.01146000
51
90.00424074
0
LINE
8
BLACK
6
CONTINUOUS
10
192.4618629999999939
20
-98.625
11
192.4618629999999939
21
-111.625
0
ARC
8
BLACK
10
192.9617999999999824
20
-98.625
40
0.499937
50
89.99278073
51
180.00000000
0
ARC
8
BLACK
10
192.2742999999999824
20
-73.5249999999999915
40
0.5000629999999999
50
-89.99278073
51
-0.00000000
0
LINE
8
BLACK
6
CONTINUOUS
10
192.7743629999999939
20
-73.5249999999999915
11
192.7743629999999939
21
-60.5249999999999986
0
ARC
8
BLACK
10
192.9618999999999858
20
-111.6248999999999967
40
0.5001000013687262
50
-179.98854169
51
-90.00423904
0
LINE
8
BLACK
6
CONTINUOUS
10
192.9618629999999939
20
-112.125
11
206.5618629999999882
21
-112.125
0
CIRCLE
8
BLACK
10
195.
20
-67.0249999999999915
40
1.
0
LINE
8
BLACK
6
CONTINUOUS
10
197.0368629999999825
20
-117.1749999999999972
11
183.4368629999999882
21
-117.1749999999999972
0
ARC
8
BLACK
10
197.0369000000000028
20
-117.6748999999999938
40
0.4999000013692739
50
-0.01146000
51
90.00424074
0
LINE
8
BLACK
6
CONTINUOUS
10
197.2243629999999825
20
-60.5249999999999986
11
197.2243629999999825
21
-73.5249999999999915
0
ARC
8
BLACK
10
197.7242999999999995
20
-60.5249999999999986
40
0.499937
50
89.99278073
51
180.00000000
0
ARC
8
BLACK
10
197.0367999999999995
20
-130.6749999999999829
40
0.5000629999999999
50
-89.99278073
51
-0.00000000
0
LINE
8
BLACK
6
CONTINUOUS
10
197.5368629999999825
20
-130.6749999999999829
11
197.5368629999999825
21
-117.6749999999999972
0
ARC
8
BLACK
10
197.7244000000000028
20
-73.5249000000000024
40
0.5001000013687262
50
-179.98854169
51
-90.00423904
0
LINE
8
BLACK
6
CONTINUOUS
10
197.7243629999999825
20
-74.0249999999999915
11
211.3243629999999769
21
-74.0249999999999915
0
ARC
8
BLACK
10
198.2242999999999995
20
-136.772500000000008
40
0.499937
50
89.99278073
51
180.00000000
0
LINE
8
BLACK
6
CONTINUOUS
10
197.7243629999999825
20
-149.6724999999999852
11
197.7243629999999825
21
-136.772500000000008
0
LINE
8
BLACK
6
CONTINUOUS
10
198.2243629999999825
20
-136.272500000000008
11
210.8243629999999769
21
-136.272500000000008
0
ARC
8
BLACK
10
198.2244000000000028
20
-149.6723999999999819
40
0.5001000013687262
50
-179.98854169
51
-90.00423904
0
LINE
8
BLACK
6
CONTINUOUS
10
201.7993629999999996
20
-79.0750000000000028
11
188.1993630000000053
21
-79.0750000000000028
0
ARC
8
BLACK
10
201.7993999999999915
20
-79.5748999999999995
40
0.4999000013692739
50
-0.01146000
51
90.00424074
0
LINE
8
BLACK
6
CONTINUOUS
10
201.9868629999999996
20
-117.6749999999999972
11
201.9868629999999996
21
-130.6749999999999829
0
ARC
8
BLACK
10
202.4867999999999881
20
-117.6749999999999972
40
0.499937
50
89.99278073
51
180.00000000
0
ARC
8
BLACK
10
201.7992999999999881
20
-92.5750000000000028
40
0.5000629999999999
50
-89.99278073
51
-0.00000000
0
LINE
8
BLACK
6
CONTINUOUS
10
202.2993629999999996
20
-92.5750000000000028
11
202.2993629999999996
21
-79.5750000000000028
0
ARC
8
BLACK
10
202.4868999999999915
20
-130.674900000000008
40
0.5001000013687262
50
-179.98854169
51
-90.00423904
0
LINE
8
BLACK
6
CONTINUOUS
10
202.4868629999999996
20
-131.1749999999999829
11
216.0868629999999939
21
-131.1749999999999829
0
LINE
8
BLACK
6
CONTINUOUS
10
206.5618629999999882
20
-98.125
11
192.9618629999999939
21
-98.125
0
ARC
8
BLACK
10
206.5618999999999801
20
-98.6248999999999967
40
0.4999000013692739
50
-0.01146000
51
90.00424074
0
LINE
8
BLACK
6
CONTINUOUS
10
206.7493629999999882
20
-79.5750000000000028
11
206.7493629999999882
21
-92.5750000000000028
0
ARC
8
BLACK
10
207.2492999999999768
20
-79.5750000000000028
40
0.499937
50
89.99278073
51
180.00000000
0
ARC
8
BLACK
10
206.5617999999999768
20
-111.625
40
0.5000629999999999
50
-89.99278073
51
-0.00000000
0
LINE
8
BLACK
6
CONTINUOUS
10
207.0618629999999882
20
-111.625
11
207.0618629999999882
21
-98.625
0
ARC
8
BLACK
10
207.2493999999999801
20
-92.5748999999999995
40
0.5001000013687262
50
-179.98854169
51
-90.00423904
0
LINE
8
BLACK
6
CONTINUOUS
10
207.2493629999999882
20
-93.0750000000000028
11
220.8493629999999825
21
-93.0750000000000028
0
ARC
8
BLACK
10
210.8243999999999971
20
-136.7724000000000046
40
0.4999000013692739
50
-0.01146000
51
90.00424074
0
LINE
8
BLACK
6
CONTINUOUS
10
210.8243629999999769
20
-150.1724999999999852
11
198.2243629999999825
21
-150.1724999999999852
0
LINE
8
BLACK
6
CONTINUOUS
10
211.3243629999999769
20
-60.0249999999999986
11
197.7243629999999825
21
-60.0249999999999986
0
ARC
8
BLACK
10
211.3243999999999971
20
-60.5248999999999953
40
0.4999000013692739
50
-0.01146000
51
90.00424074
0
LINE
8
BLACK
6
CONTINUOUS
10
211.3243629999999769
20
-136.772500000000008
11
211.3243629999999769
21
-149.6724999999999852
0
ARC
8
BLACK
10
210.8242999999999938
20
-149.6724999999999852
40
0.5000629999999999
50
-89.99278073
51
-0.00000000
0
LINE
8
BLACK
6
CONTINUOUS
10
211.5118629999999769
20
-98.625
11
211.5118629999999769
21
-111.625
0
ARC
8
BLACK
10
212.0117999999999938
20
-98.625
40
0.499937
50
89.99278073
51
180.00000000
0
ARC
8
BLACK
10
211.3242999999999938
20
-73.5249999999999915
40
0.5000629999999999
50
-89.99278073
51
-0.00000000
0
LINE
8
BLACK
6
CONTINUOUS
10
211.8243629999999769
20
-73.5249999999999915
11
211.8243629999999769
21
-60.5249999999999986
0
ARC
8
BLACK
10
212.0118999999999971
20
-111.6248999999999967
40
0.5001000013687262
50
-179.98854169
51
-90.00423904
0
LINE
8
BLACK
6
CONTINUOUS
10
212.0118629999999769
20
-112.125
11
225.6118629999999996
21
-112.125
0
LINE
8
BLACK
6
CONTINUOUS
10
216.0868629999999939
20
-117.1749999999999972
11
202.4868629999999996
21
-117.1749999999999972
0
ARC
8
BLACK
10
216.0868999999999858
20
-117.6748999999999938
40
0.4999000013692739
50
-0.01146000
51
90.00424074
0
LINE
8
BLACK
6
CONTINUOUS
10
216.2743629999999939
20
-60.5249999999999986
11
216.2743629999999939
21
-73.5249999999999915
0
ARC
8
BLACK
10
216.7742999999999824
20
-60.5249999999999986
40
0.499937
50
89.99278073
51
180.00000000
0
ARC
8
BLACK
10
216.0867999999999824
20
-130.6749999999999829
40
0.5000629999999999
50
-89.99278073
51
-0.00000000
0
LINE
8
BLACK
6
CONTINUOUS
10
216.5868629999999939
20
-130.6749999999999829
11
216.5868629999999939
21
-117.6749999999999972
0
ARC
8
BLACK
10
216.7743999999999858
20
-73.5249000000000024
40
0.5001000013687262
50
-179.98854169
51
-90.00423904
0
LINE
8
BLACK
6
CONTINUOUS
10
216.7743629999999939
20
-74.0249999999999915
11
230.3743629999999882
21
-74.0249999999999915
0
CIRCLE
8
BLACK
10
218.8125
20
-124.1749999999999972
40
1.
0
CIRCLE
8
BLACK
10
218.8125
20
-143.2249999999999943
40
1.
0
LINE
8
BLACK
6
CONTINUOUS
10
220.8493629999999825
20
-79.0750000000000028
11
207.2493629999999882
21
-79.0750000000000028
0
ARC
8
BLACK
10
220.8494000000000028
20
-79.5748999999999995
40
0.4999000013692739
50
-0.01146000
51
90.00424074
0
LINE
8
BLACK
6
CONTINUOUS
10
221.0368629999999825
20
-117.6749999999999972
11
221.0368629999999825
21
-130.6749999999999829
0
ARC
8
BLACK
10
221.5367999999999995
20
-117.6749999999999972
40
0.499937
50
89.99278073
51
180.00000000
0
LINE
8
BLACK
6
CONTINUOUS
10
221.0368629999999825
20
-136.7224999999999966
11
221.0368629999999825
21
-149.7224999999999966
0
ARC
8
BLACK
10
221.5367999999999995
20
-136.7224999999999966
40
0.499937
50
89.99278073
51
180.00000000
0
ARC
8
BLACK
10
220.8492999999999995
20
-92.5750000000000028
40
0.5000629999999999
50
-89.99278073
51
-0.00000000
0
LINE
8
BLACK
6
CONTINUOUS
10
221.3493629999999825
20
-92.5750000000000028
11
221.3493629999999825
21
-79.5750000000000028
0
ARC
8
BLACK
10
221.5369000000000028
20
-130.674900000000008
40
0.5001000013687262
50
-179.98854169
51
-90.00423904
0
LINE
8
BLACK
6
CONTINUOUS
10
221.5368629999999825
20
-131.1749999999999829
11
235.1368629999999769
21
-131.1749999999999829
0
ARC
8
BLACK
10
221.5369000000000028
20
-149.7223999999999933
40
0.5001000013687262
50
-179.98854169
51
-90.00423904
0
LINE
8
BLACK
6
CONTINUOUS
10
221.5368629999999825
20
-150.2224999999999966
11
235.1368629999999769
21
-150.2224999999999966
0
CIRCLE
8
BLACK
10
223.5749999999999886
20
-86.0750000000000028
40
1.
0
LINE
8
BLACK
6
CONTINUOUS
10
225.6118629999999996
20
-98.125
11
212.0118629999999769
21
-98.125
0
ARC
8
BLACK
10
225.6118999999999915
20
-98.6248999999999967
40
0.4999000013692739
50
-0.01146000
51
90.00424074
0
LINE
8
BLACK
6
CONTINUOUS
10
225.7993629999999996
20
-79.5750000000000028
11
225.7993629999999996
21
-92.5750000000000028
0
ARC
8
BLACK
10
226.2992999999999881
20
-79.5750000000000028
40
0.499937
50
89.99278073
51
180.00000000
0
ARC
8
BLACK
10
225.6117999999999881
20
-111.625
40
0.5000629999999999
50
-89.99278073
51
-0.00000000
0
LINE
8
BLACK
6
CONTINUOUS
10
226.1118629999999996
20
-111.625
11
226.1118629999999996
21
-98.625
0
ARC
8
BLACK
10
226.2993999999999915
20
-92.5748999999999995
40
0.5001000013687262
50
-179.98854169
51
-90.00423904
0
LINE
8
BLACK
6
CONTINUOUS
10
226.2993629999999996
20
-93.0750000000000028
11
239.8993629999999939
21
-93.0750000000000028
0
LINE
8
BLACK
6
CONTINUOUS
10
230.3743629999999882
20
-60.0249999999999986
11
216.7743629999999939
21
-60.0249999999999986
0
ARC
8
BLACK
10
230.3743999999999801
20
-60.5248999999999953
40
0.4999000013692739
50
-0.01146000
51
90.00424074
0
LINE
8
BLACK
6
CONTINUOUS
10
230.5618629999999882
20
-98.625
11
230.5618629999999882
21
-111.625
0
ARC
8
BLACK
10
231.0617999999999768
20
-98.625
40
0.499937
50
89.99278073
51
180.00000000
0
ARC
8
BLACK
10
230.3742999999999768
20
-73.5249999999999915
40
0.5000629999999999
50
-89.99278073
51
-0.00000000
0
LINE
8
BLACK
6
CONTINUOUS
10
230.8743629999999882
20
-73.5249999999999915
11
230.8743629999999882
21
-60.5249999999999986
0
ARC
8
BLACK
10
231.0618999999999801
20
-111.6248999999999967
40
0.5001000013687262
50
-179.98854169
51
-90.00423904
0
LINE
8
BLACK
6
CONTINUOUS
10
231.0618629999999882
20
-112.125
11
244.6618629999999825
21
-112.125
0
LINE
8
BLACK
6
CONTINUOUS
10
235.1368629999999769
20
-117.1749999999999972
11
221.5368629999999825
21
-117.1749999999999972
0
ARC
8
BLACK
10
235.1368999999999971
20
-117.6748999999999938
40
0.4999000013692739
50
-0.01146000
51
90.00424074
0
LINE
8
BLACK
6
CONTINUOUS
10
235.1368629999999769
20
-136.2224999999999966
11
221.5368629999999825
21
-136.2224999999999966
0
ARC
8
BLACK
10
235.1368999999999971
20
-136.7223999999999933
40
0.4999000013692739
50
-0.01146000
51
90.00424074
0
LINE
8
BLACK
6
CONTINUOUS
10
235.3243629999999769
20
-60.5249999999999986
11
235.3243629999999769
21
-73.5249999999999915
0
ARC
8
BLACK
10
235.8242999999999938
20
-60.5249999999999986
40
0.499937
50
89.99278073
51
180.00000000
0
ARC
8
BLACK
10
235.1367999999999938
20
-130.6749999999999829
40
0.5000629999999999
50
-89.99278073
51
-0.00000000
0
LINE
8
BLACK
6
CONTINUOUS
10
235.6368629999999769
20
-130.6749999999999829
11
235.6368629999999769
21
-117.6749999999999972
0
ARC
8
BLACK
10
235.1367999999999938
20
-149.7224999999999966
40
0.5000629999999999
50
-89.99278073
51
-0.00000000
0
LINE
8
BLACK
6
CONTINUOUS
10
235.6368629999999769
20
-149.7224999999999966
11
235.6368629999999769
21
-136.7224999999999966
0
ARC
8
BLACK
10
235.8243999999999971
20
-73.5249000000000024
40
0.5001000013687262
50
-179.98854169
51
-90.00423904
0
LINE
8
BLACK
6
CONTINUOUS
10
235.8243629999999769
20
-74.0249999999999915
11
249.4243629999999996
21
-74.0249999999999915
0
LINE
8
BLACK
6
CONTINUOUS
10
239.8993629999999939
20
-79.0750000000000028
11
226.2993629999999996
21
-79.0750000000000028
0
ARC
8
BLACK
10
239.8993999999999858
20
-79.5748999999999995
40
0.4999000013692739
50
-0.01146000
51
90.00424074
0
ARC
8
BLACK
10
239.8992999999999824
20
-92.5750000000000028
40
0.5000629999999999
50
-89.99278073
51
-0.00000000
0
LINE
8
BLACK
6
CONTINUOUS
10
240.3993629999999939
20
-92.5750000000000028
11
240.3993629999999939
21
-79.5750000000000028
0
CIRCLE
8
BLACK
10
242.625
20
-143.2249999999999943
40
1.
0
LINE
8
BLACK
6
CONTINUOUS
10
244.6618629999999825
20
-98.125
11
231.0618629999999882
21
-98.125
0
ARC
8
BLACK
10
244.6619000000000028
20
-98.6248999999999967
40
0.4999000013692739
50
-0.01146000
51
90.00424074
0
LINE
8
BLACK
6
CONTINUOUS
10
244.8493629999999825
20
-79.5750000000000028
11
244.8493629999999825
21
-92.5750000000000028
0
ARC
8
BLACK
10
245.3492999999999995
20
-79.5750000000000028
40
0.499937
50
89.99278073
51
180.00000000
0
LINE
8
BLACK
6
CONTINUOUS
10
244.8493629999999825
20
-136.7224999999999966
11
244.8493629999999825
21
-149.7224999999999966
0
ARC
8
BLACK
10
245.3492999999999995
20
-136.7224999999999966
40
0.499937
50
89.99278073
51
180.00000000
0
ARC
8
BLACK
10
244.6617999999999995
20
-111.625
40
0.5000629999999999
50
-89.99278073
51
-0.00000000
0
LINE
8
BLACK
6
CONTINUOUS
10
245.1618629999999825
20
-111.625
11
245.1618629999999825
21
-98.625
0
ARC
8
BLACK
10
245.3494000000000028
20
-92.5748999999999995
40
0.5001000013687262
50
-179.98854169
51
-90.00423904
0
LINE
8
BLACK
6
CONTINUOUS
10
245.3493629999999825
20
-93.0750000000000028
11
258.9493630000000053
21
-93.0750000000000028
0
ARC
8
BLACK
10
245.3494000000000028
20
-149.7223999999999933
40
0.5001000013687262
50
-179.98854169
51
-90.00423904
0
LINE
8
BLACK
6
CONTINUOUS
10
245.3493629999999825
20
-150.2224999999999966
11
258.9493630000000053
21
-150.2224999999999966
0
LINE
8
BLACK
6
CONTINUOUS
10
247.2306129999999769
20
-117.6770029999999991
11
247.2306129999999769
21
-130.6770510000000058
0
ARC
8
BLACK
10
247.7304999999999779
20
-117.6769999999999925
40
0.499887000009002
50
-270.01295014
51
-179.99965615
0
ARC
8
BLACK
10
247.7306999999999846
20
-130.6769999999999925
40
0.5000510056244263
50
-179.99415569
51
-90.00859349
0
LINE
8
BLACK
6
CONTINUOUS
10
247.730624999999975
20
-131.1770510000000058
11
261.3367700000000013
21
-131.1770510000000058
0
LINE
8
BLACK
6
CONTINUOUS
10
249.4243629999999996
20
-60.0249999999999986
11
235.8243629999999769
21
-60.0249999999999986
0
ARC
8
BLACK
10
249.4243999999999915
20
-60.5248999999999953
40
0.4999000013692739
50
-0.01146000
51
90.00424074
0
ARC
8
BLACK
10
249.4242999999999881
20
-73.5249999999999915
40
0.5000629999999999
50
-89.99278073
51
-0.00000000
0
LINE
8
BLACK
6
CONTINUOUS
10
249.9243629999999996
20
-73.5249999999999915
11
249.9243629999999996
21
-60.5249999999999986
0
CIRCLE
8
BLACK
10
252.1499999999999773
20
-67.0249999999999915
40
1.
0
LINE
8
BLACK
6
CONTINUOUS
10
252.8181129999999825
20
-98.6499999999999915
11
252.8181129999999825
21
-110.367999999999995
0
ARC
8
BLACK
10
253.3180999999999869
20
-98.6499999999999915
40
0.499987
50
89.99851046
51
180.00000000
0
LINE
8
BLACK
6
CONTINUOUS
10
252.8181129999999825
20
-110.367999999999995
11
255.8181129999999825
21
-112.0999999999999943
0
LINE
8
BLACK
6
CONTINUOUS
10
254.3743629999999882
20
-60.5249999999999986
11
254.3743629999999882
21
-73.5249999999999915
0
ARC
8
BLACK
10
254.8742999999999768
20
-60.5249999999999986
40
0.499937
50
89.99278073
51
180.00000000
0
ARC
8
BLACK
10
254.8743999999999801
20
-73.5249000000000024
40
0.5001000013687262
50
-179.98854169
51
-90.00423904
0
LINE
8
BLACK
6
CONTINUOUS
10
254.8743629999999882
20
-74.0249999999999915
11
268.4743629999999825
21
-74.0249999999999915
0
LINE
8
BLACK
6
CONTINUOUS
10
255.8181129999999825
20
-112.0999999999999943
11
281.8181129999999825
21
-112.0999999999999943
0
LINE
8
BLACK
6
CONTINUOUS
10
258.9493630000000053
20
-79.0750000000000028
11
245.3493629999999825
21
-79.0750000000000028
0
ARC
8
BLACK
10
258.9493999999999687
20
-79.5748999999999995
40
0.4999000013692739
50
-0.01146000
51
90.00424074
0
LINE
8
BLACK
6
CONTINUOUS
10
258.9493630000000053
20
-136.2224999999999966
11
245.3493629999999825
21
-136.2224999999999966
0
ARC
8
BLACK
10
258.9493999999999687
20
-136.7223999999999933
40
0.4999000013692739
50
-0.01146000
51
90.00424074
0
ARC
8
BLACK
10
258.9492999999999938
20
-92.5750000000000028
40
0.5000629999999999
50
-89.99278073
51
-0.00000000
0
LINE
8
BLACK
6
CONTINUOUS
10
259.4493630000000053
20
-92.5750000000000028
11
259.4493630000000053
21
-79.5750000000000028
0
ARC
8
BLACK
10
258.9492999999999938
20
-149.7224999999999966
40
0.5000629999999999
50
-89.99278073
51
-0.00000000
0
LINE
8
BLACK
6
CONTINUOUS
10
259.4493630000000053
20
-149.7224999999999966
11
259.4493630000000053
21
-136.7224999999999966
0
ARC
8
BLACK
10
263.1499000000000024
20
-135.0903999999999883
40
1.9999000020703535
50
-270.00286486
51
-179.99739291
0
ARC
8
BLACK
10
259.1499000000000024
20
-150.25
40
2.0000999999999998
50
-89.99713528
51
-0.00000000
0
LINE
8
BLACK
6
CONTINUOUS
10
261.1499999999999773
20
-150.25
11
261.1499999999999773
21
-135.0904909999999859
0
LINE
8
BLACK
6
CONTINUOUS
10
261.330524999999966
20
-117.1770509999999916
11
247.7306129999999769
21
-117.1770509999999916
0
ARC
8
BLACK
10
261.330600000000004
20
-117.6770999999999958
40
0.5000490056244488
50
0.92344488
51
90.00859352
0
ARC
8
BLACK
10
261.3303999999999974
20
-130.6768999999999892
40
0.5002130000089962
50
-89.27036633
51
-0.00034363
0
LINE
8
BLACK
6
CONTINUOUS
10
261.8306129999999712
20
-130.6769029999999816
11
261.8306129999999712
21
-117.6690409999999929
0
LINE
8
BLACK
6
CONTINUOUS
10
263.1499999999999773
20
-133.0904909999999859
11
287.75
21
-133.0904909999999859
0
ARC
8
BLACK
10
265.2124999999999773
20
-79.0750000000000028
40
2.0000001666502429
50
-420.00000276
51
-119.99999724
0
LINE
8
BLACK
6
CONTINUOUS
10
264.2124999999999773
20
-92.5750000000000028
11
264.2124999999999773
21
-80.8070510000000013
0
ARC
8
BLACK
10
264.7124999999999773
20
-92.575099999999992
40
0.4999
50
-180.01146026
51
-90.00000000
0
LINE
8
BLACK
6
CONTINUOUS
10
265.7124999999999773
20
-93.0750000000000028
11
264.7124999999999773
21
-93.0750000000000028
0
LINE
8
BLACK
6
CONTINUOUS
10
266.2124999999999773
20
-80.8070510000000013
11
266.2124999999999773
21
-92.5750000000000028
0
ARC
8
BLACK
10
265.7124000000000024
20
-92.5750000000000028
40
0.5001
50
-89.98854194
51
-0.00000000
0
LINE
8
BLACK
6
CONTINUOUS
10
268.4743629999999825
20
-60.0249999999999986
11
254.8743629999999882
21
-60.0249999999999986
0
ARC
8
BLACK
10
268.4744000000000028
20
-60.5248999999999953
40
0.4999000013692739
50
-0.01146000
51
90.00424074
0
LINE
8
BLACK
6
CONTINUOUS
10
268.6618629999999825
20
-79.5750000000000028
11
268.6618629999999825
21
-92.5750000000000028
0
ARC
8
BLACK
10
269.1617999999999711
20
-79.5750000000000028
40
0.499937
50
89.99278073
51
180.00000000
0
ARC
8
BLACK
10
268.4742999999999711
20
-73.5249999999999915
40
0.5000629999999999
50
-89.99278073
51
-0.00000000
0
LINE
8
BLACK
6
CONTINUOUS
10
268.9743629999999825
20
-73.5249999999999915
11
268.9743629999999825
21
-60.5249999999999986
0
ARC
8
BLACK
10
269.1619000000000028
20
-92.5748999999999995
40
0.5001000013687262
50
-179.98854169
51
-90.00423904
0
LINE
8
BLACK
6
CONTINUOUS
10
269.1618629999999825
20
-93.0750000000000028
11
282.7618630000000053
21
-93.0750000000000028
0
CIRCLE
8
BLACK
10
271.1999999999999886
20
-124.1749999999999972
40
1.
0
LINE
8
BLACK
6
CONTINUOUS
10
273.4218250000000126
20
-117.6770029999999991
11
273.4218250000000126
21
-130.6770029999999849
0
ARC
8
BLACK
10
273.921799999999962
20
-117.6769999999999925
40
0.4999750000090005
50
-270.00286457
51
-179.99965621
0
LINE
8
BLACK
6
CONTINUOUS
10
273.4243629999999712
20
-60.5249999999999986
11
273.4243629999999712
21
-73.5249999999999915
0
ARC
8
BLACK
10
273.9242999999999597
20
-60.5249999999999986
40
0.499937
50
89.99278073
51
180.00000000
0
ARC
8
BLACK
10
273.9218999999999937
20
-130.6768999999999892
40
0.5001030056238415
50
-179.98819801
51
-90.00859260
0
LINE
8
BLACK
6
CONTINUOUS
10
273.9218250000000126
20
-131.1770029999999849
11
287.5218249999999784
21
-131.1770029999999849
0
ARC
8
BLACK
10
273.9243999999999915
20
-73.5249000000000024
40
0.5001000013687262
50
-179.98854169
51
-90.00423904
0
LINE
8
BLACK
6
CONTINUOUS
10
273.9243629999999712
20
-74.0249999999999915
11
287.5243629999999939
21
-74.0249999999999915
0
LINE
8
BLACK
6
CONTINUOUS
10
281.8181129999999825
20
-112.0999999999999943
11
284.8181129999999825
21
-110.367999999999995
0
LINE
8
BLACK
6
CONTINUOUS
10
282.7618630000000053
20
-79.0750000000000028
11
269.1618629999999825
21
-79.0750000000000028
0
ARC
8
BLACK
10
282.7618999999999687
20
-79.5748999999999995
40
0.4999000013692739
50
-0.01146000
51
90.00424074
0
ARC
8
BLACK
10
282.7617999999999938
20
-92.5750000000000028
40
0.5000629999999999
50
-89.99278073
51
-0.00000000
0
LINE
8
BLACK
6
CONTINUOUS
10
283.2618630000000053
20
-92.5750000000000028
11
283.2618630000000053
21
-79.5750000000000028
0
LINE
8
BLACK
6
CONTINUOUS
10
284.3181129999999825
20
-98.1499999999999915
11
253.3181129999999825
21
-98.1499999999999915
0
ARC
8
BLACK
10
284.3181000000000154
20
-98.6499000000000024
40
0.4999000001690338
50
-0.01146000
51
89.99851001
0
LINE
8
BLACK
6
CONTINUOUS
10
284.8181129999999825
20
-110.367999999999995
11
284.8181129999999825
21
-98.6499999999999915
0
CIRCLE
8
BLACK
10
285.4875000000000114
20
-86.0750000000000028
40
1.
0
LINE
8
BLACK
6
CONTINUOUS
10
287.5218249999999784
20
-117.1770029999999991
11
273.9218250000000126
21
-117.1770029999999991
0
ARC
8
BLACK
10
287.5218999999999596
20
-117.6768999999999892
40
0.499897005626159
50
-0.01180387
51
90.00859614
0
LINE
8
BLACK
6
CONTINUOUS
10
287.5243629999999939
20
-60.0249999999999986
11
273.9243629999999712
21
-60.0249999999999986
0
ARC
8
BLACK
10
287.5244000000000142
20
-60.5248999999999953
40
0.4999000013692739
50
-0.01146000
51
90.00424074
0
LINE
8
BLACK
6
CONTINUOUS
10
287.75
20
-58.
11
7.
21
-58.
0
ARC
8
BLACK
10
287.75
20
-60.0000999999999962
40
2.0000999999999998
50
0.00286472
51
90.00000000
0
CIRCLE
8
BLACK
10
287.8249999999999886
20
-105.125
40
1.
0
ARC
8
BLACK
10
287.5217999999999847
20
-130.6769999999999925
40
0.5000250000089995
50
-89.99713499
51
-0.00034376
0
LINE
8
BLACK
6
CONTINUOUS
10
288.0218249999999784
20
-130.6770029999999849
11
288.0218249999999784
21
-117.6770029999999991
0
ARC
8
BLACK
10
287.5242999999999824
20
-73.5249999999999915
40
0.5000629999999999
50
-89.99278073
51
-0.00000000
0
LINE
8
BLACK
6
CONTINUOUS
10
288.0243629999999939
20
-73.5249999999999915
11
288.0243629999999939
21
-60.5249999999999986
0
ARC
8
BLACK
10
287.7498999999999683
20
-131.0903999999999883
40
2.0001000020701465
50
-89.99713528
51
-0.00260683
0
LINE
8
BLACK
6
CONTINUOUS
10
289.75
20
-131.0904909999999859
11
289.75
21
-60.
  0
ENDSEC
  0
EOF
